<svg xmlns="http://www.w3.org/2000/svg" width="36" height="36" viewBox="0 0 36 36">
    <g fill="none" fill-rule="evenodd">
        <path fill="#FEFEFE" d="M0 0H360V4400H0z" transform="translate(-32 -1357)"/>
        <g>
            <g stroke="#2581FF">
                <path d="M7.333 9.506l-1.628-1.04c-.312-.199-.709-.21-1.03-.027L2.506 9.666c-.313.178-.507.51-.507.87v7.385M5.198 8.143v9.85M11.667.095v17.898" transform="translate(-32 -1357) translate(32 1357) translate(6 8)"/>
                <path d="M7.333 17.993V3.22c0-.352.185-.678.487-.858L11.1.398c.312-.187.702-.19 1.016-.006l3.387 1.971c.308.18.497.509.497.865v14.765" transform="translate(-32 -1357) translate(32 1357) translate(6 8)"/>
                <path stroke-linecap="round" stroke-linejoin="round" d="M0 17.92l23.432.073" transform="translate(-32 -1357) translate(32 1357) translate(6 8)"/>
                <path d="M16 9.445l1.628-1.04c.312-.2.709-.21 1.031-.027l2.167 1.227c.314.177.507.51.507.87v7.384M18.136 8.081v9.85" transform="translate(-32 -1357) translate(32 1357) translate(6 8)"/>
            </g>
            <path stroke="#2581FF" stroke-linecap="round" stroke-linejoin="round" d="M19.5 11.8l4 2.3" transform="translate(-32 -1357) translate(32 1357)"/>
        </g>
    </g>
</svg>
