<svg xmlns="http://www.w3.org/2000/svg" width="36" height="36" viewBox="0 0 36 36">
    <g fill="none" fill-rule="evenodd">
        <path fill="#FEFEFE" d="M0 0H360V4400H0z" transform="translate(-32 -1413)"/>
        <g fill="#2581FF" fill-rule="nonzero">
            <path d="M18 9.754v5.296c1.141.232 2 1.24 2 2.45V19c0 .552-.448 1-1 1H1c-.552 0-1-.448-1-1v-1.5c0-1.21.859-2.218 2-2.45V9.754c0-4.12 3.315-7.489 7.5-7.74V.5c0-.276.224-.5.5-.5s.5.224.5.5v1.515c4.185.25 7.5 3.62 7.5 7.74zM3 14.99c-.002.1-.003.27-.003.513 0 .274-.221.497-.496.498H2.5c-.828 0-1.5.672-1.5 1.5V19h18v-1.5c0-.828-.672-1.42-1.5-1.42-.28-.011-.502-.241-.503-.522-.001-.272 0-.458.003-.558h-.04.04V9.754C17 6.031 13.873 3 10 3S3 6.031 3 9.754v5.235zM13 20h1c0 2.21-1.79 4-4 4s-4-1.79-4-4h1c0 1.657 1.343 3 3 3s3-1.343 3-3zm0 0h1c0 2.21-1.79 4-4 4s-4-1.79-4-4h1c0 1.657 1.343 3 3 3s3-1.343 3-3z" transform="translate(-32 -1413) translate(40 1419)"/>
        </g>
    </g>
</svg>
