<svg xmlns="http://www.w3.org/2000/svg" width="36" height="36" viewBox="0 0 36 36">
    <g fill="none" fill-rule="evenodd">
        <path fill="#FEFEFE" d="M0 0H360V4400H0z" transform="translate(-32 -1469)"/>
        <g fill="#7175FF" fill-rule="nonzero">
            <path d="M15.656 8l-.927 1.043H11c-.276 0-.5.234-.5.522V19h.811c.422 0 .798.264.94.66l.485 1.34c.143.395.519.66.94.66h8.684c.413 0 .784-.254.933-.64l.534-1.38c.15-.386.52-.64.933-.64h.74V9.565c0-.288-.224-.522-.5-.522h-3.765L20.318 8H25c.828 0 1.5.7 1.5 1.565V15.5L30 19v7c0 1.657-1.343 3-3 3H9c-1.657 0-3-1.343-3-3v-7l3.5-3.5V9.565C9.5 8.701 10.172 8 11 8h4.656zM9.5 16.914L7.414 19H9.5v-2.086zM26.5 19h2.086L26.5 16.914V19zM7 20v6c0 1.105.895 2 2 2h18c1.105 0 2-.895 2-2v-6h-4.24l-.534 1.381c-.299.77-1.04 1.278-1.866 1.278h-8.684c-.842 0-1.594-.528-1.88-1.32L11.31 20H7z" transform="translate(-32 -1469) translate(32 1469)"/>
            <path d="M18.5 8.816l2.12 2.446c.18.208.496.231.706.053.21-.179.233-.491.053-.7L18.391 7.17c-.199-.23-.557-.23-.757-.001l-3.012 3.445c-.18.207-.158.52.05.7.21.179.525.156.706-.05L17.5 8.835v7.67c0 .272.224.492.5.492s.5-.22.5-.492v-7.69z" transform="translate(-32 -1469) translate(32 1469)"/>
        </g>
    </g>
</svg>
