<svg width="52" height="42" viewBox="0 0 52 42" fill="none" xmlns="http://www.w3.org/2000/svg">
<rect y="8" width="24" height="24" rx="12" fill="#006CFF"/>
<path d="M36.4388 33.4505C32.8454 35.5685 28.6023 36.2292 24.5531 35.3013C20.504 34.3734 16.9454 31.9249 14.585 28.4425C12.2246 24.9602 11.2351 20.6991 11.8135 16.5066C12.3918 12.314 14.4956 8.49705 17.7064 5.81461C20.9172 3.13217 25 1.78074 29.1429 2.02903C33.2858 2.27732 37.1853 4.10713 40.0662 7.15465C42.9471 10.2022 44.5983 14.2442 44.6915 18.477C44.7847 22.7098 43.3131 26.8234 40.5693 29.9998" stroke="#3A3A3A" stroke-width="4" stroke-linecap="round" stroke-linejoin="round"/>
<path d="M40.5652 29.9551L49.6521 38.9995" stroke="#3A3A3A" stroke-width="4" stroke-linecap="round" stroke-linejoin="round"/>
</svg>
