<svg width="48" height="48" viewBox="0 0 48 48" fill="none" xmlns="http://www.w3.org/2000/svg">
<path d="M45.7962 22.5243L33.9308 18.1323L29.5002 3.61099C29.3295 3.05099 28.8108 2.66699 28.2255 2.66699C27.6402 2.66699 27.1215 3.05099 26.9508 3.61099L22.5215 18.1323L10.6548 22.5243C10.1308 22.719 9.78418 23.2163 9.78418 23.775C9.78418 24.3323 10.1308 24.8323 10.6548 25.0257L22.5148 29.4163L26.9468 44.3803C27.1148 44.9457 27.6348 45.3337 28.2255 45.3337C28.8148 45.3337 29.3362 44.9457 29.5042 44.379L33.9362 29.415L45.7975 25.0243C46.3188 24.8323 46.6668 24.3337 46.6668 23.775C46.6668 23.2177 46.3188 22.719 45.7962 22.5243Z" fill="url(#paint0_linear_671_18416)"/>
<path d="M19.1295 37.1919L16.0442 36.0505L14.8442 31.6505C14.6868 31.0692 14.1602 30.6665 13.5588 30.6665C12.9575 30.6665 12.4308 31.0692 12.2722 31.6492L11.0722 36.0492L7.98816 37.1905C7.46416 37.3839 7.1175 37.8839 7.1175 38.4412C7.1175 38.9985 7.46416 39.4985 7.98816 39.6919L11.0562 40.8292L12.2655 45.6585C12.4148 46.2505 12.9468 46.6665 13.5588 46.6665C14.1708 46.6665 14.7028 46.2505 14.8522 45.6572L16.0615 40.8279L19.1295 39.6905C19.6535 39.4985 20.0002 38.9985 20.0002 38.4412C20.0002 37.8839 19.6535 37.3839 19.1295 37.1919ZM13.3455 8.30785L10.1935 7.14119L9.0255 3.98785C8.83216 3.46385 8.3335 3.11719 7.77483 3.11719C7.2175 3.11719 6.71883 3.46385 6.52416 3.98785L5.3575 7.14119L2.20416 8.30785C1.68016 8.50252 1.3335 9.00119 1.3335 9.55852C1.3335 10.1159 1.68016 10.6159 2.20416 10.8092L5.3575 11.9759L6.52416 15.1292C6.71883 15.6532 7.2175 15.9999 7.77483 15.9999C8.33216 15.9999 8.83083 15.6532 9.0255 15.1292L10.1922 11.9759L13.3455 10.8092C13.8695 10.6145 14.2162 10.1159 14.2162 9.55852C14.2162 9.00119 13.8695 8.50252 13.3455 8.30785Z" fill="url(#paint1_linear_671_18416)"/>
<defs>
<linearGradient id="paint0_linear_671_18416" x1="28.2255" y1="2.66699" x2="28.2255" y2="45.3337" gradientUnits="userSpaceOnUse">
<stop stop-color="#C3C8D2"/>
<stop offset="1" stop-color="#C3C8D2" stop-opacity="0.63"/>
</linearGradient>
<linearGradient id="paint1_linear_671_18416" x1="10.6668" y1="3.11719" x2="10.6668" y2="46.6665" gradientUnits="userSpaceOnUse">
<stop stop-color="#D1D9E5"/>
<stop offset="1" stop-color="#E8ECF2" stop-opacity="0.95"/>
</linearGradient>
</defs>
</svg>
