<svg width="37" height="37" viewBox="0 0 37 37" fill="none" xmlns="http://www.w3.org/2000/svg">
<path d="M1.69876 19.6386L10.845 23.0241L14.2603 34.2176C14.3918 34.6493 14.7916 34.9453 15.2428 34.9453C15.694 34.9453 16.0938 34.6493 16.2254 34.2176L19.6396 23.0241L28.7869 19.6386C29.1908 19.4886 29.458 19.1052 29.458 18.6746C29.458 18.245 29.1908 17.8595 28.7869 17.7105L19.6448 14.326L16.2285 2.79129C16.099 2.35551 15.6981 2.05643 15.2428 2.05643C14.7885 2.05643 14.3867 2.35551 14.2572 2.79232L10.8408 14.3271L1.69773 17.7115C1.29587 17.8595 1.02762 18.2439 1.02762 18.6746C1.02762 19.1042 1.29587 19.4886 1.69876 19.6386Z" fill="url(#paint0_linear_671_18420)"/>
<path d="M22.2543 8.33177L24.6326 9.21155L25.5576 12.6032C25.6789 13.0513 26.0848 13.3617 26.5484 13.3617C27.0119 13.3617 27.4179 13.0513 27.5402 12.6042L28.4652 9.21257L30.8424 8.3328C31.2463 8.18377 31.5135 7.79835 31.5135 7.36874C31.5135 6.93913 31.2463 6.55371 30.8424 6.40469L28.4775 5.52799L27.5453 1.80538C27.4302 1.34905 27.0201 1.02838 26.5484 1.02838C26.0766 1.02838 25.6665 1.34905 25.5514 1.80641L24.6192 5.52902L22.2543 6.40571C21.8504 6.55371 21.5832 6.93913 21.5832 7.36874C21.5832 7.79835 21.8504 8.18377 22.2543 8.33177ZM26.7128 30.5965L29.1425 31.4958L30.0428 33.9265C30.1918 34.3304 30.5762 34.5977 31.0069 34.5977C31.4365 34.5977 31.8209 34.3304 31.9709 33.9265L32.8702 31.4958L35.3009 30.5965C35.7048 30.4465 35.972 30.0621 35.972 29.6325C35.972 29.2029 35.7048 28.8174 35.3009 28.6684L32.8702 27.7691L31.9709 25.3384C31.8209 24.9345 31.4365 24.6673 31.0069 24.6673C30.5772 24.6673 30.1929 24.9345 30.0428 25.3384L29.1435 27.7691L26.7128 28.6684C26.3089 28.8185 26.0417 29.2029 26.0417 29.6325C26.0417 30.0621 26.3089 30.4465 26.7128 30.5965Z" fill="url(#paint1_linear_671_18420)"/>
<defs>
<linearGradient id="paint0_linear_671_18420" x1="15.2428" y1="34.9453" x2="15.2428" y2="2.05643" gradientUnits="userSpaceOnUse">
<stop stop-color="#C3C8D2"/>
<stop offset="1" stop-color="#C3C8D2" stop-opacity="0.63"/>
</linearGradient>
<linearGradient id="paint1_linear_671_18420" x1="28.7776" y1="34.5977" x2="28.7776" y2="1.02838" gradientUnits="userSpaceOnUse">
<stop stop-color="#D1D9E5"/>
<stop offset="1" stop-color="#E8ECF2" stop-opacity="0.95"/>
</linearGradient>
</defs>
</svg>
