<svg xmlns="http://www.w3.org/2000/svg" width="134" height="21" viewBox="0 0 134 21">
    <g fill="none" fill-rule="evenodd" opacity=".5">
        <g fill="#FEFEFE">
            <g>
                <path d="M3.094 6.752c.29-.085.61-.183.96-.295.348-.11.741-.212 1.176-.306.435-.094.92-.17 1.457-.23.538-.06 1.147-.09 1.83-.09 2.011 0 3.392.58 4.143 1.74.75 1.159.878 2.745.383 4.756l-1.74 7.263h-3.81l1.688-7.11c.102-.442.183-.873.244-1.291.059-.417.054-.784-.014-1.1-.068-.315-.226-.57-.473-.767-.247-.196-.627-.294-1.137-.294-.496 0-.998.051-1.51.153l-2.48 10.41H0L3.094 6.751zM18.517 12.2c.204-1.024.634-1.847 1.29-2.469.657-.622 1.42-.933 2.29-.933.921 0 1.382.409 1.382 1.227 0 .24-.06.478-.18.716-.12.24-.358.46-.716.665-.358.205-.862.38-1.509.525-.648.144-1.5.234-2.557.269m6.039 1.496c.768-.423 1.377-.98 1.81-1.654.433-.676.653-1.51.653-2.477 0-.607-.11-1.157-.328-1.635-.218-.48-.528-.89-.919-1.22-.389-.33-.85-.584-1.37-.758-.52-.172-1.09-.26-1.691-.26-1.219 0-2.346.248-3.35.737-1.005.49-1.87 1.142-2.573 1.94-.701.794-1.253 1.72-1.64 2.75-.386 1.028-.581 2.106-.581 3.203 0 .772.104 1.512.31 2.2.208.69.545 1.303 1.003 1.822.459.52 1.064.936 1.798 1.239.732.3 1.642.453 2.705.453.873 0 1.692-.078 2.436-.232.155-.032.738-.204 1.252-.356.323-.095.604-.178.69-.2l.052-.012.853-3.541-.155.058c-.486.181-2.223.707-2.764.796-.554.093-1.108.14-1.648.14-.846 0-1.469-.144-1.852-.43-.36-.268-.605-.726-.728-1.363 1.19-.005 2.305-.1 3.312-.283 1.048-.19 1.964-.498 2.725-.917M37.783 6.138L34.572 9.901 32.674 6.138 28.67 6.138 32.057 12.85 26.307 19.59 30.348 19.59 33.559 15.827 35.457 19.59 39.461 19.59 36.074 12.878 41.824 6.138zM47.294 6.14l.972-3.966-3.964.615-.793 3.351-1.713 7.237c-.205.869-.325 1.695-.358 2.478.035.898.259 1.666.672 2.305.735 1.135 2.076 1.713 4.019 1.737.727-.012 1.363-.079 1.907-.203l.244-.058.777-3.227c-.27.082-.538.15-.804.203-.383.077-.78.115-1.189.115-.477 0-.853-.068-1.126-.205-.272-.135-.464-.328-.575-.575-.11-.247-.153-.54-.128-.882.026-.341.09-.708.193-1.1l.09-.376 1.034-4.33h4.221l.766-3.119h-4.245zM62.082 18.976c-.29.085-.61.183-.96.295-.349.11-.742.212-1.176.307-.435.093-.92.17-1.458.23-.537.06-1.146.089-1.829.089-2.011 0-3.392-.58-4.143-1.74-.75-1.158-.878-2.745-.383-4.756l1.739-7.263h3.81l-1.687 7.11c-.103.442-.184.873-.244 1.291-.06.417-.055.784.014 1.1.068.315.225.571.473.767.247.196.626.294 1.137.294.496 0 .998-.051 1.51-.153l2.48-10.41h3.81l-3.093 12.839zM67.817 6.752c.29-.085.61-.183.96-.295.349-.11.741-.212 1.176-.306.435-.094.92-.17 1.457-.23.538-.06 1.147-.09 1.83-.09 2.011 0 3.392.58 4.143 1.74.75 1.159.878 2.745.383 4.756l-1.739 7.263h-3.81l1.687-7.11c.102-.442.183-.873.244-1.291.059-.417.054-.784-.014-1.1-.068-.315-.226-.57-.473-.767-.247-.196-.627-.294-1.137-.294-.496 0-.998.051-1.51.153l-2.48 10.41h-3.811l3.094-12.839zM84.196 4.501c-.529 0-1.006-.157-1.433-.474-.426-.314-.639-.796-.639-1.444 0-.358.073-.695.218-1.01.144-.316.336-.588.575-.819.238-.23.515-.413.831-.55.316-.136.653-.204 1.01-.204.529 0 1.006.157 1.433.473.426.316.64.798.64 1.445 0 .358-.073.695-.218 1.01-.145.316-.337.589-.576.819-.239.23-.516.414-.83.55-.317.136-.653.204-1.011.204zm-1.842 15.09H78.57l3.196-13.453h3.811L82.354 19.59zM94.262 19.222l.666-2.763.03-.122c-.26.09-.54.168-.842.235-.46.103-.938.154-1.432.154-1.006 0-1.697-.269-2.072-.806-.375-.536-.563-1.24-.563-2.11 0-1.483.367-2.655 1.1-3.516.733-.861 1.74-1.292 3.018-1.292.529 0 .976.056 1.342.166.362.11.711.232 1.048.366l.666-2.763.105-.434c-.344-.133-.711-.246-1.102-.34-.605-.144-1.291-.217-2.06-.217-1.227 0-2.339.221-3.336.665-.998.444-1.846 1.048-2.545 1.816-.7.767-1.236 1.662-1.611 2.685-.375 1.023-.563 2.114-.563 3.273 0 .768.106 1.5.32 2.2.213.7.558 1.309 1.036 1.829.476.52 1.082.933 1.815 1.24.733.307 1.628.46 2.685.46.819 0 1.514-.072 2.085-.217l.093-.024.005-.021.112-.464zM104.53 9.002c-.562 0-1.057.163-1.483.486-.426.324-.784.733-1.073 1.228-.29.494-.509 1.036-.653 1.624-.145.588-.217 1.146-.217 1.675 0 .87.136 1.539.41 2.008.272.468.766.703 1.482.703.563 0 1.057-.162 1.484-.486.426-.324.784-.733 1.073-1.228.29-.494.507-1.036.653-1.624.145-.588.217-1.146.217-1.675 0-.87-.137-1.539-.41-2.007-.272-.47-.766-.704-1.482-.704m-1.893 10.946c-.904 0-1.688-.137-2.353-.41-.665-.272-1.215-.655-1.65-1.15-.435-.494-.763-1.078-.984-1.752-.222-.673-.333-1.419-.333-2.237 0-1.023.167-2.047.5-3.069.332-1.023.821-1.944 1.47-2.762.648-.819 1.44-1.488 2.378-2.008.938-.52 2.012-.78 3.223-.78.886 0 1.666.137 2.34.41.673.272 1.228.656 1.662 1.15.435.495.763 1.078.985 1.752.221.673.332 1.419.332 2.238 0 1.022-.162 2.046-.486 3.07-.324 1.021-.801 1.942-1.431 2.76-.632.819-1.42 1.489-2.366 2.008-.947.52-2.042.78-3.287.78M120.841 9.461c-1.408-.46-3.336-.386-3.626-.344l-.707.105-2.49 10.368h-3.81l3.069-12.736c.732-.239 1.555-.464 2.468-.677.912-.214 1.939-.32 3.082-.32.426 0 .899.038 1.419.115.52.076.976.2 1.368.37l-.773 3.12zM123.723 6.752c.29-.085.61-.183.96-.295.349-.11.742-.212 1.176-.306.435-.094.92-.17 1.458-.23.537-.06 1.146-.09 1.829-.09 2.011 0 3.392.58 4.143 1.74.75 1.159.878 2.745.383 4.756l-1.739 7.263h-3.81l1.687-7.11c.103-.442.184-.873.244-1.291.06-.417.055-.784-.014-1.1-.068-.315-.225-.57-.473-.767-.247-.196-.626-.294-1.137-.294-.496 0-.998.051-1.509.153l-2.481 10.41h-3.81l3.093-12.839z" transform="translate(-40 -32) translate(40 32)"/>
            </g>
        </g>
    </g>
</svg>
