<svg xmlns="http://www.w3.org/2000/svg" width="22" height="7" viewBox="0 0 22 7">
    <g fill="none" fill-rule="evenodd">
        <g fill="#2581FF" fill-rule="nonzero">
            <g>
                <path d="M771 26.74V20h1.69l1.57 2.79c.22.393.412.762.575 1.105.163.343.268.585.315.725l.08.22c-.067-.493-.1-1.177-.1-2.05V20h1.54v6.74h-1.69l-1.61-2.79c-.213-.36-.402-.715-.565-1.065-.163-.35-.275-.608-.335-.775l-.08-.25c.1.6.15 1.297.15 2.09v2.79H771zm8.52-1.23h2.64v1.23h-4.19V20h4.15v1.23h-2.6v1.53h2.32v1.22h-2.32v1.53zm7.55-5.41h1.14l.66 2.38c.14.5.265.965.375 1.395.11.43.185.735.225.915l.06.27c.087-.593.273-1.457.56-2.59l.62-2.47h1.57l-1.8 6.74h-1.72l-.59-2.13c-.14-.513-.255-.947-.345-1.3-.09-.353-.145-.58-.165-.68l-.02-.15c-.02.273-.2.983-.54 2.13l-.62 2.13h-1.72L782.95 20h1.62l.62 2.48c.133.533.243 1.015.33 1.445.087.43.14.728.16.895l.04.24c.113-.52.34-1.38.68-2.58l.67-2.38z" transform="translate(-771 -20)"/>
            </g>
        </g>
    </g>
</svg>
