<svg width="134" height="100%" viewBox="0 0 134 20" fill="none" xmlns="http://www.w3.org/2000/svg">
<path fill-rule="evenodd" clip-rule="evenodd" d="M3.09494 6.73998C3.38542 6.65477 3.70476 6.55692 4.05462 6.4456C4.40358 6.33518 4.79668 6.23374 5.23109 6.13955C5.66641 6.04619 6.15209 5.96988 6.68906 5.90974C7.22692 5.85049 7.83584 5.82086 8.51846 5.82086C10.5306 5.82086 11.912 6.39892 12.6631 7.55683C13.4132 8.71384 13.5409 10.2972 13.0462 12.3051L11.3067 19.5549H7.49491L9.18316 12.4576C9.28571 12.016 9.36667 11.5861 9.42687 11.1687C9.48631 10.7523 9.48174 10.386 9.41345 10.071C9.34508 9.75684 9.18766 9.501 8.94035 9.30529C8.69298 9.10959 8.31344 9.01181 7.80256 9.01181C7.30698 9.01181 6.8042 9.06298 6.29332 9.16435L3.81174 19.5549H0L3.09494 6.73998Z" fill="#D1D1D1"/>
<path fill-rule="evenodd" clip-rule="evenodd" d="M18.5202 12.1776C18.7244 11.1561 19.1552 10.3348 19.8118 9.71366C20.4684 9.09251 21.232 8.78197 22.1017 8.78197C23.0227 8.78197 23.4833 9.19036 23.4833 10.0071C23.4833 10.2459 23.423 10.4838 23.3034 10.7217C23.1846 10.9604 22.9454 11.1812 22.5874 11.3859C22.2295 11.5897 21.7258 11.7647 21.0782 11.9092C20.4297 12.0537 19.577 12.1435 18.5202 12.1776ZM24.5617 13.6709C25.3306 13.2494 25.9395 12.6938 26.3718 12.0204C26.8055 11.3458 27.0252 10.5135 27.0252 9.54751C27.0252 8.94176 26.9152 8.39257 26.6978 7.91602C26.4792 7.4372 26.1699 7.02715 25.7788 6.69796C25.3893 6.36933 24.9281 6.11507 24.4072 5.94133C23.8874 5.76918 23.3184 5.68182 22.7164 5.68182C21.4977 5.68182 20.3702 5.92925 19.3652 6.41753C18.3607 6.90665 17.495 7.5577 16.7925 8.35307C16.091 9.14658 15.5388 10.0704 15.1516 11.0992C14.7658 12.1253 14.5704 13.2008 14.5704 14.2961C14.5704 15.0664 14.6747 15.8051 14.8808 16.4919C15.0883 17.1809 15.4257 17.7931 15.8839 18.3115C16.3427 18.8298 16.9478 19.2456 17.682 19.5474C18.4147 19.8476 19.3252 20 20.3884 20C21.2613 20 22.0807 19.922 22.8242 19.7682C22.9795 19.7363 23.5629 19.5649 24.0774 19.4132C24.4003 19.3185 24.6806 19.2357 24.7674 19.214L24.8192 19.2012L25.6726 15.6668L25.5176 15.7246C25.0313 15.9054 23.2933 16.4303 22.7529 16.5196C22.1988 16.6124 21.6444 16.6595 21.1044 16.6595C20.2582 16.6595 19.6348 16.5151 19.2521 16.2301C18.8911 15.9621 18.6466 15.5046 18.524 14.8688C19.7144 14.8638 20.8287 14.7688 21.8367 14.5868C22.8843 14.3978 23.8013 14.0897 24.5617 13.6709Z" fill="#D1D1D1"/>
<path fill-rule="evenodd" clip-rule="evenodd" d="M37.792 6.12689L34.5807 9.88361L32.6817 6.12689H28.6773L32.0646 12.8269L26.3136 19.5549H30.3556L33.5669 15.7985L35.4658 19.5549H39.4704L36.0826 12.8551L41.8339 6.12689H37.792Z" fill="#D1D1D1"/>
<path fill-rule="evenodd" clip-rule="evenodd" d="M47.306 6.12806L48.2783 2.17053L44.3127 2.7836L43.5193 6.12903L41.806 13.3528C41.6012 14.22 41.4816 15.0449 41.4482 15.8269C41.4837 16.7225 41.707 17.4898 42.1201 18.1271C42.8553 19.2606 44.1964 19.8369 46.14 19.8608C46.8675 19.8497 47.5042 19.7826 48.0481 19.6584C48.13 19.6396 48.211 19.6203 48.2914 19.6006L49.0693 16.3793C48.7992 16.4611 48.5312 16.5288 48.2648 16.5824C47.8816 16.6586 47.485 16.6972 47.0758 16.6972C46.5982 16.6972 46.2222 16.629 45.9497 16.4926C45.6772 16.3571 45.4856 16.165 45.374 15.9181C45.2634 15.6722 45.2212 15.3786 45.2463 15.0376C45.2724 14.6974 45.3362 14.3312 45.4389 13.9398L45.5287 13.5645L46.5639 9.2427H50.2278H50.785L51.552 6.12903L51.5522 6.12806H47.306Z" fill="#D1D1D1"/>
<path fill-rule="evenodd" clip-rule="evenodd" d="M62.0969 18.9419C61.8064 19.0271 61.4871 19.1249 61.1373 19.2362C60.7883 19.3466 60.3952 19.4481 59.9608 19.5423C59.5255 19.6357 59.0398 19.712 58.5029 19.7721C57.965 19.8314 57.356 19.861 56.6734 19.861C54.6614 19.861 53.2798 19.2829 52.5288 18.125C51.7787 16.968 51.6509 15.3846 52.1457 13.3767L53.8851 6.12689H57.697L56.0087 13.2241C55.9062 13.6658 55.8252 14.0957 55.7649 14.5131C55.7056 14.9296 55.7101 15.2958 55.7784 15.6109C55.8469 15.925 56.0042 16.1808 56.2515 16.3765C56.4989 16.5723 56.8784 16.67 57.3894 16.67C57.885 16.67 58.3877 16.6189 58.8985 16.5175L61.3801 6.12689H65.1919L62.0969 18.9419Z" fill="#D1D1D1"/>
<path fill-rule="evenodd" clip-rule="evenodd" d="M67.8339 6.73998C68.1244 6.65477 68.4437 6.55692 68.7936 6.4456C69.1426 6.33518 69.5356 6.23374 69.97 6.13955C70.4054 6.04619 70.8911 5.96988 71.428 5.90974C71.9659 5.85049 72.5749 5.82086 73.2575 5.82086C75.2695 5.82086 76.6511 6.39892 77.4021 7.55683C78.1521 8.71384 78.2799 10.2972 77.7852 12.3051L76.0457 19.5549H72.2339L73.9221 12.4576C74.0247 12.016 74.1057 11.5861 74.1659 11.1687C74.2253 10.7523 74.2208 10.386 74.1524 10.071C74.084 9.75684 73.9267 9.501 73.6794 9.30529C73.4319 9.10959 73.0524 9.01181 72.5415 9.01181C72.0459 9.01181 71.5432 9.06298 71.0323 9.16435L68.5508 19.5549H64.739L67.8339 6.73998Z" fill="#D1D1D1"/>
<path fill-rule="evenodd" clip-rule="evenodd" d="M84.2157 4.49332C83.6868 4.49332 83.2093 4.33629 82.7829 4.02023C82.3566 3.70617 82.1434 3.22506 82.1434 2.57871C82.1434 2.22059 82.2162 1.88492 82.361 1.56982C82.5059 1.25486 82.6975 0.982856 82.9368 0.753042C83.1751 0.523297 83.4521 0.340095 83.7678 0.203711C84.0835 0.068157 84.4208 0 84.7788 0C85.3067 0 85.7843 0.15703 86.2115 0.472127C86.637 0.787155 86.851 1.26826 86.851 1.91454C86.851 2.27176 86.7782 2.60834 86.6334 2.92253C86.4886 3.23846 86.2961 3.51047 86.0577 3.74028C85.8185 3.97003 85.5414 4.15309 85.2267 4.28864C84.9101 4.4251 84.5737 4.49332 84.2157 4.49332ZM82.3746 19.5549H78.5889L81.7863 6.12689H85.5982L82.3746 19.5549Z" fill="#D1D1D1"/>
<path fill-rule="evenodd" clip-rule="evenodd" d="M94.2855 19.1875L94.9516 16.4294L94.981 16.3078C94.7222 16.3968 94.4418 16.4753 94.1388 16.5425C93.6783 16.6449 93.2007 16.696 92.7069 16.696C91.7004 16.696 91.0096 16.4277 90.6345 15.8918C90.2595 15.356 90.0716 14.6531 90.0716 13.7852C90.0716 12.3051 90.4385 11.1346 91.1716 10.2755C91.9046 9.41567 92.9111 8.98581 94.19 8.98581C94.7189 8.98581 95.1668 9.0414 95.5329 9.15182C95.8949 9.26161 96.2437 9.38294 96.5812 9.51712L97.2473 6.759L97.352 6.32527C97.0076 6.19303 96.6404 6.07992 96.2497 5.986C95.6445 5.84237 94.9582 5.76965 94.19 5.76965C92.9623 5.76965 91.8498 5.99049 90.8523 6.43299C89.8539 6.87646 89.0057 7.47959 88.3069 8.24616C87.6071 9.01184 87.0702 9.90486 86.6951 10.9263C86.3201 11.9478 86.1321 13.0366 86.1321 14.1936C86.1321 14.9601 86.2382 15.6916 86.4523 16.3891C86.6654 17.0875 87.0108 17.696 87.4884 18.2148C87.9651 18.7345 88.5704 19.1465 89.3044 19.4526C90.0373 19.7595 90.9323 19.9121 91.99 19.9121C92.8085 19.9121 93.5038 19.8403 94.0749 19.6958C94.1065 19.6878 94.1373 19.6796 94.1687 19.6714L94.1736 19.6506L94.2855 19.1875Z" fill="#D1D1D1"/>
<path fill-rule="evenodd" clip-rule="evenodd" d="M104.556 8.9858C103.993 8.9858 103.498 9.14828 103.072 9.47132C102.645 9.7945 102.287 10.2029 101.998 10.6966C101.707 11.1902 101.49 11.7306 101.345 12.3176C101.2 12.9047 101.128 13.4621 101.128 13.9898C101.128 14.8578 101.264 15.5256 101.537 15.9942C101.81 16.4618 102.304 16.696 103.02 16.696C103.583 16.696 104.078 16.5345 104.504 16.2105C104.931 15.8873 105.289 15.4789 105.578 14.9853C105.869 14.4915 106.086 13.9512 106.231 13.3642C106.376 12.7772 106.448 12.2198 106.448 11.692C106.448 10.824 106.311 10.1562 106.039 9.68857C105.766 9.2201 105.272 8.9858 104.556 8.9858ZM102.663 19.9122C101.759 19.9122 100.975 19.7757 100.309 19.5037C99.6449 19.2318 99.0944 18.8494 98.6599 18.3549C98.2246 17.862 97.8963 17.2787 97.6751 16.6063C97.4529 15.934 97.3423 15.19 97.3423 14.3732C97.3423 13.3516 97.5087 12.3302 97.8415 11.3096C98.1743 10.2882 98.6636 9.36905 99.312 8.55228C99.9605 7.73543 100.753 7.06767 101.691 6.54789C102.629 6.02915 103.703 5.76971 104.915 5.76971C105.801 5.76971 106.581 5.9061 107.255 6.1781C107.929 6.45004 108.484 6.83336 108.918 7.32704C109.353 7.82071 109.681 8.40319 109.903 9.07557C110.124 9.74782 110.236 10.492 110.236 11.3096C110.236 12.3302 110.073 13.3516 109.749 14.3732C109.425 15.3937 108.948 16.3128 108.317 17.1296C107.686 17.9465 106.897 18.6151 105.951 19.1339C105.004 19.6528 103.908 19.9122 102.663 19.9122Z" fill="#D1D1D1"/>
<path fill-rule="evenodd" clip-rule="evenodd" d="M120.871 9.44425C119.462 8.98573 117.534 9.05844 117.244 9.10057L116.537 9.20581L114.047 19.5548H110.235L113.304 6.84137C114.038 6.60348 114.861 6.37822 115.773 6.16553C116.686 5.95271 117.713 5.84595 118.856 5.84595C119.282 5.84595 119.755 5.88455 120.275 5.96085C120.795 6.03709 121.252 6.16097 121.644 6.33064L120.871 9.44425Z" fill="#D1D1D1"/>
<path fill-rule="evenodd" clip-rule="evenodd" d="M123.754 6.73998C124.044 6.65477 124.364 6.55692 124.714 6.4456C125.062 6.33518 125.456 6.23374 125.89 6.13955C126.325 6.04619 126.811 5.96988 127.348 5.90974C127.886 5.85049 128.495 5.82086 129.177 5.82086C131.189 5.82086 132.571 6.39892 133.322 7.55683C134.072 8.71384 134.2 10.2972 133.705 12.3051L131.966 19.5549H128.154L129.842 12.4576C129.945 12.016 130.026 11.5861 130.086 11.1687C130.145 10.7523 130.141 10.386 130.072 10.071C130.004 9.75684 129.847 9.501 129.599 9.30529C129.352 9.10959 128.972 9.01181 128.461 9.01181C127.966 9.01181 127.463 9.06298 126.952 9.16435L124.471 19.5549H120.659L123.754 6.73998Z" fill="#D1D1D1"/>
</svg>
