<svg xmlns="http://www.w3.org/2000/svg" xmlns:xlink="http://www.w3.org/1999/xlink" width="165" height="75" viewBox="0 0 165 75">
    <defs>
        <linearGradient id="u5cqm0h9ng" x1="0%" x2="100%" y1="50%" y2="50%">
            <stop offset="0%" stop-color="#BABABA" stop-opacity=".559"/>
            <stop offset="100%" stop-color="#989898"/>
        </linearGradient>
        <linearGradient id="242qsbup1j" x1="50%" x2="50%" y1="153.795%" y2=".576%">
            <stop offset="0%" stop-color="#FFF"/>
            <stop offset="100%" stop-color="#8CA8F9"/>
        </linearGradient>
        <linearGradient id="wzw7ttxqgk" x1="97.627%" x2="0%" y1="50%" y2="50%">
            <stop offset="0%" stop-opacity=".264"/>
            <stop offset="100%" stop-color="#BDBDBD" stop-opacity=".062"/>
        </linearGradient>
        <linearGradient id="rlb69w66bm" x1="0%" x2="100%" y1="50%" y2="50%">
            <stop offset="0%" stop-color="#FFF"/>
            <stop offset="100%" stop-color="#F4F4F6"/>
        </linearGradient>
        <path id="yodyzaql1c" d="M0 74.469L112.513 74.469 112.513 0 0 0z"/>
        <path id="t6bdfwtb5e" d="M18.773 0.193L9.4 6.847 0.028 0.193z"/>
        <path id="8xmpthihwh" d="M22.701 0.132L11.404 8.152 0.108 0.132z"/>
        <path id="oxp9nuvrdl" d="M1.809.22C.826.22.022 1.022.022 2.005v29.396c0 .982.804 1.787 1.787 1.787h60.76c.983 0 1.787-.805 1.787-1.787V2.006c0-.983-.804-1.787-1.787-1.787H1.809z"/>
        <rect id="ko63haz20a" width="165" height="60" x="0" y="0" rx="5"/>
    </defs>
    <g fill="none" fill-rule="evenodd">
        <g>
            <g>
                <g transform="translate(-472 -2861) translate(472 2861) translate(0 14)">
                    <mask id="ipt06ljx8b" fill="#fff">
                        <use xlink:href="#ko63haz20a"/>
                    </mask>
                    <path fill="#FEFEFE" d="M52.028-24.91c26.933-13.04 70.9 5.173 70.754 53.637-.006 1.69-.055 3.357-.148 5.002 3.37-.811 7.565-1.07 13.275-.304 21.175 2.839 40.31 30.85 21.287 59.477-19.023 28.626-52.716 31.906-82.913 23.704-3.712-1.008-7.21-2.246-10.488-3.678-6.324 3.06-12.907 5.69-19.614 7.898-65.163 21.45-118.232-27.87-92.596-73.227C-35.762 25.214-22.439 22.35-9.9 21.405l1.317-.093 4.558-.28 2.195-1.546C3.758 16.667 10 15.771 18.19 16c1.828-6.947 2.963-9.617 5.073-13.481l.389-.725.375-.725.364-.726.355-.726.52-1.09 4.455-1.957.516-1.065.265-.532.408-.8.423-.798.442-.8.306-.532.157-.266.322-.533.334-.533.171-.266.353-.533.366-.532.188-.266.39-.533.404-.532c.619-.798 1.294-1.596 2.04-2.393l.507-.531c3.281-3.365 7.858-6.716 14.715-10.036z" mask="url(#ipt06ljx8b)" opacity=".2"/>
                </g>
                <g transform="translate(-472 -2861) translate(472 2861) translate(32)">
                    <path fill="#EDEDED" d="M67.312 49.889c0 .926-.757 1.683-1.683 1.683H19.554c-.925 0-1.683-.757-1.683-1.683V20.285c0-.925.758-1.683 1.683-1.683H65.63c.926 0 1.683.758 1.683 1.683V49.89z"/>
                    <mask id="wy5651encd" fill="#fff">
                        <use xlink:href="#yodyzaql1c"/>
                    </mask>
                    <path fill="#EAEAEA" d="M81.533 16.481L100.278 16.481 100.278 5.394 81.533 5.394z" mask="url(#wy5651encd)"/>
                    <path fill="#F4F5F7" d="M90.906 9.551L81.533 16.481 100.278 16.481z" mask="url(#wy5651encd)"/>
                    <g mask="url(#wy5651encd)">
                        <g transform="translate(81.506 5.201)">
                            <mask id="i5weconu1f" fill="#fff">
                                <use xlink:href="#t6bdfwtb5e"/>
                            </mask>
                            <path d="M9.4 6.847L18.773 0.193 0.028 0.193z" mask="url(#i5weconu1f)"/>
                        </g>
                    </g>
                    <path fill="#FFF" d="M90.906 11.688L100.278 5.394 81.533 5.394z" mask="url(#wy5651encd)"/>
                    <path fill="url(#u5cqm0h9ng)" d="M86.257 16.481L100.278 16.481 100.278 9.022 86.257 9.022z" mask="url(#wy5651encd)" opacity=".283"/>
                    <path fill="#000" d="M81.506 16.576L100.25 16.576 100.25 5.489 81.506 5.489z" mask="url(#wy5651encd)" opacity=".117"/>
                    <path fill="#EAEAEA" d="M89.92 24.146L112.512 24.146 112.512 10.784 89.92 10.784z" mask="url(#wy5651encd)"/>
                    <path fill="#F4F5F7" d="M101.216 15.794L89.919 24.146 112.513 24.146z" mask="url(#wy5651encd)"/>
                    <g mask="url(#wy5651encd)">
                        <g transform="translate(89.812 10.652)">
                            <mask id="utv8d4lf4i" fill="#fff">
                                <use xlink:href="#8xmpthihwh"/>
                            </mask>
                            <path d="M11.404 8.152L22.701 0.132 0.108 0.132z" mask="url(#utv8d4lf4i)"/>
                        </g>
                    </g>
                    <path fill="#FFF" d="M101.216 18.37L112.513 10.784 89.919 10.784z" mask="url(#wy5651encd)"/>
                    <path fill="url(#242qsbup1j)" fill-opacity=".35" d="M20.839 46.96L64.344 46.96 64.344 29.771 20.839 29.771z" mask="url(#wy5651encd)"/>
                    <path fill="url(#wzw7ttxqgk)" d="M36.396 51.572V33.473c0-.972.788-1.76 1.76-1.76h29.156v18.098c0 .973-.788 1.76-1.76 1.76H36.395z" mask="url(#wy5651encd)" opacity=".563"/>
                    <g mask="url(#wy5651encd)">
                        <g transform="translate(42.57 35.83)">
                            <mask id="hyfdic214n" fill="#fff">
                                <use xlink:href="#oxp9nuvrdl"/>
                            </mask>
                            <path fill="url(#rlb69w66bm)" d="M1.809.22C.826.22.022 1.022.022 2.005v29.396c0 .982.804 1.787 1.787 1.787h60.76c.983 0 1.787-.805 1.787-1.787V2.006c0-.983-.804-1.787-1.787-1.787H1.809z" mask="url(#hyfdic214n)"/>
                        </g>
                    </g>
                    <path fill="#B8BCC1" d="M46.097 43.545L103.42 43.545 103.42 43.366 46.097 43.366zM46.097 50.116L103.42 50.116 103.42 49.937 46.097 49.937zM46.097 56.687L103.42 56.687 103.42 56.508 46.097 56.508zM46.097 63.258L103.42 63.258 103.42 63.079 46.097 63.079z" mask="url(#wy5651encd)"/>
                    <g mask="url(#wy5651encd)">
                        <g>
                            <path fill="#333" d="M0.091 28.209L13.487 4.168 19.47 0 18.514 7.229 6.684 28.884z" transform="scale(-1 1) rotate(-6 388.144 982.539)"/>
                            <path fill="#282828" d="M6.63 28.897L18.514 7.229 18.532 7.092 16.899 6.744 4.901 28.715z" transform="scale(-1 1) rotate(-6 388.144 982.539)"/>
                            <path fill="#2D2D2D" d="M4.901 28.715L16.899 6.744 14.619 5.442 1.927 28.402z" transform="scale(-1 1) rotate(-6 388.144 982.539)"/>
                            <path fill="#353535" d="M19.47 0l-5.982 4.167c1.145 1.64 2.948 2.787 5.026 3.06L19.47 0z" transform="scale(-1 1) rotate(-6 388.144 982.539)"/>
                            <path fill="#FFBC1D" d="M18.885 4.425L19.47 0l-3.663 2.551c.701 1.005 1.805 1.707 3.078 1.874" transform="scale(-1 1) rotate(-6 388.144 982.539)"/>
                        </g>
                    </g>
                    <path fill="#FEFEFE" d="M9.374 43.165L9.87 41l.497 2.165c.038.169.17.3.338.339L12.87 44l-2.165.497c-.168.038-.3.17-.338.338L9.87 47l-.496-2.165c-.039-.169-.17-.3-.338-.338L6.87 44l2.166-.496c.168-.04.3-.17.338-.339M75.173 23.609L76 20l.827 3.609c.065.28.284.5.564.564L81 25l-3.609.827c-.28.065-.5.283-.564.564L76 30l-.827-3.609c-.065-.28-.283-.5-.564-.564L71 25l3.609-.827c.28-.065.5-.283.564-.564" mask="url(#wy5651encd)"/>
                    <path fill="#FFBC1D" d="M106.294 2.726L106.69 1l.396 1.726c.03.135.135.24.27.27l1.726.396-1.726.396c-.135.03-.24.135-.27.27l-.396 1.726-.396-1.727c-.03-.134-.135-.239-.27-.27l-1.726-.395 1.727-.396c.134-.03.239-.135.269-.27" mask="url(#wy5651encd)"/>
                    <path fill="#8DA9FA" d="M26.22 25c0 .947-.768 1.714-1.715 1.714-.946 0-1.714-.767-1.714-1.714 0-.946.768-1.714 1.714-1.714.947 0 1.714.768 1.714 1.714" mask="url(#wy5651encd)"/>
                    <path fill="#CED1D8" d="M28.104 26.34L63.524 26.34 63.524 23.66 28.104 23.66z" mask="url(#wy5651encd)"/>
                    <path fill="#0080FF" d="M20.13 20.33c0 .148-.12.268-.269.268-.148 0-.268-.12-.268-.269 0-.148.12-.268.268-.268.148 0 .269.12.269.268M21.203 20.33c0 .148-.12.268-.268.268-.148 0-.268-.12-.268-.269 0-.148.12-.268.268-.268.148 0 .268.12.268.268M22.277 20.33c0 .148-.12.268-.268.268-.148 0-.268-.12-.268-.269 0-.148.12-.268.268-.268.148 0 .268.12.268.268" mask="url(#wy5651encd)"/>
                    <path fill="#333" d="M48.77 42.196c.095 0 .171-.048.23-.145.059-.097.088-.245.087-.446 0-.132-.013-.24-.04-.326-.026-.085-.063-.15-.11-.191-.048-.042-.104-.063-.167-.063-.094 0-.17.047-.228.142-.058.095-.087.241-.088.438 0 .133.012.244.039.331.026.088.063.153.111.196.048.043.103.064.166.064m0 .36c-.158 0-.296-.037-.41-.113-.115-.076-.204-.184-.266-.326-.062-.142-.093-.313-.092-.512 0-.2.031-.37.093-.509.063-.14.15-.246.265-.319.115-.073.252-.11.41-.11.159 0 .296.037.411.11.115.073.204.18.266.32.062.14.093.309.093.508 0 .2-.032.371-.094.513-.062.143-.15.251-.265.326-.114.075-.251.112-.41.112M50.633 40.692L50.633 42.512 50.194 42.512 50.194 41.103 50.184 41.103 49.776 41.352 49.776 40.971 50.225 40.692zM48.77 48.768c.095 0 .171-.049.23-.146.059-.097.088-.245.087-.446 0-.132-.013-.24-.04-.326-.026-.085-.063-.149-.11-.191-.048-.042-.104-.063-.167-.063-.094 0-.17.047-.228.142-.058.095-.087.241-.088.438 0 .133.012.244.039.331.026.088.063.153.111.196.048.043.103.065.166.065m0 .36c-.158 0-.296-.039-.41-.114-.115-.075-.204-.184-.266-.326-.062-.142-.093-.312-.092-.512 0-.2.031-.37.093-.509.063-.14.15-.246.265-.318.115-.074.252-.11.41-.11.159 0 .296.036.411.11.115.072.204.179.266.319.062.14.093.309.093.508 0 .2-.032.371-.094.513-.062.143-.15.251-.265.326-.114.075-.251.112-.41.112M49.792 49.083v-.316l.663-.581c.05-.045.092-.087.127-.124.035-.038.062-.076.08-.114.019-.038.028-.08.028-.125 0-.05-.011-.093-.033-.129-.022-.036-.052-.064-.09-.083-.04-.02-.083-.03-.133-.03s-.095.01-.132.031c-.038.02-.068.05-.089.089-.02.038-.031.085-.031.14h-.417c0-.124.028-.23.084-.32.055-.09.134-.16.234-.209.102-.049.219-.073.353-.073.138 0 .258.023.36.069.101.046.18.11.236.193.056.083.084.179.084.288 0 .069-.014.138-.041.206-.029.068-.078.143-.15.225-.072.083-.174.181-.306.296l-.218.2v.012h.737v.355h-1.346zM48.77 55.339c.095 0 .171-.049.23-.146.059-.096.088-.245.087-.446 0-.131-.013-.24-.04-.326-.026-.085-.063-.149-.11-.19-.048-.043-.104-.064-.167-.064-.094 0-.17.047-.228.143-.058.095-.087.24-.088.437 0 .133.012.244.039.331.026.088.063.153.111.196.048.043.103.065.166.065m0 .36c-.158 0-.296-.038-.41-.114-.115-.075-.204-.184-.266-.326-.062-.142-.093-.312-.092-.512 0-.2.031-.37.093-.509.063-.139.15-.245.265-.318.115-.074.252-.11.41-.11.159 0 .296.036.411.11.115.073.204.18.266.319.062.14.093.31.093.508 0 .2-.032.371-.094.514-.062.142-.15.25-.265.325-.114.075-.251.113-.41.113M50.484 55.679c-.139 0-.262-.024-.369-.071-.106-.048-.19-.114-.252-.198s-.093-.181-.094-.29h.442c.002.039.015.074.038.105.024.03.056.054.097.071.04.017.087.026.14.026.051 0 .098-.01.138-.028.04-.019.07-.045.093-.077.023-.033.034-.07.033-.114 0-.042-.011-.08-.036-.113-.025-.033-.06-.06-.105-.078-.046-.018-.099-.027-.16-.027h-.177v-.313h.176c.054 0 .102-.009.143-.027.041-.017.073-.042.096-.075.023-.032.035-.069.034-.111 0-.041-.01-.077-.029-.108-.02-.031-.047-.055-.083-.072-.035-.018-.075-.026-.122-.026-.048 0-.092.008-.131.026-.04.017-.071.04-.094.072-.024.032-.035.068-.037.11h-.42c.001-.109.031-.204.09-.287.06-.082.14-.147.243-.194.102-.047.219-.07.35-.07.13 0 .244.023.343.068.1.046.176.108.231.186.055.079.083.168.083.266 0 .103-.033.187-.1.254-.068.066-.154.107-.26.122v.014c.142.017.248.063.32.137.072.075.108.168.107.28 0 .105-.03.199-.093.28-.062.082-.148.146-.257.192-.11.047-.236.07-.378.07" mask="url(#wy5651encd)"/>
                </g>
            </g>
        </g>
    </g>
</svg>
