<svg xmlns="http://www.w3.org/2000/svg" width="11" height="13" viewBox="0 0 11 13">
    <g fill="none" fill-rule="evenodd">
        <g fill="#2581FF">
            <g>
                <g transform="translate(-468 -191) translate(100 100) translate(368 91)">
                    <rect width="1" height="12" x="1" y="1" rx=".5"/>
                    <rect width="3" height="1" y="12" rx=".5"/>
                    <path d="M1.57.674C2.38.288 3.19.23 4 .5c1.948.65 3.5 1 5 1 .323 0 .61-.017.864-.052.547-.075 1.052.308 1.127.855.006.045.009.09.009.136v4.468c0 .46-.314.86-.761.97C9.907 7.96 9.494 8 9 8c-1.5 0-3.456-.614-5-1-1.333-.333-2.333 0-3 1V1.577c0-.386.222-.737.57-.903z"/>
                </g>
            </g>
        </g>
    </g>
</svg>
