<svg xmlns="http://www.w3.org/2000/svg" width="100" height="13" viewBox="0 0 100 13">
    <g fill="none" fill-rule="evenodd">
        <path fill="#FFF" d="M1.937 4.727c.182-.053.382-.115.6-.184.22-.07.465-.133.737-.192.273-.06.577-.107.913-.144.336-.038.717-.056 1.145-.056 1.259 0 2.124.362 2.594 1.089.47.725.549 1.718.24 2.978l-1.09 4.546H4.692l1.057-4.45c.064-.278.114-.547.152-.81a1.963 1.963 0 0 0-.008-.688.815.815 0 0 0-.296-.48c-.155-.123-.393-.184-.712-.184-.31 0-.625.032-.945.096l-1.553 6.516H0l1.937-8.037zM13.577 6.008c-.544 0-1.022.195-1.433.584-.411.39-.68.905-.809 1.546.662-.022 1.196-.078 1.602-.169.405-.09.72-.2.944-.328.224-.128.374-.267.448-.417a.993.993 0 0 0 .113-.448c0-.512-.288-.768-.865-.768m-4.66 3.458c0-.683.12-1.345.361-1.985.24-.64.579-1.21 1.017-1.706a5.05 5.05 0 0 1 1.593-1.2 4.672 4.672 0 0 1 2.073-.456c.374 0 .72.053 1.04.16.321.106.602.261.842.464a2.1 2.1 0 0 1 .56.745c.134.293.2.627.2 1 0 .598-.133 1.105-.4 1.52a3.014 3.014 0 0 1-1.113 1.018c-.475.262-1.038.45-1.69.568-.65.118-1.36.177-2.129.177.075.448.238.765.489.952.25.187.648.28 1.192.28.342 0 .689-.029 1.041-.088.353-.058.683-.146.993-.264l.176 1.874c-.3.117-.68.224-1.145.32a7.451 7.451 0 0 1-1.513.143c-.662 0-1.22-.093-1.673-.28a2.936 2.936 0 0 1-1.105-.76 2.963 2.963 0 0 1-.616-1.12 4.726 4.726 0 0 1-.192-1.362M19.662 4.343l1.217 2.625c.362-.448.707-.885 1.032-1.313.326-.426.638-.864.937-1.312h2.386c-.45.64-.94 1.305-1.474 1.993a29.606 29.606 0 0 1-1.857 2.153c.427.8.79 1.54 1.089 2.218.299.678.566 1.364.8 2.057H21.44a24.694 24.694 0 0 0-.577-1.441 35.25 35.25 0 0 0-.56-1.216l-2.321 2.657h-2.498l3.826-4.29-2.065-4.131h2.418zM26.594 2.245l2.482-.384-.609 2.482h2.658l-.48 1.953h-2.642L27.3 9.242a3.928 3.928 0 0 0-.12.688c-.016.214.01.398.08.553a.74.74 0 0 0 .36.36c.17.085.405.128.704.128.256 0 .505-.024.745-.072.24-.048.483-.115.728-.2l.176 1.825c-.32.117-.667.22-1.04.304a6.017 6.017 0 0 1-1.33.129c-.736 0-1.307-.11-1.712-.329-.406-.218-.694-.517-.865-.896-.171-.379-.246-.814-.224-1.305a8.338 8.338 0 0 1 .224-1.553l1.57-6.629zM39.959 4.343L38.822 9.13a5.329 5.329 0 0 0-.128 1.833c.064.614.187 1.161.369 1.641l-2.13.304a7.711 7.711 0 0 1-.336-.784c-.3.235-.635.433-1.009.592-.373.16-.79.24-1.249.24-.63 0-1.14-.114-1.529-.344a2.202 2.202 0 0 1-.872-.912 3.075 3.075 0 0 1-.313-1.305c-.016-.491.04-.993.168-1.505l1.09-4.547h2.385l-1.073 4.514c-.053.236-.099.476-.136.721-.037.246-.04.472-.008.68a.896.896 0 0 0 .248.513c.134.134.345.2.633.2.245 0 .472-.045.68-.136.208-.09.43-.248.665-.472.02-.267.055-.547.104-.84.048-.294.099-.564.152-.809l1.04-4.371h2.386zM41.736 4.727c.182-.053.382-.115.601-.184.218-.07.464-.133.736-.192.273-.06.577-.107.913-.144.336-.038.717-.056 1.145-.056 1.26 0 2.124.362 2.594 1.089.47.725.55 1.718.24 2.978l-1.089 4.546H44.49l1.057-4.45c.064-.278.114-.547.152-.81a1.963 1.963 0 0 0-.008-.688.815.815 0 0 0-.296-.48c-.155-.123-.393-.184-.712-.184-.31 0-.625.032-.945.096l-1.553 6.516H39.8l1.937-8.037zM51.759 3.318c-.331 0-.63-.099-.897-.297-.267-.197-.4-.498-.4-.904 0-.224.046-.435.136-.632a1.667 1.667 0 0 1 .88-.857c.198-.085.41-.128.634-.128.33 0 .629.098.896.296.267.198.4.5.4.905 0 .224-.045.435-.136.632a1.678 1.678 0 0 1-1.513.985zm-1.153 9.446h-2.37l2.002-8.421h2.386l-2.018 8.421zM52.607 9.402c0-.726.118-1.409.353-2.05.235-.64.57-1.2 1.009-1.68.437-.48.968-.86 1.593-1.138.624-.277 1.32-.416 2.089-.416.48 0 .91.046 1.289.136.379.091.723.211 1.033.36l-.817 1.858a8.237 8.237 0 0 0-.665-.232 2.934 2.934 0 0 0-.84-.104c-.8 0-1.43.27-1.89.808-.458.54-.688 1.273-.688 2.202 0 .544.118.985.352 1.32.235.337.668.505 1.298.505a4.425 4.425 0 0 0 1.665-.336l.175 1.905a8.18 8.18 0 0 1-.984.313c-.358.09-.793.135-1.305.135-.662 0-1.222-.095-1.681-.288a3.17 3.17 0 0 1-1.137-.776 2.928 2.928 0 0 1-.648-1.145 4.663 4.663 0 0 1-.2-1.377M63.768 6.136c-.353 0-.662.102-.929.304a2.595 2.595 0 0 0-.672.769c-.182.309-.318.648-.409 1.016a4.39 4.39 0 0 0-.136 1.049c0 .544.085.963.256 1.257.171.293.48.44.929.44.352 0 .662-.101.928-.304a2.6 2.6 0 0 0 .673-.769c.182-.31.317-.648.408-1.016.091-.369.136-.718.136-1.049 0-.545-.085-.963-.256-1.257-.17-.294-.48-.44-.928-.44m-1.185 6.852c-.566 0-1.057-.085-1.474-.256-.416-.17-.76-.41-1.032-.72a3.093 3.093 0 0 1-.616-1.097 4.445 4.445 0 0 1-.209-1.4c0-.641.105-1.282.313-1.922.208-.64.514-1.217.92-1.73a4.929 4.929 0 0 1 1.489-1.256c.587-.326 1.26-.488 2.018-.488.555 0 1.043.085 1.464.256.422.17.77.41 1.041.72.273.31.478.675.617 1.097.138.422.208.888.208 1.401 0 .64-.102 1.28-.304 1.921a5.555 5.555 0 0 1-.897 1.73A4.71 4.71 0 0 1 64.64 12.5c-.593.326-1.278.488-2.057.488M73.758 6.392a41.815 41.815 0 0 0-.632-.152c-.209-.048-.515-.072-.92-.072-.15 0-.316.013-.497.04a3.952 3.952 0 0 0-.448.088l-1.553 6.468H67.32l1.922-7.973c.459-.15.974-.29 1.545-.424a8.502 8.502 0 0 1 1.93-.2c.266 0 .562.024.888.072.325.047.611.125.857.231l-.705 1.922zM75.183 4.727c.182-.053.382-.115.6-.184.219-.07.465-.133.737-.192.272-.06.576-.107.913-.144.336-.038.717-.056 1.145-.056 1.259 0 2.124.362 2.594 1.089.469.725.549 1.718.24 2.978l-1.09 4.546h-2.385l1.057-4.45c.064-.278.114-.547.152-.81a1.971 1.971 0 0 0-.008-.688.816.816 0 0 0-.296-.48c-.155-.123-.393-.184-.712-.184-.31 0-.625.032-.945.096l-1.553 6.516h-2.386l1.937-8.037z"/>
    </g>
</svg>
