<svg xmlns="http://www.w3.org/2000/svg" width="58" height="70" viewBox="0 0 58 70">
    <g fill="none" fill-rule="evenodd">
        <g>
            <g>
                <g>
                    <path fill="#E2E4E7" d="M58 3.608C58 1.615 56.391 0 54.406 0H3.594C1.609 0 0 1.615 0 3.608v62.784C0 68.385 1.61 70 3.594 70h32.119L58 47.46V3.608z" transform="translate(-792 -2400) translate(692 2303) translate(100 97)"/>
                    <path fill="#C2C6CC" d="M36.135 70L36 51.683c-.014-1.945 1.553-3.533 3.5-3.547L58 48 36.135 70z" transform="translate(-792 -2400) translate(692 2303) translate(100 97)"/>
                    <path fill="#CCD0D6" d="M6 12L52 12 52 10 6 10zM6 24L52 24 52 22 6 22zM6 37L52 37 52 35 6 35z" transform="translate(-792 -2400) translate(692 2303) translate(100 97)"/>
                </g>
            </g>
        </g>
    </g>
</svg>
