<svg xmlns="http://www.w3.org/2000/svg" xmlns:xlink="http://www.w3.org/1999/xlink" width="32" height="32" viewBox="0 0 32 32">
    <defs>
        <linearGradient id="ecmu594n2a" x1="50%" x2="50%" y1="0%" y2="113.01%">
            <stop offset="0%" stop-color="#7CB3FF"/>
            <stop offset="100%" stop-color="#B3DAFF"/>
        </linearGradient>
        <filter id="23jmiky3mb" width="240%" height="275%" x="-70%" y="-62.5%" filterUnits="objectBoundingBox">
            <feOffset dy="2" in="SourceAlpha" result="shadowOffsetOuter1"/>
            <feGaussianBlur in="shadowOffsetOuter1" result="shadowBlurOuter1" stdDeviation="2"/>
            <feColorMatrix in="shadowBlurOuter1" values="0 0 0 0 0 0 0 0 0 0 0 0 0 0 0 0 0 0 0.1 0"/>
        </filter>
        <path id="z3i87sw0ic" d="M6.5 5h8c.552 0 1 .448 1 1v4.75c0 .552-.448 1-1 1H9.744L7.453 13l.297-1.25H6.5c-.552 0-1-.448-1-1V6c0-.552.448-1 1-1z"/>
    </defs>
    <g fill="none" fill-rule="evenodd">
        <g>
            <g>
                <g>
                    <g transform="translate(-211.000000, -321.000000) translate(167.000000, 145.000000) translate(28.000000, 160.000000) translate(16.000000, 16.000000)">
                        <circle cx="16" cy="16" r="16" fill="url(#ecmu594n2a)"/>
                        <g transform="translate(9.500000, 6.000000)">
                            <rect width="13" height="21" fill="#F4F9FF" rx="2"/>
                            <rect width="11" height="17" x="1" y="2" fill="#519AFF" rx="1"/>
                            <g>
                                <use fill="#000" filter="url(#23jmiky3mb)" xlink:href="#z3i87sw0ic"/>
                                <use fill="#F4F9FF" xlink:href="#z3i87sw0ic"/>
                            </g>
                        </g>
                    </g>
                </g>
            </g>
        </g>
    </g>
</svg>
