<svg xmlns="http://www.w3.org/2000/svg" width="134" height="20" viewBox="0 0 134 20">
    <g fill="none" fill-rule="evenodd">
        <g>
            <g>
                <g fill="#2581FF">
                    <path d="M105.961 5.545L103.147 8.845 101.482 5.545 97.972 5.545 100.941 11.43 95.9 17.339 99.443 17.339 102.258 14.04 103.922 17.339 107.432 17.339 104.463 11.455 109.504 5.545z" transform="translate(-40 -20) translate(40 20) translate(24)"/>
                    <g>
                        <path d="M8.98 16.797c-.254.075-.534.161-.84.259-.306.097-.65.186-1.031.269-.382.082-.808.149-1.278.202-.472.052-1.006.078-1.604.078-1.763 0-2.974-.508-3.633-1.525-.657-1.016-.77-2.407-.336-4.17l1.525-6.368h3.341l-1.48 6.233c-.09.388-.16.766-.213 1.133-.052.365-.048.687.012.964.06.276.198.5.414.672.217.172.55.258.998.258.434 0 .875-.045 1.323-.134l2.175-9.126h3.34L8.982 16.797zM14.01 6.08c.254-.075.534-.16.84-.258.306-.097.651-.186 1.032-.27.381-.081.807-.148 1.278-.2.471-.053 1.005-.079 1.603-.079 1.764 0 2.975.508 3.633 1.525.658 1.016.77 2.407.336 4.17l-1.525 6.368h-3.34l1.479-6.234c.09-.388.16-.765.214-1.132.051-.366.048-.687-.012-.964-.06-.276-.198-.5-.415-.673-.217-.171-.55-.257-.997-.257-.435 0-.875.045-1.323.134l-2.175 9.126h-3.341L14.009 6.08zM28.37 4.107c-.465 0-.883-.138-1.257-.415-.373-.276-.56-.699-.56-1.267 0-.314.064-.609.19-.886.127-.276.295-.515.505-.717.209-.202.452-.363.728-.483.277-.119.573-.178.887-.178.462 0 .881.137 1.255.414.373.277.561.7.561 1.267 0 .314-.064.61-.19.885-.128.278-.296.517-.505.719-.21.201-.453.362-.729.481-.277.12-.572.18-.886.18zm-1.615 13.229h-3.319L26.24 5.542h3.341l-2.825 11.794zM46.197 8.053c-.493 0-.927.143-1.3.426-.374.284-.688.643-.942 1.076-.254.434-.445.909-.572 1.424-.127.516-.19 1.005-.19 1.469 0 .762.119 1.349.359 1.76.238.411.672.617 1.3.617.493 0 .927-.142 1.3-.427.374-.283.688-.642.942-1.076.254-.433.444-.908.572-1.424.127-.515.19-1.005.19-1.468 0-.763-.12-1.35-.359-1.76-.238-.411-.672-.617-1.3-.617m-1.66 9.597c-.791 0-1.479-.12-2.062-.36-.583-.238-1.065-.574-1.446-1.008-.382-.433-.67-.945-.863-1.536-.195-.59-.292-1.244-.292-1.961 0-.898.146-1.795.437-2.691.292-.897.721-1.705 1.29-2.422.568-.717 1.262-1.304 2.085-1.76.822-.456 1.763-.684 2.825-.684.777 0 1.461.12 2.051.359.591.239 1.077.575 1.458 1.009.382.434.669.945.863 1.536.194.59.292 1.244.292 1.962 0 .896-.143 1.793-.426 2.69-.284.897-.703 1.704-1.255 2.422-.554.717-1.245 1.304-2.075 1.76-.83.456-1.79.684-2.881.684M60.497 8.456c-1.235-.403-2.925-.34-3.179-.302l-.62.092-2.183 9.09h-3.34l2.69-11.167c.643-.209 1.364-.406 2.164-.593.8-.187 1.7-.28 2.702-.28.373 0 .788.033 1.244.1.455.067.856.176 1.2.325l-.678 2.735zM63.024 6.08c.255-.075.534-.16.841-.258.306-.097.65-.186 1.031-.27.382-.081.808-.148 1.278-.2.472-.053 1.006-.079 1.604-.079 1.763 0 2.974.508 3.633 1.525.657 1.016.769 2.407.335 4.17l-1.524 6.368H66.88l1.48-6.234c.09-.388.16-.765.213-1.132.052-.366.048-.687-.012-.964-.06-.276-.198-.5-.414-.673-.217-.171-.55-.257-.998-.257-.434 0-.875.045-1.323.134l-2.175 9.126h-3.34L63.023 6.08zM37.195 17.013l.583-2.422.026-.107c-.227.078-.472.147-.738.206-.404.09-.822.135-1.255.135-.882 0-1.488-.236-1.816-.707-.33-.47-.494-1.087-.494-1.85 0-1.3.322-2.328.964-3.082.643-.756 1.525-1.133 2.646-1.133.464 0 .856.049 1.177.146.317.096.623.203.919.32l.584-2.422.091-.38c-.301-.117-.623-.216-.966-.299-.53-.126-1.132-.19-1.805-.19-1.076 0-2.051.194-2.926.583-.875.39-1.618.919-2.23 1.592-.614.673-1.085 1.457-1.413 2.354-.33.897-.494 1.854-.494 2.87 0 .673.093 1.316.28 1.928.187.614.49 1.148.909 1.604.418.456.948.818 1.592 1.087.642.27 1.426.404 2.354.404.717 0 1.326-.064 1.827-.19l.082-.022.005-.018.098-.407zM77.627 14.909c.52 0 1.01-.126 1.47-.379.46-.252.857-.59 1.191-1.013.334-.423.598-.902.79-1.436.193-.534.29-1.091.29-1.67 0-.713-.119-1.27-.356-1.67-.238-.4-.676-.601-1.314-.601-.208 0-.479.037-.813.111-.334.075-.634.23-.901.468l-1.47 6.1c.09.016.167.03.234.045s.137.026.211.034c.074.007.164.01.268.01h.4zm2.895-9.53c.713 0 1.328.126 1.848.378.52.253.95.594 1.292 1.025.34.43.593.935.757 1.514.163.579.244 1.202.244 1.87 0 1.024-.189 1.993-.567 2.906-.379.913-.895 1.707-1.548 2.382-.653.676-1.425 1.21-2.315 1.603-.891.394-1.856.59-2.895.59-.134 0-.367-.003-.701-.01-.334-.008-.717-.042-1.147-.1-.43-.06-.887-.15-1.37-.268-.482-.119-.939-.282-1.369-.49L76.603.592l3.451-.535-1.38 5.745c.297-.134.593-.237.89-.312.297-.074.616-.111.958-.111zM91.974 8.118c-.49 0-.92.14-1.291.423-.371.282-.683.638-.935 1.068-.253.431-.442.902-.568 1.414-.126.512-.19.999-.19 1.459 0 .757.12 1.34.357 1.748.237.408.668.612 1.291.612.49 0 .92-.141 1.292-.423.37-.282.682-.638.935-1.069.252-.43.442-.902.568-1.414.126-.512.19-.998.19-1.458 0-.757-.12-1.34-.357-1.748-.238-.408-.668-.612-1.292-.612m-1.647 9.53c-.787 0-1.47-.12-2.049-.357s-1.057-.571-1.436-1.002c-.379-.43-.664-.938-.857-1.525-.193-.586-.29-1.236-.29-1.948 0-.89.145-1.782.434-2.672.29-.89.716-1.692 1.28-2.405.565-.712 1.255-1.295 2.072-1.748.816-.452 1.751-.679 2.805-.679.772 0 1.45.119 2.037.356.587.238 1.07.572 1.448 1.002.378.43.664.94.857 1.526.193.586.29 1.235.29 1.948 0 .89-.142 1.781-.424 2.672-.282.89-.697 1.692-1.246 2.404-.55.713-1.236 1.296-2.06 1.748-.824.453-1.778.68-2.861.68" transform="translate(-40 -20) translate(40 20) translate(24) translate(0 .003)"/>
                    </g>
                </g>
                <g transform="translate(-40 -20) translate(40 20)">
                    <circle cx="10" cy="10" r="10" fill="#2581FF"/>
                    <g fill="#FEFEFE">
                        <path d="M11.798 6.91c-.13.037-.27.08-.426.13-.155.05-.33.094-.522.136-.193.042-.408.075-.646.102-.24.027-.51.04-.812.04-.893 0-1.505-.257-1.838-.772-.333-.514-.39-1.218-.17-2.11l.771-3.223h1.691l-.749 3.155c-.045.196-.081.387-.108.573-.026.185-.024.348.006.488s.1.253.21.34c.11.087.278.13.505.13.22 0 .442-.022.669-.067l1.1-4.619h1.692l-1.373 5.696zM2.245.409c.129-.038.27-.082.425-.131.155-.05.33-.094.522-.136C3.385.1 3.601.066 3.84.04c.239-.027.509-.04.812-.04.892 0 1.505.257 1.838.772.333.514.39 1.218.17 2.11l-.772 3.223h-1.69l.748-3.155c.046-.196.082-.387.108-.573.027-.185.025-.348-.006-.488-.03-.14-.1-.253-.21-.34-.11-.087-.277-.13-.504-.13-.22 0-.443.022-.67.067l-1.1 4.619H.872L2.245.409z" transform="translate(3 6.5)"/>
                    </g>
                </g>
            </g>
        </g>
    </g>
</svg>
