<svg width="134" height="100%" viewBox="0 0 134 20" fill="none" xmlns="http://www.w3.org/2000/svg">
<path fill-rule="evenodd" clip-rule="evenodd" d="M3.09494 6.73996C3.38542 6.65475 3.70476 6.5569 4.05462 6.44558C4.40358 6.33516 4.79668 6.23372 5.23109 6.13953C5.66641 6.04617 6.15209 5.96986 6.68906 5.90972C7.22692 5.85047 7.83584 5.82084 8.51846 5.82084C10.5306 5.82084 11.912 6.3989 12.6631 7.55681C13.4132 8.71382 13.5409 10.2972 13.0462 12.3051L11.3067 19.5549H7.49491L9.18316 12.4576C9.28571 12.016 9.36667 11.5861 9.42687 11.1687C9.48631 10.7522 9.48174 10.386 9.41345 10.071C9.34508 9.75683 9.18766 9.50098 8.94035 9.30528C8.69298 9.10958 8.31344 9.01179 7.80256 9.01179C7.30698 9.01179 6.8042 9.06296 6.29332 9.16434L3.81174 19.5549H0L3.09494 6.73996Z" fill="#737373"/>
<path fill-rule="evenodd" clip-rule="evenodd" d="M18.5202 12.1776C18.7244 11.1562 19.1552 10.3348 19.8118 9.71367C20.4684 9.09253 21.232 8.78199 22.1017 8.78199C23.0227 8.78199 23.4833 9.19038 23.4833 10.0072C23.4833 10.2459 23.423 10.4838 23.3034 10.7217C23.1846 10.9605 22.9454 11.1812 22.5874 11.3859C22.2295 11.5897 21.7258 11.7647 21.0782 11.9092C20.4297 12.0537 19.577 12.1435 18.5202 12.1776ZM24.5617 13.6709C25.3306 13.2494 25.9395 12.6939 26.3718 12.0204C26.8055 11.3458 27.0252 10.5135 27.0252 9.54753C27.0252 8.94178 26.9152 8.39259 26.6978 7.91604C26.4792 7.43721 26.1699 7.02717 25.7788 6.69798C25.3893 6.36935 24.9281 6.11509 24.4072 5.94135C23.8874 5.7692 23.3184 5.68184 22.7164 5.68184C21.4977 5.68184 20.3702 5.92927 19.3652 6.41755C18.3607 6.90667 17.495 7.55771 16.7925 8.35309C16.091 9.14659 15.5388 10.0704 15.1516 11.0993C14.7658 12.1253 14.5704 13.2008 14.5704 14.2961C14.5704 15.0664 14.6747 15.8051 14.8808 16.4919C15.0883 17.1809 15.4257 17.7931 15.8839 18.3115C16.3427 18.8299 16.9478 19.2456 17.682 19.5474C18.4147 19.8476 19.3252 20 20.3884 20C21.2613 20 22.0807 19.922 22.8242 19.7682C22.9795 19.7363 23.5629 19.5649 24.0774 19.4132C24.4003 19.3186 24.6806 19.2358 24.7674 19.214L24.8192 19.2012L25.6726 15.6668L25.5176 15.7246C25.0313 15.9055 23.2933 16.4304 22.7529 16.5196C22.1988 16.6124 21.6444 16.6595 21.1044 16.6595C20.2582 16.6595 19.6348 16.5151 19.2521 16.2301C18.8911 15.9622 18.6466 15.5046 18.524 14.8688C19.7144 14.8638 20.8287 14.7688 21.8367 14.5868C22.8843 14.3979 23.8013 14.0897 24.5617 13.6709Z" fill="#737373"/>
<path fill-rule="evenodd" clip-rule="evenodd" d="M37.792 6.1269L34.5807 9.88362L32.6817 6.1269H28.6773L32.0646 12.8269L26.3136 19.5549H30.3556L33.5669 15.7985L35.4658 19.5549H39.4704L36.0826 12.8551L41.8339 6.1269H37.792Z" fill="#737373"/>
<path fill-rule="evenodd" clip-rule="evenodd" d="M47.306 6.12804L48.2783 2.17051L44.3127 2.78358L43.5193 6.12901L41.806 13.3528C41.6012 14.2199 41.4816 15.0449 41.4482 15.8268C41.4837 16.7225 41.707 17.4898 42.1201 18.1271C42.8553 19.2606 44.1964 19.8369 46.14 19.8608C46.8675 19.8496 47.5042 19.7826 48.0481 19.6584C48.13 19.6396 48.211 19.6203 48.2914 19.6006L49.0693 16.3793C48.7992 16.4611 48.5312 16.5288 48.2648 16.5824C47.8816 16.6586 47.485 16.6972 47.0758 16.6972C46.5982 16.6972 46.2222 16.629 45.9497 16.4926C45.6772 16.3571 45.4856 16.1649 45.374 15.9181C45.2634 15.6722 45.2212 15.3786 45.2463 15.0376C45.2724 14.6974 45.3362 14.3312 45.4389 13.9398L45.5287 13.5645L46.5639 9.24269H50.2278H50.785L51.552 6.12901L51.5522 6.12804H47.306Z" fill="#737373"/>
<path fill-rule="evenodd" clip-rule="evenodd" d="M62.0969 18.9419C61.8064 19.0271 61.4871 19.1249 61.1373 19.2363C60.7883 19.3466 60.3952 19.4481 59.9608 19.5423C59.5255 19.6357 59.0398 19.712 58.5029 19.7721C57.965 19.8314 57.356 19.861 56.6734 19.861C54.6614 19.861 53.2798 19.2829 52.5288 18.125C51.7787 16.968 51.6509 15.3847 52.1457 13.3768L53.8851 6.1269H57.697L56.0087 13.2241C55.9062 13.6658 55.8252 14.0957 55.7649 14.5131C55.7056 14.9296 55.7101 15.2958 55.7784 15.6109C55.8469 15.925 56.0042 16.1809 56.2515 16.3766C56.4989 16.5723 56.8784 16.67 57.3894 16.67C57.885 16.67 58.3877 16.6189 58.8985 16.5175L61.3801 6.1269H65.1919L62.0969 18.9419Z" fill="#737373"/>
<path fill-rule="evenodd" clip-rule="evenodd" d="M67.8339 6.73996C68.1244 6.65475 68.4437 6.5569 68.7936 6.44558C69.1426 6.33516 69.5356 6.23372 69.97 6.13953C70.4054 6.04617 70.8911 5.96986 71.428 5.90972C71.9659 5.85047 72.5749 5.82084 73.2575 5.82084C75.2695 5.82084 76.6511 6.3989 77.4021 7.55681C78.1521 8.71382 78.2799 10.2972 77.7852 12.3051L76.0457 19.5549H72.2339L73.9221 12.4576C74.0247 12.016 74.1057 11.5861 74.1659 11.1687C74.2253 10.7522 74.2208 10.386 74.1524 10.071C74.084 9.75683 73.9267 9.50098 73.6794 9.30528C73.4319 9.10958 73.0524 9.01179 72.5415 9.01179C72.0459 9.01179 71.5432 9.06296 71.0323 9.16434L68.5508 19.5549H64.739L67.8339 6.73996Z" fill="#737373"/>
<path fill-rule="evenodd" clip-rule="evenodd" d="M84.2157 4.49332C83.6868 4.49332 83.2093 4.33629 82.7829 4.02023C82.3566 3.70617 82.1434 3.22506 82.1434 2.57871C82.1434 2.22059 82.2162 1.88492 82.361 1.56982C82.5059 1.25486 82.6975 0.982856 82.9368 0.753042C83.1751 0.523297 83.4521 0.340095 83.7678 0.203711C84.0835 0.068157 84.4208 0 84.7788 0C85.3067 0 85.7843 0.15703 86.2115 0.472127C86.637 0.787155 86.851 1.26826 86.851 1.91454C86.851 2.27176 86.7782 2.60834 86.6334 2.92253C86.4886 3.23846 86.2961 3.51047 86.0577 3.74028C85.8185 3.97003 85.5414 4.15309 85.2267 4.28864C84.9101 4.4251 84.5737 4.49332 84.2157 4.49332ZM82.3746 19.5549H78.5889L81.7863 6.12689H85.5982L82.3746 19.5549Z" fill="#737373"/>
<path fill-rule="evenodd" clip-rule="evenodd" d="M94.2855 19.1876L94.9516 16.4294L94.981 16.3078C94.7222 16.3968 94.4418 16.4753 94.1388 16.5426C93.6783 16.645 93.2007 16.6961 92.7069 16.6961C91.7004 16.6961 91.0096 16.4277 90.6345 15.8918C90.2595 15.356 90.0716 14.6531 90.0716 13.7852C90.0716 12.3051 90.4385 11.1346 91.1716 10.2756C91.9046 9.41569 92.9111 8.98582 94.19 8.98582C94.7189 8.98582 95.1668 9.04141 95.5329 9.15183C95.8949 9.26163 96.2437 9.38296 96.5812 9.51713L97.2473 6.75901L97.352 6.32528C97.0076 6.19304 96.6404 6.07993 96.2497 5.98601C95.6445 5.84238 94.9582 5.76967 94.19 5.76967C92.9623 5.76967 91.8498 5.9905 90.8523 6.43301C89.8539 6.87648 89.0057 7.4796 88.3069 8.24618C87.6071 9.01185 87.0702 9.90487 86.6951 10.9263C86.3201 11.9478 86.1321 13.0366 86.1321 14.1936C86.1321 14.9601 86.2382 15.6917 86.4523 16.3891C86.6654 17.0875 87.0108 17.696 87.4884 18.2148C87.9651 18.7345 88.5704 19.1465 89.3044 19.4526C90.0373 19.7595 90.9323 19.9121 91.99 19.9121C92.8085 19.9121 93.5038 19.8403 94.0749 19.6958C94.1065 19.6879 94.1373 19.6796 94.1687 19.6714L94.1736 19.6506L94.2855 19.1876Z" fill="#737373"/>
<path fill-rule="evenodd" clip-rule="evenodd" d="M104.556 8.98578C103.993 8.98578 103.498 9.14826 103.072 9.4713C102.645 9.79448 102.287 10.2029 101.998 10.6965C101.707 11.1902 101.49 11.7306 101.345 12.3176C101.2 12.9046 101.128 13.462 101.128 13.9898C101.128 14.8578 101.264 15.5256 101.537 15.9941C101.81 16.4618 102.304 16.696 103.02 16.696C103.583 16.696 104.078 16.5345 104.504 16.2105C104.931 15.8873 105.289 15.4789 105.578 14.9853C105.869 14.4915 106.086 13.9512 106.231 13.3642C106.376 12.7772 106.448 12.2197 106.448 11.692C106.448 10.824 106.311 10.1562 106.039 9.68855C105.766 9.22008 105.272 8.98578 104.556 8.98578ZM102.663 19.9122C101.759 19.9122 100.975 19.7757 100.309 19.5037C99.6449 19.2318 99.0944 18.8494 98.6599 18.3549C98.2246 17.862 97.8963 17.2786 97.6751 16.6062C97.4529 15.934 97.3423 15.1899 97.3423 14.3732C97.3423 13.3516 97.5087 12.3302 97.8415 11.3096C98.1743 10.2882 98.6636 9.36904 99.312 8.55226C99.9605 7.73541 100.753 7.06765 101.691 6.54787C102.629 6.02913 103.703 5.7697 104.915 5.7697C105.801 5.7697 106.581 5.90608 107.255 6.17809C107.929 6.45002 108.484 6.83335 108.918 7.32702C109.353 7.82069 109.681 8.40317 109.903 9.07555C110.124 9.7478 110.236 10.4919 110.236 11.3096C110.236 12.3302 110.073 13.3516 109.749 14.3732C109.425 15.3936 108.948 16.3128 108.317 17.1296C107.686 17.9465 106.897 18.6151 105.951 19.1339C105.004 19.6527 103.908 19.9122 102.663 19.9122Z" fill="#737373"/>
<path fill-rule="evenodd" clip-rule="evenodd" d="M120.871 9.44428C119.462 8.98576 117.534 9.05847 117.244 9.10059L116.537 9.20583L114.047 19.5549H110.235L113.304 6.8414C114.038 6.60351 114.861 6.37825 115.773 6.16556C116.686 5.95273 117.713 5.84597 118.856 5.84597C119.282 5.84597 119.755 5.88458 120.275 5.96088C120.795 6.03712 121.252 6.161 121.644 6.33067L120.871 9.44428Z" fill="#737373"/>
<path fill-rule="evenodd" clip-rule="evenodd" d="M123.754 6.73996C124.044 6.65475 124.364 6.5569 124.714 6.44558C125.062 6.33516 125.456 6.23372 125.89 6.13953C126.325 6.04617 126.811 5.96986 127.348 5.90972C127.886 5.85047 128.495 5.82084 129.177 5.82084C131.189 5.82084 132.571 6.3989 133.322 7.55681C134.072 8.71382 134.2 10.2972 133.705 12.3051L131.966 19.5549H128.154L129.842 12.4576C129.945 12.016 130.026 11.5861 130.086 11.1687C130.145 10.7522 130.141 10.386 130.072 10.071C130.004 9.75683 129.847 9.50098 129.599 9.30528C129.352 9.10958 128.972 9.01179 128.461 9.01179C127.966 9.01179 127.463 9.06296 126.952 9.16434L124.471 19.5549H120.659L123.754 6.73996Z" fill="#737373"/>
</svg>
