<svg width="25" height="6" viewBox="0 0 25 6" fill="none" xmlns="http://www.w3.org/2000/svg">
<path d="M3.65816 0H0V6H3.74679V4.99459H1.19253V3.38919H3.28751V2.38378H1.19253V0.997297H3.65816V0Z" fill="#FF5859"/>
<path d="M5.43272 0H4.18379L6.00481 6H7.42295L9.25203 0H8.04338L7.26985 2.91892C7.08453 3.6 6.94755 4.17568 6.76222 4.85676H6.72194C6.52855 4.17568 6.40769 3.6 6.22236 2.91892L5.43272 0Z" fill="#FF5859"/>
<path d="M13.5964 0H9.93825V6H13.685V4.99459H11.1308V3.38919H13.2258V2.38378H11.1308V0.997297H13.5964V0Z" fill="#FF5859"/>
<path d="M16.1123 0H14.8956V6H16.0236V3.59189C16.0236 2.9027 15.935 2.14865 15.8786 1.5H15.9189L16.5232 2.78919L18.2475 6H19.4562V0H18.3281V2.39189C18.3281 3.07297 18.4167 3.86757 18.4812 4.49189H18.4409L17.8447 3.19459L16.1123 0Z" fill="#FF5859"/>
<path d="M20.4394 0.997297H22.1154V6H23.3079V0.997297H25V0H20.4394V0.997297Z" fill="#FF5859"/>
</svg>
