<svg xmlns="http://www.w3.org/2000/svg" width="41" height="19" viewBox="0 0 41 19">
    <path fill="#2581FF" fill-rule="nonzero" d="M31.41 0C36.704 0 41 4.252 41 9.5S36.705 19 31.41 19c-4.652 0-7.372-2.276-11.758-8.277l-.293-.401C15.19 4.604 13.16 2.8 9.591 2.8c-3.742 0-6.773 3-6.773 6.7s3.031 6.7 6.773 6.7c1.845 0 3.676-.75 5.452-2.249a1.415 1.415 0 0 1 1.982.157 1.393 1.393 0 0 1-.158 1.976C14.582 18.014 12.13 19 9.59 19 4.295 19 0 14.748 0 9.5S4.295 0 9.59 0c4.652 0 7.372 2.276 11.758 8.277l.293.401c4.17 5.718 6.199 7.522 9.768 7.522 3.742 0 6.773-3 6.773-6.7s-3.031-6.7-6.773-6.7c-1.845 0-3.676.75-5.452 2.249a1.415 1.415 0 0 1-1.982-.157 1.393 1.393 0 0 1 .158-1.976C26.418.986 28.87 0 31.41 0z"/>
</svg>
