<svg width="144" height="105" viewBox="0 0 144 105" fill="none" xmlns="http://www.w3.org/2000/svg">
<g filter="url(#filter0_bii_1382_5113)">
<rect width="143.474" height="104.536" rx="5.78747" fill="white"/>
<mask id="mask0_1382_5113" style="mask-type:alpha" maskUnits="userSpaceOnUse" x="0" y="0" width="144" height="105">
<rect width="143.474" height="104.536" rx="5.78747" fill="white"/>
</mask>
<g mask="url(#mask0_1382_5113)">
<rect width="143.474" height="19.1193" fill="#19D5FF" fill-opacity="0.6"/>
</g>
<rect x="42.738" y="90.6074" width="57.7706" height="10.0244" rx="5.0122" transform="rotate(-90 42.738 90.6074)" fill="#E5E5E5"/>
<rect x="18.6615" y="90.6074" width="57.7706" height="10.0244" rx="5.0122" transform="rotate(-90 18.6615 90.6074)" fill="#E5E5E5"/>
<rect x="66.8145" y="90.6074" width="57.7706" height="10.0244" rx="5.0122" transform="rotate(-90 66.8145 90.6074)" fill="#E5E5E5"/>
<rect x="90.8909" y="90.6074" width="57.7706" height="10.0244" rx="5.0122" transform="rotate(-90 90.8909 90.6074)" fill="#E5E5E5"/>
<rect x="114.967" y="90.6074" width="57.7706" height="10.0244" rx="5.0122" transform="rotate(-90 114.967 90.6074)" fill="#E5E5E5"/>
<rect x="42.738" y="90.6074" width="30.811" height="10.0244" rx="5.0122" transform="rotate(-90 42.738 90.6074)" fill="#929292"/>
<rect x="18.6615" y="90.6074" width="11.1378" height="10.0244" rx="5.0122" transform="rotate(-90 18.6615 90.6074)" fill="#929292"/>
<rect x="66.7249" y="90.6074" width="23.2123" height="10.0244" rx="5.0122" transform="rotate(-90 66.7249 90.6074)" fill="#929292"/>
<rect x="90.9804" y="90.6074" width="37.7219" height="10.0244" rx="5.0122" transform="rotate(-90 90.9804 90.6074)" fill="#929292"/>
<rect x="114.967" y="90.6074" width="50.7212" height="10.0244" rx="5.0122" transform="rotate(-90 114.967 90.6074)" fill="#19D5FF"/>
</g>
<defs>
<filter id="filter0_bii_1382_5113" x="-69.5449" y="-69.5449" width="282.564" height="243.626" filterUnits="userSpaceOnUse" color-interpolation-filters="sRGB">
<feFlood flood-opacity="0" result="BackgroundImageFix"/>
<feGaussianBlur in="BackgroundImage" stdDeviation="34.7725"/>
<feComposite in2="SourceAlpha" operator="in" result="effect1_backgroundBlur_1382_5113"/>
<feBlend mode="normal" in="SourceGraphic" in2="effect1_backgroundBlur_1382_5113" result="shape"/>
<feColorMatrix in="SourceAlpha" type="matrix" values="0 0 0 0 0 0 0 0 0 0 0 0 0 0 0 0 0 0 127 0" result="hardAlpha"/>
<feOffset dy="3.23465"/>
<feGaussianBlur stdDeviation="1.61732"/>
<feComposite in2="hardAlpha" operator="arithmetic" k2="-1" k3="1"/>
<feColorMatrix type="matrix" values="0 0 0 0 1 0 0 0 0 1 0 0 0 0 1 0 0 0 0.15 0"/>
<feBlend mode="normal" in2="shape" result="effect2_innerShadow_1382_5113"/>
<feColorMatrix in="SourceAlpha" type="matrix" values="0 0 0 0 0 0 0 0 0 0 0 0 0 0 0 0 0 0 127 0" result="hardAlpha"/>
<feOffset/>
<feGaussianBlur stdDeviation="27.4945"/>
<feComposite in2="hardAlpha" operator="arithmetic" k2="-1" k3="1"/>
<feColorMatrix type="matrix" values="0 0 0 0 1 0 0 0 0 1 0 0 0 0 1 0 0 0 0.05 0"/>
<feBlend mode="normal" in2="effect2_innerShadow_1382_5113" result="effect3_innerShadow_1382_5113"/>
</filter>
</defs>
</svg>
