<svg width="205" height="108" viewBox="0 0 205 108" fill="none" xmlns="http://www.w3.org/2000/svg">
<g filter="url(#filter0_bii_1382_5217)">
<path d="M41.6337 6C41.6337 3.23858 43.8723 1 46.6337 1H138.623C141.385 1 143.623 3.23858 143.623 6V46.2941C143.623 49.0555 141.385 51.2941 138.623 51.2941H46.6337C43.8723 51.2941 41.6337 49.0555 41.6337 46.2941V6Z" fill="#FFE55A"/>
</g>
<g filter="url(#filter1_bii_1382_5217)">
<path d="M86.2177 50.7732C86.2177 47.9389 83.9201 45.6414 81.0859 45.6414H25.2208C22.3866 45.6414 20.0891 47.9389 20.0891 50.7732V101.842C20.0891 104.676 22.3866 106.974 25.2209 106.974H81.0859C83.9201 106.974 86.2177 104.676 86.2177 101.842V50.7732Z" fill="#006CFF"/>
</g>
<g filter="url(#filter2_bii_1382_5217)">
<path d="M59.147 68.7762C59.147 65.942 61.4446 63.6444 64.2788 63.6444H156.005C158.839 63.6444 161.137 65.942 161.137 68.7762V101.842C161.137 104.676 158.839 106.974 156.005 106.974H64.2788C61.4446 106.974 59.147 104.676 59.147 101.842V68.7762Z" fill="#006CFF" fill-opacity="0.5"/>
</g>
<g filter="url(#filter3_bii_1382_5217)">
<path d="M152.22 12.0823C123.967 12.2883 101.25 33.7012 101.472 59.9048C101.694 86.1084 124.781 107.186 153.034 106.972C181.287 106.766 204.012 85.3532 203.782 59.142C203.568 32.946 180.481 11.8687 152.22 12.0823Z" fill="#FFFDFD" fill-opacity="0.05"/>
</g>
<g filter="url(#filter4_bii_1382_5217)">
<path d="M44.3369 99.1489C46.4448 102.568 43.9852 106.974 39.9686 106.974H10.7805C6.76388 106.974 4.30424 102.568 6.41212 99.1489L21.0062 75.4769C23.0108 72.2254 27.7382 72.2254 29.7429 75.4769L44.3369 99.1489Z" fill="#FEFEFE" fill-opacity="0.4"/>
</g>
<path d="M79.5322 42.2922H75.5925V41.4226L76.7769 41.4989L79.0716 41.804C79.3348 41.8345 79.5322 42.0405 79.5322 42.2922Z" fill="#6A9DD8"/>
<path d="M49.5649 106.974H48.1008L80.6552 25.4792H82.111L49.5649 106.974Z" fill="#AAAAAA"/>
<path d="M60.6111 106.974H59.147L91.6932 25.4792H93.1572L60.6111 106.974Z" fill="#AAAAAA"/>
<path d="M87.9036 34.9948H78.3134L78.9467 33.4038H88.537L87.9036 34.9948Z" fill="#AAAAAA"/>
<path d="M84.5618 43.3476H74.9797L75.6131 41.7566H85.1951L84.5618 43.3476Z" fill="#AAAAAA"/>
<path d="M81.2314 51.693H71.6411L72.2744 50.1019H81.8647L81.2314 51.693Z" fill="#AAAAAA"/>
<path d="M77.8921 60.0461H68.31L68.9433 58.4551H78.5254L77.8921 60.0461Z" fill="#AAAAAA"/>
<path d="M74.5617 68.3913H64.9714L65.6048 66.8003H75.195L74.5617 68.3913Z" fill="#AAAAAA"/>
<path d="M71.2199 76.7441H61.6378L62.2711 75.1531H71.8532L71.2199 76.7441Z" fill="#AAAAAA"/>
<path d="M67.892 85.0894H58.3017L58.9432 83.4984H68.5253L67.892 85.0894Z" fill="#AAAAAA"/>
<path d="M64.5502 93.4422H54.9681L55.6014 91.8512H65.1917L64.5502 93.4422Z" fill="#AAAAAA"/>
<path d="M82.1124 25.4792H80.6566L113.203 106.752H114.659L82.1124 25.4792Z" fill="white"/>
<path d="M93.1586 25.4792H91.7028L124.249 106.752H125.705L93.1586 25.4792Z" fill="white"/>
<path d="M120.449 97.2628H110.859L111.501 98.8495H121.083L120.449 97.2628Z" fill="white"/>
<path d="M117.11 88.9401H107.528L108.161 90.5267H117.752L117.11 88.9401Z" fill="white"/>
<path d="M113.779 80.6097H104.197L104.83 82.1965H114.412L113.779 80.6097Z" fill="white"/>
<path d="M110.449 72.2871H100.858L101.492 73.8662H111.082L110.449 72.2871Z" fill="white"/>
<path d="M107.109 63.9572H97.5272L98.1606 65.5438H107.743L107.109 63.9572Z" fill="white"/>
<path d="M103.776 55.6268H94.1861L94.8194 57.2135H104.41L103.776 55.6268Z" fill="white"/>
<path d="M100.44 47.3042H90.8575L91.4909 48.8909H101.073L100.44 47.3042Z" fill="white"/>
<path d="M97.1067 38.9739H87.5164L88.1497 40.5606H97.74L97.1067 38.9739Z" fill="white"/>
<path d="M93.7674 30.6514H84.1853L84.8186 32.2381H94.4007L93.7674 30.6514Z" fill="white"/>
<defs>
<filter id="filter0_bii_1382_5217" x="-44.3663" y="-85" width="273.99" height="222.294" filterUnits="userSpaceOnUse" color-interpolation-filters="sRGB">
<feFlood flood-opacity="0" result="BackgroundImageFix"/>
<feGaussianBlur in="BackgroundImage" stdDeviation="43"/>
<feComposite in2="SourceAlpha" operator="in" result="effect1_backgroundBlur_1382_5217"/>
<feBlend mode="normal" in="SourceGraphic" in2="effect1_backgroundBlur_1382_5217" result="shape"/>
<feColorMatrix in="SourceAlpha" type="matrix" values="0 0 0 0 0 0 0 0 0 0 0 0 0 0 0 0 0 0 127 0" result="hardAlpha"/>
<feOffset dy="4"/>
<feGaussianBlur stdDeviation="2"/>
<feComposite in2="hardAlpha" operator="arithmetic" k2="-1" k3="1"/>
<feColorMatrix type="matrix" values="0 0 0 0 1 0 0 0 0 1 0 0 0 0 1 0 0 0 0.15 0"/>
<feBlend mode="normal" in2="shape" result="effect2_innerShadow_1382_5217"/>
<feColorMatrix in="SourceAlpha" type="matrix" values="0 0 0 0 0 0 0 0 0 0 0 0 0 0 0 0 0 0 127 0" result="hardAlpha"/>
<feOffset/>
<feGaussianBlur stdDeviation="34"/>
<feComposite in2="hardAlpha" operator="arithmetic" k2="-1" k3="1"/>
<feColorMatrix type="matrix" values="0 0 0 0 1 0 0 0 0 1 0 0 0 0 1 0 0 0 0.05 0"/>
<feBlend mode="normal" in2="effect2_innerShadow_1382_5217" result="effect3_innerShadow_1382_5217"/>
</filter>
<filter id="filter1_bii_1382_5217" x="-35.0778" y="-9.52551" width="176.462" height="171.666" filterUnits="userSpaceOnUse" color-interpolation-filters="sRGB">
<feFlood flood-opacity="0" result="BackgroundImageFix"/>
<feGaussianBlur in="BackgroundImage" stdDeviation="27.5834"/>
<feComposite in2="SourceAlpha" operator="in" result="effect1_backgroundBlur_1382_5217"/>
<feBlend mode="normal" in="SourceGraphic" in2="effect1_backgroundBlur_1382_5217" result="shape"/>
<feColorMatrix in="SourceAlpha" type="matrix" values="0 0 0 0 0 0 0 0 0 0 0 0 0 0 0 0 0 0 127 0" result="hardAlpha"/>
<feOffset dy="2.5659"/>
<feGaussianBlur stdDeviation="1.28295"/>
<feComposite in2="hardAlpha" operator="arithmetic" k2="-1" k3="1"/>
<feColorMatrix type="matrix" values="0 0 0 0 1 0 0 0 0 1 0 0 0 0 1 0 0 0 0.15 0"/>
<feBlend mode="normal" in2="shape" result="effect2_innerShadow_1382_5217"/>
<feColorMatrix in="SourceAlpha" type="matrix" values="0 0 0 0 0 0 0 0 0 0 0 0 0 0 0 0 0 0 127 0" result="hardAlpha"/>
<feOffset/>
<feGaussianBlur stdDeviation="21.8102"/>
<feComposite in2="hardAlpha" operator="arithmetic" k2="-1" k3="1"/>
<feColorMatrix type="matrix" values="0 0 0 0 1 0 0 0 0 1 0 0 0 0 1 0 0 0 0.05 0"/>
<feBlend mode="normal" in2="effect2_innerShadow_1382_5217" result="effect3_innerShadow_1382_5217"/>
</filter>
<filter id="filter2_bii_1382_5217" x="3.98017" y="8.47754" width="212.323" height="153.663" filterUnits="userSpaceOnUse" color-interpolation-filters="sRGB">
<feFlood flood-opacity="0" result="BackgroundImageFix"/>
<feGaussianBlur in="BackgroundImage" stdDeviation="27.5834"/>
<feComposite in2="SourceAlpha" operator="in" result="effect1_backgroundBlur_1382_5217"/>
<feBlend mode="normal" in="SourceGraphic" in2="effect1_backgroundBlur_1382_5217" result="shape"/>
<feColorMatrix in="SourceAlpha" type="matrix" values="0 0 0 0 0 0 0 0 0 0 0 0 0 0 0 0 0 0 127 0" result="hardAlpha"/>
<feOffset dy="2.5659"/>
<feGaussianBlur stdDeviation="1.28295"/>
<feComposite in2="hardAlpha" operator="arithmetic" k2="-1" k3="1"/>
<feColorMatrix type="matrix" values="0 0 0 0 1 0 0 0 0 1 0 0 0 0 1 0 0 0 0.15 0"/>
<feBlend mode="normal" in2="shape" result="effect2_innerShadow_1382_5217"/>
<feColorMatrix in="SourceAlpha" type="matrix" values="0 0 0 0 0 0 0 0 0 0 0 0 0 0 0 0 0 0 127 0" result="hardAlpha"/>
<feOffset/>
<feGaussianBlur stdDeviation="21.8102"/>
<feComposite in2="hardAlpha" operator="arithmetic" k2="-1" k3="1"/>
<feColorMatrix type="matrix" values="0 0 0 0 1 0 0 0 0 1 0 0 0 0 1 0 0 0 0.05 0"/>
<feBlend mode="normal" in2="effect2_innerShadow_1382_5217" result="effect3_innerShadow_1382_5217"/>
</filter>
<filter id="filter3_bii_1382_5217" x="15.4702" y="-73.9193" width="274.314" height="266.893" filterUnits="userSpaceOnUse" color-interpolation-filters="sRGB">
<feFlood flood-opacity="0" result="BackgroundImageFix"/>
<feGaussianBlur in="BackgroundImage" stdDeviation="43"/>
<feComposite in2="SourceAlpha" operator="in" result="effect1_backgroundBlur_1382_5217"/>
<feBlend mode="normal" in="SourceGraphic" in2="effect1_backgroundBlur_1382_5217" result="shape"/>
<feColorMatrix in="SourceAlpha" type="matrix" values="0 0 0 0 0 0 0 0 0 0 0 0 0 0 0 0 0 0 127 0" result="hardAlpha"/>
<feOffset dy="4"/>
<feGaussianBlur stdDeviation="2"/>
<feComposite in2="hardAlpha" operator="arithmetic" k2="-1" k3="1"/>
<feColorMatrix type="matrix" values="0 0 0 0 1 0 0 0 0 1 0 0 0 0 1 0 0 0 0.15 0"/>
<feBlend mode="normal" in2="shape" result="effect2_innerShadow_1382_5217"/>
<feColorMatrix in="SourceAlpha" type="matrix" values="0 0 0 0 0 0 0 0 0 0 0 0 0 0 0 0 0 0 127 0" result="hardAlpha"/>
<feOffset/>
<feGaussianBlur stdDeviation="34"/>
<feComposite in2="hardAlpha" operator="arithmetic" k2="-1" k3="1"/>
<feColorMatrix type="matrix" values="0 0 0 0 1 0 0 0 0 1 0 0 0 0 1 0 0 0 0.05 0"/>
<feBlend mode="normal" in2="effect2_innerShadow_1382_5217" result="effect3_innerShadow_1382_5217"/>
</filter>
<filter id="filter4_bii_1382_5217" x="-49.5263" y="17.8713" width="149.802" height="144.269" filterUnits="userSpaceOnUse" color-interpolation-filters="sRGB">
<feFlood flood-opacity="0" result="BackgroundImageFix"/>
<feGaussianBlur in="BackgroundImage" stdDeviation="27.5834"/>
<feComposite in2="SourceAlpha" operator="in" result="effect1_backgroundBlur_1382_5217"/>
<feBlend mode="normal" in="SourceGraphic" in2="effect1_backgroundBlur_1382_5217" result="shape"/>
<feColorMatrix in="SourceAlpha" type="matrix" values="0 0 0 0 0 0 0 0 0 0 0 0 0 0 0 0 0 0 127 0" result="hardAlpha"/>
<feOffset dy="2.5659"/>
<feGaussianBlur stdDeviation="1.28295"/>
<feComposite in2="hardAlpha" operator="arithmetic" k2="-1" k3="1"/>
<feColorMatrix type="matrix" values="0 0 0 0 1 0 0 0 0 1 0 0 0 0 1 0 0 0 0.15 0"/>
<feBlend mode="normal" in2="shape" result="effect2_innerShadow_1382_5217"/>
<feColorMatrix in="SourceAlpha" type="matrix" values="0 0 0 0 0 0 0 0 0 0 0 0 0 0 0 0 0 0 127 0" result="hardAlpha"/>
<feOffset/>
<feGaussianBlur stdDeviation="21.8102"/>
<feComposite in2="hardAlpha" operator="arithmetic" k2="-1" k3="1"/>
<feColorMatrix type="matrix" values="0 0 0 0 1 0 0 0 0 1 0 0 0 0 1 0 0 0 0.05 0"/>
<feBlend mode="normal" in2="effect2_innerShadow_1382_5217" result="effect3_innerShadow_1382_5217"/>
</filter>
</defs>
</svg>
