<svg xmlns="http://www.w3.org/2000/svg" xmlns:xlink="http://www.w3.org/1999/xlink" width="40" height="40" viewBox="0 0 40 40">
    <defs>
        <path id="fjtjcf9saa" d="M23.571 3c.108 0 .213.035.298.098l.06.053 8.93 9.167c.067.07.113.158.132.252l.009.097v20.166c0 2.229-1.711 4.053-3.868 4.162l-.203.005H11.07c-2.183 0-3.96-1.757-4.066-3.959L7 32.833V7.167c0-2.229 1.711-4.053 3.868-4.162L11.071 3h12.5zM23 4H11.071C9.437 4 8.095 5.319 8.005 6.987L8 7.167v25.666c0 1.692 1.285 3.069 2.897 3.162l.174.005H28.93c1.634 0 2.976-1.319 3.066-2.987l.005-.18V13.5h-6.7c-1.217 0-2.214-.946-2.295-2.143L23 11.2V4zm4.5 26c.276 0 .5.224.5.5s-.224.5-.5.5h-15c-.276 0-.5-.224-.5-.5s.224-.5.5-.5h15zm0-5c.276 0 .5.224.5.5s-.224.5-.5.5h-15c-.276 0-.5-.224-.5-.5s.224-.5.5-.5h15zm0-5c.276 0 .5.224.5.5s-.224.5-.5.5h-15c-.276 0-.5-.224-.5-.5s.224-.5.5-.5h15zm-10-5c.276 0 .5.224.5.5s-.224.5-.5.5h-5c-.276 0-.5-.224-.5-.5s.224-.5.5-.5h5zM24 4.656V11.2c0 .673.512 1.227 1.167 1.293l.133.007h6.34L24 4.656z"/>
    </defs>
    <g fill="none" fill-rule="evenodd">
        <g>
            <g>
                <g transform="translate(-1304 -460) translate(448 122) translate(856 338)">
                    <mask id="bgt7t2l58b" fill="#fff">
                        <use xlink:href="#fjtjcf9saa"/>
                    </mask>
                    <use fill="#000" fill-rule="nonzero" xlink:href="#fjtjcf9saa"/>
                    <g fill="#61BB56" mask="url(#bgt7t2l58b)">
                        <path d="M0 0H40V40H0z"/>
                        <path d="M0 0H40V40H0z"/>
                    </g>
                </g>
            </g>
        </g>
    </g>
</svg>
