<svg xmlns="http://www.w3.org/2000/svg" xmlns:xlink="http://www.w3.org/1999/xlink" width="40" height="40" viewBox="0 0 40 40">
    <defs>
        <path id="ewe5l8v22a" d="M23.571 3c.135 0 .264.055.359.151l8.928 9.167c.091.093.142.218.142.349v20.166C33 35.132 31.18 37 28.929 37H11.07C8.82 37 7 35.132 7 32.833V7.167C7 4.868 8.82 3 11.071 3zM23 4H11.071C9.378 4 8 5.415 8 7.167v25.666C8 34.585 9.378 36 11.071 36H28.93C30.622 36 32 34.585 32 32.833V13.5h-6.7c-1.217 0-2.214-.946-2.295-2.143L23 11.2V4zm.614 14.84c.065.05.124.11.175.175l4.956 6.371c.339.436.26 1.064-.176 1.403-.175.137-.391.211-.614.211H12c-.552 0-1-.448-1-1 0-.216.07-.427.2-.6l2.5-3.333c.331-.442.958-.532 1.4-.2.076.057.143.124.2.2l2.227 2.969 4.684-6.021c.339-.436.967-.515 1.403-.176zM17 16c1.105 0 2 .895 2 2s-.895 2-2 2-2-.895-2-2 .895-2 2-2zm14.64-3.5L24 4.656V11.2c0 .673.512 1.227 1.167 1.293l.133.007h6.34z"/>
    </defs>
    <g fill="none" fill-rule="evenodd">
        <g>
            <g>
                <g>
                    <g transform="translate(-1304 -560) translate(448 122) translate(840 418) translate(16 20)">
                        <mask id="dy4xlkdt2b" fill="#fff">
                            <use xlink:href="#ewe5l8v22a"/>
                        </mask>
                        <g mask="url(#dy4xlkdt2b)">
                            <path fill="#FAC42D" d="M0 0H40V40H0z"/>
                            <path fill="#FFBE49" d="M0 0H40V40H0z"/>
                        </g>
                    </g>
                </g>
            </g>
        </g>
    </g>
</svg>
