<svg xmlns="http://www.w3.org/2000/svg" xmlns:xlink="http://www.w3.org/1999/xlink" width="24" height="24" viewBox="0 0 24 24">
    <defs>
        <path id="hxvfd2phqa" d="M12 2c5.523 0 10 4.477 10 10s-4.477 10-10 10S2 17.523 2 12 6.477 2 12 2zm0 1c-4.97 0-9 4.03-9 9s4.03 9 9 9 9-4.03 9-9-4.03-9-9-9zm4.195 4.202c.245 0 .45.177.491.41l.009.09v4c0 .276-.224.5-.5.5-.246 0-.45-.177-.492-.41l-.008-.09V8.907L9.014 15.59l2.792.001.09.008c.234.042.41.247.41.492s-.176.45-.41.492l-.09.008h-4l-.09-.008c-.204-.037-.364-.198-.401-.402l-.009-.09v-4l.009-.09c.037-.204.197-.365.402-.402l.09-.008.09.008c.203.037.364.198.401.402l.008.09v2.792l6.682-6.681h-2.792c-.246 0-.45-.177-.492-.41l-.008-.09c0-.246.176-.45.41-.492l.09-.008h4z"/>
    </defs>
    <g fill="none" fill-rule="evenodd">
        <g>
            <g>
                <g transform="translate(-1600 -150) translate(448 122) translate(1152 28)">
                    <mask id="eqwp09xncb" fill="#fff">
                        <use xlink:href="#hxvfd2phqa"/>
                    </mask>
                    <use fill="#979797" fill-rule="nonzero" xlink:href="#hxvfd2phqa"/>
                    <g mask="url(#eqwp09xncb)">
                        <path fill="#656565" d="M0 0H24V24H0z"/>
                        <path fill="#3A3A3A" d="M0 0H24V24H0z"/>
                    </g>
                </g>
            </g>
        </g>
    </g>
</svg>
