<svg xmlns="http://www.w3.org/2000/svg" xmlns:xlink="http://www.w3.org/1999/xlink" width="24" height="24" viewBox="0 0 24 24">
    <defs>
        <path id="ccxywn3aha" d="M20.5 14c.245 0 .45.177.492.41l.008.09v5c0 .78-.595 1.42-1.356 1.493L19.5 21h-15c-.78 0-1.42-.595-1.493-1.356L3 19.5v-5c0-.276.224-.5.5-.5.245 0 .45.177.492.41L4 14.5v5c0 .245.177.45.41.492L4.5 20h15c.245 0 .45-.177.492-.41L20 19.5v-5c0-.276.224-.5.5-.5zM12 3c.276 0 .5.224.5.5v11.538l3.39-3.392c.173-.173.442-.192.637-.057l.07.057c.173.174.192.443.057.638l-.058.07-4.242 4.242c-.026.026-.054.048-.083.067l-.077.04-.066.023-.054.011-.074.006c-.036 0-.071-.004-.105-.011l-.067-.02-.095-.047-.055-.04-4.274-4.271c-.195-.196-.195-.512 0-.708.173-.173.443-.192.638-.057l.069.057 3.388 3.392L11.5 3.5c0-.276.224-.5.5-.5z"/>
    </defs>
    <g fill="none" fill-rule="evenodd">
        <g>
            <g>
                <g transform="translate(-1640 -150) translate(448 122) translate(1192 28)">
                    <mask id="s3rz7301tb" fill="#fff">
                        <use xlink:href="#ccxywn3aha"/>
                    </mask>
                    <use fill="#979797" fill-rule="nonzero" xlink:href="#ccxywn3aha"/>
                    <g mask="url(#s3rz7301tb)">
                        <path fill="#656565" d="M0 0H24V24H0z"/>
                        <path fill="#3A3A3A" d="M0 0H24V24H0z"/>
                    </g>
                </g>
            </g>
        </g>
    </g>
</svg>
