<svg xmlns="http://www.w3.org/2000/svg" xmlns:xlink="http://www.w3.org/1999/xlink" width="40" height="40" viewBox="0 0 40 40">
    <defs>
        <path id="th6b2vv86a" d="M23.571 3c.135 0 .264.055.359.151l8.928 9.167c.091.093.142.218.142.349v20.166C33 35.132 31.18 37 28.929 37H11.07C8.82 37 7 35.132 7 32.833V7.167C7 4.868 8.82 3 11.071 3zM23 4H11.071C9.378 4 8 5.415 8 7.167v25.666C8 34.585 9.378 36 11.071 36H28.93C30.622 36 32 34.585 32 32.833V13.5h-6.7c-1.217 0-2.214-.946-2.295-2.143L23 11.2V4zm-6.5 14v9H15v-9h1.5zm4.919 0c.434 0 .841.043 1.223.129.382.085.713.23.993.432.28.203.501.472.662.807.161.335.242.752.242 1.251 0 .655-.144 1.185-.432 1.59-.24.338-.547.603-.92.794l-.23.107L25 27h-1.822l-1.838-3.621h-1.156V27h-1.661v-9h2.896zm-.158 1.368h-1.077v2.643h1.077c.54 0 .949-.115 1.23-.345.28-.23.42-.58.42-1.047 0-.468-.14-.793-.42-.976-.281-.183-.69-.275-1.23-.275zM31.64 12.5L24 4.656V11.2c0 .673.512 1.227 1.167 1.293l.133.007h6.34z"/>
    </defs>
    <g fill="none" fill-rule="evenodd">
        <g>
            <g>
                <g transform="translate(-1304 -142) translate(448 122) translate(856 20)">
                    <mask id="5cncvvqbwb" fill="#fff">
                        <use xlink:href="#th6b2vv86a"/>
                    </mask>
                    <use fill="#000" fill-rule="nonzero" xlink:href="#th6b2vv86a"/>
                    <g fill="#2581FF" mask="url(#5cncvvqbwb)">
                        <path d="M0 0H40V40H0z"/>
                        <path d="M0 0H40V40H0z"/>
                    </g>
                </g>
            </g>
        </g>
    </g>
</svg>
