<svg xmlns="http://www.w3.org/2000/svg" xmlns:xlink="http://www.w3.org/1999/xlink" width="64" height="54" viewBox="0 0 64 54">
    <defs>
        <path id="i0az3nt57a" d="M0.727 0.1L45.134 0.1 45.134 43.4 0.727 43.4z"/>
        <path id="smyq0b841c" d="M0.764 0.213L10.575 0.213 10.575 9.6 0.764 9.6z"/>
        <path id="sq9ld212ce" d="M0 52.688L63.134 52.688 63.134 0 0 0z"/>
    </defs>
    <g fill="none" fill-rule="evenodd">
        <g>
            <g>
                <g>
                    <g transform="translate(-108 -42) translate(76 21) translate(32 21)">
                        <g transform="translate(18 9.288)">
                            <mask id="qrhon9g1cb" fill="#fff">
                                <use xlink:href="#i0az3nt57a"/>
                            </mask>
                            <path fill="#7CB3FF" d="M39.135.1H.727L19.16 43.4h19.975c3.3 0 6-2.7 6-6V6.1c0-3.3-2.7-6-6-6" mask="url(#qrhon9g1cb)"/>
                        </g>
                        <g transform="translate(32.4 43.088)">
                            <mask id="qlwiw1rdhd" fill="#fff">
                                <use xlink:href="#smyq0b841c"/>
                            </mask>
                            <path fill="#124397" d="M4.76 9.6L0.764 0.213 10.575 0.213z" mask="url(#qlwiw1rdhd)"/>
                        </g>
                        <mask id="r3ipa7dbkf" fill="#fff">
                            <use xlink:href="#sq9ld212ce"/>
                        </mask>
                        <path fill="#F4F9FF" d="M32.542 20.781L57.953 20.781 57.953 18.974 32.542 18.974zM34.745 28.546L57.953 28.546 57.953 26.74 34.745 26.74zM43.321 36.313L57.953 36.313 57.953 34.507 43.321 34.507z" mask="url(#r3ipa7dbkf)"/>
                        <path fill="#2581FF" d="M6 0C2.7 0 0 2.7 0 6v31.3c0 3.3 2.7 6 6 6h36.976L24.54 0H6.001z" mask="url(#r3ipa7dbkf)"/>
                    </g>
                    <g fill="#F4F9FF">
                        <path d="M10 2c4.418 0 8 3.582 8 8s-3.582 8-8 8-8-3.582-8-8 3.582-8 8-8zm0 10c-.552 0-1 .448-1 1s.448 1 1 1 1-.448 1-1-.448-1-1-1zm0-6c-.03 0-.06.001-.09.004-.497.05-.86.494-.81.991l.35 3.507c.028.283.266.498.55.498.284 0 .522-.215.55-.498l.35-3.507c.003-.03.005-.06.005-.09 0-.5-.405-.905-.905-.905z" transform="translate(-108 -42) translate(76 21) translate(32 21) translate(6 13)"/>
                    </g>
                </g>
            </g>
        </g>
    </g>
</svg>
