<svg xmlns="http://www.w3.org/2000/svg" width="25" height="40" viewBox="0 0 25 40">
    <g fill="none" fill-rule="evenodd">
        <g>
            <g>
                <g>
                    <path fill="#124397" d="M0 0L25 0 25 40 12.507 31.837 0 40z" transform="translate(-137 -753) translate(0 409) translate(137 344)"/>
                    <path fill="#FFF" d="M11.093 14.166L12.5 8.031l1.407 6.135c.11.477.481.849.958.959L21 16.53l-6.135 1.407c-.477.11-.848.48-.958.958L12.5 25.03l-1.407-6.135c-.109-.477-.48-.849-.957-.958L4 16.531l6.136-1.406c.477-.11.848-.482.957-.959" transform="translate(-137 -753) translate(0 409) translate(137 344)"/>
                </g>
            </g>
        </g>
    </g>
</svg>
