<svg xmlns="http://www.w3.org/2000/svg" width="139" height="120" viewBox="0 0 139 120">
    <g fill="none" fill-rule="evenodd">
        <g>
            <g>
                <g>
                    <path fill="#D2E6FF" d="M96.994 71.315L134.914 71.315 134.914 4.42 96.994 4.42z" transform="translate(-112 -670) translate(0 570) translate(112 100)"/>
                    <g>
                        <path fill="#7AB1FF" d="M137.874 7.52c-.16 0-.32-.08-.4-.16l-6-6c-.24-.24-.24-.64 0-.88s.64-.24.88 0l6 6c.24.24.24.64 0 .88-.16.16-.32.16-.48.16" transform="translate(-112 -670) translate(0 570) translate(112 100) translate(0 .5)"/>
                        <path fill="#7AB1FF" d="M131.954 7.52c-.16 0-.32-.08-.4-.16-.24-.24-.24-.64 0-.88l6-6c.24-.24.64-.24.88 0s.24.64 0 .88l-6 6c-.16.16-.32.16-.48.16" transform="translate(-112 -670) translate(0 570) translate(112 100) translate(0 .5)"/>
                        <path fill="#FFF" d="M104.194 35.84L116.594 19.92 119.954 39.36z" transform="translate(-112 -670) translate(0 570) translate(112 100) translate(0 .5)"/>
                        <path fill="#FFF" d="M110.994 42.96h-.16c-.32-.08-.56-.4-.48-.72l1.92-8.48c.08-.32.4-.56.72-.48.32.08.56.4.48.72l-1.92 8.48c-.08.32-.32.48-.56.48" transform="translate(-112 -670) translate(0 570) translate(112 100) translate(0 .5)"/>
                        <path fill="#FFF" d="M89.714 43.68c5.36-5.36 8.72-10.96 12.08-8.96 0 0 4.16-.64 3.84 1.52 2.88-2.32 3.92-5.12 5.84-4.08 3.2 1.68-6.32 13.76-6.32 13.76h2.72s2.16-4.64 4.4-4.32c2.16.32-.16 8.8-6.08 12.08-4.72 2.64-10.96 6.16-10.96 6.16l-5.52-16.16z" transform="translate(-112 -670) translate(0 570) translate(112 100) translate(0 .5)"/>
                        <path stroke="#2A375D" stroke-linejoin="round" stroke-width=".8" d="M89.714 43.68c5.36-5.36 8.72-10.96 12.08-8.96 0 0 4.16-.64 3.84 1.52 2.88-2.32 3.92-5.12 5.84-4.08 3.2 1.68-6.32 13.76-6.32 13.76h2.72s2.16-4.64 4.4-4.32c2.16.32-.16 8.8-6.08 12.08-4.72 2.64-10.96 6.16-10.96 6.16l-5.52-16.16z" transform="translate(-112 -670) translate(0 570) translate(112 100) translate(0 .5)"/>
                        <path fill="#2A375D" d="M89.714 43.68c-4.4 4.24-11.2 12.08-17.68 14.64-8.08 3.2-22.32-14.24-32.4-13.2l2.56 17.52s8.48 17.52 24.16 20.96c15.68 3.44 31.68-24 31.76-24.08-2.08-4.72-4.72-12.72-8.4-15.84" transform="translate(-112 -670) translate(0 570) translate(112 100) translate(0 .5)"/>
                        <path fill="#030047" d="M104.994 36.16c-1.12 1.04-2 2.16-2.8 3.52-.24.48.4.88.72.4.72-1.28 1.6-2.4 2.64-3.36.4-.32-.24-.88-.56-.56M100.354 34.88l-2.4 2.64c-.32.4.24.96.56.56l2.4-2.64c.4-.32-.16-.88-.56-.56" transform="translate(-112 -670) translate(0 570) translate(112 100) translate(0 .5)"/>
                        <path fill="#2A375D" d="M32.594 43.44L31.314 46.88 46.354 48.56 47.074 41.6z" transform="translate(-112 -670) translate(0 570) translate(112 100) translate(0 .5)"/>
                        <path fill="#2A375D" d="M44.514 47.28c-8.48-6.56-25.92 4.8-28.72 14.48-2.8 9.68-6.16 56.64-6.16 56.64l51.44-.72s-4.16-50.72-10.16-59.28c-6-8.56-3.6-8.88-6.4-11.12" transform="translate(-112 -670) translate(0 570) translate(112 100) translate(0 .5)"/>
                        <path fill="#2A375D" d="M55.714 74.64c-.24 0-.56-.16-.56-.48 0-.08-1.04-4.8-3.2-12.16-.08-.32.08-.64.4-.72.32-.08.64.08.72.4 2.24 7.44 3.2 12.16 3.2 12.24.08.32-.16.64-.48.72h-.08z" transform="translate(-112 -670) translate(0 570) translate(112 100) translate(0 .5)"/>
                        <path fill="#FFF" d="M49.234 28.56c2.64 5.84 2.96 12.16-4.72 14.88-5.2 1.84-11.6-.4-14.24-6.24-2.64-5.84-.56-12.48 4.72-14.88 5.28-2.4 11.6.4 14.24 6.24" transform="translate(-112 -670) translate(0 570) translate(112 100) translate(0 .5)"/>
                        <path stroke="#2A375D" stroke-width=".8" d="M49.234 28.56c2.64 5.84 2.96 12.16-4.72 14.88-5.2 1.84-11.6-.4-14.24-6.24-2.64-5.84-.56-12.48 4.72-14.88 5.28-2.4 11.6.4 14.24 6.24z" transform="translate(-112 -670) translate(0 570) translate(112 100) translate(0 .5)"/>
                        <path fill="#030047" d="M41.696 31.204c.442-.014.81.334.824.776.012.442-.335.81-.776.823-.442.013-.81-.334-.824-.776-.012-.441.335-.81.776-.823M48.434 32.64c-.96-1.52-2.08-2.88-3.44-4.08-.4-.32-.96.24-.56.56 1.28 1.12 2.4 2.48 3.36 3.92.24.48.88.08.64-.4" transform="translate(-112 -670) translate(0 570) translate(112 100) translate(0 .5)"/>
                        <path fill="#2A375D" d="M41.554 23.84c-1.76 1.92-10.48 6.24-7.2 10.56.8 1.12 1.76 1.52.88 2.64-1.04.96-2.56-.72-2.56-.72-1.6.4-2.88 1.04-3.76 1.76-4.24-3.68-4.16-7.84-2.24-9.36 0 0 11.2-16.08 16.4-11.84 4.56 3.76-1.52 6.96-1.52 6.96M52.514 98.96c-.72-2.48-11.28-9.76-11.84-12.24-3.44 1.92-6.8 3.12-9.84 2.08-8.4-2.88-11.52-18.24-1.84-25.84 9.68-7.6 10.56-17.92 10.56-17.92-15.28.64-30 9.84-36.8 28.4-7.68 21.12 2.32 31.84 10.24 35.6 7.84 3.68 29.92 2.32 29.92 2.32.24.4 2.16-2.96 2.56-3.28 2.16-2.8 8.08-5.6 7.04-9.12" transform="translate(-112 -670) translate(0 570) translate(112 100) translate(0 .5)"/>
                        <path fill="#FFF" d="M52.514 95.36c-.08 0-.24 0-.32-.08-.08-.08-7.92-4.8-25.28-7.28-2.4-.32-4.16-1.6-5.2-3.6-2-4-.96-10.64 2.8-17.84.16-.32.48-.4.8-.24.32.16.4.48.24.8-3.6 6.72-4.64 13.2-2.8 16.8.88 1.68 2.32 2.72 4.32 2.96 17.68 2.56 25.44 7.2 25.76 7.44.32.16.4.56.16.8-.08.16-.24.24-.48.24M53.394 96.56c-4.24 3.12-6.48 9.12-9.36 13.84.64 1.52 1.04 1.6 4.48 2.08 6.24.8 6.08 5.12 9.2 5.12 3.12-.08 3.2-1.76 3.2-1.76 3.76 0 4.88-2.72 4.88-2.72 8.8-3.28-6.88-16.32-12.4-16.56" transform="translate(-112 -670) translate(0 570) translate(112 100) translate(0 .5)"/>
                        <path stroke="#2A375D" stroke-linejoin="round" stroke-width=".8" d="M53.394 96.56c-4.24 3.12-6.48 9.12-9.36 13.84.64 1.52 1.04 1.6 4.48 2.08 6.24.8 6.08 5.12 9.2 5.12 3.12-.08 3.2-1.76 3.2-1.76 3.76 0 4.88-2.72 4.88-2.72 8.8-3.28-6.88-16.32-12.4-16.56z" transform="translate(-112 -670) translate(0 570) translate(112 100) translate(0 .5)"/>
                        <path fill="#030047" d="M60.834 114.48c-1.2-2.24-2.72-4.32-4.56-6.08-.4-.32-.96.24-.56.56 1.84 1.68 3.28 3.68 4.48 5.92.24.48.88.08.64-.4M65.714 112.08c-.88-3.2-2.8-5.36-5.28-7.44-.4-.32-.96.24-.56.56 2.32 2 4.16 4.08 5.04 7.12.24.48.96.24.8-.24" transform="translate(-112 -670) translate(0 570) translate(112 100) translate(0 .5)"/>
                        <g>
                            <path fill="#FFF" d="M10.302 7.198c-1.924 2.309-5.107 2.5-7.388 1.522-2.56-1.12-3.04-4.4-.48-6.64.45-.368.984-.715 1.622-1.02C5.416.41 7.002.356 8.406.897l.035.014" transform="translate(-112 -670) translate(0 570) translate(112 100) translate(0 .5) translate(26.4 36)"/>
                            <path stroke="#2A375D" stroke-linecap="round" stroke-width=".8" d="M10.302 7.198c-1.924 2.309-5.107 2.5-7.388 1.522-2.56-1.12-3.04-4.4-.48-6.64.45-.368.984-.715 1.622-1.02C5.416.41 7.002.356 8.406.897l.035.014" transform="translate(-112 -670) translate(0 570) translate(112 100) translate(0 .5) translate(26.4 36)"/>
                        </g>
                        <path stroke="#2A375D" stroke-linecap="round" stroke-width=".8" d="M36.702 43.198c-1.924 2.309-5.107 2.5-7.388 1.522-2.56-1.12-3.04-4.4-.48-6.64.45-.368.984-.715 1.622-1.02 1.36-.649 2.946-.704 4.35-.163l.035.014" transform="translate(-112 -670) translate(0 570) translate(112 100) translate(0 .5)"/>
                        <path fill="#030047" d="M34.434 39.76c-1.68-.8-3.76-.32-4.96 1.12-.32.4.24.96.56.56.96-1.2 2.56-1.68 4-.96.48.16.88-.56.4-.72" transform="translate(-112 -670) translate(0 570) translate(112 100) translate(0 .5)"/>
                    </g>
                </g>
            </g>
        </g>
    </g>
</svg>
