<svg xmlns="http://www.w3.org/2000/svg" width="138" height="77" viewBox="0 0 138 77">
    <g fill="none" fill-rule="evenodd">
        <g>
            <g>
                <path fill="#2B385C" d="M57.45 8.658c-27.5-5.3-45.3 1.3-54.1 6.3-4 2.3-4.5 7.8-1 10.7 5.3 4.5 14.5 10.2 28.1 12.1 23.6 3.3 37-3.8 40.4-12.8 3.5-8.9-6.9-15.1-13.4-16.3" transform="translate(-1107 -3560) translate(1107 3560)"/>
                <path fill="#2B385C" d="M53.25 34.458c-.9-2.4-.5-5.1 0-7.6.5-2.4 1.7-4.1.4-6.2-3.9-6.3-14.7-5.6-20.7-6.3-3.7-.4-10.8-2.2-14.8-5.3-6.4 1.7-11.4 3.9-14.9 5.9-3.9 2.3-4.4 7.7-.9 10.7 5.3 4.5 14.5 10.2 28.1 12.1 9.9 1.4 18 .9 24.3-.7-.6-.8-1.1-1.6-1.5-2.6" transform="translate(-1107 -3560) translate(1107 3560)"/>
                <path fill="#2D84FB" d="M103.75 34.858l-38.7 20.4c-2.6 1.4-2.4 5.1.3 6.2l28.9 13.7c.899.4 1.899.3 2.8-.1l38.3-19.5c2.5-1.3 2.5-4.9 0-6.1l-28.6-14.6c-.9-.6-2.101-.6-3 0" transform="translate(-1107 -3560) translate(1107 3560)"/>
                <path fill="#FFF" d="M90.95 58.358c-.3 0-.5-.1-.7-.4-.2-.4-.1-.8.3-1l8.1-4.5c.4-.2.8-.1 1 .3.2.4.1.8-.3 1l-8.1 4.5c-.1.1-.2.1-.3.1M88.821 54.042c-.3 0-.5-.1-.7-.4-.2-.4-.1-.8.3-1l8.1-4.5c.4-.2.8-.1 1 .3.2.4.1.8-.3 1l-8.1 4.5c0 .1-.2.1-.3.1" transform="translate(-1107 -3560) translate(1107 3560)"/>
                <path fill="#FFF" d="M103.55 40.058c-9.4 1.2-7.1 12.1-4.3 13 2.2.7 1.1-4.7 1.1-4.7l7.4-1.4-4.2-6.9z" transform="translate(-1107 -3560) translate(1107 3560)"/>
                <path stroke="#2B385C" d="M103.55 40.058c-9.4 1.2-7.1 12.1-4.3 13 2.2.7 1.1-4.7 1.1-4.7l7.4-1.4-4.2-6.9z" transform="translate(-1107 -3560) translate(1107 3560)"/>
                <path fill="#FFF" d="M105.85 54.358s-1.1 2.4-3.6 1c-3-1.7.9-8.4-2.4-15.6-2.6-5.8-10.8-11-19.5-11.8 2.4-2.3 3.9-5.8 4.7-9.7.4-1.8.4-3.5.2-5.2 26.9 2.4 34.5 18.5 34.9 27.6.6 9.4-10.6 15.9-14.3 13.7" transform="translate(-1107 -3560) translate(1107 3560)"/>
                <path stroke="#2B385C" d="M105.85 54.358s-1.1 2.4-3.6 1c-3-1.7.9-8.4-2.4-15.6-2.6-5.8-10.8-11-19.5-11.8 2.4-2.3 3.9-5.8 4.7-9.7.4-1.8.4-3.5.2-5.2 26.9 2.4 34.5 18.5 34.9 27.6.6 9.4-10.6 15.9-14.3 13.7z" transform="translate(-1107 -3560) translate(1107 3560)"/>
                <path fill="#2B385C" d="M99.85 39.758c-2.6-5.8-10.8-11-19.5-11.8 2.4-2.3 3.9-5.8 4.7-9.7.4-1.8.4-3.5.2-5.2 26.9 2.4 34.5 18.5 34.9 27.6" transform="translate(-1107 -3560) translate(1107 3560)"/>
                <path fill="#FFF" d="M92.85 63.677c-.3 0-.5-.1-.7-.4-.2-.4-.1-.8.3-1l8.1-4.5c.4-.2.8-.1 1 .3.2.4.1.8-.3 1l-8.1 4.5c-.1.1-.2.1-.3.1" transform="translate(-1107 -3560) translate(1107 3560)"/>
                <path fill="#FC5A5D" d="M101.15 58.158c-.4 0-.7-.3-.7-.7l-.7-23.8c0-.4.3-.8.7-.8.4 0 .8.3.8.7l.7 23.8c0 .4-.3.8-.8.8" transform="translate(-1107 -3560) translate(1107 3560)"/>
                <path fill="#2B385C" d="M101.505 43.773c-.1.6-.3 1.2-.4 1.8-.1.599.8.9 1 .3l.4-1.701c.1-.799-.9-1.099-1-.399M106.85 45.758c-.4 2.2-.8 4.4-1.1 6.6-.1.6.9.9 1 .3.4-2.2.8-4.4 1.1-6.6.1-.7-.9-.9-1-.3M111.85 46.458c-.1 2.3-.4 4.3-1.9 6.2-.4.5.3 1.2.7.7 1.7-2.1 2.1-4.3 2.2-6.9.1-.6-.9-.6-1 0" transform="translate(-1107 -3560) translate(1107 3560)"/>
                <g>
                    <path fill="#FFF" d="M1.65.134c-1.2 5.5-.99 8.987.6 9.9" transform="translate(-1107 -3560) translate(1107 3560) translate(100 45.323)"/>
                    <path stroke="#2B385C" stroke-linecap="round" d="M1.65.134c-1.2 5.5-.99 8.987.6 9.9" transform="translate(-1107 -3560) translate(1107 3560) translate(100 45.323)"/>
                </g>
                <path fill="#2B385C" d="M23.45 19.758c-9.8 4.7-9.8 11.5-5.9 14.3 3.9 2.8 26.4 4.9 31.4-1.9 5-6.8 1.9-13.4-7.8-15.1-3.7-.7-12.6.2-17.7 2.7" transform="translate(-1107 -3560) translate(1107 3560)"/>
                <path fill="#FFF" d="M33.95 18.858c-1.9-.7-4-.5-5.6.7-26.9 19.1-15.6 52.3 25.9 56.2 7.6.7 12.5-4.5 16.7-2.1 2.3 1.3 6-1.5 7.4-.6 4.6 2.8 5.7-1.9 5.7-1.9.8.2 3.1-2.2 1.9-4.1 0 0 2.4-1.7-.1-4.8-5.1-6.4-20.2-7.8-28.1-9.5-7.9-1.7-24.6-3.6-17.6-14.5.1-.1.1-.2.2-.3 4.4-6.9.6-13.4-7.1-16.3l.7-2.8z" transform="translate(-1107 -3560) translate(1107 3560)"/>
                <path stroke="#2B385C" d="M33.95 18.858c-1.9-.7-4-.5-5.6.7-26.9 19.1-15.6 52.3 25.9 56.2 7.6.7 12.5-4.5 16.7-2.1 2.3 1.3 6-1.5 7.4-.6 4.6 2.8 5.7-1.9 5.7-1.9.8.2 3.1-2.2 1.9-4.1 0 0 2.4-1.7-.1-4.8-5.1-6.4-20.2-7.8-28.1-9.5-7.9-1.7-24.6-3.6-17.6-14.5.1-.1.1-.2.2-.3 4.4-6.9.6-13.4-7.1-16.3l.7-2.8z" transform="translate(-1107 -3560) translate(1107 3560)"/>
                <path fill="#2B385C" d="M69.67 55.011c-4.392-.934-8.74-1.569-11.92-2.253-7.9-1.7-24.6-3.6-17.6-14.5.1-.1.1-.2.2-.3 4.4-6.9.6-13.4-7.1-16.3l.7-2.8c-1.9-.7-4-.5-5.6.7-26.9 19.1-15.6 52.3 25.9 56.2 5.284.486 9.263-1.879 12.609-2.56" transform="translate(-1107 -3560) translate(1107 3560)"/>
                <path fill="#030047" d="M83.05 70.558c-1.7-2.1-4.4-3.3-7.1-3-.6.1-.6 1.1 0 1 2.5-.2 4.8.8 6.4 2.7.4.5 1.1-.2.7-.7M85.05 65.358c-1.6-1.8-3.9-2.9-6.4-3-.6 0-.6 1 0 1 2.2.1 4.2 1 5.7 2.7.4.5 1.1-.2.7-.7" transform="translate(-1107 -3560) translate(1107 3560)"/>
                <path fill="#FFF" d="M17.95 31.058c-.1 0-.3 0-.4-.1-.4-.2-.5-.7-.3-1 .1-.2 3.3-5.8 8.7-9.5.3-.2.8-.1 1 .2.2.3.1.8-.2 1-5.1 3.5-8.2 8.9-8.2 9 0 .2-.3.4-.6.4M41.65 35.758c-.1 0-.3 0-.4-.1-.3-.2-.4-.7-.2-1l3.5-5.2c.2-.3.7-.4 1-.2.3.2.4.7.2 1l-3.5 5.2c-.1.2-.3.3-.6.3M83.65 17.558c-.8 3.9-2.3 7.4-4.7 9.7-2.5 2.4-6.1 3.3-11 1.8-6.6-2-11.4-9-9.7-16.8 1.6-7.8 8.7-13 15.7-11.5.2 0 .5.1.7.2.4.1.8.2 1.2.4 4.3 1.7 7.3 5.8 7.9 10.7 0 .1.1.3.1.4.2 1.6.2 3.4-.2 5.1" transform="translate(-1107 -3560) translate(1107 3560)"/>
                <path stroke="#2B385C" d="M83.65 17.558c-.8 3.9-2.3 7.4-4.7 9.7-2.5 2.4-6.1 3.3-11 1.8-6.6-2-11.4-9-9.7-16.8 1.6-7.8 8.7-13 15.7-11.5.2 0 .5.1.7.2.4.1.8.2 1.2.4 4.3 1.7 7.3 5.8 7.9 10.7 0 .1.1.3.1.4.2 1.6.2 3.4-.2 5.1z" transform="translate(-1107 -3560) translate(1107 3560)"/>
                <path fill="#2D3A5F" d="M83.85 11.958c-7.338 3.188-19.1 2.7-25.6.3 1.6-7.8 8.7-13 15.7-11.5.2 0 .5.1.7.2.4.1.8.2 1.2.4.874.346 3.903 2.215 5.896 3.82 1.104.89 2.029.741 2.933.97 1.734.435 2.694-.426 3.737 1.326 1.064 1.785-3.738 4.06-4.566 4.484" transform="translate(-1107 -3560) translate(1107 3560)"/>
                <path fill="#030047" d="M73.584 15.956c.454-.314 1.077-.202 1.392.252.314.455.201 1.078-.253 1.392-.454.314-1.077.2-1.391-.253-.314-.454-.202-1.077.252-1.391" transform="translate(-1107 -3560) translate(1107 3560)"/>
                <path fill="#FFF" d="M61.15 13.158c-7.6-3.2-11.8 2.1-9.5 6.1 1.9 3.2 6.5 5.7 11.1 2.8 4.5-3-1.6-8.9-1.6-8.9" transform="translate(-1107 -3560) translate(1107 3560)"/>
                <path fill="#030047" d="M60.45 17.958c-1.1-2.1-3.5-3.1-5.8-2.5-.6.2-.4 1.2.2 1 1.8-.5 3.8.2 4.7 1.9.3.6 1.2.2.9-.4M78.05 24.258c.9-2 1.6-4.2 1.9-6.4.1-.6-.9-.8-1-.2-.3 2.1-.9 4.2-1.8 6.1-.3.7.6 1.1.9.5" transform="translate(-1107 -3560) translate(1107 3560)"/>
            </g>
        </g>
    </g>
</svg>
