<svg width="160" height="134" viewBox="0 0 160 134" fill="none" xmlns="http://www.w3.org/2000/svg">
<mask id="mask0_747_23164" style="mask-type:alpha" maskUnits="userSpaceOnUse" x="0" y="0" width="160" height="134">
<rect width="160" height="134" fill="#C4C4C4"/>
</mask>
<g mask="url(#mask0_747_23164)">
<path d="M32.8887 96.271L37.6445 101.623" stroke="#2A375D" stroke-width="1.5" stroke-linecap="round"/>
<path d="M60.7207 96.2405L56.0346 101.654" stroke="#2A375D" stroke-width="1.5" stroke-linecap="round"/>
<path d="M47.1113 91.4041V98.5034" stroke="#2A375D" stroke-width="1.5" stroke-linecap="round"/>
<path d="M82.3994 86.4948L121.244 83.2114L119.022 115.158L85.2439 117.377L82.3994 86.4948Z" fill="white"/>
<path d="M120.533 84.0101L118.311 114.537L85.7773 116.667L83.0218 87.116L120.533 84.0101ZM121.955 82.5015L81.6885 85.9624L84.6218 118.087L119.555 115.78L121.955 82.5015Z" fill="#2A375D"/>
<path d="M97.244 110.367C96.8884 110.367 96.6217 110.1 96.6217 109.745L95.4662 100.694L91.3773 99.3625C91.0217 99.2738 90.8439 98.8301 90.9328 98.5639C91.0217 98.2977 91.4662 98.0314 91.7328 98.1202L96.5329 99.7175L97.7773 109.568C97.955 110.012 97.6884 110.367 97.244 110.367C97.3328 110.367 97.3328 110.367 97.244 110.367Z" fill="#2A375D"/>
<path d="M32.2662 72.7397L23.644 108.236L1.86621 121.725L12.7995 82.2351L13.7773 81.7914L19.2884 79.0404L20.2662 78.5967L32.2662 72.7397Z" fill="#D2E6FF"/>
<path d="M80.2661 30.4993C85.955 28.7245 102.577 24.3762 116.711 47.9814C130.933 71.5867 121.955 91.9086 121.955 91.9086L79.3772 89.7788C79.3772 89.7788 78.0439 65.8185 74.2217 50.4662C73.4217 47.094 71.1995 33.3391 80.2661 30.4993Z" fill="#2A375D"/>
<path d="M14.3984 80.7267C14.0429 75.0473 16.1762 65.7294 23.6429 56.5002C28.5318 59.0738 33.2429 62.0023 37.2429 64.5758C34.3096 67.593 32.5318 70.5214 31.7318 72.2963L14.3984 80.7267Z" fill="white"/>
<path d="M23.8209 57.2989C28.2653 59.6949 32.532 62.2684 36.2653 64.6645C33.6875 67.4155 32.0875 70.0777 31.2875 71.7638L15.0209 79.7505C14.932 74.2486 17.1542 65.8181 23.8209 57.2989ZM23.4653 55.6128C15.4653 65.3744 13.0653 75.4909 13.8653 81.7916L32.3542 72.7399C33.1542 70.9651 35.0209 67.6817 38.3987 64.487C33.4209 61.2923 28.532 58.275 23.4653 55.6128Z" fill="#2A375D"/>
<path d="M28.0877 47.626C24.5321 51.0869 19.2877 57.1213 17.0654 62.1796C22.3099 64.3094 32.621 68.3915 37.7765 70.6988C39.6432 68.1253 47.7321 60.9372 51.821 58.5412C64.9765 50.8207 81.2432 46.916 81.2432 46.916L83.2877 28.9015C65.1543 27.3041 43.4655 32.7174 28.0877 47.626Z" fill="#2A375D"/>
<path d="M74.0427 47.8033C73.6871 47.8033 73.4205 47.5371 73.4205 47.1821L72.7983 42.0351C72.7094 41.6802 72.9761 41.3252 73.4205 41.3252C73.7761 41.3252 74.1316 41.5027 74.1316 41.9464L74.7538 47.0934C74.7538 47.4484 74.4871 47.7146 74.0427 47.8033Z" fill="white"/>
<path d="M21.7764 73.8942C27.4653 70.6108 27.1097 79.0412 27.1097 79.0412C27.1097 79.0412 24.6208 84.5432 28.1764 85.3419C30.3986 85.8743 35.6431 74.6929 31.6431 68.6584" fill="white"/>
<path d="M28.4432 86.051C28.3543 86.051 28.2654 86.051 28.0876 86.051C27.1099 85.7848 26.3987 85.2523 26.0432 84.4536C25.0654 82.5013 26.2209 79.5728 26.4876 78.9516C26.4876 77.798 26.3099 74.8695 24.9765 74.0708C24.3543 73.7159 23.3765 73.8046 22.1321 74.5146C21.7765 74.692 21.421 74.6033 21.2432 74.2483C21.0654 73.8934 21.1543 73.5384 21.5098 73.3609C23.1987 72.3848 24.5321 72.296 25.6876 72.9172C27.9987 74.3371 27.9099 78.5967 27.9099 79.1291V79.2179L27.8209 79.3066C27.4654 80.1053 26.6654 82.5013 27.2876 83.8324C27.4654 84.2761 27.9098 84.5424 28.4432 84.7199C28.5321 84.7199 29.2432 84.4537 30.1321 82.8563C32.1765 79.4841 33.7765 73.006 31.1988 69.1013C31.021 68.8351 31.1098 68.3914 31.3765 68.2139C31.6432 68.0364 32.0876 68.1252 32.2654 68.3914C35.6432 73.3609 32.9765 81.1702 30.8432 84.2761C29.9543 85.5185 29.1543 86.051 28.4432 86.051Z" fill="#2A375D"/>
<path d="M119.644 115.779L131.644 108.148H28.444H23.2884L1.86621 121.725H56.044H110.222L119.644 115.779Z" fill="#2A375D"/>
<path d="M119.645 115.779L131.645 108.148H28.4446H23.2891V121.725H56.0446H110.222L119.645 115.779Z" fill="#2A375D"/>
<path d="M110.133 121.725H1.86621V209.491H110.133V121.725Z" fill="#D2E6FF"/>
<path d="M131.644 130.007L110.133 143.584V121.725L131.644 108.148V130.007Z" fill="#D2E6FF"/>
<path d="M139.823 73.8047L118.4 87.4709L110.134 121.903L131.645 108.236L139.823 73.8047Z" fill="#D2E6FF"/>
<path d="M112.622 120.838C112.444 120.838 112.177 120.749 112.089 120.572C111.911 120.305 112 119.862 112.266 119.684L128.8 109.213C129.066 109.035 129.511 109.124 129.689 109.39C129.866 109.656 129.777 110.1 129.511 110.278L112.977 120.749C112.8 120.838 112.711 120.838 112.622 120.838Z" fill="white"/>
<path d="M91.5547 28.4576C117.155 27.3927 140.977 34.6695 149.244 44.9636C158.31 56.2338 153.688 78.4192 142.577 84.1874C139.821 85.6073 136.71 85.9623 135.021 86.761C129.866 89.157 128.71 88.8907 127.021 87.5596C127.021 87.5596 122.755 90.2218 121.51 86.9384C121.51 86.9384 119.91 91.1093 116.888 90.0444C113.866 88.9795 117.51 80.7265 125.599 76.4669C133.777 72.2073 137.866 61.5583 133.332 55.1689C128.799 48.7795 100.71 40.9702 100.71 40.9702L91.5547 28.4576Z" fill="white"/>
<path d="M117.955 90.9319C117.599 90.9319 117.244 90.8432 116.799 90.7544C115.911 90.4882 115.377 89.6895 115.288 88.6246C115.022 85.2524 119.111 79.218 125.422 75.9345C129.777 73.6273 133.155 69.2789 134.311 64.5756C135.111 61.2034 134.577 58.0087 132.888 55.6127C128.444 49.4895 100.977 41.7689 100.622 41.6802L100.444 41.5915L90.3105 27.8365L91.555 27.7478C116.711 26.6829 141.155 33.7822 149.866 44.52C154.311 50.1107 155.911 58.7186 154.044 67.5928C152.355 75.5796 148.266 81.9689 143.022 84.7199C141.333 85.6074 139.555 86.0511 138.044 86.4948C136.977 86.761 136.088 87.0272 135.466 87.2935C130.577 89.6008 128.977 89.6007 127.111 88.2696C126.311 88.7133 124.444 89.512 122.933 88.9796C122.488 88.8021 122.044 88.5359 121.777 88.1809C120.888 89.6008 119.644 90.9319 117.955 90.9319ZM101.244 40.4379C104.088 41.2365 129.511 48.6021 133.955 54.814C135.911 57.4763 136.444 61.0259 135.555 64.8418C134.399 69.9001 130.666 74.6034 125.955 77.0882C119.822 80.2829 116.355 85.8736 116.533 88.5359C116.622 89.3345 116.977 89.4233 117.155 89.512C119.466 90.3107 120.888 86.8498 120.888 86.761L121.511 85.1636L122.133 86.761C122.311 87.3822 122.666 87.7372 123.199 87.8259C124.355 88.1809 126.133 87.3822 126.666 87.0273L127.111 86.761L127.466 87.0273C128.799 88.0922 129.688 88.5359 134.755 86.1398C135.555 85.7849 136.444 85.5186 137.511 85.2524C139.022 84.8087 140.711 84.365 142.222 83.5663C147.111 80.9928 151.022 74.9584 152.622 67.4153C154.399 58.8961 152.977 50.7319 148.711 45.4074C140.444 35.1133 117.066 28.369 92.7994 29.0789L101.244 40.4379Z" fill="#2A375D"/>
<path d="M133.51 55.2576C135.999 58.6298 135.91 63.3331 134.132 67.504C139.91 69.6338 148.621 71.6748 154.221 74.2483C158.577 65.1079 158.666 51.7079 151.821 44.5199C138.488 30.7649 117.332 27.3927 91.7324 28.4576L103.821 49.3119C103.732 49.3119 128.888 48.8682 133.51 55.2576Z" fill="#2A375D"/>
<path d="M126.844 79.5728C124.533 81.1702 122.666 83.2112 121.422 85.696C121.155 86.2285 121.955 86.6722 122.222 86.1397C123.466 83.7437 125.155 81.7914 127.377 80.3715C127.733 80.0165 127.288 79.2178 126.844 79.5728Z" fill="#2A375D"/>
<path d="M131.821 81.0816C129.955 82.4127 128.532 84.0988 127.466 86.1399C127.199 86.6723 127.999 87.116 128.266 86.5836C129.244 84.72 130.577 83.1227 132.266 81.8803C132.71 81.5253 132.266 80.7266 131.821 81.0816Z" fill="#2A375D"/>
<path d="M116.178 50.6433C116.089 50.6433 116.089 50.6433 116 50.6433L112.356 49.4896C112 49.4009 111.822 49.0459 111.911 48.6909C112 48.336 112.356 48.1585 112.711 48.2472L116.356 49.4009C116.711 49.4896 116.889 49.8446 116.8 50.1996C116.711 50.4658 116.445 50.6433 116.178 50.6433Z" fill="#2A375D"/>
<path d="M94.934 16.6551C94.6674 16.0339 94.3119 15.4126 93.8674 14.7914C93.8674 14.7914 93.8674 14.7915 93.8674 14.7027C89.7785 8.84577 82.3118 7.07094 77.0674 10.7093C74.5785 12.4842 73.1563 15.2352 72.8007 18.2524C72.3563 21.5358 73.6007 24.908 74.934 27.8365C77.9563 34.5809 84.8007 37.5981 91.7341 31.8299C93.2452 30.5875 94.4008 28.9901 95.2008 27.1266C97.8674 26.5941 99.4674 24.6418 99.7341 22.2458C100.001 19.4948 97.9563 16.3888 94.934 16.6551Z" fill="white"/>
<path d="M84.2666 35.5571C83.5555 35.5571 82.8444 35.4683 82.1333 35.2909C78.8444 34.4922 75.911 31.9186 74.2221 28.1028C72.9777 25.3518 71.5555 21.7133 72.0888 18.1637C72.5333 14.7027 74.1333 11.863 76.6222 10.1769C79.111 8.49082 82.2221 7.78089 85.3333 8.40208C88.8888 9.02327 92.1777 11.2418 94.3999 14.3478C94.7555 14.8802 95.111 15.4127 95.3777 16.0339C96.6221 16.0339 97.7777 16.5664 98.7555 17.5425C100 18.7849 100.622 20.6485 100.356 22.4233C99.9999 25.1743 98.2222 27.2153 95.6444 27.8365C94.8444 29.6114 93.6 31.2087 92.0888 32.4511C89.5111 34.4922 86.8444 35.5571 84.2666 35.5571ZM83.111 9.46699C81.0666 9.46699 79.0221 10.0882 77.3333 11.2418C75.111 12.7504 73.7777 15.2352 73.3333 18.3412C72.8888 21.5359 74.1332 24.8193 75.3777 27.5703C76.8888 30.9425 79.4666 33.3385 82.3999 34.0485C85.2444 34.6697 88.2666 33.7822 91.2 31.3862C92.6222 30.2326 93.7777 28.724 94.4888 26.9491L94.6666 26.5941L95.0222 26.5054C97.2444 26.0617 98.7555 24.4643 99.0222 22.157C99.1999 20.8259 98.6666 19.3173 97.7777 18.3412C97.2444 17.8087 96.3555 17.1875 95.0222 17.2763H94.5777L94.3999 16.8325C94.0444 16.1226 93.7777 15.5902 93.4222 15.0577C91.3777 12.1292 88.4444 10.177 85.1555 9.55577C84.4444 9.55577 83.7333 9.46699 83.111 9.46699Z" fill="#2A375D"/>
<path d="M83.129 23.1531C83.3933 22.7401 83.2723 22.1914 82.8587 21.9275C82.445 21.6635 81.8954 21.7844 81.631 22.1973C81.3666 22.6103 81.4877 23.159 81.9013 23.4229C82.315 23.6869 82.8646 23.566 83.129 23.1531Z" fill="#2A375D"/>
<path d="M79.2001 29.4339C78.3112 27.6591 77.689 25.7955 77.2445 23.8432C77.1556 23.3108 78.0445 23.1333 78.1334 23.6657C78.489 25.5293 79.1112 27.3042 80.0001 29.079C80.2667 29.5227 79.4668 29.9664 79.2001 29.4339Z" fill="#2A375D"/>
<path d="M92.266 23.0444C92.4438 21.0033 94.0438 19.2285 96.1771 18.9623C96.7105 18.8735 96.9771 19.761 96.3549 19.8497C94.666 20.0272 93.3327 21.3583 93.1549 23.0444C93.066 23.6656 92.1771 23.6656 92.266 23.0444Z" fill="#2A375D"/>
<path d="M91.3775 19.051C90.7553 21.2696 87.9108 18.2524 82.4886 17.1875C80.0886 16.7438 69.8664 20.2934 68.2664 16.8325C65.8664 11.7742 72.622 8.84576 76.9776 10.7093C76.5331 8.84576 78.6664 6.09473 81.5109 7.5146C89.1553 3.6987 96.0887 8.66826 95.1998 17.1875C95.1998 17.1875 92.0886 18.3411 91.3775 19.051Z" fill="#2A375D"/>
</g>
</svg>
