<svg xmlns="http://www.w3.org/2000/svg" xmlns:xlink="http://www.w3.org/1999/xlink" width="24" height="24" viewBox="0 0 24 24">
    <defs>
        <path id="namw0li8ua" d="M10.5 3c4.142 0 7.5 3.358 7.5 7.5 0 1.891-.7 3.619-1.855 4.938l4.83 4.83c.195.195.195.512 0 .707-.195.195-.512.195-.707 0l-4.83-4.83C14.118 17.3 12.39 18 10.5 18 6.358 18 3 14.642 3 10.5 3 6.358 6.358 3 10.5 3zm0 1C6.91 4 4 6.91 4 10.5S6.91 17 10.5 17s6.5-2.91 6.5-6.5S14.09 4 10.5 4z"/>
    </defs>
    <g fill="none" fill-rule="evenodd">
        <g>
            <mask id="ucuzgkazgb" fill="#fff">
                <use xlink:href="#namw0li8ua"/>
            </mask>
            <use fill="#464646" xlink:href="#namw0li8ua"/>
        </g>
    </g>
</svg>
