<svg xmlns="http://www.w3.org/2000/svg" xmlns:xlink="http://www.w3.org/1999/xlink" width="56" height="56" viewBox="0 0 56 56">
    <defs>
        <linearGradient id="jer7wzby4c" x1="109.534%" x2="2.661%" y1="47.823%" y2="50%">
            <stop offset="0%" stop-color="#0080FF"/>
            <stop offset="100%" stop-color="#FFF" stop-opacity="0"/>
        </linearGradient>
        <rect id="gf7riwlq3a" width="56" height="56" x="0" y="0" rx="5"/>
    </defs>
    <g fill="none" fill-rule="evenodd">
        <g>
            <g transform="translate(-8 -700) translate(8 700)">
                <mask id="dpx37ul2qb" fill="#fff">
                    <use xlink:href="#gf7riwlq3a"/>
                </mask>
                <use fill="#D3E6FF" xlink:href="#gf7riwlq3a"/>
                <g mask="url(#dpx37ul2qb)">
                    <g>
                        <path fill="url(#jer7wzby4c)" d="M41.079 46.505c1.854 0 4.535-.22 8.04-.66L49.144.459c-3.581-.44-6.27-.66-8.064-.66-20.646 0-37.383 10.456-37.383 23.354S20.433 46.505 41.08 46.505z" transform="translate(7 16) rotate(90 26.42 23.152)"/>
                        <g>
                            <path fill="#FBFBFC" d="M1.157 0C.52 0 0 .52 0 1.157v19.026c0 .636.52 1.157 1.157 1.157h39.327c.636 0 1.157-.52 1.157-1.157V1.157C41.641.52 41.121 0 40.484 0H1.157z" transform="translate(7 16) translate(0 21.156)"/>
                            <path fill="#B8BCC1" d="M3 5.266L39 5.266 39 4.922 3 4.922zM3 10.266L39 10.266 39 9.922 3 9.922zM3 15.266L39 15.266 39 14.922 3 14.922z" transform="translate(7 16) translate(0 21.156)"/>
                            <g>
                                <path fill="#333" d="M0 18.677L8.73 2.697 12.602 0 11.983 4.679 4.326 18.696z" transform="translate(7 16) translate(0 21.156) scale(-1 1) rotate(-6 46.874 363.658)"/>
                                <path fill="#282828" d="M4.326 18.696L11.983 4.679 11.995 4.59 10.938 4.365 3.113 18.691z" transform="translate(7 16) translate(0 21.156) scale(-1 1) rotate(-6 46.874 363.658)"/>
                                <path fill="#2D2D2D" d="M3.113 18.691L10.938 4.365 9.462 3.523 1.168 18.682z" transform="translate(7 16) translate(0 21.156) scale(-1 1) rotate(-6 46.874 363.658)"/>
                                <path fill="#353535" d="M12.602 0L8.73 2.697c.742 1.062 1.908 1.804 3.254 1.98L12.602 0z" transform="translate(7 16) translate(0 21.156) scale(-1 1) rotate(-6 46.874 363.658)"/>
                                <path fill="#FF5859" d="M12.223 2.864L12.603 0 10.23 1.651c.454.65 1.169 1.105 1.992 1.213" transform="translate(7 16) translate(0 21.156) scale(-1 1) rotate(-6 46.874 363.658)"/>
                            </g>
                            <path fill="#333" d="M4.223 3.833c.062 0 .111-.031.15-.094.037-.062.056-.159.056-.289 0-.085-.009-.155-.026-.21-.018-.056-.042-.097-.072-.124-.03-.027-.067-.041-.108-.041-.06 0-.11.03-.148.092-.037.062-.056.156-.057.283 0 .087.009.158.026.215.017.057.04.099.072.127.03.027.067.041.107.041m0 .233c-.102 0-.191-.024-.265-.073-.075-.049-.132-.12-.172-.211-.04-.092-.06-.202-.06-.332 0-.129.02-.238.06-.329.04-.09.098-.159.172-.206.074-.048.163-.071.265-.071.103 0 .192.023.266.07.075.048.132.117.172.207.04.09.06.2.06.33 0 .129-.02.24-.06.332-.04.092-.098.162-.172.21-.074.049-.163.073-.266.073M5.429 2.86L5.429 4.037 5.145 4.037 5.145 3.126 5.138 3.126 4.875 3.287 4.875 3.04 5.165 2.86zM4.223 8.713c.062 0 .111-.032.15-.094.037-.063.056-.16.056-.29 0-.084-.009-.155-.026-.21-.018-.055-.042-.097-.072-.124-.03-.027-.067-.04-.108-.04-.06 0-.11.03-.148.091-.037.062-.056.156-.057.284 0 .086.009.158.026.214.017.057.04.1.072.127.03.028.067.042.107.042m0 .233c-.102 0-.191-.025-.265-.074-.075-.049-.132-.119-.172-.21-.04-.093-.06-.203-.06-.332 0-.13.02-.24.06-.33.04-.09.098-.159.172-.206.074-.047.163-.07.265-.07.103 0 .192.023.266.07.075.047.132.116.172.207.04.09.06.2.06.329 0 .13-.02.24-.06.332-.04.092-.098.162-.172.21-.074.05-.163.074-.266.074M4.885 8.917v-.205l.43-.376c.031-.03.059-.056.081-.08.023-.025.04-.05.052-.074.012-.024.018-.052.018-.08 0-.033-.007-.061-.022-.084-.014-.023-.033-.041-.058-.054-.025-.013-.054-.019-.086-.019-.032 0-.061.007-.085.02-.025.013-.044.032-.058.057-.013.025-.02.055-.02.09h-.27c0-.08.018-.148.054-.207.036-.058.087-.103.152-.134.066-.032.142-.048.228-.048.09 0 .168.015.233.045.066.03.117.071.153.125.037.053.055.115.055.186 0 .045-.01.09-.027.133-.018.044-.05.093-.097.146-.047.054-.113.118-.198.192l-.141.13v.007h.477v.23h-.871zM4.223 13.966c.062 0 .111-.032.15-.094.037-.063.056-.16.056-.29 0-.084-.009-.154-.026-.21-.018-.055-.042-.096-.072-.124-.03-.027-.067-.04-.108-.04-.06 0-.11.03-.148.092-.037.061-.056.156-.057.283 0 .086.009.158.026.214.017.057.04.1.072.127.03.028.067.042.107.042m0 .233c-.102 0-.191-.025-.265-.073-.075-.05-.132-.12-.172-.212-.04-.091-.06-.202-.06-.331 0-.13.02-.24.06-.33.04-.09.098-.158.172-.206.074-.047.163-.07.265-.07.103 0 .192.023.266.07.075.048.132.116.172.207.04.09.06.2.06.329 0 .13-.02.24-.06.332-.04.092-.098.162-.172.211-.074.049-.163.073-.266.073M5.332 14.186c-.09 0-.169-.015-.238-.046-.069-.031-.124-.074-.164-.128-.04-.055-.06-.117-.06-.188h.286c.001.026.01.048.025.068.015.02.036.035.062.046.027.011.057.017.09.017.034 0 .064-.006.09-.018.026-.012.046-.029.06-.05.015-.021.022-.046.022-.074 0-.027-.008-.052-.024-.073-.016-.021-.039-.038-.068-.05-.029-.012-.064-.018-.104-.018h-.114v-.202h.114c.035 0 .066-.006.093-.018.026-.011.047-.027.062-.048s.022-.045.022-.072c0-.027-.006-.05-.019-.07-.012-.02-.03-.036-.053-.047-.023-.011-.05-.017-.08-.017s-.06.006-.085.017c-.025.011-.045.027-.06.047s-.023.044-.024.07h-.272c0-.07.02-.131.059-.185.038-.053.09-.095.156-.125.067-.03.142-.046.227-.046.084 0 .158.015.222.045.064.029.114.07.15.12.035.05.053.108.053.172 0 .067-.02.121-.065.164-.043.043-.099.07-.167.08v.009c.091.01.16.04.207.088.046.049.07.109.069.181 0 .069-.02.129-.06.182-.04.053-.096.094-.167.124-.071.03-.153.045-.245.045" transform="translate(7 16) translate(0 21.156)"/>
                        </g>
                    </g>
                </g>
                <text font-weight="700" font-size="10" font-weight="bold" mask="url(#dpx37ul2qb)">
                    <tspan x="11.955" y="18" fill="#FE5859">PR기사</tspan>  <tspan x="9.5" y="31" fill="#2A375D">배포하기</tspan>
                </text>
            </g>
        </g>
    </g>
</svg>
