<svg xmlns="http://www.w3.org/2000/svg" xmlns:xlink="http://www.w3.org/1999/xlink" width="120" height="56" viewBox="0 0 120 56">
    <defs>
        <rect id="dlpls56iha" width="120" height="56" x="0" y="0" rx="5"/>
    </defs>
    <g fill="none" fill-rule="evenodd">
        <g>
            <g transform="translate(-144 -585) translate(144 585)">
                <mask id="p567ck145b" fill="#fff">
                    <use xlink:href="#dlpls56iha"/>
                </mask>
                <use fill="#2A375D" xlink:href="#dlpls56iha"/>
                <path fill="#D3E6FF" d="M97.5 19c9.113 0 16.5 5.515 16.5 12.318s-7.387 12.318-16.5 12.318c-2.661 0-5.175-.47-7.4-1.305l-5.017 1.618c-.229.074-.476.063-.698-.03-.508-.217-.745-.804-.53-1.312l1.317-3.101C82.577 37.329 81 34.46 81 31.318 81 24.515 88.387 19 97.5 19z" mask="url(#p567ck145b)" opacity=".597" transform="matrix(-1 0 0 1 195 0)"/>
                <g mask="url(#p567ck145b)">
                    <g transform="translate(67 12)">
                        <path fill="#FEFEFE" d="M16.5 0C25.613 0 33 5.515 33 12.318s-7.387 12.318-16.5 12.318c-2.661 0-5.175-.47-7.4-1.305l-5.017 1.618c-.229.074-.476.063-.698-.03-.508-.217-.745-.804-.53-1.312l1.317-3.101C1.577 18.329 0 15.46 0 12.318 0 5.515 7.387 0 16.5 0z"/>
                        <circle cx="16.5" cy="12.5" r="1.5" fill="#7CB3FF"/>
                        <circle cx="9.5" cy="12.5" r="1.5" fill="#7CB3FF"/>
                        <circle cx="23.5" cy="12.5" r="1.5" fill="#7CB3FF"/>
                    </g>
                </g>
                <text fill="#FEFEFE" font-weight="700" font-size="12" font-weight="bold" mask="url(#p567ck145b)">
                    <tspan x="12" y="26">무엇이든</tspan> <tspan x="12" y="42">말해주세요</tspan>
                </text>
            </g>
        </g>
    </g>
</svg>
