<svg xmlns="http://www.w3.org/2000/svg" xmlns:xlink="http://www.w3.org/1999/xlink" width="192" height="56" viewBox="0 0 192 56">
    <defs>
        <linearGradient id="en4ekkpavc" x1="92.848%" x2="7.109%" y1="46.237%" y2="58.697%">
            <stop offset="0%" stop-color="#2581FF"/>
            <stop offset="99.693%" stop-color="#FEFFFF" stop-opacity=".003"/>
            <stop offset="100%" stop-color="#FFF" stop-opacity="0"/>
        </linearGradient>
        <linearGradient id="s89x9irfeh" x1="0%" x2="100%" y1="50%" y2="50%">
            <stop offset="0%" stop-color="#BABABA" stop-opacity=".559"/>
            <stop offset="100%" stop-color="#989898"/>
        </linearGradient>
        <linearGradient id="yyu8e756lk" x1="50%" x2="50%" y1="153.795%" y2=".576%">
            <stop offset="0%" stop-color="#FFF"/>
            <stop offset="100%" stop-color="#8CA8F9"/>
        </linearGradient>
        <linearGradient id="d4b8uzelnl" x1="97.627%" x2="0%" y1="50%" y2="50%">
            <stop offset="0%" stop-opacity=".264"/>
            <stop offset="100%" stop-color="#BDBDBD" stop-opacity=".062"/>
        </linearGradient>
        <linearGradient id="6x2388i68n" x1="0%" x2="100%" y1="50%" y2="50%">
            <stop offset="0%" stop-color="#FFF"/>
            <stop offset="100%" stop-color="#F4F4F6"/>
        </linearGradient>
        <path id="2wboesggmd" d="M0 61.697L93.216 61.697 93.216 0 0 0z"/>
        <path id="zbz0e48b0f" d="M15.553 0.16L7.788 5.672 0.023 0.16z"/>
        <path id="lo61d4pali" d="M18.807 0.109L9.448 6.754 0.089 0.109z"/>
        <path id="p2phxkyrqm" d="M1.498.182c-.814 0-1.48.666-1.48 1.48v24.354c0 .814.666 1.48 1.48 1.48h50.34c.814 0 1.48-.666 1.48-1.48V1.662c0-.814-.666-1.48-1.48-1.48H1.498z"/>
        <rect id="sz9lj3b2da" width="192" height="56" x="0" y="0" rx="5"/>
    </defs>
    <g fill="none" fill-rule="evenodd">
        <g>
            <g transform="translate(-12 -700) translate(12 700)">
                <mask id="wsg322j33b" fill="#fff">
                    <use xlink:href="#sz9lj3b2da"/>
                </mask>
                <use fill="#D3E6FF" xlink:href="#sz9lj3b2da"/>
                <g mask="url(#wsg322j33b)">
                    <g>
                        <path fill="url(#en4ekkpavc)" d="M87.58 62.527c2.375 0 5.805-.282 10.293-.844l.03-58.097c-4.584-.563-8.025-.844-10.322-.844-26.427 0-47.85 13.383-47.85 29.892 0 16.51 21.423 29.893 47.85 29.893z" transform="translate(89 4) rotate(90 68.817 32.634)"/>
                        <g transform="translate(89 4)">
                            <path fill="#EDEDED" d="M55.767 42.161c0 .767-.627 1.394-1.394 1.394H16.201c-.767 0-1.395-.627-1.395-1.394V17.635c0-.767.628-1.394 1.395-1.394h38.172c.767 0 1.394.627 1.394 1.394V42.16z"/>
                            <mask id="hs5ebsnnle" fill="#fff">
                                <use xlink:href="#2wboesggmd"/>
                            </mask>
                            <path fill="#EAEAEA" d="M67.55 14.483L83.08 14.483 83.08 5.297 67.55 5.297z" mask="url(#hs5ebsnnle)"/>
                            <path fill="#F4F5F7" d="M75.315 8.741L67.549 14.483 83.08 14.483z" mask="url(#hs5ebsnnle)"/>
                            <g mask="url(#hs5ebsnnle)">
                                <g transform="translate(67.527 5.138)">
                                    <mask id="jdlbat47zg" fill="#fff">
                                        <use xlink:href="#zbz0e48b0f"/>
                                    </mask>
                                    <path d="M7.788 5.672L15.553 0.16 0.023 0.16z" mask="url(#jdlbat47zg)"/>
                                </g>
                            </g>
                            <path fill="#FFF" d="M75.315 10.512L83.08 5.297 67.55 5.297z" mask="url(#hs5ebsnnle)"/>
                            <path fill="url(#s89x9irfeh)" d="M71.463 14.483L83.08 14.483 83.08 8.303 71.463 8.303z" mask="url(#hs5ebsnnle)" opacity=".283"/>
                            <path fill="#000" d="M67.527 14.562L83.057 14.562 83.057 5.376 67.527 5.376z" mask="url(#hs5ebsnnle)" opacity=".117"/>
                            <path fill="#EAEAEA" d="M74.498 20.834L93.216 20.834 93.216 9.763 74.498 9.763z" mask="url(#hs5ebsnnle)"/>
                            <path fill="#F4F5F7" d="M83.857 13.914L74.498 20.834 93.216 20.834z" mask="url(#hs5ebsnnle)"/>
                            <g mask="url(#hs5ebsnnle)">
                                <g transform="translate(74.409 9.654)">
                                    <mask id="y4ni2y1aoj" fill="#fff">
                                        <use xlink:href="#lo61d4pali"/>
                                    </mask>
                                    <path d="M9.448 6.754L18.807 0.109 0.089 0.109z" mask="url(#y4ni2y1aoj)"/>
                                </g>
                            </g>
                            <path fill="#FFF" d="M83.857 16.048L93.216 9.763 74.498 9.763z" mask="url(#hs5ebsnnle)"/>
                            <path fill="url(#yyu8e756lk)" fill-opacity=".35" d="M17.265 39.734L53.309 39.734 53.309 25.494 17.265 25.494z" mask="url(#hs5ebsnnle)"/>
                            <path fill="url(#d4b8uzelnl)" d="M30.154 43.555V28.561c0-.806.653-1.458 1.459-1.458h24.155v14.994c0 .805-.653 1.458-1.46 1.458H30.155z" mask="url(#hs5ebsnnle)" opacity=".563"/>
                            <g mask="url(#hs5ebsnnle)">
                                <g transform="translate(35.269 30.514)">
                                    <mask id="suru9kcayo" fill="#fff">
                                        <use xlink:href="#p2phxkyrqm"/>
                                    </mask>
                                    <path fill="url(#6x2388i68n)" d="M1.498.182c-.814 0-1.48.666-1.48 1.48v24.354c0 .814.666 1.48 1.48 1.48h50.34c.814 0 1.48-.666 1.48-1.48V1.662c0-.814-.666-1.48-1.48-1.48H1.498z" mask="url(#suru9kcayo)"/>
                                </g>
                            </g>
                            <path fill="#B8BCC1" d="M38.191 36.905L85.683 36.905 85.683 36.757 38.191 36.757zM38.191 42.349L85.683 42.349 85.683 42.201 38.191 42.201zM38.191 47.793L85.683 47.793 85.683 47.645 38.191 47.645z" mask="url(#hs5ebsnnle)"/>
                            <g mask="url(#hs5ebsnnle)">
                                <g>
                                    <path fill="#333" d="M0 23.907L11.174 3.453 16.131 0 15.338 5.989 5.538 23.93z" transform="scale(-1 1) rotate(-6 329.48 814.442)"/>
                                    <path fill="#282828" d="M5.538 23.93L15.338 5.989 15.354 5.875 14.001 5.588 3.984 23.924z" transform="scale(-1 1) rotate(-6 329.48 814.442)"/>
                                    <path fill="#2D2D2D" d="M3.984 23.924L14.001 5.588 12.112 4.509 1.494 23.913z" transform="scale(-1 1) rotate(-6 329.48 814.442)"/>
                                    <path fill="#353535" d="M16.13 0l-4.955 3.452c.949 1.36 2.442 2.31 4.164 2.535L16.13 0z" transform="scale(-1 1) rotate(-6 329.48 814.442)"/>
                                    <path fill="#FF5859" d="M15.646 3.666L16.131 0l-3.035 2.114c.581.832 1.495 1.414 2.55 1.552" transform="scale(-1 1) rotate(-6 329.48 814.442)"/>
                                </g>
                            </g>
                            <path fill="#FFBC1D" d="M12.46 11.714l.327-1.43.328 1.43c.026.112.112.198.223.224l1.43.328-1.43.328c-.11.025-.197.112-.223.223l-.328 1.43-.328-1.43c-.025-.111-.112-.198-.223-.223l-1.43-.328 1.43-.328c.111-.026.198-.112.223-.224M64.503 24.391l.328-1.43.328 1.43c.025.111.112.198.223.224l1.43.327-1.43.328c-.11.026-.198.113-.223.224l-.328 1.43-.328-1.43c-.026-.111-.112-.198-.223-.224l-1.43-.328 1.43-.327c.11-.026.197-.113.223-.224M88.064 1.43L88.392 0l.328 1.43c.026.112.112.198.224.224l1.43.328-1.43.328c-.112.025-.198.112-.224.223l-.328 1.43-.328-1.43c-.025-.111-.112-.198-.223-.223l-1.43-.328 1.43-.328c.11-.026.198-.112.223-.224M61.215 17.322l.206-.9.206.9c.016.07.07.125.14.14l.9.207-.9.206c-.07.016-.124.07-.14.14l-.206.9-.206-.9c-.017-.07-.071-.124-.141-.14l-.9-.206.9-.206c.07-.016.124-.071.14-.14" mask="url(#hs5ebsnnle)"/>
                            <path fill="#8DA9FA" d="M21.723 21.541c0 .784-.636 1.42-1.42 1.42-.785 0-1.42-.636-1.42-1.42 0-.784.635-1.42 1.42-1.42.784 0 1.42.636 1.42 1.42" mask="url(#hs5ebsnnle)"/>
                            <path fill="#CED1D8" d="M23.284 22.651L52.629 22.651 52.629 20.431 23.284 20.431z" mask="url(#hs5ebsnnle)"/>
                            <path fill="#0080FF" d="M16.677 17.671c0 .123-.1.223-.222.223-.123 0-.223-.1-.223-.223 0-.122.1-.222.223-.222s.222.1.222.222M17.567 17.671c0 .123-.1.223-.223.223-.122 0-.222-.1-.222-.223 0-.122.1-.222.222-.222.123 0 .223.1.223.222M18.457 17.671c0 .123-.1.223-.223.223-.122 0-.222-.1-.222-.223 0-.122.1-.222.222-.222.123 0 .223.1.223.222" mask="url(#hs5ebsnnle)"/>
                            <path fill="#333" d="M40.406 35.788c.078 0 .142-.04.19-.12.049-.08.073-.204.073-.37 0-.11-.011-.199-.034-.27-.022-.07-.052-.124-.091-.158-.04-.035-.086-.053-.138-.053-.078 0-.141.04-.19.118-.047.079-.072.2-.072.363 0 .11.01.202.032.274.022.073.053.127.092.163.04.035.086.053.138.053m0 .298c-.132 0-.245-.031-.34-.094-.095-.062-.169-.152-.22-.27-.052-.117-.077-.259-.077-.424 0-.165.026-.306.078-.422.051-.115.124-.203.219-.264.095-.06.208-.09.34-.09.131 0 .245.03.34.09.096.06.17.149.22.265.052.116.078.256.077.42 0 .167-.026.308-.077.426-.052.118-.125.208-.22.27-.095.062-.208.093-.34.093M41.949 34.542L41.949 36.049 41.586 36.049 41.586 34.882 41.577 34.882 41.24 35.088 41.24 34.773 41.611 34.542zM40.406 41.232c.078 0 .142-.04.19-.12.049-.08.073-.204.073-.37 0-.109-.011-.199-.034-.27-.022-.07-.052-.123-.091-.158-.04-.035-.086-.053-.138-.053-.078 0-.141.04-.19.119-.047.078-.072.2-.072.362 0 .11.01.202.032.274.022.073.053.127.092.163.04.035.086.053.138.053m0 .298c-.132 0-.245-.031-.34-.094-.095-.062-.169-.152-.22-.27-.052-.117-.077-.259-.077-.424 0-.165.026-.306.078-.421.051-.116.124-.204.219-.265.095-.06.208-.09.34-.09.131 0 .245.03.34.09.096.06.17.15.22.265.052.116.078.256.077.421 0 .166-.026.308-.077.425-.052.118-.125.208-.22.27-.095.062-.208.093-.34.093M41.252 41.493v-.261l.55-.482c.041-.037.076-.071.105-.103.03-.03.051-.062.066-.094.016-.031.023-.066.023-.103 0-.042-.009-.078-.027-.107-.018-.03-.043-.053-.075-.07-.032-.015-.068-.023-.11-.023-.042 0-.078.008-.11.025-.03.017-.055.041-.073.073-.017.032-.026.07-.026.116h-.345c0-.102.023-.19.07-.265.046-.075.11-.132.194-.173.084-.04.181-.06.292-.06.114 0 .214.019.298.057.084.038.15.092.196.16.046.069.07.148.07.238 0 .057-.012.114-.035.17-.023.057-.064.12-.124.188s-.144.15-.253.245l-.18.166v.01h.61v.293h-1.116zM40.406 46.676c.078 0 .142-.04.19-.12.049-.08.073-.204.073-.37 0-.109-.011-.199-.034-.27-.022-.07-.052-.123-.091-.158-.04-.035-.086-.052-.138-.052-.078 0-.141.039-.19.118-.047.078-.072.2-.072.362 0 .11.01.202.032.275.022.072.053.126.092.162.04.036.086.053.138.053m0 .298c-.132 0-.245-.031-.34-.093-.095-.063-.169-.153-.22-.27-.052-.118-.077-.26-.077-.425 0-.165.026-.306.078-.421.051-.116.124-.204.219-.264.095-.061.208-.091.34-.091.131 0 .245.03.34.09.096.061.17.15.22.265.052.116.078.256.077.421 0 .166-.026.308-.077.426-.052.117-.125.207-.22.27-.095.061-.208.092-.34.092M41.826 46.958c-.115 0-.217-.02-.306-.059-.088-.04-.158-.094-.21-.164-.05-.07-.076-.15-.077-.24h.366c.002.032.013.061.032.087.02.025.047.045.08.059.034.014.073.022.116.022.043 0 .081-.008.114-.024.033-.015.06-.037.078-.064.019-.027.028-.058.027-.094 0-.035-.01-.066-.03-.094-.02-.027-.05-.049-.087-.064-.037-.015-.082-.023-.133-.023h-.146v-.259h.146c.045 0 .084-.007.118-.022.034-.015.06-.035.08-.062.02-.027.028-.057.028-.092 0-.034-.007-.064-.024-.09-.016-.026-.04-.046-.068-.06-.03-.014-.063-.021-.101-.021-.04 0-.077.007-.11.021-.032.014-.058.034-.077.06-.02.026-.03.057-.03.091h-.349c.001-.09.026-.169.075-.237.05-.069.116-.122.2-.161.086-.039.182-.058.29-.058.108 0 .203.019.285.056.082.038.146.09.192.155.045.065.068.138.068.22 0 .085-.027.155-.083.21-.055.055-.127.089-.214.101v.012c.117.014.205.052.265.113.059.062.089.14.088.232 0 .087-.025.165-.077.232-.051.068-.122.12-.213.16-.091.038-.196.057-.313.057" mask="url(#hs5ebsnnle)"/>
                        </g>
                    </g>
                </g>
                <text font-weight="700" font-size="12" font-weight="bold" mask="url(#wsg322j33b)">
                    <tspan x="10" y="26" fill="#FE5859">PR기사</tspan>  <tspan x="10" y="42" fill="#2A375D">지금 배포하기</tspan>
                </text>
            </g>
        </g>
    </g>
</svg>
