<svg xmlns="http://www.w3.org/2000/svg" width="380" height="228" viewBox="0 0 380 228">
    <defs>
        <filter id="prefix__a" width="133.3%" height="155.9%" x="-16.7%" y="-27.9%" filterUnits="objectBoundingBox">
            <feOffset dy="-3" in="SourceAlpha" result="shadowOffsetOuter1"/>
            <feGaussianBlur in="shadowOffsetOuter1" result="shadowBlurOuter1" stdDeviation="9"/>
            <feColorMatrix in="shadowBlurOuter1" result="shadowMatrixOuter1" values="0 0 0 0 0.443137255 0 0 0 0 0.458823529 0 0 0 0 1 0 0 0 0.3 0"/>
            <feMerge>
                <feMergeNode in="shadowMatrixOuter1"/>
                <feMergeNode in="SourceGraphic"/>
            </feMerge>
        </filter>
    </defs>
    <g fill="none" fill-rule="evenodd" transform="translate(.484 .465)">
        <g filter="url(#prefix__a)" transform="translate(66.516 67.535)">
            <rect width="234" height="132" x="4" fill="#7175FF" rx="3"/>
            <path fill="#FEFEFE" d="M130.956 135.26L4.676 50.152c-1.373-.926-3.238-.563-4.164.811C.178 51.458 0 52.043 0 52.64v89.26c0 1.657 1.343 3 3 3 .033 0 .066 0 .099-.002l126.28-4.152c1.655-.054 2.954-1.44 2.9-3.096-.033-.963-.524-1.851-1.323-2.39z"/>
            <path fill="#FEFEFE" d="M111.688 135.26l126.28-85.108c1.374-.926 3.238-.563 4.164.811.334.495.512 1.08.512 1.677v89.26c0 1.657-1.343 3-3 3-.032 0-.065 0-.098-.002l-126.28-4.152c-1.656-.054-2.954-1.44-2.9-3.096.032-.963.524-1.851 1.322-2.39z"/>
        </g>
        <text fill="#7175FF" font-family="Ubuntu-Bold, Ubuntu" font-size="32" font-weight="bold">
            <tspan x="106.088" y="45.535">WELCOME</tspan>
        </text>
        <text fill="#FEFEFE" font-weight="400" font-size="14" letter-spacing="1">
            <tspan x="132.834" y="97.535">BONUS TICKE</tspan> <tspan x="233.812" y="97.535">T</tspan>
        </text>
        <circle cx="124.016" cy="92.035" r="1.5" fill="#FEFEFE"/>
        <circle cx="249.016" cy="92.035" r="1.5" fill="#FEFEFE"/>
        <text fill="#FEFEFE" font-weight="700" font-size="23" font-weight="bold">
            <tspan x="118.815" y="133.535">무료 투자 검토</tspan>
        </text>
        <text fill="#FEFEFE" font-weight="700" font-size="23" font-weight="bold">
            <tspan x="170.582" y="163.535">1회</tspan>
        </text>
        <path fill="#FFDF71" fill-rule="nonzero" d="M320.03 47.63c1.083-1.651 1.512-3.98.994-5.504-.64-1.883-1.455-2.842-2.55-3.445-.204-.112-.93-.45-1.08-.535-.48-.271-.65-.881-.38-1.362.272-.481.882-.651 1.363-.38.063.036.776.368 1.061.525 1.529.841 2.677 2.193 3.48 4.553.73 2.15.185 5.109-1.216 7.245-.737 1.123-1.846 1.965-3.277 2.611-.455 1.155-1.172 2.308-2.133 3.39-3.691 4.153-9.496 5.716-14.655 3.124-.494-.248-.693-.85-.445-1.343.248-.493.85-.692 1.343-.444 4.29 2.155 9.137.85 12.262-2.666.333-.376.63-.756.889-1.138-5.278 1.278-8.416-1.197-7.859-5.132.534-3.775 4.145-6.137 7.88-4.067 2.333 1.292 3.383 3.362 3.296 5.636.425-.32.77-.676 1.026-1.068zm-5.292-2.819c-2.392-1.325-4.578.104-4.93 2.598-.358 2.523 1.545 3.962 5.74 2.823.453-.123.878-.257 1.276-.403.53-2.064-.137-3.938-2.086-5.018z"/>
        <path fill="#FF665D" fill-rule="nonzero" d="M82.91 47.185c.547-.082 1.056.295 1.138.841.082.546-.294 1.055-.84 1.137-4.86.73-8.05-.799-9.107-3.62-1.98-.83-3.64-3.45-4.563-7.8-.115-.54.23-1.071.77-1.186.54-.115 1.071.23 1.186.77.586 2.76 1.361 4.55 2.235 5.536.211-3.324 2.772-6.06 5.508-4.664 2.7 1.377 1.274 5.504-1.593 7.05-.397.214-.792.37-1.181.465 1.034 1.343 3.154 1.965 6.448 1.471zm-6.215-3.696c1.693-.913 2.447-3.094 1.633-3.509-1.19-.607-2.682 1.152-2.61 3.478.003.115.01.228.021.339.317-.031.636-.136.956-.308z"/>
        <path fill="#FFE0E0" fill-rule="nonzero" d="M367.685 35.978c.044.55-.367 1.032-.918 1.076-.55.043-1.032-.368-1.076-.918-.388-4.899 1.36-7.974 4.246-8.832.967-1.916 3.697-3.39 8.1-4.008.547-.077 1.053.305 1.13.852.076.547-.305 1.052-.852 1.129-2.793.391-4.634 1.04-5.678 1.843 3.301.443 5.852 3.188 4.269 5.82-1.563 2.598-5.58.887-6.922-2.08-.186-.412-.313-.816-.382-1.211-1.412.937-2.18 3.009-1.917 6.329zm4.121-5.943c.793 1.753 2.915 2.657 3.386 1.874.689-1.145-.962-2.756-3.287-2.847-.115-.004-.228-.005-.34-.002.01.318.091.644.241.975z"/>
        <path fill="#FF665D" fill-rule="nonzero" d="M296.873 30.762c.5 1.514.62 4.355.26 5.678l-.657 2.412-4.824-1.314.657-2.412c.095-.348.017-2.189-.184-2.795l-.784-2.374 4.747-1.57.785 2.375z"/>
        <path fill="#7175FF" fill-rule="nonzero" d="M339.157 37.533c-1.173-.02-3.27.05-3.882.128l-2.48.315-.63-4.96 2.48-.315c.891-.113 3.207-.192 4.6-.168l2.499.044-.088 5-2.5-.044z"/>
        <path fill="#FFDF71" fill-rule="nonzero" d="M38.27 14.303c-.83.83-2.235 2.388-2.604 2.882l-1.497 2.003-4.005-2.994 1.497-2.002c.537-.719 2.09-2.44 3.073-3.424L36.502 9l3.536 3.536-1.768 1.767zM281.27 5.303c-.83.83-2.235 2.388-2.604 2.882l-1.497 2.003-4.005-2.994 1.497-2.002c.537-.719 2.09-2.44 3.073-3.424L279.502 0l3.536 3.536-1.768 1.767z"/>
        <path fill="#FF665D" fill-rule="nonzero" d="M91.448 4.363c.55 1.035 1.63 2.835 1.994 3.333l1.478 2.016-4.034 2.955-1.477-2.017c-.53-.723-1.723-2.71-2.376-3.94l-1.174-2.207 4.415-2.348 1.174 2.208z"/>
        <path fill="#2581FF" fill-rule="nonzero" d="M1.943 25.635L0 24.062l3.147-3.886 1.942 1.573c1.082.876 2.806 2.426 3.415 3.084l1.698 1.835-3.67 3.396-1.698-1.835c-.419-.453-1.98-1.856-2.891-2.594z"/>
        <path fill="#FFE0E0" fill-rule="nonzero" d="M58.998 23.451c.143-1.164.291-3.258.278-3.874l-.053-2.5 4.998-.107.054 2.5c.02.897-.144 3.209-.314 4.59l-.305 2.482-4.962-.61.304-2.481zM329.858 6.6c.44 1.088 1.325 2.99 1.635 3.523l1.259 2.16-4.32 2.517-1.26-2.16c-.45-.775-1.429-2.876-1.95-4.167l-.936-2.318 4.635-1.873.937 2.318z"/>
        <path fill="#2581FF" fill-rule="nonzero" d="M322.173 68.465c1.165-.143 3.232-.506 3.826-.667l2.413-.657 1.313 4.824-2.412.657c-.866.236-3.149.636-4.53.806l-2.482.305-.61-4.963 2.482-.305z"/>
        <path fill="#7175FF" fill-rule="nonzero" d="M41.635 53.402l.144-2.496 4.992.287-.144 2.496c-.037.638.365 2.436.546 2.747l1.26 2.16-4.32 2.518-1.26-2.16c-.69-1.184-1.31-3.96-1.218-5.552z"/>
    </g>
</svg>
