<svg xmlns="http://www.w3.org/2000/svg" xmlns:xlink="http://www.w3.org/1999/xlink" width="165" height="81" viewBox="0 0 165 81">
    <defs>
        <path id="rodmikub3e" d="M3 .226h50c1.657 0 3 1.343 3 3v64c0 1.657-1.343 3-3 3H3c-1.657 0-3-1.343-3-3v-64c0-1.657 1.343-3 3-3z"/>
        <path id="mx1ci6996g" d="M0.243 0L8.046 0 8.046 8.96 0.243 8.96z"/>
        <path id="5sa8itw0pi" d="M0 0.3L41.742 0.3 41.742 36 0 36z"/>
        <path id="6roo9jtpkk" d="M0 0.16L15.323 0.16 15.323 10 0 10z"/>
        <rect id="yid6ksgyua" width="165" height="72.213" x="0" y="7.787" rx="5"/>
        <rect id="mpufc3cjmc" width="165" height="80" x="0" y="0" rx="5"/>
    </defs>
    <g fill="none" fill-rule="evenodd">
        <g>
            <g transform="translate(-340 -1308) translate(340 1308)">
                <mask id="0hm9k6di3b" fill="#fff">
                    <use xlink:href="#yid6ksgyua"/>
                </mask>
                <g fill="#FEFEFE" mask="url(#0hm9k6di3b)" opacity=".2">
                    <path d="M107.028 4.09c26.933-13.04 70.9 5.173 70.754 53.637-.006 1.69-.055 3.357-.148 5.002 3.37-.811 7.565-1.07 13.275-.304 21.175 2.839 40.31 30.85 21.287 59.477-19.023 28.626-52.716 31.906-82.913 23.704-3.712-1.008-7.21-2.246-10.488-3.678-6.324 3.06-12.907 5.69-19.614 7.898-65.163 21.45-118.232-27.87-92.596-73.227C19.238 54.214 32.561 51.35 45.1 50.405l1.317-.093 4.558-.28 2.195-1.546C58.758 45.667 65 44.771 73.19 45c1.828-6.947 2.963-9.617 5.073-13.481l.389-.725.375-.725.364-.726.355-.726.52-1.09 4.455-1.957.516-1.065.265-.532.408-.8.423-.798.442-.8.306-.532.157-.266.322-.533.334-.533.171-.266.353-.533.366-.532.188-.266.39-.533.404-.532c.619-.798 1.294-1.596 2.04-2.393l.507-.531c3.281-3.365 7.858-6.716 14.715-10.036z" transform="translate(-55 -21)"/>
                </g>
                <mask id="1wc4ts967d" fill="#fff">
                    <use xlink:href="#mpufc3cjmc"/>
                </mask>
                <g mask="url(#1wc4ts967d)">
                    <g>
                        <g>
                            <path fill="#E6ECFF" d="M53.455.226H2.545C1.138.226 0 1.533 0 3.143V67.31c0 1.61 1.138 2.916 2.545 2.916h50.91c1.407 0 2.545-1.306 2.545-2.916V3.143c0-1.61-1.138-2.917-2.545-2.917" transform="translate(44)"/>
                            <g transform="translate(44)">
                                <mask id="yzmjgx2drf" fill="#fff">
                                    <use xlink:href="#rodmikub3e"/>
                                </mask>
                                <use fill="#FEFEFE" xlink:href="#rodmikub3e"/>
                                <rect width="40" height="2" x="8" y="16" fill="#2581FF" mask="url(#yzmjgx2drf)" rx="1"/>
                                <rect width="40" height="2" x="8" y="28" fill="#2581FF" mask="url(#yzmjgx2drf)" rx="1"/>
                                <rect width="40" height="2" x="8" y="40" fill="#2581FF" mask="url(#yzmjgx2drf)" rx="1"/>
                                <rect width="40" height="2" x="8" y="52" fill="#2581FF" mask="url(#yzmjgx2drf)" rx="1"/>
                                <path fill="#000" d="M56 62.468v4.842c0 1.604-1.145 2.916-2.545 2.916H2.545C1.145 70.226 0 68.914 0 67.31V3.143C0 1.539 1.145.226 2.545.226h14.23C16.749 23.268 21.942 61.068 56 62.468" mask="url(#yzmjgx2drf)" opacity=".084"/>
                            </g>
                        </g>
                        <g>
                            <path fill="#1060D7" d="M43.457 6.541l-4-4c-.782-.782-2.046-.782-2.828 0l-4 4c-.782.782-.782 2.046 0 2.828l4 4c.39.39.902.586 1.414.586.512 0 1.024-.196 1.414-.586l4-4c.782-.782.782-2.046 0-2.828" transform="translate(44) translate(51 18)"/>
                            <g transform="translate(44) translate(51 18) translate(36 5)">
                                <mask id="v3rzps6uxh" fill="#fff">
                                    <use xlink:href="#mx1ci6996g"/>
                                </mask>
                                <path fill="#124397" d="M7.461 4.36l-4 4c-.4.4-.9.6-1.42.6-.52 0-1.02-.2-1.42-.6l-.378-.38C2.101 5.54 3.983 2.9 5.921 0l1.54 1.54c.782.78.782 2.04 0 2.82" mask="url(#v3rzps6uxh)"/>
                            </g>
                            <path fill="#1060D7" d="M17.043 12.955c-.512 0-1.024-.196-1.414-.586-.782-.782-.782-2.046 0-2.828l8.09-8.088c1.558-1.562 4.098-1.562 5.656 0l3.96 3.96c.782.78.782 2.046 0 2.828-.78.78-2.046.78-2.828 0l-3.96-3.96-8.09 8.088c-.39.39-.902.586-1.414.586" transform="translate(44) translate(51 18)"/>
                            <path fill="#FEFEFE" d="M41.742 14.638c0 .54-.218 1.04-.58 1.42l-25.84 25.86-1.416 1.396c-.282.278-.636.466-1.024.544l-10.48 2.1c-.14.02-.26.04-.4.04-.52 0-1.04-.2-1.42-.58-.46-.48-.68-1.16-.54-1.82l2.106-10.512c.076-.374.262-.72.536-.988l1.42-1.4 27.248-27.27 9.81 9.81c.362.36.58.88.58 1.4" transform="translate(44) translate(51 18)"/>
                            <g transform="translate(44) translate(51 18) translate(0 10)">
                                <mask id="a5ih10709j" fill="#fff">
                                    <use xlink:href="#5sa8itw0pi"/>
                                </mask>
                                <path fill="#B7C6E2" d="M41.742 4.64c0 .54-.22 1.04-.58 1.42l-25.84 25.86-1.42 1.4c-.282.28-.64.46-1.022.54l-10.478 2.1c-.14.02-.262.04-.4.04-.52 0-1.042-.2-1.42-.58-.462-.48-.68-1.16-.542-1.82l.982-4.96C10.54 27.28 23.482 20.62 38.22.3l2.942 2.94c.36.36.58.88.58 1.4" mask="url(#a5ih10709j)" opacity=".497"/>
                            </g>
                            <path fill="#1060D7" d="M15.323 41.918l-1.42 1.4c-.28.28-.64.46-1.02.54l-10.48 2.1c-.14.02-.26.04-.4.04-.52 0-1.04-.2-1.42-.58-.46-.48-.68-1.16-.54-1.82l2.1-10.48c.08-.38.26-.74.542-1.02l1.42-1.4 11.218 11.22z" transform="translate(44) translate(51 18)"/>
                            <g transform="translate(44) translate(51 18) translate(0 36)">
                                <mask id="chh6u88cpl" fill="#fff">
                                    <use xlink:href="#6roo9jtpkk"/>
                                </mask>
                                <path fill="#124397" d="M15.323 5.92l-1.42 1.4c-.282.28-.64.46-1.022.54L2.403 9.96c-.14.02-.262.04-.4.04-.52 0-1.042-.2-1.42-.58C.12 8.94-.097 8.26.04 7.6l1-4.96C3.64 2.28 6.483 1.5 9.56.16l5.762 5.76z" mask="url(#chh6u88cpl)"/>
                            </g>
                        </g>
                    </g>
                </g>
            </g>
        </g>
    </g>
</svg>
