<svg xmlns="http://www.w3.org/2000/svg" width="300" height="48" viewBox="0 0 300 48">
    <g fill="none" fill-rule="evenodd">
        <rect width="299" height="47" x=".5" y=".5" fill="#FFF" stroke="#7D7D7D" rx="3"/>
        <g fill-rule="nonzero">
            <path fill="#EA4335" d="M25.952 18.201c1.767 0 2.959.767 3.638 1.408l2.656-2.605c-1.631-1.524-3.753-2.459-6.294-2.459-3.68 0-6.858 2.122-8.406 5.21l3.043 2.375c.763-2.28 2.875-3.929 5.363-3.929z"/>
            <path fill="#4285F4" d="M34.986 24.21c0-.777-.063-1.345-.2-1.933h-8.834v3.509h5.186c-.104.872-.669 2.185-1.924 3.067l2.97 2.311c1.777-1.649 2.802-4.076 2.802-6.954z"/>
            <path fill="#FBBC05" d="M20.6 25.87a5.845 5.845 0 0 1-.315-1.87c0-.651.115-1.282.304-1.87l-3.043-2.374A9.5 9.5 0 0 0 16.542 24a9.5 9.5 0 0 0 1.004 4.244L20.6 25.87z"/>
            <path fill="#34A853" d="M25.952 33.455c2.54 0 4.674-.84 6.231-2.29l-2.969-2.312c-.794.557-1.86.946-3.262.946-2.488 0-4.6-1.65-5.353-3.93l-3.042 2.375c1.547 3.089 4.715 5.21 8.395 5.21z"/>
        </g>
        <text fill="#333" font-weight="400" font-size="14">
            <tspan x="103.352" y="30">구글로 회원가입</tspan>
        </text>
    </g>
</svg>
