<svg xmlns="http://www.w3.org/2000/svg" width="19" height="20" viewBox="0 0 19 20">
    <g fill="none" fill-rule="evenodd">
        <g fill-rule="nonzero">
            <g>
                <g>
                    <path fill="#EA4335" d="M9.952 4.201c1.767 0 2.959.767 3.638 1.408l2.656-2.605C14.615 1.48 12.493.545 9.952.545c-3.68 0-6.858 2.122-8.406 5.21L4.59 8.13c.763-2.28 2.875-3.929 5.363-3.929z" transform="translate(-829.000000, -536.000000) translate(813.000000, 522.000000) translate(16.000000, 14.000000)"/>
                    <path fill="#4285F4" d="M18.986 10.21c0-.777-.063-1.345-.2-1.933H9.953v3.509h5.186c-.104.872-.669 2.185-1.924 3.067l2.97 2.311c1.777-1.649 2.802-4.076 2.802-6.954z" transform="translate(-829.000000, -536.000000) translate(813.000000, 522.000000) translate(16.000000, 14.000000)"/>
                    <path fill="#FBBC05" d="M4.6 11.87c-.2-.588-.315-1.219-.315-1.87s.115-1.282.304-1.87L1.546 5.756C.908 7.038.542 8.476.542 10c0 1.523.366 2.962 1.004 4.244L4.6 11.87z" transform="translate(-829.000000, -536.000000) translate(813.000000, 522.000000) translate(16.000000, 14.000000)"/>
                    <path fill="#34A853" d="M9.952 19.455c2.54 0 4.674-.84 6.231-2.29l-2.969-2.312c-.794.557-1.86.946-3.262.946-2.488 0-4.6-1.65-5.353-3.93l-3.042 2.375c1.547 3.089 4.715 5.21 8.395 5.21z" transform="translate(-829.000000, -536.000000) translate(813.000000, 522.000000) translate(16.000000, 14.000000)"/>
                </g>
            </g>
        </g>
    </g>
</svg>
