<svg width="155" height="148" viewBox="0 0 155 148" fill="none" xmlns="http://www.w3.org/2000/svg">
<g clip-path="url(#clip0_1396_39281)">
<path d="M121.809 79.6008C119.784 76.6705 120.914 72.4346 120.41 67.7576C119.891 60.1272 116.599 52.7346 110.211 46.8218L88.4556 26.6808C88.4556 26.6808 84.1692 22.709 80.1771 26.9797C76.1908 31.2475 80.4801 35.2194 80.4801 35.2194L89.6707 43.7319L97.6375 51.107C97.6375 51.107 95.6414 53.2424 86.8238 45.0781L57.0432 17.4982C57.0432 17.4982 52.7509 13.5292 48.7617 17.7999C44.7754 22.0678 49.0619 26.0397 49.0619 26.0397L77.2223 52.1196C77.1611 52.0615 75.0922 54.1273 75.0543 54.0925L44.924 26.1905C44.924 26.1905 40.6347 22.2186 36.6455 26.4894C32.6563 30.7601 36.9456 34.7291 36.9456 34.7291L67.0788 62.6368C67.1138 62.6716 65.1731 64.8534 65.2314 64.9086L39.2389 40.8335C39.2389 40.8335 34.9496 36.8616 30.9604 41.1323C26.9712 45.403 31.2605 49.3749 31.2605 49.3749L58.8965 74.9645C59.15 75.1995 57.4395 77.5989 57.7571 77.8919L37.8431 59.4512C37.8431 59.4512 33.5538 55.4793 29.5646 59.7529C25.5754 64.0236 29.8647 67.9955 29.8647 67.9955L62.3466 98.0618C67.7694 103.084 73.338 105.626 80.0518 106.557C81.4184 106.745 83.1668 106.745 83.8836 106.835C86.1478 107.12 88.1351 107.921 90.7955 109.545C94.2194 111.634 99.3567 112.505 102.309 109.362L112.373 98.6421L121.666 88.7428C124.615 85.6036 124.087 82.8938 121.809 79.6008Z" fill="#FFD787"/>
<path d="M121.809 79.6008C119.784 76.6705 120.914 72.4346 120.41 67.7576C119.891 60.1272 116.599 52.7346 110.211 46.8218L88.4556 26.6808C88.4556 26.6808 84.1692 22.709 80.1771 26.9797C76.1908 31.2475 80.4801 35.2194 80.4801 35.2194L89.6707 43.7319L97.6375 51.107C97.6375 51.107 95.6414 53.2424 86.8238 45.0781L57.0432 17.4982C57.0432 17.4982 52.7509 13.5292 48.7617 17.7999C44.7754 22.0678 49.0619 26.0397 49.0619 26.0397L77.2223 52.1196C77.1611 52.0615 75.0922 54.1273 75.0543 54.0925L44.924 26.1905C44.924 26.1905 40.6347 22.2186 36.6455 26.4894C32.6563 30.7601 36.9456 34.7291 36.9456 34.7291L67.0788 62.6368C67.1138 62.6716 65.1731 64.8534 65.2314 64.9086L39.2389 40.8335C39.2389 40.8335 34.9496 36.8616 30.9604 41.1323C26.9712 45.403 31.2605 49.3749 31.2605 49.3749L58.8965 74.9645C59.15 75.1995 57.4395 77.5989 57.7571 77.8919L37.8431 59.4512C37.8431 59.4512 33.5538 55.4793 29.5646 59.7529C25.5754 64.0236 29.8647 67.9955 29.8647 67.9955L62.3466 98.0618C67.7694 103.084 73.338 105.626 80.0518 106.557C81.4184 106.745 83.1668 106.745 83.8836 106.835C86.1478 107.12 88.1351 107.921 90.7955 109.545C94.2194 111.634 99.3567 112.505 102.309 109.362L112.373 98.6421L121.666 88.7428C124.615 85.6036 124.087 82.8938 121.809 79.6008Z" fill="url(#paint0_linear_1396_39281)" fill-opacity="0.08"/>
<path d="M121.809 79.6008C119.784 76.6705 120.914 72.4346 120.41 67.7576C119.891 60.1272 116.599 52.7346 110.211 46.8218L88.4556 26.6808C88.4556 26.6808 84.1692 22.709 80.1771 26.9797C76.1908 31.2475 80.4801 35.2194 80.4801 35.2194L89.6707 43.7319L97.6375 51.107C97.6375 51.107 95.6414 53.2424 86.8238 45.0781L57.0432 17.4982C57.0432 17.4982 52.7509 13.5292 48.7617 17.7999C44.7754 22.0678 49.0619 26.0397 49.0619 26.0397L77.2223 52.1196C77.1611 52.0615 75.0922 54.1273 75.0543 54.0925L44.924 26.1905C44.924 26.1905 40.6347 22.2186 36.6455 26.4894C32.6563 30.7601 36.9456 34.7291 36.9456 34.7291L67.0788 62.6368C67.1138 62.6716 65.1731 64.8534 65.2314 64.9086L39.2389 40.8335C39.2389 40.8335 34.9496 36.8616 30.9604 41.1323C26.9712 45.403 31.2605 49.3749 31.2605 49.3749L58.8965 74.9645C59.15 75.1995 57.4395 77.5989 57.7571 77.8919L37.8431 59.4512C37.8431 59.4512 33.5538 55.4793 29.5646 59.7529C25.5754 64.0236 29.8647 67.9955 29.8647 67.9955L62.3466 98.0618C67.7694 103.084 73.338 105.626 80.0518 106.557C81.4184 106.745 83.1668 106.745 83.8836 106.835C86.1478 107.12 88.1351 107.921 90.7955 109.545C94.2194 111.634 99.3567 112.505 102.309 109.362L112.373 98.6421L121.666 88.7428C124.615 85.6036 124.087 82.8938 121.809 79.6008Z" fill="url(#paint1_radial_1396_39281)" fill-opacity="0.6"/>
<path d="M130.807 78.0778C128.881 75.0837 130.154 70.8855 129.81 66.1941C129.548 58.552 126.509 51.0521 120.325 44.9274L99.2632 24.0699C99.2632 24.0699 95.1137 19.9587 90.9788 24.0931C86.8497 28.2246 91.0021 32.3386 91.0021 32.3386L99.9013 41.1557L107.612 48.792C107.612 48.792 105.543 50.8577 97.0078 42.4033C88.467 33.946 68.1771 13.8399 68.1771 13.8399C68.1771 13.8399 64.0247 9.7287 59.8927 13.8631C55.7607 17.9945 59.9131 22.1057 59.9131 22.1057L87.1761 49.1169C87.1178 49.0589 84.979 51.0521 84.9411 51.0144L55.7724 22.1173C55.7724 22.1173 51.62 18.0032 47.488 22.1376C43.359 26.272 47.5084 30.3831 47.5084 30.3831L76.68 59.286C76.715 59.3208 74.6985 61.4359 74.7568 61.4939L49.5948 36.5629C49.5948 36.5629 45.4424 32.4518 41.3104 36.5862C37.1785 40.7205 41.3308 44.8346 41.3308 44.8346L68.0839 71.3381C68.3286 71.5789 66.5395 73.9232 66.8454 74.2278L47.5667 55.1284C47.5667 55.1284 43.4143 51.0173 39.2823 55.1517C35.1504 59.286 39.3027 63.4001 39.3027 63.4001L70.7443 94.537C75.9952 99.739 81.4735 102.463 88.1523 103.621C89.5131 103.856 91.2615 103.914 91.9725 104.027C94.2249 104.387 96.1831 105.254 98.7911 106.969C102.142 109.171 107.247 110.213 110.304 107.172L120.727 96.7971L130.349 87.217C133.406 84.1706 132.972 81.4434 130.807 78.0778Z" fill="#FFD787"/>
<path d="M130.807 78.0778C128.881 75.0837 130.154 70.8855 129.81 66.1941C129.548 58.552 126.509 51.0521 120.325 44.9274L99.2632 24.0699C99.2632 24.0699 95.1137 19.9587 90.9788 24.0931C86.8497 28.2246 91.0021 32.3386 91.0021 32.3386L99.9013 41.1557L107.612 48.792C107.612 48.792 105.543 50.8577 97.0078 42.4033C88.467 33.946 68.1771 13.8399 68.1771 13.8399C68.1771 13.8399 64.0247 9.7287 59.8927 13.8631C55.7607 17.9945 59.9131 22.1057 59.9131 22.1057L87.1761 49.1169C87.1178 49.0589 84.979 51.0521 84.9411 51.0144L55.7724 22.1173C55.7724 22.1173 51.62 18.0032 47.488 22.1376C43.359 26.272 47.5084 30.3831 47.5084 30.3831L76.68 59.286C76.715 59.3208 74.6985 61.4359 74.7568 61.4939L49.5948 36.5629C49.5948 36.5629 45.4424 32.4518 41.3104 36.5862C37.1785 40.7205 41.3308 44.8346 41.3308 44.8346L68.0839 71.3381C68.3286 71.5789 66.5395 73.9232 66.8454 74.2278L47.5667 55.1284C47.5667 55.1284 43.4143 51.0173 39.2823 55.1517C35.1504 59.286 39.3027 63.4001 39.3027 63.4001L70.7443 94.537C75.9952 99.739 81.4735 102.463 88.1523 103.621C89.5131 103.856 91.2615 103.914 91.9725 104.027C94.2249 104.387 96.1831 105.254 98.7911 106.969C102.142 109.171 107.247 110.213 110.304 107.172L120.727 96.7971L130.349 87.217C133.406 84.1706 132.972 81.4434 130.807 78.0778Z" fill="url(#paint2_linear_1396_39281)" fill-opacity="0.2"/>
<path d="M130.807 78.0778C128.881 75.0837 130.154 70.8855 129.81 66.1941C129.548 58.552 126.509 51.0521 120.325 44.9274L99.2632 24.0699C99.2632 24.0699 95.1137 19.9587 90.9788 24.0931C86.8497 28.2246 91.0021 32.3386 91.0021 32.3386L99.9013 41.1557L107.612 48.792C107.612 48.792 105.543 50.8577 97.0078 42.4033C88.467 33.946 68.1771 13.8399 68.1771 13.8399C68.1771 13.8399 64.0247 9.7287 59.8927 13.8631C55.7607 17.9945 59.9131 22.1057 59.9131 22.1057L87.1761 49.1169C87.1178 49.0589 84.979 51.0521 84.9411 51.0144L55.7724 22.1173C55.7724 22.1173 51.62 18.0032 47.488 22.1376C43.359 26.272 47.5084 30.3831 47.5084 30.3831L76.68 59.286C76.715 59.3208 74.6985 61.4359 74.7568 61.4939L49.5948 36.5629C49.5948 36.5629 45.4424 32.4518 41.3104 36.5862C37.1785 40.7205 41.3308 44.8346 41.3308 44.8346L68.0839 71.3381C68.3286 71.5789 66.5395 73.9232 66.8454 74.2278L47.5667 55.1284C47.5667 55.1284 43.4143 51.0173 39.2823 55.1517C35.1504 59.286 39.3027 63.4001 39.3027 63.4001L70.7443 94.537C75.9952 99.739 81.4735 102.463 88.1523 103.621C89.5131 103.856 91.2615 103.914 91.9725 104.027C94.2249 104.387 96.1831 105.254 98.7911 106.969C102.142 109.171 107.247 110.213 110.304 107.172L120.727 96.7971L130.349 87.217C133.406 84.1706 132.972 81.4434 130.807 78.0778Z" fill="url(#paint3_radial_1396_39281)"/>
<path d="M130.807 78.0778C128.881 75.0837 130.154 70.8855 129.81 66.1941C129.548 58.552 126.509 51.0521 120.325 44.9274L99.2632 24.0699C99.2632 24.0699 95.1137 19.9587 90.9788 24.0931C86.8497 28.2246 91.0021 32.3386 91.0021 32.3386L99.9013 41.1557L107.612 48.792C107.612 48.792 105.543 50.8577 97.0078 42.4033C88.467 33.946 68.1771 13.8399 68.1771 13.8399C68.1771 13.8399 64.0247 9.7287 59.8927 13.8631C55.7607 17.9945 59.9131 22.1057 59.9131 22.1057L87.1761 49.1169C87.1178 49.0589 84.979 51.0521 84.9411 51.0144L55.7724 22.1173C55.7724 22.1173 51.62 18.0032 47.488 22.1376C43.359 26.272 47.5084 30.3831 47.5084 30.3831L76.68 59.286C76.715 59.3208 74.6985 61.4359 74.7568 61.4939L49.5948 36.5629C49.5948 36.5629 45.4424 32.4518 41.3104 36.5862C37.1785 40.7205 41.3308 44.8346 41.3308 44.8346L68.0839 71.3381C68.3286 71.5789 66.5395 73.9232 66.8454 74.2278L47.5667 55.1284C47.5667 55.1284 43.4143 51.0173 39.2823 55.1517C35.1504 59.286 39.3027 63.4001 39.3027 63.4001L70.7443 94.537C75.9952 99.739 81.4735 102.463 88.1523 103.621C89.5131 103.856 91.2615 103.914 91.9725 104.027C94.2249 104.387 96.1831 105.254 98.7911 106.969C102.142 109.171 107.247 110.213 110.304 107.172L120.727 96.7971L130.349 87.217C133.406 84.1706 132.972 81.4434 130.807 78.0778Z" fill="url(#paint4_linear_1396_39281)" fill-opacity="0.1"/>
<rect width="4.99096" height="9.95618" transform="matrix(0.893481 0.449101 -0.452223 0.891905 41.9531 97.9434)" fill="#61BB56"/>
</g>
<rect width="4.97541" height="9.98726" transform="matrix(-0.283109 0.959088 -0.959751 -0.280852 23.2793 14.8242)" fill="#3389FF"/>
<rect width="4.9951" height="9.94786" transform="matrix(0.994305 -0.10657 0.107688 0.994185 1 68.709)" fill="#FBB800"/>
<rect width="4.97462" height="9.98882" transform="matrix(0.209105 0.977893 -0.978262 0.207373 145.96 24.8965)" fill="#FF5859"/>
<g filter="url(#filter0_f_1396_39281)">
<ellipse cx="89.6234" cy="131.151" rx="50.1" ry="2.84981" fill="#E8ECF2"/>
</g>
<defs>
<filter id="filter0_f_1396_39281" x="31.5234" y="120.301" width="116.2" height="21.6992" filterUnits="userSpaceOnUse" color-interpolation-filters="sRGB">
<feFlood flood-opacity="0" result="BackgroundImageFix"/>
<feBlend mode="normal" in="SourceGraphic" in2="BackgroundImageFix" result="shape"/>
<feGaussianBlur stdDeviation="4" result="effect1_foregroundBlur_1396_39281"/>
</filter>
<linearGradient id="paint0_linear_1396_39281" x1="75.783" y1="88.1881" x2="75.783" y2="128.674" gradientUnits="userSpaceOnUse">
<stop stop-color="#FFD787"/>
<stop offset="1" stop-color="#006CFF"/>
</linearGradient>
<radialGradient id="paint1_radial_1396_39281" cx="0" cy="0" r="1" gradientUnits="userSpaceOnUse" gradientTransform="translate(67.5231 56.1235) rotate(-133.277) scale(83.8636 83.7887)">
<stop stop-color="#FBB800"/>
<stop offset="0.968378" stop-color="#FBB800" stop-opacity="0"/>
</radialGradient>
<linearGradient id="paint2_linear_1396_39281" x1="96.1559" y1="73.7016" x2="108.773" y2="145.823" gradientUnits="userSpaceOnUse">
<stop stop-color="#FFD787" stop-opacity="0"/>
<stop offset="1" stop-color="#006CFF" stop-opacity="0.46"/>
</linearGradient>
<radialGradient id="paint3_radial_1396_39281" cx="0" cy="0" r="1" gradientUnits="userSpaceOnUse" gradientTransform="translate(100.622 70.0932) rotate(-142.419) scale(91.4501 89.9855)">
<stop stop-color="#FFF1D5" stop-opacity="0.73"/>
<stop offset="1" stop-color="#FFD787" stop-opacity="0"/>
</radialGradient>
<linearGradient id="paint4_linear_1396_39281" x1="62.1699" y1="14.8213" x2="96.3681" y2="112.302" gradientUnits="userSpaceOnUse">
<stop stop-color="white"/>
<stop offset="1" stop-color="white" stop-opacity="0"/>
</linearGradient>
<clipPath id="clip0_1396_39281">
<rect width="104.902" height="104.447" fill="white" transform="translate(27.6816 8.96289)"/>
</clipPath>
</defs>
</svg>
