<svg width="16" height="16" viewBox="0 0 16 16" fill="none" xmlns="http://www.w3.org/2000/svg">
<path fill-rule="evenodd" clip-rule="evenodd" d="M8 16C12.4183 16 16 12.4183 16 8C16 3.58172 12.4183 0 8 0C3.58172 0 0 3.58172 0 8C0 12.4183 3.58172 16 8 16ZM6.63172 11.5218C6.69772 11.5218 6.73522 11.5173 6.74422 11.5083C6.75322 11.4993 6.76372 11.4738 6.77572 11.4318L7.50472 8.22778H8.17072L8.89972 11.4318C8.91172 11.4738 8.92222 11.4993 8.93122 11.5083C8.94022 11.5173 8.97772 11.5218 9.04372 11.5218H9.75472C9.80872 11.5218 9.84172 11.5173 9.85372 11.5083C9.86572 11.4993 9.87772 11.4738 9.88972 11.4318L10.6097 8.22778H11.6627C11.6927 8.22778 11.7197 8.21728 11.7437 8.19628C11.7677 8.17528 11.7797 8.14978 11.7797 8.11978V7.49878C11.7797 7.42678 11.7407 7.39078 11.6627 7.39078H10.7897L11.2937 5.17678C11.3057 5.13478 11.3057 5.10328 11.2937 5.08228C11.2817 5.06128 11.2367 5.05078 11.1587 5.05078H10.4837C10.4417 5.05078 10.4117 5.05528 10.3937 5.06428C10.3757 5.07328 10.3607 5.09878 10.3487 5.14078L9.85372 7.39078H8.85472L8.34172 5.14078C8.32972 5.09878 8.31622 5.07328 8.30122 5.06428C8.28622 5.05528 8.25772 5.05078 8.21572 5.05078H7.45972C7.41772 5.05078 7.38922 5.05528 7.37422 5.06428C7.35922 5.07328 7.34572 5.09878 7.33372 5.14078L6.82072 7.39078H5.82172L5.32672 5.14078C5.31472 5.09878 5.29972 5.07328 5.28172 5.06428C5.26372 5.05528 5.23372 5.05078 5.19172 5.05078H4.51672C4.43872 5.05078 4.39372 5.06128 4.38172 5.08228C4.36972 5.10328 4.36972 5.13478 4.38172 5.17678L4.88572 7.39078H4.00372C3.97372 7.39078 3.94672 7.40128 3.92272 7.42228C3.89872 7.44328 3.88672 7.46878 3.88672 7.49878V8.11978C3.88672 8.14978 3.89872 8.17528 3.92272 8.19628C3.94672 8.21728 3.97372 8.22778 4.00372 8.22778H5.06572L5.78572 11.4318C5.79772 11.4738 5.80972 11.4993 5.82172 11.5083C5.83372 11.5173 5.86672 11.5218 5.92072 11.5218H6.63172ZM7.70289 7.3913L7.83789 6.7793L7.97289 7.3913H7.70289ZM9.05273 8.22852L9.36773 9.62352L9.67373 8.22852H9.05273ZM6.30795 9.62352L6.00195 8.22852H6.62295L6.30795 9.62352Z" fill="#2581FF"/>
</svg>
