<svg width="70" height="70" viewBox="0 0 70 70" fill="none" xmlns="http://www.w3.org/2000/svg">
<g id="img_registrationNumberX">
<circle id="Oval" cx="35" cy="35" r="35" fill="#E8ECF2"/>
<g id="Group 10">
<path id="Rectangle" fill-rule="evenodd" clip-rule="evenodd" d="M17.5 14.375C17.5 14.1679 17.6679 14 17.875 14H50.375C50.5821 14 50.75 14.1679 50.75 14.375V54.75C50.75 54.9571 50.5821 55.125 50.375 55.125H23.9809L21.1661 51.8816C21.154 51.8676 21.1408 51.8545 21.1267 51.8425L17.5 48.7381V14.375Z" fill="url(#paint0_linear_928_27275)"/>
<g id="Group">
<rect id="Rectangle_2" x="28.3496" y="30.875" width="2.33333" height="14" transform="rotate(-45 28.3496 30.875)" fill="#FEFEFE"/>
<rect id="Rectangle_3" x="38.249" y="29.2246" width="2.33333" height="14" transform="rotate(45 38.249 29.2246)" fill="#FEFEFE"/>
</g>
<path id="Path 5" fill-rule="evenodd" clip-rule="evenodd" d="M23.9754 55.1252V49.1133C23.9754 48.9062 23.8075 48.7383 23.6004 48.7383H17.5L23.9754 55.1252Z" fill="#898E9B"/>
</g>
</g>
<defs>
<linearGradient id="paint0_linear_928_27275" x1="15.3371" y1="14" x2="15.3371" y2="60.4753" gradientUnits="userSpaceOnUse">
<stop stop-color="#898E9B"/>
<stop offset="1" stop-color="#A5ABBA"/>
</linearGradient>
</defs>
</svg>
