<svg width="64" height="28" viewBox="0 0 64 28" fill="none" xmlns="http://www.w3.org/2000/svg">
<path d="M0 5C0 2.23858 2.23858 0 5 0H59C61.7614 0 64 2.23858 64 5V23C64 25.7614 61.7614 28 59 28H5C2.23858 28 0 25.7614 0 23V5Z" fill="#F2F8FF"/>
<path fill-rule="evenodd" clip-rule="evenodd" d="M18.5 13.5V7.5C18.5 7.22386 18.2761 7 18 7C17.7239 7 17.5 7.22386 17.5 7.5V13.5H11.5C11.2239 13.5 11 13.7239 11 14C11 14.2761 11.2239 14.5 11.5 14.5H17.5V20.5C17.5 20.7761 17.7239 21 18 21C18.2761 21 18.5 20.7761 18.5 20.5V14.5H24.5C24.7761 14.5 25 14.2761 25 14C25 13.7239 24.7761 13.5 24.5 13.5H18.5Z" fill="#006CFF"/>
<path d="M37.3031 11.384H40.0471V16.872H41.2091V7.492H40.0471V10.432H37.3031V11.384ZM37.5971 14.786L38.1991 13.904C36.4071 13.232 35.1611 11.58 35.1611 9.83V8.234H34.0131V9.788C34.0131 11.692 32.7531 13.498 30.8771 14.17L31.4791 15.08C32.9491 14.478 34.0551 13.316 34.6011 11.804C35.1471 13.162 36.1971 14.24 37.5971 14.786ZM41.5031 19.756V18.818H34.2791V15.836H33.1311V19.756H41.5031ZM54.34 15.094V7.492H53.234V10.754H51.554V7.716H50.462V15.01H51.554V11.692H53.234V15.094H54.34ZM49.734 14.086L49.622 13.162C48.32 13.428 47.186 13.498 45.394 13.498V11.79H48.992V10.908H45.394V9.326H49.132V8.402H44.288V14.436H45.086C47.102 14.436 48.278 14.38 49.734 14.086ZM54.34 15.752H45.898V16.676H53.192V20.036H54.34V15.752Z" fill="#006CFF"/>
</svg>
