<svg width="90" height="28" viewBox="0 0 90 28" fill="none" xmlns="http://www.w3.org/2000/svg">
<path d="M0 5C0 2.23858 2.23858 0 5 0H85C87.7614 0 90 2.23858 90 5V23C90 25.7614 87.7614 28 85 28H5C2.23858 28 0 25.7614 0 23V5Z" fill="#F2F8FF"/>
<path fill-rule="evenodd" clip-rule="evenodd" d="M18 22C22.4183 22 26 18.4183 26 14C26 9.58172 22.4183 6 18 6C13.5817 6 10 9.58172 10 14C10 18.4183 13.5817 22 18 22ZM21.9614 11.6875C22.0538 11.4698 21.9769 11.2119 21.7672 11.0795C21.5313 10.9306 21.2166 10.9969 21.0643 11.2277L17.7583 16.2363L14.8529 13.618L14.7802 13.5633C14.5766 13.4371 14.3036 13.4672 14.1345 13.6467C13.9442 13.8487 13.9574 14.1633 14.1639 14.3494L17.5141 17.3684L17.5875 17.4235C17.8179 17.5662 18.1319 17.5057 18.2858 17.2723L21.9187 11.767L21.9614 11.6875Z" fill="#006CFF"/>
<path d="M37.4242 11.384H40.1682V16.872H41.3302V7.492H40.1682V10.432H37.4242V11.384ZM37.7182 14.786L38.3202 13.904C36.5282 13.232 35.2822 11.58 35.2822 9.83V8.234H34.1342V9.788C34.1342 11.692 32.8742 13.498 30.9982 14.17L31.6002 15.08C33.0702 14.478 34.1762 13.316 34.7222 11.804C35.2682 13.162 36.3182 14.24 37.7182 14.786ZM41.6242 19.756V18.818H34.4002V15.836H33.2522V19.756H41.6242ZM54.4611 15.094V7.492H53.3551V10.754H51.6751V7.716H50.5831V15.01H51.6751V11.692H53.3551V15.094H54.4611ZM49.8551 14.086L49.7431 13.162C48.4411 13.428 47.3071 13.498 45.5151 13.498V11.79H49.1131V10.908H45.5151V9.326H49.2531V8.402H44.4091V14.436H45.2071C47.2231 14.436 48.3991 14.38 49.8551 14.086ZM54.4611 15.752H46.0191V16.676H53.3131V20.036H54.4611V15.752ZM68.32 12.686V11.734H66.472V7.492H65.324V17.096H66.472V12.686H68.32ZM64.624 14.716L64.54 13.876C63.462 14.044 62.314 14.128 61.138 14.198V12.966C62.65 12.784 63.644 11.874 63.644 10.53C63.644 9.06 62.384 8.066 60.55 8.066C58.716 8.066 57.456 9.06 57.456 10.53C57.456 11.874 58.464 12.798 59.99 12.98V14.24C58.814 14.282 57.694 14.296 56.728 14.296L56.882 15.234C59.024 15.234 62.02 15.206 64.624 14.716ZM58.52 10.53C58.52 9.578 59.318 8.934 60.55 8.934C61.726 8.934 62.566 9.578 62.566 10.53C62.566 11.496 61.726 12.126 60.55 12.126C59.318 12.126 58.52 11.496 58.52 10.53ZM66.92 18.804H59.682V16.284H58.534V19.742H66.92V18.804ZM81.0169 18.482V17.544H77.9369V15.164H79.8969V14.226H72.1689V12.21H79.6029V8.402H71.0069V9.34H78.4829V11.286H71.0349V15.164H72.7989V17.544H69.6069V18.482H81.0169ZM76.8029 17.544H73.9329V15.164H76.8029V17.544Z" fill="#006CFF"/>
</svg>
