<svg width="143" height="136" viewBox="0 0 143 136" fill="none" xmlns="http://www.w3.org/2000/svg">
<ellipse cx="72.3332" cy="57.5331" rx="44.8686" ry="44.9589" fill="#FFD787"/>
<ellipse cx="72.3332" cy="57.5331" rx="44.8686" ry="44.9589" fill="url(#paint0_radial_1396_39280)" fill-opacity="0.6"/>
<path d="M56.3201 63.8795C56.3201 65.5657 54.9493 66.9366 53.2536 66.9366C51.5579 66.9366 50.1871 65.5657 50.1871 63.8795C50.1871 62.1932 51.5579 60.8224 53.2536 60.8224C54.9493 60.8224 56.3201 62.1932 56.3201 63.8795Z" fill="#664500" stroke="#664500" stroke-width="1.94159"/>
<path d="M94.6739 63.8795C94.6739 65.5657 93.3031 66.9366 91.6074 66.9366C89.9117 66.9366 88.5409 65.5657 88.5409 63.8795C88.5409 62.1932 89.9117 60.8224 91.6074 60.8224C93.3031 60.8224 94.6739 62.1932 94.6739 63.8795Z" fill="#664500" stroke="#664500" stroke-width="1.94159"/>
<path d="M86.5076 76.3499C86.9464 75.8193 86.9526 75.0532 86.5223 74.5156C86.0921 73.9779 85.3438 73.8164 84.7303 74.1289C80.5628 76.2515 69.7052 79.2163 59.9495 74.1349C59.3367 73.8158 58.5841 73.9728 58.1498 74.5104C57.7156 75.048 57.7201 75.8174 58.1605 76.3499C59.0331 77.4052 60.2543 78.2987 61.6923 79.019C63.1362 79.7422 64.8171 80.3002 66.6317 80.6767C68.4487 81.0537 70.3852 81.2457 72.334 81.2457C74.2828 81.2457 76.2194 81.0537 78.0363 80.6767C79.851 80.3002 81.5319 79.7422 82.9757 79.019C84.4138 78.2987 85.6349 77.4052 86.5076 76.3499Z" fill="#664500"/>
<rect width="4.98565" height="9.97668" transform="matrix(-0.959556 0.281518 -0.281187 -0.959653 18.3262 33.5996)" fill="#3389FF"/>
<rect width="4.98845" height="9.97109" transform="matrix(-0.21313 -0.977024 0.976967 -0.213391 104.481 111.02)" fill="#FBB800"/>
<rect width="4.98605" height="9.97589" transform="matrix(0.892579 0.45089 -0.450431 0.892811 138.549 77.6074)" fill="#61BB56"/>
<rect width="4.98846" height="9.97108" transform="matrix(0.20811 0.978105 -0.978051 0.208365 116.164 0)" fill="#FF5859"/>
<rect width="4.98848" height="9.97104" transform="matrix(-0.190103 -0.981764 0.981719 -0.190337 0.948242 109.285)" fill="#99C4FF"/>
<g filter="url(#filter0_f_1396_39280)">
<ellipse cx="72.3335" cy="118.142" rx="25.9241" ry="2.85835" fill="#E8ECF2"/>
</g>
<defs>
<filter id="filter0_f_1396_39280" x="38.4094" y="107.283" width="67.8481" height="21.7168" filterUnits="userSpaceOnUse" color-interpolation-filters="sRGB">
<feFlood flood-opacity="0" result="BackgroundImageFix"/>
<feBlend mode="normal" in="SourceGraphic" in2="BackgroundImageFix" result="shape"/>
<feGaussianBlur stdDeviation="4" result="effect1_foregroundBlur_1396_39280"/>
</filter>
<radialGradient id="paint0_radial_1396_39280" cx="0" cy="0" r="1" gradientUnits="userSpaceOnUse" gradientTransform="translate(64.0644 29.4907) rotate(85.4379) scale(103.958 103.807)">
<stop stop-color="white"/>
<stop offset="0.551687" stop-color="white" stop-opacity="0"/>
</radialGradient>
</defs>
</svg>
