<?xml version="1.0" encoding="UTF-8"?>
<svg width="19px" height="21px" viewBox="0 0 19 21" version="1.1" xmlns="http://www.w3.org/2000/svg" xmlns:xlink="http://www.w3.org/1999/xlink">
    <title>icon-playstore</title>
    <g id="Page-1" stroke="none" stroke-width="1" fill="none" fill-rule="evenodd">
        <g id="1920/편집모드_서비스/제품_정보없을때" transform="translate(-881.000000, -1633.000000)" fill="#5B606B">
            <g id="서비스/제품1" transform="translate(472.000000, 534.000000)">
                <g id="SNS_instagram" transform="translate(396.000000, 1086.000000)">
                    <g id="icon-playstore" transform="translate(13.000000, 13.000000)">
                        <path d="M0.0510120629,0.92 L9.86063176,10.636112 L0.156436993,20.504 C0.0727772098,20.4237056 0.0228534042,20.3434112 0.00623027329,20.2238444 L5.25801624e-13,20.126192 L5.25801624e-13,1.171328 C5.25801624e-13,1.104416 0.011336014,1.04874667 0.0264506993,0.996583111 L0.0510120629,0.92 Z M10.5161368,11.289728 L13.0250801,13.774448 L2.37971274,19.599056 L2.37971274,19.599056 L10.5161368,11.289728 Z M11.1971478,10.611632 L13.916941,7.846208 L15.0674597,8.49219799 L15.0674597,8.49219799 L18.0999301,10.159568 L18.0999301,10.159568 C18.5216298,10.360304 18.5717917,10.737296 18.0752743,11.013104 L13.8888843,13.297904 L11.1971478,10.611632 Z M10.515,9.957 L1.56351973,1.066064 L9.43043003,5.389232 L13.0505861,7.372928 L10.515,9.957 Z" id="Shape"></path>
                    </g>
                </g>
            </g>
        </g>
    </g>
</svg>