<?xml version="1.0" encoding="UTF-8"?>
<svg width="24px" height="24px" viewBox="0 0 24 24" version="1.1" xmlns="http://www.w3.org/2000/svg" xmlns:xlink="http://www.w3.org/1999/xlink">
    <title>icon-apple</title>
    <g id="Page-1" stroke="none" stroke-width="1" fill="none" fill-rule="evenodd">
        <g id="1920/편집모드_서비스/제품_정보없을때" transform="translate(-502.000000, -1696.000000)">
            <g id="서비스/제품1" transform="translate(472.000000, 534.000000)">
                <g id="SNS_instagram" transform="translate(20.000000, 1150.000000)">
                    <g id="icon-apple" transform="translate(10.000000, 12.000000)">
                        <rect id="Rectangle" x="0" y="0" width="24" height="24"></rect>
                        <path d="M15.0335782,3.45547791 C15.7579807,2.59528374 16.2357598,1.39254191 16.1034253,0.2 C15.0662322,0.2441997 13.815929,0.884245356 13.068325,1.74528951 C12.3980593,2.50688434 11.8188811,3.73257603 11.9744171,4.90216809 C13.1233212,4.99056749 14.3065978,4.31737206 15.0327189,3.4563279 L15.0335782,3.45547791 Z M12.1308124,6.06156022 C11.3161818,6.06156022 10.0555668,5.14526644 8.72792527,5.17756622 C6.97492281,5.20051606 5.36800389,6.18310939 4.46486389,7.73944883 C2.64483486,10.8631776 3.99567794,15.4769463 5.77016327,18.0158791 C6.6406493,19.2517707 7.66753065,20.6423613 9.0286855,20.5990116 C10.3348442,20.5437619 10.8246537,19.7600673 12.4100898,19.7600673 C13.9826361,19.7600673 14.4294798,20.5990116 15.8121176,20.5658618 C17.2196754,20.5437619 18.1125036,19.3078703 18.9718186,18.0600788 C19.9643273,16.6252885 20.3776578,15.232998 20.4,15.1573485 C20.3664867,15.1462986 17.6656599,14.1195055 17.6321466,11.0289265 C17.6106637,8.44494404 19.7641069,7.20905243 19.8646468,7.15380281 C18.6358264,5.37731486 16.7513488,5.17841621 16.0913949,5.13421651 C14.3727651,5.00161741 12.9342719,6.06071023 12.1308124,6.06071023 L12.1308124,6.06156022 Z" id="Fill-1" fill="#5B606B"></path>
                    </g>
                </g>
            </g>
        </g>
    </g>
</svg>