<svg xmlns="http://www.w3.org/2000/svg" width="20" height="20" viewBox="0 0 20 20">
    <g fill="none">
        <path fill="#D1D1D1" d="M0 10C0 4.477 4.477 0 10 0s10 4.477 10 10-4.477 10-10 10S0 15.523 0 10z"/>
        <path fill="#FEFEFE" d="M11.628 5.9c.382-.492.671-1.189.567-1.9-.624.043-1.354.443-1.78.963-.387.472-.706 1.173-.582 1.854.682.021 1.386-.388 1.795-.916zM15 12.59c-.273.608-.404.88-.756 1.419-.49.752-1.182 1.69-2.04 1.696-.762.008-.959-.499-1.992-.493-1.034.006-1.25.503-2.013.495-.857-.007-1.513-.853-2.003-1.605-1.373-2.102-1.517-4.57-.67-5.883.601-.932 1.551-1.477 2.443-1.477.908 0 1.48.5 2.232.5.729 0 1.173-.502 2.223-.502.796 0 1.638.436 2.237 1.188-1.965 1.083-1.647 3.906.339 4.662z"/>
    </g>
</svg>
