<svg xmlns="http://www.w3.org/2000/svg" width="20" height="20" viewBox="0 0 20 20">
    <g fill="none">
        <circle cx="10" cy="10" r="10" fill="#D1D1D1"/>
        <g fill="#FFF">
            <path d="M8.353 8.019l2.625-1.456c.296-.164.607-.584 0-.92-.196-.107-1.26-.695-2.627-1.45L6.471 6.11 8.353 8.02zM6.47 6.111L.458 12.25c.136.017.299-.02.487-.124L8.353 8.02 6.47 6.11z" transform="translate(5.833 3.75)"/>
            <path d="M6.47 6.111l1.881-1.919L.944.1C.783.01.608-.021.452.014l6.019 6.097z" transform="translate(5.833 3.75)"/>
            <path d="M6.47 6.111L.453.014C.204.07 0 .288 0 .726v10.792c0 .412.16.703.457.732L6.47 6.11z" transform="translate(5.833 3.75)"/>
        </g>
        <path fill="#D1D1D1" d="M6.087 16.497L5.793 16.202 14.418 7.577 14.712 7.872z"/>
        <path fill="#D1D1D1" d="M5.9 3.659L6.195 3.364 14.766 11.936 14.472 12.231z"/>
    </g>
</svg>
