<svg xmlns="http://www.w3.org/2000/svg" width="80" height="80" viewBox="0 0 80 80">
    <g fill="none" fill-rule="evenodd">
        <rect width="80" height="80" fill="#D1D1D1" rx="40"/>
        <g fill="#FEFEFE" fill-rule="nonzero">
            <path d="M38.572 31.087h2.334a.902.902 0 0 0 .902-.913c0-.509-.4-.913-.902-.913h-2.334a.902.902 0 0 0-.903.913.91.91 0 0 0 .903.913zM38.572 36.187h2.334a.902.902 0 0 0 .902-.913c0-.509-.4-.913-.902-.913h-2.334a.902.902 0 0 0-.903.913.91.91 0 0 0 .903.913zM45.019 31.087h2.334a.902.902 0 0 0 .903-.913c0-.509-.4-.913-.903-.913h-2.334a.902.902 0 0 0-.903.913.91.91 0 0 0 .903.913zM45.019 36.187h2.334a.902.902 0 0 0 .903-.913c0-.509-.4-.913-.903-.913h-2.334a.902.902 0 0 0-.903.913.91.91 0 0 0 .903.913zM32.124 31.087h2.334a.902.902 0 0 0 .903-.913c0-.509-.4-.913-.903-.913h-2.334a.902.902 0 0 0-.902.913.91.91 0 0 0 .902.913zM32.124 36.187h2.334a.902.902 0 0 0 .903-.913c0-.509-.4-.913-.903-.913h-2.334a.902.902 0 0 0-.902.913.91.91 0 0 0 .902.913zM38.572 25.87h2.334a.902.902 0 0 0 .902-.913c0-.51-.4-.914-.902-.914h-2.334a.902.902 0 0 0-.903.914.91.91 0 0 0 .903.913zM45.019 25.87h2.334a.902.902 0 0 0 .903-.913c0-.51-.4-.914-.903-.914h-2.334a.902.902 0 0 0-.903.914.91.91 0 0 0 .903.913zM32.124 25.87h2.334a.902.902 0 0 0 .903-.913c0-.51-.4-.914-.903-.914h-2.334a.902.902 0 0 0-.902.914.91.91 0 0 0 .902.913zM38.572 41.404h2.334a.902.902 0 0 0 .902-.913c0-.508-.4-.913-.902-.913h-2.334a.902.902 0 0 0-.903.913.91.91 0 0 0 .903.913zM45.019 41.404h2.334a.902.902 0 0 0 .903-.913c0-.508-.4-.913-.903-.913h-2.334a.902.902 0 0 0-.903.913.91.91 0 0 0 .903.913zM32.124 41.404h2.334a.902.902 0 0 0 .903-.913c0-.508-.4-.913-.903-.913h-2.334a.902.902 0 0 0-.902.913.91.91 0 0 0 .902.913zM38.572 46.622h2.334a.902.902 0 0 0 .902-.913c0-.509-.4-.913-.902-.913h-2.334a.902.902 0 0 0-.903.913.91.91 0 0 0 .903.913zM45.019 46.622h2.334a.902.902 0 0 0 .903-.913c0-.509-.4-.913-.903-.913h-2.334a.902.902 0 0 0-.903.913.91.91 0 0 0 .903.913zM35.36 45.709c0-.509-.399-.913-.902-.913h-2.334a.902.902 0 0 0-.902.913c0 .508.4.913.902.913h2.334a.902.902 0 0 0 .903-.913zM53.413 31.087h5.7a.902.902 0 0 0 .903-.913c0-.509-.4-.913-.903-.913h-5.7a.902.902 0 0 0-.902.913c0 .509.4.913.902.913zM53.413 36.187h5.7a.902.902 0 0 0 .903-.913c0-.509-.4-.913-.903-.913h-5.7a.902.902 0 0 0-.902.913c0 .509.4.913.902.913zM53.413 41.404h5.7a.902.902 0 0 0 .903-.913c0-.508-.4-.913-.903-.913h-5.7a.902.902 0 0 0-.902.913c0 .509.4.913.902.913zM53.413 46.622h5.7a.902.902 0 0 0 .903-.913c0-.509-.4-.913-.903-.913h-5.7a.902.902 0 0 0-.902.913c0 .508.4.913.902.913z"/>
            <path d="M16.019 58.922H62.98a.902.902 0 0 0 .903-.913V25.36c0-.509-.4-.913-.903-.913H50.963v-3c0-.509-.4-.913-.902-.913h-2.257v-2.518c0-.508-.4-.913-.902-.913H32.588a.902.902 0 0 0-.902.913v2.518h-2.257a.902.902 0 0 0-.902.913v13.435H16.019a.902.902 0 0 0-.903.913v22.213c0 .508.4.913.903.913zm42.191-1.826h-3.894V51.07h3.894v6.026zm3.869-30.822v30.822h-2.063v-6.94c0-.508-.4-.913-.903-.913h-5.7a.902.902 0 0 0-.902.914v6.939h-1.548V26.274H62.08zM24.684 57.096H20.79V51.07h3.894v6.026zm17.279 0h-4.836V51.07h4.836v6.026zM33.49 18.93h12.495v1.605H33.491V18.93zm-3.16 3.43h18.827v34.736h-5.39v-6.94c0-.508-.4-.913-.902-.913h-6.641a.902.902 0 0 0-.903.914v6.939h-4.99V22.36zM16.922 36.71h11.606v20.387h-2.038v-6.94c0-.508-.4-.913-.902-.913h-5.7a.902.902 0 0 0-.903.914v6.939h-2.063V36.709z"/>
            <path d="M19.887 41.404h5.7a.902.902 0 0 0 .902-.913c0-.508-.4-.913-.902-.913h-5.7a.902.902 0 0 0-.903.913c0 .509.4.913.903.913zM19.887 46.622h5.7a.902.902 0 0 0 .902-.913c0-.509-.4-.913-.902-.913h-5.7a.902.902 0 0 0-.903.913c0 .508.4.913.903.913z"/>
        </g>
    </g>
</svg>
