
<svg xmlns="http://www.w3.org/2000/svg" width="60" height="60" viewBox="0 0 60 60">
    <g fill="none" fill-rule="evenodd">
        <circle cx="30" cy="30" r="29.5" stroke="#2581FF"/>
        <g transform="rotate(45 10.546 49.36)">
            <path fill="#D3E6FF" d="M3.856 19.878C1.76 21.907.528 24.112.156 26.495c-.325 2.07-.142 4.231.548 6.484.105.341.465.533.806.428.106-.032.202-.091.278-.171l3.974-4.166.37-.371"/>
            <path stroke="#2781FE" d="M3.593 20.86C1.944 22.64.967 24.543.649 26.573c-.312 1.993-.135 4.078.533 6.261.024.077.105.12.182.096.024-.007.045-.02.062-.038l3.983-4.175.168-.169-1.984-7.686z"/>
            <path fill="#D3E6FF" d="M16.131 19.878c2.095 2.029 3.328 4.234 3.7 6.617.325 2.07.141 4.231-.548 6.484-.105.341-.466.533-.806.428-.106-.032-.202-.091-.278-.171l-3.974-4.166-.261-.261"/>
            <path stroke="#D3E6FF" d="M16.405 20.872c1.642 1.776 2.616 3.674 2.933 5.7.311 1.993.135 4.078-.534 6.261-.023.077-.104.12-.18.096-.025-.007-.046-.02-.064-.038l-3.982-4.175-.062-.062 1.889-7.782z"/>
            <path stroke="#2781FE" d="M16.405 20.872c1.642 1.776 2.616 3.674 2.933 5.7.311 1.993.135 4.078-.534 6.261-.023.077-.104.12-.18.096-.025-.007-.046-.02-.064-.038l-3.982-4.175-.062-.062 1.889-7.782zM6.425 29.831h7.024c1.972-4.293 2.78-9.29 2.421-14.996-.346-5.487-2.221-10.1-5.63-13.857l-.023-.023c-.126-.113-.32-.101-.433.025-3.55 3.995-5.439 8.604-5.676 13.846-.246 5.449.527 10.449 2.317 15.005z"/>
            <ellipse cx="9.962" cy="14.964" fill="#D3E6FF" stroke="#2581FF" rx="2.797" ry="2.816"/>
            <path stroke="#2581FF" stroke-linecap="round" stroke-linejoin="round" d="M10.02.971l-.058 7.565M9.962 20.221v6.274"/>
            <path stroke="#2781FE" stroke-linecap="round" stroke-linejoin="round" d="M10.008 31.762v9.206M7.741 33.325v6.261M12.365 33.325v6.261"/>
        </g>
    </g>
</svg>
