<?xml version="1.0" encoding="UTF-8"?>
<svg width="17px" height="16px" viewBox="0 0 17 16" version="1.1" xmlns="http://www.w3.org/2000/svg" xmlns:xlink="http://www.w3.org/1999/xlink">
    <!-- Generator: sketchtool 53 (72520) - https://sketchapp.com -->
    <title>37FD1D53-13B8-48AB-B6AB-860A773975DA</title>
    <desc>Created with sketchtool.</desc>
    <g id="Page-1" stroke="none" stroke-width="1" fill="none" fill-rule="evenodd">
        <g id="1920/Startup_pre_alert" transform="translate(-140.000000, -774.000000)">
            <g id="contents" transform="translate(125.000000, 418.000000)">
                <g id="alertBox" transform="translate(4.000000, 345.000000)">
                    <g id="alert" transform="translate(11.178630, 11.000000)">
                        <circle id="Oval" stroke="#ff5859" cx="8" cy="8" r="7.5"></circle>
                        <path d="M8.404,6.256 C8.404,6.92800336 8.38000024,7.53799726 8.332,8.086 C8.28399976,8.63400274 8.22400036,9.17999728 8.152,9.724 L7.456,9.724 C7.38399964,9.17999728 7.32400024,8.63400274 7.276,8.086 C7.22799976,7.53799726 7.204,6.92800336 7.204,6.256 L7.204,4 L8.404,4 L8.404,6.256 Z M8.608,11.668 C8.608,11.8840011 8.53600072,12.0719992 8.392,12.232 C8.24799928,12.3920008 8.05200124,12.472 7.804,12.472 C7.55599876,12.472 7.36000072,12.3920008 7.216,12.232 C7.07199928,12.0719992 7,11.8840011 7,11.668 C7,11.4519989 7.07199928,11.2640008 7.216,11.104 C7.36000072,10.9439992 7.55599876,10.864 7.804,10.864 C8.05200124,10.864 8.24799928,10.9439992 8.392,11.104 C8.53600072,11.2640008 8.608,11.4519989 8.608,11.668 Z" id="!" fill="#ff5859" fill-rule="nonzero"></path>
                    </g>
                </g>
            </g>
        </g>
    </g>
</svg>
