<svg xmlns="http://www.w3.org/2000/svg" width="60" height="60" viewBox="0 0 60 60">
    <g fill="none" fill-rule="evenodd">
        <path fill="#D3E6FF" d="M36.333 41.309L39.181 41.393 39.181 28.013 36.333 29.795zM30.556 41.5L30.5 17 24.778 20.5 24.778 41.5zM17.667 41.309L21.93 41.408 21.93 28.313 17.667 30.491z"/>
        <path stroke="#2581FF" d="M24.778 29.879l-2.159-1.414c-.422-.277-.964-.292-1.4-.038l-2.889 1.678c-.41.24-.663.678-.663 1.153v10.135M21.93 28.013v13.479M30.556 17v24.492"/>
        <path stroke="#2581FF" d="M24.778 41.492V21.246c0-.463.24-.893.635-1.136l4.373-2.687c.424-.26.956-.263 1.382-.009l4.516 2.698c.403.241.65.676.65 1.145v20.235"/>
        <path stroke="#2581FF" stroke-linecap="round" stroke-linejoin="round" d="M15 41.393l31.243.099"/>
        <path stroke="#2581FF" d="M36.333 29.795l2.16-1.415c.421-.276.963-.29 1.4-.037l2.888 1.678c.41.239.663.678.663 1.153v10.135M39.18 27.93v13.478"/>
        <path stroke="#2581FF" stroke-linecap="round" stroke-linejoin="round" d="M33 22.07l5.333 3.148"/>
        <circle cx="30" cy="30" r="29.5" stroke="#2581FF"/>
    </g>
</svg>
