<svg xmlns="http://www.w3.org/2000/svg" xmlns:xlink="http://www.w3.org/1999/xlink" width="100" height="120" viewBox="0 0 100 120">
    <defs>
        <path id="trgp6igsqa" d="M0 0.246L99.869 0.246 99.869 119 0 119z"/>
        <path id="k9odgzvsyc" d="M0 119.5L100 119.5 100 0.5 0 0.5z"/>
    </defs>
    <g fill="none" fill-rule="evenodd">
        <g>
            <g transform="translate(-334 -607) translate(334 607)">
                <g transform="translate(0 .5)">
                    <mask id="5wwk38s18b" fill="#fff">
                        <use xlink:href="#trgp6igsqa"/>
                    </mask>
                    <path fill="#E2E4E7" d="M99.869 6.366c0-3.38-2.77-6.12-6.189-6.12H6.188C2.771.245 0 2.985 0 6.365V112.88c0 3.38 2.771 6.12 6.188 6.12h55.305l38.376-38.238V6.366z" mask="url(#5wwk38s18b)"/>
                </g>
                <path fill="#C2C6CC" d="M61.24 119.5L61 87.862c-.024-3.36 2.753-6.103 6.205-6.128L100 81.5l-38.76 38z"/>
                <mask id="827jws76jd" fill="#fff">
                    <use xlink:href="#k9odgzvsyc"/>
                </mask>
                <path fill="#C2C6CC" d="M11 20.5L89 20.5 89 18.5 11 18.5zM11 41.5L89 41.5 89 39.5 11 39.5zM11 62.5L89 62.5 89 60.5 11 60.5z" mask="url(#827jws76jd)"/>
            </g>
        </g>
    </g>
</svg>
