<svg xmlns="http://www.w3.org/2000/svg" width="130" height="76" viewBox="0 0 130 76">
    <defs>
        <filter id="ac6frl7epa">
            <feColorMatrix in="SourceGraphic" values="0 0 0 0 0.996078 0 0 0 0 0.996078 0 0 0 0 0.996078 0 0 0 1.000000 0"/>
        </filter>
        <filter id="hzgrqixcpb">
            <feColorMatrix in="SourceGraphic" values="0 0 0 0 0.839216 0 0 0 0 0.854902 0 0 0 0 0.890196 0 0 0 1.000000 0"/>
        </filter>
    </defs>
    <g fill="none" fill-rule="evenodd">
        <g filter="url(#ac6frl7epa)" transform="translate(-499 -1677)">
            <g filter="url(#hzgrqixcpb)" transform="translate(499 1677)">
                <path fill="#D6DAE3" d="M14.593 4.238c1.37-.393 2.875-.844 4.525-1.357 1.645-.51 3.498-.977 5.547-1.411 2.052-.43 4.342-.783 6.874-1.06C34.075.137 36.946 0 40.165 0c9.487 0 16 2.666 19.542 8.005 3.536 5.336 4.138 12.637 1.806 21.897l-8.202 33.431H35.34l7.96-32.728c.483-2.036.865-4.019 1.149-5.944.28-1.92.258-3.61-.064-5.062-.322-1.449-1.064-2.628-2.23-3.53-1.167-.903-2.956-1.354-5.365-1.354-2.337 0-4.707.236-7.116.703l-11.7 47.915H0L14.593 4.238zM115.407 71.762c-1.37.393-2.875.844-4.525 1.357-1.645.509-3.499.977-5.546 1.411-2.053.43-4.343.783-6.875 1.06-2.536.273-5.407.41-8.626.41-9.486 0-16-2.666-19.541-8.005-3.537-5.336-4.14-12.637-1.807-21.896l8.202-33.432H94.66l-7.96 32.728c-.483 2.037-.865 4.02-1.15 5.944-.279 1.92-.258 3.609.065 5.062.322 1.449 1.064 2.628 2.23 3.53 1.167.903 2.956 1.354 5.365 1.354 2.337 0 4.707-.236 7.116-.703l11.7-47.915H130l-14.593 59.095z"/>
            </g>
        </g>
    </g>
</svg>
