<svg xmlns="http://www.w3.org/2000/svg" xmlns:xlink="http://www.w3.org/1999/xlink" width="160" height="160" viewBox="0 0 160 160">
    <defs>
        <path id="txijn8y4qa" d="M0 0L39.621 0 39.621 40.872 0 40.872z"/>
        <path id="bkhawofcdc" d="M0 0L39.621 0 39.621 40.872 0 40.872z"/>
    </defs>
    <g fill="none" fill-rule="evenodd">
        <g>
            <g>
                <g transform="translate(-448 -180) translate(216) translate(232 180)">
                    <rect width="160" height="160" fill="#E8ECF2" rx="5"/>
                    <g>
                        <g transform="translate(39 59)">
                            <mask id="5m5xolnhvb" fill="#fff">
                                <use xlink:href="#txijn8y4qa"/>
                            </mask>
                            <path fill="#FEFEFE" d="M9.192 2.735c.862-.253 1.81-.545 2.85-.876 1.036-.329 2.204-.63 3.494-.91C16.829.67 18.27.442 19.866.263 21.463.088 23.272 0 25.299 0c5.975 0 10.078 1.72 12.309 5.166 2.228 3.443 2.607 8.155 1.138 14.13L33.58 40.873H22.259l5.014-21.121c.304-1.315.545-2.594.724-3.836.176-1.24.163-2.33-.04-3.267-.203-.935-.67-1.696-1.405-2.279-.735-.582-1.862-.873-3.38-.873-1.471 0-2.964.152-4.482.454l-7.37 30.922H0L9.192 2.735z" mask="url(#5m5xolnhvb)"/>
                        </g>
                        <g transform="translate(39 59) translate(42 12)">
                            <mask id="50nr552t4d" fill="#fff">
                                <use xlink:href="#bkhawofcdc"/>
                            </mask>
                            <path fill="#FEFEFE" d="M30.43 38.137c-.863.253-1.811.544-2.85.876-1.037.328-2.204.63-3.494.91-1.293.278-2.736.505-4.33.684-1.598.177-3.406.265-5.433.265-5.976 0-10.079-1.72-12.31-5.166C-.213 32.263-.592 27.55.877 21.576L6.042 0h11.32L12.35 21.12c-.305 1.315-.545 2.595-.724 3.837-.177 1.24-.163 2.329.04 3.267.203.935.67 1.696 1.405 2.278.734.583 1.862.874 3.379.874 1.472 0 2.965-.152 4.482-.454L28.301 0h11.32L30.43 38.137z" mask="url(#50nr552t4d)"/>
                        </g>
                    </g>
                </g>
            </g>
        </g>
    </g>
</svg>
