<svg xmlns="http://www.w3.org/2000/svg" width="32" height="32" viewBox="0 0 32 32">
    <g fill="none" fill-rule="evenodd">
        <g>
            <g>
                <g transform="translate(-213 -95) translate(76 81) translate(137 14)">
                    <circle cx="16" cy="16" r="16" fill="#FEFEFE"/>
                    <path fill="#519AFF" fill-rule="nonzero" d="M13.264 23.044c.132 0 .207-.009.225-.027.018-.018.039-.069.063-.153l1.458-6.408h1.332l1.458 6.408c.024.084.045.135.063.153.018.018.093.027.225.027h1.422c.108 0 .174-.009.198-.027.024-.018.048-.069.072-.153l1.44-6.408h2.106c.06 0 .114-.021.162-.063.048-.042.072-.093.072-.153v-1.242c0-.144-.078-.216-.234-.216H21.58l1.008-4.428c.024-.084.024-.147 0-.189-.024-.042-.114-.063-.27-.063h-1.35c-.084 0-.144.009-.18.027-.036.018-.066.069-.09.153l-.99 4.5H17.71l-1.026-4.5c-.024-.084-.051-.135-.081-.153-.03-.018-.087-.027-.171-.027H14.92c-.084 0-.141.009-.171.027-.03.018-.057.069-.081.153l-1.026 4.5h-1.998l-.99-4.5c-.024-.084-.054-.135-.09-.153-.036-.018-.096-.027-.18-.027h-1.35c-.156 0-.246.021-.27.063-.024.042-.024.105 0 .189l1.008 4.428H8.008c-.06 0-.114.021-.162.063-.048.042-.072.093-.072.153v1.242c0 .06.024.111.072.153.048.042.102.063.162.063h2.124l1.44 6.408c.024.084.048.135.072.153.024.018.09.027.198.027h1.422zm2.682-8.262h-.54l.27-1.224.27 1.224zm2.79 4.464l-.63-2.79h1.242l-.612 2.79zm-6.12 0l-.612-2.79h1.242l-.63 2.79z"/>
                </g>
            </g>
        </g>
    </g>
</svg>
