<svg width="664" height="74" xmlns="http://www.w3.org/2000/svg" xmlns:xlink="http://www.w3.org/1999/xlink">
    <defs>
        <rect id="a" x="0" y="0" width="664" height="60" rx="5"/>
    </defs>
    <g fill="none" fill-rule="evenodd">
        <g transform="translate(0 14)">
            <mask id="b" fill="#fff">
                <use xlink:href="#a"/>
            </mask>
            <use fill="#519AFF" xlink:href="#a"/>
            <path d="M52.028-24.91c26.933-13.04 70.9 5.173 70.754 53.637a93.637 93.637 0 0 1-.148 5.002c3.37-.811 7.565-1.07 13.275-.304 21.175 2.839 40.31 30.85 21.287 59.477-19.023 28.626-52.716 31.906-82.913 23.704a75.766 75.766 0 0 1-10.488-3.678c-6.324 3.06-12.907 5.69-19.614 7.898-65.163 21.45-118.232-27.87-92.596-73.227C-35.762 25.214-22.439 22.35-9.9 21.405l1.317-.093 4.558-.28 2.195-1.546C3.758 16.667 10 15.771 18.19 16c1.828-6.947 2.963-9.617 5.073-13.481l.389-.725.375-.725.364-.726.355-.726.52-1.09 4.455-1.957.516-1.065.265-.532.408-.8.423-.798.442-.8.306-.532.157-.266.322-.533.334-.533.171-.266.353-.533.366-.532a35 35 0 0 1 .188-.266l.39-.533.404-.532a34.026 34.026 0 0 1 2.04-2.393l.507-.531c3.281-3.365 7.858-6.716 14.715-10.036z" fill="#FEFEFE" opacity=".2" mask="url(#b)"/>
        </g>
        <g transform="translate(91)">
            <path d="M26.5 0C41.136 0 53 8.825 53 19.71c0 10.887-11.864 19.712-26.5 19.712-4.274 0-8.312-.753-11.887-2.09l-8.065 2.594a1.6 1.6 0 0 1-1.962-2.15l2.115-4.963C2.533 29.33 0 24.74 0 19.71 0 8.825 11.864 0 26.5 0z" fill="#E8ECF2"/>
            <ellipse fill="#2A375D" cx="26.5" cy="20.002" rx="2.409" ry="2.4"/>
            <ellipse fill="#2A375D" cx="15.258" cy="20.002" rx="2.409" ry="2.4"/>
            <ellipse fill="#2A375D" cx="37.742" cy="20.002" rx="2.409" ry="2.4"/>
        </g>
        <g transform="translate(31 33)">
            <ellipse fill="#2581FF" cx="47.111" cy="9.804" rx="9.778" ry="9.804"/>
            <path d="M47.111 21.391C56.44 21.391 64 29.372 64 39.217c0 .602-.028 1.196-.083 1.783H30.306a19.03 19.03 0 0 1-.084-1.783c0-9.845 7.562-17.826 16.89-17.826z" fill="#2581FF"/>
            <ellipse fill="#E9F2FF" cx="16.889" cy="9.804" rx="9.778" ry="9.804"/>
            <path d="M16.889 21.391c9.327 0 16.889 7.981 16.889 17.826 0 .602-.028 1.196-.084 1.783H.084A19.03 19.03 0 0 1 0 39.217C0 29.372 7.561 21.39 16.889 21.39z" fill="#F4F9FF"/>
        </g>
        <text font-family="SpoqaHanSansNeo-Medium, Spoqa Han Sans Neo" font-size="16" font-weight="400" fill="#FEFEFE">
                    <tspan x="217.848" y="49">팀 문화 콘텐츠 작성을 원하시나요?</tspan>
                </text>
    </g>
</svg>
