<svg width="320" height="66" xmlns="http://www.w3.org/2000/svg" xmlns:xlink="http://www.w3.org/1999/xlink">
    <defs>
        <rect id="a" x="0" y="0" width="320" height="60" rx="5"/>
    </defs>
    <g fill="none" fill-rule="evenodd">
        <g transform="translate(0 6)">
            <mask id="b" fill="#fff">
                <use xlink:href="#a"/>
            </mask>
            <use fill="#519AFF" xlink:href="#a"/>
            <path d="M25.028-24.91c26.933-13.04 70.9 5.173 70.754 53.637a93.637 93.637 0 0 1-.148 5.002c3.37-.811 7.565-1.07 13.275-.304 21.175 2.839 40.31 30.85 21.287 59.477-19.023 28.626-52.716 31.906-82.913 23.704a75.766 75.766 0 0 1-10.488-3.678c-6.324 3.06-12.907 5.69-19.614 7.898-65.163 21.45-118.232-27.87-92.596-73.227C-62.762 25.214-49.439 22.35-36.9 21.405l1.317-.093 4.558-.28 2.195-1.546C-23.242 16.667-17 15.771-8.81 16c1.828-6.947 2.963-9.617 5.073-13.481l.389-.725.375-.725.364-.726.355-.726.52-1.09L2.722-3.43l.516-1.065.265-.532.408-.8.423-.798.442-.8.306-.532a42.1 42.1 0 0 1 .157-.266l.322-.533.334-.533.171-.266.353-.533.366-.532.188-.266.39-.533.404-.532a34.026 34.026 0 0 1 2.04-2.393l.507-.531c3.281-3.365 7.858-6.716 14.715-10.036z" fill="#FEFEFE" opacity=".2" mask="url(#b)"/>
        </g>
        <g transform="translate(78)">
            <path d="M19 0c10.493 0 19 6.399 19 14.292s-8.507 14.292-19 14.292c-3.064 0-5.96-.546-8.523-1.515L4.7 28.948a1.152 1.152 0 0 1-1.418-1.543l1.522-3.614C1.816 21.266 0 17.94 0 14.291 0 6.4 8.507 0 19 0z" fill="#E8ECF2"/>
            <ellipse fill="#2A375D" cx="19" cy="14.503" rx="1.727" ry="1.74"/>
            <ellipse fill="#2A375D" cx="10.939" cy="14.503" rx="1.727" ry="1.74"/>
            <ellipse fill="#2A375D" cx="27.061" cy="14.503" rx="1.727" ry="1.74"/>
        </g>
        <g transform="translate(27 30)">
            <ellipse fill="#2581FF" cx="41.222" cy="8.609" rx="8.556" ry="8.609"/>
            <path d="M41.222 18.783C49.384 18.783 56 25.79 56 34.434c0 .529-.025 1.051-.073 1.566h-29.41a16.767 16.767 0 0 1-.073-1.566c0-8.644 6.617-15.651 14.778-15.651z" fill="#2581FF"/>
            <ellipse fill="#E9F2FF" cx="14.778" cy="8.609" rx="8.556" ry="8.609"/>
            <path d="M14.778 18.783c8.161 0 14.778 7.007 14.778 15.651 0 .529-.025 1.051-.073 1.566H.073A16.767 16.767 0 0 1 0 34.434c0-8.644 6.616-15.651 14.778-15.651z" fill="#F4F9FF"/>
        </g>
        <text font-family="SpoqaHanSansNeo-Medium, Spoqa Han Sans Neo" font-size="14" font-weight="400" fill="#FEFEFE">
                    <tspan x="153" y="31">팀 문화 콘텐츠</tspan>
                    <tspan x="153" y="51">작성을 원하시나요?</tspan>
                </text>
    </g>
</svg>
