<svg xmlns="http://www.w3.org/2000/svg" xmlns:xlink="http://www.w3.org/1999/xlink" width="287" height="270" viewBox="0 0 287 270">
    <defs>
        <path id="nccpkr6nua" d="M133 270c85.052 0 154-68.948 154-154S285.308 0 133.333 0C12.889 0 .214 4.306.214 109v85.048C26.988 239.5 76.432 270 133 270z"/>
        <path id="f0706xdtnc" d="M0.319 0.211L43.782 0.211 43.782 19.809 0.319 19.809z"/>
    </defs>
    <g fill="none" fill-rule="evenodd">
        <g>
            <g transform="translate(-817 -321) translate(817 321)">
                <mask id="2cy7768u3b" fill="#fff">
                    <use xlink:href="#nccpkr6nua"/>
                </mask>
                <g mask="url(#2cy7768u3b)">
                    <g>
                        <path fill="#114397" d="M121.957 132.12s-1.397-24.828-3.105-36.157c-1.707-11.329-5.43-27.779-5.43-27.779S92.644 75.362 83.567 80.54c-9.08 5.18-13.734 8.788-17.808 12.571-4.074 3.783-9.02 9.253-9.02 9.253L23.917 88.98s2.677-6.286 11.64-16.994c8.96-10.708 24.848-22.521 40.735-28.282 15.887-5.763 27.234-6.81 30.9-7.101 3.668-.29 7.449-.524 7.449-.524l8.266 7.973 6.458 1.455 6.518-.814 7.392-5.296 3.142-4.656s3.899-.116 8.729 0c4.83.117 14.84.466 32.53 3.318 17.692 2.852 24.965 7.332 29.332 9.194 4.363 1.863 19.436 11.523 23.102 19.787 3.667 8.263 5.259 14.091 4.074 25.14-1.106 10.3-4.424 15.653-4.424 15.653L207.056 97.01s4.365-7.332.815-16.12c-3.55-8.787-12.453-9.195-16.002-9.893-3.552-.699-9.138-1.28-9.138-1.28s4.771 7.798 7.216 17.108c2.445 9.311 3.085 14.316 3.493 20.369.407 6.052-4.774 27.932-4.774 27.932l-66.71-3.005z" transform="translate(28 29)"/>
                        <path fill="#D3E6FF" d="M47.952 106.048L17.225 120.481 0.001 182.71 0.001 321.188 170.394 321.188 204.225 299.565 204.225 161.605 215.398 114.584 182.343 132.739 175.672 161.759 34.451 160.856z" transform="translate(28 29)"/>
                        <path fill="#114397" d="M112.566 19.607c-.102 1.325-.223 4.219.347 6.946.837 4.014 4.584 12.163 8.043 15.195 3.66 3.208 8.84 3.82 12.097 3.029 3.449-.836 7.122-3.263 8.967-5.227 1.686-1.796 4.063-6.248 4.087-6.293l.266-.5.566-.053c.131-.012 3.351-.382 5.415-3.907 1.676-2.86 1.585-5.378-.289-7.925-1.338-1.822-2.175-2.8-4.751-2.94l-1.02.378c-2.52.926-3.907 1.439-4.512 2.042-.183.183-.316.364-.436.522-.6.787-1.325 1.503-2.978.81-.26-.107-.683-.304-1.225-.558-2.314-1.08-7.126-3.329-10.09-3.553-3.101-.24-11.86 1.495-14.487 2.034m17.641 27.587c-3.46 0-7.484-1.104-10.634-3.867-3.903-3.421-7.832-12.104-8.717-16.344-.84-4.026-.326-8.202-.303-8.378l.093-.74.727-.155c.486-.103 11.89-2.523 15.838-2.231 3.346.253 8.207 2.524 10.82 3.745.508.238.902.421 1.143.522.216.09.324.11.363.115-.048-.017.059-.156.137-.26.17-.223.365-.475.624-.734.93-.93 2.38-1.465 5.269-2.527l1.414-.522.207.007c3.6.131 4.994 1.659 6.57 3.803 2.363 3.216 2.502 6.659.409 10.232-2.083 3.556-5.172 4.565-6.454 4.84-.68 1.235-2.61 4.635-4.161 6.287-1.996 2.125-5.978 4.855-10.004 5.83-1.004.244-2.14.377-3.34.377" transform="translate(28 29)"/>
                        <g transform="translate(28 29) translate(103.6 .189)">
                            <mask id="fa7anxhurd" fill="#fff">
                                <use xlink:href="#f0706xdtnc"/>
                            </mask>
                            <path fill="#114397" d="M43.55 16.685s1.726-7.04-4.248-12.55C33.327-1.372 27.662.334 25.492.955c-2.173.621-3.726 1.63-3.726 1.63s-1.553-1.553-4.5 0c-2.95 1.552-2.172 3.414-2.562 3.802-.387.387-1.008.387-3.025.154s-7.217.466-9.7 3.337c-2.483 2.87-2.017 7.139.31 8.535 2.328 1.397 4.58 1.397 4.58 1.397l4.243-1.889 14.223-1.607 7.802 3.277 3.605.219 6.808-3.124z" mask="url(#fa7anxhurd)"/>
                        </g>
                        <path fill="#FFF" d="M208.667 97.11s-1.512 4.578-5.045 8.147c-3.529 3.57-4.228 4.346-7.72 6.363-3.49 2.017-6.555 3.84-8.612 5.975-2.055 2.134-2.736 3.608-2.075 5.746.51 1.655 3.2 2.672 3.2 2.672s-.907 1.547-.004 3.236c1.03 1.916 2.992 2.041 4.738 1.73 1.746-.31 4.423-1.513 4.423-1.513s.737 1.468 3.374 1.568c2.639.1 8.225-2.732 10.011-3.352 1.784-.62 8.728-1.824 12.22-4.15 3.49-2.329 7.45-6.326 8.962-9.003 1.513-2.677 4.921-8.79 4.921-8.79l-28.393-8.629z" transform="translate(28 29)"/>
                        <path fill="#114397" d="M209.3 98.4c-.655 1.59-2.22 4.855-4.93 7.596l-.445.45c-3.18 3.218-4.035 4.083-7.497 6.084-3.577 2.066-6.465 3.805-8.382 5.793-1.904 1.977-2.332 3.077-1.827 4.708.268.873 1.847 1.725 2.57 2 .29.112.515.344.617.635.102.291.073.613-.086.88-.016.033-.585 1.08.017 2.207.388.72 1.178 1.628 3.629 1.193 1.596-.283 4.15-1.425 4.175-1.438.51-.232 1.116-.017 1.369.487.008.01.561.917 2.477.99 1.731.067 5.364-1.502 7.54-2.439.875-.376 1.611-.69 2.085-.855.51-.178 1.332-.38 2.373-.638 2.858-.706 7.176-1.774 9.61-3.395 3.313-2.21 7.185-6.088 8.629-8.644 1.107-1.959 3.227-5.753 4.285-7.65L209.3 98.4zm-17.495 33.757c-2.457 0-3.697-1.253-4.319-2.413-.652-1.218-.583-2.38-.387-3.18-.994-.523-2.45-1.501-2.887-2.914-.851-2.758.257-4.64 2.322-6.784 2.107-2.187 5.122-4.004 8.844-6.155 3.217-1.859 3.954-2.604 7.053-5.741l.446-.45c3.305-3.341 4.778-7.695 4.793-7.74.18-.54.759-.84 1.302-.675l28.394 8.628c.305.093.548.317.667.612.12.294.1.627-.056.905 0 0-3.41 6.118-4.923 8.797-1.61 2.844-5.691 6.954-9.295 9.358-2.738 1.824-7.27 2.945-10.27 3.686-.951.235-1.77.438-2.187.584-.444.152-1.129.45-1.945.8-2.639 1.136-6.22 2.689-8.45 2.609-1.908-.073-3.03-.762-3.644-1.343-.957.395-2.646 1.045-3.93 1.273-.556.1-1.063.143-1.528.143z" transform="translate(28 29)"/>
                        <path fill="#114397" d="M189.268 125.4c.08.11.135.23.166.355-.028-.116-.082-.238-.166-.356m-.85 1.665c-.325 0-.643-.15-.85-.43-.657-.897-.06-1.707 3.19-4.332 3.277-2.647 8.556-5.184 8.78-5.29.525-.25 1.15-.028 1.4.494s.028 1.15-.496 1.4c-.051.025-5.28 2.54-8.363 5.029-1.948 1.573-2.513 2.205-2.663 2.397-.064.204-.193.392-.38.529s-.404.203-.618.203M201.492 125.532c.028.092.043.186.047.278-.002-.086-.018-.18-.047-.278m-1.003 1.365c-.443 0-.856-.284-1-.731-.28-.88.366-1.434 2.59-2.762 2.288-1.365 5.675-2.382 5.818-2.424.56-.17 1.14.152 1.306.707.165.556-.151 1.14-.707 1.305-.034.01-3.282.986-5.34 2.215-1.213.725-1.635 1.06-1.762 1.175-.128.214-.33.383-.584.464-.108.034-.216.05-.32.05" transform="translate(28 29)"/>
                        <path fill="#FFF" d="M27.327 89.793s-3.667 6.75-5.702 13.792c-2.037 7.041-1.689 14.548-1.689 14.548l18.856-9.253s.814 3.667.232 6.402c-.582 2.735-2.153 6.984-.931 8.612 1.222 1.63 4.017 4.016 7.45-1.396 3.432-5.412 3.956-10.849 3.782-14.678-.175-3.827-.873-6.273-.873-6.273l1.92-2.27-23.045-9.484z" transform="translate(28 29)"/>
                        <path fill="#114397" d="M38.792 107.83c.155 0 .31.034.455.104.29.14.5.405.57.718.034.16.856 3.923.235 6.85-.13.612-.31 1.303-.499 2.022-.505 1.94-1.27 4.874-.619 5.74.441.59 1.32 1.556 2.383 1.535 1.02-.041 2.176-1.03 3.338-2.863 2.639-4.16 3.857-8.892 3.622-14.068-.167-3.641-.828-6.01-.835-6.034-.095-.336-.017-.698.209-.964l.988-1.17-20.825-8.571c-1.023 2.003-3.612 7.32-5.181 12.748-1.409 4.868-1.645 10.027-1.666 12.58l17.361-8.519c.147-.072.305-.107.464-.107m2.457 19.069c-1.45 0-2.828-.82-3.996-2.376-1.257-1.676-.482-4.652.269-7.53.179-.686.351-1.344.476-1.931.322-1.515.168-3.385-.003-4.621L20.4 119.075c-.32.157-.693.14-.998-.039-.304-.18-.497-.501-.514-.854-.016-.313-.333-7.761 1.727-14.889 2.046-7.07 5.637-13.721 5.79-14.001.254-.472.823-.676 1.322-.47l23.046 9.486c.31.127.54.395.619.72.08.327 0 .671-.217.928l-1.573 1.859c.222.952.64 3.071.772 5.958.256 5.616-1.071 10.758-3.945 15.287-1.571 2.476-3.264 3.767-5.03 3.837l-.15.003" transform="translate(28 29)"/>
                        <path fill="#FFF" d="M36.115 102.13s.814 1.397 1.454 3.2c.641 1.805 1.446 3.428 1.553 5.699" transform="translate(28 29)"/>
                        <path fill="#114397" d="M39.122 112.08c-.557 0-1.02-.44-1.049-1-.078-1.655-.57-2.949-1.092-4.318-.136-.357-.271-.715-.4-1.08-.598-1.682-1.367-3.01-1.374-3.023-.29-.502-.121-1.144.38-1.435.5-.292 1.142-.124 1.435.378.035.06.872 1.502 1.537 3.378.125.35.255.693.385 1.034.557 1.465 1.134 2.977 1.228 4.965.026.58-.42 1.07-1 1.099l-.05.001M34.451 160.856L0 182.71 170.048 184.918 175.671 161.759zM121.894 37.281s-1.445-3.084-2.265-4.998c-.871-2.03-1.082-4.259-1.09-4.354-.053-.577.373-1.086.95-1.14.565-.047 1.088.371 1.142.95.002.02.192 2 .928 3.717.81 1.888 2.233 4.93 2.235 4.933l-1.9.892zM128.37 26.363c0 .78-.632 1.412-1.414 1.412-.778 0-1.412-.633-1.412-1.412 0-.782.634-1.413 1.412-1.413.782 0 1.414.631 1.414 1.413M143.292 28.223c-.04 0-.084-.001-.126-.007-.574-.068-.986-.588-.919-1.163.014-.112.338-2.758 1.945-4.476 1.994-2.13 4.465-2.154 4.568-2.154.58 0 1.05.47 1.05 1.05 0 .58-.47 1.05-1.05 1.05-.06 0-1.683.044-3.035 1.49-1.127 1.206-1.39 3.265-1.392 3.285-.065.533-.518.925-1.041.925" transform="translate(28 29)"/>
                        <path fill="#FFF" d="M126.957 129.598L130.564 165.096" transform="translate(28 29)"/>
                        <path fill="#114397" d="M130.563 166.147c-.532 0-.988-.404-1.043-.944l-3.608-35.5c-.058-.577.362-1.092.938-1.15.593-.051 1.094.36 1.151.939l3.608 35.498c.059.577-.361 1.092-.938 1.151-.036.004-.073.006-.108.006M150.66 166.535c-.518 0-.97-.384-1.04-.911l-2.088-15.82-6.462-2.343c-.545-.197-.826-.8-.629-1.345.197-.545.798-.826 1.345-.629l7.06 2.56c.369.134.632.463.682.85l2.173 16.45c.077.576-.327 1.103-.901 1.178-.05.007-.094.01-.14.01" transform="translate(28 29)"/>
                    </g>
                </g>
                <path fill="#114397" d="M24 120c.552 0 1 .448 1 1v7.999l8 .001c.552 0 1 .448 1 1s-.448 1-1 1l-8-.001V139c0 .552-.448 1-1 1s-1-.448-1-1v-8.001L15 131c-.552 0-1-.448-1-1s.448-1 1-1l8-.001V121c0-.552.448-1 1-1z" mask="url(#2cy7768u3b)" transform="rotate(120 24 130)"/>
                <rect width="20" height="2" x="3" y="155" fill="#114397" mask="url(#2cy7768u3b)" rx="1" transform="rotate(13 13 156)"/>
                <path fill="#114397" d="M100 162c.552 0 1 .448 1 1v7.999l8 .001c.552 0 1 .448 1 1s-.448 1-1 1l-8-.001V181c0 .552-.448 1-1 1s-1-.448-1-1v-8.001L91 173c-.552 0-1-.448-1-1s.448-1 1-1l8-.001V163c0-.552.448-1 1-1z" mask="url(#2cy7768u3b)" transform="rotate(135 100 172)"/>
            </g>
        </g>
    </g>
</svg>
