<svg xmlns="http://www.w3.org/2000/svg" width="320" height="101" viewBox="0 0 320 101">
    <defs>
        <filter id="a" width="118%" height="166.7%" x="-9%" y="-33.3%" filterUnits="objectBoundingBox">
            <feOffset dy="4" in="SourceAlpha" result="shadowOffsetOuter1" />
            <feGaussianBlur in="shadowOffsetOuter1" result="shadowBlurOuter1" stdDeviation="5" />
            <feColorMatrix in="shadowBlurOuter1" result="shadowMatrixOuter1" values="0 0 0 0 0.443137255 0 0 0 0 0.458823529 0 0 0 0 1 0 0 0 0.3 0" />
            <feMerge>
                <feMergeNode in="shadowMatrixOuter1" />
                <feMergeNode in="SourceGraphic" />
            </feMerge>
        </filter>
    </defs>
    <g fill="none" fill-rule="evenodd" filter="url(#a)" transform="translate(10 6)">
        <path
                fill="#FEFEFE"
                stroke="#7175FF"
                d="M3 80.44a2.5 2.5 0 0 1-2.5-2.5V11.126a2.5 2.5 0 0 1 2.5-2.5h15.427a2.5 2.5 0 0 0 2.137-1.202l3.768-6.203a1.5 1.5 0 0 1 2.564 0l3.769 6.203A2.5 2.5 0 0 0 32.8 8.626H297a2.5 2.5 0 0 1 2.5 2.5V77.94a2.5 2.5 0 0 1-2.5 2.5H3z"
        />
        <text
                fill="#333"
                font-size="14"
        >
            <tspan x="16" y="40">투자 기관 이름을 누르면 더 자세한 기관 정보와</tspan>
            <tspan x="16" y="60">투자자 정보를 확인 할 수 있습니다.</tspan>
        </text>
    </g>
</svg>
