<svg xmlns="http://www.w3.org/2000/svg" width="367" height="146" viewBox="0 0 367 146">
    <defs>
        <filter id="prefix__a" width="115.6%" height="142.2%" x="-7.8%" y="-21.1%" filterUnits="objectBoundingBox">
            <feOffset dy="4" in="SourceAlpha" result="shadowOffsetOuter1"/>
            <feGaussianBlur in="shadowOffsetOuter1" result="shadowBlurOuter1" stdDeviation="5"/>
            <feColorMatrix in="shadowBlurOuter1" result="shadowMatrixOuter1" values="0 0 0 0 0.443137255 0 0 0 0 0.458823529 0 0 0 0 1 0 0 0 0.3 0"/>
            <feMerge>
                <feMergeNode in="shadowMatrixOuter1"/>
                <feMergeNode in="SourceGraphic"/>
            </feMerge>
        </filter>
    </defs>
    <g fill="none" fill-rule="evenodd" filter="url(#prefix__a)" transform="translate(10 5)">
        <path fill="#FEFEFE" stroke="#7175FF" d="M344 126.5a2.5 2.5 0 002.5-2.5V12.184a2.5 2.5 0 00-2.5-2.5h-15.871a2.5 2.5 0 01-2.124-1.181l-3.91-6.296a1.5 1.5 0 00-2.548 0l-3.91 6.296a2.5 2.5 0 01-2.123 1.18H3a2.5 2.5 0 00-2.5 2.5V124a2.5 2.5 0 002.5 2.5h341z"/>
        <text fill="#333" font-weight="400" font-size="14">
            <tspan x="95" y="41">투자자에게 자료 전송이 완료되었습니다. </tspan> <tspan x="95" y="61">자료 열람시 상태가 변경됩니다.</tspan>
        </text>
        <text fill="#333" font-weight="400" font-size="14">
            <tspan x="95" y="87">투자자가 보낸 자료를 열람했습니다. </tspan> <tspan x="95" y="107">현재 자료 검토를 진행 중입니다.</tspan>
        </text>
        <g transform="translate(16 25)">
            <rect width="71" height="25" fill="#FEF6D2" rx="3"/>
            <text fill="#FFB224" font-weight="400" font-size="14">
                <tspan x="8.172" y="18">전송 완료</tspan>
            </text>
        </g>
        <g transform="translate(16 71)">
            <rect width="71" height="25" fill="#E7F4E5" rx="3"/>
            <text fill="#61BB56" font-weight="400" font-size="14">
                <tspan x="8.172" y="18">자료 열람</tspan>
            </text>
        </g>
    </g>
</svg>
