<svg xmlns="http://www.w3.org/2000/svg" width="301" height="121" viewBox="0 0 301 121">
    <defs>
        <filter id="prefix__a" width="119.2%" height="153.5%" x="-9.6%" y="-26.7%" filterUnits="objectBoundingBox">
            <feOffset dy="4" in="SourceAlpha" result="shadowOffsetOuter1"/>
            <feGaussianBlur in="shadowOffsetOuter1" result="shadowBlurOuter1" stdDeviation="5"/>
            <feColorMatrix in="shadowBlurOuter1" result="shadowMatrixOuter1" values="0 0 0 0 0.443137255 0 0 0 0 0.458823529 0 0 0 0 1 0 0 0 0.3 0"/>
            <feMerge>
                <feMergeNode in="shadowMatrixOuter1"/>
                <feMergeNode in="SourceGraphic"/>
            </feMerge>
        </filter>
    </defs>
    <g fill="none" fill-rule="evenodd" filter="url(#prefix__a)" transform="translate(10 6)">
        <path fill="#FEFEFE" stroke="#7175FF" d="M278 100.5c1.38 0 2.5-1.12 2.5-2.5V11.126c0-1.381-1.12-2.5-2.5-2.5h-15.427c-.874 0-1.683-.456-2.137-1.202l-3.768-6.203c-.125-.205-.298-.378-.503-.503-.708-.43-1.631-.205-2.061.503l-3.769 6.203c-.453.746-1.263 1.202-2.136 1.202H3c-1.38 0-2.5 1.119-2.5 2.5V98c0 1.38 1.12 2.5 2.5 2.5h275z"/>
        <text fill="#333" font-weight="400" font-size="14">
            <tspan x="16" y="40">최근 3개월 간 활동 데이터를 기반으로 </tspan> <tspan x="16" y="60">해당 투자자가 30일 안에 자료 검토를 </tspan> <tspan x="16" y="80">진행한 비율을 계산하여 나타낸 확률입니다.</tspan>
        </text>
    </g>
</svg>
