<svg xmlns="http://www.w3.org/2000/svg" xmlns:xlink="http://www.w3.org/1999/xlink" width="22" height="22" viewBox="0 0 22 22">
    <defs>
        <path id="prefix__a" d="M11.333 4v.333c0 .184-.149.334-.333.334-.184 0-.333-.15-.333-.334V4H5.333v.333c0 .184-.149.334-.333.334-.184 0-.333-.15-.333-.334V4H4c-.736 0-1.333.597-1.333 1.333V6h10.666v-.667C13.333 4.597 12.736 4 12 4h-.667zm0-.667H12c1.105 0 2 .896 2 2v6c0 1.105-.895 2-2 2H4c-1.105 0-2-.895-2-2v-6c0-1.104.895-2 2-2h.667v-1C4.667 2.15 4.816 2 5 2c.184 0 .333.15.333.333v1h5.334v-1c0-.184.149-.333.333-.333.184 0 .333.15.333.333v1zM2.667 6.667v4.666c0 .737.597 1.334 1.333 1.334h8c.736 0 1.333-.597 1.333-1.334V6.667H2.667z"/>
    </defs>
    <g fill="none" fill-rule="evenodd">
        <circle cx="11" cy="11" r="11" fill="#2581FF"/>
        <g transform="translate(3 3)">
            <mask id="prefix__b" fill="#fff">
                <use xlink:href="#prefix__a"/>
            </mask>
            <use fill="#656565" fill-rule="nonzero" xlink:href="#prefix__a"/>
            <g fill="#FEFEFE" mask="url(#prefix__b)">
                <path d="M0 0H16V16H0z"/>
                <path d="M0 0H15.838V15.838H0z"/>
            </g>
        </g>
    </g>
</svg>
