<svg width="25" height="24" viewBox="0 0 25 24" fill="none" xmlns="http://www.w3.org/2000/svg">
  <rect opacity="0.01" x="0.5" width="24" height="24" fill="#D8D8D8"/>
  <path
    d="M12.5 3C7.52944 3 3.5 7.02944 3.5 12C3.5 16.9706 7.52944 21 12.5 21L12.8601 20.9929C14.1765 20.941 15.4457 20.6052 16.5972 20.0153L16.723 19.947L18.8781 20.499L20.6969 20.945L20.9051 20.9909C21.2933 21.066 21.611 20.682 21.4644 20.3147L20.129 16.772L19.989 16.993C20.9688 15.5262 21.5 13.802 21.5 12C21.5 7.02944 17.4706 3 12.5 3Z"
    fill="#E6E6E6"/>
  <path
    d="M12.5 4C16.9183 4 20.5 7.58172 20.5 12C20.5 13.6027 20.0283 15.1339 19.1575 16.4376C19.0841 16.5474 19.0579 16.6806 19.0819 16.8079L19.1217 16.9336L20.196 19.795L17.0515 19.0014L16.8181 18.9371C16.685 18.8937 16.5398 18.9081 16.4178 18.9768C15.2317 19.6443 13.8923 20 12.5 20C8.08172 20 4.5 16.4183 4.5 12C4.5 7.58172 8.08172 4 12.5 4Z"
    fill="#858585"/>
  <circle cx="12.5" cy="12" r="1" fill="#E6E6E6"/>
  <circle cx="8.5" cy="12" r="1" fill="#E6E6E6"/>
  <circle cx="16.5" cy="12" r="1" fill="#E6E6E6"/>
</svg>
