<svg xmlns="http://www.w3.org/2000/svg" xmlns:xlink="http://www.w3.org/1999/xlink" width="18" height="18" viewBox="0 0 18 18">
    <defs>
        <path id="h1kagojfqa" d="M12.15 2.7c.249 0 .45.201.45.45l-.001.45H14.4c.994 0 1.8.88 1.8 1.964v6.872c0 1.085-.806 1.964-1.8 1.964H3.6c-.994 0-1.8-.88-1.8-1.964V5.564c0-1.085.806-1.964 1.8-1.964h1.8v-.45c0-.249.201-.45.45-.45s.45.201.45.45v.45h5.399l.001-.45c0-.249.201-.45.45-.45zm3.15 4.5H2.699l.001 5.3c0 .513.347.936.795.993l.105.007h10.8c.462 0 .842-.386.894-.883l.006-.117V7.2zM5.4 4.5H3.6c-.462 0-.842.386-.894.883L2.7 5.5l-.001.799H15.3V5.5c0-.513-.347-.936-.795-.993L14.4 4.5h-1.801l.001.45c0 .249-.201.45-.45.45s-.45-.201-.45-.45l-.001-.45H6.3v.45c0 .249-.201.45-.45.45s-.45-.201-.45-.45V4.5z"/>
    </defs>
    <g transform="translate(-978 -650) translate(970 644) translate(8 6)">
        <mask id="6ke8g5wajb" fill="#fff">
            <use xlink:href="#h1kagojfqa"/>
        </mask>
        <use fill="#fff" fill-rule="nonzero" xlink:href="#h1kagojfqa"/>
    </g>
</svg>
