<svg xmlns="http://www.w3.org/2000/svg" width="25" height="24" viewBox="0 0 25 24">
    <g fill="none" fill-rule="evenodd">
        <g>
            <g>
                <g>
                    <path fill="#9E9E9E" fill-rule="nonzero" d="M15.357 4l.166.005c1.319.078 2.385 1.072 2.471 2.33L18 6.5v4h1.5c1.325 0 2.41 1.032 2.495 2.336L22 13v7.97c0 .57-.46 1.03-1.03 1.03-.203 0-.4-.06-.568-.172l-.097-.072-1.264-1.073c-.233-.197-.518-.318-.82-.348l-.15-.008H11.5c-1.325 0-2.41-1.031-2.495-2.336L9 17.827v-1.912H6.124l-.158.007c-.252.022-.495.098-.71.22l-.155.1-1.42 1.032-.114.072c-.157.086-.336.132-.517.132-.534 0-.986-.388-1.044-.901L2 16.465V6.5l.005-.159c.083-1.259 1.147-2.255 2.465-2.336L4.643 4h10.714zm4.143 7.5h-8c-.78 0-1.42.595-1.493 1.356L10 13v4.827c0 .78.595 1.42 1.356 1.493l.144.007h6.57c.527 0 1.038.166 1.463.472l.155.122 1.272 1.077.01.002c.011 0 .02-.006.026-.015l.004-.014V13c0-.78-.595-1.42-1.356-1.493L19.5 11.5zm-1 4.5c.276 0 .5.224.5.5s-.224.5-.5.5h-6c-.276 0-.5-.224-.5-.5s.224-.5.5-.5h6zM15.357 5H4.643l-.15.006c-.794.066-1.416.645-1.486 1.359L3 6.5v9.965l.021.01.029.003.024-.004.02-.009 1.42-1.032.177-.119c.366-.223.783-.357 1.216-.39l.217-.01H9V13c0-1.325 1.032-2.41 2.336-2.495l.164-.005H17v-4l-.007-.135c-.07-.714-.692-1.293-1.485-1.359L15.358 5zm3.143 9c.276 0 .5.224.5.5s-.224.5-.5.5h-6c-.276 0-.5-.224-.5-.5s.224-.5.5-.5h6z" transform="translate(-372.000000, -64.000000) translate(63.000000, 56.000000) translate(309.500000, 8.000000)"/>
                </g>
            </g>
        </g>
    </g>
</svg>
