<svg xmlns="http://www.w3.org/2000/svg" width="20" height="20" viewBox="0 0 20 20">
    <g fill="none" fill-rule="evenodd">
        <g>
            <g>
                <g>
                    <path d="M0 0H20V20H0z" transform="translate(-1840.000000, -1172.000000) translate(1394.000000, 1169.000000) translate(446.000000, 3.000000)"/>
                    <path fill="#838383" d="M10 3c.276 0 .5.224.5.5v6h6c.276 0 .5.224.5.5s-.224.5-.5.5h-6.001l.001 6c0 .276-.224.5-.5.5s-.5-.224-.5-.5l-.001-6H3.5c-.276 0-.5-.224-.5-.5s.224-.5.5-.5h6v-6c0-.276.224-.5.5-.5z" transform="translate(-1840.000000, -1172.000000) translate(1394.000000, 1169.000000) translate(446.000000, 3.000000)"/>
                </g>
            </g>
        </g>
    </g>
</svg>
