<svg width="36" height="36" viewBox="0 0 36 36" fill="none" xmlns="http://www.w3.org/2000/svg">
  <circle cx="18" cy="18" r="18" fill="#595959"/>
  <path fill-rule="evenodd" clip-rule="evenodd" d="M16.7855 10.3L13.8703 14.1778C13.792 14.2846 13.7187 14.3944 13.6506 14.5071C13.3754 14.1803 12.9621 13.9725 12.5 13.9725H9.5C8.67157 13.9725 8 14.6403 8 15.4642V25.409C8 26.2329 8.67157 26.9008 9.5 26.9008H12.5C13.03 26.9008 13.4958 26.6274 13.7626 26.2147C14.2037 26.6398 14.8008 26.9008 15.4582 26.9008L23.0352 27.0001C24.5281 27.0001 25.8508 26.0266 26.3099 24.5898L27.8809 19.6742C27.9598 19.4271 28 19.1692 28 18.9095C28 17.5365 26.8994 16.4233 25.5418 16.4233L22.8119 16.324C22.5404 16.324 22.3202 16.1014 22.3202 15.8268V11.9571C22.3202 10.6326 21.4464 9.47086 20.1843 9.1174C18.9186 8.76292 17.5676 9.23298 16.7855 10.3ZM14 24.6398C14.1074 25.3568 14.7194 25.9063 15.4582 25.9063L23.0352 26.0056C24.1016 26.0056 25.0463 25.3102 25.3743 24.284L26.9452 19.3683C26.9926 19.2201 27.0167 19.0653 27.0167 18.9095C27.0167 18.0857 26.3563 17.4178 25.5418 17.4178L22.8119 17.3185C21.9973 17.3185 21.3369 16.6507 21.3369 15.8268V11.9571C21.3369 11.0796 20.758 10.31 19.9219 10.0758L19.7575 10.0366C18.933 9.87326 18.0816 10.2017 17.5754 10.8923L14.6602 14.7701C14.2882 15.2775 14.0611 15.876 14 16.5004V24.6398ZM13 16.843V15.4642C13 15.1896 12.7761 14.967 12.5 14.967H9.5C9.22386 14.967 9 15.1896 9 15.4642V25.409C9 25.6837 9.22386 25.9063 9.5 25.9063H12.5C12.7761 25.9063 13 25.6837 13 25.409V24.4146V16.843Z" fill="#D1D1D1"/>
</svg>
