<svg width="25" height="24" viewBox="0 0 25 24" fill="none" xmlns="http://www.w3.org/2000/svg">
  <path
    d="M10.9107 3.16112L4.41073 8.51406C3.83407 8.98895 3.5 9.69685 3.5 10.4439V18.5C3.5 19.8807 4.61929 21 6 21H19C20.3807 21 21.5 19.8807 21.5 18.5V10.4439C21.5 9.69685 21.1659 8.98895 20.5893 8.51406L14.0893 3.16112C13.1661 2.40088 11.8339 2.40088 10.9107 3.16112Z"
    fill="#E6E6E6"/>
  <path
    d="M13.4536 3.93305L19.9536 9.28599C20.2996 9.57093 20.5 9.99566 20.5 10.4439V18.5C20.5 19.3285 19.8284 20 19 20H6C5.17157 20 4.5 19.3285 4.5 18.5V10.4439C4.5 9.99566 4.70044 9.57093 5.04644 9.28599L11.5464 3.93305C12.1003 3.47691 12.8997 3.47691 13.4536 3.93305Z"
    fill="#858585"/>
  <path
    d="M13.5 12C14.8255 12 15.91 13.0315 15.9947 14.3356L16 14.5V20.5H9V14.5C9 13.1745 10.0315 12.09 11.3356 12.0053L11.5 12H13.5Z"
    fill="#E6E6E6"/>
</svg>
