<svg xmlns="http://www.w3.org/2000/svg" xmlns:xlink="http://www.w3.org/1999/xlink" width="24" height="24" viewBox="0 0 24 24">
    <defs>
        <path id="qljyw3awla" d="M20 16c1.105 0 2 .895 2 2 0 1.054-.816 1.918-1.85 1.995L20 20H4c-1.105 0-2-.895-2-2 0-1.054.816-1.918 1.85-1.995L4 16h16zm0 1H4c-.552 0-1 .448-1 1 0 .513.386.936.883.993L4 19h16c.552 0 1-.448 1-1 0-.513-.386-.936-.883-.993L20 17zm0-7c1.105 0 2 .895 2 2 0 1.054-.816 1.918-1.85 1.995L20 14H4c-1.105 0-2-.895-2-2 0-1.054.816-1.918 1.85-1.995L4 10h16zm0 1H4c-.552 0-1 .448-1 1 0 .513.386.936.883.993L4 13h16c.552 0 1-.448 1-1 0-.513-.386-.936-.883-.993L20 11zm0-7c1.105 0 2 .895 2 2 0 1.054-.816 1.918-1.85 1.995L20 8H4c-1.105 0-2-.895-2-2 0-1.054.816-1.918 1.85-1.995L4 4h16zm0 1H4c-.552 0-1 .448-1 1 0 .513.386.936.883.993L4 7h16c.552 0 1-.448 1-1 0-.513-.386-.936-.883-.993L20 5z"/>
    </defs>
    <g fill="none" fill-rule="evenodd">
        <g>
            <g transform="translate(-1316 -198) translate(1316 198)">
                <mask id="gl2pvux7cb" fill="#fff">
                    <use xlink:href="#qljyw3awla"/>
                </mask>
                <use fill="#979797" fill-rule="nonzero" xlink:href="#qljyw3awla"/>
                <g fill="#FEFEFE" mask="url(#gl2pvux7cb)">
                    <g>
                        <path d="M0 0H49V49H0z" transform="translate(-12 -12)"/>
                        <path d="M0 0H49V49H0z" transform="translate(-12 -12)"/>
                    </g>
                </g>
            </g>
        </g>
    </g>
</svg>
