<svg xmlns="http://www.w3.org/2000/svg" xmlns:xlink="http://www.w3.org/1999/xlink" width="32" height="32">
  <defs>
    <filter id="qkt0ghw8ba" width="200%" height="130.3%" x="-50%" y="-15.2%" filterUnits="objectBoundingBox">
      <feOffset dy="4" in="SourceAlpha" result="shadowOffsetOuter1"/>
      <feGaussianBlur in="shadowOffsetOuter1" result="shadowBlurOuter1" stdDeviation="3"/>
      <feColorMatrix in="shadowBlurOuter1" result="shadowMatrixOuter1" values="0 0 0 0 0 0 0 0 0 0 0 0 0 0 0 0 0 0 0.2 0"/>
      <feMerge>
        <feMergeNode in="shadowMatrixOuter1"/>
        <feMergeNode in="SourceGraphic"/>
      </feMerge>
    </filter>
    <path id="dm83tabuhb" d="M2 16C2 8.268 8.268 2 16 2s14 6.268 14 14-6.268 14-14 14S2 23.732 2 16zm15.655 8v-7.5h2.07L20 13.913h-2.345l.003-1.293c0-.675.064-1.036 1.033-1.036h1.294V9h-2.07c-2.489 0-3.364 1.254-3.364 3.363v1.552H13v2.584h1.55V24h3.105z"/>
  </defs>
  <g filter="url(#qkt0ghw8ba)" transform="translate(-4 -6)" fill="none" fill-rule="evenodd">
    <g transform="translate(4 6)">
      <mask id="bw4bav1t9c" fill="#fff">
        <use xlink:href="#dm83tabuhb"/>
      </mask>
      <use fill="#F4F5F7" xlink:href="#dm83tabuhb"/>
    </g>
  </g>
</svg>