<svg xmlns="http://www.w3.org/2000/svg" width="25" height="24" viewBox="0 0 25 24">
    <g fill="none" fill-rule="evenodd">
        <g>
            <g>
                <g>
                    <g fill="#979797" fill-rule="nonzero">
                        <path d="M13.833.29l1.618.978c.898.543 1.216 1.68.755 2.603l-.107.188-2.806 4.372c.886 1.11 1.415 2.518 1.415 4.05 0 3.59-2.91 6.5-6.5 6.5s-6.5-2.91-6.5-6.5c0-1.531.53-2.938 1.415-4.05L.317 4.06C-.28 3.13-.01 1.892.92 1.296L2.58.29C3.509-.272 4.715.008 5.3.92l2.906 4.53L11.115.92c.586-.912 1.791-1.192 2.718-.63zM8.208 6.98c-3.037 0-5.5 2.463-5.5 5.5 0 3.038 2.463 5.5 5.5 5.5 3.038 0 5.5-2.462 5.5-5.5 0-3.037-2.462-5.5-5.5-5.5zM3.093 1.12l-1.631.987c-.44.266-.6.815-.393 1.27l.069.126L3.82 7.685C4.79 6.797 6.03 6.2 7.402 6.03L4.453 1.435c-.293-.457-.896-.597-1.36-.316zm8.869.314L9.012 6.03c1.373.17 2.613.767 3.583 1.654l2.683-4.181c.277-.432.18-.996-.207-1.313l-.117-.083-1.633-.988c-.463-.28-1.066-.141-1.36.315z" transform="translate(-473.000000, -64.000000) translate(447.000000, 56.000000) translate(26.500000, 8.000000) translate(3.791724, 3.019105)"/>
                    </g>
                </g>
            </g>
        </g>
    </g>
</svg>
