<svg width="25" height="24" viewBox="0 0 25 24" fill="none" xmlns="http://www.w3.org/2000/svg">
  <rect opacity="0.01" x="0.5" width="24" height="24" fill="#D8D8D8"/>
  <path
    d="M7 8H4C3.17157 8 2.5 8.67157 2.5 9.5V19.5C2.5 20.3284 3.17157 21 4 21H7C7.82843 21 8.5 20.3284 8.5 19.5V9.5C8.5 8.67157 7.82843 8 7 8Z"
    fill="#E6E6E6"/>
  <path
    d="M11.6859 4.60652L11.686 4.60654L11.6895 4.60166C12.3502 3.69537 13.4869 3.30016 14.5488 3.5992C15.5906 3.89259 16.3202 4.86051 16.3202 5.97339V9.86455C16.3202 10.4054 16.7507 10.8587 17.3012 10.8645L20.0235 10.9641L20.0326 10.9644H20.0418C21.1154 10.9644 22 11.8519 22 12.9644C22 13.1741 21.9677 13.3825 21.9043 13.5818L20.3334 18.5248C19.9392 19.7653 18.8076 20.5984 17.5383 20.5998L9.96483 20.5L9.96483 20.4999H9.95824C8.88464 20.4999 8 19.6125 8 18.4999V10.8863C8 10.0274 8.27127 9.19205 8.77258 8.5033L11.6859 4.60652Z"
    stroke="#E6E6E6"/>
  <path
    d="M14.4219 4.08172C15.258 4.31719 15.8369 5.09111 15.8369 5.97346V9.86461C15.8369 10.693 16.4973 11.3646 17.3119 11.3646L20.0417 11.4645C20.8563 11.4645 21.5167 12.136 21.5167 12.9645C21.5167 13.1211 21.4926 13.2767 21.4452 13.4258L19.8743 18.3687C19.5463 19.4006 18.6016 20.0999 17.5352 20.0999L9.95822 20C9.14363 20 8.48328 19.3284 8.48328 18.5V10.8864C8.48328 10.1358 8.72057 9.40501 9.16014 8.802L12.0754 4.90274C12.5816 4.20826 13.433 3.87804 14.2574 4.04225L14.4219 4.08172Z"
    fill="#858585"/>
</svg>
