<svg xmlns="http://www.w3.org/2000/svg" xmlns:xlink="http://www.w3.org/1999/xlink" width="20" height="20" viewBox="0 0 20 20">
    <defs>
        <path id="3dvh42qd6a" d="M11.855 3.11l.346.115c.9.294 1.506 1.123 1.506 2.056v3.134H14.8c1.215 0 2.2.97 2.2 2.167 0 .201-.028.402-.085.595l-.943 3.251c-.27.93-1.133 1.572-2.115 1.572H7.1c-.213 0-.412-.06-.581-.163-.15.103-.328.163-.519.163H4c-.552 0-1-.504-1-1.125v-6.75C3 7.504 3.448 7 4 7h2c.305 0 .579.154.762.397l2.68-3.583c.576-.71 1.539-.99 2.413-.703zm-1.442 1.193l-.085.091L7 8.769V15h6.857c.447 0 .844-.265 1.014-.663l.044-.123 1.043-3.334c.028-.097.042-.197.042-.298 0-.556-.425-1.014-.972-1.076l-.128-.008h-1.293c-.552 0-1-.448-1-1v-3.28c0-.424-.25-.805-.634-.981l-.119-.047-.347-.113c-.393-.13-.822-.029-1.094.226zM6 8H4v7h2V8z"/>
    </defs>
    <g fill="none" fill-rule="evenodd">
        <g>
            <g>
                <g>
                    <g>
                        <g>
                            <g transform="translate(-1752.000000, -583.000000) translate(1394.000000, 414.000000) translate(20.000000, 160.000000) translate(326.000000, 2.000000) translate(12.000000, 6.000000) translate(0.000000, 1.000000)">
                                <mask id="ejlvctml5b" fill="#fff">
                                    <use xlink:href="#3dvh42qd6a"/>
                                </mask>
                                <use fill="#b5b5b5" fill-rule="nonzero" xlink:href="#3dvh42qd6a"/>
                            </g>
                        </g>
                    </g>
                </g>
            </g>
        </g>
    </g>
</svg>
