<svg width="24" height="24" viewBox="0 0 24 24" fill="none" xmlns="http://www.w3.org/2000/svg">
  <rect opacity="0.01" width="24" height="24" fill="#D8D8D8"/>
  <path
    d="M19 18.5C19 19.8255 17.9685 20.91 16.6644 20.9947L16.5 21H7.35714C6.76658 21 6.21032 20.7685 5.78189 20.3602C5.33189 19.9313 5.05388 19.3376 5.00705 18.6943L5 18.5V5.5C5 4.18214 5.96465 3.09057 7.20121 3.00535L7.35714 3H13.8571C13.9684 3 14.0756 3.03705 14.1625 3.10403L14.2235 3.15977L18.8664 8.15977C18.9308 8.22914 18.9738 8.31484 18.9912 8.4066L19 8.5V18.5Z"
    fill="#E6E6E6"/>
  <path
    d="M16.5 20C17.2797 20 17.9204 19.4051 17.9931 18.6445L18 18.5V10H14.5C13.707 10 13.0739 9.35206 13.006 8.54414L13 8.4V4H7.35714C6.65981 4 6.07293 4.58786 6.0063 5.3543L6 5.5V18.5C6 18.9439 6.17504 19.3534 6.47181 19.6363C6.68257 19.8371 6.94106 19.9609 7.21754 19.9922L7.35714 20H16.5Z"
    fill="#858585"/>
  <path
    d="M12.5 16C12.7761 16 13 16.2239 13 16.5C13 16.7761 12.7761 17 12.5 17H8.5C8.22386 17 8 16.7761 8 16.5C8 16.2239 8.22386 16 8.5 16H12.5Z"
    fill="#E6E6E6"/>
  <path
    d="M15.5 13C15.7761 13 16 13.2239 16 13.5C16 13.7761 15.7761 14 15.5 14H8.5C8.22386 14 8 13.7761 8 13.5C8 13.2239 8.22386 13 8.5 13H15.5Z"
    fill="#E6E6E6"/>
  <path
    d="M11.5 10C11.7761 10 12 10.2239 12 10.5C12 10.7761 11.7761 11 11.5 11H8.5C8.22386 11 8 10.7761 8 10.5C8 10.2239 8.22386 10 8.5 10H11.5Z"
    fill="#E6E6E6"/>
  <path d="M14 4.38904V8.40004C14 8.70734 14.1904 8.9475 14.4216 8.99246L14.5 9.00004H18V8.69704L14 4.38904Z"
        fill="#E6E6E6"/>
</svg>
