<svg xmlns="http://www.w3.org/2000/svg" xmlns:xlink="http://www.w3.org/1999/xlink" width="32" height="32">
  <defs>
    <filter id="krkvv1k7ka" width="200%" height="130.3%" x="-50%" y="-15.2%" filterUnits="objectBoundingBox">
      <feOffset dy="4" in="SourceAlpha" result="shadowOffsetOuter1"/>
      <feGaussianBlur in="shadowOffsetOuter1" result="shadowBlurOuter1" stdDeviation="3"/>
      <feColorMatrix in="shadowBlurOuter1" result="shadowMatrixOuter1" values="0 0 0 0 0 0 0 0 0 0 0 0 0 0 0 0 0 0 0.2 0"/>
      <feMerge>
        <feMergeNode in="shadowMatrixOuter1"/>
        <feMergeNode in="SourceGraphic"/>
      </feMerge>
    </filter>
    <path id="y7fk6ob6ib" d="M16 2c7.732 0 14 6.268 14 14s-6.268 14-14 14S2 23.732 2 16 8.268 2 16 2zm0 6.417c-5.155 0-9.333 3.294-9.333 7.359 0 2.627 1.747 4.933 4.374 6.235-.142.493-.918 3.172-.95 3.382 0 0-.018.158.085.219.102.06.223.013.223.013.293-.041 3.405-2.227 3.943-2.606.538.076 1.092.116 1.658.116 5.155 0 9.333-3.295 9.333-7.36 0-4.064-4.178-7.358-9.333-7.358zm-3.782 5.16a.528.528 0 110 1.054h-.84v3.2a.527.527 0 01-.538.514.528.528 0 01-.539-.515v-3.199h-.84a.528.528 0 110-1.054h2.757zm1.807 0c.352.008.627.274.718.532l1.288 3.389c.164.509.021.697-.127.765a.816.816 0 01-.343.075c-.224 0-.396-.092-.448-.238l-.266-.698h-1.642l-.267.698c-.052.146-.223.238-.448.238a.823.823 0 01-.342-.075c-.149-.068-.291-.257-.128-.764l1.288-3.39c.09-.258.366-.524.717-.532zm5.864 0c.297 0 .538.241.538.538v1.158l1.503-1.503a.418.418 0 01.298-.12c.135 0 .27.059.37.16a.534.534 0 01.16.341.422.422 0 01-.12.328l-1.227 1.227 1.326 1.756a.53.53 0 01.034.597.539.539 0 01-.894.051l-1.263-1.673-.186.187v1.175a.54.54 0 01-.539.539.54.54 0 01-.539-.539v-3.684c0-.297.242-.538.539-.538zm-2.958 0c.303 0 .55.241.55.538v3.164h1.144c.284 0 .516.221.516.493a.506.506 0 01-.516.494h-1.728a.506.506 0 01-.516-.494v-3.657c0-.297.247-.538.55-.538zm-2.905 1.343l-.538 1.528h1.075l-.537-1.528z"/>
  </defs>
  <g filter="url(#krkvv1k7ka)" transform="translate(-4 -50)" fill="none" fill-rule="evenodd">
    <g transform="translate(4 50)">
      <mask id="fkjxdyzl8c" fill="#fff">
        <use xlink:href="#y7fk6ob6ib"/>
      </mask>
      <use fill="#F4F5F7" xlink:href="#y7fk6ob6ib"/>
    </g>
  </g>
</svg>