<svg xmlns="http://www.w3.org/2000/svg" xmlns:xlink="http://www.w3.org/1999/xlink" width="25" height="24" viewBox="0 0 25 24">
    <defs>
        <path id="15amm3inxa" d="M13.857 3c.111 0 .219.037.305.104l.062.056 4.642 5c.065.07.108.155.125.247L19 8.5v4c0 .276-.224.5-.5.5-.245 0-.45-.177-.492-.41L18 12.5V10h-3.5c-.793 0-1.426-.648-1.494-1.456L13 8.4V4H7.357c-.697 0-1.284.588-1.35 1.354L6 5.5v13c0 .444.175.853.472 1.136.21.201.47.325.746.356l.14.008H9.5c.276 0 .5.224.5.5 0 .245-.177.45-.41.492L9.5 21H7.357c-.59 0-1.147-.232-1.575-.64-.45-.429-.728-1.022-.775-1.666L5 18.5v-13c0-1.318.965-2.41 2.201-2.495L7.357 3h6.5zM12.5 16c.276 0 .5.224.5.5s-.224.5-.5.5h-4c-.276 0-.5-.224-.5-.5s.224-.5.5-.5h4zm3-3c.276 0 .5.224.5.5s-.224.5-.5.5h-7c-.276 0-.5-.224-.5-.5s.224-.5.5-.5h7zM19 9.563V18.5c0 1.325-1.032 2.41-2.336 2.495L16.5 21h-9v-1h9c.78 0 1.42-.595 1.493-1.356L18 18.5V9.563h1zM11.5 10c.276 0 .5.224.5.5s-.224.5-.5.5h-3c-.276 0-.5-.224-.5-.5s.224-.5.5-.5h3zM14 4.389V8.4c0 .307.19.547.422.592L14.5 9H18v-.303l-4-4.308z"/>
    </defs>
    <g fill="none" fill-rule="evenodd">
        <g>
            <g>
                <g transform="translate(-160.000000, -64.000000) translate(63.000000, 56.000000) translate(97.500000, 8.000000)">
                    <use fill="#9E9E9E" fill-rule="nonzero" xlink:href="#15amm3inxa"/>
                </g>
            </g>
        </g>
    </g>
</svg>
