<svg xmlns="http://www.w3.org/2000/svg" xmlns:xlink="http://www.w3.org/1999/xlink" width="19" height="19" viewBox="0 0 19 19">
    <defs>
        <path id="khrp9grdqa" d="M10.67 2.8l.311.102c.81.265 1.355 1.01 1.355 1.85v2.821h.984c1.094 0 1.98.873 1.98 1.95 0 .182-.026.362-.076.537l-.849 2.925c-.243.838-1.02 1.415-1.904 1.415H6.39c-.192 0-.372-.054-.524-.148-.135.094-.295.148-.466.148H3.6c-.497 0-.9-.453-.9-1.013V7.312c0-.559.403-1.012.9-1.012h1.8c.275 0 .521.139.686.358l2.412-3.226c.518-.638 1.384-.89 2.171-.632zM9.37 3.873l-.076.082L6.3 7.892V13.5h6.171c.402 0 .76-.239.913-.596l.04-.111.938-3.001c.025-.088.038-.178.038-.268 0-.5-.382-.913-.875-.969l-.115-.007h-1.064c-.552 0-1-.447-1-1V4.697c0-.382-.225-.725-.57-.884l-.107-.042-.312-.102c-.354-.116-.74-.025-.986.204zM5.4 7.2H3.6v6.3h1.8V7.2z"/>
    </defs>
    <g fill="none" fill-rule="evenodd">
        <g>
            <g>
                <g>
                    <g>
                        <g>
                            <g>
                                <g transform="translate(-1780.000000, -692.000000) translate(1464.000000, 342.000000) translate(0.000000, 58.000000) translate(15.468468, -3.644323) translate(2.729730, 285.937500) translate(285.981982, 2.000000) translate(12.000000, 6.000000) translate(0.000000, 2.000000)">
                                    <mask id="8mqwiger1b" fill="#fff">
                                        <use xlink:href="#khrp9grdqa"/>
                                    </mask>
                                    <use fill="#2581FF" fill-rule="nonzero" xlink:href="#khrp9grdqa"/>
                                </g>
                            </g>
                        </g>
                    </g>
                </g>
            </g>
        </g>
    </g>
</svg>
