<svg xmlns="http://www.w3.org/2000/svg" xmlns:xlink="http://www.w3.org/1999/xlink" width="24" height="24" viewBox="0 0 24 24">
    <defs>
        <path id="wvi82ir2za" d="M8.017 11c.276 0 .5.224.5.5 0 .245-.177.45-.41.492l-.09.008H5.5c-.245 0-.45.177-.492.41L5 12.5v6c0 .245.177.45.41.492L5.5 19h13c.245 0 .45-.177.492-.41L19 18.5v-6c0-.245-.177-.45-.41-.492L18.5 12h-3.463c-.276 0-.5-.224-.5-.5 0-.245.177-.45.41-.492l.09-.008H18.5c.78 0 1.42.595 1.493 1.356L20 12.5v6c0 .78-.595 1.42-1.356 1.493L18.5 20h-13c-.78 0-1.42-.595-1.493-1.356L4 18.5v-6c0-.78.595-1.42 1.356-1.493L5.5 11h2.517zM12 3l.074.005.054.012.066.022.077.04c.03.02.057.042.083.067l4.242 4.243.058.07c.135.194.116.464-.058.637l-.07.058c-.194.135-.463.116-.637-.058L12.5 4.705l.001 10.796c0 .276-.224.5-.5.5s-.5-.224-.5-.5V4.705L8.11 8.096l-.068.058c-.195.135-.465.116-.638-.058-.195-.195-.195-.512 0-.707l4.274-4.271.055-.04.095-.048.067-.019C11.929 3.004 11.964 3 12 3z"/>
    </defs>
    <g fill="none" fill-rule="evenodd">
        <g>
            <g transform="translate(-324.000000, -12.000000) translate(324.000000, 12.000000)">
                <use fill="#9E9E9E" fill-rule="nonzero" xlink:href="#wvi82ir2za"/>
            </g>
        </g>
    </g>
</svg>
