<svg width="25" height="24" viewBox="0 0 25 24" fill="none" xmlns="http://www.w3.org/2000/svg">
  <rect opacity="0.01" x="0.5" width="24" height="24" fill="#D8D8D8"/>
  <path fill-rule="evenodd" clip-rule="evenodd"
        d="M18.1251 3.30828L19.743 4.28721C20.6408 4.83044 20.9587 5.96737 20.498 6.88995L20.3907 7.07865L17.5844 11.45C18.4704 12.5609 19 13.9686 19 15.5001C19 19.0899 16.0899 22.0001 12.5 22.0001C8.91017 22.0001 6.00002 19.0899 6.00002 15.5001C6.00002 13.9691 6.52931 12.5618 7.41489 11.451L4.60869 7.07828C4.0122 6.14862 4.28229 4.91143 5.21196 4.31494L6.87263 3.30895C7.80014 2.74754 9.00608 3.02737 9.59157 3.93987L12.498 8.46967L15.4067 3.93893C15.9923 3.02684 17.1978 2.74717 18.1251 3.30828ZM7.38516 4.13828L5.75328 5.12648C5.31461 5.39212 5.15302 5.94127 5.36123 6.39661L5.42953 6.52175L8.11253 10.7042C9.08214 9.81666 10.3217 9.21929 11.6939 9.04956L8.74483 4.4537C8.45206 3.99735 7.84895 3.85744 7.38516 4.13828ZM13.3037 9.04925L16.2536 4.45335C16.5464 3.99715 17.1493 3.85728 17.6131 4.13799L19.2459 5.12644L19.3626 5.20889C19.75 5.52608 19.8467 6.09029 19.5697 6.52192L16.8868 10.7036C15.9168 9.81584 14.6765 9.21852 13.3037 9.04925Z"
        fill="#E6E6E6"/>
</svg>
