<svg xmlns="http://www.w3.org/2000/svg" xmlns:xlink="http://www.w3.org/1999/xlink" width="32" height="32" viewBox="0 0 32 32">
    <defs>
        <path id="p6bgtpxfba" d="M16 2c7.732 0 14 6.268 14 14s-6.268 14-14 14S2 23.732 2 16 8.268 2 16 2zm-3.983 12H9.5l-.144.007C8.595 14.08 8 14.72 8 15.5v6l.007.144C8.08 22.405 8.72 23 9.5 23h13l.144-.007C23.405 22.92 24 22.28 24 21.5v-6l-.007-.144C23.92 14.595 23.28 14 22.5 14h-3.463l-.09.008c-.233.042-.41.247-.41.492 0 .276.224.5.5.5H22.5l.09.008c.233.042.41.247.41.492v6l-.008.09c-.042.233-.247.41-.492.41h-13l-.09-.008C9.177 21.95 9 21.745 9 21.5v-6l.008-.09c.042-.233.247-.41.492-.41h2.517l.09-.008c.233-.042.41-.247.41-.492 0-.276-.224-.5-.5-.5zM16 6c-.036 0-.071.004-.105.011l-.067.02-.095.046-.055.04-4.274 4.272-.058.07c-.135.194-.116.464.058.637.173.174.443.193.638.058l.069-.058 3.388-3.391.001 10.796.008.09c.042.233.247.41.492.41.276 0 .5-.224.5-.5V7.705l3.39 3.391.068.058c.17.118.398.118.569 0l.07-.058.057-.07c.118-.17.118-.397 0-.568l-.058-.069-4.242-4.243-.04-.036-.043-.03-.077-.04-.066-.023-.054-.012z"/>
    </defs>
    <g fill="none" fill-rule="evenodd">
        <g>
            <mask id="cman61wp3b" fill="#fff">
                <use xlink:href="#p6bgtpxfba"/>
            </mask>
            <use fill="#2581FF" xlink:href="#p6bgtpxfba"/>
            <g mask="url(#cman61wp3b)">
                <path fill="#F4F5F7" d="M0 0H32V32H0z"/>
                <path fill="#5B606F" d="M0 0H32V32H0z"/>
            </g>
        </g>
    </g>
</svg>
