<svg width="25" height="24" viewBox="0 0 25 24" fill="none" xmlns="http://www.w3.org/2000/svg">
  <rect opacity="0.01" x="0.5" width="24" height="24" fill="#D8D8D8"/>
  <path
    d="M15.8571 4L16.0235 4.00488C17.3418 4.08252 18.4078 5.07653 18.4943 6.33448L18.5 6.5V10.5H20C21.3255 10.5 22.41 11.5315 22.4947 12.8356L22.5 13V20.9706C22.5 21.5391 22.0391 22 21.4706 22C21.2673 22 21.0695 21.9398 20.9016 21.8285L20.8046 21.7555L19.5408 20.6833C19.3085 20.4862 19.0226 20.3653 18.7219 20.3348L18.5704 20.3271H12C10.6745 20.3271 9.58996 19.2956 9.50532 17.9915L9.5 17.8271V15.9149H6.62415L6.46556 15.9219C6.2135 15.9443 5.97089 16.0196 5.75651 16.1415L5.60132 16.2415L4.18143 17.2739L4.06744 17.3461C3.90988 17.4322 3.73148 17.4778 3.54963 17.4778C3.0155 17.4778 2.56407 17.0897 2.50625 16.5766L2.5 16.4648V6.5L2.50523 6.34104C2.58836 5.08218 3.65216 4.08612 4.96963 4.0053L5.14286 4H15.8571Z"
    fill="#E6E6E6"/>
  <path
    d="M20 11.5H12C11.2203 11.5 10.5796 12.0949 10.5069 12.8555L10.5 13V17.8271C10.5 18.6068 11.0949 19.2476 11.8555 19.3203L12 19.3271H18.5704C19.097 19.3271 19.6084 19.4934 20.0328 19.7995L20.1878 19.9208L21.4604 20.9982L21.4706 21C21.4814 21 21.4909 20.9941 21.496 20.9854L21.5 20.9706V13C21.5 12.2203 20.9051 11.5796 20.1445 11.5069L20 11.5Z"
    fill="#E6E6E6"/>
  <path
    d="M19 16C19.2761 16 19.5 16.2239 19.5 16.5C19.5 16.7761 19.2761 17 19 17H13C12.7239 17 12.5 16.7761 12.5 16.5C12.5 16.2239 12.7239 16 13 16H19Z"
    fill="#858585"/>
  <path
    d="M15.8571 5H5.14286L4.99222 5.0062C4.19904 5.07184 3.57708 5.65078 3.50665 6.36466L3.5 6.5V16.4648L3.52129 16.4742L3.54963 16.4778L3.57409 16.4743L3.59337 16.4651L5.01326 15.4327L5.19136 15.314C5.55663 15.0911 5.97423 14.9571 6.4068 14.9234L6.62415 14.9149H9.5V13C9.5 11.6745 10.5315 10.59 11.8356 10.5053L12 10.5H17.5V6.5L17.4934 6.36466C17.4229 5.65078 16.801 5.07184 16.0078 5.0062L15.8571 5Z"
    fill="#858585"/>
  <path
    d="M19 14C19.2761 14 19.5 14.2239 19.5 14.5C19.5 14.7761 19.2761 15 19 15H13C12.7239 15 12.5 14.7761 12.5 14.5C12.5 14.2239 12.7239 14 13 14H19Z"
    fill="#858585"/>
</svg>
