<svg xmlns="http://www.w3.org/2000/svg" width="25" height="24" viewBox="0 0 25 24">
    <g fill="none" fill-rule="evenodd">
        <g>
            <g>
                <g>
                    <path fill="#9E9E9E" fill-rule="nonzero" d="M10.785 4.307c.783-1.073 2.134-1.545 3.4-1.189 1.261.355 2.135 1.524 2.135 2.855v3.892c0 .276.22.5.492.5l2.73.1c1.357 0 2.458 1.119 2.458 2.5 0 .26-.04.52-.12.768l-1.57 4.943c-.46 1.445-1.782 2.424-3.275 2.424L9.458 21c-.657 0-1.255-.263-1.696-.69-.266.415-.732.69-1.262.69h-3c-.828 0-1.5-.672-1.5-1.5v-10C2 8.672 2.672 8 3.5 8h3c.463 0 .877.21 1.152.54l.07-.118.148-.216zm2.972-.265c-.824-.164-1.675.166-2.182.86l-2.915 3.9c-.376.515-.603 1.124-.662 1.759v8.158c.105.724.719 1.281 1.46 1.281l7.577.1c1.067 0 2.011-.7 2.34-1.731l1.57-4.943c.048-.15.072-.305.072-.462 0-.828-.66-1.5-1.475-1.5l-2.73-.1c-.815 0-1.475-.671-1.475-1.5v-3.89c0-.883-.579-1.657-1.415-1.892zM6.5 9h-3c-.276 0-.5.224-.5.5v10c0 .276.224.5.5.5h3c.276 0 .5-.224.5-.5v-10c0-.276-.224-.5-.5-.5z" transform="translate(-301.000000, -64.000000) translate(63.000000, 56.000000) translate(238.500000, 8.000000)"/>
                </g>
            </g>
        </g>
    </g>
</svg>
