<svg xmlns="http://www.w3.org/2000/svg" width="25" height="24" viewBox="0 0 25 24">
    <g fill="none" fill-rule="evenodd">
        <g>
            <g>
                <g>
                    <path fill="#9E9E9E" fill-rule="nonzero" d="M10.41 3.161c.924-.76 2.256-.76 3.18 0l6.5 5.353c.576.475.91 1.183.91 1.93V18.5c0 1.38-1.12 2.5-2.5 2.5h-13C4.12 21 3 19.88 3 18.5v-8.056c0-.747.334-1.455.91-1.93zm2.544.772c-.554-.456-1.354-.456-1.908 0l-6.5 5.353C4.2 9.571 4 9.996 4 10.444V18.5c0 .828.672 1.5 1.5 1.5h3v-5.5c0-1.325 1.032-2.41 2.336-2.495L11 12h2c1.325 0 2.41 1.032 2.495 2.336l.005.164V20h3c.78 0 1.42-.595 1.493-1.356L20 18.5v-8.056c0-.448-.2-.873-.546-1.158zM13 13h-2c-.78 0-1.42.595-1.493 1.356L9.5 14.5V20h5v-5.5c0-.78-.595-1.42-1.356-1.493L13 13z" transform="translate(-89.000000, -64.000000) translate(63.000000, 56.000000) translate(26.500000, 8.000000)"/>
                </g>
            </g>
        </g>
    </g>
</svg>
