<svg width="36" height="36" viewBox="0 0 36 36" fill="none" xmlns="http://www.w3.org/2000/svg">
  <circle cx="18" cy="18" r="18" fill="#FF5859"/>
  <rect opacity="0.01" x="6" y="6" width="24" height="24" fill="#FEFEFE"/>
  <path fill-rule="evenodd" clip-rule="evenodd" d="M25.5 9C25.2239 9 25 9.22386 25 9.5V9.80201C24.9313 9.82826 24.8654 9.86531 24.8048 9.91345L23.7516 10.7493C23.1036 11.2637 22.3842 11.681 21.6161 11.9883C20.8454 12.2966 20.0357 12.4968 19.2101 12.5832L10.5097 13.4939C9.65165 13.5837 9 14.3072 9 15.1699V18.8303C9 19.6929 9.65146 20.4163 10.5094 20.5063L13.7432 20.8454L12.1938 24.6841C12.1129 24.8845 12.0713 25.0986 12.0713 25.3148C12.0713 26.2455 12.8258 27 13.7565 27H14.847C15.5242 27 16.1356 26.5946 16.3992 25.9709L18.3607 21.3297L19.1781 21.4155C20.011 21.5028 20.8281 21.7036 21.6066 22.0123C22.3813 22.3195 23.1067 22.7389 23.7595 23.257L24.8048 24.0866C24.8642 24.1337 24.9301 24.1711 25 24.1978V24.5C25 24.7761 25.2239 25 25.5 25C25.7761 25 26 24.7761 26 24.5V23.5092V10.4908V9.5C26 9.22386 25.7761 9 25.5 9ZM14.7882 20.955L17.3295 21.2216L15.4781 25.5816C15.3709 25.8352 15.1223 26 14.847 26H13.7565C13.3781 26 13.0713 25.6932 13.0713 25.3148C13.0713 25.2269 13.0882 25.1399 13.1211 25.0583L14.7882 20.955ZM25 22.965V11.034L24.3732 11.5326C23.6493 12.1072 22.8456 12.5734 21.9875 12.9167C21.6641 13.0461 21.3344 13.1584 21 13.2531V20.752C21.3301 20.8457 21.6556 20.956 21.9752 21.0827C22.841 21.426 23.6517 21.8947 24.3812 22.4737L25 22.965ZM20 20.5221V13.4819C19.7728 13.5217 19.5441 13.5537 19.3142 13.5778L10.6139 14.4885C10.265 14.525 10 14.8191 10 15.1699V18.8303C10 19.181 10.2649 19.4751 10.6137 19.5117L19.2824 20.4209C19.523 20.4462 19.7623 20.4799 20 20.5221Z" fill="#FEFEFE"/>
  <mask id="mask0_77:35755" style="mask-type:alpha" maskUnits="userSpaceOnUse" x="9" y="9" width="17" height="18">
    <path fill-rule="evenodd" clip-rule="evenodd" d="M25.5 9C25.2239 9 25 9.22386 25 9.5V9.80201C24.9313 9.82826 24.8654 9.86531 24.8048 9.91345L23.7516 10.7493C23.1036 11.2637 22.3842 11.681 21.6161 11.9883C20.8454 12.2966 20.0357 12.4968 19.2101 12.5832L10.5097 13.4939C9.65165 13.5837 9 14.3072 9 15.1699V18.8303C9 19.6929 9.65146 20.4163 10.5094 20.5063L13.7432 20.8454L12.1938 24.6841C12.1129 24.8845 12.0713 25.0986 12.0713 25.3148C12.0713 26.2455 12.8258 27 13.7565 27H14.847C15.5242 27 16.1356 26.5946 16.3992 25.9709L18.3607 21.3297L19.1781 21.4155C20.011 21.5028 20.8281 21.7036 21.6066 22.0123C22.3813 22.3195 23.1067 22.7389 23.7595 23.257L24.8048 24.0866C24.8642 24.1337 24.9301 24.1711 25 24.1978V24.5C25 24.7761 25.2239 25 25.5 25C25.7761 25 26 24.7761 26 24.5V23.5092V10.4908V9.5C26 9.22386 25.7761 9 25.5 9ZM14.7882 20.955L17.3295 21.2216L15.4781 25.5816C15.3709 25.8352 15.1223 26 14.847 26H13.7565C13.3781 26 13.0713 25.6932 13.0713 25.3148C13.0713 25.2269 13.0882 25.1399 13.1211 25.0583L14.7882 20.955ZM25 22.965V11.034L24.3732 11.5326C23.6493 12.1072 22.8456 12.5734 21.9875 12.9167C21.6641 13.0461 21.3344 13.1584 21 13.2531V20.752C21.3301 20.8457 21.6556 20.956 21.9752 21.0827C22.841 21.426 23.6517 21.8947 24.3812 22.4737L25 22.965ZM20 20.5221V13.4819C19.7728 13.5217 19.5441 13.5537 19.3142 13.5778L10.6139 14.4885C10.265 14.525 10 14.8191 10 15.1699V18.8303C10 19.181 10.2649 19.4751 10.6137 19.5117L19.2824 20.4209C19.523 20.4462 19.7623 20.4799 20 20.5221Z" fill="white"/>
  </mask>
  <g mask="url(#mask0_77:35755)">
    <rect width="24" height="24" transform="translate(6 6)" fill="#FEFEFE"/>
    <rect x="6" y="6" width="24" height="24" fill="#FEFEFE"/>
  </g>
</svg>
