<svg xmlns="http://www.w3.org/2000/svg" width="25" height="24" viewBox="0 0 25 24">
    <g fill="none" fill-rule="evenodd">
        <g>
            <g>
                <g>
                    <path fill="#9E9E9E" fill-rule="nonzero" d="M12 3c4.97 0 9 4.03 9 9 0 1.802-.531 3.526-1.511 4.993l.14-.22 1.335 3.542c.136.34-.128.696-.477.685l-.082-.01-.208-.045-1.819-.446-2.155-.552-.126.068c-1.151.59-2.42.926-3.737.978L12 21c-4.97 0-9-4.03-9-9s4.03-9 9-9zm0 1c-4.418 0-8 3.582-8 8s3.582 8 8 8c1.392 0 2.732-.356 3.918-1.023.122-.069.267-.083.4-.04l.233.064 3.145.794-1.074-2.861-.04-.126c-.024-.127.002-.26.075-.37C19.528 15.134 20 13.603 20 12c0-4.418-3.582-8-8-8zm0 7c.552 0 1 .448 1 1s-.448 1-1 1-1-.448-1-1 .448-1 1-1zm-4 0c.552 0 1 .448 1 1s-.448 1-1 1-1-.448-1-1 .448-1 1-1zm8 0c.552 0 1 .448 1 1s-.448 1-1 1-1-.448-1-1 .448-1 1-1z" transform="translate(-231.000000, -64.000000) translate(63.000000, 56.000000) translate(168.500413, 8.000000)"/>
                </g>
            </g>
        </g>
    </g>
</svg>
