<svg xmlns="http://www.w3.org/2000/svg" xmlns:xlink="http://www.w3.org/1999/xlink" width="20" height="20" viewBox="0 0 20 20">
    <defs>
        <path id="29qtchaxia" d="M10 0c5.523 0 10 4.477 10 10s-4.477 10-10 10S0 15.523 0 10 4.477 0 10 0zm5.603 8.933c-.411-.498-1.19-.498-1.69-.143-.818.565-.928 1.904-.206 2.587.52.492 1.39.478 1.907-.012-.02.274-.02.59-.233.795-.19.18-.473.169-.717.18.001.318.002.636.001.955.46.02.963-.011 1.344-.3.44-.324.626-.89.63-1.418.002-.976 0-1.953 0-2.929-.346-.003-.692-.003-1.038 0v.195zm-3.358.088c-.5-.478-1.266-.577-1.913-.394-.912.218-1.407 1.295-1.048 2.145.422 1.086 1.966 1.3 2.838.64.741-.546.79-1.768.123-2.391zM3.233 7.244c-.036 1.477-.003 2.956-.019 4.433.348.014.698.01 1.046.008l-.006-.313c.434.546 1.303.52 1.805.086.734-.615.757-1.87.072-2.53-.496-.5-1.382-.522-1.884-.017.019-.552 0-1.105.013-1.657-.342-.004-.684 0-1.027-.01zm3.722-.101c-.002.34-.007.68 0 1.021.312.09.475.4.473.71.04.936.004 1.875.02 2.812.342.002.685.002 1.028-.001.004-.936-.002-1.874.002-2.812.011-.542-.179-1.127-.63-1.456-.255-.195-.577-.264-.893-.274zm3.775 2.372c.42-.161.926.205.87.661.056.502-.568.84-.984.59-.501-.248-.43-1.1.114-1.251zm-6.106.018c.428-.202.967.163.921.639.04.49-.54.832-.96.608-.507-.221-.482-1.063.039-1.247zm10.099-.03c.434-.203.971.195.916.669.022.499-.581.803-.996.568-.48-.241-.432-1.06.08-1.236z"/>
    </defs>
    <g fill="none" fill-rule="evenodd">
        <g>
            <g>
                <g transform="translate(-484 -2521) translate(472 2507) translate(12 14)">
                    <use fill="#00B900" xlink:href="#29qtchaxia"/>
                </g>
            </g>
        </g>
    </g>
</svg>
