<svg width="24" height="24" viewBox="0 0 24 24" fill="none" xmlns="http://www.w3.org/2000/svg">
<path fill-rule="evenodd" clip-rule="evenodd" d="M12 1.5C17.799 1.5 22.5 6.20101 22.5 12C22.5 17.799 17.799 22.5 12 22.5C6.20101 22.5 1.5 17.799 1.5 12C1.5 6.20101 6.20101 1.5 12 1.5ZM17.8835 10.8792C17.4516 10.3566 16.6337 10.3566 16.1087 10.7296C15.2494 11.3223 15.1344 12.7288 15.8928 13.4458C16.4386 13.9625 17.3517 13.9478 17.8944 13.4331L17.8806 13.6298C17.8619 13.8627 17.8234 14.1001 17.6504 14.2678C17.5 14.41 17.2955 14.4386 17.0947 14.4488L16.8972 14.4564C16.8982 14.791 16.8996 15.1251 16.8982 15.4597C17.3821 15.4813 17.9095 15.4478 18.3099 15.1439C18.7712 14.804 18.9663 14.21 18.9707 13.6559V10.5804C18.6073 10.577 18.2438 10.577 17.8814 10.5804L17.8835 10.8792ZM14.3573 10.972C13.8324 10.4706 13.0275 10.3666 12.3482 10.5579C11.391 10.7875 10.8715 11.9182 11.2479 12.8107C11.6918 13.9506 13.3129 14.1765 14.2276 13.4835C15.0065 12.9096 15.0582 11.6266 14.3573 10.972ZM4.89451 9.10643C4.85652 10.6567 4.89143 12.2097 4.875 13.7613C5.24049 13.776 5.60735 13.7722 5.97318 13.7688L5.96633 13.4403C6.42217 14.0142 7.33452 13.9875 7.86188 13.5306C8.63221 12.8855 8.65719 11.5673 7.93785 10.875C7.41699 10.3487 6.48616 10.3264 5.95915 10.8562C5.97934 10.2768 5.96017 9.69607 5.97318 9.11704C5.61385 9.11293 5.25486 9.11704 4.89451 9.10643ZM8.8024 9C8.80034 9.35796 8.7959 9.71489 8.8024 10.0725C9.13024 10.1673 9.30169 10.4917 9.2993 10.8168C9.34071 11.8004 9.30375 12.786 9.32017 13.7698C9.6795 13.7722 10.0392 13.7722 10.3995 13.7688L10.4019 10.8168C10.4136 10.2481 10.214 9.63379 9.73973 9.28746C9.47315 9.08316 9.13469 9.01027 8.8024 9ZM6.35475 11.5095C6.80511 11.298 7.37045 11.6813 7.32254 12.1806C7.36497 12.6942 6.75514 13.0539 6.31368 12.8192C5.78187 12.5868 5.80788 11.7032 6.35475 11.5095ZM12.766 11.4904C13.2074 11.3214 13.7392 11.7064 13.6804 12.1848C13.7392 12.7121 13.0839 13.067 12.6465 12.8039C12.1202 12.5434 12.1962 11.6489 12.766 11.4904ZM16.9592 11.4791C17.415 11.2652 17.979 11.6827 17.9204 12.1806C17.9444 12.7045 17.3106 13.0235 16.8757 12.7771C16.3712 12.5235 16.4212 11.6645 16.9592 11.4791Z" fill="#B5B5B5"/>
</svg>
