<svg width="24" height="24" viewBox="0 0 24 24" fill="none" xmlns="http://www.w3.org/2000/svg">
<path fill-rule="evenodd" clip-rule="evenodd" d="M12 22.5C17.799 22.5 22.5 17.799 22.5 12C22.5 6.20101 17.799 1.5 12 1.5C6.20101 1.5 1.5 6.20101 1.5 12C1.5 17.799 6.20101 22.5 12 22.5ZM15.2035 9.51752C15.6 9.51752 15.923 9.19502 15.923 8.79752C15.923 8.40052 15.6 8.07752 15.2035 8.07802C14.8065 8.07802 14.483 8.40052 14.483 8.79752C14.483 9.19452 14.806 9.51752 15.2035 9.51752ZM9.75 12C9.75 13.2431 10.7569 14.25 12 14.25C13.2431 14.25 14.25 13.2431 14.25 12C14.25 10.7569 13.2431 9.75 12 9.75C10.7569 9.75 9.75 10.7569 9.75 12ZM8.91898 12C8.91898 10.299 10.298 8.91902 12 8.91902C13.7015 8.91902 15.081 10.2975 15.081 12C15.081 13.701 13.703 15.081 12 15.081C10.299 15.081 8.91898 13.7025 8.91898 12ZM14.5829 6.7958C13.9094 6.7665 13.706 6.75797 12.0007 6.75797L11.9768 6.74199C10.2944 6.74199 10.0751 6.74974 9.42058 6.77287L9.38982 6.77396C8.76691 6.80592 8.43096 6.90981 8.20736 6.99826C7.90442 7.10961 7.69625 7.25346 7.47318 7.47669C7.24904 7.70099 7.10582 7.90877 6.99402 8.21246C6.90617 8.43622 6.80288 8.77933 6.77041 9.40269L6.76964 9.42452C6.74628 10.0866 6.73846 10.3081 6.73846 11.9925C6.73846 13.6784 6.7463 13.898 6.76975 14.5547L6.77041 14.5733C6.80288 15.1967 6.90617 15.5398 6.99402 15.7641C7.10582 16.0603 7.24904 16.2761 7.47318 16.4993C7.69625 16.7231 7.90442 16.8589 8.20736 16.9783C8.43096 17.0662 8.77436 17.1701 9.3978 17.202C10.0756 17.234 10.2752 17.242 11.9853 17.242C13.6937 17.242 13.8934 17.2351 14.5717 17.2042C15.1946 17.1765 15.538 17.0715 15.7621 16.9847C16.0576 16.8685 16.2738 16.7305 16.4968 16.5073C16.7204 16.2825 16.8557 16.0699 16.9749 15.771C17.0628 15.5462 17.1666 15.2073 17.1991 14.584C17.231 13.9105 17.2385 13.7075 17.2385 12.0005C17.2385 10.2935 17.2315 10.091 17.2012 9.41654C17.173 8.79319 17.0686 8.45487 16.9818 8.23004C16.8658 7.93062 16.7274 7.71804 16.5043 7.49427C16.2796 7.27104 16.0677 7.13252 15.7685 7.0169C15.5444 6.92846 15.2058 6.8251 14.5829 6.7958ZM9.527 6.036C10.1665 6.0075 10.3705 6 12 6C13.63 6 13.8335 6.006 14.474 6.036C15.112 6.0655 15.5475 6.1665 15.9305 6.315C16.326 6.4675 16.66 6.6735 16.9935 7.007C17.3265 7.3405 17.5325 7.6755 17.685 8.07C17.833 8.452 17.934 8.888 17.964 9.5265C17.993 10.1665 18 10.37 18 12C18 13.63 17.9945 13.8335 17.964 14.4735C17.9345 15.1115 17.833 15.5475 17.685 15.93C17.533 16.3255 17.3265 16.6595 16.9935 16.993C16.66 17.326 16.3245 17.532 15.9305 17.685C15.5475 17.833 15.112 17.934 14.474 17.964C13.8335 17.9925 13.63 18 12 18C10.3705 18 10.1665 17.994 9.527 17.964C8.888 17.9345 8.453 17.833 8.07 17.685C7.675 17.5325 7.3405 17.326 7.007 16.993C6.6735 16.6595 6.468 16.324 6.315 15.93C6.1665 15.5475 6.066 15.1115 6.036 14.4735C6.0075 13.8335 6 13.63 6 12C6 10.37 6.0065 10.1665 6.036 9.5265C6.0655 8.8875 6.1665 8.4525 6.315 8.07C6.4675 7.675 6.6735 7.3405 7.007 7.007C7.3405 6.6735 7.6755 6.468 8.07 6.315C8.4525 6.1665 8.8875 6.066 9.527 6.036Z" fill="#989898"/>
</svg>
