<svg xmlns="http://www.w3.org/2000/svg" xmlns:xlink="http://www.w3.org/1999/xlink" width="20" height="20" viewBox="0 0 20 20">
    <defs>
        <path id="onokvikwxa" d="M10 0c5.523 0 10 4.477 10 10s-4.477 10-10 10S0 15.523 0 10 4.477 0 10 0zm.186 5.715h-.372c-.386.002-1.319.01-2.28.041l-.444.017c-.885.037-1.725.098-2.113.197-.553.141-.99.556-1.137 1.083-.245.872-.267 2.608-.268 2.904v.086c.001.296.023 2.032.268 2.904.148.527.584.942 1.137 1.083.905.231 4.273.253 4.916.255h.313c.832-.004 3.951-.034 4.817-.255.553-.141.989-.556 1.137-1.083.234-.83.264-2.445.268-2.852v-.19c-.004-.407-.034-2.022-.268-2.852-.148-.527-.584-.942-1.137-1.083-.388-.099-1.228-.16-2.113-.197l-.443-.017c-.962-.032-1.895-.04-2.281-.041zm-.9 2.142L12.143 10l-2.857 2.143V7.857z"/>
    </defs>
    <g fill="none" fill-rule="evenodd">
        <g>
            <g>
                <g>
                    <g transform="translate(-504 -1739) translate(472 533) translate(20 1136) translate(12 70)">
                        <use fill="red" xlink:href="#onokvikwxa"/>
                    </g>
                </g>
            </g>
        </g>
    </g>
</svg>
