<svg xmlns="http://www.w3.org/2000/svg" xmlns:xlink="http://www.w3.org/1999/xlink" width="20" height="20" viewBox="0 0 20 20">
    <defs>
        <linearGradient id="zcgnqkhryb" x1="18.405%" x2="88.5%" y1="93.159%" y2="18.547%">
            <stop offset="0%" stop-color="#FFD500"/>
            <stop offset="27.122%" stop-color="#FF5D00"/>
            <stop offset="54.037%" stop-color="red"/>
            <stop offset="76.375%" stop-color="#E10077"/>
            <stop offset="100%" stop-color="#CE00B8"/>
        </linearGradient>
        <path id="3q1s96a6ka" d="M10 0c5.523 0 10 4.477 10 10s-4.477 10-10 10S0 15.523 0 10 4.477 0 10 0zm.447 4.286h-.894c-.812.001-1.157.005-1.481.016l-.163.007-.264.011c-.61.029-1.024.124-1.388.266-.376.145-.695.341-1.012.659-.318.317-.514.636-.66 1.012-.14.364-.237.779-.265 1.387-.025.546-.033.758-.034 1.909v.894c.001 1.15.01 1.363.034 1.909.029.607.124 1.023.266 1.387.145.375.341.695.659 1.012.317.317.636.514 1.012.66.365.14.78.237 1.388.265.545.026.758.033 1.908.034h.894c1.15-.001 1.363-.01 1.91-.034.607-.029 1.022-.125 1.386-.266.376-.145.695-.342 1.013-.659.317-.317.514-.635.658-1.012.141-.364.238-.78.266-1.387.026-.546.033-.758.034-1.909v-.894c-.001-1.15-.01-1.363-.034-1.909-.029-.608-.125-1.023-.266-1.387-.145-.376-.341-.695-.658-1.012-.318-.318-.636-.514-1.013-.66-.364-.14-.78-.237-1.387-.265-.546-.026-.758-.033-1.909-.034zm-.47.706l.024.016h.467c1.203.002 1.418.01 1.992.036.593.028.916.126 1.13.21.284.11.486.242.7.455.212.213.344.415.455.7.082.215.182.537.209 1.13.022.508.031.735.034 1.608l.001.608V10.671c-.003 1.027-.012 1.25-.037 1.79-.031.594-.13.916-.214 1.13-.114.285-.242.488-.455.702-.213.212-.419.344-.7.454-.213.083-.54.183-1.134.21-.578.026-.79.034-1.995.035h-.937c-.78 0-1.144-.005-1.46-.015l-.17-.006-.365-.017c-.594-.03-.921-.13-1.134-.213-.289-.113-.487-.243-.7-.456-.213-.213-.35-.418-.456-.7-.083-.214-.182-.54-.213-1.134-.019-.539-.027-.764-.03-1.79V9.324c.003-1.026.011-1.253.03-1.798.031-.593.13-.92.213-1.133.107-.29.243-.487.457-.7.212-.214.41-.35.699-.457.213-.084.533-.183 1.126-.213.545-.02.765-.028 1.793-.03h.67zM10 7.066C8.379 7.066 7.066 8.38 7.066 10c0 1.621 1.314 2.934 2.934 2.934 1.622 0 2.934-1.314 2.934-2.934 0-1.621-1.314-2.934-2.934-2.934zm0 .791c1.184 0 2.143.96 2.143 2.143 0 1.184-.96 2.143-2.143 2.143-1.184 0-2.143-.96-2.143-2.143 0-1.184.96-2.143 2.143-2.143zm3.051-1.592c-.378 0-.686.307-.686.685 0 .378.307.686.686.686.378 0 .685-.307.685-.686 0-.378-.307-.686-.685-.685z"/>
    </defs>
    <g fill="none" fill-rule="evenodd">
        <g>
            <g>
                <g transform="translate(-886 -2457) translate(874 2443) translate(12 14)">
                    <use fill="url(#zcgnqkhryb)" xlink:href="#3q1s96a6ka"/>
                </g>
            </g>
        </g>
    </g>
</svg>
