<svg xmlns="http://www.w3.org/2000/svg" width="20" height="20" viewBox="0 0 20 20">
    <g fill="none" fill-rule="evenodd">
        <circle cx="10" cy="10" r="10" fill="#D8D8D8"/>
        <path fill="#FEFEFE" fill-rule="nonzero" d="M10 4c-1.629 0-1.833.007-2.473.036-.64.03-1.075.13-1.457.279-.394.153-.73.358-1.063.692a2.945 2.945 0 0 0-.692 1.063c-.149.381-.25.817-.279 1.456C4.008 8.166 4 8.37 4 10c0 1.63.007 1.833.036 2.473.03.64.13 1.075.279 1.457.153.394.358.729.692 1.063.333.333.668.539 1.063.692.381.148.817.25 1.456.279.64.029.844.036 2.474.036 1.63 0 1.833-.007 2.473-.036.64-.03 1.076-.13 1.457-.279a2.936 2.936 0 0 0 1.062-.693c.334-.333.54-.668.693-1.062.147-.382.249-.818.279-1.457.028-.64.036-.844.036-2.473 0-1.63-.008-1.834-.036-2.474-.03-.639-.132-1.075-.279-1.456a2.945 2.945 0 0 0-.693-1.063 2.932 2.932 0 0 0-1.062-.692c-.383-.148-.819-.25-1.458-.279C11.832 4.007 11.63 4 10 4H10zm-.538 1.081h.539c1.602 0 1.791.006 2.424.035.585.027.903.124 1.114.206.28.11.48.24.69.45.21.21.34.41.449.69.082.21.18.528.206 1.113.029.632.035.822.035 2.424 0 1.6-.006 1.79-.035 2.423-.027.585-.124.903-.206 1.114-.11.28-.24.48-.45.69-.21.21-.409.34-.689.448-.211.083-.529.18-1.114.207-.632.029-.822.035-2.424.035-1.603 0-1.792-.006-2.425-.035-.585-.027-.902-.125-1.114-.207a1.858 1.858 0 0 1-.69-.449 1.86 1.86 0 0 1-.45-.69c-.081-.21-.18-.528-.206-1.113-.028-.633-.034-.823-.034-2.425 0-1.602.006-1.791.034-2.424.027-.585.125-.902.207-1.114.109-.28.239-.48.449-.69.21-.21.41-.34.69-.449.211-.082.529-.18 1.114-.206.554-.026.768-.033 1.886-.034v.001zm3.741.996a.72.72 0 1 0 0 1.44.72.72 0 0 0 0-1.44zm-3.202.842a3.081 3.081 0 1 0 0 6.163 3.081 3.081 0 0 0 0-6.163zM10 8a2 2 0 1 1 0 4 2 2 0 0 1 0-4z"/>
    </g>
</svg>
