<svg xmlns="http://www.w3.org/2000/svg" xmlns:xlink="http://www.w3.org/1999/xlink" width="20" height="20" viewBox="0 0 20 20">
    <defs>
        <path id="yj1x0hjzga" d="M10 0c5.523 0 10 4.477 10 10s-4.477 10-10 10S0 15.523 0 10 4.477 0 10 0zm2.16 5.832c-1.033.397-1.685 1.421-1.61 2.542l.024.433-.413-.053c-1.503-.203-2.816-.892-3.93-2.048l-.546-.574-.14.424c-.297.945-.107 1.942.512 2.613.33.37.256.424-.314.203-.198-.07-.371-.124-.388-.097-.058.062.14.865.297 1.183.215.441.653.874 1.132 1.13l.404.203-.479.008c-.462 0-.479.01-.429.195.165.573.817 1.182 1.544 1.447l.512.186-.446.282c-.66.406-1.437.636-2.213.653-.371.01-.677.044-.677.07 0 .09 1.007.583 1.594.778 1.759.573 3.848.326 5.417-.654 1.115-.697 2.23-2.083 2.75-3.424.28-.715.561-2.022.561-2.649 0-.406.025-.459.487-.944.273-.283.529-.592.578-.68.083-.168.075-.168-.346-.017-.702.264-.801.23-.455-.168.256-.283.562-.795.562-.945 0-.026-.124.018-.264.097-.149.089-.48.221-.727.3l-.446.15-.404-.29c-.223-.16-.537-.336-.702-.39-.422-.123-1.066-.105-1.446.036z"/>
    </defs>
    <g fill="none" fill-rule="evenodd">
        <g>
            <g>
                <g transform="translate(-886 -2521) translate(874 2507) translate(12 14)">
                    <use fill="#55ACEE" xlink:href="#yj1x0hjzga"/>
                </g>
            </g>
        </g>
    </g>
</svg>
