<svg xmlns="http://www.w3.org/2000/svg" xmlns:xlink="http://www.w3.org/1999/xlink" width="32" height="32" viewBox="0 0 32 32">
    <defs>
        <path id="4g9vontisa" d="M16 2c7.732 0 14 6.268 14 14s-6.268 14-14 14S2 23.732 2 16 8.268 2 16 2zm.94 6h-1.88c-.87.003-1.305.009-1.698.021l-.18.007c-.15.005-.302.012-.48.02-.852.04-1.432.174-1.942.372-.526.204-.973.478-1.417.923-.445.444-.72.89-.923 1.417-.198.51-.333 1.09-.372 1.942-.033.711-.044 1.018-.047 2.358v1.88c.003 1.34.015 1.647.047 2.358.04.85.174 1.432.372 1.942.204.525.478.973.923 1.417.444.444.89.72 1.417.923.51.197 1.09.333 1.943.372l.48.021.18.006c.392.013.827.018 1.698.02l.677.001h1.202c.87-.003 1.306-.009 1.698-.021l.18-.007c.15-.005.303-.012.48-.02.851-.04 1.432-.175 1.943-.372.525-.204.972-.479 1.417-.923.444-.444.72-.89.922-1.417.197-.51.333-1.091.372-1.942.034-.711.045-1.018.047-2.358l.001-.678V15.06c-.004-1.34-.016-1.647-.048-2.358-.04-.851-.175-1.433-.372-1.942-.203-.526-.478-.973-.922-1.417-.445-.445-.89-.72-1.417-.923-.511-.198-1.092-.333-1.942-.372l-.48-.021-.18-.006c-.393-.013-.828-.018-1.7-.02zm-.971.99l.032.02h.528c1.795.003 2.092.015 2.915.051.83.04 1.282.177 1.58.295.4.154.682.339.982.636.297.299.482.582.637.981.115.3.254.751.292 1.582l.021.504.007.188c.014.441.02.93.021 1.99v1.528c-.002 1.59-.015 1.895-.052 2.68-.043.831-.182 1.283-.299 1.583-.159.399-.339.682-.637.982-.298.297-.586.481-.98.636-.299.116-.757.256-1.587.293-.83.038-1.122.049-2.92.05h-1.058c-1.8-.002-2.092-.014-2.92-.053-.832-.043-1.29-.181-1.588-.298-.404-.16-.681-.34-.979-.639-.299-.298-.49-.585-.639-.98-.117-.3-.254-.757-.298-1.588-.029-.82-.04-1.122-.042-2.914v-1.055c.002-1.793.013-2.095.042-2.925.044-.831.181-1.289.298-1.587.15-.405.34-.682.64-.981.297-.298.574-.49.978-.638.298-.118.746-.256 1.577-.299.792-.028 1.095-.04 2.684-.042h.765zM16 11.891c-2.27 0-4.108 1.84-4.108 4.108 0 2.27 1.84 4.108 4.108 4.108 2.27 0 4.108-1.84 4.108-4.108 0-2.27-1.84-4.108-4.108-4.108zM16 13c1.657 0 3 1.342 3 3 0 1.657-1.343 3-3 3-1.658 0-3-1.343-3-3 0-1.658 1.342-3 3-3zm4.271-2.23c-.529 0-.96.43-.96.96s.43.96.96.96c.529 0 .96-.43.96-.96s-.431-.96-.96-.96z"/>
    </defs>
    <g fill="none" fill-rule="evenodd">
        <g>
            <g transform="translate(-366 -964) translate(366 964)">
                <mask id="s2zh91qbnb" fill="#fff">
                    <use xlink:href="#4g9vontisa"/>
                </mask>
                <use fill="#5B606F" xlink:href="#4g9vontisa"/>
                <g mask="url(#s2zh91qbnb)">
                    <path fill="#F4F5F7" d="M0 0H32V32H0z"/>
                    <path fill="#5B606F" d="M0 0H32V32H0z"/>
                </g>
            </g>
        </g>
    </g>
</svg>
