<svg xmlns="http://www.w3.org/2000/svg" width="20" height="20" viewBox="0 0 20 20">
    <path fill="#D1D1D1" fill-rule="evenodd" d="M10 20C4.477 20 0 15.523 0 10S4.477 0 10 0s10 4.477 10 10-4.477 10-10 10zM7.34 7.6c-.002.34-.006.68 0 1.021.313.09.476.4.474.71.04.936.004 1.875.02 2.812.342.002.684.002 1.027-.001.005-.936-.002-1.874.003-2.812.01-.541-.18-1.126-.63-1.456-.255-.195-.577-.264-.894-.274zM5.01 9.99c.428-.201.967.164.921.64.04.488-.54.83-.96.607-.507-.221-.483-1.063.038-1.247zM3.6 12.135c.348.014.697.01 1.046.007-.002-.078-.004-.235-.007-.313.434.546 1.303.521 1.806.086.733-.614.757-1.87.072-2.53-.496-.5-1.383-.522-1.884-.017.019-.552 0-1.105.013-1.657-.342-.003-.684 0-1.027-.01-.037 1.477-.003 2.956-.019 4.434zm7.515-2.163c.42-.161.927.205.871.661.056.502-.568.84-.985.59-.5-.248-.428-1.1.114-1.251zm-.398-.888c-.911.218-1.406 1.295-1.048 2.145.423 1.086 1.967 1.301 2.838.641.742-.547.791-1.768.124-2.392-.5-.477-1.267-.576-1.914-.394zm4.392.877c.434-.204.971.194.915.668.023.5-.58.803-.995.568-.48-.241-.433-1.06.08-1.236zm-.81-.714c-.819.565-.928 1.904-.206 2.587.52.492 1.39.478 1.906-.012-.02.274-.02.59-.232.795-.19.18-.473.169-.717.18 0 .318.002.636 0 .955.462.02.964-.011 1.345-.3.44-.324.625-.89.63-1.418.002-.976 0-1.952 0-2.929a55.036 55.036 0 0 0-1.038 0c0 .071 0 .213.002.285-.411-.498-1.19-.498-1.69-.143z"/>
</svg>
