<svg xmlns="http://www.w3.org/2000/svg" width="24" height="24" viewBox="0 0 24 24">
    <path fill="#00B900" fill-rule="evenodd" d="M12 24C5.373 24 0 18.627 0 12S5.373 0 12 0s12 5.373 12 12-5.373 12-12 12zM8.808 9.12c-.002.41-.007.817 0 1.226.375.108.571.479.568.85.048 1.124.005 2.25.024 3.375.41.003.822.003 1.234 0 .005-1.124-.003-2.25.002-3.375.014-.65-.214-1.352-.756-1.747-.305-.234-.692-.317-1.072-.329zm-2.797 2.868c.515-.242 1.16.196 1.106.767.049.587-.648.998-1.153.73-.608-.266-.578-1.276.047-1.497zM4.32 14.561c.418.017.837.013 1.255.01l-.008-.376c.521.655 1.564.625 2.167.103.88-.737.909-2.244.086-3.035-.595-.602-1.659-.627-2.261-.022.023-.662.001-1.325.016-1.987-.41-.005-.82 0-1.233-.012-.043 1.771-.003 3.546-.022 5.32zm9.018-2.595c.505-.193 1.113.247 1.045.794.068.602-.681 1.008-1.181.707-.602-.297-.515-1.32.136-1.5zm-.477-1.066c-1.094.263-1.688 1.555-1.258 2.575.508 1.303 2.36 1.561 3.406.769.89-.656.949-2.122.148-2.87-.6-.573-1.52-.692-2.296-.474zm5.27 1.053c.52-.244 1.165.233 1.098.802.027.599-.697.963-1.194.682-.576-.29-.52-1.272.095-1.484zm-.972-.856c-.982.677-1.114 2.285-.247 3.104.624.59 1.667.574 2.287-.015-.024.33-.024.708-.278.954-.23.217-.569.203-.861.216 0 .382.002.764 0 1.147.554.024 1.157-.014 1.614-.361.527-.389.75-1.068.755-1.701.003-1.172 0-2.343 0-3.515-.415-.004-.83-.004-1.245 0 0 .085 0 .256.003.342-.494-.598-1.428-.598-2.028-.171z"/>
</svg>
