<svg xmlns="http://www.w3.org/2000/svg" xmlns:xlink="http://www.w3.org/1999/xlink" width="32" height="32" viewBox="0 0 32 32">
    <defs>
        <path id="uvappdzzda" d="M16 2c7.732 0 14 6.268 14 14s-6.268 14-14 14S2 23.732 2 16 8.268 2 16 2zM8.224 12.908H6.667v3.885c0 .65.132 1.222.397 1.715.266.493.64.874 1.121 1.142.482.268 1.04.402 1.673.402s1.19-.134 1.672-.402.856-.649 1.121-1.142c.266-.493.398-1.065.398-1.715v-3.885h-1.557v3.885c0 .559-.147 1.008-.44 1.347-.294.34-.692.51-1.194.51s-.9-.17-1.194-.51c-.293-.34-.44-.788-.44-1.347v-3.885zm8.778 0h-2.806v6.973h1.557v-2.199h1.24l1.352 2.2h1.805l-1.617-2.508c.41-.194.726-.469.946-.825.22-.357.329-.775.329-1.254s-.111-.898-.334-1.257c-.222-.36-.544-.638-.966-.835-.423-.196-.924-.295-1.506-.295zm5.424 0h-1.557v6.973h5.04v-1.377h-3.483v-5.596zm-5.493 1.378c.417 0 .74.087.971.26.231.175.347.424.347.75 0 .324-.116.574-.347.748-.23.174-.554.26-.97.26h-1.181v-2.018z"/>
    </defs>
    <g fill="none" fill-rule="evenodd">
        <g>
            <g transform="translate(-1298.000000, -1159.000000) translate(1298.000000, 1159.000000)">
                <mask id="mc52rb978b" fill="#fff">
                    <use xlink:href="#uvappdzzda"/>
                </mask>
                <use fill="#5B606F" xlink:href="#uvappdzzda"/>
                <g mask="url(#mc52rb978b)">
                    <path fill="#F4F5F7" d="M0 0H32V32H0z"/>
                    <path fill="#737373" d="M0 0H32V32H0z"/>
                </g>
            </g>
        </g>
    </g>
</svg>
