<svg xmlns="http://www.w3.org/2000/svg" xmlns:xlink="http://www.w3.org/1999/xlink" width="40" height="40" viewBox="0 0 40 40">
    <defs>
        <filter id="phcu6v0z0a" width="200%" height="130.3%" x="-50%" y="-15.2%" filterUnits="objectBoundingBox">
            <feOffset dy="4" in="SourceAlpha" result="shadowOffsetOuter1"/>
            <feGaussianBlur in="shadowOffsetOuter1" result="shadowBlurOuter1" stdDeviation="3"/>
            <feColorMatrix in="shadowBlurOuter1" result="shadowMatrixOuter1" values="0 0 0 0 0 0 0 0 0 0 0 0 0 0 0 0 0 0 0.2 0"/>
            <feMerge>
                <feMergeNode in="shadowMatrixOuter1"/>
                <feMergeNode in="SourceGraphic"/>
            </feMerge>
        </filter>
        <path id="rf39tmmbwb" d="M16 2c7.732 0 14 6.268 14 14s-6.268 14-14 14S2 23.732 2 16 8.268 2 16 2zm0 6.417c-5.155 0-9.333 3.294-9.333 7.359 0 2.627 1.747 4.933 4.374 6.235-.142.493-.918 3.172-.95 3.382 0 0-.018.158.085.219.102.06.223.013.223.013.293-.041 3.405-2.227 3.943-2.606.538.076 1.092.116 1.658.116 5.155 0 9.333-3.295 9.333-7.36 0-4.064-4.178-7.358-9.333-7.358zm-3.782 5.16c.292 0 .529.236.529.527 0 .29-.237.527-.529.527h-.84v3.2c0 .283-.241.514-.538.514-.297 0-.539-.231-.539-.515v-3.199h-.84c-.291 0-.528-.236-.528-.527 0-.29.237-.527.528-.527h2.757zm1.807 0c.352.008.627.274.718.532l1.288 3.389c.164.509.021.697-.127.765-.108.05-.225.075-.343.075-.224 0-.396-.092-.448-.238l-.266-.698h-1.642l-.267.698c-.052.146-.223.238-.448.238-.118 0-.235-.026-.342-.075-.149-.068-.291-.257-.128-.764l1.288-3.39c.09-.258.366-.524.717-.532zm5.864 0c.297 0 .538.241.538.538v1.158l1.503-1.503c.077-.077.183-.12.298-.12.135 0 .27.059.37.16.095.094.151.215.16.341.007.127-.035.243-.12.328l-1.227 1.227 1.326 1.756c.043.056.074.12.091.189.018.068.022.14.012.21-.01.07-.033.137-.069.198-.036.061-.083.114-.14.157-.093.07-.207.109-.324.108-.083 0-.165-.018-.24-.056-.075-.037-.14-.09-.19-.158l-1.263-1.673-.186.187v1.175c0 .143-.057.28-.158.38-.101.102-.238.158-.381.159-.297 0-.539-.242-.539-.539v-3.684c0-.297.242-.538.539-.538zm-2.958 0c.303 0 .55.241.55.538v3.164h1.144c.284 0 .516.221.516.493 0 .273-.232.494-.516.494h-1.728c-.284 0-.516-.221-.516-.494v-3.657c0-.297.247-.538.55-.538zm-2.905 1.343l-.538 1.528h1.075l-.537-1.528z"/>
    </defs>
    <g fill="none" fill-rule="evenodd">
        <g>
            <g filter="url(#phcu6v0z0a)" transform="translate(-304 -378) translate(304 328)">
                <g transform="translate(4 50)">
                    <use fill="#FFF" xlink:href="#rf39tmmbwb"/>
                </g>
            </g>
        </g>
    </g>
</svg>
