<svg width="141" height="23" viewBox="0 0 141 23" fill="none" xmlns="http://www.w3.org/2000/svg">
<path d="M0.6 5.66H4.76V18H7.72V5.66H11.92V3.2H0.6V5.66ZM16.6998 18.28C17.4065 18.28 18.0798 18.1467 18.7198 17.88C19.3732 17.6133 19.9465 17.2333 20.4398 16.74C20.9332 16.2333 21.3265 15.62 21.6198 14.9C21.9265 14.1667 22.0798 13.34 22.0798 12.42C22.0798 11.4867 21.9265 10.6533 21.6198 9.92C21.3265 9.18667 20.9332 8.57333 20.4398 8.08C19.9465 7.57333 19.3732 7.18667 18.7198 6.92C18.0798 6.65333 17.4065 6.52 16.6998 6.52C16.0065 6.52 15.3332 6.65333 14.6798 6.92C14.0265 7.18667 13.4532 7.57333 12.9598 8.08C12.4665 8.57333 12.0665 9.18667 11.7598 9.92C11.4665 10.6533 11.3198 11.4867 11.3198 12.42C11.3198 13.34 11.4665 14.1667 11.7598 14.9C12.0665 15.62 12.4665 16.2333 12.9598 16.74C13.4532 17.2333 14.0265 17.6133 14.6798 17.88C15.3332 18.1467 16.0065 18.28 16.6998 18.28ZM16.6998 15.88C15.9398 15.88 15.3532 15.5667 14.9398 14.94C14.5265 14.3133 14.3198 13.4733 14.3198 12.42C14.3198 11.34 14.5265 10.4867 14.9398 9.86C15.3532 9.23333 15.9398 8.92 16.6998 8.92C17.4598 8.92 18.0465 9.23333 18.4598 9.86C18.8732 10.4867 19.0798 11.34 19.0798 12.42C19.0798 13.4733 18.8732 14.3133 18.4598 14.94C18.0465 15.5667 17.4598 15.88 16.6998 15.88ZM28.0794 18.28C28.6794 18.28 29.2394 18.14 29.7594 17.86C30.2927 17.58 30.766 17.24 31.1794 16.84H31.2394L31.4794 18H33.8594V2.04H30.9194V5.98L31.0394 7.74C30.6394 7.36667 30.226 7.07333 29.7994 6.86C29.3727 6.63333 28.8394 6.52 28.1994 6.52C27.5994 6.52 27.0127 6.66 26.4394 6.94C25.8794 7.20667 25.3794 7.59333 24.9394 8.1C24.4994 8.60667 24.146 9.22667 23.8794 9.96C23.626 10.68 23.4994 11.5 23.4994 12.42C23.4994 13.34 23.606 14.16 23.8194 14.88C24.0327 15.6 24.3394 16.2133 24.7394 16.72C25.1394 17.2267 25.6194 17.6133 26.1794 17.88C26.7527 18.1467 27.386 18.28 28.0794 18.28ZM28.8394 15.86C27.2927 15.86 26.5194 14.7 26.5194 12.38C26.5194 11.82 26.5794 11.3267 26.6994 10.9C26.8327 10.4733 26.9994 10.1133 27.1994 9.82C27.4127 9.52667 27.6594 9.30667 27.9394 9.16C28.2194 9.01333 28.5194 8.94 28.8394 8.94C29.186 8.94 29.5327 9.00667 29.8794 9.14C30.226 9.26 30.5727 9.47333 30.9194 9.78V14.7C30.5994 15.1267 30.266 15.4267 29.9194 15.6C29.586 15.7733 29.226 15.86 28.8394 15.86ZM39.3705 18.2C40.0105 18.2 40.6105 18.08 41.1705 17.84C41.7438 17.6 42.2705 17.2733 42.7505 16.86H42.8105L43.0305 18H45.4305V11.46C45.4305 8.16667 43.9971 6.52 41.1305 6.52C40.2505 6.52 39.4038 6.64667 38.5905 6.9C37.7905 7.15333 37.0838 7.46667 36.4705 7.84L37.3505 9.94C37.8571 9.60667 38.3905 9.34667 38.9505 9.16C39.5238 8.97333 40.0705 8.88 40.5905 8.88C41.4438 8.88 41.9905 9.05333 42.2305 9.4C42.4571 9.88 42.5438 10.3533 42.4905 10.82C40.1705 10.8867 38.4971 11.2533 37.4705 11.92C36.4571 12.5733 35.9838 13.5867 36.0505 14.96C36.0505 15.44 36.1305 15.88 36.2905 16.28C36.4505 16.68 36.6705 17.0267 36.9505 17.32C37.2438 17.6 37.5971 17.82 38.0105 17.98C38.4238 18.1267 38.8771 18.2 39.3705 18.2ZM40.2705 15.96C39.8438 15.96 39.4838 15.8267 39.1905 15.56C38.9105 15.2933 38.7638 14.9267 38.7505 14.46C38.7371 14.06 38.8571 13.7133 39.1105 13.42C39.3771 13.1267 39.8305 12.9333 40.4705 12.84C40.7905 12.7867 41.1171 12.7467 41.4505 12.72C41.7971 12.68 42.1438 12.6467 42.4905 12.62V14.88C42.1438 15.2267 41.7905 15.4933 41.4305 15.68C41.0838 15.8533 40.6971 15.9467 40.2705 15.96ZM49.4869 22.5H52.3869L53.7669 18.32L57.6469 6.8H54.8269L53.2869 12C53.1535 12.52 53.0202 13.0467 52.8869 13.58C52.7535 14.1133 52.6202 14.64 52.4869 15.16H52.3869C52.2269 14.6 52.0735 14.06 51.9269 13.54C51.7802 13.02 51.6202 12.5067 51.4469 12L49.6669 6.8H46.7069L51.0469 18.06L49.4869 22.5ZM61.9313 3.4V0.499999H59.1313V3.42H60.4113C60.4113 3.92667 60.3113 4.34667 60.1113 4.68C59.9246 5 59.5846 5.25333 59.0913 5.44V6.76C59.5179 6.69333 59.9046 6.56667 60.2513 6.38C60.6113 6.18 60.9179 5.93333 61.1713 5.64C61.4246 5.33333 61.6179 4.99333 61.7513 4.62C61.8979 4.23333 61.9579 3.82667 61.9313 3.4ZM66.6964 18.28C67.4297 18.28 68.0697 18.1867 68.6164 18C69.1764 17.8133 69.6431 17.56 70.0164 17.24C70.3897 16.92 70.6697 16.5467 70.8564 16.12C71.0564 15.6933 71.1564 15.2333 71.1564 14.74C71.1564 14.22 71.0631 13.78 70.8764 13.42C70.6897 13.0467 70.4431 12.7333 70.1364 12.48C69.8431 12.2267 69.5097 12.0133 69.1364 11.84C68.7764 11.6667 68.4097 11.5067 68.0364 11.36C67.7431 11.2533 67.4564 11.1533 67.1764 11.06C66.9097 10.9533 66.6697 10.84 66.4564 10.72C66.2431 10.6 66.0697 10.4667 65.9364 10.32C65.8164 10.1733 65.7564 10 65.7564 9.8C65.7564 9.48 65.8764 9.22 66.1164 9.02C66.3564 8.82 66.7297 8.72 67.2364 8.72C67.6631 8.72 68.0697 8.81333 68.4564 9C68.8564 9.17333 69.2564 9.4 69.6564 9.68L70.9764 7.9C70.5097 7.55333 69.9631 7.24 69.3364 6.96C68.7231 6.66667 67.9964 6.52 67.1564 6.52C66.5297 6.52 65.9564 6.60667 65.4364 6.78C64.9297 6.94 64.4964 7.17333 64.1364 7.48C63.7764 7.78667 63.4964 8.15333 63.2964 8.58C63.0964 8.99333 62.9964 9.45333 62.9964 9.96C62.9964 10.4267 63.0897 10.8333 63.2764 11.18C63.4631 11.5267 63.7031 11.8333 63.9964 12.1C64.2897 12.3533 64.6164 12.5733 64.9764 12.76C65.3364 12.9333 65.6964 13.0867 66.0564 13.22C66.3497 13.34 66.6364 13.46 66.9164 13.58C67.1964 13.6867 67.4431 13.8067 67.6564 13.94C67.8831 14.06 68.0631 14.2 68.1964 14.36C68.3297 14.5067 68.3964 14.6867 68.3964 14.9C68.3964 15.2467 68.2631 15.5333 67.9964 15.76C67.7431 15.9733 67.3364 16.08 66.7764 16.08C66.2564 16.08 65.7497 15.9733 65.2564 15.76C64.7764 15.5467 64.2831 15.2467 63.7764 14.86L62.4364 16.7C62.9964 17.1667 63.6564 17.5467 64.4164 17.84C65.1764 18.1333 65.9364 18.28 66.6964 18.28ZM80.33 3.2H77.37V18H80.33V3.2ZM85.7316 6.8H83.3316V18H86.2516V10.3C86.6782 9.88667 87.0582 9.57333 87.3916 9.36C87.7249 9.14667 88.1249 9.04 88.5916 9.04C89.1516 9.04 89.5516 9.21333 89.7916 9.56C90.0449 9.90667 90.1716 10.5133 90.1716 11.38V18H93.1116V11.02C93.1116 9.60667 92.8382 8.50667 92.2916 7.72C91.7449 6.92 90.8649 6.52 89.6516 6.52C88.8916 6.52 88.2182 6.69333 87.6316 7.04C87.0449 7.38667 86.5049 7.8 86.0116 8.28H85.9316L85.7316 6.8ZM98.9441 18.28C99.6774 18.28 100.317 18.1867 100.864 18C101.424 17.8133 101.891 17.56 102.264 17.24C102.637 16.92 102.917 16.5467 103.104 16.12C103.304 15.6933 103.404 15.2333 103.404 14.74C103.404 14.22 103.311 13.78 103.124 13.42C102.937 13.0467 102.691 12.7333 102.384 12.48C102.091 12.2267 101.757 12.0133 101.384 11.84C101.024 11.6667 100.657 11.5067 100.284 11.36C99.9907 11.2533 99.7041 11.1533 99.4241 11.06C99.1574 10.9533 98.9174 10.84 98.7041 10.72C98.4907 10.6 98.3174 10.4667 98.1841 10.32C98.0641 10.1733 98.0041 10 98.0041 9.8C98.0041 9.48 98.1241 9.22 98.3641 9.02C98.6041 8.82 98.9774 8.72 99.4841 8.72C99.9107 8.72 100.317 8.81333 100.704 9C101.104 9.17333 101.504 9.4 101.904 9.68L103.224 7.9C102.757 7.55333 102.211 7.24 101.584 6.96C100.971 6.66667 100.244 6.52 99.4041 6.52C98.7774 6.52 98.2041 6.60667 97.6841 6.78C97.1774 6.94 96.7441 7.17333 96.3841 7.48C96.0241 7.78667 95.7441 8.15333 95.5441 8.58C95.3441 8.99333 95.2441 9.45333 95.2441 9.96C95.2441 10.4267 95.3374 10.8333 95.5241 11.18C95.7107 11.5267 95.9507 11.8333 96.2441 12.1C96.5374 12.3533 96.8641 12.5733 97.2241 12.76C97.5841 12.9333 97.9441 13.0867 98.3041 13.22C98.5974 13.34 98.8841 13.46 99.1641 13.58C99.4441 13.6867 99.6907 13.8067 99.9041 13.94C100.131 14.06 100.311 14.2 100.444 14.36C100.577 14.5067 100.644 14.6867 100.644 14.9C100.644 15.2467 100.511 15.5333 100.244 15.76C99.9907 15.9733 99.5841 16.08 99.0241 16.08C98.5041 16.08 97.9974 15.9733 97.5041 15.76C97.0241 15.5467 96.5307 15.2467 96.0241 14.86L94.6841 16.7C95.2441 17.1667 95.9041 17.5467 96.6641 17.84C97.4241 18.1333 98.1841 18.28 98.9441 18.28ZM104.986 5H107.906V2.16H104.986V5ZM104.966 6.8V18H107.886V6.8H104.966ZM114.314 22.86C115.26 22.86 116.107 22.76 116.854 22.56C117.6 22.36 118.234 22.08 118.754 21.72C119.287 21.36 119.694 20.9333 119.974 20.44C120.254 19.96 120.394 19.44 120.394 18.88C120.394 17.88 120.04 17.1667 119.334 16.74C118.64 16.3 117.607 16.08 116.234 16.08H114.334C113.654 16.08 113.187 16.0067 112.934 15.86C112.694 15.7 112.574 15.4667 112.574 15.16C112.574 14.9333 112.614 14.7533 112.694 14.62C112.774 14.4733 112.894 14.3333 113.054 14.2C113.294 14.28 113.534 14.3467 113.774 14.4C114.027 14.44 114.267 14.46 114.494 14.46C115.094 14.46 115.654 14.38 116.174 14.22C116.707 14.06 117.167 13.82 117.554 13.5C117.94 13.18 118.247 12.7867 118.474 12.32C118.7 11.84 118.814 11.2867 118.814 10.66C118.814 10.3133 118.76 9.99333 118.654 9.7C118.56 9.39333 118.44 9.14667 118.294 8.96H120.214V6.8H116.174C115.947 6.72 115.687 6.65333 115.394 6.6C115.1 6.54667 114.8 6.52 114.494 6.52C113.894 6.52 113.32 6.60667 112.774 6.78C112.24 6.95333 111.76 7.21333 111.334 7.56C110.92 7.90667 110.587 8.33333 110.334 8.84C110.094 9.33333 109.974 9.91333 109.974 10.58C109.974 11.2333 110.12 11.8133 110.414 12.32C110.72 12.8267 111.067 13.22 111.454 13.5V13.58C111.12 13.82 110.827 14.1267 110.574 14.5C110.334 14.86 110.214 15.2533 110.214 15.68C110.214 16.1467 110.307 16.5333 110.494 16.84C110.694 17.1333 110.94 17.3733 111.234 17.56V17.66C110.727 17.9533 110.334 18.2933 110.054 18.68C109.774 19.08 109.634 19.5133 109.634 19.98C109.634 20.4733 109.754 20.9 109.994 21.26C110.234 21.62 110.56 21.92 110.974 22.16C111.4 22.4 111.9 22.5733 112.474 22.68C113.047 22.8 113.66 22.86 114.314 22.86ZM114.494 12.64C114 12.64 113.58 12.4667 113.234 12.12C112.9 11.7733 112.734 11.26 112.734 10.58C112.734 9.9 112.9 9.38667 113.234 9.04C113.567 8.69333 113.987 8.52 114.494 8.52C115 8.52 115.414 8.69333 115.734 9.04C116.067 9.38667 116.234 9.9 116.234 10.58C116.234 11.26 116.067 11.7733 115.734 12.12C115.4 12.4667 114.987 12.64 114.494 12.64ZM114.754 21C113.914 21 113.254 20.8667 112.774 20.6C112.307 20.3467 112.074 19.9867 112.074 19.52C112.074 19.0533 112.32 18.62 112.814 18.22C113.014 18.2733 113.234 18.3133 113.474 18.34C113.727 18.3667 114.027 18.38 114.374 18.38H115.734C116.334 18.38 116.794 18.4467 117.114 18.58C117.434 18.7133 117.594 18.98 117.594 19.38C117.594 19.82 117.327 20.2 116.794 20.52C116.274 20.84 115.594 21 114.754 21ZM124.827 2.04H121.907V18H124.827V10.3C125.254 9.88667 125.634 9.57333 125.967 9.36C126.301 9.14667 126.701 9.04 127.167 9.04C127.727 9.04 128.127 9.21333 128.367 9.56C128.621 9.90667 128.747 10.5133 128.747 11.38V18H131.687V11.02C131.687 9.60667 131.414 8.50667 130.867 7.72C130.321 6.92 129.441 6.52 128.227 6.52C127.467 6.52 126.801 6.68667 126.227 7.02C125.667 7.35333 125.161 7.73333 124.707 8.16L124.827 6.06V2.04ZM138.4 18.28C138.894 18.28 139.334 18.2333 139.72 18.14C140.107 18.06 140.454 17.9667 140.76 17.86L140.28 15.72C140.134 15.7867 139.96 15.8467 139.76 15.9C139.56 15.94 139.367 15.96 139.18 15.96C138.167 15.96 137.66 15.3333 137.66 14.08V9.12H140.42V6.8H137.66V3.8H135.2L134.86 6.8L133.14 6.94V9.12H134.72V14.08C134.72 14.7067 134.787 15.28 134.92 15.8C135.054 16.32 135.267 16.7667 135.56 17.14C135.854 17.5 136.234 17.78 136.7 17.98C137.167 18.18 137.734 18.28 138.4 18.28Z" fill="black"/>
</svg>
