<svg xmlns="http://www.w3.org/2000/svg" width="20" height="20" viewBox="0 0 20 20">
    <g fill="none" fill-rule="evenodd">
        <g>
            <g>
                <g>
                    <path fill="#0080FF" d="M.319 12.011l7.306-3.814c.229-.124.522-.124.75 0l7.306 3.814c.426.229.426.749 0 .978l-7.306 3.932c-.228.123-.521.123-.75 0L.319 12.989c-.425-.229-.425-.749 0-.978" transform="translate(-1144 -256) translate(1144 256) translate(2 1)"/>
                    <path fill="#A8CDFF" d="M.319 8.452l7.306-3.814c.229-.124.522-.124.75 0l7.306 3.814c.426.229.426.75 0 .978l-7.306 3.932c-.228.123-.521.123-.75 0L.319 9.43c-.425-.228-.425-.75 0-.978" transform="translate(-1144 -256) translate(1144 256) translate(2 1)"/>
                    <path fill="#0080FF" d="M.319 4.893l7.306-3.814c.229-.124.522-.124.75 0l7.306 3.814c.426.229.426.75 0 .978L8.375 9.802c-.228.123-.521.123-.75 0L.319 5.872c-.425-.229-.425-.75 0-.979" transform="translate(-1144 -256) translate(1144 256) translate(2 1)"/>
                </g>
            </g>
        </g>
    </g>
</svg>
