<svg xmlns="http://www.w3.org/2000/svg" xmlns:xlink="http://www.w3.org/1999/xlink" width="20" height="20" viewBox="0 0 20 20">
    <defs>
        <filter id="w5blyviyza">
            <feColorMatrix in="SourceGraphic" values="0 0 0 0 1.000000 0 0 0 0 1.000000 0 0 0 0 1.000000 0 0 0 1.000000 0"/>
        </filter>
        <path id="h5pm6x4ncb" d="M7.167 16.842c-.198-.187-.22-.477-.066-.687l.066-.074L13.621 10 7.167 3.92c-.198-.188-.22-.478-.066-.688l.066-.074c.199-.187.507-.208.73-.063l.078.063 6.858 6.461c.198.187.22.477.066.687l-.066.075-6.858 6.461c-.223.21-.584.21-.808 0z"/>
    </defs>
    <g fill="none" fill-rule="evenodd">
        <g filter="url(#w5blyviyza)" transform="translate(-1560.000000, -144.000000)">
            <g transform="translate(1560.000000, 144.000000)">
                <mask id="km976o9adc" fill="#fff">
                    <use xlink:href="#h5pm6x4ncb"/>
                </mask>
                <use fill="#979797" fill-rule="nonzero" xlink:href="#h5pm6x4ncb"/>
                <g mask="url(#km976o9adc)">
                    <path fill="#656565" d="M0 0H20V20H0z"/>
                    <path fill="#3A3A3A" d="M0 0H20V20H0z"/>
                </g>
            </g>
        </g>
    </g>
</svg>
