<svg xmlns="http://www.w3.org/2000/svg" xmlns:xlink="http://www.w3.org/1999/xlink" width="20" height="20" viewBox="0 0 20 20">
    <defs>
        <filter id="gw937w5i1a">
            <feColorMatrix in="SourceGraphic" values="0 0 0 0 0.490196 0 0 0 0 0.490196 0 0 0 0 0.490196 0 0 0 1.000000 0"/>
        </filter>
        <path id="9ht8dcg2wb" d="M10.391 3.13c.24.139.321.445.183.684-.046.079-.088.16-.127.24.88-.375 1.606-.405 2.032.022.126.124.213.276.264.447l.011.05 2.192 4.467.01.018 2.952 6.021c.02.05.044.125.066.222.102.443.083.926-.148 1.39-.094.189-.22.365-.38.525-.16.16-.336.286-.526.38-.464.23-.945.248-1.387.146-.065-.014-.12-.03-.175-.05l-.086-.032-10.47-5.136c-.19-.048-.357-.139-.493-.275-.748-.747-.096-2.41 1.347-4.201-.861-.488-1.763-.591-2.697-.204-.255.105-.547-.016-.653-.271-.105-.255.016-.548.27-.653 1.328-.55 2.59-.359 3.743.356.185-.202.38-.405.582-.607.763-.763 1.54-1.413 2.269-1.903.037-.198.088-.396.153-.592.098-.298.226-.585.385-.86.139-.24.444-.322.683-.183zm5.78 10.673c-.22.361-.532.76-.954 1.182-.423.423-.822.734-1.184.955l1.64.805.083.023c.238.054.493.044.72-.069.093-.045.181-.108.264-.19.082-.083.145-.17.19-.263.114-.228.124-.483.07-.72l-.005-.017-.003-.015-.005-.026-.816-1.665zm-1.66-3.381c-.358.58-.919 1.292-1.742 2.115-.824.824-1.537 1.385-2.117 1.743l2.214 1.085.024-.005c.071-.022.164-.055.275-.105.408-.18.861-.494 1.345-.977.483-.483.796-.936.977-1.344.05-.112.083-.204.104-.275l.005-.025-1.086-2.212zm-2.06-4.2c-.057.127-.122.256-.192.387l-.033.06-.087.156-.063.108c-.14.234-.298.476-.473.722l-.054.075c-.113.157-.234.317-.36.477l-.11.137-.06.073-.122.146c-.134.159-.273.318-.418.478l-.097.106-.166.176-.124.127-.07.073-.044.044-.084.085-.004.005-.125.124-.108.105-.074.072c-.264.251-.53.49-.793.711l-.034.028c-.172.145-.344.282-.514.412l-.012.008-.015.012.027-.02c-.379.29-.75.542-1.105.752h-.002c-.233.138-.461.259-.68.359l3.076 1.51.004-.002.164-.077c.094-.047.205-.106.332-.181.593-.35 1.274-.883 2.031-1.64.757-.756 1.29-1.438 1.64-2.031.05-.085.092-.162.13-.232l.093-.187.034-.077V9.3l-1.508-3.076zM6.477 8.637l-.103.13c-.284.361-.53.71-.734 1.033l-.145.236-.168.297c-.303.567-.43.994-.335 1.173l.032.042.046.012c.087.016.192.012.314-.01.061-.012.126-.029.195-.05l.034-.01-.02.005.117-.038.139-.054c.05-.02.1-.043.153-.067l-.11.048.17-.076c.058-.027.118-.057.18-.089.07-.037.145-.078.22-.12l.065-.037-.034.018.145-.085.18-.112c.12-.076.243-.157.368-.244l.016-.012.007-.005.151-.107.178-.13.002-.003.034-.026.1-.075.137-.107-.044-.068-.146-.209c-.236-.325-.509-.651-.814-.954-.11-.108-.22-.21-.33-.306zM3.413 9.747l.106.465c.009.036.037.064.073.073l.466.107-.466.106c-.036.008-.064.037-.073.072l-.106.466-.107-.466c-.008-.035-.037-.064-.073-.072l-.465-.106.465-.107c.036-.009.065-.037.073-.073l.107-.465zM9.079 6.08l-.032.024c-.467.364-.958.792-1.439 1.273-.167.167-.327.335-.48.502.13.11.257.23.383.354.347.344.654.71.92 1.078l.149.213c.201-.182.403-.373.603-.573.165-.165.325-.332.478-.499l-.01-.02-.101-.238c-.054-.137-.112-.3-.17-.485-.165-.534-.271-1.081-.3-1.629zm1.496-.99l-.157.087-.308.182-.017.01c-.064.673.033 1.368.243 2.044.02.065.04.126.06.183.64-.813 1.097-1.572 1.295-2.127.038-.106.066-.204.084-.293.018-.085.027-.163.026-.232 0-.037-.004-.073-.01-.105l-.003-.016-.003-.013-.011-.024c-.139-.14-.586-.022-1.2.305zM2.069 2.935l.057.01c.29.087.372.26.387.74l.003.267-.002.301.004.237.01.164.01.096.009.032.008-.005.043-.048.08-.102.117-.163.24-.368c.37-.567.537-.72.875-.619.315.094.385.291.392.868l-.001.442.005.237.01.165.016.12c.001.005.003.008.004.008l.007-.005.043-.045.08-.099.112-.156.16-.242.089-.138.158-.233c.268-.375.432-.47.718-.386.267.08.359.234.385.629l.009.24-.001.44.005.238.016.22.01.064c.002.006.004.008.005.009.132.04.207.178.168.31-.04.133-.179.208-.311.169-.267-.08-.359-.233-.385-.627l-.008-.24V5.02l-.005-.237-.01-.164-.012-.096-.009-.032-.025.022-.063.074-.098.131-.063.09-.166.251c-.415.65-.592.842-.952.735-.267-.08-.358-.233-.384-.628l-.009-.24v-.57l-.008-.2-.01-.13-.011-.063-.004-.009-.025.023-.062.074-.098.132-.063.089-.24.368-.17.25c-.26.361-.424.453-.705.369-.242-.072-.34-.205-.374-.525l-.014-.216-.002-.695-.007-.2-.016-.169c-.004-.021-.006-.031-.008-.032-.132-.04-.208-.179-.168-.311.034-.113.141-.185.254-.178zm12.38.45l.15.652c.01.05.05.089.1.101l.653.15-.652.149c-.05.012-.09.051-.102.101l-.15.652-.148-.652c-.012-.05-.051-.089-.103-.101l-.65-.15.65-.149c.052-.012.091-.05.103-.101l.149-.652zM7.1 2.026l.256 1.118c.02.086.087.154.174.175l1.12.256-1.12.256c-.087.02-.154.088-.174.175L7.1 5.125l-.257-1.119c-.02-.087-.088-.155-.175-.175l-1.118-.256 1.118-.256c.087-.02.155-.089.175-.175l.257-1.118z"/>
    </defs>
    <g fill="none" fill-rule="evenodd">
        <g>
            <g filter="url(#gw937w5i1a)" transform="translate(-20 -668) translate(0 545)">
                <g transform="translate(20 123)">
                    <mask id="vul6kk29sc" fill="#fff">
                        <use xlink:href="#9ht8dcg2wb"/>
                    </mask>
                    <use fill="#000" fill-rule="nonzero" xlink:href="#9ht8dcg2wb"/>
                    <g fill="#464646" mask="url(#vul6kk29sc)">
                        <g>
                            <path d="M1 0H21V20H1z" transform="translate(-1)"/>
                            <path d="M0.592 0H20.592V20H0.592z" transform="translate(-1)"/>
                        </g>
                    </g>
                </g>
            </g>
        </g>
    </g>
</svg>
