<svg xmlns="http://www.w3.org/2000/svg" xmlns:xlink="http://www.w3.org/1999/xlink" width="74" height="74" viewBox="0 0 74 74">
    <defs>
        <path id="qhkx6n2n2a" d="M0 0L24.271 0 24.271 24.737 0 24.737z"/>
        <path id="pend909wwc" d="M0 0L24.271 0 24.271 24.737 0 24.737z"/>
    </defs>
    <g fill="none" fill-rule="evenodd">
        <g>
            <g transform="translate(-473.000000, -1892.000000) translate(473.000000, 1892.000000)">
                <rect width="74" height="74" fill="#E8ECF2" rx="5"/>
                <g>
                    <g transform="translate(12.000000, 21.000000)">
                        <mask id="dkqkx3xzcb" fill="#fff">
                            <use xlink:href="#qhkx6n2n2a"/>
                        </mask>
                        <path fill="#FEFEFE" d="M5.63 1.655c.53-.153 1.11-.33 1.747-.53.634-.199 1.35-.381 2.14-.551.792-.168 1.676-.306 2.652-.414.979-.107 2.087-.16 3.329-.16 3.66 0 6.173 1.041 7.54 3.127 1.365 2.084 1.597 4.936.697 8.552L20.57 24.737h-6.934l3.07-12.783c.188-.796.335-1.57.444-2.322.108-.75.1-1.41-.024-1.977-.124-.566-.41-1.027-.86-1.38-.45-.352-1.141-.528-2.07-.528-.902 0-1.817.093-2.747.275L6.935 24.737H0L5.63 1.655z" mask="url(#dkqkx3xzcb)"/>
                    </g>
                    <g transform="translate(12.000000, 21.000000) translate(25.728539, 7.262840)">
                        <mask id="9cvej7hg9d" fill="#fff">
                            <use xlink:href="#pend909wwc"/>
                        </mask>
                        <path fill="#FEFEFE" d="M18.64 23.082c-.528.153-1.109.33-1.745.53-.635.199-1.35.382-2.14.551-.792.168-1.676.306-2.653.414-.978.107-2.086.16-3.328.16-3.66 0-6.174-1.041-7.54-3.127-1.365-2.084-1.598-4.935-.697-8.552L3.7 0h6.935L7.565 12.783c-.187.796-.334 1.57-.444 2.322-.108.75-.1 1.41.025 1.977.124.566.41 1.027.86 1.38.45.352 1.14.528 2.07.528.902 0 1.817-.092 2.746-.275L17.337 0h6.935L18.64 23.082z" mask="url(#9cvej7hg9d)"/>
                    </g>
                </g>
            </g>
        </g>
    </g>
</svg>
