<svg xmlns="http://www.w3.org/2000/svg" width="85" height="86" viewBox="0 0 85 86">
    <g fill="none" fill-rule="evenodd">
        <g>
            <g>
                <path fill="#FEFEFE" stroke="#D6DAE3" d="M80 .5c1.243 0 2.368.504 3.182 1.318.814.814 1.318 1.94 1.318 3.182h0v66c0 1.243-.504 2.368-1.318 3.182-.814.814-1.94 1.318-3.182 1.318h0-30.946l-6.14 9.007-6.97-9.007H5c-1.243 0-2.368-.504-3.182-1.318C1.004 73.368.5 72.242.5 71h0V5c0-1.243.504-2.368 1.318-3.182C2.632 1.004 3.758.5 5 .5h0z" transform="translate(-340 -345) translate(340 345)"/>
                <text fill="#3A3A3A" font-weight="700" font-size="12" font-weight="bold" transform="translate(-340 -345) translate(340 345)">
                    <tspan x="25.94" y="34">소식을 </tspan> <tspan x="7.16" y="52">공유해보세요!</tspan>
                </text>
            </g>
        </g>
    </g>
</svg>
