<svg xmlns="http://www.w3.org/2000/svg" xmlns:xlink="http://www.w3.org/1999/xlink" width="20" height="20" viewBox="0 0 20 20">
    <defs>
        <path id="595m5225pa" d="M0 0L4.953 0 4.953 5.109 0 5.109z"/>
        <path id="t0zhbzj0dc" d="M0 0L4.953 0 4.953 5.109 0 5.109z"/>
    </defs>
    <g fill="none" fill-rule="evenodd">
        <g>
            <g transform="translate(-632 -1846) translate(632 1846)">
                <rect width="20" height="20" fill="#E8ECF2" rx="5"/>
                <g>
                    <g transform="translate(4.875 7.375)">
                        <mask id="ggd7ee2tvb" fill="#fff">
                            <use xlink:href="#595m5225pa"/>
                        </mask>
                        <path fill="#FEFEFE" d="M1.149.342c.108-.032.226-.068.356-.11.13-.04.276-.078.437-.113.162-.035.342-.064.541-.086.2-.022.426-.033.68-.033.746 0 1.26.215 1.538.646.278.43.326 1.02.142 1.766L4.197 5.11H2.782l.627-2.64c.038-.164.068-.324.09-.48.023-.155.021-.29-.004-.408-.026-.117-.084-.212-.176-.285-.092-.073-.233-.109-.422-.109-.184 0-.371.019-.56.057l-.922 3.865H0L1.149.342z" mask="url(#ggd7ee2tvb)"/>
                    </g>
                    <g transform="translate(4.875 7.375) translate(5.25 1.5)">
                        <mask id="nvetuzylvd" fill="#fff">
                            <use xlink:href="#t0zhbzj0dc"/>
                        </mask>
                        <path fill="#FEFEFE" d="M3.804 4.767c-.108.032-.227.068-.357.11-.13.04-.275.078-.436.113-.162.035-.342.064-.542.086-.2.022-.425.033-.679.033-.747 0-1.26-.215-1.538-.646-.279-.43-.326-1.02-.143-1.766L.755 0H2.17l-.626 2.64c-.038.164-.069.324-.09.48-.023.155-.021.29.004.408.025.117.084.212.176.285.092.073.232.109.422.109.184 0 .37-.02.56-.057L3.538 0h1.415l-1.15 4.767z" mask="url(#nvetuzylvd)"/>
                    </g>
                </g>
            </g>
        </g>
    </g>
</svg>
