<svg xmlns="http://www.w3.org/2000/svg" xmlns:xlink="http://www.w3.org/1999/xlink" width="24" height="24" viewBox="0 0 24 24">
    <defs>
        <path id="zd1r0m390a" d="M15 2c1.933 0 3.5 1.567 3.5 3.5 0 .98-.403 1.866-1.052 2.501L20 8c1.054 0 1.918.816 1.995 1.85L22 10v10c0 1.054-.816 1.918-1.85 1.995L20 22H4c-1.054 0-1.918-.816-1.995-1.85L2 20V10c0-1.054.816-1.918 1.85-1.995L4 8l2.552.001C5.902 7.366 5.5 6.48 5.5 5.5 5.5 3.567 7.067 2 9 2c1.274 0 2.388.68 3 1.697C12.612 2.68 13.726 2 15 2zm-3.5 13.499H3V20c0 .513.386.936.883.993L4 21h7.5v-5.501zm9.5 0h-8.5V21H20c.513 0 .936-.386.993-.883L21 20v-4.501zM11.5 9H4c-.513 0-.936.386-.993.883L3 10v4.499h8.5V9zM20 9h-7.5v5.499H21V10c0-.513-.386-.936-.883-.993L20 9zm-5-6c-1.325 0-2.41 1.032-2.495 2.334L12.5 5.5v1.035l-.004.355v.24c.003.7.084.846.672.87H15c1.38 0 2.5-1.12 2.5-2.5S16.38 3 15 3zM9 3C7.62 3 6.5 4.12 6.5 5.5c0 1.325 1.032 2.41 2.335 2.495L9 8h1.83c.552-.022.658-.152.673-.74l.001-.368-.005-.558.001-.834C11.5 4.12 10.38 3 9 3z"/>
    </defs>
    <g fill="none" fill-rule="evenodd">
        <g>
            <mask id="vpfenzcvwb" fill="#fff">
                <use xlink:href="#zd1r0m390a"/>
            </mask>
            <use fill="#464646" xlink:href="#zd1r0m390a"/>
        </g>
    </g>
</svg>
