<svg xmlns="http://www.w3.org/2000/svg" xmlns:xlink="http://www.w3.org/1999/xlink" width="24" height="24" viewBox="0 0 24 24">
    <defs>
        <path id="wikuxi0q9a" d="M6.428 10.897c.057.27-.116.535-.386.592-.382.08-.716.17-.997.258l-.312.104-.26.1-.204.092c-.177.087-.269.157-.269.193 0 .093.128.195.364.3l.196.078.236.08.272.078.307.078.34.076.372.075.4.071.429.069.454.064.477.06.5.054.52.048.537.042.275.018.562.031.575.023c.194.006.39.01.587.014L12 13.5l.597-.005c.098-.001.197-.003.295-.006l.58-.018.287-.013.562-.03.546-.04.529-.045.51-.05.488-.058.466-.062.653-.1.4-.072.372-.075.34-.076.307-.078.272-.079.236-.079.196-.079c.236-.104.364-.206.364-.299 0-.024-.04-.063-.12-.112l-.147-.08c-.087-.043-.196-.09-.324-.14l-.283-.102-.335-.105c-.12-.035-.247-.07-.383-.104l-.432-.1c-.27-.057-.443-.323-.385-.593.057-.27.323-.443.593-.385 1.794.38 2.816.89 2.816 1.721 0 .632-.742 1.142-1.999 1.517L19 16.701c0 1.907-1.347 3.55-3.218 3.922-1.26.251-2.52.377-3.782.377-1.261 0-2.522-.126-3.782-.377-1.804-.359-3.121-1.899-3.213-3.72L5 16.702V13.753l-.035-.01C3.729 13.369 3 12.862 3 12.236c0-.76.858-1.253 2.382-1.623l.453-.102c.27-.057.536.116.593.386zM18 16.314c-1.233.4-2.959.617-4.952.672l-.376.008L12 17l-.673-.006c-2.15-.037-4.016-.254-5.326-.68L6 16.702c0 1.37.928 2.56 2.24 2.902l.174.04C9.609 19.88 10.804 20 12 20c1.195 0 2.39-.12 3.586-.357 1.345-.268 2.33-1.41 2.409-2.765l.005-.177.001-.387zm0-2.312c-.234.048-.48.093-.735.135l-.502.075-.525.067-.549.058-.57.05-.589.04-.302.017-.617.027-.633.019-.323.005L12 14.5l-.656-.005-.641-.013-.315-.01-.617-.028c-.102-.005-.202-.01-.302-.017l-.59-.04-.57-.05-.548-.058-.525-.067-.502-.075c-.255-.042-.5-.087-.734-.135l-.001 1.224c.561.222 1.372.409 2.349.544l.281.037.558.061c.254.025.517.047.787.065l.41.025.632.027c.321.01.65.015.984.015l.497-.004.487-.011.633-.027c.276-.015.546-.033.809-.055l.387-.035.558-.061c1.103-.137 2.016-.338 2.63-.581v-1.224zM13.5 9c.828 0 1.5.672 1.5 1.5s-.672 1.5-1.5 1.5-1.5-.672-1.5-1.5.672-1.5 1.5-1.5zm0 1c-.276 0-.5.224-.5.5s.224.5.5.5.5-.224.5-.5-.224-.5-.5-.5zm4.25-2.567c.138-.24.444-.321.683-.183.24.138.321.444.183.683l-1.5 2.598c-.138.24-.444.321-.683.183-.24-.138-.321-.444-.183-.683zm-11.69-.08l2.122 2.122c.195.195.195.512 0 .707-.195.195-.512.195-.707 0L5.354 8.061c-.196-.196-.196-.512 0-.707.195-.196.511-.196.707 0zM9.5 5c.828 0 1.5.672 1.5 1.5S10.328 8 9.5 8 8 7.328 8 6.5 8.672 5 9.5 5zm0 1c-.276 0-.5.224-.5.5s.224.5.5.5.5-.224.5-.5-.224-.5-.5-.5zm5.595-2.578l.259.966.965-.26c.267-.07.541.088.613.354.071.267-.087.541-.354.613l-.966.259.26.965c.07.267-.088.541-.354.613-.267.071-.541-.087-.613-.354l-.26-.965-.964.258c-.267.072-.541-.087-.613-.353-.071-.267.087-.541.354-.613l.966-.259-.26-.965c-.07-.267.088-.541.354-.613.267-.071.541.087.613.354z"/>
    </defs>
    <g fill="none" fill-rule="evenodd">
        <mask id="0vwx098oqb" fill="#fff">
            <use xlink:href="#wikuxi0q9a"/>
        </mask>
        <use fill="#464646" fill-rule="nonzero" xlink:href="#wikuxi0q9a"/>
    </g>
</svg>
