<svg xmlns="http://www.w3.org/2000/svg" xmlns:xlink="http://www.w3.org/1999/xlink" width="24" height="24" viewBox="0 0 24 24">
    <defs>
        <path id="kzbhdg3y2a" d="M12 2c.276 0 .5.224.5.5l.001 1.518c3.492.251 6.25 3.106 6.37 6.617l.004.24v4.405l.09.03c.519.203.904.662 1.008 1.216l.02.154.007.145v.675c0 .78-.595 1.42-1.356 1.493L18.5 19h-2.626c-.444 1.725-2.01 3-3.874 3-1.864 0-3.43-1.275-3.874-3H5.5c-.78 0-1.42-.595-1.493-1.356L4 17.5v-.675c0-.658.391-1.225.953-1.48l.133-.054.039-.012v-4.404c0-3.629 2.812-6.601 6.375-6.857V2.5c0-.276.224-.5.5-.5zm2.83 17H9.17c.412 1.165 1.524 2 2.83 2s2.418-.835 2.83-2zM12.22 5.004L12.007 5h-.017c-3.162 0-5.745 2.512-5.86 5.655l-.005.22V15.7c0 .245-.177.45-.41.492l-.182.015c-.268.04-.48.25-.525.516L5 16.825v.675c0 .245.177.45.41.492L5.5 18h13c.245 0 .45-.177.492-.41L19 17.5v-.675c0-.284-.19-.527-.435-.6l-.094-.02-.123-.006c-.236-.013-.426-.187-.466-.412l-.007-.087v-4.825c0-3.09-2.391-5.636-5.432-5.859l-.223-.012z"/>
    </defs>
    <g fill="none" fill-rule="evenodd">
        <g>
            <mask id="m196kfrwdb" fill="#fff">
                <use xlink:href="#kzbhdg3y2a" />
            </mask>
            <use fill="#656565" xlink:href="#kzbhdg3y2a"/>
            <g mask="url(#m196kfrwdb)">
                <path fill="#656565" d="M0 0H24V24H0z" />
                <path fill="#464646" d="M0 0H24V24H0z"/>
            </g>
        </g>
    </g>
</svg>
