<svg xmlns="http://www.w3.org/2000/svg" xmlns:xlink="http://www.w3.org/1999/xlink" width="24" height="24" viewBox="0 0 24 24">
    <defs>
        <path id="99qytwms1a" d="M13.764 2c.072 0 .176.008.294.046.193.062.325.174.397.249l.057.065c.076.097.12.195.145.274L15 3.95c.014.05.033.104.06.16.089.182.22.298.31.363l.692.438.825.395c.06.028.16.067.289.084l.123.007c.107 0 .198-.018.267-.037l1.142-.374.106-.038c.073-.022.172-.043.29-.043.073 0 .154.009.239.03.27.07.437.238.518.342l.054.076 1.87 3.033c.037.06.085.152.112.272.044.192.011.36-.018.457l-.029.081c-.048.113-.112.2-.169.26l-.993.959c-.037.036-.075.08-.112.132-.115.166-.151.335-.163.442l-.05 1.137.039.548c.005.081.028.222.114.373.056.098.12.17.176.22l.91.769c.066.045.28.207.365.505.074.261.007.485-.045.605l-.041.084-1.771 3.086-.072.107c-.03.04-.069.083-.116.124-.149.133-.315.19-.417.215l-.087.016c-.045.006-.088.009-.129.009-.071 0-.135-.008-.19-.019l-1.355-.348c-.05-.013-.11-.023-.174-.027l-.063-.002c-.178 0-.324.048-.415.088l-.418.212-1.37.847-.103.073c-.059.048-.125.113-.184.2-.062.093-.097.183-.118.253l-.274 1.138-.017.089c-.028.115-.098.3-.273.46-.163.149-.346.21-.482.234l-.135.015-.052.001-3.65-.062c-.073 0-.18-.01-.3-.05-.191-.066-.321-.18-.392-.257l-.055-.066c-.074-.098-.116-.196-.141-.276l-.319-1.32c-.012-.05-.03-.105-.057-.162-.085-.183-.215-.301-.302-.367l-.974-.64-.502-.258c-.074-.037-.21-.093-.389-.102l-.046-.001c-.099 0-.183.014-.247.031l-1.148.341c-.052.021-.19.072-.37.072-.082 0-.171-.01-.266-.038-.269-.077-.43-.25-.508-.355l-.052-.078-1.78-3.082c-.036-.06-.08-.155-.105-.276-.03-.154-.013-.291.012-.39l.038-.115.013-.03c.05-.112.117-.197.176-.257l1.02-.93c.039-.036.078-.078.116-.13.121-.163.162-.33.177-.437l.014-.197-.074-1.53c-.005-.081-.024-.223-.107-.376-.054-.098-.118-.172-.172-.223l-.894-.787c-.064-.047-.276-.212-.354-.512-.068-.263.003-.485.058-.604l.042-.082 1.836-3.051c.036-.061.096-.147.192-.228.152-.13.32-.184.422-.206l.087-.015.11-.007c.08 0 .15.01.208.023l1.348.375c.051.013.109.025.174.03l.083.003c.169 0 .308-.043.396-.08l1.053-.51.477-.298c.07-.044.187-.13.282-.277.06-.094.094-.185.114-.256l.253-1.142.015-.09c.027-.115.093-.302.265-.464.178-.168.383-.228.52-.25l.112-.01L13.764 2zm-.017 1H10.12l-.005.043-.02.052-.234 1.058c-.044.22-.13.427-.253.616-.143.22-.33.404-.556.548l-.525.326-1.144.551c-.245.1-.5.15-.76.15-.052 0-.107-.002-.163-.006-.112-.01-.226-.03-.337-.058l-1.297-.36L3 8.942l.035.025.037.043.832.727c.175.148.318.322.426.52.124.227.197.483.212.74l.077 1.576-.024.305c-.043.304-.161.594-.341.836-.068.09-.144.175-.226.252l-.98.89 1.768 3.053.041-.017.057-.009 1.073-.318c.19-.06.387-.09.587-.09l.093.002c.268.013.535.083.772.202l.55.281 1.033.677.023.018c.252.189.453.432.58.704.047.103.085.209.112.316l.306 1.262 3.629.063.005-.043.02-.052.255-1.054c.048-.219.137-.425.263-.61.148-.219.338-.4.568-.54l.396-.238 1.03-.636.441-.224.028-.012c.255-.11.522-.165.793-.165l.124.004c.117.007.232.025.345.054l1.299.332L21 14.759l-.036-.025-.039-.041-.846-.712c-.178-.144-.325-.316-.436-.51-.13-.226-.209-.482-.228-.74l-.042-.596.053-1.203.003-.029c.034-.304.143-.597.316-.845.065-.092.138-.178.218-.257l.956-.919L19.06 5.88l-.04.017-.057.01-1.064.348c-.153.054-.312.087-.473.1l-.205.007c-.27-.006-.53-.067-.774-.18l-.878-.419-.759-.478-.024-.018c-.255-.184-.46-.424-.592-.695-.05-.101-.09-.206-.118-.314L13.747 3zM12 8c2.21 0 4 1.79 4 4s-1.79 4-4 4-4-1.79-4-4 1.79-4 4-4zm0 1c-1.657 0-3 1.343-3 3s1.343 3 3 3 3-1.343 3-3-1.343-3-3-3z"/>
    </defs>
    <g fill="none" fill-rule="evenodd">
        <g>
            <mask id="3gcvw7d28b" fill="#fff">
                <use xlink:href="#99qytwms1a"/>
            </mask>
            <use fill="#464646" fill-rule="nonzero" xlink:href="#99qytwms1a"/>
        </g>
    </g>
</svg>
