<svg xmlns="http://www.w3.org/2000/svg" width="77" height="52" viewBox="0 0 77 52">
    <g fill="none" fill-rule="evenodd">
        <g transform="rotate(18 12.601 59.129)">
            <path fill="#F2F7FF" stroke="#2581FF" d="M44.69 31.5a4.183 4.183 0 0 1 3.81-2.462c1.664 0 3.142.984 3.81 2.462h4.545a4.645 4.645 0 0 0 4.645-4.645V5.145A4.645 4.645 0 0 0 56.855.5H52.31a4.183 4.183 0 0 1-3.81 2.462A4.183 4.183 0 0 1 44.69.5H5.145A4.645 4.645 0 0 0 .5 5.145v21.71A4.645 4.645 0 0 0 5.145 31.5H44.69z"/>
            <text fill="#2581FF" font-family="Ubuntu-Regular, Ubuntu" font-size="14">
                <tspan x="12.093" y="21">ALL</tspan>
            </text>
            <rect width="1.227" height="4.308" x="47.273" y="7.385" fill="#2581FF" rx=".614"/>
            <rect width="1.227" height="4.308" x="47.273" y="13.846" fill="#2581FF" rx=".614"/>
            <rect width="1.227" height="4.308" x="47.273" y="20.308" fill="#2581FF" rx=".614"/>
        </g>
        <g transform="rotate(7 -69.624 69.08)">
            <path fill="#F2F7FF" stroke="#2581FF" d="M44.69 31.5a4.183 4.183 0 0 1 3.81-2.462c1.664 0 3.142.984 3.81 2.462h4.545a4.645 4.645 0 0 0 4.645-4.645V5.145A4.645 4.645 0 0 0 56.855.5H52.31a4.183 4.183 0 0 1-3.81 2.462A4.183 4.183 0 0 1 44.69.5H5.145A4.645 4.645 0 0 0 .5 5.145v21.71A4.645 4.645 0 0 0 5.145 31.5H44.69z"/>
            <text fill="#2581FF" font-family="Ubuntu-Regular, Ubuntu" font-size="14">
                <tspan x="12.093" y="21">ALL</tspan>
            </text>
            <rect width="1.227" height="4.308" x="47.273" y="7.385" fill="#2581FF" rx=".614"/>
            <rect width="1.227" height="4.308" x="47.273" y="13.846" fill="#2581FF" rx=".614"/>
            <rect width="1.227" height="4.308" x="47.273" y="20.308" fill="#2581FF" rx=".614"/>
        </g>
        <g transform="translate(0 20)">
            <path fill="#FEFEFE" stroke="#2581FF" d="M44.69 31.5a4.183 4.183 0 0 1 3.81-2.462c1.664 0 3.142.984 3.81 2.462h4.545a4.645 4.645 0 0 0 4.645-4.645V5.145A4.645 4.645 0 0 0 56.855.5H52.31a4.183 4.183 0 0 1-3.81 2.462A4.183 4.183 0 0 1 44.69.5H5.145A4.645 4.645 0 0 0 .5 5.145v21.71A4.645 4.645 0 0 0 5.145 31.5H44.69z"/>
            <text fill="#2581FF" font-family="Ubuntu-Bold, Ubuntu" font-size="14" font-weight="bold">
                <tspan x="11.071" y="21">ALL</tspan>
            </text>
            <rect width="1.227" height="4.308" x="47.273" y="7.385" fill="#2581FF" rx=".614"/>
            <rect width="1.227" height="4.308" x="47.273" y="13.846" fill="#2581FF" rx=".614"/>
            <rect width="1.227" height="4.308" x="47.273" y="20.308" fill="#2581FF" rx=".614"/>
        </g>
    </g>
</svg>
