<svg xmlns="http://www.w3.org/2000/svg" xmlns:xlink="http://www.w3.org/1999/xlink" width="24" height="24" viewBox="0 0 24 24">
    <defs>
        <path id="7acrzfpk9a" d="M10 4c2.21 0 4 1.79 4 4 0 1.399-.718 2.63-1.806 3.345C15.546 12.416 18 15.843 18 19.5c0 .276-.224.5-.5.5s-.5-.224-.5-.5c0-3.866-3.134-7.5-7-7.5s-7 3.634-7 7.5c0 .276-.224.5-.5.5s-.5-.224-.5-.5c0-3.657 2.454-7.084 5.805-8.156C6.718 10.63 6 9.4 6 8c0-2.21 1.79-4 4-4zm11.5 9c.276 0 .5.224.5.5s-.224.5-.5.5h-3c-.276 0-.5-.224-.5-.5s.224-.5.5-.5h3zM10 5C8.343 5 7 6.343 7 8s1.343 3 3 3 3-1.343 3-3-1.343-3-3-3zm11.5 5c.276 0 .5.224.5.5s-.224.5-.5.5H16c-.276 0-.5-.224-.5-.5s.224-.5.5-.5h5.5zm0-3c.276 0 .5.224.5.5s-.224.5-.5.5H16c-.276 0-.5-.224-.5-.5s.224-.5.5-.5h5.5z"/>
    </defs>
    <g fill="none" fill-rule="evenodd">
        <g>
            <mask id="k69c7rcqkb" fill="#fff">
                <use xlink:href="#7acrzfpk9a"/>
            </mask>
            <use fill="#464646" fill-rule="nonzero" xlink:href="#7acrzfpk9a"/>
        </g>
    </g>
</svg>
