<svg width="24" height="24" fill="none" xmlns="http://www.w3.org/2000/svg">
  <path fill-rule="evenodd" clip-rule="evenodd" d="M13.162 2.104A.5.5 0 0 0 12.857 2h-6.5l-.156.005C4.965 2.091 4 3.182 4 4.5v14l.007.194c.047.644.325 1.237.775 1.666.428.409.985.64 1.575.64H8.5l.09-.008A.5.5 0 0 0 8.5 20H6.357l-.14-.008a1.289 1.289 0 0 1-.745-.356A1.565 1.565 0 0 1 5 18.5v-14l.006-.146C5.073 3.588 5.66 3 6.357 3H12v4.4l.006.144C12.074 8.352 12.707 9 13.5 9H17v2.5l.008.09A.5.5 0 0 0 18 11.5v-4l-.009-.093a.5.5 0 0 0-.125-.247l-4.643-5-.06-.056ZM13 7.4V3.389l4 4.308V8h-3.5l-.078-.008C13.19 7.947 13 7.707 13 7.4ZM17.711 13.592a2.02 2.02 0 0 1 2.857 2.857l-4.03 4.03c-.196.196-.45.327-.725.372l-1.775.296a.89.89 0 0 1-1.026-1.025l.296-1.776c.046-.274.177-.528.374-.725l4.03-4.03Zm2.227.63a1.13 1.13 0 0 0-1.597 0l-.049.049c.382.123.72.325.996.601.275.276.478.614.601.996l.05-.05a1.13 1.13 0 0 0 0-1.596Zm-.805 2.402c-.035-.481-.212-.858-.475-1.122-.264-.263-.64-.44-1.122-.475l-2.375 2.375c.387.117.73.318 1.009.597.273.274.474.61.597.99l2.366-2.365Zm-3.12 3.12c-.04-.485-.217-.858-.473-1.115-.268-.268-.654-.44-1.151-.455l-.077.077a.446.446 0 0 0-.125.242l-.091.548a.89.89 0 0 1 1.023 1.023l.548-.091a.445.445 0 0 0 .242-.125l.104-.104Z" fill="#595959"/>
  <path d="M7.25 14.738h.832v-1.477h.556c.893 0 1.607-.427 1.607-1.377 0-.989-.714-1.303-1.63-1.303H7.25v4.157Zm.832-2.135v-1.365h.471c.58 0 .877.158.877.646 0 .478-.281.72-.848.72h-.5ZM14 14.738l-.972-1.702c.477-.185.792-.562.792-1.197 0-.96-.685-1.258-1.562-1.258h-1.45v4.157h.832v-1.573h.579l.854 1.573H14Zm-2.36-3.5h.54c.539 0 .825.152.825.601 0 .45-.286.669-.825.669h-.54v-1.27Z" fill="#595959"/>
</svg>