<svg xmlns="http://www.w3.org/2000/svg" xmlns:xlink="http://www.w3.org/1999/xlink" width="24" height="24" viewBox="0 0 24 24">
    <defs>
        <path id="dn4i92rhra" d="M17.137 14.613l1.719 2.465c.139-.05.288-.078.444-.078h.4c.718 0 1.3.582 1.3 1.3v2.4c0 .718-.582 1.3-1.3 1.3h-.4c-.31 0-.593-.108-.816-.288-.231.18-.525.288-.842.288h-3.224c-.594 0-1.124-.375-1.3-.933l-1-2.316c-.159-.5-.154-.886.113-1.228l.092-.105c.262-.264.657-.417 1.039-.417h1.145l-.008-1.6c0-.625.423-1.167 1.032-1.343.6-.173 1.252.049 1.606.555zM12.857 2c.111 0 .219.037.305.104l.062.056 4.642 5c.065.07.108.155.125.247L18 7.5v4c0 .276-.224.5-.5.5-.245 0-.45-.177-.492-.41L17 11.5V9h-3.5c-.793 0-1.426-.648-1.494-1.456L12 7.4V3H6.357c-.697 0-1.284.588-1.35 1.354L5 4.5v14c0 .444.175.853.472 1.136.21.201.47.325.746.356l.14.008H8.5c.276 0 .5.224.5.5 0 .245-.177.45-.41.492L8.5 21H6.357c-.59 0-1.147-.232-1.575-.64-.45-.429-.728-1.022-.775-1.666L4 18.5v-14c0-1.318.965-2.41 2.201-2.495L6.357 2h6.5zM19.7 18h-.4c-.166 0-.3.134-.3.3v2.4c0 .166.134.3.3.3h.4c.166 0 .3-.134.3-.3v-2.4c0-.166-.134-.3-.3-.3zm-3.892-2.98c-.188.053-.31.209-.31.379l.012 2.1c.001.277-.223.502-.5.502h-1.648c-.136 0-.287.066-.342.136-.017.022-.018.099.034.267l1.001 2.316c.06.182.199.28.363.28h3.224l.073-.007c.164-.031.285-.167.285-.318V17.6l-1.682-2.414c-.106-.152-.316-.223-.51-.167zM11.5 15c.276 0 .5.224.5.5s-.224.5-.5.5h-4c-.276 0-.5-.224-.5-.5s.224-.5.5-.5h4zm3-3c.276 0 .5.224.5.5s-.224.5-.5.5h-7c-.276 0-.5-.224-.5-.5s.224-.5.5-.5h7zm-4-3c.276 0 .5.224.5.5s-.224.5-.5.5h-3c-.276 0-.5-.224-.5-.5s.224-.5.5-.5h3zM13 3.389V7.4c0 .307.19.547.422.592L13.5 8H17v-.303l-4-4.308z"/>
    </defs>
    <g fill="none" fill-rule="evenodd">
        <g>
            <g>
                <g>
                    <g transform="translate(-16 -284) translate(0 60) translate(0 212) translate(16 12)">
                        <mask id="xk31pxacbb" fill="#fff">
                            <use xlink:href="#dn4i92rhra"/>
                        </mask>
                        <use fill="#464646" fill-rule="nonzero" xlink:href="#dn4i92rhra"/>
                    </g>
                </g>
            </g>
        </g>
    </g>
</svg>
