<svg xmlns="http://www.w3.org/2000/svg" xmlns:xlink="http://www.w3.org/1999/xlink" width="24" height="24" viewBox="0 0 24 24">
    <defs>
        <path id="m86p42utva" d="M9.498 4c.276 0 .5.224.5.5 0 .245-.177.45-.41.492L9.498 5H6.5c-.245 0-.45.177-.492.41L6 5.5v8.56c.19.055.368.148.524.273l.11.098 1.447 1.425c.07.07.158.116.253.134l.097.01h7.175c.105 0 .208-.034.293-.095l.06-.05 1.42-1.417c.172-.172.381-.297.609-.369V5.5c0-.245-.177-.45-.41-.492L17.488 5H14.5c-.276 0-.5-.224-.5-.5 0-.245.177-.45.41-.492L14.5 4h2.988c.78 0 1.42.595 1.493 1.356l.007.144v6.793c.025.018.05.038.073.06l1.767 1.768.012.013c.099.09.16.221.16.366v5c0 .78-.595 1.42-1.356 1.493L19.5 21h-15c-.78 0-1.42-.595-1.493-1.356L3 19.5v-5l.006-.063v-.006l.002-.019L3 14.5c0-.046.006-.09.018-.133.02-.09.066-.176.136-.246l1.767-1.767c.025-.025.05-.046.078-.064L5 5.5c0-.78.595-1.42 1.356-1.493L6.5 4h2.998zM5.58 15H4v4.5c0 .245.177.45.41.492L4.5 20h15c.245 0 .45-.177.492-.41L20 19.5V15h-1.562c-.105 0-.208.034-.293.095l-.06.05-1.42 1.417c-.246.246-.569.397-.911.43l-.148.008H8.43c-.344 0-.677-.119-.942-.333l-.11-.098-1.447-1.425c-.07-.07-.159-.116-.254-.134L5.58 15zM12 2c.27 0 .488.219.488.488v8.78l1.929-2.003c.169-.176.432-.196.622-.06l.068.06c.17.176.188.449.056.647l-.056.07-2.762 2.87c-.17.176-.432.195-.623.058l-.067-.059-2.762-2.869c-.19-.198-.19-.52 0-.717.17-.176.433-.196.623-.06l.067.06 1.928 2.004v-8.78c0-.27.22-.489.489-.489z"/>
    </defs>
    <g fill="none" fill-rule="evenodd">
        <g>
            <mask id="ux4cuc2jhb" fill="#fff">
                <use xlink:href="#m86p42utva"/>
            </mask>
            <use fill="#464646" fill-rule="nonzero" xlink:href="#m86p42utva"/>
        </g>
    </g>
</svg>
