<svg xmlns="http://www.w3.org/2000/svg" xmlns:xlink="http://www.w3.org/1999/xlink" width="24" height="24" viewBox="0 0 24 24">
    <defs>
        <path id="8jl0yzs7ba" d="M7.498 4c.276 0 .5.224.5.5 0 .245-.177.45-.41.492L7.498 5H6.5c-.245 0-.45.177-.492.41L6 5.5l.001 8.56c.19.055.368.148.523.273l.11.098 1.447 1.425c.07.07.158.116.253.134l.097.01h7.175c.105 0 .208-.034.293-.095l.06-.05 1.42-1.417c.172-.172.381-.297.609-.369V5.5c0-.245-.177-.45-.41-.492L17.488 5H16.5c-.276 0-.5-.224-.5-.5 0-.245.177-.45.41-.492L16.5 4h.988c.78 0 1.42.595 1.493 1.356l.007.144v6.793c.025.018.05.038.073.06l1.767 1.768.012.013c.099.09.16.221.16.366v5c0 .78-.595 1.42-1.356 1.493L19.5 21h-15c-.78 0-1.42-.595-1.493-1.356L3 19.5v-5l.006-.063v-.006l.002-.019L3 14.5c0-.046.006-.09.018-.133.02-.09.066-.176.136-.246l1.767-1.767c.025-.025.051-.046.08-.065L5 5.5c0-.78.595-1.42 1.356-1.493L6.5 4h.998zM5.58 15H4v4.5c0 .245.177.45.41.492L4.5 20h15c.245 0 .45-.177.492-.41L20 19.5V15h-1.562c-.105 0-.208.034-.293.095l-.06.05-1.42 1.417c-.246.246-.569.397-.911.43l-.148.008H8.43c-.344 0-.677-.119-.942-.333l-.11-.098-1.447-1.425c-.07-.07-.159-.116-.254-.134L5.58 15zm6.141-12.91c.19-.137.454-.118.623.059l2.762 2.869.056.07c.132.198.113.471-.056.647l-.068.06c-.19.136-.453.116-.622-.06l-1.928-2.003v8.78c0 .27-.22.488-.489.488-.27 0-.488-.219-.488-.488L11.51 3.73 9.583 5.735l-.067.06c-.19.136-.454.116-.623-.06-.19-.198-.19-.519 0-.717l2.762-2.87z"/>
    </defs>
    <g fill="none" fill-rule="evenodd">
        <g>
            <mask id="nb6f54mhub" fill="#fff">
                <use xlink:href="#8jl0yzs7ba"/>
            </mask>
            <use fill="#464646" fill-rule="nonzero" xlink:href="#8jl0yzs7ba"/>
        </g>
    </g>
</svg>
