<svg xmlns="http://www.w3.org/2000/svg" xmlns:xlink="http://www.w3.org/1999/xlink" width="24" height="24" viewBox="0 0 24 24">
    <defs>
        <path id="znoo6z5c8a" d="M0 0L20 0 20 15.999 0 15.999z"/>
    </defs>
    <g fill="none" fill-rule="evenodd">
        <g>
            <g transform="translate(2 4)">
                <mask id="0gl9sb3hrb" fill="#fff">
                    <use xlink:href="#znoo6z5c8a"/>
                </mask>
                <path fill="#464646" d="M1 14.998L1.001 1h13.998l.001.002-.001 10.568H15v1.93c0 .568.193 1.082.508 1.5H12.5L1 14.997zM19.5 1.46c-.28 0-.5.22-.5.5V13.5c0 .83-.67 1.5-1.5 1.5s-1.5-.67-1.5-1.5V1.002C16 .449 15.552 0 14.999 0H1.001C.448 0 0 .449 0 1.002v13.996C0 15.553.448 16 1.001 16H17.5c1.38 0 2.5-1.11 2.5-2.5V1.96c0-.28-.22-.5-.5-.5z" mask="url(#0gl9sb3hrb)"/>
            </g>
            <path fill="#464646" d="M17.5 13.806c-.276 0-.5-.224-.5-.5V1.956c0-.277.224-.5.5-.5s.5.223.5.5v11.35c0 .276-.224.5-.5.5M6.497 3H2.503C2.225 3 2 3.225 2 3.503v3.994c0 .278.225.503.503.503h3.994C6.775 8 7 7.775 7 7.497V3.503C7 3.225 6.775 3 6.497 3zM3 7h3V4H3v3zM13.5 4.048H8.424c-.276 0-.5-.224-.5-.5s.224-.5.5-.5H13.5c.276 0 .5.224.5.5s-.224.5-.5.5M13.5 7H8.424c-.276 0-.5-.224-.5-.5s.224-.5.5-.5H13.5c.276 0 .5.224.5.5s-.224.5-.5.5M13.583 10h-11c-.276 0-.5-.224-.5-.5s.224-.5.5-.5h11c.276 0 .5.224.5.5s-.224.5-.5.5M13.583 13h-11c-.276 0-.5-.224-.5-.5s.224-.5.5-.5h11c.276 0 .5.224.5.5s-.224.5-.5.5" transform="translate(2 4)"/>
        </g>
    </g>
</svg>
