<svg xmlns="http://www.w3.org/2000/svg" width="24" height="24" viewBox="0 0 24 24">
    <g fill="none" fill-rule="evenodd">
        <g fill="#FEFEFE">
            <g>
                <g>
                    <path d="M103 24c6.627 0 12-5.373 12-12s-5.373-12-12-12-12 5.373-12 12 5.373 12 12 12zm0-20c3.318 0 6 2.783 6 6.207v7.466c0 .18-.15.327-.333.327-1.008 0-1.46-.399-1.733-1.203l-.062-.188-.058-.17c-.12-.328-.216-.399-.48-.399-.242 0-.311.052-.329.38l-.005.171-.001.216c-.016.817-.22 1.193-.999 1.193-.75 0-1.025-.347-1.316-1.203l-.075-.209c-.166-.438-.293-.548-.609-.548-.343 0-.432.133-.548.716l-.033.16c-.166.76-.402 1.084-1.086 1.084-.72 0-.943-.36-1.111-1.207l-.029-.141c-.106-.495-.205-.612-.526-.612-.305 0-.386.095-.54.57l-.019.06-.082.239c-.278.73-.733 1.091-1.693 1.091-.184 0-.333-.146-.333-.327v-7.466C97 6.783 99.682 4 103 4zm-2.5 4c-.552 0-1 .448-1 1s.448 1 1 1 1-.448 1-1-.448-1-1-1zm5 0c-.552 0-1 .448-1 1s.448 1 1 1 1-.448 1-1-.448-1-1-1z" transform="translate(-408 -401) translate(270 250) translate(47 151)"/>
                </g>
            </g>
        </g>
    </g>
</svg>
