<svg xmlns="http://www.w3.org/2000/svg" xmlns:xlink="http://www.w3.org/1999/xlink" width="24" height="24" viewBox="0 0 24 24">
    <defs>
        <path id="xargwsx8za" d="M12.962 4.247l.147.089 2 1.333c.51.34.834.893.884 1.498l.007.166V8.5l.549.318c.24.138.321.444.183.683-.138.24-.444.321-.683.183L16 9.655v1.941l.39-.26c.624-.416 1.424-.446 2.072-.09l.147.09.5.333c.51.34.834.893.884 1.498l.007.166V19h1.5c.276 0 .5.224.5.5s-.224.5-.5.5h-19c-.276 0-.5-.224-.5-.5s.224-.5.5-.5H4v-5.667c0-.613.28-1.188.756-1.566l.135-.098.5-.333c.623-.416 1.423-.446 2.071-.09l.147.09.391.26V7.333c0-.613.28-1.188.756-1.566l.135-.098 2-1.333c.623-.416 1.423-.446 2.071-.09zM18 12.136V19h1v-5.667c0-.292-.128-.568-.346-.756l-.1-.076-.5-.333-.054-.032zm-1-.001l-.055.033-.5.333c-.243.163-.401.422-.437.708l-.008.124V19h1v-6.865zm-11 0l-.055.033-.5.333c-.243.163-.401.422-.437.708L5 13.333V19h1v-6.865zm1 .001V19h1v-5.667c0-.292-.128-.568-.346-.756l-.1-.076-.5-.333L7 12.136zm4.5-7.001l-.055.033-2 1.333c-.243.163-.401.422-.437.708L9 7.333V19h2.5V5.135zm1 .001V19H15V9.078l-1.549-.895c-.24-.138-.321-.444-.183-.683.138-.24.444-.321.683-.183L15 7.922v-.589c0-.292-.128-.568-.346-.756l-.1-.076-2-1.333-.054-.032z"/>
    </defs>
    <g fill="none" fill-rule="evenodd">
        <g>
            <mask id="9w5rzgb7nb" fill="#fff">
                <use xlink:href="#xargwsx8za"/>
            </mask>
            <use fill="#464646" xlink:href="#xargwsx8za"/>
        </g>
    </g>
</svg>
