<svg xmlns="http://www.w3.org/2000/svg" xmlns:xlink="http://www.w3.org/1999/xlink" width="24" height="24" viewBox="0 0 24 24">
    <defs>
        <path id="svai7yfr6a" d="M20 5c1.054 0 1.918.816 1.995 1.85L22 7v10c0 1.054-.816 1.918-1.85 1.995L20 19H4c-1.054 0-1.918-.816-1.995-1.85L2 17V7c0-1.054.816-1.918 1.85-1.995L4 5h16zm1 5H3v7c0 .513.386.936.883.993L4 18h16c.513 0 .936-.386.993-.883L21 17v-7zm-9.5 6c.276 0 .5.224.5.5s-.224.5-.5.5h-7c-.276 0-.5-.224-.5-.5s.224-.5.5-.5h7zm7-2c.828 0 1.5.672 1.5 1.5s-.672 1.5-1.5 1.5c-.384 0-.735-.144-1-.382-.264.237-.615.382-1 .382-.828 0-1.5-.672-1.5-1.5s.672-1.5 1.5-1.5c.385 0 .736.145 1.001.383.264-.239.615-.383.999-.383zm-2 1c-.276 0-.5.224-.5.5s.224.5.5.5.5-.224.5-.5-.224-.5-.5-.5zm2 0c-.276 0-.5.224-.5.5s.224.5.5.5.5-.224.5-.5-.224-.5-.5-.5zM20 6H4c-.513 0-.936.386-.993.883L3 7v1h18V7c0-.513-.386-.936-.883-.993L20 6z"/>
    </defs>
    <g fill="none" fill-rule="evenodd">
        <g>
            <mask id="h59kh3is9b" fill="#fff">
                <use xlink:href="#svai7yfr6a"/>
            </mask>
            <use fill="#464646" xlink:href="#svai7yfr6a"/>
        </g>
    </g>
</svg>
