<svg xmlns="http://www.w3.org/2000/svg" xmlns:xlink="http://www.w3.org/1999/xlink" width="24" height="24" viewBox="0 0 24 24">
    <defs>
        <path id="13452ez9ia" d="M13.1 3C14.697 3 16 4.253 16 5.808v2.208c0 .276-.224.5-.5.5s-.5-.224-.5-.5V5.808C15 4.814 14.154 4 13.1 4H5.9C4.846 4 4 4.814 4 5.808v12.384C4 19.186 4.846 20 5.9 20h7.2c.276 0 .5.224.5.5s-.224.5-.5.5H5.9C4.303 21 3 19.747 3 18.192V5.808C3 4.253 4.303 3 5.9 3h7.2zm1.4 7c2.485 0 4.5 2.015 4.5 4.5 0 1.062-.368 2.039-.984 2.809l2.838 2.837c.195.196.195.512 0 .708-.196.195-.512.195-.708 0l-2.837-2.838c-.77.616-1.747.984-2.809.984-2.485 0-4.5-2.015-4.5-4.5s2.015-4.5 4.5-4.5zm0 1c-1.933 0-3.5 1.567-3.5 3.5s1.567 3.5 3.5 3.5 3.5-1.567 3.5-3.5-1.567-3.5-3.5-3.5z"/>
    </defs>
    <g fill="none" fill-rule="evenodd">
        <g>
            <mask id="jlqbzpcmob" fill="#fff">
                <use xlink:href="#13452ez9ia"/>
            </mask>
            <use fill="#ffffff" fill-rule="nonzero" xlink:href="#13452ez9ia"/>
        </g>
    </g>
</svg>
