<svg xmlns="http://www.w3.org/2000/svg" xmlns:xlink="http://www.w3.org/1999/xlink" width="24" height="24" viewBox="0 0 24 24">
    <defs>
        <path id="oah3uedn5a" d="M22 16c0 1.105-.895 2-2 2h-7.5v1h4c.276 0 .5.224.5.5s-.224.5-.5.5h-9c-.276 0-.5-.224-.5-.5s.224-.5.5-.5h4v-1H4c-1.105 0-2-.895-2-2V6c0-1.105.895-2 2-2h16c1.105 0 2 .895 2 2zM3 16c0 .552.448 1 1 1h16c.552 0 1-.448 1-1zM20 5H4c-.552 0-1 .448-1 1v9h18V6c0-.513-.386-.936-.883-.993L20 5zm-8.75 2.08c.27 0 .535.078.763.224l2.73 1.743c.66.422.853 1.3.431 1.96-.11.173-.258.32-.431.431l-2.73 1.743c-.66.422-1.537.229-1.959-.432-.145-.228-.223-.493-.223-.763V8.499c0-.783.635-1.418 1.418-1.418zm0 .947c-.262 0-.473.211-.473.472v3.487c0 .09.026.178.074.254.14.22.433.285.653.144l2.73-1.743c.057-.037.107-.086.143-.144.141-.22.077-.512-.144-.653l-2.729-1.743c-.076-.049-.164-.074-.255-.074z"/>
    </defs>
    <g fill="none" fill-rule="evenodd">
        <g>
            <mask id="falb1nrsqb" fill="#fff">
                <use xlink:href="#oah3uedn5a"/>
            </mask>
            <use fill="#979797" fill-rule="nonzero" xlink:href="#oah3uedn5a"/>
            <g mask="url(#falb1nrsqb)">
                <path fill="#656565" d="M0 0H24V24H0z"/>
                <path fill="#464646" d="M0 0H24V24H0z"/>
            </g>
        </g>
    </g>
</svg>
