<svg width="24" height="24" viewBox="0 0 24 24" fill="none" xmlns="http://www.w3.org/2000/svg">
<path d="M10.5 4.5H4.5C3.94772 4.5 3.5 4.94772 3.5 5.5V19.5C3.5 20.0523 3.94772 20.5 4.5 20.5H18.5C19.0523 20.5 19.5 20.0523 19.5 19.5V13.5" stroke="#595959" stroke-linecap="round"/>
<path fill-rule="evenodd" clip-rule="evenodd" d="M20.107 8.22764C21.3028 7.03175 21.3028 5.09282 20.107 3.89692C18.9111 2.70103 16.9721 2.70103 15.7762 3.89692L7.83657 11.8366L7.02109 15.8014C6.8764 16.5049 7.49843 17.127 8.20193 16.9824L12.1673 16.1673L20.107 8.22764ZM8.77545 12.3424L9.67142 11.446C10.3452 11.4232 11.0962 11.7088 11.6953 12.308C12.2954 12.908 12.581 13.6603 12.5572 14.3349L11.6626 15.2295L10.1273 15.5447C10.1724 15.1718 10.0415 14.7689 9.74005 14.4674C9.36692 14.0943 8.83832 13.9825 8.40383 14.1423L8.77545 12.3424ZM15.4433 5.67177L10.5856 10.5308C11.2394 10.6954 11.8804 11.0495 12.4171 11.5862C12.9543 12.1234 13.3086 12.7652 13.473 13.4196L18.3314 8.56283C18.3559 7.88773 18.0703 7.1344 17.4696 6.5337C16.8698 5.93384 16.1177 5.64818 15.4433 5.67177ZM16.498 4.61871L16.6097 4.51493C17.4118 3.82309 18.6241 3.85768 19.3852 4.61871L19.4889 4.7304C20.1808 5.53246 20.1462 6.74483 19.3852 7.50586L19.2474 7.64569C19.083 6.99113 18.7287 6.34922 18.1914 5.81191C17.6541 5.27466 17.0123 4.92033 16.3578 4.75599L16.498 4.61871Z" fill="#595959"/>
</svg>
