<svg xmlns="http://www.w3.org/2000/svg" xmlns:xlink="http://www.w3.org/1999/xlink" width="24" height="24" viewBox="0 0 24 24">
    <defs>
        <path id="omr5t76nva" d="M12.5 3c.789 0 1.426.63 1.494 1.421l.006.141v2.089c0 .276-.224.5-.5.5-.245 0-.45-.177-.492-.41L13 6.65V4.563c0-.286-.187-.513-.42-.556L12.5 4h-8c-.242 0-.453.199-.493.47L4 4.563v14.875c0 .285.187.512.42.555L4.5 20h8c.242 0 .453-.199.493-.47l.007-.093v-2.044c0-.276.224-.5.5-.5.245 0 .45.177.492.41l.008.09v2.044c0 .81-.593 1.484-1.362 1.557L12.5 21h-8c-.789 0-1.426-.63-1.494-1.421L3 19.437V4.563c0-.808.593-1.483 1.362-1.556L4.5 3h8zm3.404 4.404c.195-.195.512-.195.707 0l4.254 4.255.046.057.051.093.021.062.011.061L21 12l-.002.042-.003.032-.018.076-.031.076-.026.045c-.018.03-.04.057-.066.083l-4.243 4.242-.07.058c-.194.135-.464.116-.637-.058l-.058-.07c-.135-.194-.116-.463.058-.637l3.391-3.39L8.5 12.5c-.276 0-.5-.224-.5-.5s.224-.5.5-.5h10.795l-3.391-3.39-.058-.068c-.135-.195-.116-.465.058-.638z"/>
    </defs>
    <g fill="none" fill-rule="evenodd">
        <g>
            <mask id="emjqxwpf8b" fill="#fff">
                <use xlink:href="#omr5t76nva"/>
            </mask>
            <use fill="#464646" fill-rule="nonzero" xlink:href="#omr5t76nva"/>
        </g>
    </g>
</svg>
