<svg xmlns="http://www.w3.org/2000/svg" xmlns:xlink="http://www.w3.org/1999/xlink" width="24" height="24"
     viewBox="0 0 24 24">
    <defs>
        <path id="jplpc1fa3a"
              d="M3.642 3.022l.082.033L9.962 6.11l1.322-1.898c.2-.288.617-.28.813-.012l.048.08.124.26.226.486.195.442.166.399.134.356c.102.285.17.525.207.724l.021.14.025.003c1.705.23 3.176.948 5.022 2.23 1.09.756 1.828 1.724 2.262 2.855.423 1.104.523 2.16.452 3.418l-.042.572c-.16 1.94-1.077 3.33-2.624 4.707-.209.186-.529.167-.715-.042-.186-.21-.167-.53.042-.716 1.29-1.148 2.06-2.266 2.257-3.75l.049-.5c.1-1.28.03-2.293-.365-3.326-.261-.681-.652-1.289-1.195-1.814.062.094.12.189.176.285 1.142 1.999 1.017 4.583-.75 6.703-1.682 2.018-4.928 3.252-7.315 3.252-1.373 0-2.228-.357-2.228-1.479 0-.473.29-.935.881-1.591l.344-.369.76-.792.233-.257.1-.124.04-.06.035-.075c.077-.222.01-.58-.237-1.063l-.156.018c-.258.028-.527.05-.835.07l-1.016.063-.207.018-.144.018-.121.026-.285.083-1.1.367-.136.043c-.83.258-1.4.36-1.847.253C3.604 15.88 3 15.034 3 14c0-.978.716-2.067 2.304-3.61.575-.558 1.249-1.154 2.024-1.787l-4.2-4.769c-.34-.388.055-.953.514-.812zm7.966 2.473l-1.543 2.22-.112.115C8.313 9.048 6.995 10.14 6 11.107 4.595 12.473 4 13.379 4 14c0 .59.307 1.02.81 1.14.187.045.574-.016 1.127-.177l.457-.143.83-.28.27-.085.219-.06c.032-.009.064-.016.094-.023l.143-.025.177-.02.225-.02 1.016-.062.416-.031.376-.037c.955-.104 1.613-.289 1.894-.546.447-.408.53-1.006.205-1.893-.094-.26.04-.547.298-.641.26-.095.547.038.642.298.451 1.236.31 2.261-.47 2.974-.303.277-.729.47-1.284.607.23.534.304 1.007.204 1.425l-.059.191-.05.126-.039.079-.05.082-.068.092-.145.172-.133.146-1.069 1.118-.121.133-.212.244-.09.11-.15.2c-.129.183-.194.316-.194.391 0 .33.355.48 1.228.48 2.112 0 5.075-1.128 6.546-2.893 1.49-1.787 1.593-3.918.65-5.567-.658-1.152-2.057-2.213-3.41-2.823-.44-.198-.865-.344-1.276-.439-.133.367-.33.793-.588 1.284-.128.244-.43.339-.675.21-.244-.128-.338-.43-.21-.675l.103-.2.182-.371c.274-.587.41-1.01.41-1.24 0-.088-.029-.227-.086-.413l-.082-.246-.11-.291-.136-.334-.207-.472zM9.5 10c.276 0 .5.224.5.5s-.224.5-.5.5-.5-.224-.5-.5.224-.5.5-.5zM5.538 5.056L8.11 7.977c.268-.21.546-.424.835-.642l.346-.259.093-.135-3.846-1.885z"/>
    </defs>
    <g fill="none" fill-rule="evenodd">
        <mask id="n6d87k0u9b" fill="#fff">
            <use xlink:href="#jplpc1fa3a"/>
        </mask>
        <use fill="#464646" fill-rule="nonzero" xlink:href="#jplpc1fa3a"/>
    </g>
</svg>
