<svg xmlns="http://www.w3.org/2000/svg" xmlns:xlink="http://www.w3.org/1999/xlink" width="20" height="20" viewBox="0 0 20 20">
    <defs>
        <path id="msd6jmb03a" d="M2.5 16c-.276 0-.5-.224-.5-.5s.224-.5.5-.5H3v-4.35c0-.477.17-.935.476-1.295l.12-.13.327-.322c.695-.685 1.788-.723 2.527-.114l.05.046V6.48c0-.547.224-1.067.614-1.443l.137-.12 1.5-1.2c.684-.547 1.64-.581 2.358-.102l.14.103 1.5 1.2c.427.341.694.841.743 1.38l.008.182v2.351c.695-.615 1.734-.63 2.447-.046l.13.117.326.321c.34.335.547.777.59 1.248l.007.178V15h.5c.276 0 .5.224.5.5s-.224.5-.5.5h-15zM14 9.738l-.202.199c-.159.157-.26.361-.29.58l-.008.133V15h.5V9.738zM10.492 4.41l.008.09V15h2V6.48c0-.26-.101-.508-.28-.693l-.095-.087-1.5-1.2c-.043-.034-.087-.064-.133-.09zm-5.48 4.982l-.094.031c-.071.029-.14.067-.202.114l-.091.078-.327.322c-.159.157-.26.361-.29.58L4 10.65V15h1V9.5c0-.037.004-.073.012-.108zm4.466-4.965l-.103.073-1.5 1.2c-.203.162-.334.397-.367.652L7.5 6.48V15h2V4.5l.008-.09-.03.017zm5.509 4.964l.005.02c.005.028.008.058.008.089V15h1v-4.35c0-.224-.075-.44-.21-.614l-.088-.099-.327-.322c-.112-.11-.246-.185-.388-.224zM6 9.738V15h.5v-4.35c0-.224-.075-.44-.21-.614l-.088-.099-.202-.2z"/>
    </defs>
    <g fill="none" fill-rule="evenodd">
        <g>
            <g>
                <g transform="translate(-26 -97) translate(0 64) translate(26 33)">
                    <mask id="ixm141xwgb" fill="#fff">
                        <use xlink:href="#msd6jmb03a"/>
                    </mask>
                    <use fill="#FEFEFE" xlink:href="#msd6jmb03a"/>
                </g>
            </g>
        </g>
    </g>
</svg>
