<svg xmlns="http://www.w3.org/2000/svg" xmlns:xlink="http://www.w3.org/1999/xlink" width="96" height="96" viewBox="0 0 96 96">
    <defs>
        <circle id="prefix__a" cx="48" cy="48" r="48"/>
    </defs>
    <g fill="none" fill-rule="evenodd">
        <mask id="prefix__b" fill="#fff">
            <use xlink:href="#prefix__a"/>
        </mask>
        <use fill="#E5E5E5" xlink:href="#prefix__a"/>
        <g mask="url(#prefix__b)">
            <path fill="#FEFEFE" fill-rule="nonzero" d="M60.271 64.44V46.02c-.166.038-.328.104-.476.199L57 48.004v16.425l3.271.01zm1 .002l5.165.016v-14.52c0-.54-.291-1.04-.761-1.306L61.34 46.18c-.023-.013-.046-.026-.07-.037v18.3zM57 46.817l2.257-1.44c.78-.498 1.771-.524 2.577-.068l4.333 2.453c.784.444 1.269 1.275 1.269 2.176V64.46l3.93.012c.276.001.499.226.498.502 0 .276-.225.5-.501.498l-46.865-.144c-.276 0-.499-.225-.498-.501 0-.276.225-.5.502-.499L28 64.34V50.061c0-.9.484-1.732 1.268-2.176l4.334-2.453c.805-.456 1.797-.43 2.577.068l2.488 1.588v-11.66c0-.88.461-1.694 1.215-2.146l6.56-3.927c.782-.468 1.755-.474 2.542-.016l6.774 3.944c.769.448 1.242 1.27 1.242 2.16v11.374zM35.395 64.363l3.272.01V48.275l-3.026-1.932c-.079-.05-.16-.092-.246-.127v18.147zm-1-.003V46.173c-.103.031-.204.074-.3.129l-4.334 2.454c-.47.266-.761.765-.761 1.305v14.282l5.395.017zM56 64.426V35.443c0-.533-.284-1.027-.745-1.296l-6.774-3.943c-.048-.028-.097-.054-.148-.076v34.275l7.667.023zm-8.667-.026V30.052c-.13.036-.258.09-.377.161l-6.56 3.927c-.452.271-.73.76-.73 1.287v28.949l7.667.024z"/>
        </g>
    </g>
</svg>
