<svg xmlns="http://www.w3.org/2000/svg" xmlns:xlink="http://www.w3.org/1999/xlink" width="20" height="20"
     viewBox="0 0 20 20">
    <defs>
        <path id="g6gb6vjata"
              d="M10.44 2.062l.135.06 6.854 3.427c.721.371.76 1.275.114 1.701l-.113.066-1.524.785 1.533.81c.709.386.746 1.299.112 1.738l-.111.068-1.759.957 1.748.875c.721.371.76 1.274.114 1.7l-.113.067-6.85 3.53c-.312.163-.692.183-1.023.062l-.138-.06-6.85-3.532c-.719-.371-.757-1.273-.108-1.702l.114-.067 1.743-.873-1.758-.956c-.747-.406-.747-1.4.005-1.81l1.527-.807-1.522-.784c-.72-.37-.758-1.274-.114-1.7l.114-.068.236.46-.23-.462 6.842-3.422c.314-.163.695-.183 1.021-.063zm4.17 10.195l-4.02 2.19c-.322.175-.717.195-1.057.058l-.124-.058-4.02-2.19-2.351 1.176 6.839 3.525c.053.027.125.034.187.02l.058-.02 6.839-3.526-2.351-1.175zm.212-3.597l-4.241 2.187c-.313.162-.693.182-1.024.06l-.138-.06L5.176 8.66 3.038 9.79c-.038.02-.047.022-.028.034l6.877 3.744c.05.027.115.034.172.02l.053-.02 6.85-3.73c.038-.02.048-.021.03-.031l-2.17-1.147zM9.933 2.994l-.061.022-6.835 3.416 6.84 3.526c.053.027.125.034.187.02l.058-.02 6.839-3.525-6.84-3.42c-.053-.028-.123-.034-.188-.02z"/>
    </defs>
    <g fill="none" fill-rule="evenodd">
        <g transform="translate(-125 -97) translate(0 64) translate(125 33)">
            <mask id="qzou4rcqzb" fill="#FEFEFE">
                <use xlink:href="#g6gb6vjata"/>
            </mask>
            <use fill="#FEFEFE" fill-rule="nonzero" xlink:href="#g6gb6vjata"/>
        </g>
    </g>
</svg>
