<svg xmlns="http://www.w3.org/2000/svg" xmlns:xlink="http://www.w3.org/1999/xlink" width="24" height="24" viewBox="0 0 24 24">
    <defs>
        <path id="dbm1hlz1pa" d="M6.733 3.058l.144.032 9.15 2.452.172.46c.16.432.505.757.943.874.39.104.796.03 1.132-.194l.122-.092.378-.312 1.83.49c.962.258 1.541 1.254 1.347 2.27l-.035.153L21 12.606V18c0 1.054-.816 1.918-1.85 1.995L19 20h-2l-.3-.4c-.282-.375-.721-.6-1.2-.6-.425 0-.82.177-1.1.481l-.1.12-.3.4H4c-1.054 0-1.918-.817-1.995-1.852L2 18v-7c0-.857.54-1.589 1.297-1.873L4.53 4.532c.258-.963 1.14-1.582 2.051-1.495l.153.02zM13.5 10H4c-.513 0-.936.386-.993.883L3 11v7c0 .513.386.936.883.993L4 19h9.5c.456-.607 1.182-1 2-1 .755 0 1.432.335 1.89.864l.11.136H19c.513 0 .936-.386.993-.883L20 18v-7c0-.513-.386-.936-.883-.993L19 10h-1.5c-.456.607-1.182 1-2 1-.755 0-1.432-.335-1.89-.864L13.5 10zm-4 6c.276 0 .5.224.5.5s-.224.5-.5.5h-4c-.276 0-.5-.224-.5-.5s.224-.5.5-.5h4zm6 0c.276 0 .5.224.5.5s-.224.5-.5.5-.5-.224-.5-.5.224-.5.5-.5zm-4-2c.276 0 .5.224.5.5s-.224.5-.5.5h-6c-.276 0-.5-.224-.5-.5s.224-.5.5-.5h6zm4 0c.276 0 .5.224.5.5s-.224.5-.5.5-.5-.224-.5-.5.224-.5.5-.5zm0-2c.276 0 .5.224.5.5s-.224.5-.5.5-.5-.224-.5-.5.224-.5.5-.5zm-4 0c.276 0 .5.224.5.5s-.224.5-.5.5h-6c-.276 0-.5-.224-.5-.5s.224-.5.5-.5h6zM5.532 4.68l-.037.11L4.367 9h9.632l.3.4c.283.376.722.6 1.201.6.425 0 .82-.177 1.1-.48l.1-.12.3-.4h2c.708 0 1.33.368 1.685.923l.265-.991c.133-.496-.109-.998-.546-1.175l-.104-.035-1.364-.365c-.572.475-1.333.678-2.077.479-.686-.184-1.215-.672-1.495-1.295l-.064-.158-8.637-2.315c-.43-.115-.876.106-1.084.508l-.047.104z"/>
    </defs>
    <g fill="none" fill-rule="evenodd">
        <g>
            <mask id="x2r32yp0kb" fill="#fff">
                <use xlink:href="#dbm1hlz1pa"/>
            </mask>
            <use fill="#464646" fill-rule="nonzero" xlink:href="#dbm1hlz1pa"/>
        </g>
    </g>
</svg>
