<svg xmlns="http://www.w3.org/2000/svg" width="73" height="52" viewBox="0 0 73 52">
    <g fill="none" fill-rule="evenodd">
        <g transform="rotate(18 10.639 46.738)">
            <path fill="#E6E6E6" stroke="#464646" d="M44.69 31.5a4.183 4.183 0 0 1 3.81-2.462c1.664 0 3.142.984 3.81 2.462h4.545a4.645 4.645 0 0 0 4.645-4.645V5.145A4.645 4.645 0 0 0 56.855.5H52.31a4.183 4.183 0 0 1-3.81 2.462A4.183 4.183 0 0 1 44.69.5H5.145A4.645 4.645 0 0 0 .5 5.145v21.71A4.645 4.645 0 0 0 5.145 31.5H44.69z"/>
            <text fill="#7175FF" font-family="Ubuntu-Regular, Ubuntu" font-size="14">
                <tspan x="12.093" y="21">ALL</tspan>
            </text>
            <rect width="1.227" height="4.308" x="47.273" y="7.385" fill="#7175FF" rx=".614"/>
            <rect width="1.227" height="4.308" x="47.273" y="13.846" fill="#7175FF" rx=".614"/>
            <rect width="1.227" height="4.308" x="47.273" y="20.308" fill="#7175FF" rx=".614"/>
        </g>
        <g transform="rotate(7 -71.587 36.993)">
            <path fill="#E6E6E6" stroke="#464646" d="M44.69 31.5a4.183 4.183 0 0 1 3.81-2.462c1.664 0 3.142.984 3.81 2.462h4.545a4.645 4.645 0 0 0 4.645-4.645V5.145A4.645 4.645 0 0 0 56.855.5H52.31a4.183 4.183 0 0 1-3.81 2.462A4.183 4.183 0 0 1 44.69.5H5.145A4.645 4.645 0 0 0 .5 5.145v21.71A4.645 4.645 0 0 0 5.145 31.5H44.69z"/>
            <rect width="1.227" height="4.308" x="47.273" y="7.385" fill="#464646" rx=".614"/>
            <rect width="1.227" height="4.308" x="47.273" y="13.846" fill="#464646" rx=".614"/>
            <rect width="1.227" height="4.308" x="47.273" y="20.308" fill="#464646" rx=".614"/>
        </g>
        <g transform="translate(7.075 27)">
            <rect width="35" height="25" fill="#FEFEFE" rx="4.5"/>
            <path fill="#464646" fill-rule="nonzero" d="M1.094 5h32.812v-.87c0-1.68-1.335-3.043-2.983-3.043H4.077c-1.648 0-2.983 1.363-2.983 3.043V5zm0 5v10.87c0 1.68 1.335 3.043 2.983 3.043h26.846c1.648 0 2.983-1.363 2.983-3.043V10H1.094zM4.375 0h26.25C33.041 0 35 1.975 35 4.412v16.176C35 23.025 33.041 25 30.625 25H4.375C1.959 25 0 23.025 0 20.588V4.412C0 1.975 1.959 0 4.375 0z"/>
            <rect width="10.667" height="1" x="4" y="13" fill="#464646" rx=".5"/>
            <path fill="#464646" fill-rule="nonzero" d="M28.5 20.93a1.983 1.983 0 0 1-1.5.688c-1.105 0-2-.909-2-2.03 0-1.12.895-2.03 2-2.03.597 0 1.134.267 1.5.688a1.983 1.983 0 0 1 1.5-.687c1.105 0 2 .908 2 2.03 0 1.12-.895 2.029-2 2.029a1.983 1.983 0 0 1-1.5-.687zm1.5-.342a1 1 0 1 0 0-2 1 1 0 0 0 0 2zm-3 0a1 1 0 1 0 0-2 1 1 0 0 0 0 2z"/>
        </g>
    </g>
</svg>
