<svg xmlns="http://www.w3.org/2000/svg" width="73" height="52" viewBox="0 0 73 52">
    <g fill="none" fill-rule="evenodd">
        <g transform="rotate(18 10.639 46.738)">
            <path fill="#E6E6E6" stroke="#464646" d="M44.69 31.5a4.183 4.183 0 0 1 3.81-2.462c1.664 0 3.142.984 3.81 2.462h4.545a4.645 4.645 0 0 0 4.645-4.645V5.145A4.645 4.645 0 0 0 56.855.5H52.31a4.183 4.183 0 0 1-3.81 2.462A4.183 4.183 0 0 1 44.69.5H5.145A4.645 4.645 0 0 0 .5 5.145v21.71A4.645 4.645 0 0 0 5.145 31.5H44.69z"/>
            <text fill="#7175FF" font-family="Ubuntu-Regular, Ubuntu" font-size="14">
                <tspan x="12.093" y="21">ALL</tspan>
            </text>
            <rect width="1.227" height="4.308" x="47.273" y="7.385" fill="#7175FF" rx=".614"/>
            <rect width="1.227" height="4.308" x="47.273" y="13.846" fill="#7175FF" rx=".614"/>
            <rect width="1.227" height="4.308" x="47.273" y="20.308" fill="#7175FF" rx=".614"/>
        </g>
        <g transform="rotate(7 -71.587 36.993)">
            <path fill="#E6E6E6" stroke="#464646" d="M44.69 31.5a4.183 4.183 0 0 1 3.81-2.462c1.664 0 3.142.984 3.81 2.462h4.545a4.645 4.645 0 0 0 4.645-4.645V5.145A4.645 4.645 0 0 0 56.855.5H52.31a4.183 4.183 0 0 1-3.81 2.462A4.183 4.183 0 0 1 44.69.5H5.145A4.645 4.645 0 0 0 .5 5.145v21.71A4.645 4.645 0 0 0 5.145 31.5H44.69z"/>
            <rect width="1.227" height="4.308" x="47.273" y="7.385" fill="#464646" rx=".614"/>
            <rect width="1.227" height="4.308" x="47.273" y="13.846" fill="#464646" rx=".614"/>
            <rect width="1.227" height="4.308" x="47.273" y="20.308" fill="#464646" rx=".614"/>
        </g>
        <g transform="translate(8 20)">
            <rect width="31" height="31" x=".5" y=".5" fill="#FEFEFE" stroke="#464646" rx="3"/>
            <path fill="#464646" d="M17 12.555c.264-.776.532-1.392.81-1.853 1.612-2.685 3.443-4.132 5.414-3.598 1.765.478 2.426 2.012 1.992 3.802-.346 1.422-1.357 2.928-2.612 3.904a9.096 9.096 0 0 1-.254.19H32v2H18.247c.31.729.918 1.57 1.84 2.508 1.377 1.4 2.805 2.072 4.322 2.072a1 1 0 1 1 0 2c-2.087 0-4.015-.907-5.747-2.67-.683-.694-1.239-1.368-1.662-2.024V32h-2V19.664c-.397.47-.856.947-1.377 1.43-2.393 2.219-5.061 2.97-7.89 2.184a1 1 0 1 1 .535-1.927c2.132.593 4.092.04 5.995-1.724 1.035-.96 1.747-1.837 2.157-2.627H0v-2h9.995a9.096 9.096 0 0 1-.253-.19c-1.256-.976-2.267-2.482-2.612-3.904-.435-1.79.227-3.324 1.992-3.802 1.97-.534 3.801.913 5.414 3.598.157.261.312.573.464.935V0h2v12.555zm-4.178-.823c-1.197-1.992-2.368-2.917-3.177-2.698-.596.161-.773.571-.572 1.4.236.97.989 2.092 1.896 2.797.904.702 1.85 1.099 2.857 1.199-.35-1.27-.69-2.176-1.004-2.698zm6.701 0c-.314.522-.653 1.428-1.004 2.698 1.008-.1 1.954-.497 2.857-1.2.907-.704 1.66-1.826 1.896-2.796.201-.829.025-1.239-.571-1.4-.81-.22-1.98.706-3.178 2.698z"/>
        </g>
    </g>
</svg>
