<svg xmlns="http://www.w3.org/2000/svg" xmlns:xlink="http://www.w3.org/1999/xlink" width="24" height="24" viewBox="0 0 24 24">
    <defs>
        <path id="h012r0abja" d="M12 2c5.523 0 10 4.477 10 10s-4.477 10-10 10S2 17.523 2 12 6.477 2 12 2zm0 1c-4.97 0-9 4.03-9 9s4.03 9 9 9 9-4.03 9-9-4.03-9-9-9zm3.5 4c.245 0 .45.178.492.412l.008.09v9.489c0 .111-.037.22-.105.308-.15.195-.416.248-.626.137l-.076-.049-2.88-2.358c-.157-.123-.369-.138-.54-.047l-.081.054-2.876 2.351c-.09.073-.201.113-.316.113-.245 0-.45-.178-.492-.412L8 16.998V7.502c0-.246.177-.451.41-.494L8.5 7h7zM15 8.005H9v7.935l2.06-1.683c.504-.411 1.207-.448 1.746-.107l.122.086L15 15.964v-7.96z"/>
    </defs>
    <g fill="none" fill-rule="evenodd">
        <g>
            <mask id="uyo8lrmr1b" fill="#fff">
                <use xlink:href="#h012r0abja"/>
            </mask>
            <use fill="#464646" fill-rule="nonzero" xlink:href="#h012r0abja"/>
        </g>
    </g>
</svg>
