<svg xmlns="http://www.w3.org/2000/svg" xmlns:xlink="http://www.w3.org/1999/xlink" width="24" height="24" viewBox="0 0 24 24">
    <defs>
        <path id="p1ff4fct9a" d="M14 4c2.21 0 4 1.79 4 4 0 1.398-.717 2.628-1.804 3.344 3.21 1.025 5.6 4.244 5.792 8.13.013.276-.2.511-.475.525-.276.013-.51-.2-.524-.475C20.779 15.301 17.703 12 14 12c-1.307 0-2.561.409-3.653 1.172-.226.159-.538.104-.696-.123-.158-.226-.103-.538.123-.696.633-.442 1.315-.782 2.03-1.01C10.717 10.627 10 9.397 10 8c0-2.21 1.79-4 4-4zm-8.5 7C7.433 11 9 12.567 9 14.5c0 .722-.219 1.393-.593 1.95l2.684 2.684c.195.195.195.512 0 .707-.195.195-.512.195-.707 0l-2.648-2.648C7.13 17.697 6.35 18 5.5 18 3.567 18 2 16.433 2 14.5S3.567 11 5.5 11zm0 1C4.12 12 3 13.12 3 14.5S4.12 17 5.5 17 8 15.88 8 14.5 6.88 12 5.5 12zM14 5c-1.657 0-3 1.343-3 3s1.343 3 3 3 3-1.343 3-3-1.343-3-3-3z"/>
    </defs>
    <g fill="none" fill-rule="evenodd">
        <g>
            <mask id="njcc2cnkmb" fill="#fff">
                <use xlink:href="#p1ff4fct9a"/>
            </mask>
            <use fill="#979797" fill-rule="nonzero" xlink:href="#p1ff4fct9a"/>
            <g mask="url(#njcc2cnkmb)">
                <path fill="#656565" d="M0 0H24V24H0z"/>
                <path fill="#464646" d="M0 0H24V24H0z"/>
            </g>
        </g>
    </g>
</svg>
