<svg xmlns="http://www.w3.org/2000/svg" width="62" height="51" viewBox="0 0 62 51">
    <g fill="none" fill-rule="evenodd">
        <path fill="#E6E6E6" stroke="#D1D1D1" d="M3.321.5A2.821 2.821 0 0 0 .5 3.321V47.68A2.821 2.821 0 0 0 3.321 50.5H58.68a2.821 2.821 0 0 0 2.821-2.821V9.684a2.821 2.821 0 0 0-2.821-2.822H26.32a3.821 3.821 0 0 1-3.018-1.477L20.357 1.59A2.821 2.821 0 0 0 18.129.5H3.32z"/>
        <rect width="61" height="37.804" x=".5" y="12.696" fill="#E6E6E6" stroke="#D1D1D1" rx="3.321"/>
        <g fill="#F5F5F5">
            <path d="M16.346 23.446c.39-.118.82-.254 1.292-.408.47-.153.999-.293 1.584-.423.586-.13 1.24-.235 1.962-.318a21.977 21.977 0 0 1 2.464-.123c2.708 0 4.569.8 5.58 2.403 1.01 1.601 1.18 3.793.515 6.573l-2.342 10.035H22.27l2.273-9.824c.137-.611.246-1.207.327-1.784.08-.577.074-1.084-.018-1.52a1.807 1.807 0 0 0-.636-1.06c-.334-.271-.845-.407-1.533-.407-.667 0-1.344.072-2.032.212l-3.34 14.383h-5.132l4.167-17.739zM49.56 22.597l-2.445 10.567a12.06 12.06 0 0 0-.277 4.046c.138 1.355.403 2.563.794 3.622l-4.581.671a17.26 17.26 0 0 1-.723-1.73 9.589 9.589 0 0 1-2.17 1.307c-.804.353-1.7.53-2.686.53-1.356 0-2.452-.253-3.29-.76-.838-.505-1.464-1.178-1.877-2.014-.413-.836-.637-1.797-.672-2.88a12.343 12.343 0 0 1 .362-3.323l2.342-10.036h5.132l-2.308 9.965c-.115.52-.212 1.05-.292 1.59a5.1 5.1 0 0 0-.018 1.503c.07.46.247.836.534 1.13.287.297.741.443 1.361.443.528 0 1.016-.1 1.463-.3.448-.201.924-.549 1.43-1.043.045-.589.12-1.207.224-1.855.103-.648.212-1.243.327-1.784l2.238-9.649h5.132z"/>
        </g>
    </g>
</svg>
