<svg xmlns="http://www.w3.org/2000/svg" xmlns:xlink="http://www.w3.org/1999/xlink" width="56" height="56" viewBox="0 0 56 56">
    <defs>
        <circle id="prefix__a" cx="28" cy="28" r="28"/>
    </defs>
    <g fill="none" fill-rule="evenodd">
        <mask id="prefix__b" fill="#fff">
            <use xlink:href="#prefix__a"/>
        </mask>
        <use fill="#E9F2FF" xlink:href="#prefix__a"/>
        <g mask="url(#prefix__b)">
            <g transform="translate(7 4)">
                <path fill="#FFDACB" fill-rule="nonzero" d="M41 47.11c-12.102 9.253-28.981 9.18-41-.18l8.809-4.1c.42-.197.822-.426 1.204-.688.116-.079.232-.161.342-.248.959-.728 1.748-1.654 2.314-2.713.427-.813.711-1.694.84-2.603.088-.59.133-1.185.134-1.781 0-1.029-.057-2.057-.067-3.087-.008-.57-.014-1.14-.019-1.71l.363.18.94.483.437.074 5.047.852 5.634.953.17 5.753.056 1.88.027.914v.056l2.19.884L41 47.11z"/>
                <path fill="#F1BEA9" fill-rule="nonzero" d="M25.993 40.955c-.589.114-1.195.009-1.726-.3l-10.222-9.407c-.012-.435-.023.022-.028-.414-.007-.61-.012-1.222-.017-1.834l.343.193.891.519.413.079 4.779.914 5.334 1.022.161 6.17.053 2.017.026.98v.063l-.007-.002z"/>
                <path fill="#098FFF" fill-rule="nonzero" d="M41 46.6c-12.102 9.938-28.981 9.858-41-.192l8.809-4.404c.42-.21.822-.457 1.204-.738.116-.085.232-.173.342-.266 4.263 3.236 10.082 5.276 15.114 2.861 1.199-.579 2.3-1.513 2.951-2.714L41 46.6z"/>
                <path fill="#44312E" fill-rule="nonzero" d="M36.946 10.105c-.017.11-.037.219-.06.327-.127.556-.33 1.09-.602 1.587l-.015.026c-.103.187-.214.374-.334.561-.318.48-.666.94-1.04 1.374l-.223.256c-.151.174-.304.344-.457.513.116-.026.234-.033.351-.02.044.003.087.01.13.022.58.123 1.075.678 1.23 1.308.009.041.018.084.025.125.144.838-.181 1.683-.583 2.43-.704 1.324-1.718 2.205-2.61 3.355-.67.856-1.04 1.869-1.769 2.688l-.054.061-.044.045c-1.927 2.042-4.938 2.526-7.452 3.408-.909.322-10.764 3.2-10.764 3.829 0-.136-.965-1.122-2.18-2.32-4.363-4.26-5.797-10.843-3.202-16.489 2.79-6.075 9.126-10.41 15.16-12.493C24.342.048 26.483-.39 28.27.51c1.789.901 2.68 3.696 1.196 5.06.933-.725 2.093-1.072 3.26-.973 1.076.069 2.091.539 2.856 1.321.428.44.772.96 1.015 1.53.1.236.183.48.249.729.163.628.197 1.284.1 1.927z"/>
                <path fill="#5C4340" fill-rule="nonzero" d="M37.948 10.058c-.017.104-.038.208-.062.31-.131.53-.342 1.038-.626 1.51l-.015.025c-.108.178-.224.356-.348.534-.332.456-.693.893-1.082 1.307l-.233.243c-.157.166-.316.327-.475.487.12-.024.243-.03.365-.02.046.004.09.012.135.022.603.118 1.12.646 1.28 1.245.01.04.02.08.027.12.15.796-.19 1.6-.608 2.31-.732 1.26-1.787 2.097-2.716 3.19-.696.815-1.082 1.779-1.84 2.558l-.057.058-.045.043c-.76-.962-1.246-2.092-1.408-3.28-.323-2.462-.126-5.143-.215-7.634-.03-.87-.085-1.906.212-2.731.08-.205.19-.398.323-.577.348-.527.745-1.025 1.186-1.488.5-.5 1.132-.868 1.831-1.067.378-.1.765-.167 1.156-.199.418-.038.84-.03 1.256.023.555.075 1.092.241 1.585.493.104.225.19.456.259.693.173.594.212 1.216.115 1.825z"/>
                <circle cx="11" cy="24" r="3" fill="#FFDACB" fill-rule="nonzero"/>
                <circle cx="12" cy="24" r="3" fill="#F1BEA9" fill-rule="nonzero"/>
                <path fill="#FFDACB" fill-rule="nonzero" d="M13 22.153l.78 10.48 11.767 7.137c1.687.654 3.576-.127 4.368-1.806 1.694-3.6 4.41-9.283 4.053-11.399-.531-3.125-1.948-4.228-1.948-4.228l.59-3.667c.22-1.38.506-2.822.177-4.21-.378-1.59-1.536-2.27-2.49-3.46-2.507 3.354-6.63 5.25-10.232 7.17-1.858 1-7.065 3.983-7.065 3.983z"/>
                <path stroke="#44312E" stroke-width=".5" d="M26.766 20c-.013.064 2.234 6.834 2.234 6.834L26 27M19 19.153c1.646-.351 3.338-.4 5-.145M29 19.131c.983-.242 1.995-.317 3-.222"/>
                <path fill="#FFF" fill-rule="nonzero" d="M22.046 29.181c.056-.091.146-.155.249-.174.102-.02.208.005.292.07.419.305 1.185.953 2.274 1.177 1.483.307 2.77-.31 3.078.088.173.224-.038.498-.443.836-.858.666-1.938.945-2.996.772-1.428-.278-2.5-1.993-2.5-2.602.002-.059.018-.116.046-.167z"/>
                <path fill="#44312E" fill-rule="nonzero" d="M22.03 21c1.293.01 1.293 1.99 0 2h-.06c-1.293-.01-1.293-1.99 0-2h.06zM31.03 21c1.294 0 1.294 1.99 0 2h-.058c-1.296 0-1.296-1.99 0-2h.057z"/>
            </g>
        </g>
    </g>
</svg>
