<svg xmlns="http://www.w3.org/2000/svg" xmlns:xlink="http://www.w3.org/1999/xlink" width="56" height="56" viewBox="0 0 56 56">
    <defs>
        <linearGradient id="prefix__c" x1="-.038%" x2="100.001%" y1="50.006%" y2="50.006%">
            <stop offset="0%" stop-color="#16243F"/>
            <stop offset="100%" stop-color="#6878B1"/>
        </linearGradient>
        <linearGradient id="prefix__d" x1="38.907%" x2="57.916%" y1="2.89%" y2="87.408%">
            <stop offset="0%" stop-color="#16243F"/>
            <stop offset="100%" stop-color="#6878B1"/>
        </linearGradient>
        <circle id="prefix__a" cx="28" cy="28" r="28"/>
    </defs>
    <g fill="none" fill-rule="evenodd">
        <mask id="prefix__b" fill="#fff">
            <use xlink:href="#prefix__a"/>
        </mask>
        <use fill="#EEEFFD" xlink:href="#prefix__a"/>
        <g mask="url(#prefix__b)">
            <g transform="translate(5 6)">
                <path fill="#F2C4B1" fill-rule="nonzero" d="M43 44.823c-12.692 9.639-30.395 9.562-43-.188l9.239-4.271c.44-.204.862-.444 1.262-.716.122-.082.243-.168.36-.258 1.005-.759 1.832-1.723 2.426-2.826.448-.848.746-1.765.88-2.712.093-.614.14-1.234.141-1.856 0-1.07-.059-2.142-.07-3.215-.008-.594-.014-1.188-.02-1.781l.38.187.988.504.457.077 5.294.887 5.908.993.179 5.993.059 1.959.028.95v.063l2.297.921L43 44.823z"/>
                <path fill="#E2A085" fill-rule="nonzero" d="M26.998 37.955c-.638.114-1.295.009-1.87-.3l-11.08-9.407c-.013-.435-.024.022-.03-.414L14 26l.371.193.966.519.447.079 5.177.914 5.779 1.022.175 6.17.057 2.017.028.98v.063l-.002-.002z"/>
                <path fill="url(#prefix__c)" fill-rule="nonzero" d="M32.717 21.612c-.291.309-.61.589-.954.837-1.951 1.429-4.555 1.897-6.78 2.667-.938.325-11.11 3.248-11.11 3.884 0-.138-.996-1.138-2.25-2.352-4.33-4.193-5.772-10.59-3.67-16.267C10 4.942 16.524 1.193 21.989.326c2.602-.412 5.69-.641 8.093.62 1.228.647 2.25 1.59 3.189 2.636.292.33.576.667.852 1.01.118.145.234.29.348.435 4.272 5.426 2.758 11.791-1.754 16.585z"/>
                <path fill="url(#prefix__d)" fill-rule="nonzero" d="M32.976 22.157c-.275.31-.575.593-.898.843-.075-.142-.143-.29-.202-.44-.466-1.148-.706-2.393-.882-3.634-.274-1.806-.462-3.627-.562-5.455-.16-2.934-1.315-4.39.982-6.677.826-.822 1.81-1.435 2.882-1.794.111.145.22.29.328.438 4.014 5.468 2.591 11.885-1.648 16.719z"/>
                <circle cx="12" cy="21" r="3" fill="#F2C4B1" fill-rule="nonzero"/>
                <circle cx="13" cy="21" r="3" fill="#E2A085" fill-rule="nonzero"/>
                <path fill="#F2C4B1" fill-rule="nonzero" d="M14.235 18.518c.154 2.064.148 4.585.202 5.322.14 1.849.278 3.697.415 5.545l12.306 7.377c1.766.677 3.744-.133 4.57-1.873 1.771-3.721 4.613-9.599 4.238-11.784-.555-3.232-2.037-4.372-2.037-4.372l.617-3.79c.624-3.853-.663-7.5-5.05-7.923-.925-.087-1.957.093-2.507.852-1.482 2.045-.628 4.562-2.852 6.462-2.7 2.287-8.726 3.285-10.137 1.44 0 0 .13 1.305.235 2.744z"/>
                <path stroke="#00214E" stroke-width=".5" d="M23 26c.777 1.107 1.843 1.818 3 2M27.766 17c-.013.066 2.234 6.835 2.234 6.835L27 24M20 16.157c1.645-.36 3.338-.411 5-.15M31 16.135c.983-.25 1.995-.328 3-.228"/>
                <path fill="#00214E" fill-rule="nonzero" d="M43 44.881c-12.692 9.56-30.395 9.484-43-.186l9.239-4.237c.44-.202.862-.44 1.262-.71.122-.08.243-.166.36-.255 1.005-.753 1.832-1.71 2.426-2.803.448-.841.746-1.75.88-2.69.135.127.275.247.422.36 1.164.843 2.428 1.545 3.763 2.092.648.264 1.311.493 1.986.685 2.032.58 4.154.8 6.265.649.293-.023.587-.05.88-.071l.028.944v.06l2.297.915L43 44.88zM22.03 18c1.293 0 1.293 1.99 0 2h-.059c-1.295 0-1.295-1.99 0-2H22.03zM32.03 18c1.293.011 1.293 1.989 0 2h-.06c-1.293 0-1.293-1.989 0-2h.06z"/>
            </g>
        </g>
    </g>
</svg>
