<svg xmlns="http://www.w3.org/2000/svg" xmlns:xlink="http://www.w3.org/1999/xlink" width="56" height="56" viewBox="0 0 56 56">
    <defs>
        <circle id="prefix__a" cx="28" cy="28" r="28"/>
    </defs>
    <g fill="none" fill-rule="evenodd">
        <mask id="prefix__b" fill="#fff">
            <use xlink:href="#prefix__a"/>
        </mask>
        <use fill="#F5F5F5" xlink:href="#prefix__a"/>
        <g mask="url(#prefix__b)">
            <g transform="translate(7 3)">
                <path fill="#442723" fill-rule="nonzero" d="M39.507 17.58c0 1.496-1.678 2.75-2.044 4.13-.377 1.428.441 3.357-.276 4.607-.716 1.25-2.804 1.52-3.824 2.54s-1.266 3.12-2.524 3.853c-1.258.734-3.155-.102-4.571.28-1.37.368-2.614 2.06-4.1 2.06-1.487 0-2.73-1.692-4.099-2.06-1.416-.38-3.332.444-4.571-.28-1.24-.724-1.509-2.823-2.524-3.853-1.014-1.03-3.096-1.273-3.824-2.54-.728-1.267.102-3.179-.276-4.608-.366-1.379-2.044-2.633-2.044-4.128 0-1.496 1.678-2.75 2.044-4.129.378-1.429-.441-3.357.276-4.607.716-1.25 2.804-1.52 3.824-2.54 1.02-1.021 1.264-3.12 2.524-3.854 1.26-.733 3.155.103 4.571-.28 1.37-.368 2.614-2.059 4.099-2.059 1.484 0 2.73 1.691 4.1 2.06 1.416.38 3.33-.445 4.571.279 1.241.724 1.51 2.823 2.524 3.853 1.014 1.03 3.096 1.273 3.824 2.54.728 1.268-.103 3.18.276 4.608.366 1.38 2.044 2.633 2.044 4.129z"/>
                <ellipse cx="12.413" cy="26.267" fill="#FFDACB" fill-rule="nonzero" rx="3.206" ry="3.23"/>
                <ellipse cx="13.519" cy="26.078" fill="#F1BEA9" fill-rule="nonzero" rx="3.018" ry="3.04"/>
                <path fill="#FFDACB" fill-rule="nonzero" d="M42.889 49.672c-12.608 9.78-30.193 9.701-42.714-.19l9.177-4.334c.438-.207.857-.45 1.255-.726.12-.084.241-.171.356-.262.999-.77 1.821-1.748 2.41-2.867.755-1.435 1.004-3.02 1.015-4.634 0-1.087-.058-2.174-.07-3.263-.007-.601-.014-1.204-.019-1.807l.378.19.977.521.454.078 5.258.9 5.87 1.008.177 6.08.086 2.952v.063l2.282.935 13.108 5.356z"/>
                <path fill="#F1BEA9" fill-rule="nonzero" d="M27.477 42.632l-.29.03c-2.84.251-5.643-.766-7.671-2.783l-5.164-6.177c-.017-.55-.038 0-.043-.553-.008-.601-.014-1.204-.019-1.807l.377.19.98.512.455.077 5.258.901 5.87 1.007.177 6.08.07 2.523z"/>
                <path fill="#FFDACB" fill-rule="nonzero" d="M13.377 19.694c-.149.19-.28.56-.422 1.16-.327 1.393 1.103 10.538 1.376 13.228l6.87 5.104c2.282 1.717 5.198 2.338 7.975 1.698 1.107-.264 1.809-.435 2.308-1.33.966-1.71 3.337-7.56 3.491-11.687.044-1.17.015-2.956-.701-3.956-.35-.484-.528-.494-.402-1.18.126-.685.317-1.419.473-2.13.432-1.962.777-4.18.153-6.132-.332-1.045-.918-1.737-1.752-2.408-.89-.718-1.258-.684-1.792.38-.36.722-.722 1.33-1.452 1.74-1.058.592-1.778.208-2.829.126-.92-.07-.822.646-1.024 1.33-.209.718-.66 1.34-1.277 1.758-1.145.748-2.618.756-3.772.02-.156-.113-.345-.172-.537-.169-.63.035-.658.796-.802 1.344-.303 1.14-1.625 1.77-2.8 1.68-1.916-.145-2.6-1.22-3.084-.576z"/>
                <path stroke="#442723" stroke-width=".5" d="M28.514 23.093c.052.738.178 1.469.377 2.18.189.63.475 1.021.853 1.563.13.178.243.37.337.57.498 1.128-.164 2.38-1.424 2.38h-.779M23.039 31.648c.907 1.02 2.149 1.673 3.497 1.841M19.518 20.98c1.746-.363 3.542-.414 5.305-.15M30.654 21c1.079-.253 2.19-.33 3.293-.23"/>
                <path fill="#000" fill-rule="nonzero" d="M42.889 49.672c-12.608 9.78-30.193 9.701-42.714-.19l9.177-4.334c.438-.207.857-.45 1.255-.726.12-.084.241-.171.356-.262 4.442 3.184 10.503 5.193 15.746 2.816 1.249-.57 2.395-1.49 3.074-2.672l13.106 5.368z"/>
                <path stroke="#442723" stroke-width=".5" d="M25.364 28.449c-.279.147-.41.476-.312.777.099.301.4.486.71.437"/>
                <path fill="#442723" fill-rule="nonzero" d="M22.286 22.787c1.153 0 1.153 1.782 0 1.791h-.05c-1.15-.01-1.15-1.782 0-1.791h.05zM31.767 22.661c1.068 0 1.068 1.653 0 1.663h-.049c-1.067-.01-1.067-1.653 0-1.663h.05z"/>
            </g>
        </g>
    </g>
</svg>
