<svg xmlns="http://www.w3.org/2000/svg" xmlns:xlink="http://www.w3.org/1999/xlink" width="56" height="56" viewBox="0 0 56 56">
    <defs>
        <circle id="prefix__a" cx="28" cy="28" r="28"/>
    </defs>
    <g fill="none" fill-rule="evenodd">
        <mask id="prefix__b" fill="#fff">
            <use xlink:href="#prefix__a"/>
        </mask>
        <use fill="#FFEDEB" xlink:href="#prefix__a"/>
        <g mask="url(#prefix__b)">
            <g transform="translate(6 4)">
                <path fill="#333" fill-rule="nonzero" d="M8.645 21.95c-2.04-4.239-1.769-9.388.535-13.466 3.335-5.9 10.797-8.701 17.285-8.352 1.277.068 2.669.314 3.502 1.29.26.305.474.685.843.835.258.08.529.104.796.069 1.2-.055 2.447.122 3.468.762 1.021.641 1.77 1.798 1.686 3.003-.024.351-.111.723.036 1.04.123.264.38.432.595.636.568.555.758 1.42.667 2.215-.29 2.631-1.036 5.352-2.423 7.626-.854 1.415-1.923 2.688-3.167 3.771-1.228 1.064-2.753 1.565-3.813 2.787-1.108 1.276-.968 3.005-2.056 4.385-1.153 1.468-2.841 2.414-4.627 2.877-2 .523-5.926.715-7.714-.484-.542-.364-.928-.915-1.294-1.458-1.616-2.406-3.06-4.924-4.319-7.537z"/>
                <path fill="#F2C4B1" fill-rule="nonzero" d="M42.932 45.504c-12.663 9.813-30.325 9.734-42.902-.19l9.218-4.35c.44-.21.86-.457 1.26-.737.12-.084.242-.172.358-.263 1.003-.773 1.828-1.754 2.42-2.877.448-.863.745-1.797.88-2.76.092-.626.139-1.258.14-1.89 0-1.09-.06-2.181-.07-3.274-.008-.603-.014-1.208-.02-1.813l.38.19.984.514.457.078 5.281.904 5.895 1.01.178 6.1.059 1.995.028.968v.063l2.292.938 13.162 5.394z"/>
                <path fill="#DE8276" fill-rule="nonzero" d="M42.932 45.504c-12.663 9.813-30.325 9.734-42.902-.19l9.218-4.35c.44-.21.86-.457 1.26-.737.12-.084.242-.172.358-.263 4.46 3.195 10.549 5.21 15.815 2.825 1.254-.572 2.406-1.495 3.088-2.68l13.163 5.395z"/>
                <path fill="#E2A085" fill-rule="nonzero" d="M27.467 39.115c-1.98.12-4.192-.394-6.251-1.59-3.866-2.248-5.933-6.167-5.19-9.382l5.28.904 5.896 1.01.178 6.101.087 2.957z"/>
                <ellipse cx="12.353" cy="22.02" fill="#F2C4B1" fill-rule="nonzero" rx="3.22" ry="3.241"/>
                <ellipse cx="13.374" cy="22.02" fill="#E2A085" fill-rule="nonzero" rx="2.883" ry="2.902"/>
                <path fill="#F2C4B1" fill-rule="nonzero" d="M13.417 18.96l.44 5.754.286 3.761c.106 1.384.642 2.214 1.538 3.321 1.59 1.964 3.616 3.526 5.914 4.56 2.195.986 5.243 1.966 7.588 1.01 2.396-.977 3.162-3.684 3.967-5.93.805-2.246 1.555-4.717 1.515-7.142-.05-3.29-.917-5.134-.917-5.134l.63-3.801c.236-1.432.541-2.929.189-4.366-.404-1.651-1.643-2.355-2.652-3.59-2.683 3.477-7.092 5.443-10.944 7.435-1.985 1.037-7.554 4.122-7.554 4.122z"/>
                <path stroke="#333" stroke-width=".5" d="M27.899 19.89c-.012.046 1.05 3.028 1.691 4.827.108.308.06.65-.129.915-.188.266-.494.422-.818.42h-.687M25.311 24.897c-.256.149-.364.464-.254.74.11.276.405.43.692.36M18.816 17.683c1.753-.366 3.557-.418 5.328-.153M30.674 17.5c1.083-.252 2.198-.33 3.305-.231"/>
                <path fill="#FFF" fill-rule="nonzero" d="M22.773 28.435c.052-.084.136-.142.233-.161.096-.018.196.005.275.064.394.28 1.113.87 2.136 1.075 1.395.278 2.605-.282 2.893.08.163.204-.036.452-.417.772-.806.606-1.82.859-2.815.702-1.34-.252-2.347-1.817-2.347-2.37 0-.057.014-.113.042-.162z"/>
                <path fill="#333" fill-rule="nonzero" d="M22.258 19.324c1.157-.013 1.191 1.765.036 1.796h-.053c-1.156.013-1.19-1.765-.034-1.796h.05zM31.775 19.011c1.074-.011 1.104 1.638.032 1.669h-.048c-1.072.013-1.104-1.638-.032-1.667h.048v-.002z"/>
            </g>
        </g>
    </g>
</svg>
