<svg xmlns="http://www.w3.org/2000/svg" xmlns:xlink="http://www.w3.org/1999/xlink" width="56" height="56" viewBox="0 0 56 56">
    <defs>
        <circle id="prefix__a" cx="28" cy="28" r="28"/>
    </defs>
    <g fill="none" fill-rule="evenodd">
        <mask id="prefix__b" fill="#fff">
            <use xlink:href="#prefix__a"/>
        </mask>
        <use fill="#FFE9CA" xlink:href="#prefix__a"/>
        <g mask="url(#prefix__b)">
            <g transform="translate(7 6)">
                <path fill="#00214E" fill-rule="nonzero" d="M10.007 23.837c-.111-.264-.219-.532-.319-.802-2.452-6.524-1.46-14.498 4.189-19.025C15.435 2.76 16.874 1.7 18.73.898c.578-.25 1.228-.487 1.82-.274.593.213.923 1.107.419 1.483C22.144 1.28 23.452.663 24.836.283c.826-.225 1.735-.358 2.52-.013.784.345 1.331 1.331.943 2.093 1.131-.413 2.348-.767 3.523-.513 1.77.378 3.153 3.018 3.913 4.527 1.067 2.172 1.623 4.559 1.626 6.979.02 2.006-.532 3.972-1.132 5.884-.84 2.68-1.833 5.4-3.7 7.5-1.905 2.118-4.05 2.708-6.769 2.872-1.584.096-3.164.253-4.745.392-.801.072-1.605.144-2.408.189-.717.043-1.371.407-2.093.504-.617.104-1.25.001-1.802-.293-.405-.269-.76-.606-1.05-.996-.759-.866-1.47-1.772-2.13-2.716-.596-.902-1.107-1.858-1.525-2.855z"/>
                <circle cx="12.413" cy="22.356" r="3.206" fill="#F2C4B1" fill-rule="nonzero"/>
                <circle cx="13.519" cy="22.168" r="3.018" fill="#E2A085" fill-rule="nonzero"/>
                <path fill="#F2C4B1" fill-rule="nonzero" d="M42.889 45.59C30.28 55.297 12.696 55.22.175 45.4L9.352 41.1c.438-.206.857-.447 1.255-.72.12-.084.241-.17.356-.261.999-.764 1.821-1.735 2.41-2.846.755-1.424 1.004-2.997 1.015-4.6 0-.329 0-.659-.011-.987-.017-.755-.051-1.509-.059-2.252-.007-.597-.014-1.195-.019-1.794l.378.189.98.507.455.078 5.258.894 5.869 1 .177 6.035.068 2.303.019.628v.062l2.282.928 13.104 5.326z"/>
                <path fill="#E2A085" fill-rule="nonzero" d="M27.486 38.68l-.29.03c-2.839.25-5.643-.76-7.67-2.762l-5.164-6.019c-.017-.547-.038-.113-.044-.662-.007-.597-.014-1.195-.019-1.794l.378.189.98.507.455.078 5.258.894 5.869 1 .177 6.035.07 2.505z"/>
                <path fill="#F2C4B1" fill-rule="nonzero" d="M16.38 16.185c-.164.997-.227 2.008-.189 3.018-.17-.036-3.287-.868-3.265-.608.164 1.954 1.204 9.576 1.402 11.506l6.868 5.066c2.283 1.705 5.199 2.322 7.976 1.686 1.107-.26 1.809-.432 2.309-1.32.965-1.698 3.336-7.505 3.49-11.602.044-1.164.016-2.937-.701-3.927-.349-.48-.528-.492-.402-1.171.13-.71.317-1.409.474-2.114.377-1.71.518-3.294.141-5.044-.258-1.194-1.409-3.342-1.409-3.342-.153.87-1.509 2.178-2.804 2.44-2.986.604-5.419-.728-8.299-.873-1.212-.062-2.49.223-3.394 1.03-.694.617-1.115 1.483-1.44 2.354-.347.94-.6 1.911-.757 2.9z"/>
                <path stroke="#00214E" stroke-width=".5" d="M28.514 19.203c.05.733.177 1.46.377 2.167.189.624.473 1.01.853 1.548.129.179.242.368.337.566.498 1.12-.164 2.363-1.424 2.363h-.779M23.039 27.696c.906 1.012 2.148 1.661 3.497 1.827M19.518 17.107c1.746-.362 3.542-.413 5.305-.15M30.654 17.128c1.079-.251 2.19-.329 3.293-.23"/>
                <path fill="#FF9A09" fill-rule="nonzero" d="M42.889 45.59C30.28 55.297 12.696 55.22.175 45.4L9.352 41.1c.438-.206.857-.447 1.255-.72.12-.084.241-.17.356-.261 4.442 3.16 10.503 5.155 15.746 2.795 1.249-.566 2.395-1.479 3.074-2.652L42.89 45.59z"/>
                <path stroke="#00214E" stroke-width=".5" d="M25.364 24.52c-.281.144-.416.472-.316.772.099.3.402.483.714.43"/>
                <path fill="#00214E" fill-rule="nonzero" d="M22.443 18.546c1.15 0 1.15 1.77 0 1.779h-.053c-1.15 0-1.15-1.77 0-1.779h.053zM31.92 18.546c1.067 0 1.067 1.643 0 1.65h-.047c-1.068 0-1.068-1.64 0-1.65h.049-.002z"/>
            </g>
        </g>
    </g>
</svg>
