<svg xmlns="http://www.w3.org/2000/svg" xmlns:xlink="http://www.w3.org/1999/xlink" width="24" height="24" viewBox="0 0 24 24">
    <defs>
        <path id="f9ioijn6za" d="M12 20c4.418 0 8-3.582 8-8s-3.582-8-8-8-8 3.582-8 8 3.582 8 8 8zm0 1c-4.97 0-9-4.03-9-9s4.03-9 9-9 9 4.03 9 9-4.03 9-9 9zm4.265-12.311c.172-.216.486-.252.702-.08.216.171.252.486.08.702l-5.608 7.055c-.194.243-.56.253-.766.02L7.089 12.33c-.183-.207-.164-.523.043-.706.207-.183.523-.163.706.044l3.19 3.608 5.237-6.588z"/>
    </defs>
    <g fill="none" fill-rule="evenodd">
        <path fill="none" d="M0 0H1920V868H0z" transform="translate(-180 -536)"/>
        <g transform="translate(-180 -536) translate(180 536)">
            <mask id="4jkfpa5izb" fill="#fff">
                <use xlink:href="#f9ioijn6za"/>
            </mask>
            <use fill="#656565" fill-rule="nonzero" xlink:href="#f9ioijn6za"/>
            <g fill="#656565" mask="url(#4jkfpa5izb)">
                <path d="M0 0H24V24H0z"/>
                <path d="M0 0H24V24H0z"/>
            </g>
        </g>
    </g>
</svg>
