<svg xmlns="http://www.w3.org/2000/svg" xmlns:xlink="http://www.w3.org/1999/xlink" width="18" height="18" viewBox="0 0 18 18">
    <defs>
        <path id="kij2ujs2ia" d="M9 0c4.97 0 9 4.03 9 9s-4.03 9-9 9-9-4.03-9-9 4.03-9 9-9zm0 1C4.582 1 1 4.582 1 9s3.582 8 8 8 8-3.582 8-8-3.582-8-8-8zm0 2.5c.276 0 .5.224.5.5v4.5h3.063c.276 0 .5.224.5.5s-.224.5-.5.5H9c-.276 0-.5-.224-.5-.5V4c0-.276.224-.5.5-.5z"/>
    </defs>
    <g fill="none" fill-rule="evenodd">
        <g>
            <g>
                <g>
                    <g transform="translate(-748 -295) translate(616 96) translate(16 184) translate(116 15)">
                        <mask id="v0wbfq6nbb" fill="#fff">
                            <use xlink:href="#kij2ujs2ia"/>
                        </mask>
                        <use fill="#656565" fill-rule="nonzero" xlink:href="#kij2ujs2ia"/>
                        <g mask="url(#v0wbfq6nbb)">
                            <g>
                                <path fill="#FEFEFE" d="M0 0H18V18H0z"/>
                                <path fill="#656565" d="M0 0H18V18H0z"/>
                            </g>
                        </g>
                    </g>
                </g>
            </g>
        </g>
    </g>
</svg>
