<svg xmlns="http://www.w3.org/2000/svg" xmlns:xlink="http://www.w3.org/1999/xlink" width="24" height="24" viewBox="0 0 24 24">
    <defs>
        <path id="mm5iazkbla" d="M16.5 3c.276 0 .5.224.5.5V5h3c1.054 0 1.918.816 1.995 1.85L22 7v11c0 1.054-.816 1.918-1.85 1.995L20 20H4c-1.054 0-1.918-.816-1.995-1.85L2 18V7c0-1.054.816-1.918 1.85-1.995L4 5h3V3.5c0-.276.224-.5.5-.5s.5.224.5.5V5h8V3.5c0-.276.224-.5.5-.5zm4.5 7H3v8c0 .513.386.936.883.993L4 19h16c.513 0 .936-.386.993-.883L21 18v-8zM7 6H4c-.513 0-.936.386-.993.883L3 7v2h18V7c0-.513-.386-.936-.883-.993L20 6h-3v1.5c0 .276-.224.5-.5.5s-.5-.224-.5-.5V6H8v1.5c0 .276-.224.5-.5.5S7 7.776 7 7.5V6z"/>
    </defs>
    <g fill="none" fill-rule="evenodd">
        <g>
            <mask id="esebmsxlcb" fill="#fff">
                <use xlink:href="#mm5iazkbla"/>
            </mask>
            <use fill="#2581FF" fill-rule="nonzero" xlink:href="#mm5iazkbla"/>
        </g>
    </g>
</svg>
