<svg xmlns="http://www.w3.org/2000/svg" xmlns:xlink="http://www.w3.org/1999/xlink" width="160" height="160" viewBox="0 0 160 160">
    <defs>
        <path id="witb25hrpc" d="M0 0L26.161 0 26.161 24.296 0 24.296z"/>
        <path id="3xaa4cqrle" d="M0 0L40 0 40 28.749 0 28.749z"/>
        <linearGradient id="9hocagnk0a" x1="50%" x2="50%" y1="0%" y2="113.01%">
            <stop offset="0%" stop-color="#898E9B"/>
            <stop offset="100%" stop-color="#A5ABBA"/>
        </linearGradient>
        <filter id="lhowygsa5b" width="167.5%" height="154%" x="-33.8%" y="-27%" filterUnits="objectBoundingBox">
            <feOffset dy="2" in="SourceAlpha" result="shadowOffsetOuter1"/>
            <feGaussianBlur in="shadowOffsetOuter1" result="shadowBlurOuter1" stdDeviation="2.5"/>
            <feColorMatrix in="shadowBlurOuter1" result="shadowMatrixOuter1" values="0 0 0 0 0 0 0 0 0 0 0 0 0 0 0 0 0 0 0.1 0"/>
            <feMerge>
                <feMergeNode in="shadowMatrixOuter1"/>
                <feMergeNode in="SourceGraphic"/>
            </feMerge>
        </filter>
    </defs>
    <g fill="none" fill-rule="evenodd">
        <g>
            <g transform="translate(-988.000000, -244.000000) translate(988.000000, 244.000000)">
                <circle cx="80" cy="80" r="80" fill="#F4F5F7"/>
                <g>
                    <path fill="url(#9hocagnk0a)" d="M1 0h74c.552 0 1 .448 1 1v92c0 .552-.448 1-1 1H14.813l-6.426-7.406c-.033-.037-.068-.072-.105-.104L0 79.401V1c0-.552.448-1 1-1z" transform="translate(38.000000, 33.000000)"/>
                    <path fill="#C3C8D2" d="M25 44L37 44 37 68 31 65 25 68z" transform="translate(38.000000, 33.000000) translate(31.000000, 56.000000) rotate(-330.000000) translate(-31.000000, -56.000000)"/>
                    <path fill="#C3C8D2" d="M38 44L50 44 50 68 44 65 38 68z" transform="translate(38.000000, 33.000000) translate(44.000000, 56.000000) rotate(-30.000000) translate(-44.000000, -56.000000)"/>
                    <path fill="#F4F5F7" d="M45.251 25.625c-.746-1.31-2.274-1.885-3.685-1.386l-2.419.856c-.7.247-1.376.243-2.071-.014l-2.408-.888c-1.404-.518-2.94.035-3.703 1.335l-1.31 2.228c-.378.644-.899 1.08-1.596 1.336l-2.408.885c-1.405.516-2.229 1.938-1.988 3.43l.413 2.558c.12.74-.003 1.413-.374 2.062L22.42 40.27c-.748 1.31-.476 2.934.656 3.92l1.942 1.692c.562.489.896 1.084 1.024 1.822l.443 2.552c.259 1.49 1.5 2.557 2.995 2.577l2.562.033c.74.01 1.375.248 1.942.73l1.962 1.667c1.145.973 2.774.984 3.931.027l1.984-1.641c.573-.474 1.21-.704 1.952-.704l2.562.002c1.495.001 2.75-1.05 3.028-2.535l.477-2.547c.138-.736.48-1.326 1.048-1.808l1.964-1.664c1.146-.972 1.44-2.593.709-3.912l-1.253-2.26c-.363-.654-.476-1.329-.346-2.067l.447-2.552c.26-1.489-.545-2.922-1.944-3.457l-2.396-.917c-.693-.265-1.208-.709-1.578-1.358l-1.28-2.245z" transform="translate(38.000000, 33.000000)"/>
                    <path fill="#E8ECF2" d="M43.438 29.218c-.56-.982-1.705-1.413-2.763-1.038l-1.814.641c-.525.186-1.033.182-1.554-.01l-1.806-.667c-1.053-.388-2.204.027-2.777 1.002l-.982 1.67c-.284.484-.675.811-1.197 1.003l-1.807.664c-1.053.387-1.671 1.453-1.49 2.573l.309 1.918c.09.555-.002 1.06-.28 1.546l-.962 1.683c-.561.981-.357 2.2.492 2.94l1.457 1.268c.421.367.672.813.768 1.367l.332 1.914c.194 1.117 1.125 1.918 2.246 1.933l1.921.024c.556.007 1.032.186 1.457.548l1.471 1.25c.859.73 2.08.738 2.949.02l1.487-1.23c.43-.356.909-.528 1.464-.528l1.922.001c1.121.001 2.063-.787 2.271-1.901l.358-1.91c.104-.552.36-.995.786-1.356l1.473-1.248c.86-.729 1.08-1.945.532-2.934l-.94-1.696c-.272-.49-.357-.996-.26-1.55l.335-1.914c.196-1.116-.408-2.19-1.457-2.592l-1.797-.688c-.52-.2-.906-.532-1.184-1.019l-.96-1.684z" transform="translate(38.000000, 33.000000)"/>
                    <path fill="#898E9B" d="M14.8 94V80.401c0-.552-.447-1-1-1H0L14.8 94z" transform="translate(38.000000, 33.000000)"/>
                </g>
                <g filter="url(#lhowygsa5b)" transform="translate(88.000000, 84.000000)">
                    <g transform="translate(6.920045, 0.000000)">
                        <mask id="0fmpjmopcd" fill="#fff">
                            <use xlink:href="#witb25hrpc"/>
                        </mask>
                        <path fill="#464C58" d="M3.788 24.296H0V13.05C0 5.854 5.868 0 13.079 0c7.214 0 13.082 5.854 13.082 13.05v11.246h-3.789V13.05c0-5.112-4.168-9.27-9.293-9.27-5.122 0-9.291 4.158-9.291 9.27v11.246z" mask="url(#0fmpjmopcd)"/>
                    </g>
                    <g transform="translate(0.000000, 21.250922)">
                        <mask id="bqdhgeww6f" fill="#fff">
                            <use xlink:href="#3xaa4cqrle"/>
                        </mask>
                        <path fill="#FFF" d="M40 27.38c0 .754-.617 1.37-1.371 1.37H1.372C.617 28.75 0 28.133 0 27.38V1.37C0 .616.617 0 1.372 0h37.257C39.383 0 40 .616 40 1.369V27.38z" mask="url(#bqdhgeww6f)"/>
                    </g>
                    <path fill="#A5ABBA" d="M24.102 33.163c0-2.262-1.837-4.092-4.103-4.092s-4.101 1.83-4.101 4.092c0 1.702 1.043 3.161 2.525 3.777l-.796 5.066h4.747l-.798-5.066c1.483-.616 2.526-2.075 2.526-3.777"/>
                </g>
            </g>
        </g>
    </g>
</svg>
