<svg xmlns="http://www.w3.org/2000/svg" xmlns:xlink="http://www.w3.org/1999/xlink" width="164" height="134" viewBox="0 0 164 134">
    <defs>
        <path id="tcylnm4o8c" d="M0 0L21.924 0 21.924 20.348 0 20.348z"/>
        <path id="t4f7ckuole" d="M0 0L33.521 0 33.521 24.077 0 24.077z"/>
        <linearGradient id="eet2k8lora" x1="50%" x2="50%" y1="0%" y2="113.01%">
            <stop offset="0%" stop-color="#7CB3FF"/>
            <stop offset="100%" stop-color="#B3DAFF"/>
        </linearGradient>
        <filter id="vx0cv87f0b" width="180.5%" height="164.5%" x="-40.3%" y="-32.2%" filterUnits="objectBoundingBox">
            <feOffset dy="2" in="SourceAlpha" result="shadowOffsetOuter1"/>
            <feGaussianBlur in="shadowOffsetOuter1" result="shadowBlurOuter1" stdDeviation="2.5"/>
            <feColorMatrix in="shadowBlurOuter1" result="shadowMatrixOuter1" values="0 0 0 0 0 0 0 0 0 0 0 0 0 0 0 0 0 0 0.1 0"/>
            <feMerge>
                <feMergeNode in="shadowMatrixOuter1"/>
                <feMergeNode in="SourceGraphic"/>
            </feMerge>
        </filter>
    </defs>
    <g fill="none" fill-rule="evenodd">
        <g>
            <g>
                <g transform="translate(-302.000000, -245.000000) translate(167.000000, 145.000000) translate(135.000000, 100.000000)">
                    <ellipse cx="85.479" cy="67" fill="#F4F9FF" rx="67.043" ry="67"/>
                    <g>
                        <path fill="url(#eet2k8lora)" d="M.838 0h62.015c.463 0 .838.375.838.838v77.05c0 .462-.375.837-.838.837H12.414l-5.386-6.202c-.027-.031-.056-.06-.088-.087L0 66.499V.838C0 .375.375 0 .838 0z" transform="translate(50.282031, 27.637500)"/>
                        <path fill="#519AFF" d="M20.954 36.85L31.009 36.847 31.004 56.95 25.977 54.439 20.949 56.953z" transform="translate(50.282031, 27.637500) translate(25.979049, 46.900000) rotate(-330.000000) translate(-25.979049, -46.900000)"/>
                        <path fill="#519AFF" d="M31.843 36.847L41.898 36.85 41.904 56.953 36.876 54.439 31.849 56.95z" transform="translate(50.282031, 27.637500) translate(36.873489, 46.900000) rotate(-30.000000) translate(-36.873489, -46.900000)"/>
                        <path fill="#F4F9FF" d="M37.922 21.46c-.626-1.097-1.906-1.577-3.088-1.16l-2.027.717c-.586.207-1.153.203-1.736-.012l-2.018-.744c-1.177-.433-2.463.03-3.103 1.118l-1.097 1.866c-.318.54-.754.905-1.338 1.12l-2.018.74c-1.178.433-1.868 1.624-1.667 2.874l.346 2.142c.1.62-.002 1.183-.313 1.726l-1.075 1.88c-.627 1.096-.398 2.456.55 3.283l1.628 1.416c.47.41.75.908.858 1.526l.372 2.138c.216 1.247 1.256 2.141 2.509 2.158l2.147.027c.621.008 1.153.208 1.628.611l1.644 1.397c.96.814 2.325.823 3.294.022l1.663-1.374c.48-.397 1.014-.59 1.635-.59l2.148.002c1.252.001 2.304-.879 2.537-2.123l.4-2.133c.116-.617.402-1.111.878-1.514l1.646-1.394c.96-.814 1.207-2.171.594-3.276l-1.05-1.893c-.303-.548-.398-1.113-.29-1.731l.375-2.137c.218-1.247-.457-2.447-1.629-2.896l-2.008-.768c-.58-.222-1.013-.593-1.323-1.137l-1.072-1.88z" transform="translate(50.282031, 27.637500)"/>
                        <path fill="#E9F2FF" d="M36.403 24.47c-.47-.823-1.43-1.183-2.316-.87l-1.52.538c-.44.155-.865.152-1.303-.01l-1.513-.557c-.883-.325-1.847.022-2.327.839l-.823 1.399c-.238.405-.566.679-1.004.84l-1.513.555c-.883.324-1.401 1.217-1.25 2.155l.26 1.607c.075.464-.002.887-.235 1.294l-.806 1.41c-.47.822-.3 1.842.412 2.462l1.221 1.062c.353.308.563.681.643 1.145l.279 1.603c.163.936.943 1.606 1.882 1.619l1.61.02c.466.006.865.156 1.221.459l1.233 1.047c.72.611 1.744.618 2.471.017l1.247-1.03c.36-.299.76-.443 1.227-.443l1.61.001c.94.001 1.728-.659 1.903-1.592l.3-1.6c.087-.462.302-.833.659-1.135l1.234-1.046c.72-.61.905-1.628.446-2.457l-.788-1.42c-.228-.41-.299-.834-.217-1.298l.28-1.603c.164-.935-.342-1.835-1.22-2.171l-1.507-.576c-.436-.167-.76-.445-.992-.853l-.804-1.41z" transform="translate(50.282031, 27.637500)"/>
                        <path fill="#7FB6FF" d="M12.404 78.725V67.336c0-.462-.375-.837-.838-.837H0l12.404 12.226z" transform="translate(50.282031, 27.637500)"/>
                    </g>
                    <g filter="url(#vx0cv87f0b)" transform="translate(92.183723, 70.350000)">
                        <g transform="translate(5.799232, 0.000000)">
                            <mask id="65scm2x63d" fill="#fff">
                                <use xlink:href="#tcylnm4o8c"/>
                            </mask>
                            <path fill="#2A375D" d="M3.174 20.348H0V10.93C0 4.903 4.918 0 10.96 0c6.046 0 10.964 4.903 10.964 10.93v1.992h-3.175V10.93c0-4.282-3.494-7.765-7.788-7.765-4.293 0-7.787 3.483-7.787 7.765v9.418z" mask="url(#65scm2x63d)"/>
                        </g>
                        <g transform="translate(0.000000, 17.797647)">
                            <mask id="44dww8vywf" fill="#fff">
                                <use xlink:href="#t4f7ckuole"/>
                            </mask>
                            <path fill="#FFF" d="M33.521 22.93c0 .632-.516 1.147-1.149 1.147H1.149C.517 24.077 0 23.562 0 22.931V1.146C0 .516.517 0 1.15 0h31.222c.633 0 1.15.516 1.15 1.146v21.785z" mask="url(#44dww8vywf)"/>
                        </g>
                        <path fill="#7CB3FF" d="M20.198 27.774c0-1.894-1.54-3.427-3.438-3.427-1.899 0-3.437 1.533-3.437 3.427 0 1.425.874 2.648 2.116 3.163l-.667 4.243h3.978l-.669-4.243c1.243-.515 2.117-1.738 2.117-3.163"/>
                    </g>
                    <g>
                        <path fill="#519AFF" d="M17.984 2.281L17.984 4.851 22.887 3.566 23.797 0z" transform="translate(0.000000, 47.010284)"/>
                        <path fill="#A8CDFF" d="M6.757 22.487L5.642 25.423 0 23.955 1.918 20.827z" transform="translate(0.000000, 47.010284)"/>
                        <path fill="#1060D7" d="M28.725 18.574L28.725 24.563 32.979 23.618 32.268 17.15z" transform="translate(0.000000, 47.010284)"/>
                        <path fill="#7CB3FF" d="M19.66 37.484L16.716 40.569 21.919 41.82 24.257 39.652z" transform="translate(0.000000, 47.010284)"/>
                        <path fill="#A8CDFF" d="M39.798 38.87L39.084 43.085 41.664 44.388 42.56 39.652z" transform="translate(0.000000, 47.010284)"/>
                    </g>
                    <path fill="#519AFF" d="M157.424 46.359L157.424 49.022 162.37 47.689 163.289 43.993z" transform="translate(160.356165, 46.507108) rotate(-300.000000) translate(-160.356165, -46.507108)"/>
                    <path fill="#A8CDFF" d="M138.188 40.918L137.073 43.856 131.434 42.389 133.351 39.259z" transform="translate(134.811066, 41.557398) rotate(-300.000000) translate(-134.811066, -41.557398)"/>
                    <path fill="#1060D7" d="M147.448 55.686L147.447 60.424 150.81 59.676 150.25 54.558z" transform="translate(149.128149, 57.491276) rotate(-300.000000) translate(-149.128149, -57.491276)"/>
                    <path fill="#7CB3FF" d="M128.12 62.515L125.176 65.601 130.377 66.852 132.714 64.683z" transform="translate(128.944935, 64.683568) rotate(-300.000000) translate(-128.944935, -64.683568)"/>
                    <path fill="#A8CDFF" d="M139.729 74.65L139.015 78.867 141.593 80.17 142.49 75.432z" transform="translate(140.752426, 77.409905) rotate(-300.000000) translate(-140.752426, -77.409905)"/>
                </g>
            </g>
        </g>
    </g>
</svg>
