<svg xmlns="http://www.w3.org/2000/svg" width="60" height="60" viewBox="0 0 60 60">
    <defs>
        <linearGradient id="uw4b3at2ha" x1="50%" x2="50%" y1="0%" y2="113.01%">
            <stop offset="0%" stop-color="#2581FF"/>
            <stop offset="100%" stop-color="#7CB3FF"/>
        </linearGradient>
    </defs>
    <g fill="none" fill-rule="evenodd">
        <g>
            <g>
                <g transform="translate(-832.000000, -297.000000) translate(771.000000, 277.000000) translate(61.000000, 20.000000)">
                    <circle cx="30" cy="30" r="30" fill="#E9F2FF"/>
                    <g transform="translate(15.750000, 12.000000)">
                        <path fill="url(#uw4b3at2ha)" d="M.375 0h27.75c.207 0 .375.168.375.375v34.5c0 .207-.168.375-.375.375H5.555l-2.41-2.777c-.012-.014-.025-.027-.04-.04L0 29.776V.375C0 .168.168 0 .375 0z"/>
                        <circle cx="14.25" cy="18" r="5" stroke="#FEFEFE" stroke-width="2"/>
                        <path fill="#2581FF" d="M5.55 35.25v-5.1c0-.207-.168-.375-.375-.375H0l5.55 5.475z"/>
                    </g>
                </g>
            </g>
        </g>
    </g>
</svg>
