<svg xmlns="http://www.w3.org/2000/svg" xmlns:xlink="http://www.w3.org/1999/xlink" width="121" height="108" viewBox="0 0 121 108">
    <defs>
        <linearGradient id="e83c2eg66b" x1="50%" x2="50%" y1="0%" y2="100%">
            <stop offset="0%" stop-color="#A8CDFF"/>
            <stop offset="100%" stop-color="#D3E8FF"/>
        </linearGradient>
        <linearGradient id="drdd7qk0we" x1="50%" x2="45.949%" y1=".28%" y2="148.661%">
            <stop offset="0%" stop-color="#FAFBFC"/>
            <stop offset="100%" stop-color="#F4F5F7"/>
        </linearGradient>
        <linearGradient id="bg1a53u8yg" x1="50%" x2="50%" y1="0%" y2="100%">
            <stop offset="0%" stop-color="#A8D5FF"/>
            <stop offset="100%" stop-color="#6FACFF"/>
        </linearGradient>
        <linearGradient id="yd26dwpyzi" x1="50%" x2="50%" y1="0%" y2="100%">
            <stop offset="0%" stop-color="#89CAFF"/>
            <stop offset="100%" stop-color="#519AFF"/>
        </linearGradient>
        <linearGradient id="de7vm9fc2k" x1=".021%" x2="99%" y1="50%" y2="50%">
            <stop offset="0%" stop-color="#7AB0FF" stop-opacity=".8"/>
            <stop offset="14%" stop-color="#66A5FF" stop-opacity=".84"/>
            <stop offset="49%" stop-color="#3D8FFF" stop-opacity=".93"/>
            <stop offset="79%" stop-color="#2482FF" stop-opacity=".98"/>
            <stop offset="100%" stop-color="#1B7DFF"/>
        </linearGradient>
        <path id="h58kn0f6ua" d="M0 0L113 0 113 108 0 108z"/>
        <path id="5n1baq9r0d" d="M0 0L77.429 0 77.429 77.212 0 77.212z"/>
        <path id="341qms2orh" d="M0 0L113 0 113 59.498 0 59.498z"/>
    </defs>
    <g fill="none" fill-rule="evenodd">
        <g>
            <g>
                <g>
                    <g>
                        <g transform="translate(-327.000000, -367.000000) translate(184.000000, 283.000000) translate(143.000000, 84.000000) translate(0.000271, 0.000000)">
                            <mask id="v0hj5fmogc" fill="#fff">
                                <use xlink:href="#h58kn0f6ua"/>
                            </mask>
                            <path fill="url(#e83c2eg66b)" d="M59.171.922c-1.57-1.23-3.772-1.23-5.343 0L2.598 35.59C.959 36.874 0 38.844 0 40.93v62.719C0 106.052 1.943 108 4.34 108h104.32c2.397 0 4.34-1.948 4.34-4.351V40.93c0-2.086-.959-4.056-2.599-5.34L59.171.922z" mask="url(#v0hj5fmogc)"/>
                        </g>
                        <g transform="translate(-327.000000, -367.000000) translate(184.000000, 283.000000) translate(143.000000, 84.000000) translate(17.785456, 30.788280)">
                            <mask id="h2jucf1bhf" fill="#fff">
                                <use xlink:href="#5n1baq9r0d"/>
                            </mask>
                            <path fill="url(#drdd7qk0we)" d="M5.783 0C2.59 0 0 2.595 0 5.798v71.414h77.429V5.798C77.429 2.595 74.84 0 71.646 0H5.783z" mask="url(#h2jucf1bhf)"/>
                        </g>
                        <path fill="#D3E6FF" d="M24.845 47.194L90.016 47.194 90.016 41.957 24.845 41.957zM24.845 59.238L90.016 59.238 90.016 54 24.845 54zM24.845 71.281L90.016 71.281 90.016 66.043 24.845 66.043z" transform="translate(-327.000000, -367.000000) translate(184.000000, 283.000000) translate(143.000000, 84.000000)"/>
                        <path fill="url(#bg1a53u8yg)" d="M0 103.649c0 2.403 1.943 4.35 4.34 4.35h104.32c2.397 0 4.34-1.947 4.34-4.35V48.502L0 103.65z" transform="translate(-327.000000, -367.000000) translate(184.000000, 283.000000) translate(143.000000, 84.000000)"/>
                        <g transform="translate(-327.000000, -367.000000) translate(184.000000, 283.000000) translate(143.000000, 84.000000) translate(0.000163, 48.502184)">
                            <mask id="2f8k3vvcxj" fill="#fff">
                                <use xlink:href="#341qms2orh"/>
                            </mask>
                            <path fill="url(#yd26dwpyzi)" d="M113 55.147c0 2.403-1.943 4.35-4.34 4.35H4.34c-2.397 0-4.34-1.947-4.34-4.35V0l113 55.147z" mask="url(#2f8k3vvcxj)"/>
                        </g>
                    </g>
                    <g transform="translate(-327.000000, -367.000000) translate(184.000000, 283.000000) translate(143.000000, 84.000000) translate(57.000000, 11.007714)">
                        <ellipse cx="24.412" cy="24.43" fill="url(#de7vm9fc2k)" fill-rule="nonzero" opacity=".72" rx="24.412" ry="24.43"/>
                        <ellipse cx="24.412" cy="24.43" stroke="#29365E" stroke-width="5.208" rx="24.412" ry="24.43"/>
                        <path fill="#29365E" fill-rule="nonzero" d="M38.685 45.838l19.796.008c2.664 0 4.824 2.161 4.825 4.825.001 2.664-2.158 4.823-4.822 4.822l-19.795-.007c-.403 0-.73-.327-.73-.73l-.003-8.189c0-.193.077-.379.214-.516.136-.136.322-.213.515-.213z" transform="translate(50.631234, 50.665582) rotate(45.000000) translate(-50.631234, -50.665582)"/>
                    </g>
                    <text fill="#FFF" font-weight="700" font-size="30" font-weight="bold" letter-spacing="-.2" transform="translate(-327.000000, -367.000000) translate(184.000000, 283.000000) translate(143.000000, 84.000000)">
                        <tspan x="76.5" y="49.024">!</tspan>
                    </text>
                </g>
            </g>
        </g>
    </g>
</svg>
