<svg xmlns="http://www.w3.org/2000/svg" xmlns:xlink="http://www.w3.org/1999/xlink" width="113" height="108" viewBox="0 0 113 108">
    <defs>
        <linearGradient id="a80urhmxub" x1="50%" x2="50%" y1="0%" y2="100%">
            <stop offset="0%" stop-color="#A8CDFF"/>
            <stop offset="100%" stop-color="#D3E8FF"/>
        </linearGradient>
        <linearGradient id="49fl74y38e" x1="50%" x2="45.949%" y1=".35%" y2="148.523%">
            <stop offset="0%" stop-color="#FAFBFC"/>
            <stop offset="100%" stop-color="#F4F5F7"/>
        </linearGradient>
        <linearGradient id="u7blru6k9g" x1="50%" x2="50%" y1="0%" y2="100%">
            <stop offset="0%" stop-color="#A8D5FF"/>
            <stop offset="100%" stop-color="#6FACFF"/>
        </linearGradient>
        <linearGradient id="qpk33xdbvi" x1="50%" x2="50%" y1="0%" y2="100%">
            <stop offset="0%" stop-color="#89CAFF"/>
            <stop offset="100%" stop-color="#519AFF"/>
        </linearGradient>
        <path id="0erzw4t4na" d="M0 0L113 0 113 107.924 0 107.924z"/>
        <path id="2617818i2d" d="M0 0L77.429 0 77.429 77.158 0 77.158z"/>
        <path id="pve1rx1mih" d="M0 0L113 0 113 59.456 0 59.456z"/>
    </defs>
    <g fill="none" fill-rule="evenodd">
        <g>
            <g>
                <g>
                    <g>
                        <g>
                            <g transform="translate(-903.000000, -226.000000) translate(743.000000, 124.000000) translate(28.000000, 30.000000) translate(132.000000, 71.999847) translate(0.000000, 0.075840) translate(0.000271, 0.000000)">
                                <mask id="jmo7bbgj0c" fill="#fff">
                                    <use xlink:href="#0erzw4t4na"/>
                                </mask>
                                <path fill="url(#a80urhmxub)" d="M59.171.921c-1.57-1.228-3.772-1.228-5.343 0L2.598 35.565C.959 36.848 0 38.817 0 40.902v62.674c0 2.402 1.943 4.348 4.34 4.348h104.32c2.397 0 4.34-1.946 4.34-4.348V40.902c0-2.085-.959-4.054-2.599-5.337L59.171.92z" mask="url(#jmo7bbgj0c)"/>
                            </g>
                            <g transform="translate(-903.000000, -226.000000) translate(743.000000, 124.000000) translate(28.000000, 30.000000) translate(132.000000, 71.999847) translate(0.000000, 0.075840) translate(17.785456, 30.766704)">
                                <mask id="ssro8wxtof" fill="#fff">
                                    <use xlink:href="#2617818i2d"/>
                                </mask>
                                <path fill="url(#49fl74y38e)" d="M5.783 0C2.59 0 0 2.594 0 5.794v71.364h77.429V5.794c0-3.2-2.589-5.794-5.783-5.794H5.783z" mask="url(#ssro8wxtof)"/>
                            </g>
                            <path fill="#D3E6FF" d="M24.845 47.161L90.016 47.161 90.016 41.927 24.845 41.927zM24.845 59.196L90.016 59.196 90.016 53.962 24.845 53.962zM24.845 71.231L90.016 71.231 90.016 65.996 24.845 65.996z" transform="translate(-903.000000, -226.000000) translate(743.000000, 124.000000) translate(28.000000, 30.000000) translate(132.000000, 71.999847) translate(0.000000, 0.075840)"/>
                            <path fill="url(#u7blru6k9g)" d="M0 103.576c0 2.401 1.943 4.348 4.34 4.348h104.32c2.397 0 4.34-1.947 4.34-4.348V48.468L0 103.576z" transform="translate(-903.000000, -226.000000) translate(743.000000, 124.000000) translate(28.000000, 30.000000) translate(132.000000, 71.999847) translate(0.000000, 0.075840)"/>
                            <g transform="translate(-903.000000, -226.000000) translate(743.000000, 124.000000) translate(28.000000, 30.000000) translate(132.000000, 71.999847) translate(0.000000, 0.075840) translate(0.000163, 48.468194)">
                                <mask id="odziwq6jdj" fill="#fff">
                                    <use xlink:href="#pve1rx1mih"/>
                                </mask>
                                <path fill="url(#qpk33xdbvi)" d="M113 55.108c0 2.401-1.943 4.348-4.34 4.348H4.34C1.943 59.456 0 57.51 0 55.108V0l113 55.108z" mask="url(#odziwq6jdj)"/>
                            </g>
                        </g>
                        <path fill="#A8CDFF" d="M88 .076c.552 0 1 .448 1 1v3.996c0 .552-.447 1-1 1-.552 0-1-.448-1-1V1.076c0-.553.447-1 1-1z" transform="translate(-903.000000, -226.000000) translate(743.000000, 124.000000) translate(28.000000, 30.000000) translate(132.000000, 71.999847) translate(87.999995, 3.073738) rotate(-5.000000) translate(-87.999995, -3.073738)"/>
                        <path fill="#7CB3FF" d="M97.001.075c.552 0 1 .447 1 .999l-.002 5.997c0 .552-.448 1-1 1s-1-.447-1-.999l.002-5.997c0-.552.448-1 1-1z" transform="translate(-903.000000, -226.000000) translate(743.000000, 124.000000) translate(28.000000, 30.000000) translate(132.000000, 71.999847) translate(97.000000, 4.073037) rotate(32.000000) translate(-97.000000, -4.073037)"/>
                        <path fill="#519AFF" d="M102.162 8.613c.552 0 1 .447 1 .998l-.002 4.001c0 .552-.447 1-1 1-.551 0-.998-.447-.999-.999l.001-4c0-.553.448-1 1-1z" transform="translate(-903.000000, -226.000000) translate(743.000000, 124.000000) translate(28.000000, 30.000000) translate(132.000000, 71.999847) translate(102.161329, 11.612388) rotate(68.000000) translate(-102.161329, -11.612388)"/>
                    </g>
                </g>
            </g>
        </g>
    </g>
</svg>
