<svg xmlns="http://www.w3.org/2000/svg" width="200" height="156" viewBox="0 0 200 156">
    <defs>
        <filter id="prefix__a" width="127.7%" height="136.4%" x="-13.9%" y="-18.2%" filterUnits="objectBoundingBox">
            <feOffset dy="5" in="SourceAlpha" result="shadowOffsetOuter1"/>
            <feGaussianBlur in="shadowOffsetOuter1" result="shadowBlurOuter1" stdDeviation="4"/>
            <feColorMatrix in="shadowBlurOuter1" result="shadowMatrixOuter1" values="0 0 0 0 0 0 0 0 0 0 0 0 0 0 0 0 0 0 0.2 0"/>
            <feMerge>
                <feMergeNode in="shadowMatrixOuter1"/>
                <feMergeNode in="SourceGraphic"/>
            </feMerge>
        </filter>
    </defs>
    <g fill="none" fill-rule="evenodd" filter="url(#prefix__a)" transform="translate(8 3)">
        <path fill="#FA657E" d="M3 0h178c1.657 0 3 1.343 3 3v125.814c0 1.657-1.343 3-3 3h-11.69c-.693 0-1.335.357-1.7.945l-3.91 6.296c-.582.938-1.815 1.226-2.754.644-.261-.162-.481-.383-.644-.644l-3.91-6.296c-.364-.588-1.007-.945-1.698-.945H3c-1.657 0-3-1.343-3-3V3c0-1.657 1.343-3 3-3z"/>
        <rect width="148" height="1" x="18" y="72" fill="#FEFEFE" rx=".5"/>
        <text fill="#FEFEFE" font-weight="400" font-size="12">
            <tspan x="51" y="95">기업프로필 완성도</tspan> <tspan x="51" y="113">85% 이상</tspan>
        </text>
        <text fill="#FEFEFE" font-weight="400" font-size="12">
            <tspan x="18" y="95">조건 :</tspan>
        </text>
        <text fill="#FEFEFE" font-weight="400" font-size="14">
            <tspan x="66" y="36">추천 스타트업</tspan> <tspan x="66" y="56">상단 노출 !</tspan>
        </text>
        <circle cx="38" cy="40" r="19.5" fill="#FEFEFE" stroke="#FEFEFE"/>
        <path fill="#FA657E" d="M38 45.5L31.534 48.899 32.769 41.7 27.538 36.601 34.767 35.55 38 29 41.233 35.55 48.462 36.601 43.231 41.7 44.466 48.899z"/>
        <path fill="#FEFEFE" fill-rule="nonzero" d="M27.05 14.55c-.12-.25-.015-.548.234-.667.249-.12.547-.015.667.234l2 4.167c.12.249.014.547-.235.667s-.547.014-.667-.235l-2-4.166zM48.95 14.55c.12-.25.015-.548-.234-.667-.249-.12-.547-.015-.667.234l-2 4.167c-.12.249-.014.547.235.667s.547.014.667-.235l2-4.166zM37.5 12.545c0-.3.224-.545.5-.545s.5.244.5.545v4.91c0 .3-.224.545-.5.545s-.5-.244-.5-.545v-4.91z"/>
    </g>
</svg>
