<svg xmlns="http://www.w3.org/2000/svg" width="200" height="156" viewBox="0 0 200 156">
    <defs>
        <filter id="prefix__a" width="127.7%" height="136.4%" x="-13.9%" y="-18.2%" filterUnits="objectBoundingBox">
            <feOffset dy="5" in="SourceAlpha" result="shadowOffsetOuter1"/>
            <feGaussianBlur in="shadowOffsetOuter1" result="shadowBlurOuter1" stdDeviation="4"/>
            <feColorMatrix in="shadowBlurOuter1" result="shadowMatrixOuter1" values="0 0 0 0 0 0 0 0 0 0 0 0 0 0 0 0 0 0 0.2 0"/>
            <feMerge>
                <feMergeNode in="shadowMatrixOuter1"/>
                <feMergeNode in="SourceGraphic"/>
            </feMerge>
        </filter>
    </defs>
    <g fill="none" fill-rule="evenodd" filter="url(#prefix__a)" transform="translate(8 3)">
        <path fill="#2581FF" d="M3 0h178c1.657 0 3 1.343 3 3v125.814c0 1.657-1.343 3-3 3H29.31c-.693 0-1.335.357-1.7.945l-3.91 6.296c-.582.938-1.815 1.226-2.754.644-.261-.162-.481-.383-.644-.644l-3.91-6.296c-.364-.588-1.007-.945-1.698-.945H3c-1.657 0-3-1.343-3-3V3c0-1.657 1.343-3 3-3z"/>
        <g transform="translate(18 12)">
            <text fill="#FEFEFE" font-weight="400" font-size="14">
                <tspan x="48" y="24">메인 페이지에</tspan> <tspan x="48" y="44">기업 프로필 노출 </tspan>
            </text>
            <circle cx="20" cy="28" r="19.5" fill="#FEFEFE" stroke="#FEFEFE"/>
            <text fill="#2581FF" font-family="Ubuntu-Bold, Ubuntu" font-size="11" font-weight="bold">
                <tspan x="5" y="32">MAIN</tspan>
            </text>
            <path fill="#FEFEFE" fill-rule="nonzero" d="M9.05 2.55c-.12-.25-.015-.548.234-.667.249-.12.547-.015.667.234l2 4.167c.12.249.014.547-.235.667s-.547.014-.667-.235l-2-4.166zM30.95 2.55c.12-.25.015-.548-.234-.667-.249-.12-.547-.015-.667.234l-2 4.167c-.12.249-.014.547.235.667s.547.014.667-.235l2-4.166zM19.5.545c0-.3.224-.545.5-.545s.5.244.5.545v4.91c0 .3-.224.545-.5.545s-.5-.244-.5-.545V.545z"/>
        </g>
        <rect width="148" height="1" x="18" y="72" fill="#FEFEFE" rx=".5"/>
        <text fill="#FEFEFE" font-weight="400" font-size="12">
            <tspan x="51" y="95">기업 한 줄 소개, </tspan> <tspan x="51" y="113">기업 대표 이미지 등록</tspan>
        </text>
        <text fill="#FEFEFE" font-weight="400" font-size="12">
            <tspan x="18" y="95">조건 :</tspan>
        </text>
    </g>
</svg>
