<svg width="704" height="80" xmlns="http://www.w3.org/2000/svg">
    <defs>
        <linearGradient x1="50%" y1="3.962%" x2="50%" y2="96.038%" id="a">
            <stop stop-color="#3559E0" offset="0%"/>
            <stop stop-color="#2E4CD7" offset="100%"/>
        </linearGradient>
    </defs>
    <g fill="none" fill-rule="evenodd">
        <rect fill="#343434" width="704" height="80" rx="5"/>
        <g transform="translate(572 7)" fill-rule="nonzero">
            <path d="m23.534 54.835 3.828.888L39.811.1a4.021 4.021 0 0 0-3.24.657c-.465.332-.857.76-1.151 1.256a4.216 4.216 0 0 0-.557 1.622 4.068 4.068 0 0 0 .252 2.06.883.883 0 0 1 .057.134c.003.013.002.003.003.012a.546.546 0 0 1-.025.11l-.4 1.79a.476.476 0 0 1-.03.13c-.015.025-.054.006-.083.003-.104-.011-.212-.024-.319-.034-.151-.016-.303-.03-.455-.043-.292-.024-.586-.02-.879-.017-.801.01-1.601.072-2.395.185-.79.113-1.57.28-2.337.498-.768.22-1.52.492-2.25.818-.727.325-1.43.703-2.105 1.132-.648.413-1.27.87-1.86 1.365-.596.5-1.161 1.035-1.694 1.602a21.882 21.882 0 0 0-1.517 1.799c-.474.628-.916 1.28-1.326 1.953a24.336 24.336 0 0 0-2.039 4.221c-.312.845-.583 1.707-.855 2.564-.287.908-.566 1.819-.852 2.727-.286.909-.571 1.8-.88 2.693a48.154 48.154 0 0 1-1 2.664 44.61 44.61 0 0 1-.991 2.218c-.33.69-.68 1.37-1.066 2.028a15.84 15.84 0 0 1-1.293 1.902c-.464.588-.99 1.122-1.57 1.592-.615.493-1.302.91-2.066 1.11-.186.048-.376.075-.564.117a5.84 5.84 0 0 0-1.535.56 5.02 5.02 0 0 0-1.66 1.395c-.494.654-.816 1.435-.986 2.241-.167.795-.203 1.655-.026 2.451.08.376.228.732.437 1.052.223.327.523.593.872.774.37.197.775.316 1.177.423.455.12.912.236 1.369.353.923.237 1.847.47 2.772.7.932.231 1.865.455 2.8.672l13.988 3.245.002.002z" fill="#F1C354"/>
            <path d="m31.188 56.61-3.829-.888L39.808.1a4.06 4.06 0 0 1 1.529.726c.454.348.833.789 1.11 1.294a4.22 4.22 0 0 1 .316 3.347c-.122.384-.3.747-.526 1.078a3.986 3.986 0 0 1-.578.667.86.86 0 0 0-.108.096c-.008.011-.004.003-.008.01a.545.545 0 0 0-.024.11l-.4 1.79a.473.473 0 0 0-.03.13c.004.03.047.03.074.04a22.388 22.388 0 0 1 .73.272c.273.107.537.24.8.372.718.362 1.413.77 2.08 1.223.663.45 1.296.945 1.894 1.48.599.536 1.16 1.114 1.68 1.73.517.613.99 1.264 1.415 1.948.409.658.775 1.344 1.096 2.05.323.714.605 1.445.844 2.192.241.752.442 1.516.602 2.29.16.775.281 1.558.364 2.345a24.642 24.642 0 0 1 .042 4.704c-.079.899-.201 1.795-.321 2.688-.127.945-.263 1.889-.392 2.834-.13.945-.251 1.874-.354 2.814-.102.94-.184 1.893-.231 2.843a45.05 45.05 0 0 0-.05 2.436c.004.767.029 1.534.098 2.298a16.1 16.1 0 0 0 .355 2.284c.168.735.415 1.448.737 2.128.345.715.787 1.395 1.39 1.911.148.126.308.234.46.355.143.114.28.232.414.358.268.25.513.526.73.823.44.59.747 1.27.902 1.993.166.808.125 1.654-.065 2.456-.188.79-.522 1.58-1.02 2.22-.232.303-.517.56-.841.755-.34.197-.724.304-1.116.314-.417.014-.832-.058-1.24-.139-.462-.093-.923-.19-1.384-.285a355.68 355.68 0 0 1-2.797-.592c-.938-.203-1.874-.413-2.809-.63l-13.989-3.245v-.002z" fill="#E7B53C"/>
            <path d="M17.368 56.817a10.26 10.26 0 0 0 2.433 5.732 9.956 9.956 0 0 0 5.265 3.203l1.52-6.797-9.218-2.138z" fill="#F1C354"/>
            <path d="M35.805 61.094a10.046 10.046 0 0 1-4.632 4.093 9.823 9.823 0 0 1-6.108.565l1.521-6.797 9.219 2.14z" fill="#E7B53C"/>
            <ellipse stroke="#343434" stroke-width="2.333" fill="url(#a)" cx="57.35" cy="30.307" rx="14.65" ry="14.915"/>
            <path d="M53.535 33.482c0 .129-.287.193-.863.193-.575 0-.887-.046-.936-.138l-1.533-2.873v2.864c0 .11-.284.165-.853.165-.563 0-.845-.055-.845-.165v-6.16c0-.092.242-.138.725-.138.19 0 .41.018.661.055.257.03.413.092.468.184l1.469 2.836v-2.891c0-.117.285-.175.854-.175s.853.058.853.175v6.068zM57.44 29.799c.116 0 .174.214.174.644 0 .129-.015.282-.045.46-.025.172-.074.258-.147.258h-1.166v.921h1.689c.104 0 .174.135.211.405a2.403 2.403 0 0 1-.027.884c-.037.209-.098.313-.184.313h-3.14c-.232 0-.348-.095-.348-.285v-5.92c0-.16.07-.24.211-.24h3.286c.129 0 .193.273.193.82 0 .54-.064.81-.193.81h-1.698v.93h1.184zM58.717 27.33c-.018-.067.291-.1.927-.1.704 0 1.065.058 1.083.174l.45 3.877.973-3.923c.03-.092.27-.138.716-.138.447 0 .685.043.716.13l.955 3.95.532-3.914c.012-.067.153-.113.422-.138a7.52 7.52 0 0 1 .652-.037c.643 0 .954.043.936.129l-1.11 6.105c-.025.092-.2.16-.524.202a6.282 6.282 0 0 1-.789.065c-.759 0-1.156-.086-1.193-.258l-.624-2.532-.68 2.523c-.024.11-.238.19-.642.24a7.086 7.086 0 0 1-.624.027l-.588-.028c-.404-.043-.618-.12-.642-.23l-.946-6.123z" fill="#FFF"/>
        </g>
        <text font-family="SpoqaHanSansNeo-Bold, Spoqa Han Sans Neo" font-size="14" font-weight="bold" fill="#2581FF">
            <tspan x="20" y="44">채용 서비스 베타 오픈</tspan>
        </text>
        <text font-family="SpoqaHanSansNeo-Bold, Spoqa Han Sans Neo" font-size="18" font-weight="bold" fill="#FEFEFE">
            <tspan x="166" y="44">지금 채용 중인 스타트업을 확인해보세요.</tspan>
        </text>
    </g>
</svg>
