<svg width="1555" height="121" xmlns="http://www.w3.org/2000/svg">
    <defs>
        <linearGradient x1="50%" y1="3.962%" x2="50%" y2="96.038%" id="a">
            <stop stop-color="#3559E0" offset="0%"/>
            <stop stop-color="#2E4CD7" offset="100%"/>
        </linearGradient>
    </defs>
    <g fill="none" fill-rule="evenodd">
        <rect fill="#343434" y="15" width="1555" height="100" rx="5"/>
        <g transform="translate(1321)" fill-rule="nonzero">
            <path d="m43.798 100.531 7.126 1.629L74.092.182a7.595 7.595 0 0 0-6.028 1.204 7.63 7.63 0 0 0-3.18 5.276 7.365 7.365 0 0 0 .469 3.776c.043.08.078.161.106.246.005.025.005.007.005.023a.988.988 0 0 1-.046.202l-.746 3.282a.862.862 0 0 1-.054.238c-.029.045-.1.01-.154.004l-.594-.062a41.976 41.976 0 0 0-.846-.078c-.544-.044-1.092-.037-1.637-.03-1.492.017-2.98.13-4.458.338a33.296 33.296 0 0 0-4.35.913 31.713 31.713 0 0 0-4.186 1.5 30.44 30.44 0 0 0-3.917 2.074 32.91 32.91 0 0 0-3.464 2.503 36.594 36.594 0 0 0-3.152 2.938 40.274 40.274 0 0 0-2.823 3.297 43.35 43.35 0 0 0-2.468 3.581 44.41 44.41 0 0 0-3.794 7.739c-.58 1.548-1.085 3.128-1.59 4.7-.537 1.665-1.055 3.334-1.587 5a187.82 187.82 0 0 1-1.637 4.936 87.458 87.458 0 0 1-1.862 4.885 81.182 81.182 0 0 1-1.845 4.066 48.722 48.722 0 0 1-1.984 3.717 29.023 29.023 0 0 1-2.405 3.488 18.714 18.714 0 0 1-2.922 2.919c-1.145.903-2.425 1.669-3.846 2.034-.347.089-.7.138-1.05.216-.33.071-.656.156-.979.255-.648.198-1.277.456-1.879.77a9.308 9.308 0 0 0-3.088 2.558C1.182 79.89.58 81.322.266 82.8c-.311 1.457-.377 3.032-.048 4.493.148.688.424 1.342.813 1.928.415.6.973 1.088 1.623 1.42.689.36 1.441.578 2.19.774.848.22 1.698.433 2.548.648 1.717.435 3.437.863 5.16 1.284 1.734.423 3.47.833 5.21 1.23l26.034 5.95.002.004z" fill="#F1C354"/>
            <path d="m58.044 103.786-7.126-1.629L74.086.181A7.607 7.607 0 0 1 79 3.885a7.653 7.653 0 0 1 .586 6.136 7.516 7.516 0 0 1-.978 1.976 7.33 7.33 0 0 1-1.076 1.224c-.072.053-.139.111-.201.176-.016.02-.007.004-.014.018a.986.986 0 0 0-.046.202l-.746 3.282a.856.856 0 0 0-.054.238c.007.053.087.053.138.071.183.066.374.133.562.202.266.097.532.195.796.297.51.197 1 .441 1.489.684a34.912 34.912 0 0 1 3.871 2.242 33.389 33.389 0 0 1 3.526 2.713 31.827 31.827 0 0 1 3.125 3.17 30.559 30.559 0 0 1 2.635 3.572 33.024 33.024 0 0 1 2.039 3.76 36.767 36.767 0 0 1 1.572 4.018c.448 1.378.822 2.779 1.119 4.197.298 1.421.524 2.857.678 4.3a44.51 44.51 0 0 1 .077 8.624c-.145 1.648-.373 3.291-.596 4.928-.237 1.733-.49 3.463-.73 5.195-.24 1.733-.467 3.436-.658 5.16a87.63 87.63 0 0 0-.431 5.212 81.361 81.361 0 0 0-.093 4.467c.007 1.405.054 2.812.182 4.212.118 1.41.34 2.81.661 4.188a18.777 18.777 0 0 0 1.373 3.9c.641 1.311 1.464 2.558 2.587 3.505.275.23.571.428.853.65.268.208.525.426.772.656.5.46.955.965 1.36 1.51a9.336 9.336 0 0 1 1.678 3.653c.308 1.482.232 3.033-.121 4.502-.35 1.449-.97 2.897-1.899 4.07a5.606 5.606 0 0 1-1.565 1.385 4.42 4.42 0 0 1-2.076.575c-.777.026-1.55-.105-2.308-.254-.86-.17-1.718-.348-2.576-.523a670.757 670.757 0 0 1-5.206-1.085 373.512 373.512 0 0 1-5.227-1.155l-26.035-5.949v-.003z" fill="#E7B53C"/>
            <path d="M32.324 104.164a18.67 18.67 0 0 0 4.529 10.508 18.579 18.579 0 0 0 9.797 5.873l2.83-12.46-17.156-3.921z" fill="#F1C354"/>
            <path d="M66.637 112.006a18.61 18.61 0 0 1-8.62 7.503 18.538 18.538 0 0 1-11.368 1.036l2.831-12.46 17.157 3.921z" fill="#E7B53C"/>
            <ellipse stroke="#343434" stroke-width="4.32" fill="url(#a)" cx="106.735" cy="55.562" rx="27.265" ry="27.344"/>
            <path d="M99.635 61.383c0 .236-.535.355-1.606.355-1.07 0-1.651-.085-1.742-.254l-2.853-5.267v5.25c0 .203-.53.304-1.589.304-1.047 0-1.571-.101-1.571-.304V50.174c0-.169.45-.253 1.35-.253.352 0 .762.034 1.23.101.478.056.768.169.87.338l2.734 5.199v-5.3c0-.214.53-.321 1.588-.321 1.06 0 1.589.107 1.589.32v11.125zM106.903 54.63c.216 0 .324.394.324 1.182 0 .237-.028.518-.085.844-.046.315-.137.473-.274.473H104.7v1.688h3.143c.194 0 .325.248.393.743.034.214.052.444.052.692 0 .236-.035.546-.103.928-.07.383-.183.574-.342.574H102c-.433 0-.65-.174-.65-.523V50.377c0-.293.132-.44.394-.44h6.115c.24 0 .359.501.359 1.503 0 .99-.12 1.486-.36 1.486H104.7v1.705h2.204zM109.28 50.106c-.034-.123.54-.185 1.725-.185 1.31 0 1.982.107 2.016.32l.837 7.107 1.81-7.19c.058-.17.502-.254 1.333-.254s1.275.079 1.332.236l1.778 7.242.99-7.174c.023-.124.284-.208.786-.253.5-.045.905-.068 1.213-.068 1.196 0 1.776.079 1.742.236l-2.067 11.193c-.046.168-.37.292-.974.37-.604.08-1.093.119-1.469.119-1.412 0-2.152-.158-2.221-.473l-1.161-4.642-1.264 4.626c-.046.202-.444.348-1.196.438-.387.034-.775.051-1.162.051l-1.093-.05c-.752-.08-1.15-.22-1.196-.423l-1.76-11.226z" fill="#FFF"/>
        </g>
        <text font-family="SpoqaHanSansNeo-Bold, Spoqa Han Sans Neo" font-size="14" font-weight="bold" fill="#2581FF">
            <tspan x="46" y="69">채용 서비스 베타 오픈</tspan>
        </text>
        <text font-family="SpoqaHanSansNeo-Bold, Spoqa Han Sans Neo" font-size="18" font-weight="bold" fill="#FEFEFE">
            <tspan x="240" y="69">지금 채용 중인 스타트업을 확인해보세요.</tspan>
        </text>
    </g>
</svg>
