<svg width="320" height="80" xmlns="http://www.w3.org/2000/svg">
    <defs>
        <linearGradient x1="50%" y1="3.962%" x2="50%" y2="96.038%" id="a">
            <stop stop-color="#3559E0" offset="0%"/>
            <stop stop-color="#2E4CD7" offset="100%"/>
        </linearGradient>
    </defs>
    <g fill="none" fill-rule="evenodd">
        <rect fill="#343434" width="320" height="80" rx="5"/>
        <g transform="translate(235 10)" fill-rule="nonzero">
            <path d="m21.246 49.02 3.456.793L35.94.09a3.665 3.665 0 0 0-2.924.587c-.42.297-.774.68-1.04 1.122a3.744 3.744 0 0 0-.502 1.45 3.692 3.692 0 0 0 .139 1.597c.026.083.056.164.088.245.02.038.038.078.052.12.002.012.002.003.002.01a.484.484 0 0 1-.022.1l-.362 1.6a.422.422 0 0 1-.026.116c-.014.021-.05.004-.075.002l-.288-.03a20.258 20.258 0 0 0-.41-.039c-.265-.021-.53-.018-.795-.015-.723.009-1.446.064-2.162.165-.713.102-1.417.25-2.11.446a15.33 15.33 0 0 0-2.03.73 14.74 14.74 0 0 0-1.901 1.012c-.586.37-1.147.778-1.68 1.22-.537.448-1.048.926-1.53 1.433a19.61 19.61 0 0 0-1.368 1.608 21.142 21.142 0 0 0-2.216 3.603 21.668 21.668 0 0 0-.822 1.917c-.282.755-.526 1.525-.772 2.292-.26.812-.511 1.625-.77 2.437a91.918 91.918 0 0 1-.793 2.407 42.783 42.783 0 0 1-.903 2.382c-.28.67-.58 1.33-.895 1.983a23.799 23.799 0 0 1-.963 1.812 14.154 14.154 0 0 1-1.167 1.701 9.101 9.101 0 0 1-1.417 1.423c-.555.44-1.176.814-1.865.992-.169.043-.34.067-.51.105-.16.035-.318.076-.474.125-.315.096-.62.222-.912.375A4.52 4.52 0 0 0 1.02 38.37c-.445.586-.737 1.284-.89 2.004-.151.71-.183 1.48-.023 2.191.072.336.205.655.394.94.202.293.472.531.787.693.335.176.7.282 1.063.377.41.108.823.211 1.236.316.833.212 1.667.42 2.503.626.84.206 1.683.406 2.527.6l12.629 2.901v.002z" fill="#F1C354"/>
            <path d="m28.156 50.606-3.457-.794L35.937.088c.5.118.97.339 1.38.65.411.31.753.705 1.004 1.156a3.745 3.745 0 0 1 .284 2.992 3.57 3.57 0 0 1-.996 1.56.773.773 0 0 0-.098.086c-.007.01-.003.002-.007.01a.483.483 0 0 0-.022.098l-.362 1.6a.42.42 0 0 0-.026.116c.004.026.042.026.067.035l.272.098c.13.047.259.095.387.145.247.096.485.215.722.333.648.324 1.276.69 1.878 1.094.598.402 1.17.844 1.71 1.323s1.047.995 1.516 1.545c.468.549.895 1.13 1.278 1.742.369.589.7 1.201.99 1.834.291.637.546 1.291.762 1.958.217.672.398 1.356.542 2.047.145.693.255 1.393.33 2.097a21.815 21.815 0 0 1 .037 4.205c-.07.803-.181 1.605-.29 2.403-.114.845-.237 1.688-.354 2.533a92.107 92.107 0 0 0-.318 2.516c-.093.84-.167 1.692-.21 2.541a39.879 39.879 0 0 0-.045 2.178c.004.686.026 1.372.089 2.054.057.688.164 1.37.32 2.042.152.657.375 1.295.666 1.902.311.64.71 1.247 1.255 1.709.133.112.277.209.414.317.13.101.254.208.375.32.242.224.462.47.66.736.396.527.673 1.135.813 1.781.15.723.112 1.48-.059 2.196-.17.706-.47 1.412-.92 1.984-.21.271-.467.5-.76.676a2.136 2.136 0 0 1-1.007.28c-.377.012-.751-.052-1.12-.124-.417-.083-.833-.17-1.25-.255-.841-.173-1.683-.35-2.525-.53-.846-.18-1.691-.368-2.535-.562l-12.629-2.901v-.002z" fill="#E7B53C"/>
            <path d="M15.68 50.79a9.127 9.127 0 0 0 2.196 5.125 9.004 9.004 0 0 0 4.753 2.863l1.373-6.075-8.322-1.912z" fill="#F1C354"/>
            <path d="M32.324 54.614a9.041 9.041 0 0 1-4.182 3.659 8.95 8.95 0 0 1-5.514.505l1.373-6.075 8.323 1.911z" fill="#E7B53C"/>
            <ellipse stroke="#343434" stroke-width="2.1" fill="url(#a)" cx="51.775" cy="27.092" rx="13.225" ry="13.333"/>
            <path d="M48.33 29.93c0 .116-.26.173-.778.173-.52 0-.802-.04-.846-.123l-1.383-2.568v2.56c0 .098-.257.148-.771.148-.508 0-.762-.05-.762-.148v-5.507c0-.082.218-.123.654-.123.171 0 .37.016.597.049.232.027.373.082.422.165l1.326 2.535v-2.585c0-.104.257-.156.77-.156.515 0 .771.052.771.156v5.425zM51.856 26.638c.105 0 .157.192.157.576 0 .115-.014.253-.041.412-.022.153-.066.23-.133.23h-1.052v.823h1.524c.095 0 .158.121.191.363a2.127 2.127 0 0 1-.025.79c-.033.186-.088.28-.166.28h-2.833c-.21 0-.315-.085-.315-.256v-5.292c0-.143.063-.214.19-.214h2.967c.116 0 .174.244.174.732 0 .483-.058.725-.174.725h-1.533v.831h1.069zM53.009 24.432c-.017-.06.262-.09.837-.09.635 0 .961.052.977.156l.407 3.465.878-3.506c.028-.083.243-.124.646-.124s.619.039.647.116l.862 3.53.48-3.498c.011-.06.138-.101.381-.123.243-.022.44-.033.589-.033.58 0 .861.038.845.115l-1.003 5.458c-.022.082-.18.142-.472.18-.293.04-.53.058-.713.058-.685 0-1.044-.076-1.077-.23l-.564-2.264-.613 2.256c-.022.098-.215.17-.58.214a6.46 6.46 0 0 1-.563.024l-.53-.024c-.365-.039-.559-.107-.58-.206l-.854-5.474z" fill="#FFF"/>
        </g>
        <text font-family="SpoqaHanSansNeo-Bold, Spoqa Han Sans Neo" font-size="16" font-weight="bold" fill="#FEFEFE">
            <tspan x="14" y="30">지금 채용 중인 </tspan>
            <tspan x="14" y="56">스타트업을 확인해보세요.</tspan>
        </text>
    </g>
</svg>
