<svg width="355" height="187" viewBox="0 0 355 187" fill="none" xmlns="http://www.w3.org/2000/svg">
<g opacity="0.2">
<mask id="mask0_1087_27520" style="mask-type:alpha" maskUnits="userSpaceOnUse" x="11" y="1" width="340" height="160">
<path d="M84.8462 107.322C57.5677 144.712 11 161 11 161H351C351 161 302.665 144.712 275.444 107.322C244.006 64.1381 229.202 1.0743 180.231 1.00007C131.145 0.925662 116.403 64.0691 84.8462 107.322Z" fill="#FEFEFE"/>
</mask>
<g mask="url(#mask0_1087_27520)">
<rect opacity="0.5" x="-9" y="1" width="367" height="166" fill="url(#paint0_linear_1087_27520)"/>
</g>
</g>
<path d="M11 161C11 161 57.5677 144.712 84.8462 107.322C116.403 64.0691 131.145 0.925662 180.231 1.00007C229.202 1.0743 244.006 64.1381 275.444 107.322C302.665 144.712 351 161 351 161" stroke="#2581FF" stroke-linecap="round" stroke-linejoin="round"/>
<path d="M1.896 176.048L3.336 174.836C3.328 174.94 3.324 175.04 3.324 175.136V180.848H1.476V182H6.312V180.848H4.644V173.108H3.564L1.164 175.16L1.896 176.048ZM13.9524 177.572C13.9524 177.06 13.9004 176.536 13.7964 176C13.6924 175.464 13.5164 174.976 13.2684 174.536C13.0204 174.096 12.6884 173.736 12.2724 173.456C11.8564 173.176 11.3364 173.036 10.7124 173.036C10.0964 173.036 9.58044 173.176 9.16444 173.456C8.74844 173.728 8.41644 174.08 8.16844 174.512C7.92044 174.944 7.74444 175.432 7.64044 175.976C7.53644 176.512 7.48444 177.044 7.48444 177.572C7.48444 178.1 7.53644 178.632 7.64044 179.168C7.74444 179.704 7.92044 180.192 8.16844 180.632C8.41644 181.064 8.74844 181.416 9.16444 181.688C9.58044 181.96 10.0964 182.096 10.7124 182.096C11.3284 182.096 11.8444 181.96 12.2604 181.688C12.6764 181.416 13.0084 181.064 13.2564 180.632C13.5124 180.192 13.6924 179.704 13.7964 179.168C13.9004 178.632 13.9524 178.1 13.9524 177.572ZM12.5844 177.572C12.5844 177.884 12.5644 178.236 12.5244 178.628C12.4844 179.02 12.3964 179.392 12.2604 179.744C12.1324 180.096 11.9444 180.392 11.6964 180.632C11.4564 180.872 11.1284 180.992 10.7124 180.992C10.3044 180.992 9.97644 180.872 9.72844 180.632C9.48044 180.392 9.28844 180.096 9.15244 179.744C9.02444 179.392 8.94044 179.02 8.90044 178.628C8.86044 178.236 8.84044 177.884 8.84044 177.572C8.84044 177.26 8.86044 176.908 8.90044 176.516C8.94044 176.124 9.02444 175.752 9.15244 175.4C9.28844 175.048 9.47644 174.752 9.71644 174.512C9.96444 174.272 10.2964 174.152 10.7124 174.152C11.1284 174.152 11.4564 174.272 11.6964 174.512C11.9444 174.752 12.1324 175.048 12.2604 175.4C12.3964 175.752 12.4844 176.124 12.5244 176.516C12.5644 176.908 12.5844 177.26 12.5844 177.572ZM21.1009 177.572C21.1009 177.06 21.0489 176.536 20.9449 176C20.8409 175.464 20.6649 174.976 20.4169 174.536C20.1689 174.096 19.8369 173.736 19.4209 173.456C19.0049 173.176 18.4849 173.036 17.8609 173.036C17.2449 173.036 16.7289 173.176 16.3129 173.456C15.8969 173.728 15.5649 174.08 15.3169 174.512C15.0689 174.944 14.8929 175.432 14.7889 175.976C14.6849 176.512 14.6329 177.044 14.6329 177.572C14.6329 178.1 14.6849 178.632 14.7889 179.168C14.8929 179.704 15.0689 180.192 15.3169 180.632C15.5649 181.064 15.8969 181.416 16.3129 181.688C16.7289 181.96 17.2449 182.096 17.8609 182.096C18.4769 182.096 18.9929 181.96 19.4089 181.688C19.8249 181.416 20.1569 181.064 20.4049 180.632C20.6609 180.192 20.8409 179.704 20.9449 179.168C21.0489 178.632 21.1009 178.1 21.1009 177.572ZM19.7329 177.572C19.7329 177.884 19.7129 178.236 19.6729 178.628C19.6329 179.02 19.5449 179.392 19.4089 179.744C19.2809 180.096 19.0929 180.392 18.8449 180.632C18.6049 180.872 18.2769 180.992 17.8609 180.992C17.4529 180.992 17.1249 180.872 16.8769 180.632C16.6289 180.392 16.4369 180.096 16.3009 179.744C16.1729 179.392 16.0889 179.02 16.0489 178.628C16.0089 178.236 15.9889 177.884 15.9889 177.572C15.9889 177.26 16.0089 176.908 16.0489 176.516C16.0889 176.124 16.1729 175.752 16.3009 175.4C16.4369 175.048 16.6249 174.752 16.8649 174.512C17.1129 174.272 17.4449 174.152 17.8609 174.152C18.2769 174.152 18.6049 174.272 18.8449 174.512C19.0929 174.752 19.2809 175.048 19.4089 175.4C19.5449 175.752 19.6329 176.124 19.6729 176.516C19.7129 176.908 19.7329 177.26 19.7329 177.572Z" fill="#989898"/>
<path d="M98.66 174.068V173.132H92.576V174.344H97.316C97.14 174.544 97 174.756 96.896 174.98L93.32 182H94.76L98.66 174.068ZM100.516 180.14L99.8324 181.1C99.9764 181.236 100.14 181.36 100.324 181.472C100.604 181.68 100.928 181.836 101.296 181.94C101.664 182.044 102.02 182.096 102.364 182.096C102.836 182.096 103.272 182.02 103.672 181.868C104.072 181.716 104.416 181.504 104.704 181.232C104.992 180.96 105.216 180.632 105.376 180.248C105.536 179.856 105.616 179.428 105.616 178.964C105.616 178.524 105.544 178.14 105.4 177.812C105.256 177.476 105.056 177.196 104.8 176.972C104.544 176.74 104.244 176.568 103.9 176.456C103.556 176.336 103.18 176.276 102.772 176.276C102.388 176.276 101.996 176.32 101.596 176.408L101.956 174.344H105.328V173.132H101.032L100.312 177.368L101.128 177.596C101.352 177.532 101.576 177.48 101.8 177.44C102.032 177.392 102.264 177.368 102.496 177.368C103.048 177.368 103.484 177.508 103.804 177.788C104.132 178.068 104.296 178.484 104.296 179.036C104.296 179.308 104.252 179.564 104.164 179.804C104.084 180.036 103.964 180.24 103.804 180.416C103.652 180.584 103.46 180.72 103.228 180.824C102.996 180.92 102.736 180.968 102.448 180.968C102.088 180.968 101.74 180.892 101.404 180.74C101.068 180.58 100.772 180.38 100.516 180.14Z" fill="#989898"/>
<path d="M178.368 180.14L177.684 181.1C177.828 181.236 177.992 181.36 178.176 181.472C178.456 181.68 178.78 181.836 179.148 181.94C179.516 182.044 179.872 182.096 180.216 182.096C180.688 182.096 181.124 182.02 181.524 181.868C181.924 181.716 182.268 181.504 182.556 181.232C182.844 180.96 183.068 180.632 183.228 180.248C183.388 179.856 183.468 179.428 183.468 178.964C183.468 178.524 183.396 178.14 183.252 177.812C183.108 177.476 182.908 177.196 182.652 176.972C182.396 176.74 182.096 176.568 181.752 176.456C181.408 176.336 181.032 176.276 180.624 176.276C180.24 176.276 179.848 176.32 179.448 176.408L179.808 174.344H183.18V173.132H178.884L178.164 177.368L178.98 177.596C179.204 177.532 179.428 177.48 179.652 177.44C179.884 177.392 180.116 177.368 180.348 177.368C180.9 177.368 181.336 177.508 181.656 177.788C181.984 178.068 182.148 178.484 182.148 179.036C182.148 179.308 182.104 179.564 182.016 179.804C181.936 180.036 181.816 180.24 181.656 180.416C181.504 180.584 181.312 180.72 181.08 180.824C180.848 180.92 180.588 180.968 180.3 180.968C179.94 180.968 179.592 180.892 179.256 180.74C178.92 180.58 178.624 180.38 178.368 180.14ZM190.952 177.572C190.952 177.06 190.9 176.536 190.796 176C190.692 175.464 190.516 174.976 190.268 174.536C190.02 174.096 189.688 173.736 189.272 173.456C188.856 173.176 188.336 173.036 187.712 173.036C187.096 173.036 186.58 173.176 186.164 173.456C185.748 173.728 185.416 174.08 185.168 174.512C184.92 174.944 184.744 175.432 184.64 175.976C184.536 176.512 184.484 177.044 184.484 177.572C184.484 178.1 184.536 178.632 184.64 179.168C184.744 179.704 184.92 180.192 185.168 180.632C185.416 181.064 185.748 181.416 186.164 181.688C186.58 181.96 187.096 182.096 187.712 182.096C188.328 182.096 188.844 181.96 189.26 181.688C189.676 181.416 190.008 181.064 190.256 180.632C190.512 180.192 190.692 179.704 190.796 179.168C190.9 178.632 190.952 178.1 190.952 177.572ZM189.584 177.572C189.584 177.884 189.564 178.236 189.524 178.628C189.484 179.02 189.396 179.392 189.26 179.744C189.132 180.096 188.944 180.392 188.696 180.632C188.456 180.872 188.128 180.992 187.712 180.992C187.304 180.992 186.976 180.872 186.728 180.632C186.48 180.392 186.288 180.096 186.152 179.744C186.024 179.392 185.94 179.02 185.9 178.628C185.86 178.236 185.84 177.884 185.84 177.572C185.84 177.26 185.86 176.908 185.9 176.516C185.94 176.124 186.024 175.752 186.152 175.4C186.288 175.048 186.476 174.752 186.716 174.512C186.964 174.272 187.296 174.152 187.712 174.152C188.128 174.152 188.456 174.272 188.696 174.512C188.944 174.752 189.132 175.048 189.26 175.4C189.396 175.752 189.484 176.124 189.524 176.516C189.564 176.908 189.584 177.26 189.584 177.572Z" fill="#989898"/>
<path d="M268.564 182V180.824H265.492C265.3 180.824 265.104 180.84 264.904 180.872C264.712 180.904 264.524 180.944 264.34 180.992L266.596 178.712C266.82 178.488 267.04 178.26 267.256 178.028C267.472 177.796 267.664 177.552 267.832 177.296C268.008 177.032 268.148 176.756 268.252 176.468C268.356 176.18 268.408 175.868 268.408 175.532C268.408 175.132 268.336 174.776 268.192 174.464C268.048 174.152 267.852 173.892 267.604 173.684C267.364 173.468 267.08 173.308 266.752 173.204C266.424 173.092 266.072 173.036 265.696 173.036C264.872 173.036 264.196 173.26 263.668 173.708C263.148 174.148 262.832 174.768 262.72 175.568L264.04 175.808C264.024 175.568 264.052 175.348 264.124 175.148C264.196 174.948 264.304 174.776 264.448 174.632C264.592 174.488 264.764 174.376 264.964 174.296C265.164 174.208 265.384 174.164 265.624 174.164C266.048 174.164 266.368 174.26 266.584 174.452C266.808 174.636 266.948 174.868 267.004 175.148C267.068 175.42 267.064 175.716 266.992 176.036C266.92 176.356 266.808 176.652 266.656 176.924C266.496 177.172 266.324 177.4 266.14 177.608C265.956 177.816 265.76 178.024 265.552 178.232L262.564 181.232V182H268.564ZM270.516 180.14L269.832 181.1C269.976 181.236 270.14 181.36 270.324 181.472C270.604 181.68 270.928 181.836 271.296 181.94C271.664 182.044 272.02 182.096 272.364 182.096C272.836 182.096 273.272 182.02 273.672 181.868C274.072 181.716 274.416 181.504 274.704 181.232C274.992 180.96 275.216 180.632 275.376 180.248C275.536 179.856 275.616 179.428 275.616 178.964C275.616 178.524 275.544 178.14 275.4 177.812C275.256 177.476 275.056 177.196 274.8 176.972C274.544 176.74 274.244 176.568 273.9 176.456C273.556 176.336 273.18 176.276 272.772 176.276C272.388 176.276 271.996 176.32 271.596 176.408L271.956 174.344H275.328V173.132H271.032L270.312 177.368L271.128 177.596C271.352 177.532 271.576 177.48 271.8 177.44C272.032 177.392 272.264 177.368 272.496 177.368C273.048 177.368 273.484 177.508 273.804 177.788C274.132 178.068 274.296 178.484 274.296 179.036C274.296 179.308 274.252 179.564 274.164 179.804C274.084 180.036 273.964 180.24 273.804 180.416C273.652 180.584 273.46 180.72 273.228 180.824C272.996 180.92 272.736 180.968 272.448 180.968C272.088 180.968 271.74 180.892 271.404 180.74C271.068 180.58 270.772 180.38 270.516 180.14Z" fill="#989898"/>
<path d="M353.804 177.572C353.804 177.06 353.752 176.536 353.648 176C353.544 175.464 353.368 174.976 353.12 174.536C352.872 174.096 352.54 173.736 352.124 173.456C351.708 173.176 351.188 173.036 350.564 173.036C349.948 173.036 349.432 173.176 349.016 173.456C348.6 173.728 348.268 174.08 348.02 174.512C347.772 174.944 347.596 175.432 347.492 175.976C347.388 176.512 347.336 177.044 347.336 177.572C347.336 178.1 347.388 178.632 347.492 179.168C347.596 179.704 347.772 180.192 348.02 180.632C348.268 181.064 348.6 181.416 349.016 181.688C349.432 181.96 349.948 182.096 350.564 182.096C351.18 182.096 351.696 181.96 352.112 181.688C352.528 181.416 352.86 181.064 353.108 180.632C353.364 180.192 353.544 179.704 353.648 179.168C353.752 178.632 353.804 178.1 353.804 177.572ZM352.436 177.572C352.436 177.884 352.416 178.236 352.376 178.628C352.336 179.02 352.248 179.392 352.112 179.744C351.984 180.096 351.796 180.392 351.548 180.632C351.308 180.872 350.98 180.992 350.564 180.992C350.156 180.992 349.828 180.872 349.58 180.632C349.332 180.392 349.14 180.096 349.004 179.744C348.876 179.392 348.792 179.02 348.752 178.628C348.712 178.236 348.692 177.884 348.692 177.572C348.692 177.26 348.712 176.908 348.752 176.516C348.792 176.124 348.876 175.752 349.004 175.4C349.14 175.048 349.328 174.752 349.568 174.512C349.816 174.272 350.148 174.152 350.564 174.152C350.98 174.152 351.308 174.272 351.548 174.512C351.796 174.752 351.984 175.048 352.112 175.4C352.248 175.752 352.336 176.124 352.376 176.516C352.416 176.908 352.436 177.26 352.436 177.572Z" fill="#989898"/>
<defs>
<linearGradient id="paint0_linear_1087_27520" x1="174.5" y1="-98.8699" x2="174.5" y2="167" gradientUnits="userSpaceOnUse">
<stop stop-color="#006CFF"/>
<stop offset="1" stop-color="#006CFF" stop-opacity="0"/>
</linearGradient>
</defs>
</svg>
