<svg xmlns="http://www.w3.org/2000/svg" xmlns:xlink="http://www.w3.org/1999/xlink" width="230" height="94" viewBox="0 0 230 94">
    <defs>
        <path id="m3wycdguoa" d="M0 14H230V94H0z"/>
    </defs>
    <g fill="none" fill-rule="evenodd">
        <g>
            <g transform="translate(-340 -462) translate(340 462)">
                <mask id="55sy11l28b" fill="#fff">
                    <use xlink:href="#m3wycdguoa"/>
                </mask>
                <g mask="url(#55sy11l28b)">
                    <g>
                        <path fill="#FEFEFE" d="M260.16 4.09C287.125-8.95 331.147 9.262 331 57.726c-.005 1.69-.055 3.357-.148 5.002 3.374-.811 7.575-1.07 13.292-.304 21.2 2.839 40.36 30.85 21.313 59.477-19.047 28.626-52.781 31.906-83.015 23.704-3.717-1.008-7.22-2.246-10.501-3.678-6.332 3.06-12.923 5.69-19.638 7.898-65.244 21.45-118.378-27.87-92.71-73.227 12.669-22.385 26.008-25.248 38.562-26.194l1.319-.093 4.563-.28 1.288-.086c6.848-.484 13.36-1.434 19.278-5.965 4.946-3.786 7.72-7.624 9.832-11.488l.39-.725.375-.725.364-.726.356-.726.521-1.09 1.384-2.93.517-1.066.265-.532.408-.8.424-.798.443-.8.306-.532.157-.266.323-.533.334-.533.171-.266.353-.533.367-.532c.062-.089.125-.178.189-.266l.389-.533.405-.532c.62-.798 1.296-1.596 2.043-2.393l.508-.531c3.285-3.365 7.867-6.716 14.733-10.036z" opacity=".2" transform="translate(-143 -16)"/>
                        <path fill="#FFF" stroke="#FEFEFE" d="M.214 200c12.595-1.02 24.84-4.756 35.5-11.616 9.117-5.868 16.813-13.755 22.83-22.748 6.06-9.054 11.167-19.758 13.017-30.547 1.146-6.677.673-13.906-3.24-19.653-2.86-4.199-7.635-7.108-12.772-5.487-4.922 1.553-8.212 6.38-7.59 11.534.715 5.919 5.71 10.292 11.412 11.257 6.548 1.109 13.806-.934 19.836-3.39 6.28-2.56 12.066-6.256 17.1-10.79 5.185-4.672 9.481-10.33 13.985-15.64 4.632-5.462 9.258-10.958 13.432-16.783 4.167-5.816 8.06-11.715 12.805-17.102 4.407-5.004 9.242-9.645 14.486-13.766 10.297-8.092 22.162-14.154 34.9-17.298 6.269-1.547 12.704-2.387 19.16-2.52 6.472-.133 13.337.164 19.622 1.815 5.717 1.502 11.824 4.611 14.834 9.935 4.055 7.172-.077 14.483-5.164 19.796-2.784 2.907-6.812 6.718-11.22 5.39-4.593-1.386-5.993-6.894-2.625-10.253 2.655-2.647 6.94-3.892 10.354-5.157 3.832-1.42 7.773-2.59 11.81-3.252 7.724-1.265 15.706-.47 22.6 3.412 3.046 1.715 5.807 3.978 8.003 6.702 2.61 3.236 4.153 6.964 5.663 10.799 2.275 5.778 5.067 10.953 10.298 14.556 4.72 3.251 10.418 4.78 16.077 5.264 14.18 1.215 29.163-3.268 41.9-9.142 6.466-2.981 13.536-6.428 18.078-12.103 3.71-4.635 5.65-11.427 3.347-17.129-1.867-4.62-6.447-7.21-11.359-6.93-5.658.323-9.978 4.157-12.798 8.823-3.548 5.872-5.236 13.002-5.99 19.756-.838 7.523.405 14.768 4.31 21.296 6.566 10.974 17.924 19.029 28.79 25.342 12.55 7.29 26.18 12.873 40.169 16.716 6.57 1.805 13.252 3.19 20.014 4.046.284.035.281-.41 0-.446-14.407-1.821-28.522-6.024-41.866-11.695-12.271-5.215-24.343-11.74-34.509-20.446-5.155-4.415-10.03-9.462-13.21-15.515-4.042-7.694-4.103-16.156-2.42-24.517 1.364-6.781 3.64-14.109 8.803-19.003 4.579-4.34 12.265-5.625 17.16-1.002 5.91 5.58 3.438 15.454-1.208 20.936-4.823 5.69-12.289 9.172-18.98 12.14-7.402 3.284-15.182 5.73-23.139 7.238-6.47 1.227-13.102 1.857-19.654.897-6.01-.881-11.93-3.135-16.349-7.413-5.41-5.237-6.629-12.558-10.175-18.904-6.365-11.388-19.61-15.962-32.066-14.344-7.063.918-14.295 3.297-20.65 6.51-4.06 2.052-7.447 6.514-4.025 10.805 3.85 4.829 9.657 2.165 13.383-1.282 4.396-4.066 8.814-9.362 8.767-15.671-.082-10.949-12.351-16.17-21.533-17.482-11.82-1.69-23.925-1.125-35.487 1.9-24.281 6.35-44.297 23.041-58.199 43.546-7.73 11.4-16.726 22.168-25.962 32.388-9.286 10.276-23.492 18.843-37.74 18.793-4.09-.014-8.127-1.214-10.988-4.25-2.639-2.8-4.12-6.887-3.102-10.694 1.8-6.73 9.866-9.812 15.58-5.815 6.386 4.467 8.018 13.243 7.278 20.499-.68 6.668-3.024 13.18-5.732 19.278-8.923 20.091-25.004 36.872-46.084 44.045-6.296 2.142-12.843 3.389-19.467 3.925-.284.022-.286.468 0 .446" opacity=".7" transform="translate(-143 -16)"/>
                    </g>
                </g>
                <g transform="translate(46)">
                    <rect width="113" height="72" fill="#FEFEFE" rx="5"/>
                    <path fill="#464C5C" fill-rule="nonzero" d="M108 0c2.761 0 5 2.239 5 5v62c0 2.761-2.239 5-5 5H5c-2.761 0-5-2.239-5-5V5c0-2.761 2.239-5 5-5h103zm0 3H5c-1.054 0-1.918.816-1.995 1.85L3 5v62c0 1.054.816 1.918 1.85 1.995L5 69h103c1.054 0 1.918-.816 1.995-1.85L110 67V5c0-1.054-.816-1.918-1.85-1.995L108 3z"/>
                    <rect width="56" height="6" x="29" y="79" fill="#464C58" rx="2"/>
                    <path fill="#FF5859" d="M74 20c8.837 0 16 7.163 16 16s-7.163 16-16 16H40c-8.837 0-16-7.163-16-16s7.163-16 16-16h34zM42.016 31H40v10.784l6 .008V40l-3.984-.008V31zm9 0H49v10.784h2.016V31zm5.176 0H54l3.616 10.784h2.304L63.6 31h-2.16l-1.344 4.288c-.608 1.92-1.04 3.477-1.296 4.672l-.112-.528c-.085-.352-.235-.917-.448-1.696-.213-.779-.453-1.595-.72-2.448L56.192 31zM74 31h-6.828v10.784H74v-1.648h-4.796v-2.928H74v-1.632h-4.796v-2.928H74V31z"/>
                </g>
            </g>
        </g>
    </g>
</svg>
