<svg xmlns="http://www.w3.org/2000/svg" width="38" height="44" viewBox="0 0 38 44">
    <defs>
        <linearGradient id="6c7d0ng2ya" x1="50%" x2="50%" y1="0%" y2="98.836%">
            <stop offset="0%" stop-color="#FF6869"/>
            <stop offset="100%" stop-color="#FFA9AA"/>
        </linearGradient>
        <linearGradient id="vryzm84ogb" x1="22.651%" x2="85.352%" y1="8.794%" y2="87.689%">
            <stop offset="0%" stop-color="#FCDB7E"/>
            <stop offset="54.07%" stop-color="#FFF2B3"/>
            <stop offset="100%" stop-color="#FCDB7E"/>
        </linearGradient>
    </defs>
  <style>.opacity-class { opacity: 0.9; }</style>
    <g fill="none" fill-rule="evenodd">
      <g class="opacity-class" transform="translate(-4602.000000, -1166.000000) translate(4576.000000, 1086.000000) translate(26.000000, 80.000000)">
        <path fill="url(#6c7d0ng2ya)" d="M20.196 1.392H32.196V25.392H20.196z" transform="translate(26.196152, 13.392305) rotate(-510.000000) translate(-26.196152, -13.392305)"/>
        <path fill="#FF5859" d="M22.196 1.392H30.196V25.392H22.196z" transform="translate(26.196152, 13.392305) scale(-1, 1) rotate(-210.000000) translate(-26.196152, -13.392305)"/>
        <path fill="url(#6c7d0ng2ya)" d="M5.196 1.392H17.195999999999998V25.392H5.196z" transform="translate(11.196152, 13.392305) rotate(-210.000000) translate(-11.196152, -13.392305)"/>
        <path fill="#FF5859" d="M7.196 1.392H15.196V25.392H7.196z" transform="translate(11.196152, 13.392305) rotate(-210.000000) translate(-11.196152, -13.392305)"/>
        <path fill="#E9F2FF" d="M23.634 18.61c-.56-.982-1.705-1.412-2.763-1.038l-1.814.642c-.525.185-1.032.182-1.554-.011l-1.806-.666c-1.053-.389-2.204.026-2.777 1.001l-.982 1.671c-.284.483-.675.81-1.197 1.002l-1.806.664c-1.054.387-1.672 1.453-1.492 2.573l.31 1.918c.09.555-.002 1.06-.28 1.546l-.962 1.683c-.561.982-.357 2.2.492 2.94l1.457 1.269c.421.367.672.812.768 1.366l.332 1.915c.194 1.117 1.125 1.917 2.246 1.932l1.922.025c.555.007 1.031.186 1.456.547l1.472 1.25c.858.73 2.08.738 2.948.02l1.488-1.23c.43-.356.908-.528 1.464-.528l1.921.002c1.121 0 2.063-.788 2.271-1.902l.358-1.91c.104-.552.36-.995.786-1.356l1.473-1.248c.86-.729 1.08-1.944.532-2.934l-.94-1.695c-.272-.49-.357-.997-.26-1.55l.336-1.914c.195-1.117-.41-2.191-1.458-2.593l-1.797-.688c-.52-.199-.906-.531-1.184-1.018l-.96-1.684z" transform="translate(18.196152, 29.392305) rotate(-180.000000) translate(-18.196152, -29.392305)"/>
        <circle cx="18.196" cy="29" r="15" fill="#FFCF3A" transform="translate(18.196152, 29.000000) rotate(-180.000000) translate(-18.196152, -29.000000)"/>
        <circle cx="18.196" cy="29" r="12" fill="url(#vryzm84ogb)" transform="translate(18.196152, 29.000000) rotate(-180.000000) translate(-18.196152, -29.000000)"/>
        <path fill="#FBBF0C" fill-rule="nonzero" d="M21.196 34L21.196 32.516 19.524 32.516 19.524 24 17.995 24 15.196 26.487 16.22 27.69 17.801 26.206 17.749 27.075 17.749 32.516 15.857 32.516 15.857 34z"/>
      </g>
    </g>
</svg>
