<svg xmlns="http://www.w3.org/2000/svg" width="38" height="44" viewBox="0 0 38 44">
    <defs>
        <linearGradient id="b2bphrn3ca" x1="50%" x2="50%" y1="0%" y2="98.836%">
            <stop offset="0%" stop-color="#FF6869"/>
            <stop offset="100%" stop-color="#FFA9AA"/>
        </linearGradient>
        <linearGradient id="jl21isxqcb" x1="22.651%" x2="85.785%" y1="8.794%" y2="88.234%">
            <stop offset="0%" stop-color="#C5C8CD"/>
            <stop offset="54.07%" stop-color="#E8E8E8"/>
            <stop offset="100%" stop-color="#C5C8CD"/>
        </linearGradient>
    </defs>
    <g fill="none" fill-rule="evenodd">
        <g>
            <g>
                <g transform="translate(-4602.000000, -1243.000000) translate(4576.000000, 1086.000000) translate(26.000000, 157.000000)">
                    <path fill="url(#b2bphrn3ca)" d="M20.196 1.392H32.196V25.392H20.196z" transform="translate(26.196152, 13.392305) rotate(-510.000000) translate(-26.196152, -13.392305)"/>
                    <path fill="#FF5859" d="M22.196 1.392H30.196V25.392H22.196z" transform="translate(26.196152, 13.392305) scale(-1, 1) rotate(-210.000000) translate(-26.196152, -13.392305)"/>
                    <path fill="url(#b2bphrn3ca)" d="M5.196 1.392H17.195999999999998V25.392H5.196z" transform="translate(11.196152, 13.392305) rotate(-210.000000) translate(-11.196152, -13.392305)"/>
                    <path fill="#FF5859" d="M7.196 1.392H15.196V25.392H7.196z" transform="translate(11.196152, 13.392305) rotate(-210.000000) translate(-11.196152, -13.392305)"/>
                    <path fill="#E9F2FF" d="M23.634 18.61c-.56-.982-1.705-1.412-2.763-1.038l-1.814.642c-.525.185-1.032.182-1.554-.011l-1.806-.666c-1.053-.389-2.204.026-2.777 1.001l-.982 1.671c-.284.483-.675.81-1.197 1.002l-1.806.664c-1.054.387-1.672 1.453-1.492 2.573l.31 1.918c.09.555-.002 1.06-.28 1.546l-.962 1.683c-.561.982-.357 2.2.492 2.94l1.457 1.269c.421.367.672.812.768 1.366l.332 1.915c.194 1.117 1.125 1.917 2.246 1.932l1.922.025c.555.007 1.031.186 1.456.547l1.472 1.25c.858.73 2.08.738 2.948.02l1.488-1.23c.43-.356.908-.528 1.464-.528l1.921.002c1.121 0 2.063-.788 2.271-1.902l.358-1.91c.104-.552.36-.995.786-1.356l1.473-1.248c.86-.729 1.08-1.944.532-2.934l-.94-1.695c-.272-.49-.357-.997-.26-1.55l.336-1.914c.195-1.117-.41-2.191-1.458-2.593l-1.797-.688c-.52-.199-.906-.531-1.184-1.018l-.96-1.684z" transform="translate(18.196152, 29.392305) rotate(-180.000000) translate(-18.196152, -29.392305)"/>
                    <circle cx="18.196" cy="29" r="15" fill="#A9ADB2" transform="translate(18.196152, 29.000000) rotate(-180.000000) translate(-18.196152, -29.000000)"/>
                    <circle cx="18" cy="29" r="12" fill="url(#jl21isxqcb)" transform="translate(18.000000, 29.000000) rotate(-180.000000) translate(-18.000000, -29.000000)"/>
                    <path fill="#A9ADB2" fill-rule="nonzero" d="M21.5 34v-1.658h-3.225c-.152 0-.31.007-.477.02-.165.013-.338.042-.517.085l2.083-2.052c.25-.255.495-.518.732-.79s.45-.552.638-.842c.188-.29.343-.594.464-.914.12-.32.186-.652.195-.994 0-.42-.079-.807-.236-1.158-.156-.35-.374-.65-.651-.9-.278-.25-.612-.446-1.001-.586-.39-.14-.818-.211-1.283-.211-.923 0-1.698.241-2.325.724-.627.482-1.016 1.228-1.169 2.237l1.76.289c.01-.132.02-.25.034-.355.014-.106.038-.206.074-.303.107-.29.291-.542.55-.756.26-.215.579-.323.955-.323.439 0 .786.116 1.041.349.255.232.383.577.383 1.033 0 .509-.148.978-.443 1.408-.296.43-.7.894-1.21 1.394l-3.372 3.25V34h7z"/>
                </g>
            </g>
        </g>
    </g>
</svg>
