<svg width="77" height="46" xmlns="http://www.w3.org/2000/svg" xmlns:xlink="http://www.w3.org/1999/xlink">
    <defs>
        <filter color-interpolation-filters="auto" id="b">
            <feColorMatrix in="SourceGraphic" values="0 0 0 0 0.956863 0 0 0 0 0.976471 0 0 0 0 1.000000 0 0 0 1.000000 0"/>
        </filter>
        <path d="M2.026 0h49.948C53.093 0 54 .886 54 1.98v28.04c0 1.094-.907 1.98-2.026 1.98H2.026C.907 32 0 31.114 0 30.02V1.98C0 .886.907 0 2.026 0z" id="a"/>
    </defs>
    <g fill="none" fill-rule="evenodd">
        <path d="M24.87 5.984h49.947c1.12 0 2.026.887 2.026 1.98v28.04c0 1.094-.907 1.98-2.026 1.98H24.87c-1.12 0-2.027-.886-2.027-1.98V7.964c0-1.093.908-1.98 2.027-1.98z" fill="#124397"/>
        <path d="M13.173 13.838H63.12c1.12 0 2.027.886 2.027 1.98v28.04c0 1.093-.908 1.98-2.027 1.98H13.173c-1.12 0-2.026-.887-2.026-1.98v-28.04c0-1.094.907-1.98 2.026-1.98z" fill="#1060D7"/>
        <use fill="#2581FF" xlink:href="#a"/>
        <g filter="url(#b)" opacity=".7">
            <g fill="#2581FF">
                <path d="M17.628 10.297c.241-.072.507-.155.798-.249.29-.093.617-.179.979-.258.362-.08.766-.144 1.213-.195a13.8 13.8 0 0 1 1.522-.075c1.674 0 2.823.489 3.448 1.468.624.977.73 2.315.32 4.012l-1.448 6.127h-3.172l1.405-5.998c.085-.373.153-.736.203-1.089.05-.352.045-.661-.011-.928a1.1 1.1 0 0 0-.394-.647c-.206-.165-.522-.248-.947-.248-.412 0-.83.043-1.255.13l-2.065 8.78h-3.171l2.575-10.83zM35.417 22.672c-.242.072-.507.155-.798.249-.29.093-.618.179-.979.259-.362.078-.766.143-1.213.194-.448.05-.954.075-1.522.075-1.674 0-2.824-.489-3.448-1.467-.625-.978-.73-2.316-.32-4.013l1.448-6.127h3.171l-1.404 5.998a13.28 13.28 0 0 0-.203 1.09c-.05.351-.046.66.011.927a1.1 1.1 0 0 0 .394.647c.206.165.521.248.947.248.412 0 .83-.043 1.255-.129l2.065-8.781h3.171l-2.575 10.83z"/>
            </g>
        </g>
    </g>
</svg>
