<svg xmlns="http://www.w3.org/2000/svg" xmlns:xlink="http://www.w3.org/1999/xlink" width="116" height="84" viewBox="0 0 116 84">
    <defs>
        <path id="ksn3u66dpa" d="M5 12h111v72H5c-2.761 0-5-2.239-5-5V17c0-2.761 2.239-5 5-5z"/>
    </defs>
    <g fill="none" fill-rule="evenodd">
        <g>
            <g transform="translate(-20 -304) translate(20 304)">
                <mask id="4m0sstzk3b" fill="#fff">
                    <use xlink:href="#ksn3u66dpa"/>
                </mask>
                <g mask="url(#4m0sstzk3b)">
                    <g>
                        <path fill="#FEFEFE" d="M116.566 2.48c16.282-7.908 42.862 3.137 42.774 32.528-.004 1.025-.034 2.036-.09 3.034 2.037-.492 4.574-.648 8.026-.184 12.8 1.721 24.37 18.709 12.869 36.07-11.5 17.36-31.87 19.349-50.125 14.375-2.244-.612-4.359-1.362-6.34-2.23-3.824 1.856-7.803 3.45-11.858 4.79-39.394 13.008-71.477-16.902-55.978-44.41 7.649-13.575 15.703-15.311 23.283-15.885l.796-.056 2.756-.17.778-.052c4.134-.294 8.066-.87 11.64-3.617 2.986-2.297 4.66-4.625 5.936-6.968l.235-.44.227-.44.22-.44.215-.44.315-.66.835-1.778.312-.646.16-.323.247-.484.256-.485.267-.484.185-.323.095-.162.195-.323.201-.323.104-.162.213-.323.221-.322.114-.162.235-.323.245-.323c.374-.484.783-.967 1.233-1.45l.307-.323c1.984-2.04 4.75-4.073 8.896-6.086z" opacity=".2" transform="translate(-69 -2)"/>
                        <path fill="#FFF" stroke="#FEFEFE" d="M.103 96.787c6.094-.494 12.018-2.306 17.175-5.632 4.411-2.844 8.135-6.669 11.046-11.029 2.93-4.39 5.402-9.58 6.297-14.81.554-3.238.325-6.743-1.568-9.53-1.383-2.035-3.693-3.446-6.178-2.66-2.382.754-3.973 3.093-3.672 5.593.345 2.87 2.762 4.99 5.52 5.458 3.168.537 6.68-.453 9.597-1.644 3.038-1.24 5.838-3.033 8.273-5.232 2.509-2.265 4.587-5.008 6.766-7.583 2.24-2.648 4.479-5.313 6.498-8.137 2.016-2.82 3.9-5.68 6.195-8.292 2.132-2.426 4.471-4.676 7.009-6.674 4.981-3.923 10.722-6.863 16.884-8.387 3.033-.75 6.146-1.157 9.27-1.222 3.13-.064 6.452.08 9.493.88 2.766.728 5.72 2.236 7.176 4.817 1.962 3.478-.037 7.022-2.498 9.598-1.347 1.41-3.296 3.257-5.428 2.613-2.222-.671-2.9-3.342-1.27-4.97 1.284-1.284 3.357-1.888 5.009-2.501 1.854-.689 3.76-1.256 5.714-1.576 3.737-.614 7.598-.229 10.933 1.653 1.474.832 2.81 1.93 3.872 3.25 1.263 1.57 2.01 3.376 2.74 5.236 1.1 2.802 2.451 5.31 4.982 7.058 2.284 1.576 5.04 2.317 7.778 2.552 6.86.589 14.11-1.585 20.271-4.433 3.128-1.445 6.549-3.116 8.746-5.868 1.795-2.247 2.734-5.54 1.62-8.305-.904-2.24-3.12-3.496-5.496-3.36-2.737.157-4.827 2.016-6.192 4.278-1.716 2.847-2.533 6.304-2.897 9.578-.406 3.648.196 7.16 2.085 10.326 3.176 5.32 8.671 9.226 13.928 12.287 6.071 3.535 12.665 6.242 19.434 8.105 3.179.875 6.41 1.547 9.683 1.961.137.017.136-.199 0-.216-6.97-.883-13.8-2.92-20.255-5.67-5.937-2.528-11.777-5.692-16.695-9.913-2.495-2.141-4.853-4.588-6.391-7.523-1.956-3.73-1.985-7.833-1.172-11.887.66-3.288 1.762-6.84 4.26-9.213 2.215-2.105 5.934-2.728 8.302-.486 2.859 2.705 1.663 7.493-.585 10.15-2.333 2.76-5.945 4.448-9.182 5.887-3.582 1.592-7.345 2.778-11.195 3.509-3.13.595-6.339.9-9.509.435-2.907-.427-5.77-1.52-7.909-3.594-2.617-2.54-3.207-6.089-4.923-9.166-3.079-5.522-9.487-7.74-15.513-6.954-3.417.445-6.916 1.598-9.99 3.156-1.964.995-3.603 3.158-1.948 5.239 1.863 2.34 4.672 1.05 6.475-.622 2.127-1.972 4.264-4.54 4.241-7.598-.04-5.309-5.975-7.84-10.417-8.476-5.719-.82-11.575-.546-17.169.92-11.747 3.08-21.43 11.173-28.156 21.114-3.74 5.527-8.092 10.748-12.56 15.703-4.493 4.983-11.366 9.136-18.259 9.112-1.979-.006-3.932-.588-5.316-2.06-1.276-1.358-1.993-3.34-1.5-5.185.87-3.263 4.773-4.758 7.537-2.82 3.09 2.166 3.88 6.421 3.52 9.94-.328 3.232-1.462 6.389-2.772 9.346C27.5 83.054 19.72 91.191 9.52 94.668c-3.046 1.039-6.213 1.643-9.418 1.903-.137.011-.138.227 0 .216" opacity=".7" transform="translate(-69 -2)"/>
                    </g>
                </g>
                <g transform="translate(14)">
                    <rect width="66" height="42" fill="#FEFEFE" rx="5"/>
                    <path fill="#464C5C" fill-rule="nonzero" d="M63.08 0C64.693 0 66 1.306 66 2.917v36.166C66 40.694 64.693 42 63.08 42H2.92C1.307 42 0 40.694 0 39.083V2.917C0 1.306 1.307 0 2.92 0h60.16zm0 1.75H2.92c-.615 0-1.12.476-1.165 1.08l-.003.087v36.166c0 .615.477 1.12 1.081 1.164l.087.003h60.16c.615 0 1.12-.476 1.165-1.08l.003-.087V2.917c0-.615-.477-1.12-1.081-1.164l-.087-.003z"/>
                    <rect width="33" height="4" x="17" y="46" fill="#464C58" rx="2"/>
                    <path fill="#FF5859" d="M43.5 12c5.247 0 9.5 4.253 9.5 9.5S48.747 31 43.5 31h-20c-5.247 0-9.5-4.253-9.5-9.5s4.253-9.5 9.5-9.5h20zm-18.854 6.531h-1.191v6.403L27 24.94v-1.064l-2.354-.005v-5.339zm5.318 0h-1.191v6.403h1.191v-6.403zm3.059 0h-1.296l2.137 6.403h1.361l2.175-6.403h-1.276l-.795 2.546c-.359 1.14-.614 2.065-.765 2.774l-.067-.313c-.05-.21-.138-.545-.264-1.007-.126-.463-.268-.947-.426-1.454l-.784-2.546zm10.522 0h-4.034v6.403h4.034v-.978h-2.834v-1.739h2.834v-.969h-2.834V19.51h2.834v-.979z"/>
                </g>
            </g>
        </g>
    </g>
</svg>
