<svg xmlns="http://www.w3.org/2000/svg" width="148" height="148">
  <defs>
    <linearGradient id="y6n27f65ma" x1="50%" x2="50%" y1="0%" y2="113.01%">
      <stop offset="0%" stop-color="#898E9B"/>
      <stop offset="100%" stop-color="#A5ABBA"/>
    </linearGradient>
    <linearGradient id="y2vo6jbzub" x1="50%" x2="50%" y1="-8.166%" y2="113.01%">
      <stop offset="0%" stop-color="#E8ECF2"/>
      <stop offset="100%" stop-color="#C3C8D2"/>
    </linearGradient>
  </defs>
  <g fill="none" fill-rule="evenodd">
    <circle cx="74" cy="74" r="74" fill="#FFF" opacity=".7"/>
    <path fill="url(#y6n27f65ma)" fill-rule="nonzero" d="M2.621 0h62.758a1.308 1.308 0 011.045 2.094l-1.955 2.597a1.308 1.308 0 01-1.045.521H4.576c-.411 0-.798-.193-1.045-.521L1.576 2.094A1.308 1.308 0 012.62 0z" transform="rotate(10 -123.166 287.101)"/>
    <path fill="url(#y6n27f65ma)" fill-rule="nonzero" d="M2.621 80.788h62.758a1.308 1.308 0 011.045 2.094l-1.955 2.597a1.308 1.308 0 01-1.045.521H4.576c-.411 0-.798-.193-1.045-.521l-1.955-2.597a1.308 1.308 0 011.045-2.094z" transform="rotate(-170 51.822 97.144)"/>
    <path fill="url(#y2vo6jbzub)" d="M57.538 7.818a2.618 2.618 0 012.609 2.424l.007.196v6.368c0 12.205-8.335 22.46-19.615 25.369v.004a.916.916 0 00-.096 1.582l.095.063c11.126 2.87 19.387 12.885 19.611 24.87l.005.5v6.368a2.619 2.619 0 01-2.42 2.613l-.196.007H10.462a2.618 2.618 0 01-2.609-2.424l-.007-.196v-6.368c0-12.056 8.132-22.209 19.201-25.258l.415-.112.095-.063a.918.918 0 00.021-1.512l-.116-.07C16.336 39.307 8.075 29.291 7.85 17.307l-.005-.5v-6.37a2.618 2.618 0 012.42-2.612l.196-.007h47.076z" transform="rotate(10 -123.166 287.101)"/>
    <path fill="#717682" d="M97.007 62.153c-4.937 6.772-13.516 10.53-22.4 8.963-8.846-1.56-15.604-7.978-17.954-15.984-.205-.696.174-.988.657-.903l39.463 6.959c.628.11.51.587.235.965z"/>
    <path fill="#717682" d="M71.472 94.093c-.258.9-.902.71-1.93-.57l3.3-18.72c.088-.496-.562-2.44-1.724-3.634-.72-.74-1.822-1.53-3.309-2.371l-.348-.195 6.28 1.107-.031.177 1.97.347.03-.177 6.28 1.108c-1.874.29-3.312.677-4.312 1.16-1.502.725-2.778 2.33-2.865 2.826-.088.497-2.953 17.591-3.34 18.942z"/>
    <path fill="#717682" d="M46.45 97.85c8.657-4.13 16.79-6.117 24.396-5.964 7.598 2.604 14.567 7.254 20.905 13.951.284.3.41.718.338 1.126l-.338 1.917a1.308 1.308 0 01-1.515 1.061l-43.786-7.72a1.308 1.308 0 01-1.06-1.515l.335-1.902c.074-.417.344-.772.725-.954z"/>
  </g>
</svg>
