<svg xmlns="http://www.w3.org/2000/svg" width="83" height="61" viewBox="0 0 83 61">
    <g fill="none" fill-rule="evenodd">
        <g>
            <g transform="translate(-498 -758) translate(498 758)">
                <path fill="#FF5859" d="M21.448 2.192c1.368 4.893 3.772 9.806 7.21 14.738 3.954 5.67 8.036 10.176 12.246 13.52V46c-12.202-8.548-21.366-18.238-27.491-29.07-2.586-4.573-4.55-9.378-5.894-14.415-.285-1.067.35-2.163 1.417-2.447C9.104.023 9.277 0 9.45 0h9.108c1.345 0 2.526.896 2.889 2.192z"/>
                <path fill="#FF5859" d="M53.448 2.192c1.368 4.893 3.772 9.806 7.21 14.738 3.954 5.67 8.036 10.176 12.246 13.52V46c-12.202-8.548-21.366-18.238-27.491-29.07-2.586-4.573-4.55-9.378-5.894-14.415-.285-1.067.35-2.163 1.417-2.447.168-.045.341-.068.515-.068h9.108c1.345 0 2.526.896 2.889 2.192z" transform="matrix(-1 0 0 1 111.808 0)"/>
                <circle cx="39.904" cy="39" r="21" fill="#FAC42D" stroke="#FFE291" stroke-width="2"/>
                <text fill="#333" font-weight="700" font-size="18" font-weight="bold">
                    <tspan x="25.904" y="47">1위</tspan>
                </text>
                <path fill="#FF5859" d="M78.635 34L75.904 37.523 79.811 39 81.529 36.5z" transform="rotate(135 78.716 36.5)"/>
                <path fill="#FAC42D" d="M4.731 14.257L2 17.78 5.907 19.257 7.625 16.757z" transform="rotate(135 4.813 16.757)"/>
                <path fill="#F5F6F7" d="M35.635 6L32.904 9.523 36.811 11 38.529 8.5z" transform="rotate(135 35.716 8.5)"/>
                <path fill="#0080FF" d="M49.635 10L46.904 13.523 50.811 15 52.529 12.5z" transform="rotate(170 49.716 12.5)"/>
                <path fill="#FAC42D" d="M66.635 15L63.904 18.523 67.811 20 69.529 17.5z" transform="rotate(-135 66.716 17.5)"/>
                <path fill="#FF5859" d="M5.399 34.257L2 38.485 6.862 40.257 9 37.257z" transform="rotate(45 5.5 37.257)"/>
                <path fill="#61BB56" d="M15.659 21.257L14 25.257 18.74 27.524 20.075 22.873z"/>
                <path fill="#61BB56" d="M64.563 26L62.904 29.191 67.644 31 68.979 27.29z" transform="rotate(90 65.941 28.5)"/>
            </g>
        </g>
    </g>
</svg>
