<svg xmlns="http://www.w3.org/2000/svg" width="38" height="44" viewBox="0 0 38 44">
    <defs>
        <linearGradient id="vcuunqj44a" x1="50%" x2="50%" y1="0%" y2="98.836%">
            <stop offset="0%" stop-color="#FF6869"/>
            <stop offset="100%" stop-color="#FFA9AA"/>
        </linearGradient>
        <linearGradient id="e5ex7b6dzb" x1="14.527%" x2="88.874%" y1="13.526%" y2="85.664%">
            <stop offset="0%" stop-color="#D9955F"/>
            <stop offset="50.768%" stop-color="#E3B47A"/>
            <stop offset="100%" stop-color="#D9955F"/>
        </linearGradient>
    </defs>
    <g fill="none" fill-rule="evenodd">
        <g>
            <g>
                <g transform="translate(-4602.000000, -1320.000000) translate(4576.000000, 1086.000000) translate(26.000000, 234.000000)">
                    <path fill="url(#vcuunqj44a)" d="M20.196 1.392H32.196V25.392H20.196z" transform="translate(26.196152, 13.392305) rotate(-510.000000) translate(-26.196152, -13.392305)"/>
                    <path fill="#FF5859" d="M22.196 1.392H30.196V25.392H22.196z" transform="translate(26.196152, 13.392305) scale(-1, 1) rotate(-210.000000) translate(-26.196152, -13.392305)"/>
                    <path fill="url(#vcuunqj44a)" d="M5.196 1.392H17.195999999999998V25.392H5.196z" transform="translate(11.196152, 13.392305) rotate(-210.000000) translate(-11.196152, -13.392305)"/>
                    <path fill="#FF5859" d="M7.196 1.392H15.196V25.392H7.196z" transform="translate(11.196152, 13.392305) rotate(-210.000000) translate(-11.196152, -13.392305)"/>
                    <path fill="#E9F2FF" d="M23.634 18.61c-.56-.982-1.705-1.412-2.763-1.038l-1.814.642c-.525.185-1.032.182-1.554-.011l-1.806-.666c-1.053-.389-2.204.026-2.777 1.001l-.982 1.671c-.284.483-.675.81-1.197 1.002l-1.806.664c-1.054.387-1.672 1.453-1.492 2.573l.31 1.918c.09.555-.002 1.06-.28 1.546l-.962 1.683c-.561.982-.357 2.2.492 2.94l1.457 1.269c.421.367.672.812.768 1.366l.332 1.915c.194 1.117 1.125 1.917 2.246 1.932l1.922.025c.555.007 1.031.186 1.456.547l1.472 1.25c.858.73 2.08.738 2.948.02l1.488-1.23c.43-.356.908-.528 1.464-.528l1.921.002c1.121 0 2.063-.788 2.271-1.902l.358-1.91c.104-.552.36-.995.786-1.356l1.473-1.248c.86-.729 1.08-1.944.532-2.934l-.94-1.695c-.272-.49-.357-.997-.26-1.55l.336-1.914c.195-1.117-.41-2.191-1.458-2.593l-1.797-.688c-.52-.199-.906-.531-1.184-1.018l-.96-1.684z" transform="translate(18.196152, 29.392305) rotate(-180.000000) translate(-18.196152, -29.392305)"/>
                    <circle cx="18.196" cy="29" r="15" fill="#C37D45" transform="translate(18.196152, 29.000000) rotate(-180.000000) translate(-18.196152, -29.000000)"/>
                    <circle cx="18" cy="29" r="12" fill="url(#e5ex7b6dzb)" transform="translate(18.000000, 29.000000) rotate(-180.000000) translate(-18.000000, -29.000000)"/>
                    <path fill="#C37D45" fill-rule="nonzero" d="M18.013 34c.456 0 .895-.064 1.316-.193.421-.128.79-.318 1.105-.57.316-.253.57-.568.763-.944.193-.377.294-.809.303-1.297 0-.565-.13-1.033-.388-1.405-.259-.373-.678-.666-1.257-.88.413-.197.761-.464 1.046-.802.285-.338.428-.781.428-1.329.009-.36-.057-.693-.197-1.001-.14-.308-.345-.578-.612-.809-.268-.23-.59-.415-.967-.552-.378-.137-.794-.21-1.25-.218-.93 0-1.696.235-2.296.706-.601.47-.998 1.19-1.191 2.157.29.042.577.092.862.147.285.056.568.105.848.148.035-.214.084-.415.145-.603.114-.309.298-.559.553-.751.254-.193.579-.29.973-.29.43 0 .766.11 1.007.328.241.218.357.55.349.995 0 .205-.031.391-.092.558-.062.167-.172.313-.33.437-.157.124-.377.22-.657.289-.281.068-.636.107-1.066.115v1.284c.509 0 .917.036 1.224.109.307.073.54.175.697.308.158.133.26.293.31.481.047.189.072.394.072.617 0 .18-.036.355-.106.526-.07.171-.177.323-.322.456-.145.132-.325.24-.54.32-.214.082-.467.123-.756.123-.228 0-.428-.039-.599-.116-.17-.077-.324-.173-.46-.289-.136-.115-.255-.244-.356-.385-.1-.141-.195-.302-.283-.481-.087-.18-.149-.334-.184-.462l-1.605.616c.132.42.296.793.493 1.123.198.33.435.608.71.834.277.227.606.4.988.52.381.12.822.18 1.322.18z"/>
                </g>
            </g>
        </g>
    </g>
</svg>
