<svg width="59" height="41" xmlns="http://www.w3.org/2000/svg" xmlns:xlink="http://www.w3.org/1999/xlink">
    <defs>
        <path id="a" d="M0 0h5.669v6.467H0z"/>
        <path id="c" d="M0 0h30.326v25.769H0z"/>
        <path id="e" d="M0 0h11.132v7.103H0z"/>
    </defs>
    <g fill="none" fill-rule="evenodd">
        <path d="M27 38c4.277 0 8.322-.681 11.916-1.895.937.207 1.484.392 2.741 1.307 1.257.916 1.41 1.73 1.624 3.228 1.185-1.05 2.53-2.509 3.165-4.337.769-2.212.276-4.15.92-4.657C51.499 28.396 54 24.148 54 19.5 54 9.283 41.912 1 27 1S0 9.283 0 19.5 12.088 38 27 38z" fill="#519AFF"/>
        <rect fill="#2581FF" x="15" y="12" width="25" height="2" rx="1"/>
        <rect fill="#2581FF" x="15" y="18" width="25" height="2" rx="1"/>
        <rect fill="#2581FF" x="15" y="24" width="10.345" height="2" rx="1"/>
        <path d="m58.572 4.518-2.906-2.887a1.458 1.458 0 0 0-2.054 0l-2.906 2.887a1.435 1.435 0 0 0 0 2.041l2.906 2.888c.283.281.655.423 1.027.423.372 0 .744-.142 1.027-.423l2.906-2.888a1.435 1.435 0 0 0 0-2.04" fill="#1060D7"/>
        <g transform="translate(53.331 3.405)">
            <mask id="b" fill="#fff">
                <use xlink:href="#a"/>
            </mask>
            <path d="M5.244 3.147 2.338 6.034a1.447 1.447 0 0 1-2.063 0L0 5.76A114.453 114.453 0 0 0 4.125 0l1.119 1.112a1.429 1.429 0 0 1 0 2.035" fill="#124397" mask="url(#b)"/>
        </g>
        <path d="M39.382 9.148c-.372 0-.744-.142-1.027-.423a1.435 1.435 0 0 1 0-2.041L44.232.846a2.919 2.919 0 0 1 4.11 0l2.876 2.858a1.435 1.435 0 0 1 0 2.041 1.46 1.46 0 0 1-2.054 0l-2.877-2.858-5.878 5.838a1.454 1.454 0 0 1-1.027.423" fill="#1060D7"/>
        <path d="M57.326 10.362c0 .39-.158.751-.421 1.025L38.132 30.054l-1.029 1.007c-.205.2-.462.337-.744.393l-7.614 1.516c-.101.014-.189.029-.29.029-.378 0-.756-.145-1.032-.42a1.463 1.463 0 0 1-.392-1.313l1.53-7.588c.055-.27.19-.52.39-.713l1.03-1.01L49.779 2.27l7.127 7.08c.263.26.421.636.421 1.011" fill="#FEFEFE"/>
        <g transform="translate(27 7.231)">
            <mask id="d" fill="#fff">
                <use xlink:href="#c"/>
            </mask>
            <path d="M30.326 3.133c0 .39-.16.75-.421 1.025L11.132 22.824l-1.032 1.01a1.48 1.48 0 0 1-.742.39L1.745 25.74c-.101.014-.19.029-.29.029-.378 0-.757-.145-1.032-.419a1.464 1.464 0 0 1-.394-1.314l.714-3.58C7.658 19.475 17.06 14.667 27.768 0l2.137 2.122c.262.26.421.635.421 1.01" fill="#B7C6E2" opacity=".497" mask="url(#d)"/>
        </g>
        <path d="m38.132 30.054-1.032 1.01a1.477 1.477 0 0 1-.74.39l-7.614 1.516c-.102.014-.19.029-.291.029-.378 0-.756-.145-1.032-.419a1.463 1.463 0 0 1-.392-1.314l1.526-7.564c.058-.274.189-.534.393-.736l1.032-1.01 8.15 8.098z" fill="#1060D7"/>
        <g transform="translate(27 25.897)">
            <mask id="f" fill="#fff">
                <use xlink:href="#e"/>
            </mask>
            <path d="M11.132 4.158 10.1 5.168a1.48 1.48 0 0 1-.742.39L1.746 7.074c-.102.014-.19.029-.291.029-.378 0-.757-.145-1.032-.419A1.464 1.464 0 0 1 .03 5.37l.727-3.58C2.645 1.53 4.71.967 6.946 0l4.186 4.158z" fill="#124397" mask="url(#f)"/>
        </g>
    </g>
</svg>
