<svg xmlns="http://www.w3.org/2000/svg" xmlns:xlink="http://www.w3.org/1999/xlink" width="268" height="171" viewBox="0 0 268 171">
    <defs>
        <linearGradient id="7cobou2kzb" x1="50%" x2="50%" y1="100%" y2="0%">
            <stop offset="0%" stop-color="#0080FF"/>
            <stop offset="100%" stop-color="#FFF" stop-opacity="0"/>
        </linearGradient>
        <linearGradient id="c2dkpmq29h" x1="0%" x2="100%" y1="50%" y2="50%">
            <stop offset="0%" stop-color="#BABABA" stop-opacity=".559"/>
            <stop offset="100%" stop-color="#989898"/>
        </linearGradient>
        <linearGradient id="sauc8suegk" x1="50%" x2="50%" y1="153.795%" y2=".576%">
            <stop offset="0%" stop-color="#FFF"/>
            <stop offset="100%" stop-color="#8CA8F9"/>
        </linearGradient>
        <linearGradient id="nmo37fjcml" x1="97.627%" x2="0%" y1="50%" y2="50%">
            <stop offset="0%" stop-opacity=".264"/>
            <stop offset="100%" stop-color="#BDBDBD" stop-opacity=".062"/>
        </linearGradient>
        <linearGradient id="ujxfbooqcn" x1="0%" x2="100%" y1="50%" y2="50%">
            <stop offset="0%" stop-color="#FFF"/>
            <stop offset="100%" stop-color="#F4F4F6"/>
        </linearGradient>
        <path id="iw8jbxwc1a" d="M0 0H268V171H0z"/>
        <path id="5ef3efb00d" d="M0 138.818L209.736 138.818 209.736 0 0 0z"/>
        <path id="1g9xtdtu4f" d="M34.995 0.36L17.523 12.763 0.052 0.36z"/>
        <path id="qrfz6gkxvi" d="M42.316 0.246L21.259 15.195 0.201 0.246z"/>
        <path id="to20qxvkzm" d="M3.372.408C1.54.408.04 1.908.04 3.74v54.797c0 1.832 1.499 3.331 3.33 3.331h113.264c1.833 0 3.332-1.499 3.332-3.33V3.738c0-1.832-1.5-3.33-3.332-3.33H3.372z"/>
    </defs>
    <g fill="none" fill-rule="evenodd">
        <g>
            <g transform="translate(-92 -99) translate(92 99)">
                <mask id="0b23whdikc" fill="#fff">
                    <use xlink:href="#iw8jbxwc1a"/>
                </mask>
                <path fill="url(#7cobou2kzb)" d="M0 215.196c0 118.714 62.904 214.95 140.5 214.95S281 333.91 281 215.197C281 96.48 218.096.244 140.5.244S0 96.481 0 215.196z" mask="url(#0b23whdikc)"/>
                <g mask="url(#0b23whdikc)" opacity=".4">
                    <g transform="translate(76 32)">
                        <path fill="#EDEDED" d="M125.477 94.863c0 1.725-1.412 3.137-3.137 3.137H36.45c-1.725 0-3.137-1.412-3.137-3.137V39.678c0-1.725 1.412-3.137 3.137-3.137h85.889c1.725 0 3.137 1.412 3.137 3.137v55.185z"/>
                        <mask id="6pm56nrf0e" fill="#fff">
                            <use xlink:href="#5ef3efb00d"/>
                        </mask>
                        <path fill="#EAEAEA" d="M151.987 32.586L186.93 32.586 186.93 11.919 151.987 11.919z" mask="url(#6pm56nrf0e)"/>
                        <path fill="#F4F5F7" d="M169.458 19.668L151.986 32.586 186.93 32.586z" mask="url(#6pm56nrf0e)"/>
                        <g mask="url(#6pm56nrf0e)">
                            <g transform="translate(151.935 11.56)">
                                <mask id="iu4icymmbg" fill="#fff">
                                    <use xlink:href="#1g9xtdtu4f"/>
                                </mask>
                                <path d="M17.523 12.763L34.995 0.36 0.052 0.36z" mask="url(#iu4icymmbg)"/>
                            </g>
                        </g>
                        <path fill="#FFF" d="M169.458 23.652L186.93 11.919 151.987 11.919z" mask="url(#6pm56nrf0e)"/>
                        <path fill="url(#c2dkpmq29h)" d="M160.792 32.586L186.929 32.586 186.929 18.683 160.792 18.683z" mask="url(#6pm56nrf0e)" opacity=".283"/>
                        <path fill="#000" d="M151.935 32.763L186.878 32.763 186.878 12.097 151.935 12.097z" mask="url(#6pm56nrf0e)" opacity=".117"/>
                        <path fill="#EAEAEA" d="M167.62 46.875L209.736 46.875 209.736 21.967 167.62 21.967z" mask="url(#6pm56nrf0e)"/>
                        <path fill="#F4F5F7" d="M188.678 31.306L167.62 46.876 209.736 46.876z" mask="url(#6pm56nrf0e)"/>
                        <g mask="url(#6pm56nrf0e)">
                            <g transform="translate(167.42 21.721)">
                                <mask id="nzezj44drj" fill="#fff">
                                    <use xlink:href="#qrfz6gkxvi"/>
                                </mask>
                                <path d="M21.259 15.195L42.316 0.246 0.201 0.246z" mask="url(#nzezj44drj)"/>
                            </g>
                        </g>
                        <path fill="#FFF" d="M188.678 36.108L209.736 21.967 167.62 21.967z" mask="url(#6pm56nrf0e)"/>
                        <path fill="url(#sauc8suegk)" fill-opacity=".35" d="M38.846 89.402L119.945 89.402 119.945 57.361 38.846 57.361z" mask="url(#6pm56nrf0e)"/>
                        <path fill="url(#nmo37fjcml)" d="M67.847 98V64.262c0-1.812 1.469-3.281 3.282-3.281h54.348v33.737c0 1.812-1.47 3.282-3.282 3.282H67.847z" mask="url(#6pm56nrf0e)" opacity=".563"/>
                        <g mask="url(#6pm56nrf0e)">
                            <g transform="translate(79.355 68.656)">
                                <mask id="am44sr38so" fill="#fff">
                                    <use xlink:href="#to20qxvkzm"/>
                                </mask>
                                <path fill="url(#ujxfbooqcn)" d="M3.372.408C1.54.408.04 1.908.04 3.74v54.797c0 1.832 1.499 3.331 3.33 3.331h113.264c1.833 0 3.332-1.499 3.332-3.33V3.738c0-1.832-1.5-3.33-3.332-3.33H3.372z" mask="url(#am44sr38so)"/>
                            </g>
                        </g>
                        <path fill="#B8BCC1" d="M85.929 83.037L192.787 83.037 192.787 82.704 85.929 82.704zM85.929 95.286L192.787 95.286 192.787 94.953 85.929 94.953zM85.929 107.535L192.787 107.535 192.787 107.202 85.929 107.202zM85.929 119.784L192.787 119.784 192.787 119.451 85.929 119.451z" mask="url(#6pm56nrf0e)"/>
                        <path fill="#FFBC1D" d="M145.132 54.88l.738-3.218.737 3.218c.058.25.253.446.503.503l3.217.738-3.217.738c-.25.057-.445.252-.503.502l-.737 3.218-.738-3.218c-.058-.25-.252-.445-.503-.502l-3.218-.738 3.218-.738c.25-.057.445-.252.503-.503M137.733 38.975l.464-2.025.464 2.025c.036.157.159.28.316.316l2.025.464-2.025.464c-.157.036-.28.16-.316.317l-.464 2.024-.464-2.024c-.037-.158-.16-.28-.317-.317l-2.024-.464 2.024-.464c.157-.036.28-.159.317-.316" mask="url(#6pm56nrf0e)"/>
                        <path fill="#8DA9FA" d="M48.876 48.467c0 1.764-1.43 3.195-3.196 3.195-1.764 0-3.194-1.43-3.194-3.195 0-1.764 1.43-3.195 3.194-3.195 1.766 0 3.196 1.431 3.196 3.195" mask="url(#6pm56nrf0e)"/>
                        <path fill="#CED1D8" d="M52.389 50.966L118.416 50.966 118.416 45.969 52.389 45.969z" mask="url(#6pm56nrf0e)"/>
                        <path fill="#0080FF" d="M37.524 39.76c0 .277-.224.501-.5.501-.277 0-.5-.224-.5-.5 0-.277.223-.5.5-.5.276 0 .5.223.5.5M39.525 39.76c0 .277-.224.501-.5.501s-.5-.224-.5-.5c0-.277.224-.5.5-.5s.5.223.5.5M41.528 39.76c0 .277-.225.501-.5.501-.277 0-.501-.224-.501-.5 0-.277.224-.5.5-.5s.5.223.5.5" mask="url(#6pm56nrf0e)"/>
                        <path fill="#333" d="M90.913 80.523c.177 0 .32-.09.43-.271.108-.18.163-.458.161-.832 0-.245-.024-.447-.075-.607-.049-.16-.118-.278-.206-.357-.089-.078-.192-.117-.31-.117-.176 0-.317.088-.426.265-.108.178-.162.45-.164.816 0 .248.023.455.073.618.049.163.118.285.207.365.09.08.193.12.31.12m0 .67c-.296 0-.551-.07-.765-.21-.214-.141-.38-.344-.495-.608-.116-.265-.174-.583-.173-.955.002-.372.06-.688.175-.948.116-.26.28-.458.494-.594.213-.137.468-.205.764-.205s.551.068.766.205c.214.136.38.334.496.595.116.26.173.576.172.947 0 .373-.058.692-.174.957-.116.266-.28.468-.494.607-.213.14-.469.21-.766.21M94.386 77.719L94.386 81.111 93.568 81.111 93.568 78.484 93.548 78.484 92.789 78.949 92.789 78.239 93.626 77.719zM90.913 92.772c.177 0 .32-.09.43-.27.108-.181.163-.458.161-.832 0-.246-.024-.448-.075-.608-.049-.159-.118-.278-.206-.356-.089-.079-.192-.118-.31-.118-.176 0-.317.088-.426.266-.108.177-.162.449-.164.816 0 .248.023.454.073.617.049.164.118.285.207.365.09.08.193.12.31.12m0 .671c-.296 0-.551-.07-.765-.21-.214-.142-.38-.344-.495-.61-.116-.263-.174-.581-.173-.953.002-.372.06-.688.175-.949.116-.26.28-.458.494-.594.213-.136.468-.205.764-.205s.551.069.766.205c.214.136.38.334.496.595.116.26.173.577.172.948 0 .373-.058.692-.174.957-.116.265-.28.467-.494.607-.213.14-.469.21-.766.21M92.817 93.36v-.59l1.238-1.082c.092-.084.17-.161.236-.231.066-.07.115-.141.15-.212.034-.071.05-.15.05-.233 0-.094-.02-.174-.06-.241-.042-.067-.098-.118-.17-.155-.071-.036-.154-.054-.247-.054s-.176.018-.246.057c-.07.038-.126.093-.165.165-.039.071-.058.158-.058.26h-.777c0-.23.051-.429.156-.597.103-.168.249-.297.437-.388.189-.091.408-.137.657-.137.257 0 .481.043.67.13.19.086.337.206.442.36.104.154.157.332.157.536 0 .128-.027.257-.078.384-.053.127-.145.267-.28.42-.134.154-.324.338-.57.551l-.405.375v.021h1.374v.661h-2.51zM90.913 105.022c.177 0 .32-.09.43-.271.108-.18.163-.458.161-.832 0-.245-.024-.447-.075-.607-.049-.16-.118-.278-.206-.357-.089-.078-.192-.117-.31-.117-.176 0-.317.088-.426.265-.108.177-.162.45-.164.816 0 .248.023.454.073.618.049.163.118.284.207.364.09.08.193.12.31.12m0 .671c-.296 0-.551-.07-.765-.21-.214-.141-.38-.344-.495-.609-.116-.264-.174-.582-.173-.954.002-.372.06-.688.175-.948.116-.26.28-.459.494-.595.213-.136.468-.204.764-.204s.551.068.766.204c.214.136.38.335.496.596.116.26.173.576.172.947 0 .373-.058.692-.174.957-.116.265-.28.467-.494.607-.213.14-.469.21-.766.21M94.107 105.656c-.258 0-.487-.045-.686-.133-.2-.09-.356-.212-.472-.369-.114-.157-.173-.337-.175-.541h.825c.003.074.027.14.071.196.044.057.104.101.18.133.077.032.164.049.26.049.098 0 .184-.018.258-.053.074-.035.133-.083.174-.144.042-.061.063-.131.062-.211.001-.08-.021-.15-.067-.212-.047-.062-.113-.11-.197-.144-.084-.034-.184-.052-.299-.052h-.329v-.582h.33c.1 0 .188-.017.265-.05.077-.033.136-.08.18-.14.043-.06.064-.13.063-.208 0-.076-.017-.143-.054-.2-.037-.06-.089-.104-.154-.136-.066-.032-.142-.048-.228-.048-.09 0-.173.016-.246.048-.073.032-.132.077-.174.136-.044.058-.066.126-.069.203h-.783c.002-.202.059-.38.169-.534.11-.153.26-.274.451-.361.191-.087.408-.131.652-.131.243 0 .456.042.64.127.186.085.329.201.432.347.102.146.153.312.153.496.002.191-.06.349-.186.472-.125.124-.286.2-.483.228v.027c.263.031.461.116.596.255.134.14.2.313.2.522 0 .196-.058.37-.174.522-.115.152-.275.271-.48.358-.205.087-.44.13-.705.13" mask="url(#6pm56nrf0e)"/>
                    </g>
                </g>
            </g>
        </g>
    </g>
</svg>
