<svg xmlns="http://www.w3.org/2000/svg" xmlns:xlink="http://www.w3.org/1999/xlink" width="936" height="166" viewBox="0 0 936 166">
    <defs>
        <filter id="hfe2jf0ule" width="158.5%" height="255%" x="-29.2%" y="-77.5%" filterUnits="objectBoundingBox">
            <feOffset dy="6" in="SourceAlpha" result="shadowOffsetOuter1"/>
            <feGaussianBlur in="shadowOffsetOuter1" result="shadowBlurOuter1" stdDeviation="5"/>
            <feColorMatrix in="shadowBlurOuter1" result="shadowMatrixOuter1" values="0 0 0 0 0 0 0 0 0 0 0 0 0 0 0 0 0 0 0.2 0"/>
            <feMerge>
                <feMergeNode in="shadowMatrixOuter1"/>
                <feMergeNode in="SourceGraphic"/>
            </feMerge>
        </filter>
        <rect id="mm484stiba" width="936" height="166" x="0" y="0" rx="2.962"/>
        <path id="rljd1ymowc" d="M0 21.321L47.254 21.321 47.254 0 0 0z"/>
    </defs>
    <g fill="none" fill-rule="evenodd">
        <g>
            <g transform="translate(-32 -216) translate(32 216)">
                <mask id="pz8sqbi1kb" fill="#fff">
                    <use xlink:href="#mm484stiba"/>
                </mask>
                <use fill="#124397" xlink:href="#mm484stiba"/>
                <ellipse cx="424" cy="70.5" fill="#FEFEFE" mask="url(#pz8sqbi1kb)" opacity=".2" rx="102" ry="102.5"/>
                <circle cx="313.5" cy="171.5" r="102.5" fill="#FEFEFE" mask="url(#pz8sqbi1kb)" opacity=".2"/>
                <g fill="#FEFEFE" mask="url(#pz8sqbi1kb)">
                    <g>
                        <path d="M1.289 2.874c.12-.036.254-.078.4-.125.145-.047.308-.09.49-.13.18-.04.383-.073.606-.099.224-.025.478-.038.762-.038.838 0 1.413.247 1.726.74.312.494.365 1.17.16 2.025L4.707 8.34H3.121l.703-3.027c.042-.188.076-.371.101-.55.025-.177.023-.333-.006-.467-.028-.134-.094-.243-.196-.327-.103-.083-.261-.125-.474-.125-.207 0-.416.022-.629.065l-1.033 4.43H0l1.289-5.464zM9.032 3.745c-.362 0-.68.132-.953.397-.274.265-.453.615-.538 1.051.44-.014.795-.053 1.065-.114.27-.062.48-.137.629-.224.149-.087.248-.181.298-.283.05-.101.075-.203.075-.305 0-.348-.192-.522-.576-.522m-3.1 2.351c0-.464.08-.914.24-1.35.16-.435.385-.821.676-1.16.291-.336.645-.608 1.06-.816.416-.206.875-.31 1.38-.31.248 0 .479.037.692.11.213.072.4.177.56.315.16.138.283.307.372.506.089.2.133.427.133.68 0 .407-.089.752-.266 1.035-.178.283-.424.513-.74.691-.316.178-.69.306-1.124.386-.433.08-.905.12-1.417.12.05.305.158.52.325.648.167.127.431.19.794.19.227 0 .457-.02.692-.06.234-.04.454-.1.66-.18l.117 1.275c-.198.08-.452.152-.761.217-.309.066-.644.098-1.007.098-.44 0-.81-.063-1.112-.19-.303-.127-.547-.3-.736-.517-.188-.218-.324-.472-.41-.762-.085-.29-.128-.599-.128-.926M13.08 2.613l.81 1.785c.24-.305.47-.602.686-.893.217-.29.425-.588.624-.892h1.587c-.299.435-.625.887-.98 1.355-.356.468-.767.956-1.236 1.464.284.544.525 1.047.724 1.508.2.461.377.927.533 1.399h-1.566c-.127-.356-.255-.682-.383-.98-.128-.298-.252-.573-.373-.827l-1.544 1.807H10.3l2.545-2.917-1.374-2.81h1.609zM17.692 1.187l1.65-.262-.404 1.688h1.768l-.32 1.328H18.63l-.468 2.003c-.043.167-.07.323-.08.468-.01.145.007.27.053.375.046.106.126.188.24.245.113.059.27.088.468.088.17 0 .336-.017.495-.05.16-.032.322-.077.485-.136l.117 1.242c-.213.08-.444.148-.692.206-.248.059-.543.088-.884.088-.49 0-.87-.075-1.14-.224-.27-.148-.461-.352-.575-.61-.114-.257-.164-.553-.149-.886.014-.334.064-.686.149-1.056l1.044-4.507zM26.583 2.613l-.756 3.255c-.1.413-.128.829-.086 1.246.043.418.125.79.246 1.116l-1.417.207c-.079-.16-.153-.338-.224-.533-.199.16-.422.294-.67.402-.25.109-.527.164-.832.164-.419 0-.758-.078-1.017-.235-.26-.155-.453-.362-.58-.62-.128-.258-.198-.554-.208-.887-.01-.334.026-.676.112-1.024l.724-3.091h1.587l-.714 3.07c-.035.16-.065.323-.09.49-.025.167-.027.32-.006.462.022.142.077.258.166.349.088.09.229.136.42.136.164 0 .315-.031.453-.093.139-.062.286-.169.442-.321.014-.181.037-.372.07-.571.031-.2.065-.383.1-.55l.693-2.972h1.587zM27.765 2.874c.121-.036.254-.078.4-.125.145-.047.308-.09.49-.13.18-.04.383-.073.607-.099.224-.025.477-.038.761-.038.838 0 1.413.247 1.726.74.312.494.365 1.17.16 2.025l-.725 3.092h-1.587l.703-3.027c.043-.188.076-.371.102-.55.024-.177.022-.333-.006-.467-.029-.134-.094-.243-.197-.327-.103-.083-.261-.125-.474-.125-.206 0-.416.022-.628.065l-1.033 4.43h-1.588l1.289-5.464zM34.433 1.916c-.22 0-.42-.067-.597-.201-.178-.134-.266-.34-.266-.615 0-.153.03-.296.09-.43.06-.135.14-.25.24-.349.1-.098.215-.176.346-.234.132-.058.272-.087.421-.087.22 0 .419.067.597.201.177.135.266.34.266.616 0 .152-.03.295-.09.43-.061.134-.141.25-.24.348-.1.098-.215.176-.347.234-.131.058-.271.087-.42.087zm-.767 6.423h-1.577l1.332-5.726h1.587l-1.342 5.726zM34.997 6.053c0-.494.078-.958.235-1.394.156-.435.38-.816.67-1.143.291-.326.645-.584 1.06-.773.416-.188.879-.283 1.39-.283.32 0 .606.031.858.093s.48.143.687.245l-.544 1.263c-.142-.058-.289-.111-.442-.158-.152-.047-.339-.071-.559-.071-.532 0-.952.183-1.257.55-.305.366-.458.865-.458 1.496 0 .37.078.67.235.899.156.228.444.343.863.343.205 0 .404-.022.596-.066.192-.043.362-.098.511-.163l.117 1.296c-.199.08-.417.15-.655.212-.238.062-.527.092-.868.092-.44 0-.813-.065-1.118-.196-.306-.13-.558-.306-.756-.528-.2-.22-.343-.48-.432-.778-.089-.298-.133-.61-.133-.936M42.421 3.832c-.234 0-.44.07-.617.207-.178.138-.327.312-.448.522-.12.21-.211.441-.272.692-.06.25-.09.488-.09.713 0 .37.057.655.17.854.114.2.32.3.618.3.235 0 .44-.07.618-.207.178-.138.327-.312.447-.523.121-.21.212-.44.272-.691.06-.25.09-.488.09-.713 0-.37-.056-.655-.17-.854-.114-.2-.32-.3-.618-.3m-.788 4.66c-.376 0-.703-.06-.98-.175-.277-.116-.506-.279-.687-.49-.181-.21-.318-.459-.41-.746-.092-.286-.138-.604-.138-.952 0-.436.069-.871.208-1.306.138-.436.342-.828.612-1.176.27-.348.6-.633.99-.855.39-.22.838-.331 1.342-.331.37 0 .695.058.975.174.28.116.511.279.692.49.182.21.318.459.41.745.093.287.139.604.139.953 0 .435-.068.87-.203 1.306-.134.435-.333.827-.596 1.176-.263.348-.591.633-.985.854-.395.221-.85.332-1.369.332M49.067 4.006c-.142-.036-.282-.07-.42-.103-.139-.033-.343-.05-.612-.05-.1 0-.21.01-.33.028-.122.018-.221.038-.299.06l-1.033 4.398h-1.588l1.279-5.422c.305-.1.648-.197 1.028-.288.38-.09.807-.136 1.283-.136.178 0 .375.016.591.05.217.032.407.084.57.157l-.469 1.306zM50.015 2.874c.122-.036.255-.078.4-.125.145-.047.309-.09.49-.13.181-.04.383-.073.607-.099.224-.025.477-.038.762-.038.838 0 1.413.247 1.725.74.313.494.366 1.17.16 2.025l-.724 3.092h-1.587l.703-3.027c.042-.188.076-.371.101-.55.025-.177.023-.333-.006-.467-.028-.134-.094-.243-.197-.327-.102-.083-.26-.125-.473-.125-.207 0-.416.022-.629.065l-1.033 4.43h-1.587l1.288-5.464z" transform="translate(76.425 132.74)"/>
                    </g>
                </g>
                <text font-weight="400" font-size="14" mask="url(#pz8sqbi1kb)">
                    <tspan x="16" y="64" fill="#FEFEFE">월요일마다 공개되는</tspan> <tspan x="16" y="84" fill="#FAC42D">한국무역협회 스타트업브랜치 선정</tspan> <tspan x="215.472" y="84" fill="#FEFEFE"> </tspan> <tspan x="16" y="104" fill="#FEFEFE">스타트업을 만나보세요</tspan>
                </text>
                <text fill="#FEFEFE" font-weight="400" font-size="18" mask="url(#pz8sqbi1kb)">
                    <tspan x="16" y="37">[스타트업브랜치 X 넥스트유니콘]</tspan>
                </text>
                <g mask="url(#pz8sqbi1kb)">
                    <g transform="translate(16 128)">
                        <path fill="#FEFEFE" d="M4.898 5.725c-.019-.18-.056-.337-.111-.465-.141-.314-.321-.563-.536-.74-.2-.16-.409-.283-.621-.364-.222-.084-.543-.168-.954-.25-.278-.05-.496-.096-.645-.136-.175-.047-.338-.135-.485-.26-.165-.142-.325-.352-.354-1.21-.025-.755.366-1.014.716-1.131.189-.064.293-.075.49-.075.228 0 .433.053.61.156.182.108.284.238.397.467.087.213.122.321.135.552.008.141.035.163.153.163l.451.01.436-.01c.09 0 .125-.026.145-.045.03-.03.045-.075.045-.14 0-.237-.039-.528-.039-.528-.017-.097-.046-.257-.122-.403-.049-.093-.118-.218-.217-.363C4.134.566 3.869.316 3.36.133 3.26.099 3.167.072 3.018.04 2.859.006 2.794.006 2.589.003 1.493-.013 1.124.251 1.124.251.838.416.781.478.675.581.346.904.144 1.29.125 1.772c-.016.277-.003.624-.003.624 0 .139-.013.672.146 1.335.026.11.086.243.173.422.166.295.388.523.657.673.278.155.683.261 1.204.314.458.064.806.205 1.039.421.242.225.366.51.37.847.004.034.007.109-.012.346l-.022.256c-.035.244-.077.378-.23.555-.268.293-.586.443-.943.443-.24 0-.449-.048-.62-.143-.176-.096-.32-.244-.432-.44-.046-.083-.08-.18-.107-.297-.023-.107-.035-.196-.036-.273-.012-.085-.021-.225-.15-.272-.125-.046-.955-.02-.955-.02-.127.009-.202.007-.204.177-.008.933.18 1.207.46 1.557.283.355.652.604 1.09.774.234.073.595.113 1.04.113.314 0 .621-.067.91-.199.287-.13.531-.31.729-.538l.073-.087.09-.117c.04-.049.087-.115.119-.17.038-.067.1-.195.181-.379.084-.235.148-.453.188-.643.04-.187.06-.382.06-.578 0-.109-.007-.276-.021-.497l-.021-.25zM9.695 2.729c.044 0 .071-.01.09-.023.05-.033.083-.089.083-.205 0-.445-.005-.589-.008-.631 0-.061-.018-.095-.058-.124-.054-.038-.138-.022-.211-.026l-3.449-.016c-.054.004-.082.017-.09.027-.016.02-.024.057-.024.106l-.016.8c0 .021.004.034.013.047.012.017.023.023.052.025l1.287.014-.043 6.25c.004.073.024.127.058.16.034.035.077.051.135.051h.808c.12-.008.167-.058.167-.185v-.007c.004-.063.018-6.268.018-6.268l1.188.005zM25.804 2.729c.044 0 .071-.01.09-.023.05-.033.083-.089.083-.205 0-.445-.005-.589-.008-.631 0-.061-.018-.095-.058-.124-.053-.038-.138-.022-.21-.026l-3.45-.016c-.053.004-.081.017-.09.027-.015.02-.024.057-.024.106l-.016.8c0 .021.004.034.013.047.012.017.024.023.052.025l1.287.014-.043 6.25c.004.073.024.127.058.16.035.035.077.051.135.051h.808c.12-.008.167-.058.167-.185v-.007c.004-.063.018-6.268.018-6.268l1.188.005zM12.334 6.54s.202-1.128.307-1.843l.284-1.704.27-.002.586 3.549h-1.447zm1.935 2.616c.008.007.043.028.153.028h.913c.159 0 .159-.059.159-.106v-.023l-.006-.006-.003-.041c-.011-.153-1.402-7.05-1.402-7.05-.03-.124-.03-.146-.07-.191-.065-.062-.109-.065-.24-.065l-1.444-.01c-.05.003-.107.013-.156.054-.052.043-.073.1-.08.148-.033.147-1.426 6.933-1.448 7.119l-.008.043v.014c0 .045.016.065.033.078.028.024.069.036.123.036l.288-.009h.724c.073 0 .103-.025.116-.1l.304-1.41h.467l1.239.01.278 1.348c.023.097.052.127.06.133zM19.857 5.303c-.014.296-.12.52-.317.67h-.001c-.113.085-.252.128-.41.128l-.914-.01s.005-3.267.01-3.298c.012-.131.077-.196.129-.227.063-.038.15-.056.265-.056 0 0 .592-.004.787.025.179.026.253.12.325.211.072.09.092.157.108.37l.018 2.187zm.48 1.493l.068-.05c.269-.193.57-.408.583-1.17l.003-2.307c-.012-.284-.074-.57-.186-.849-.093-.198-.223-.36-.383-.477-.155-.113-.321-.19-.493-.227-.178-.039-.353-.059-.678-.059l-2.07.009c-.068 0-.117.016-.155.05-.021.02-.05.054-.05.135l.009 7.14c0 .13.051.18.188.184l.867.01c.078 0 .14-.02.186-.058.04-.034.06-.077.06-.137V7.094h.902l.515 1.813c.023.081.068.146.138.198.072.053.152.08.244.08h.826c.047 0 .086-.017.124-.053.04-.04.05-.073.052-.097l-.014-.068-.736-2.171zM34.16 2.792c.012-.13.076-.196.128-.227.063-.038.123-.036.238-.036 0 0 .615-.01.81.012.153.018.249.074.305.176.124.223.112 1.006.112 1.707l-.01.883c-.013.292-.12.516-.316.665-.114.086-.253.129-.412.129l-.85-.01s-.011-3.267-.006-3.299zm-1.288 6.199c0 .13.051.18.188.184l.868.01c.077 0 .139-.02.185-.058.04-.034.06-.077.06-.136v-1.9l.589.003c.631 0 1.114-.095 1.434-.283.312-.182.695-.637.684-1.283v-2.13c-.012-.475-.041-.7-.153-.98-.094-.197-.204-.358-.364-.475-.155-.113-.264-.194-.546-.227-.056-.006-2.75-.05-2.75-.05-.066 0-.116.016-.153.05-.022.02-.05.054-.05.135l.008 7.14zM10.858 16.546c0 .412-.162.727-.482.937-.14.105-.317.164-.51.167l-.311.004-.62-.004c-.175 0-.314-.119-.358-.308l-.005-.04V15.08c0-.281.174-.455.455-.455h.385c.255.003.442.008.682.052.198.035.38.132.532.297.154.169.232.371.232.6v.972zm-2.242-5.788c.002-.1.038-.193.104-.266.074-.083.17-.126.274-.126 0 0 .748 0 .783.002.191.012.373.097.532.25.161.158.256.337.285.555.02.124.02.159.022.355l.01.303-.001.434-.02.372c-.01.13-.05.256-.118.39-.068.13-.168.25-.298.355-.041.04-.098.078-.165.108-.074.034-.141.051-.206.053-.05.005-.824.011-.824.011-.09 0-.22-.011-.302-.11-.053-.064-.076-.15-.076-.29 0 0-.015-2.178 0-2.396zm3.51 4.42c-.2-.756-.978-1.01-.978-1.01l.192-.148c.221-.172.379-.391.467-.654.096-.283.155-.684.176-1.19l.004-.646v-.383c-.002-.327-.054-.583-.15-.801-.145-.372-.403-.63-.79-.792-.153-.07-.362-.105-.623-.105H8.351c-.78 0-.942.08-.967.097 0 0-.02.019-.045.085-.024.063-.036.134-.036.21l-.01 8.28c0 .186.004.224.005.225l.01.03-.004.02c0 .068.019.115.064.155.053.047.115.068.195.068l1.187-.01 1.885.01c.163 0 .242.003.463-.027.214-.03.633-.185.941-.726.12-.23.16-.356.195-.636.02-.157.002-1.171.002-1.171 0-.35-.045-.635-.11-.882zM16.863 14.739c-.013.295-.12.52-.317.669-.114.085-.252.128-.411.128l-.913-.01v-.112c0-.48 0-.841.002-1.081l.002-.271c0-.03 0-.06.004-.086-.006-.115-.008-.588-.008-1.443 0-.208.004-.273.01-.304.012-.132.076-.197.128-.228.063-.038.15-.056.265-.056 0 0 .563-.003.759.023.198.027.281.122.353.213.072.091.109.215.109.37.017.176.026.607.026 1.308l-.009.88zm.48 1.492l.069-.049c.268-.194.434-.478.506-.87l.026-.51.054-1.4c.001-.007.007-.06.007-.342 0-.282-.006-.334-.007-.342l-.001-.013c-.011-.285-.074-.57-.185-.85-.094-.197-.224-.36-.384-.477-.155-.113-.321-.19-.492-.227-.179-.039-.407-.058-.678-.058l-2.071.008c-.067 0-.117.017-.154.05-.022.02-.05.055-.05.135v4.191s.008 2.41.008 2.949c0 .13.051.18.189.185l.867.008c.078 0 .139-.018.185-.057.041-.034.06-.077.06-.136v-1.897h.902l.515 1.813c.023.082.068.147.139.199.071.053.151.078.244.078h.825c.047 0 .087-.016.124-.052.041-.039.05-.072.052-.096l-.014-.068-.736-2.172zM30.331 11.328c0-.036-.007-.063-.019-.076l-.016-.02c-.038-.06-.09-.087-.167-.087h-.746c-.08-.004-.14.017-.19.065-.05.049-.074.107-.074.182l.04 4.801-1.676-4.837c-.02-.049-.062-.1-.125-.144-.062-.044-.12-.067-.17-.067-.73-.004-1.121-.013-1.297-.009-.053 0-.1.022-.147.068-.048.048-.073.1-.077.16l-.008 7.01c0 .074.02.128.065.171.048.046.114.07.204.074l.752-.004c.123-.012.191-.075.191-.198l-.061-5.228.607 1.614.29.81.966 2.651c.054.143.083.205.1.23.02.028.026.05.084.078.036.017.098.025.253.03 0 0 1.03.003 1.047 0 .076-.008.125-.028.149-.06.029-.038.043-.098.043-.178l-.018-7.036zM35.788 16.294c-.066-.018-.833-.022-.833-.022-.17 0-.212.069-.23.136l-.026.252c-.04.355-.2.508-.37.641-.168.133-.368.2-.592.2-.105 0-.208-.013-.287-.03-.114-.027-.287-.142-.443-.338-.157-.195-.236-.405-.236-.624v-.448s-.058-2.89.028-3.41c.031-.19.044-.315.166-.46.111-.131.228-.18.426-.227.198-.046.362-.045.429-.041.213.01.34.06.482.159.14.096.25.224.323.389.055.134.082.272.095.474 0 .057.018.113.062.153.046.042.122.055.17.055l.683-.004c.212-.007.256-.051.254-.275v-.115c-.011-.169-.018-.32-.122-.588-.125-.29-.26-.507-.4-.673-.137-.161-.438-.406-.939-.548-.54-.154-1.066-.117-1.5.068-.53.256-.851.552-1.02.927-.091.167-.153.34-.19.524-.036.188-.054.421-.054.694l.017 3.248c0 .422.076.794.226 1.107.149.311.34.55.608.732.173.111.37.215.447.244.218.081.413.121.805.125.308-.004.434-.013.623-.048.288-.062.533-.19.752-.36.167-.146.322-.336.455-.561.133-.225.223-.459.267-.696.068-.394.071-.522.022-.6-.024-.037-.062-.05-.098-.06M31.595 1.99c0-.315-.104-.336-.178-.343l-.835.013c-.112.006-.165.128-.165.199l-.018 5.13c-.004.268-.014.44-.145.63-.136.197-.277.294-.49.373-.073.027-.237.063-.466.067-.228-.004-.393-.04-.465-.067-.213-.08-.354-.176-.49-.374-.131-.19-.142-.36-.146-.63l-.017-5.13c0-.07-.053-.192-.165-.198l-.835-.013c-.074.007-.178.028-.178.343-.012.362-.009 4.968-.009 4.968.02.845.369 1.361.509 1.507.47.498.821.651 1.347.7.111.012.217.018.323.018.043.002.21.002.253 0 .106 0 .211-.006.323-.018.526-.049.878-.202 1.347-.7.14-.146.489-.662.509-1.507 0 0 .002-4.606-.01-4.968M21.125 15.975s.202-1.127.307-1.842l.284-1.705.27-.002.586 3.55h-1.447zm1.935 2.617c.008.006.043.027.153.027h.913c.159 0 .159-.058.159-.105v-.024l-.006-.005-.003-.042c-.011-.152-1.402-7.05-1.402-7.05-.03-.124-.03-.145-.07-.19-.065-.063-.109-.066-.24-.066l-1.444-.009c-.05.003-.107.012-.156.054-.052.043-.073.1-.08.148-.033.147-1.426 6.932-1.448 7.118l-.008.043v.014c0 .045.016.065.033.079.029.024.07.035.123.035l.288-.008h.724c.073 0 .103-.026.116-.1l.304-1.41h.467l1.239.009.278 1.348c.023.097.052.127.06.134z"/>
                        <mask id="xglmwv10od" fill="#fff">
                            <use xlink:href="#rljd1ymowc"/>
                        </mask>
                        <path fill="#FEFEFE" d="M0 19.311L41.315 19.311 41.315 19.183 0 19.183z" mask="url(#xglmwv10od)"/>
                        <path fill="#A7C2D1" d="M43.51 1.73l.386 2.62.27 1.838.385 2.62.27 1.837 1.273 8.666h1.16L44.444.277V.275c-.019-.142-.114-.257-.233-.268L44.117 0h-.861l.254 1.73zM42.34 19.31h1.159l-.347-2.318h.005l-.058-.392h-.005l-.294-1.976h.007l-.245-1.656h-.002l-.276-1.888-.06-.398-.27-1.837-.513-3.475-.146-.982-.386-2.62-.22-1.485V.28c-.018-.142-.113-.257-.232-.268L40.29 0h-.79l2.838 19.31z" mask="url(#xglmwv10od)"/>
                        <path fill="#FEFEFE" d="M42.416 3.996l-2.57-.037.27-1.837 2.572.037-.272 1.837zm-.329 2.229l-2.568-.037.27-1.837 2.57.037-.272 1.837zm-.329 2.229l-2.566-.037.27-1.837 2.567.037-.27 1.837zm-.329 2.228l-2.565-.037.27-1.837 2.566.037-.27 1.837zm-.335 2.286l-2.564-.036.276-1.895 2.565.037-.277 1.894zM40.56 16.6L38 16.564l.293-1.977 2.561.037-.294 1.976zM43.197.013c-.119.011-.214.126-.232.268v.002l-.22 1.485-2.57-.037L40.428 0h-.861l-.094.007c-.12.011-.214.126-.233.268v.002l-2.81 19.034h1.16l.35-2.356 2.561.037-.347 2.319h1.16L44.153 0h-.79l-.166.013zM1.101 20.993l.006-.01h.047l-.016.03c-.023.037-.05.07-.076.102H1.06c-.11.124-.266.202-.445.2-.338 0-.613-.32-.615-.713 0-.39.279-.71.617-.712.163 0 .323.075.437.2h.002c.027.032.053.068.076.105l.016.03H1.1l-.006-.01c-.018-.036-.045-.069-.07-.097-.11-.12-.252-.185-.408-.188-.32 0-.574.3-.576.672 0 .375.258.674.574.672.169 0 .311-.067.415-.187.026-.029.053-.061.071-.094M2.98 20.581l.476-.005c.217 0 .462-.155.46-.316.002-.185-.096-.328-.377-.33h-.56v.651zm.337.056l-.017-.019-.32.004V21.314h-.041V20.582l.002-.67v-.02h.02l.578-.002c.3 0 .42.173.417.37.002.181-.27.356-.5.356l-.102.002c.24.26.306.218.566.672l.016.03h-.047l-.006-.01c-.238-.419-.295-.374-.566-.673zM6.786 19.89L6.807 19.89 6.807 19.93 6.786 19.93 5.87 19.93 5.87 20.582 6.534 20.582 6.554 20.582 6.554 20.622 6.534 20.622 5.87 20.622 5.87 21.274 6.786 21.274 6.807 21.274 6.807 21.314 6.786 21.314 5.85 21.314 5.83 21.314 5.83 21.294 5.83 20.622 5.83 20.582 5.83 19.91 5.83 19.89 5.85 19.89zM9.616 20.93l-.427-.969-.428.969h.855zm-.842.04h-.02v-.023l-.157.355-.005.013h-.044l.012-.03.61-1.383.004-.012h.029l.004.012.61 1.384.013.029h-.045l-.004-.013-.16-.364v.032h-.847zM12.082 19.89L12.568 19.89 12.588 19.89 12.588 19.93 12.568 19.93 12.082 19.93 12.082 21.294 12.082 21.314 12.041 21.314 12.041 21.294 12.041 19.93 11.551 19.93 11.53 19.93 11.53 19.89 11.551 19.89 12.041 19.89zM17.825 20.609L17.825 21.294 17.825 21.314 17.784 21.314 17.784 21.294 17.784 20.609 17.235 19.922 17.208 19.89 17.261 19.89 17.267 19.898 17.805 20.569 18.334 19.898 18.34 19.89 18.393 19.89 18.366 19.922zM20.06 20.602c0 .375.273.674.613.672.34 0 .61-.295.609-.672 0-.374-.267-.67-.607-.671-.342 0-.614.297-.614.671m-.041 0c0-.39.299-.71.655-.712.354 0 .65.323.647.712 0 .391-.29.714-.649.713-.358 0-.653-.322-.653-.713M22.99 19.91v-.018h.045l-.002.02-.002.8c0 .313.226.564.509.562.284 0 .51-.246.508-.562V19.892h.045l-.002.02-.002.8c0 .33-.246.604-.55.602-.3 0-.547-.27-.549-.602v-.802zM25.944 20.581l.476-.005c.218 0 .462-.155.46-.316.002-.185-.095-.328-.376-.33h-.56v.651zm.338.056l-.017-.019-.32.004V21.314h-.042v-.02l.001-.672v-.04l.001-.67v-.02h.02l.579-.002c.3 0 .419.173.417.37.002.181-.27.356-.5.356l-.102.002c.24.26.306.218.566.672l.016.03h-.047l-.006-.01c-.238-.419-.295-.374-.566-.673zM28.448 19.914L28.442 19.89 28.485 19.89 28.489 19.906 28.798 21.223 29.265 19.904 29.269 19.89 29.297 19.89 29.301 19.904 29.767 21.223 30.076 19.906 30.081 19.89 30.124 19.89 30.117 19.914 29.792 21.298 29.787 21.314 29.757 21.314 29.753 21.3 29.283 19.971 28.813 21.3 28.809 21.314 28.778 21.314 28.774 21.298zM31.543 20.602c0 .375.273.674.613.672.34 0 .61-.295.608-.672 0-.374-.267-.67-.607-.671-.341 0-.614.297-.614.671m-.04 0c0-.39.298-.71.654-.712.355 0 .65.323.648.712 0 .391-.291.714-.65.713-.358 0-.653-.322-.653-.713M34.556 20.581l.476-.005c.218 0 .462-.155.46-.316.002-.185-.096-.328-.377-.33h-.56v.651zm.338.056l-.018-.019-.32.004V21.314h-.04V20.582l.001-.67v-.02h.02l.578-.002c.3 0 .42.173.418.37.002.181-.27.356-.5.356l-.102.002c.239.26.306.218.565.672l.016.03h-.046l-.006-.01c-.239-.419-.296-.374-.566-.673zM37.488 19.91L37.488 19.89 37.528 19.89 37.528 19.91 37.528 21.274 38.281 21.274 38.302 21.274 38.302 21.314 38.281 21.314 37.508 21.314 37.488 21.314 37.488 21.294zM40.256 21.274h.511c.281 0 .51-.293.507-.672 0-.376-.224-.67-.507-.671h-.51v1.343zm-.02.04h-.02v-.02l.002-1.382v-.02h.02l.53-.002c.3 0 .549.325.547.712 0 .389-.245.714-.548.712h-.531zM15.398 19.89L15.418 19.89 15.418 19.93 15.398 19.93 14.482 19.93 14.482 20.582 15.146 20.582 15.166 20.582 15.166 20.622 15.146 20.622 14.482 20.622 14.482 21.274 15.398 21.274 15.418 21.274 15.418 21.314 15.398 21.314 14.462 21.314 14.442 21.314 14.442 21.294 14.442 20.622 14.442 20.582 14.442 19.91 14.442 19.89 14.462 19.89z" mask="url(#xglmwv10od)"/>
                    </g>
                </g>
                <rect width="610" height="134" x="310" y="16" fill="#FEFEFE" mask="url(#pz8sqbi1kb)" rx="2.962"/>
                <path fill="#D1D1D1" d="M462 34H463V132H462zM615 34H616V132H615zM767 34H768V132H767z" mask="url(#pz8sqbi1kb)"/>
                <g mask="url(#pz8sqbi1kb)">
                    <g transform="translate(343 46)">
                        <text font-weight="700" font-size="14" font-weight="bold">
                            <tspan x="26.152" y="16" fill="#D1D1D1">1주차</tspan>
                        </text>
                        <rect width="86" height="26" y="24" fill="#D1D1D1" rx="2.962"/>
                        <text font-weight="400" font-size="14">
                            <tspan x="12.364" y="43" fill="#FEFEFE">10월 12일</tspan>
                        </text>
                        <text font-weight="400" font-size="14" letter-spacing="-.117">
                            <tspan x=".345" y="70" fill="#D1D1D1">선정 20팀 공개</tspan>
                        </text>
                    </g>
                </g>
                <g filter="url(#hfe2jf0ule)" mask="url(#pz8sqbi1kb)">
                    <g transform="rotate(-15 463.064 -1216.49)">
                        <rect width="104" height="38" x="1" y="1" fill="#FE5859" fill-opacity=".8" stroke="#FD5859" stroke-width="2" rx="5"/>
                        <text font-weight="700" font-size="18" font-weight="bold" letter-spacing="-.15">
                            <tspan x="18.272" y="27.14" fill="#FEFEFE">공개 완료</tspan>
                        </text>
                    </g>
                </g>
                <g mask="url(#pz8sqbi1kb)">
                    <g transform="translate(496 46)">
                        <text font-weight="700" font-size="14" font-weight="bold">
                            <tspan x="26.152" y="16" fill="#124397">2주차</tspan>
                        </text>
                        <rect width="86" height="26" y="24" fill="#124397" rx="2.962"/>
                        <text font-weight="400" font-size="14">
                            <tspan x="12.364" y="43" fill="#FEFEFE">10월 19일</tspan>
                        </text>
                        <text font-weight="400" font-size="14" letter-spacing="-.117">
                            <tspan x=".345" y="70" fill="#333">선정 20팀 공개</tspan>
                        </text>
                    </g>
                </g>
                <g mask="url(#pz8sqbi1kb)">
                    <g transform="translate(649 46)">
                        <text font-weight="700" font-size="14" font-weight="bold">
                            <tspan x="26.152" y="16" fill="#124397">3주차</tspan>
                        </text>
                        <rect width="86" height="26" y="24" fill="#124397" rx="2.962"/>
                        <text font-weight="400" font-size="14">
                            <tspan x="12.364" y="43" fill="#FEFEFE">10월 26일</tspan>
                        </text>
                        <text font-weight="400" font-size="14" letter-spacing="-.117">
                            <tspan x=".345" y="70" fill="#333">선정 20팀 공개</tspan>
                        </text>
                    </g>
                </g>
                <g mask="url(#pz8sqbi1kb)">
                    <g transform="translate(802 46)">
                        <text font-weight="700" font-size="14" font-weight="bold">
                            <tspan x="26.152" y="16" fill="#124397">4주차</tspan>
                        </text>
                        <rect width="86" height="26" y="24" fill="#124397" rx="2.962"/>
                        <text font-weight="400" font-size="14">
                            <tspan x="12.364" y="43" fill="#FEFEFE">11월 02일</tspan>
                        </text>
                        <text font-weight="400" font-size="14" letter-spacing="-.117">
                            <tspan x=".345" y="70" fill="#333">선정 20팀 공개</tspan>
                        </text>
                    </g>
                </g>
            </g>
        </g>
    </g>
</svg>
