<svg width="180" height="151" viewBox="0 0 180 151" xmlns="http://www.w3.org/2000/svg"
     xmlns:xlink="http://www.w3.org/1999/xlink">
  <defs>
    <path id="a" d="M0 0h180v151H0z"/>
  </defs>
  <g fill="none" fill-rule="evenodd">
    <mask id="b" fill="#fff">
      <use xlink:href="#a"/>
    </mask>
    <g mask="url(#b)">
      <path stroke="#2A375D" stroke-width="1.5" stroke-linecap="round"
            d="m37 108.484 5.35 6.032M68.31 108.45l-5.27 6.1M53 103v8"/>
      <path fill="#FFF" fill-rule="nonzero" d="m92.7 97.468 43.7-3.7-2.5 36-38 2.5z"/>
      <path d="m135.6 94.668-2.5 34.4-36.6 2.4-3.1-33.3 42.2-3.5zm1.6-1.7-45.3 3.9 3.3 36.2 39.3-2.6 2.7-37.5z"
            fill="#2A375D" fill-rule="nonzero"/>
      <path
        d="M109.4 124.368c-.4 0-.7-.3-.7-.7l-1.3-10.2-4.6-1.5c-.4-.1-.6-.6-.5-.9.1-.3.6-.6.9-.5l5.4 1.8 1.4 11.1c.2.5-.1.9-.6.9.1 0 .1 0 0 0z"
        fill="#2A375D" fill-rule="nonzero"/>
      <path fill="#D2E6FF" fill-rule="nonzero" d="m36.3 81.968-9.7 40-24.5 15.2 12.3-44.5 1.1-.5 6.2-3.1 1.1-.5z"/>
      <path
        d="M90.3 34.368c6.4-2 25.1-6.9 41 19.7 16 26.6 5.9 49.5 5.9 49.5l-47.9-2.4s-1.5-27-5.8-44.3c-.9-3.8-3.4-19.3 6.8-22.5z"
        fill="#2A375D" fill-rule="nonzero"/>
      <path d="M16.2 90.968c-.4-6.4 2-16.9 10.4-27.3 5.5 2.9 10.8 6.2 15.3 9.1-3.3 3.4-5.3 6.7-6.2 8.7l-19.5 9.5z"
            fill="#FFF" fill-rule="nonzero"/>
      <path
        d="M26.8 64.568c5 2.7 9.8 5.6 14 8.3-2.9 3.1-4.7 6.1-5.6 8l-18.3 9c-.1-6.2 2.4-15.7 9.9-25.3zm-.4-1.9c-9 11-11.7 22.4-10.8 29.5l20.8-10.2c.9-2 3-5.7 6.8-9.3-5.6-3.6-11.1-7-16.8-10z"
        fill="#2A375D" fill-rule="nonzero"/>
      <path
        d="M31.6 53.668c-4 3.9-9.9 10.7-12.4 16.4 5.9 2.4 17.5 7 23.3 9.6 2.1-2.9 11.2-11 15.8-13.7 14.8-8.7 33.1-13.1 33.1-13.1l2.3-20.3c-20.4-1.8-44.8 4.3-62.1 21.1z"
        fill="#2A375D" fill-rule="nonzero"/>
      <path
        d="M83.3 53.868c-.4 0-.7-.3-.7-.7l-.7-5.8c-.1-.4.2-.8.7-.8.4 0 .8.2.8.7l.7 5.8c0 .4-.3.7-.8.8zM24.5 83.268c6.4-3.7 6 5.8 6 5.8s-2.8 6.2 1.2 7.1c2.5.6 8.4-12 3.9-18.8"
        fill="#FFF" fill-rule="nonzero"/>
      <path
        d="M32 96.968h-.4c-1.1-.3-1.9-.9-2.3-1.8-1.1-2.2.2-5.5.5-6.2 0-1.3-.2-4.6-1.7-5.5-.7-.4-1.8-.3-3.2.5-.4.2-.8.1-1-.3-.2-.4-.1-.8.3-1 1.9-1.1 3.4-1.2 4.7-.5 2.6 1.6 2.5 6.4 2.5 7v.1l-.1.1c-.4.9-1.3 3.6-.6 5.1.2.5.7.8 1.3 1 .1 0 .9-.3 1.9-2.1 2.3-3.8 4.1-11.1 1.2-15.5-.2-.3-.1-.8.2-1 .3-.2.8-.1 1 .2 3.8 5.6.8 14.4-1.6 17.9-1 1.4-1.9 2-2.7 2zM134.6 130.468l13.5-8.6H26.2l-24.1 15.3H124z"
        fill="#2A375D" fill-rule="nonzero"/>
      <path fill="#2A375D" fill-rule="nonzero" d="m134.6 130.468 13.5-8.6H26.2v15.3H124z"/>
      <path fill="#D2E6FF" fill-rule="nonzero" d="M123.9 137.168H2.1v98.9h121.8z"/>
      <path fill="#D2E6FF" fill-rule="nonzero" d="m148.099 146.5-24.2 15.3v-24.632l24.2-15.3z"/>
      <path fill="#D2E6FF" fill-rule="nonzero" d="m157.3 83.168-24.1 15.4-9.3 38.8 24.2-15.4z"/>
      <path
        d="M126.7 136.168c-.2 0-.5-.1-.6-.3-.2-.3-.1-.8.2-1l18.6-11.8c.3-.2.8-.1 1 .2.2.3.1.8-.2 1l-18.6 11.8c-.2.1-.3.1-.4.1zM103 32.068c28.8-1.2 55.6 7 64.9 18.6 10.2 12.7 5 37.7-7.5 44.2-3.1 1.6-6.6 2-8.5 2.9-5.8 2.7-7.1 2.4-9 .9 0 0-4.8 3-6.2-.7 0 0-1.8 4.7-5.2 3.5-3.4-1.2.7-10.5 9.8-15.3 9.2-4.8 13.8-16.8 8.7-24-5.1-7.2-36.7-16-36.7-16l-10.3-14.1z"
        fill="#FFF" fill-rule="nonzero"/>
      <path
        d="M132.7 102.468c-.4 0-.8-.1-1.3-.2-1-.3-1.6-1.2-1.7-2.4-.3-3.8 4.3-10.6 11.4-14.3 4.9-2.6 8.7-7.5 10-12.8.9-3.8.3-7.4-1.6-10.1-5-6.9-35.9-15.6-36.3-15.7l-.2-.1-11.4-15.5 1.4-.1c28.3-1.2 55.8 6.8 65.6 18.9 5 6.3 6.8 16 4.7 26-1.9 9-6.5 16.2-12.4 19.3-1.9 1-3.9 1.5-5.6 2-1.2.3-2.2.6-2.9.9-5.5 2.6-7.3 2.6-9.4 1.1-.9.5-3 1.4-4.7.8-.5-.2-1-.5-1.3-.9-1 1.6-2.4 3.1-4.3 3.1zm-18.8-56.9c3.2.9 31.8 9.2 36.8 16.2 2.2 3 2.8 7 1.8 11.3-1.3 5.7-5.5 11-10.8 13.8-6.9 3.6-10.8 9.9-10.6 12.9.1.9.5 1 .7 1.1 2.6.9 4.2-3 4.2-3.1l.7-1.8.7 1.8c.2.7.6 1.1 1.2 1.2 1.3.4 3.3-.5 3.9-.9l.5-.3.4.3c1.5 1.2 2.5 1.7 8.2-1 .9-.4 1.9-.7 3.1-1 1.7-.5 3.6-1 5.3-1.9 5.5-2.9 9.9-9.7 11.7-18.2 2-9.6.4-18.8-4.4-24.8-9.3-11.6-35.6-19.2-62.9-18.4l9.5 12.8z"
        fill="#2A375D" fill-rule="nonzero"/>
      <path
        d="M150.2 62.268c2.8 3.8 2.7 9.1.7 13.8 6.5 2.4 16.3 4.7 22.6 7.6 4.9-10.3 5-25.4-2.7-33.5-15-15.5-38.8-19.3-67.6-18.1l13.6 23.5c-.1 0 28.2-.5 33.4 6.7zM142.7 89.668c-2.6 1.8-4.7 4.1-6.1 6.9-.3.6.6 1.1.9.5 1.4-2.7 3.3-4.9 5.8-6.5.4-.4-.1-1.3-.6-.9zM148.3 91.368c-2.1 1.5-3.7 3.4-4.9 5.7-.3.6.6 1.1.9.5 1.1-2.1 2.6-3.9 4.5-5.3.5-.4 0-1.3-.5-.9z"
        fill="#2A375D" fill-rule="nonzero"/>
      <path d="M130.7 57.068h-.2l-4.1-1.3c-.4-.1-.6-.5-.5-.9.1-.4.5-.6.9-.5l4.1 1.3c.4.1.6.5.5.9-.1.3-.4.5-.7.5z"
            fill="#2A375D" fill-rule="nonzero"/>
      <path
        d="M106.8 18.768c-.3-.7-.7-1.4-1.2-2.1v-.1c-4.6-6.6-13-8.6-18.9-4.5-2.8 2-4.4 5.1-4.8 8.5-.5 3.7.9 7.5 2.4 10.8 3.4 7.6 11.1 11 18.9 4.5 1.7-1.4 3-3.2 3.9-5.3 3-.6 4.8-2.8 5.1-5.5.3-3.1-2-6.6-5.4-6.3z"
        fill="#FFF" fill-rule="nonzero"/>
      <path
        d="M94.8 40.068c-.8 0-1.6-.1-2.4-.3-3.7-.9-7-3.8-8.9-8.1-1.4-3.1-3-7.2-2.4-11.2.5-3.9 2.3-7.1 5.1-9 2.8-1.9 6.3-2.7 9.8-2 4 .7 7.7 3.2 10.2 6.7.4.6.8 1.2 1.1 1.9 1.4 0 2.7.6 3.8 1.7 1.4 1.4 2.1 3.5 1.8 5.5-.4 3.1-2.4 5.4-5.3 6.1-.9 2-2.3 3.8-4 5.2-2.9 2.3-5.9 3.5-8.8 3.5zm-1.3-29.4c-2.3 0-4.6.7-6.5 2-2.5 1.7-4 4.5-4.5 8-.5 3.6.9 7.3 2.3 10.4 1.7 3.8 4.6 6.5 7.9 7.3 3.2.7 6.6-.3 9.9-3 1.6-1.3 2.9-3 3.7-5l.2-.4.4-.1c2.5-.5 4.2-2.3 4.5-4.9.2-1.5-.4-3.2-1.4-4.3-.6-.6-1.6-1.3-3.1-1.2h-.5l-.2-.5c-.4-.8-.7-1.4-1.1-2-2.3-3.3-5.6-5.5-9.3-6.2-.8 0-1.6-.1-2.3-.1z"
        fill="#2A375D" fill-rule="nonzero"/>
      <path
        d="M93.52 26.09a1 1 0 1 0-1.685-1.077 1 1 0 0 0 1.685 1.077zM89.1 33.168c-1-2-1.7-4.1-2.2-6.3-.1-.6.9-.8 1-.2.4 2.1 1.1 4.1 2.1 6.1.3.5-.6 1-.9.4zM103.8 25.968c.2-2.3 2-4.3 4.4-4.6.6-.1.9.9.2 1-1.9.2-3.4 1.7-3.6 3.6-.1.7-1.1.7-1 0zM102.8 21.468c-.7 2.5-3.9-.9-10-2.1-2.7-.5-14.2 3.5-16-.4-2.7-5.7 4.9-9 9.8-6.9-.5-2.1 1.9-5.2 5.1-3.6 8.6-4.3 16.4 1.3 15.4 10.9 0 0-3.5 1.3-4.3 2.1z"
        fill="#2A375D" fill-rule="nonzero"/>
    </g>
  </g>
</svg>
