<svg xmlns="http://www.w3.org/2000/svg" xmlns:xlink="http://www.w3.org/1999/xlink" width="460" height="287" viewBox="0 0 460 287">
    <defs>
        <linearGradient id="edu7mq6xva" x1="109.534%" x2="2.661%" y1="47.823%" y2="50%">
            <stop offset="0%" stop-color="#0080FF"/>
            <stop offset="100%" stop-color="#FFF" stop-opacity="0"/>
        </linearGradient>
        <linearGradient id="35gvfxbrzf" x1="0%" x2="100%" y1="50%" y2="50%">
            <stop offset="0%" stop-color="#BABABA" stop-opacity=".559"/>
            <stop offset="100%" stop-color="#989898"/>
        </linearGradient>
        <linearGradient id="9ken27d7gi" x1="50%" x2="50%" y1="153.795%" y2=".576%">
            <stop offset="0%" stop-color="#FFF"/>
            <stop offset="100%" stop-color="#8CA8F9"/>
        </linearGradient>
        <linearGradient id="6l1jvss16j" x1="97.627%" x2="0%" y1="50%" y2="50%">
            <stop offset="0%" stop-opacity=".264"/>
            <stop offset="100%" stop-color="#BDBDBD" stop-opacity=".062"/>
        </linearGradient>
        <linearGradient id="h7hghutosl" x1="0%" x2="100%" y1="50%" y2="50%">
            <stop offset="0%" stop-color="#FFF"/>
            <stop offset="100%" stop-color="#F4F4F6"/>
        </linearGradient>
        <path id="fuudkwzrtb" d="M0 286.89L433.455 286.89 433.455 0 0 0z"/>
        <path id="jdror5ic4d" d="M72.322 0.743L36.214 26.377 0.107 0.743z"/>
        <path id="yaodvlh0hg" d="M87.454 0.508L43.935 31.404 0.415 0.508z"/>
        <path id="pngjf3fq2k" d="M6.968.844C3.182.844.084 3.942.084 7.728v113.247c0 3.786 3.098 6.884 6.884 6.884h234.078c3.787 0 6.885-3.098 6.885-6.884V7.728c0-3.786-3.098-6.884-6.885-6.884H6.968z"/>
    </defs>
    <g fill="none" fill-rule="evenodd">
        <g>
            <g>
                <g>
                    <path fill="url(#edu7mq6xva)" d="M407.25 290.75c11.039 0 26.992-1.309 47.86-3.926l.14-270.148c-21.316-2.617-37.316-3.926-48-3.926-122.883 0-222.5 62.232-222.5 139s99.617 139 222.5 139z" transform="translate(-1100 -113) translate(1100 113) translate(.5) rotate(90 320 151.75)"/>
                    <g transform="translate(-1100 -113) translate(1100 113) translate(.5)">
                        <path fill="#EDEDED" d="M259.319 196.05c0 3.565-2.917 6.482-6.483 6.482H75.333c-3.566 0-6.484-2.917-6.484-6.483V82.001c0-3.566 2.918-6.483 6.484-6.483h177.503c3.566 0 6.483 2.918 6.483 6.483V196.05z"/>
                        <mask id="zyrlkuy56c" fill="#fff">
                            <use xlink:href="#fuudkwzrtb"/>
                        </mask>
                        <path fill="#EAEAEA" d="M314.107 67.344L386.322 67.344 386.322 24.633 314.107 24.633z" mask="url(#zyrlkuy56c)"/>
                        <path fill="#F4F5F7" d="M350.214 40.647L314.105 67.344 386.321 67.344z" mask="url(#zyrlkuy56c)"/>
                        <g mask="url(#zyrlkuy56c)">
                            <g transform="translate(314 23.89)">
                                <mask id="gs8v1m2ule" fill="#fff">
                                    <use xlink:href="#jdror5ic4d"/>
                                </mask>
                                <path d="M36.214 26.377L72.322 0.743 0.107 0.743z" mask="url(#gs8v1m2ule)"/>
                            </g>
                        </g>
                        <path fill="#FFF" d="M350.214 48.881L386.321 24.633 314.107 24.633z" mask="url(#zyrlkuy56c)"/>
                        <path fill="url(#35gvfxbrzf)" d="M332.304 67.344L386.32 67.344 386.32 38.611 332.304 38.611z" mask="url(#zyrlkuy56c)" opacity=".283"/>
                        <path fill="#000" d="M314 67.711L386.215 67.711 386.215 25 314 25z" mask="url(#zyrlkuy56c)" opacity=".117"/>
                        <path fill="#EAEAEA" d="M346.415 96.876L433.454 96.876 433.454 45.398 346.415 45.398z" mask="url(#zyrlkuy56c)"/>
                        <path fill="#F4F5F7" d="M389.935 64.699L346.415 96.876 433.455 96.876z" mask="url(#zyrlkuy56c)"/>
                        <g mask="url(#zyrlkuy56c)">
                            <g transform="translate(346 44.89)">
                                <mask id="mcay651mwh" fill="#fff">
                                    <use xlink:href="#yaodvlh0hg"/>
                                </mask>
                                <path d="M43.935 31.404L87.454 0.508 0.415 0.508z" mask="url(#mcay651mwh)"/>
                            </g>
                        </g>
                        <path fill="#FFF" d="M389.935 74.623L433.455 45.398 346.415 45.398z" mask="url(#zyrlkuy56c)"/>
                        <path fill="url(#9ken27d7gi)" fill-opacity=".35" d="M80.281 184.764L247.887 184.764 247.887 118.546 80.281 118.546z" mask="url(#zyrlkuy56c)"/>
                        <path fill="url(#6l1jvss16j)" d="M140.217 202.533v-69.724c0-3.746 3.036-6.782 6.782-6.782h112.32v69.724c0 3.745-3.036 6.782-6.783 6.782H140.217z" mask="url(#zyrlkuy56c)" opacity=".563"/>
                        <g mask="url(#zyrlkuy56c)">
                            <g transform="translate(164 141.89)">
                                <mask id="cvt9hj2fum" fill="#fff">
                                    <use xlink:href="#pngjf3fq2k"/>
                                </mask>
                                <path fill="url(#h7hghutosl)" d="M6.968.844C3.182.844.084 3.942.084 7.728v113.247c0 3.786 3.098 6.884 6.884 6.884h234.078c3.787 0 6.885-3.098 6.885-6.884V7.728c0-3.786-3.098-6.884-6.885-6.884H6.968z" mask="url(#cvt9hj2fum)"/>
                            </g>
                        </g>
                        <path fill="#B8BCC1" d="M177.587 171.609L398.427 171.609 398.427 170.921 177.587 170.921zM177.587 196.924L398.427 196.924 398.427 196.236 177.587 196.236zM177.587 222.239L398.427 222.239 398.427 221.551 177.587 221.551zM177.587 247.554L398.427 247.554 398.427 246.866 177.587 246.866z" mask="url(#zyrlkuy56c)"/>
                        <g mask="url(#zyrlkuy56c)">
                            <g>
                                <path fill="#333" d="M0 111.167L51.959 16.055 75.008 0 71.324 27.848 25.75 111.276z" transform="scale(-1 1) rotate(-6 1532.08 3787.157)"/>
                                <path fill="#282828" d="M25.75 111.276L71.324 27.848 71.395 27.32 65.104 25.982 18.527 111.246z" transform="scale(-1 1) rotate(-6 1532.08 3787.157)"/>
                                <path fill="#2D2D2D" d="M18.527 111.246L65.103 25.982 56.32 20.966 6.949 111.197z" transform="scale(-1 1) rotate(-6 1532.08 3787.157)"/>
                                <path fill="#353535" d="M75.008 0L51.963 16.052c4.412 6.322 11.356 10.74 19.363 11.789L75.008 0z" transform="scale(-1 1) rotate(-6 1532.08 3787.157)"/>
                                <path fill="#FFBC1D" d="M72.754 17.048L75.008 0 60.897 9.83c2.7 3.87 6.953 6.575 11.857 7.218" transform="scale(-1 1) rotate(-6 1532.08 3787.157)"/>
                            </g>
                        </g>
                        <path fill="#FFBC1D" d="M57.935 54.472l1.525-6.65 1.525 6.65c.119.517.522.92 1.039 1.04l6.65 1.523-6.65 1.526c-.517.118-.92.521-1.04 1.038L59.46 66.25l-1.525-6.65c-.118-.518-.521-.92-1.038-1.039l-6.651-1.526 6.65-1.524c.518-.119.92-.522 1.039-1.039M299.939 113.42l1.525-6.651 1.524 6.65c.119.518.523.92 1.039 1.04l6.65 1.524-6.65 1.525c-.516.119-.92.522-1.04 1.039l-1.523 6.65-1.525-6.65c-.12-.517-.521-.92-1.04-1.04l-6.65-1.524 6.65-1.524c.519-.12.92-.522 1.04-1.04M409.497 6.651L411.022 0l1.526 6.651c.12.517.521.92 1.04 1.039l6.65 1.524-6.65 1.526c-.519.118-.92.521-1.04 1.038l-1.526 6.651-1.525-6.651c-.117-.517-.52-.92-1.037-1.038l-6.652-1.526 6.652-1.524c.516-.119.92-.522 1.037-1.039M284.648 80.548l.959-4.185.959 4.185c.074.325.328.579.654.653l4.184.96-4.184.959c-.326.074-.58.328-.654.654l-.96 4.184-.958-4.184c-.076-.326-.33-.58-.654-.654l-4.184-.959 4.184-.96c.324-.074.578-.328.654-.653" mask="url(#zyrlkuy56c)"/>
                        <path fill="#8DA9FA" d="M101.01 100.166c0 3.646-2.956 6.603-6.604 6.603-3.646 0-6.602-2.957-6.602-6.603s2.956-6.603 6.602-6.603c3.648 0 6.604 2.957 6.604 6.603" mask="url(#zyrlkuy56c)"/>
                        <path fill="#CED1D8" d="M108.27 105.329L244.727 105.329 244.727 95.003 108.27 95.003z" mask="url(#zyrlkuy56c)"/>
                        <path fill="#0080FF" d="M77.55 82.172c0 .57-.464 1.035-1.035 1.035-.57 0-1.034-.464-1.034-1.035s.463-1.034 1.034-1.034 1.034.463 1.034 1.034M81.686 82.172c0 .57-.463 1.035-1.034 1.035s-1.034-.464-1.034-1.035.463-1.034 1.034-1.034c.57 0 1.034.463 1.034 1.034M85.823 82.172c0 .57-.462 1.035-1.033 1.035-.572 0-1.035-.464-1.035-1.035s.464-1.034 1.035-1.034c.57 0 1.033.463 1.033 1.034" mask="url(#zyrlkuy56c)"/>
                        <path fill="#333" d="M187.887 166.414c.365 0 .66-.187.887-.56.225-.373.338-.946.335-1.719 0-.507-.051-.925-.155-1.255-.102-.329-.245-.575-.426-.737-.184-.162-.397-.243-.641-.243-.363 0-.656.183-.88.55-.223.365-.336.927-.339 1.685-.002.513.048.94.15 1.276.101.338.245.59.429.755.185.165.398.248.64.248m0 1.386c-.611 0-1.139-.145-1.581-.436-.443-.29-.784-.71-1.023-1.256-.24-.547-.359-1.204-.357-1.973.003-.769.123-1.422.361-1.96.24-.537.579-.947 1.02-1.228.442-.282.969-.423 1.58-.423.611 0 1.139.141 1.583.423.443.281.785.691 1.025 1.23.24.538.358 1.191.356 1.958 0 .771-.12 1.43-.36 1.978-.239.548-.58.966-1.021 1.254-.441.29-.969.433-1.583.433M195.064 160.62L195.064 167.629 193.374 167.629 193.374 162.201 193.333 162.201 191.764 163.16 191.764 161.694 193.493 160.62zM187.887 191.73c.365 0 .66-.187.887-.56.225-.373.338-.946.335-1.72 0-.506-.051-.924-.155-1.254-.102-.33-.245-.575-.426-.737-.184-.162-.397-.243-.641-.243-.363 0-.656.182-.88.549-.223.366-.336.928-.339 1.686-.002.513.048.939.15 1.276.101.338.245.589.429.755.185.165.398.248.64.248m0 1.386c-.611 0-1.139-.146-1.581-.436-.443-.291-.784-.71-1.023-1.257-.24-.546-.359-1.203-.357-1.972.003-.77.123-1.422.361-1.96.24-.537.579-.947 1.02-1.228.442-.282.969-.423 1.58-.423.611 0 1.139.14 1.583.423.443.28.785.69 1.025 1.23.24.538.358 1.19.356 1.958 0 .77-.12 1.43-.36 1.978-.239.548-.58.966-1.021 1.254-.441.289-.969.433-1.583.433M191.823 192.945v-1.219l2.557-2.238c.19-.173.354-.333.489-.477.135-.145.237-.291.308-.439.07-.147.106-.308.106-.48 0-.195-.042-.36-.127-.499-.084-.137-.2-.244-.35-.32-.147-.075-.317-.112-.51-.112s-.363.038-.508.118c-.147.078-.26.191-.341.34-.081.149-.121.328-.121.54h-1.606c0-.475.107-.887.323-1.234.214-.348.515-.615.904-.803.39-.189.842-.283 1.357-.283.532 0 .995.09 1.386.268.393.178.696.425.912.744.216.319.324.688.324 1.107 0 .267-.054.531-.161.794-.108.262-.3.552-.577.87-.277.316-.67.696-1.178 1.138l-.84.775v.043h2.84v1.367h-5.187zM187.887 217.045c.365 0 .66-.187.887-.56.225-.373.338-.946.335-1.72 0-.506-.051-.924-.155-1.254-.102-.329-.245-.575-.426-.737-.184-.162-.397-.243-.641-.243-.363 0-.656.182-.88.55-.223.365-.336.927-.339 1.684-.002.514.048.94.15 1.277.101.338.245.59.429.754.185.166.398.25.64.25m0 1.385c-.611 0-1.139-.146-1.581-.436-.443-.29-.784-.71-1.023-1.257-.24-.546-.359-1.204-.357-1.973.003-.768.123-1.422.361-1.959.24-.537.579-.947 1.02-1.228.442-.282.969-.423 1.58-.423.611 0 1.139.141 1.583.423.443.281.785.691 1.025 1.23.24.538.358 1.191.356 1.957 0 .772-.12 1.431-.36 1.98-.239.547-.58.964-1.021 1.253-.441.29-.969.433-1.583.433M194.489 218.356c-.534 0-1.007-.092-1.42-.275-.41-.184-.735-.438-.973-.762-.237-.324-.358-.697-.362-1.12h1.704c.007.154.057.289.148.407.09.117.215.209.373.275.157.066.336.1.537.1.2 0 .378-.037.532-.108.153-.073.274-.172.36-.298.087-.127.13-.272.128-.437.002-.164-.045-.31-.14-.438-.096-.127-.232-.226-.406-.298-.174-.07-.38-.106-.618-.106h-.68v-1.204h.68c.208 0 .39-.034.549-.103.159-.07.282-.165.37-.29.09-.123.134-.266.132-.428.002-.158-.035-.297-.111-.416-.076-.121-.183-.213-.32-.28-.134-.066-.291-.098-.47-.098-.186 0-.356.032-.507.099-.152.066-.273.159-.361.28-.09.12-.136.26-.141.42h-1.62c.006-.417.122-.784.35-1.103.229-.317.539-.567.933-.747.394-.18.843-.271 1.347-.271.502 0 .943.088 1.324.264.382.175.678.415.89.717.212.302.318.644.318 1.025.003.395-.125.72-.385.975-.26.256-.591.413-.998.472v.055c.544.064.953.24 1.232.527.276.288.414.647.412 1.079 0 .405-.12.765-.358 1.079-.24.314-.57.56-.993.739-.423.18-.908.269-1.456.269" mask="url(#zyrlkuy56c)"/>
                    </g>
                </g>
            </g>
        </g>
    </g>
</svg>
