<svg xmlns="http://www.w3.org/2000/svg" xmlns:xlink="http://www.w3.org/1999/xlink" width="1580" height="240" viewBox="0 0 1580 240">
    <defs>
        <filter id="92m7cs7zee" width="141.9%" height="229.2%" x="-20.9%" y="-64.6%" filterUnits="objectBoundingBox">
            <feOffset dy="6" in="SourceAlpha" result="shadowOffsetOuter1"/>
            <feGaussianBlur in="shadowOffsetOuter1" result="shadowBlurOuter1" stdDeviation="5"/>
            <feColorMatrix in="shadowBlurOuter1" result="shadowMatrixOuter1" values="0 0 0 0 0 0 0 0 0 0 0 0 0 0 0 0 0 0 0.2 0"/>
            <feMerge>
                <feMergeNode in="shadowMatrixOuter1"/>
                <feMergeNode in="SourceGraphic"/>
            </feMerge>
        </filter>
        <rect id="4vt4u7b63a" width="1580" height="240" x="0" y="0" rx="5"/>
        <path id="5w9mmep6nc" d="M0 35.99L79.766 35.99 79.766 0 0 0z"/>
    </defs>
    <g fill="none" fill-rule="evenodd">
        <g>
            <g transform="translate(-278 -216) translate(278 216)">
                <mask id="p5ljza2h1b" fill="#fff">
                    <use xlink:href="#4vt4u7b63a"/>
                </mask>
                <use fill="#124397" xlink:href="#4vt4u7b63a"/>
                <circle cx="576.5" cy="123.5" r="158.5" fill="#FEFEFE" mask="url(#p5ljza2h1b)" opacity=".2"/>
                <circle cx="404.5" cy="281.5" r="158.5" fill="#FEFEFE" mask="url(#p5ljza2h1b)" opacity=".2"/>
                <g fill="#FEFEFE" mask="url(#p5ljza2h1b)">
                    <g>
                        <path d="M2.176 4.852c.204-.062.428-.132.674-.212.245-.08.522-.153.827-.22.306-.068.647-.123 1.024-.166.379-.043.806-.064 1.287-.064 1.413 0 2.385.416 2.913 1.25.527.833.616 1.972.269 3.418l-1.223 5.218H5.268l1.187-5.109c.072-.317.128-.627.17-.927.042-.3.04-.564-.009-.79-.048-.227-.159-.41-.332-.552-.174-.14-.44-.211-.8-.211-.348 0-.702.037-1.06.11l-1.745 7.479H0l2.176-9.224zM15.247 6.322c-.612 0-1.148.223-1.61.67-.461.447-.764 1.039-.908 1.774.743-.025 1.342-.09 1.798-.193.456-.104.81-.23 1.061-.377.252-.147.42-.306.503-.478.084-.171.127-.343.127-.514 0-.588-.324-.882-.971-.882m-5.233 3.969c0-.784.135-1.544.405-2.28.27-.734.65-1.386 1.141-1.956.492-.57 1.089-1.029 1.79-1.378.7-.35 1.477-.524 2.328-.524.42 0 .809.062 1.169.184s.674.3.944.533c.27.232.479.518.63.855.149.336.224.72.224 1.148 0 .686-.15 1.268-.45 1.745-.3.479-.716.868-1.25 1.168-.533.3-1.165.517-1.896.652-.731.135-1.529.202-2.392.202.084.514.267.879.549 1.094.281.214.728.32 1.339.32.384 0 .773-.032 1.169-.1.396-.067.767-.168 1.115-.303l.197 2.15c-.335.134-.763.257-1.285.367-.522.11-1.088.165-1.7.165-.743 0-1.368-.107-1.878-.32-.51-.215-.923-.506-1.241-.874-.317-.368-.548-.796-.692-1.286-.144-.49-.216-1.01-.216-1.562M22.08 4.41l1.366 3.014c.407-.515.794-1.016 1.16-1.507.365-.49.716-.992 1.051-1.506h2.68c-.504.735-1.056 1.497-1.655 2.287-.6.79-1.294 1.614-2.085 2.472.479.918.886 1.768 1.222 2.545.336.778.635 1.565.9 2.361h-2.644c-.215-.6-.431-1.151-.647-1.654-.216-.502-.426-.967-.63-1.396l-2.606 3.05h-2.805l4.296-4.924-2.32-4.741h2.716zM29.864 2.003l2.788-.441-.684 2.849h2.985l-.54 2.241h-2.966l-.791 3.382c-.072.281-.117.545-.135.79-.018.245.012.456.09.634.078.177.212.316.404.413.191.098.456.147.791.147.288 0 .567-.028.836-.083.27-.055.543-.131.818-.23l.198 2.096c-.36.134-.749.25-1.168.349-.42.098-.918.147-1.493.147-.827 0-1.468-.126-1.924-.377-.455-.25-.779-.594-.97-1.029-.193-.435-.277-.934-.252-1.497.023-.564.107-1.158.251-1.783l1.762-7.608zM44.873 4.41l-1.277 5.495c-.168.698-.215 1.4-.144 2.104.072.704.21 1.333.414 1.884l-2.391.348c-.133-.269-.258-.569-.378-.9-.336.27-.713.497-1.132.68-.42.184-.888.276-1.403.276-.708 0-1.28-.132-1.717-.395-.438-.263-.764-.613-.98-1.048-.216-.434-.333-.934-.351-1.498-.018-.563.045-1.14.189-1.727l1.223-5.218h2.679L38.4 9.592c-.06.27-.11.546-.152.827-.043.283-.046.542-.01.781.036.24.129.435.279.588.15.154.387.23.71.23.276 0 .53-.052.764-.156.234-.104.482-.285.747-.542.023-.306.062-.628.117-.965.053-.336.11-.646.17-.927l1.169-5.017h2.679zM46.868 4.852c.205-.062.43-.132.675-.212.245-.08.521-.153.827-.22.306-.068.647-.123 1.024-.166.379-.043.806-.064 1.287-.064 1.413 0 2.384.416 2.912 1.25.528.833.617 1.972.27 3.418l-1.223 5.218h-2.679l1.187-5.109c.072-.317.128-.627.17-.927.042-.3.04-.564-.009-.79-.048-.227-.159-.41-.332-.552-.174-.14-.44-.211-.8-.211-.348 0-.702.037-1.06.11l-1.745 7.479h-2.679l2.175-9.224zM58.123 3.235c-.371 0-.707-.114-1.007-.34-.3-.227-.45-.573-.45-1.039 0-.257.052-.499.154-.726.102-.226.236-.422.405-.588.167-.165.362-.297.584-.395.222-.098.458-.147.71-.147.371 0 .707.113 1.007.34.3.227.45.573.45 1.038 0 .257-.051.5-.153.726-.102.227-.238.423-.405.589-.168.165-.363.297-.584.394-.223.099-.46.148-.71.148zm-1.294 10.84h-2.661l2.247-9.664h2.68l-2.266 9.665zM59.076 10.217c0-.833.133-1.617.396-2.352.264-.735.64-1.378 1.133-1.929.49-.552 1.087-.986 1.789-1.305.7-.319 1.483-.478 2.346-.478.54 0 1.022.053 1.447.156.426.105.812.242 1.16.413l-.917 2.133c-.24-.098-.489-.187-.746-.267-.258-.08-.572-.12-.944-.12-.9 0-1.607.31-2.122.929-.515.618-.773 1.46-.773 2.526 0 .625.132 1.13.396 1.516.263.386.749.58 1.456.58.347 0 .683-.038 1.007-.111.323-.074.61-.166.863-.276l.197 2.187c-.335.135-.704.255-1.105.359-.402.104-.89.155-1.465.155-.744 0-1.373-.11-1.888-.33-.516-.22-.942-.517-1.277-.892-.335-.373-.578-.811-.728-1.314-.15-.502-.225-1.028-.225-1.58M71.609 6.468c-.396 0-.744.117-1.043.35-.3.232-.551.526-.755.882-.204.355-.357.744-.459 1.167-.102.422-.153.823-.153 1.203 0 .625.096 1.106.288 1.443.192.337.54.505 1.043.505.396 0 .743-.116 1.043-.35.3-.232.55-.526.755-.881.204-.356.356-.745.458-1.167.102-.423.153-.824.153-1.204 0-.625-.096-1.105-.288-1.442-.191-.337-.539-.506-1.042-.506m-1.33 7.865c-.636 0-1.187-.098-1.655-.294-.468-.195-.854-.47-1.16-.827-.306-.354-.536-.774-.692-1.258-.156-.484-.234-1.02-.234-1.608 0-.735.117-1.47.351-2.205.234-.735.578-1.397 1.033-1.985.456-.588 1.013-1.068 1.673-1.442.66-.374 1.414-.56 2.265-.56.624 0 1.172.098 1.645.293.474.196.864.472 1.17.827.305.356.535.775.691 1.259.156.484.234 1.02.234 1.608 0 .735-.114 1.47-.342 2.205-.227.735-.563 1.396-1.006 1.985-.444.587-.998 1.069-1.664 1.442-.665.374-1.435.56-2.31.56M82.827 6.762c-.24-.06-.476-.119-.71-.174-.234-.055-.578-.083-1.033-.083-.168 0-.355.016-.558.046-.204.031-.372.065-.503.101l-1.744 7.424H75.6l2.158-9.151c.515-.171 1.094-.334 1.736-.487.64-.153 1.362-.23 2.166-.23.3 0 .632.028.997.083.366.055.687.144.963.266l-.792 2.205zM84.428 4.852c.204-.062.429-.132.674-.212.246-.08.522-.153.827-.22.306-.068.647-.123 1.025-.166.378-.043.806-.064 1.286-.064 1.414 0 2.385.416 2.913 1.25.527.833.617 1.972.27 3.418L90.2 14.076h-2.68l1.187-5.109c.072-.317.129-.627.172-.927.041-.3.038-.564-.01-.79-.048-.227-.159-.41-.333-.552-.173-.14-.44-.211-.8-.211-.348 0-.701.037-1.06.11l-1.744 7.479h-2.68l2.176-9.224z" transform="translate(126 188)"/>
                    </g>
                </g>
                <text font-weight="400" font-size="18" mask="url(#p5ljza2h1b)">
                    <tspan x="24" y="89" fill="#FEFEFE">월요일마다 공개되는</tspan> <tspan x="24" y="115" fill="#FAC42D">한국무역협회 스타트업브랜치 선정</tspan> <tspan x="280.464" y="115" fill="#FEFEFE"> </tspan> <tspan x="24" y="141" fill="#FEFEFE">스타트업을 만나보세요</tspan>
                </text>
                <text fill="#FEFEFE" font-weight="400" font-size="24" mask="url(#p5ljza2h1b)">
                    <tspan x="24.116" y="52">[스타트업브랜치 X 넥스트유니콘]</tspan>
                </text>
                <g mask="url(#p5ljza2h1b)">
                    <g transform="translate(24 180)">
                        <path fill="#FEFEFE" d="M8.268 9.665c-.032-.305-.095-.57-.188-.787-.238-.528-.542-.949-.904-1.247-.337-.272-.69-.479-1.048-.615-.375-.142-.917-.284-1.612-.423-.468-.084-.836-.161-1.088-.229-.295-.079-.57-.227-.819-.44-.278-.239-.548-.593-.596-2.04-.043-1.276.616-1.714 1.207-1.91.32-.108.495-.127.828-.127.384 0 .73.09 1.029.264.308.18.48.401.671.787.146.36.206.543.228.931.013.24.058.277.258.277l.761.017.736-.017c.15 0 .212-.044.244-.077.052-.052.076-.127.076-.235 0-.402-.065-.892-.065-.892-.03-.165-.078-.435-.206-.68-.083-.158-.199-.368-.367-.614C6.98.956 6.532.533 5.671.226c-.168-.06-.324-.107-.577-.16C4.827.01 4.716.01 4.37.006 2.521-.023 1.897.423 1.897.423c-.483.277-.579.383-.758.557-.555.544-.896 1.196-.928 2.01C.185 3.46.205 4.045.205 4.045c0 .234-.021 1.135.247 2.252.045.186.146.41.292.713.281.499.655.883 1.11 1.136.469.262 1.152.441 2.032.531.772.107 1.361.345 1.754.71.408.38.618.861.623 1.43.008.057.013.183-.02.585l-.036.431c-.06.412-.13.639-.388.936-.453.495-.99.748-1.592.748-.405 0-.757-.08-1.048-.24-.295-.163-.54-.413-.728-.745-.077-.139-.136-.302-.18-.5-.04-.18-.06-.331-.062-.461-.019-.144-.035-.38-.252-.459-.212-.078-1.613-.032-1.613-.032-.215.013-.341.01-.343.297-.014 1.575.303 2.038.774 2.629.479.6 1.103 1.02 1.84 1.306.396.124 1.006.191 1.755.191.532 0 1.05-.113 1.54-.336.482-.22.895-.525 1.228-.908l.124-.147c.093-.12.088-.116.153-.198s.146-.194.2-.286c.064-.114.167-.33.305-.64.143-.397.25-.765.318-1.086.067-.316.1-.644.1-.976 0-.183-.011-.465-.035-.838l-.035-.423zM16.365 4.606c.074 0 .12-.015.154-.037.083-.057.138-.151.138-.348 0-.75-.007-.993-.014-1.065 0-.103-.03-.16-.097-.209-.09-.063-.233-.037-.356-.044l-5.822-.026c-.09.007-.138.028-.152.046-.026.034-.04.095-.04.178l-.028 1.35c0 .036.007.058.023.08.02.028.04.039.087.041.1.003 2.172.025 2.172.025l-.073 10.548c.009.124.042.216.1.273.057.058.13.085.227.085h1.364c.202-.013.282-.098.282-.312v-.012c.007-.106.03-10.581.03-10.581l2.005.008zM43.558 4.606c.074 0 .12-.015.153-.037.083-.057.14-.151.14-.348 0-.75-.009-.993-.015-1.065 0-.103-.03-.16-.097-.209-.09-.063-.234-.037-.356-.044l-5.822-.026c-.09.007-.138.028-.152.046-.026.034-.04.095-.04.178l-.028 1.35c0 .036.007.058.022.08.02.028.04.039.087.041.101.003 2.173.025 2.173.025l-.073 10.548c.008.124.041.216.1.273.057.058.129.085.226.085h1.364c.203-.013.283-.098.283-.312v-.012c.007-.106.03-10.581.03-10.581l2.005.008zM20.82 11.04s.341-1.904.518-3.11l.48-2.878.456-.003.99 5.99H20.82zm3.267 4.416c.013.011.072.047.258.047h1.541c.268 0 .268-.099.268-.179v-.04l-.01-.009-.004-.07c-.02-.257-2.367-11.9-2.367-11.9-.05-.21-.05-.246-.119-.323-.109-.104-.183-.109-.406-.109l-2.436-.016c-.085.005-.181.021-.263.09-.088.074-.123.17-.136.25-.056.249-2.407 11.703-2.445 12.017l-.013.072v.024c0 .077.028.11.056.133.048.04.117.06.208.06l.487-.015h1.221c.124 0 .174-.042.197-.168l.513-2.382h.787l2.091.016.47 2.277c.039.164.088.214.102.225zM33.519 8.952c-.023.5-.203.877-.536 1.13-.192.144-.425.217-.694.217l-1.54-.017s.007-5.514.015-5.567c.021-.222.13-.331.218-.384.106-.063.252-.094.447-.094 0 0 1-.007 1.328.042.302.045.428.203.55.357.121.153.155.264.182.623l.03 3.693zm.81 2.52l.116-.083c.453-.327.96-.69.983-1.975l.005-3.895c-.02-.48-.125-.963-.313-1.434-.158-.333-.378-.608-.647-.806-.262-.19-.543-.319-.832-.382-.301-.066-.596-.1-1.144-.1L29 2.813c-.113 0-.197.028-.26.084-.036.033-.085.093-.085.228l.015 12.052c0 .221.086.306.318.312l1.464.015c.131 0 .234-.032.313-.097.069-.057.1-.13.1-.23v-3.201h1.523l.87 3.06c.039.138.115.247.234.335.12.09.255.133.412.133h1.393c.08 0 .146-.028.209-.088.07-.066.085-.123.088-.163l-.023-.115-1.242-3.665zM57.662 4.714c.02-.222.13-.331.217-.384.106-.064.207-.061.403-.061 0 0 1.036-.017 1.367.02.257.03.42.126.515.298.208.376.188 1.698.188 2.88l-.015 1.492c-.023.493-.203.87-.535 1.123-.193.144-.426.217-.695.217l-1.435-.016s-.019-5.517-.01-5.57zM55.49 15.176c0 .221.086.306.317.312l1.464.015c.131 0 .234-.032.313-.097.069-.057.1-.13.1-.23v-3.208l.995.007c1.066 0 1.881-.16 2.421-.478.526-.308 1.174-1.075 1.154-2.165V5.736c-.02-.802-.07-1.183-.258-1.654-.158-.334-.344-.605-.614-.803-.262-.19-.445-.327-.922-.382-.094-.011-4.64-.085-4.64-.085-.114 0-.198.028-.26.084-.037.033-.085.093-.085.228l.015 12.052zM18.328 27.93c0 .695-.273 1.228-.812 1.582-.236.178-.536.277-.86.281l-.527.008-1.046-.008c-.296 0-.53-.2-.604-.52l-.009-.067v-3.75c0-.475.294-.77.768-.77h.65c.43.007.746.014 1.151.089.335.06.643.224.897.502.26.285.392.626.392 1.014v1.638zm-3.784-9.77c.003-.17.064-.325.175-.45.126-.139.286-.212.463-.212 0 0 1.263 0 1.323.004.322.02.629.163.896.422.273.265.433.569.482.937.033.208.033.267.037.598l.019.512-.004.732-.034.628c-.017.22-.082.433-.198.657-.115.222-.284.424-.503.6-.07.068-.166.132-.279.184-.124.057-.238.086-.349.089-.082.008-1.39.019-1.39.019-.152 0-.37-.02-.509-.186-.09-.108-.129-.255-.129-.49 0 0-.025-3.677 0-4.045zm5.924 7.46c-.337-1.276-1.65-1.704-1.65-1.704l.324-.25c.374-.29.64-.66.79-1.103.16-.48.26-1.155.297-2.009l.005-1.091v-.647c-.003-.551-.091-.983-.254-1.352-.243-.628-.678-1.064-1.333-1.337-.257-.117-.61-.176-1.05-.176h-3.5c-1.318 0-1.59.135-1.632.162 0 0-.035.032-.077.144-.04.107-.06.227-.06.356l-.018 13.976c0 .314.008.377.009.38l.019.05-.008.033c-.002.115.031.195.108.263.09.078.194.115.329.115l2.003-.019 3.182.02c.275 0 .409.004.781-.048.363-.05 1.07-.312 1.59-1.225.2-.387.27-.6.329-1.073.032-.265.003-1.977.003-1.977 0-.59-.077-1.071-.187-1.488zM28.466 24.88c-.023.499-.203.876-.536 1.129-.192.144-.426.217-.694.217l-1.541-.017v-.19c0-.811 0-1.42.003-1.825.001-.203.002-.356.004-.458 0-.05.001-.099.007-.143-.01-.195-.014-.993-.014-2.437 0-.351.007-.461.016-.514.02-.222.13-.33.218-.384.106-.063.252-.094.447-.094 0 0 .95-.005 1.28.04.335.044.475.205.597.359.122.153.183.363.183.623.03.297.044 1.026.044 2.209l-.014 1.484zm.81 2.519l.116-.083c.453-.327.733-.807.855-1.468l.043-.862.092-2.363c.002-.013.012-.1.012-.577s-.01-.565-.012-.578l-.003-.022c-.019-.48-.124-.963-.312-1.434-.159-.333-.378-.608-.647-.806-.263-.19-.543-.319-.832-.382-.302-.066-.687-.1-1.145-.1l-3.495.015c-.113 0-.197.028-.26.084-.036.033-.085.093-.085.228v7.075s.015 4.067.015 4.977c0 .221.086.306.318.312l1.464.015c.13 0 .234-.032.312-.097.07-.056.101-.13.101-.23v-3.201h1.523l.87 3.06c.038.138.115.247.234.335.12.09.255.133.412.133h1.393c.08 0 .146-.028.209-.088.07-.066.085-.123.088-.163l-.023-.115-1.243-3.665zM51.2 19.122c0-.06-.011-.107-.032-.128l-.027-.033c-.064-.102-.151-.148-.282-.148h-1.26c-.134-.007-.234.028-.32.11-.085.083-.126.18-.126.306l.067 8.106-2.828-8.165c-.032-.083-.104-.168-.21-.244-.105-.075-.203-.112-.29-.113-1.229-.007-1.89-.021-2.187-.015-.089 0-.17.037-.248.115-.081.08-.123.169-.13.27l-.014 11.831c0 .126.035.219.11.291.08.077.193.118.345.125l1.268-.007c.209-.02.324-.127.324-.335l-.104-8.824 1.024 2.724.49 1.366 1.63 4.476c.092.241.14.347.17.39.032.046.044.084.142.13.06.029.165.042.427.05 0 0 1.74.006 1.767.002.128-.014.21-.048.251-.103.049-.064.073-.165.073-.3l-.03-11.877zM60.411 27.505c-.11-.03-1.406-.038-1.406-.038-.287 0-.357.117-.389.23l-.042.426c-.07.599-.338.858-.625 1.082-.285.224-.621.338-1 .338-.177 0-.35-.022-.484-.052-.193-.045-.485-.24-.748-.57-.264-.329-.398-.683-.398-1.053v-.756s-.099-4.88.046-5.757c.053-.32.075-.53.281-.776.187-.222.384-.303.719-.383.334-.079.611-.076.724-.07.36.018.574.103.814.268.235.163.423.378.546.657.093.226.137.46.16.801 0 .096.03.19.103.258.078.07.207.092.287.092l1.155-.007c.356-.011.43-.085.427-.464v-.193c-.018-.285-.03-.54-.204-.992-.212-.49-.44-.858-.677-1.137-.231-.272-.739-.686-1.584-.926-.912-.26-1.8-.196-2.532.116-.895.432-1.437.932-1.721 1.565-.155.282-.26.575-.32.885-.062.316-.093.71-.093 1.17l.03 5.483c0 .712.128 1.34.38 1.87.251.524.573.929 1.026 1.234.292.189.624.363.754.412.368.138.699.205 1.36.212.52-.007.732-.022 1.051-.082.486-.105.9-.32 1.27-.608.282-.245.543-.566.768-.946.225-.38.376-.775.451-1.175.114-.665.12-.882.037-1.011-.04-.065-.105-.087-.166-.103M53.333 3.36c0-.532-.175-.568-.3-.58l-1.41.022c-.188.01-.278.216-.278.335l-.03 8.66c-.007.453-.024.743-.244 1.063-.23.334-.469.497-.829.631-.122.045-.4.106-.785.112-.385-.006-.664-.067-.786-.112-.36-.134-.598-.297-.828-.631-.22-.32-.238-.61-.245-1.063l-.03-8.66c0-.12-.09-.325-.277-.335l-1.41-.022c-.126.012-.3.048-.3.58-.02.61-.015 8.385-.015 8.385.033 1.427.621 2.298.858 2.544.792.842 1.387 1.099 2.274 1.182.188.02.366.03.545.03.074.003.354.003.428 0 .179 0 .356-.01.544-.03.888-.083 1.482-.34 2.275-1.182.236-.246.824-1.117.858-2.544 0 0 .004-7.775-.015-8.385M35.66 26.967s.341-1.904.518-3.11l.479-2.878.456-.003.99 5.99H35.66zm3.266 4.416c.014.011.073.047.258.047h1.542c.267 0 .267-.099.267-.178v-.04l-.009-.01-.005-.07c-.02-.257-2.366-11.9-2.366-11.9-.051-.21-.05-.245-.12-.322-.108-.105-.183-.11-.406-.11l-2.435-.015c-.086.004-.182.02-.264.09-.087.073-.123.168-.135.25-.057.248-2.407 11.703-2.445 12.016l-.013.072v.024c0 .077.028.11.055.133.049.04.117.06.209.06l.486-.015h1.222c.124 0 .173-.042.196-.168l.513-2.381h.788l2.09.016.47 2.276c.04.164.088.214.102.225z"/>
                        <mask id="t8k80xc4cd" fill="#fff">
                            <use xlink:href="#5w9mmep6nc"/>
                        </mask>
                        <path fill="#FEFEFE" d="M0 32.597L69.74 32.597 69.74 32.382 0 32.382z" mask="url(#t8k80xc4cd)"/>
                        <path fill="#A7C2D1" d="M73.447 2.921l.65 4.423.456 3.102.65 4.423.456 3.1 2.15 14.628h1.957L75.022.467V.464c-.03-.24-.192-.433-.393-.452L74.471 0h-1.453l.43 2.921zM71.47 32.597h1.958l-.586-3.914h.008l-.098-.66h-.008l-.497-3.337h.012l-.412-2.795h-.004l-.467-3.188-.099-.671-.458-3.101-.866-5.866-.245-1.658-.653-4.424-.37-2.506V.474c-.03-.24-.192-.433-.393-.452L68.012 0h-1.333l4.791 32.597z" mask="url(#t8k80xc4cd)"/>
                        <path fill="#FEFEFE" d="M71.6 6.746l-4.337-.063.456-3.1 4.34.062-.459 3.1zm-.555 3.762l-4.335-.062.456-3.101 4.337.062-.458 3.1zm-.556 3.762l-4.332-.062.456-3.101 4.334.062-.458 3.1zm-.555 3.762l-4.33-.062.456-3.101 4.332.062-.458 3.101zm-.566 3.859l-4.328-.062.467-3.198 4.33.062-.47 3.198zm-.901 6.131l-4.323-.062.495-3.336 4.325.062-.497 3.336zm4.451-28c-.2.019-.362.212-.392.452v.003l-.37 2.507-4.34-.063.43-2.921h-1.454l-.159.012c-.2.02-.362.212-.392.452v.003l-4.744 32.13h1.957l.593-3.976 4.322.062-.586 3.914h1.958L74.53 0H73.2l-.28.022zM1.859 35.437l.01-.017h.079l-.028.051c-.037.062-.082.117-.127.172H1.79c-.186.21-.45.34-.752.337-.57 0-1.034-.54-1.038-1.203 0-.66.47-1.199 1.04-1.202.276 0 .547.127.74.336h.003c.045.055.09.117.127.179l.028.052h-.08l-.01-.018c-.03-.061-.075-.116-.117-.165-.185-.202-.425-.312-.69-.316-.54 0-.969.505-.972 1.134 0 .632.436 1.137.969 1.134.285 0 .525-.114.7-.316.045-.048.09-.103.12-.158M5.03 34.742l.803-.01c.368 0 .78-.26.777-.532.003-.313-.162-.553-.636-.557H5.03v1.1zm.57.093l-.03-.03-.54.006v1.168h-.07v-.034l.002-1.134h-.001v-.068h.001l.002-1.13v-.035h.034l.976-.004c.505 0 .708.293.704.626.004.306-.457.601-.845.601l-.17.002c.403.44.515.368.954 1.135l.027.052h-.079l-.01-.018c-.402-.707-.498-.631-.955-1.137zM11.455 33.575L11.49 33.575 11.49 33.643 11.455 33.643 9.909 33.643 9.909 34.743 11.029 34.743 11.064 34.743 11.064 34.811 11.029 34.811 9.909 34.811 9.909 35.911 11.455 35.911 11.49 35.911 11.49 35.98 11.455 35.98 9.875 35.98 9.841 35.98 9.841 35.945 9.841 34.811 9.841 34.743 9.841 33.609 9.841 33.575 9.875 33.575zM16.233 35.33l-.722-1.635-.722 1.635h1.444zm-1.423.069h-.035v-.04l-.264.6-.007.02h-.075l.02-.048 1.031-2.336.007-.02h.048l.007.02 1.03 2.336.021.049h-.076l-.006-.021-.272-.615v.055H14.81zM20.394 33.575L21.215 33.575 21.25 33.575 21.25 33.643 21.215 33.643 20.394 33.643 20.394 35.945 20.394 35.98 20.326 35.98 20.326 35.945 20.326 33.643 19.498 33.643 19.463 33.643 19.463 33.575 19.498 33.575 20.326 33.575zM30.089 34.789L30.089 35.945 30.089 35.98 30.02 35.98 30.02 35.945 30.02 34.789 29.093 33.63 29.048 33.575 29.137 33.575 29.148 33.588 30.055 34.722 30.948 33.588 30.958 33.575 31.047 33.575 31.003 33.63zM33.863 34.777c0 .632.46 1.137 1.034 1.134.574 0 1.03-.498 1.027-1.134 0-.632-.45-1.13-1.024-1.134-.577 0-1.037.502-1.037 1.134m-.069 0c0-.66.505-1.199 1.106-1.203.598 0 1.096.547 1.093 1.203 0 .66-.491 1.206-1.096 1.203-.605 0-1.103-.543-1.103-1.203M38.808 33.609v-.03h.076l-.004.034-.003 1.35c0 .529.381.951.859.948.48 0 .862-.416.859-.948V33.579h.075l-.003.034-.004 1.35c0 .556-.415 1.02-.927 1.016-.509 0-.924-.457-.928-1.016v-1.354zM43.795 34.742l.803-.01c.368 0 .78-.26.777-.532.003-.313-.162-.553-.636-.557h-.944v1.1zm.57.093l-.03-.03-.54.006v1.168h-.069v-.034l.001-1.134h-.001v-.068h.001l.002-1.13v-.035h.034l.976-.004c.505 0 .708.293.705.626.003.306-.457.601-.846.601l-.17.002c.403.44.516.368.954 1.135l.027.052h-.079l-.01-.018c-.402-.707-.498-.631-.955-1.137zM48.022 33.616L48.012 33.575 48.084 33.575 48.091 33.602 48.613 35.825 49.4 33.599 49.406 33.575 49.454 33.575 49.462 33.599 50.248 35.825 50.77 33.602 50.777 33.575 50.85 33.575 50.839 33.616 50.289 35.952 50.282 35.98 50.231 35.98 50.224 35.955 49.431 33.712 48.637 35.955 48.63 35.98 48.579 35.98 48.571 35.952zM53.245 34.777c0 .632.46 1.137 1.035 1.134.573 0 1.03-.498 1.027-1.134 0-.632-.45-1.13-1.024-1.134-.577 0-1.038.502-1.038 1.134m-.068 0c0-.66.505-1.199 1.106-1.203.598 0 1.096.547 1.092 1.203 0 .66-.49 1.206-1.095 1.203-.605 0-1.103-.543-1.103-1.203M58.332 34.742l.803-.01c.368 0 .78-.26.777-.532.003-.313-.162-.553-.636-.557h-.944v1.1zm.57.093l-.03-.03-.54.006v1.168h-.07v-.034l.002-1.134h-.001v-.068h.001l.002-1.13v-.035h.034l.976-.004c.505 0 .708.293.705.626.003.306-.457.601-.846.601l-.17.002c.403.44.516.368.954 1.135l.027.052h-.079l-.01-.018c-.402-.707-.498-.631-.955-1.137zM63.28 33.609L63.28 33.574 63.349 33.574 63.349 33.609 63.349 35.911 64.62 35.911 64.654 35.911 64.654 35.979 64.62 35.979 63.315 35.979 63.28 35.979 63.28 35.945zM67.954 35.91h.862c.475 0 .86-.494.856-1.133 0-.635-.378-1.13-.856-1.134h-.862v2.268zm-.034.07h-.035v-.035l.004-2.332v-.035h.034l.893-.004c.509 0 .928.55.925 1.203 0 .656-.413 1.206-.925 1.202h-.896zM25.992 33.575L26.027 33.575 26.027 33.643 25.992 33.643 24.447 33.643 24.447 34.743 25.566 34.743 25.601 34.743 25.601 34.811 25.566 34.811 24.447 34.811 24.447 35.911 25.992 35.911 26.027 35.911 26.027 35.98 25.992 35.98 24.412 35.98 24.378 35.98 24.378 35.945 24.378 34.811 24.378 34.743 24.378 33.609 24.378 33.575 24.412 33.575z" mask="url(#t8k80xc4cd)"/>
                    </g>
                </g>
                <rect width="1160" height="192" x="396" y="24" fill="#FEFEFE" mask="url(#p5ljza2h1b)" rx="5"/>
                <path fill="#D1D1D1" d="M686 48H687V192H686zM976 48H977V192H976zM1266 48H1267V192H1266z" mask="url(#p5ljza2h1b)"/>
                <text fill="#D1D1D1" font-weight="700" font-size="24" font-weight="bold" mask="url(#p5ljza2h1b)">
                    <tspan x="512.268" y="84">1주차</tspan>
                </text>
                <text fill="#124397" font-weight="700" font-size="24" font-weight="bold" mask="url(#p5ljza2h1b)">
                    <tspan x="801.268" y="84">2주차</tspan>
                </text>
                <text fill="#124397" font-weight="700" font-size="24" font-weight="bold" mask="url(#p5ljza2h1b)">
                    <tspan x="1091.268" y="84">3주차</tspan>
                </text>
                <rect width="145" height="44" x="469" y="96" fill="#D1D1D1" mask="url(#p5ljza2h1b)" rx="5"/>
                <rect width="145" height="44" x="758" y="96" fill="#124397" mask="url(#p5ljza2h1b)" rx="5"/>
                <rect width="145" height="44" x="1048" y="96" fill="#124397" mask="url(#p5ljza2h1b)" rx="5"/>
                <text fill="#FEFEFE" font-weight="400" font-size="24" mask="url(#p5ljza2h1b)">
                    <tspan x="488.124" y="128">10월 12일</tspan>
                </text>
                <text fill="#FEFEFE" font-weight="400" font-size="24" mask="url(#p5ljza2h1b)">
                    <tspan x="777.124" y="128">10월 19일</tspan>
                </text>
                <text fill="#FEFEFE" font-weight="400" font-size="24" mask="url(#p5ljza2h1b)">
                    <tspan x="1067.124" y="128">10월 26일</tspan>
                </text>
                <text fill="#D1D1D1" font-weight="400" font-size="24" letter-spacing="-.2" mask="url(#p5ljza2h1b)">
                    <tspan x="468.02" y="175">선정 20팀 공개</tspan>
                </text>
                <text fill="#333" font-weight="400" font-size="24" letter-spacing="-.2" mask="url(#p5ljza2h1b)">
                    <tspan x="757.02" y="175">선정 20팀 공개</tspan>
                </text>
                <text fill="#333" font-weight="400" font-size="24" letter-spacing="-.2" mask="url(#p5ljza2h1b)">
                    <tspan x="1047.02" y="175">선정 20팀 공개</tspan>
                </text>
                <text fill="#124397" font-weight="700" font-size="24" font-weight="bold" mask="url(#p5ljza2h1b)">
                    <tspan x="1378.544" y="84">4 주차</tspan>
                </text>
                <rect width="145" height="44" x="1338" y="96" fill="#124397" mask="url(#p5ljza2h1b)" rx="5"/>
                <text fill="#FEFEFE" font-weight="400" font-size="24" mask="url(#p5ljza2h1b)">
                    <tspan x="1357.124" y="128">11월 02일</tspan>
                </text>
                <text fill="#333" font-weight="400" font-size="24" letter-spacing="-.2" mask="url(#p5ljza2h1b)">
                    <tspan x="1337.02" y="175">선정 20팀 공개</tspan>
                </text>
                <g filter="url(#92m7cs7zee)" mask="url(#p5ljza2h1b)">
                    <g transform="rotate(-15 682.99 -1696.31)">
                        <rect width="146" height="46" x="1" y="1" fill="#FE5859" fill-opacity=".8" stroke="#FD5859" stroke-width="2" rx="5"/>
                        <text font-weight="700" font-size="20" font-weight="bold" letter-spacing="-.167">
                            <tspan x="35.347" y="33" fill="#FEFEFE">공개 완료</tspan>
                        </text>
                    </g>
                </g>
            </g>
        </g>
    </g>
</svg>
