<svg xmlns="http://www.w3.org/2000/svg" xmlns:xlink="http://www.w3.org/1999/xlink" width="160" height="146" viewBox="0 0 160 146">
    <defs>
        <path id="03lc11tf7a" d="M.496 16.645c0 9 7.276 16.296 16.253 16.296 8.976 0 16.253-7.296 16.253-16.296 0-9.001-7.277-16.297-16.253-16.297C7.772.348.496 7.644.496 16.645z"/>
        <path id="we1v91i6xc" d="M0.009 0.417L0.009 16.714 6.138 12.082 11.618 16.714 11.618 0.417z"/>
    </defs>
    <g fill="none" fill-rule="evenodd">
        <g>
            <g>
                <g>
                    <path fill="#F4F9FF" d="M35.283 63.448c8.485-.64 18.246 1.151 18.246 1.151l.766-4.158L77.835 63l-1.275 5.053s6.57 1.216 13.014 3.007c6.444 1.79 17.736 5.181 23.158 4.797 5.424-.383 8.294-3.837 10.846-6.972 2.552-3.134 5.87-10.427 5.87-10.427l.232.122c-.201-1.854-.766-8.363.77-11.928 1.68-3.899 3.2-6.026 4.517-6.324.592-.133 1.038-.114 1.368-.035.171-.438.432-1.083.736-1.797C124.82 15.64 100.751.1 73.06.1 32.95.1.433 32.704.433 72.92c0 3.75.283 7.432.829 11.03 1.918-3.516 4.452-6.756 7.162-9.756 6.125-6.78 18.374-10.108 26.86-10.747" transform="translate(-1234 -621) translate(1152 597) translate(82 24)"/>
                    <g transform="translate(-1234 -621) translate(1152 597) translate(82 24) translate(126.619 6.706)">
                        <mask id="wgu25fklub" fill="#fff">
                            <use xlink:href="#03lc11tf7a"/>
                        </mask>
                        <path fill="#2581FF" d="M-5.309 38.184L38.807 38.184 38.807 -6.049 -5.309 -6.049z" mask="url(#wgu25fklub)"/>
                    </g>
                    <g>
                        <path fill="#FEFEFE" d="M126.962 42.786s1.244-1.295 1.435-2.494c.192-1.2 1.77-13.05 1.77-13.05l1.436-.24s.91-1.343.861-1.918c-.047-.576-.164-5.47-.656-6.43-.492-.959-2.023-2.59-2.645-2.83-.622-.24-1.335-.288-1.335-.288s-.504-2.014-1.14-2.638c-.635-.624-3.363-1.583-3.363-1.583l2.585-8.54s.133-1.18-.91-2.015c-1.043-.835-2.318-.496-2.977.304-.66.8-3.53 6.717-3.721 7.236-.192.52-.637 1.48-.637 1.48s-1.517-1.008-2.617.335-3.024 4.51-3.473 7.053c-.451 2.542-.69 8.875-.307 11.178.383 2.303 15.694 14.44 15.694 14.44" transform="translate(-1234 -621) translate(1152 597) translate(82 24) translate(18.993 31.52)"/>
                        <path fill="#F4F9FF" d="M97.504 78.432c-12.185 4.222-25.583.256-25.583.256s.383 6.972-.064 14.457c-.349 5.848-1.477 15.428-1.953 19.335 28.984-6.464 51.446-30.29 55.96-60.036-1.682 3.224-3.848 6.41-5.903 9.1-3.765 4.926-10.272 12.666-22.457 16.888M10.995 64.295c-2.781 3.502-1.122 7.783-.406 9.258.246-.115.52-.226.82-.313.66-.192 1.324-.165 1.773-.107.16-.385.468-.915 1.05-1.48.528-.515 1.045-.748 1.463-.856 1.589-5.11 2.573-9.188 2.573-9.188s-4.53-.768-7.273 2.686" transform="translate(-1234 -621) translate(1152 597) translate(82 24) translate(18.993 31.52)"/>
                        <path fill="#FEFEFE" d="M15.209 72.33c-.059.048-.117.094-.177.152-.775.753-.879 1.366-.883 1.391l-.1.642-.626-.165c-.007-.002-.882-.238-1.693-.001-.666.194-1.21.54-1.426.69L.9 91.002c1.31 1.41 2.672 2.77 4.087 4.071 1.917-3.29 5.088-9.168 7.603-15.426.966-2.402 1.85-4.934 2.619-7.317" transform="translate(-1234 -621) translate(1152 597) translate(82 24) translate(18.993 31.52)"/>
                        <path fill="#2A375D" d="M10.304 75.04c.216-.15.76-.498 1.426-.691.81-.237 1.686-.001 1.693.001l.625.165.101-.642c.004-.025.108-.638.883-1.391.06-.059.119-.104.177-.152-.77 2.383-1.653 4.915-2.619 7.317-2.516 6.258-5.686 12.137-7.603 15.426.265.244.532.484.801.724l11.395-25.04s-1.921.455-2.472 1.175c-.55.719-.856 1.966-.856 1.966l-4.742.312L.121 90.153c.257.286.518.568.78.85l9.403-15.964zM117.317 10.45c-.29-.127-.63.007-.756.3-.046.107-1.134 2.638-1.492 3.874-.646 2.234-.841 4.306-.85 4.394-.029.317.205.598.52.627l.054.003c.294 0 .545-.225.573-.524.002-.02.194-2.054.808-4.178.338-1.167 1.433-3.713 1.443-3.739.126-.292-.008-.631-.3-.758" transform="translate(-1234 -621) translate(1152 597) translate(82 24) translate(18.993 31.52)"/>
                    </g>
                    <g transform="translate(-1234 -621) translate(1152 597) translate(82 24) translate(137.554 15.939)">
                        <mask id="q4kwm9jb8d" fill="#fff">
                            <use xlink:href="#we1v91i6xc"/>
                        </mask>
                        <path fill="#FEFEFE" d="M-5.796 21.957L17.423 21.957 17.423 -5.98 -5.796 -5.98z" mask="url(#q4kwm9jb8d)"/>
                    </g>
                    <g>
                        <path fill="#FEFEFE" d="M79.173 14.16c1.43 4.043 1.977 9.275.397 12.666-1.383 2.968-5.124 4.493-8.265 5.61-6.731 2.394-14.362-1.813-17.044-9.396-2.682-7.583.6-15.67 7.33-18.064 6.73-2.393 14.9 1.601 17.582 9.184" transform="translate(-1234 -621) translate(1152 597) translate(82 24) translate(1.151 25.172)"/>
                        <path fill="#2A375D" d="M74.192 12.803c0 .57-.461 1.033-1.03 1.033s-1.03-.463-1.03-1.033c0-.57.461-1.033 1.03-1.033s1.03.463 1.03 1.033" transform="translate(-1234 -621) translate(1152 597) translate(82 24) translate(1.151 25.172)"/>
                        <path fill="#28365B" d="M75.836 30.352c-3 2.341-7.431 2.521-9.576 2.26-.8-.099-1.43-.225-1.92-.348.94-.643 1.825-1.532 2.52-2.368 1.435-1.727 1.914-3.838 1.914-3.838s-1.914 1.487-2.871 1.727c-.957.24-3.589.96-6.077-.527s-4.163-4.222-2.583-7.629c1.579-3.406 7.224-2.734 8.469-2.59 1.243.144 1.77.575 2.057.191.287-.383.048-2.254 0-2.878-.048-.624-.096-1.343.383-2.11.37-.594 2.822-3.877 4.206-5.67 2.124 1.583 4 3.6 5.203 5.629.191.321.528.93.897 1.775-.254-.35-.5-.672-.706-.903-.769-.868-2.321-2.395-2.387-2.46-.228-.222-.592-.22-.814.01-.222.227-.219.592.008.815.016.015 1.59 1.563 2.334 2.402.725.818 2.13 3.037 2.145 3.06.109.174.295.268.486.268.009 0 .017-.003.026-.004.34 1.322.6 2.85.659 4.548.122 3.62-1.144 6.123-4.373 8.64m5.523-8.68c-.18-5.25-2.195-9.029-2.808-10.062-1.274-2.146-3.249-4.276-5.482-5.947.064-.078.116-.141.155-.186.622-.72 2.153-4.462-.91-5.038-3.062-.576-7.894 2.59-8.612 2.927-.718.336-3.35-.288-6.46 2.11-3.906 3.014-5.741 5.23-6.459 11.035-.609 4.923 1.962 8.972 3.876 11.658 1.914 2.687 4.784 4.462 6.65 4.941.503.13 1.034.077 1.568-.096.539.216 1.559.536 3.243.743.482.059 1.07.096 1.73.096 2.52 0 6.08-.552 8.694-2.59 3.51-2.738 4.95-5.606 4.815-9.59" transform="translate(-1234 -621) translate(1152 597) translate(82 24) translate(1.151 25.172)"/>
                        <path fill="#28365B" d="M66.28 20.772c-.071-.033-1.73-.817-3.5-.427-1.775.391-2.927 1.841-2.976 1.903-.195.25-.152.61.096.808.106.084.232.124.357.124.17 0 .338-.075.451-.218.01-.012.955-1.189 2.32-1.49 1.373-.302 2.741.335 2.754.341.286.138.63.017.768-.271.137-.287.016-.632-.27-.77" transform="translate(-1234 -621) translate(1152 597) translate(82 24) translate(1.151 25.172)"/>
                        <path fill="#2A375D" d="M149.635 31.49c-.017.762-.491 1.29-.616 1.332-.498-.025-1.05 0-1.073 0l-.486.023-.06.485s-.847 7.025-1.038 8.536c-.184 1.45-.678 4.124-.829 4.819-.117.54-.362 1.016-.554 1.333-.138-.226-.292-.467-.449-.711-1.348-2.09-3.392-4.756-6.218-7.112-3.757-3.133-6.92-5.139-8.635-6.141.04-.093.065-.191.051-.298-.01-.08-1.012-8.013.628-11.818 2.188-5.08 3.476-5.602 3.713-5.656.231-.052.417-.07.562-.07.315 0 .436.07.435.074l.553.923.417-1.101c.006-.015.236-.622.58-1.46.51-1.245 1.273-3.006 1.936-4.127 1.21-2.047 2.521-3.184 3.084-3.106.377.055 1.6.325 1.493 1.538-.075.872-.775 2.847-1.286 4.29-.242.682-.45 1.272-.559 1.643-.335 1.152-1.65 5.76-1.65 5.76l1.105.318.754-2.635c.546.128 1.47.42 2.256 1.055 1.19.958 1.277 1.583 1.37 2.245.142 1.02-.361 2.224-.366 2.236-.124.293.012.632.304.756.074.032.15.047.226.047.222 0 .435-.13.528-.35.02-.044.351-.838.453-1.787.384.129.896.37 1.371.826 1.047 1.002 1.648 2.208 1.837 3.686.224 1.752.18 3.71.163 4.447M33.536 77.145c-.417.107-.934.342-1.463.856-.58.564-.888 1.095-1.05 1.48-.448-.059-1.112-.085-1.772.107-.3.088-.574.198-.82.313-.716-1.475-2.375-5.756.406-9.258 2.743-3.454 7.273-2.687 7.273-2.687s-.985 4.08-2.574 9.19m117.078-50.25c-.222-1.726-.956-3.197-2.183-4.374-.8-.766-1.673-1.074-2.196-1.2-.138-.896-.41-1.746-1.765-2.838-.927-.747-1.99-1.102-2.66-1.265l.58-2.01c.098-.339.302-.914.538-1.58.56-1.585 1.26-3.557 1.348-4.575.145-1.655-1.14-2.59-2.477-2.781-1.77-.256-3.691 2.736-4.237 3.659-.553.935-1.155 2.252-1.642 3.392-.304.713-.565 1.36-.736 1.797-.33-.078-.776-.099-1.368.035-1.318.297-2.837 2.425-4.517 6.324-1.536 3.564-.971 10.073-.77 11.928l-.233-.122s-3.317 7.293-5.869 10.427c-2.552 3.135-5.422 6.589-10.846 6.973-5.422.383-16.714-3.007-23.158-4.798C81.98 44.097 75.41 42.88 75.41 42.88l1.276-5.053-23.541-2.559-.766 4.158s-9.76-1.79-18.246-1.151c-8.485.64-20.734 3.966-26.859 10.747-2.71 3-5.244 6.24-7.162 9.756C2.29 73.169 8.674 86.175 17.963 96.5l8.992-15.943 4.742-.312s.306-1.247.856-1.966c.55-.72 2.472-1.176 2.472-1.176l-11.395 25.04c12.832 11.459 29.743 18.425 48.279 18.425 5.44 0 10.738-.604 15.837-1.74.476-3.908 1.604-13.487 1.953-19.337.447-7.484.064-14.456.064-14.456s13.398 3.966 25.582-.256c12.186-4.222 18.693-11.962 22.457-16.887 2.056-2.69 4.222-5.877 5.903-9.1 1.397-2.68 2.461-5.384 2.837-7.852 0 0-.3-.704-.92-1.82.076-.096.78-1.01 1.036-2.19.133-.613.644-3.332.846-4.92.16-1.268.783-6.417.98-8.046.146 0 .319.002.477.01.322.016.65-.126.954-.408.407-.38.85-1.119.87-2.05.028-1.195.04-2.973-.171-4.62" transform="translate(-1234 -621) translate(1152 597) translate(82 24) translate(1.151 25.172)"/>
                    </g>
                </g>
            </g>
        </g>
    </g>
</svg>
