<svg xmlns="http://www.w3.org/2000/svg" xmlns:xlink="http://www.w3.org/1999/xlink" width="360" height="241" viewBox="0 0 360 241">
    <defs>
        <linearGradient id="kq70oxarvb" x1="100%" x2="0%" y1="50%" y2="50%">
            <stop offset="0%" stop-color="#0080FF"/>
            <stop offset="100%" stop-color="#FFF" stop-opacity="0"/>
        </linearGradient>
        <linearGradient id="mf8xq7i9pg" x1="0%" x2="100%" y1="50%" y2="50%">
            <stop offset="0%" stop-color="#BABABA" stop-opacity=".559"/>
            <stop offset="100%" stop-color="#989898"/>
        </linearGradient>
        <linearGradient id="2g2x53993j" x1="50%" x2="50%" y1="153.795%" y2=".576%">
            <stop offset="0%" stop-color="#FFF"/>
            <stop offset="100%" stop-color="#8CA8F9"/>
        </linearGradient>
        <linearGradient id="4bimu3pm7k" x1="97.627%" x2="0%" y1="50%" y2="50%">
            <stop offset="0%" stop-opacity=".264"/>
            <stop offset="100%" stop-color="#BDBDBD" stop-opacity=".062"/>
        </linearGradient>
        <linearGradient id="e7a1s2rgfm" x1="0%" x2="100%" y1="50%" y2="50%">
            <stop offset="0%" stop-color="#FFF"/>
            <stop offset="100%" stop-color="#F4F4F6"/>
        </linearGradient>
        <path id="4wg1f51mea" d="M0 0H359V241H0z"/>
        <path id="glm8b6fojc" d="M0.623 198.311L265.623 198.311 265.623 0 0.623 0z"/>
        <path id="k2bmtqi0le" d="M49.992 0.514L25.033 18.233 0.074 0.514z"/>
        <path id="e3zi93ahzh" d="M60.452 0.351L30.37 21.708 0.287 0.351z"/>
        <path id="dcgxs3ylll" d="M4.817.583C2.2.583.058 2.725.058 5.342v78.281c0 2.617 2.142 4.759 4.759 4.759h161.805c2.617 0 4.759-2.142 4.759-4.759V5.342c0-2.617-2.142-4.759-4.76-4.759H4.818z"/>
    </defs>
    <g fill="none" fill-rule="evenodd">
        <g>
            <g transform="translate(-369 -119) translate(369 119)">
                <g transform="translate(.5)"/>
                <ellipse cx="165" cy="262.5" fill="url(#kq70oxarvb)" rx="263" ry="164" transform="rotate(90 165 262.5)"/>
                <g transform="translate(93.5 42)">
                    <path fill="#EDEDED" d="M145.252 135.518c0 2.465-2.016 4.481-4.48 4.481H18.072c-2.465 0-4.482-2.016-4.482-4.48V56.682c0-2.465 2.017-4.481 4.482-4.481h122.698c2.465 0 4.481 2.016 4.481 4.481v78.835z"/>
                    <mask id="2ytwy1nq4d" fill="#fff">
                        <use xlink:href="#glm8b6fojc"/>
                    </mask>
                    <path fill="#EAEAEA" d="M183.125 46.551L233.043 46.551 233.043 17.027 183.125 17.027z" mask="url(#2ytwy1nq4d)"/>
                    <path fill="#F4F5F7" d="M208.083 28.097L183.123 46.551 233.042 46.551z" mask="url(#2ytwy1nq4d)"/>
                    <g mask="url(#2ytwy1nq4d)">
                        <g transform="translate(183.05 16.514)">
                            <mask id="c8348wsmvf" fill="#fff">
                                <use xlink:href="#k2bmtqi0le"/>
                            </mask>
                            <path d="M25.033 18.233L49.992 0.514 0.074 0.514z" mask="url(#c8348wsmvf)"/>
                        </g>
                    </g>
                    <path fill="#FFF" d="M208.083 33.788L233.042 17.027 183.125 17.027z" mask="url(#2ytwy1nq4d)"/>
                    <path fill="url(#mf8xq7i9pg)" d="M195.703 46.551L233.041 46.551 233.041 26.69 195.703 26.69z" mask="url(#2ytwy1nq4d)" opacity=".283"/>
                    <path fill="#000" d="M183.051 46.805L232.969 46.805 232.969 17.281 183.051 17.281z" mask="url(#2ytwy1nq4d)" opacity=".117"/>
                    <path fill="#EAEAEA" d="M205.457 66.965L265.623 66.965 265.623 31.381 205.457 31.381z" mask="url(#2ytwy1nq4d)"/>
                    <path fill="#F4F5F7" d="M235.54 44.723L205.457 66.965 265.623 66.965z" mask="url(#2ytwy1nq4d)"/>
                    <g mask="url(#2ytwy1nq4d)">
                        <g transform="translate(205.17 31.03)">
                            <mask id="i605o72eei" fill="#fff">
                                <use xlink:href="#e3zi93ahzh"/>
                            </mask>
                            <path d="M30.37 21.708L60.452 0.351 0.287 0.351z" mask="url(#i605o72eei)"/>
                        </g>
                    </g>
                    <path fill="#FFF" d="M235.54 51.583L265.623 31.381 205.457 31.381z" mask="url(#2ytwy1nq4d)"/>
                    <path fill="url(#2g2x53993j)" fill-opacity=".35" d="M21.494 127.717L137.35 127.717 137.35 81.944 21.494 81.944z" mask="url(#2ytwy1nq4d)"/>
                    <path fill="url(#4bimu3pm7k)" d="M62.924 140V91.803c0-2.589 2.099-4.688 4.688-4.688h77.64v48.197c0 2.588-2.098 4.688-4.688 4.688h-77.64z" mask="url(#2ytwy1nq4d)" opacity=".563"/>
                    <g transform="translate(79.364 98.08)">
                        <mask id="uonp32pp8n" fill="#fff">
                            <use xlink:href="#dcgxs3ylll"/>
                        </mask>
                        <path fill="url(#e7a1s2rgfm)" d="M4.817.583C2.2.583.058 2.725.058 5.342v78.281c0 2.617 2.142 4.759 4.759 4.759h161.805c2.617 0 4.759-2.142 4.759-4.759V5.342c0-2.617-2.142-4.759-4.76-4.759H4.818z" mask="url(#uonp32pp8n)"/>
                    </g>
                    <path fill="#B8BCC1" d="M88.756 118.624L241.41 118.624 241.41 118.148 88.756 118.148zM88.756 136.123L241.41 136.123 241.41 135.647 88.756 135.647zM88.756 153.621L241.41 153.621 241.41 153.146 88.756 153.146zM88.756 171.12L241.41 171.12 241.41 170.645 88.756 170.645z"/>
                    <g>
                        <path fill="#333" d="M0 77.948L36.622 11.098 52.555 0 50.008 19.25 18.105 77.948z" transform="scale(-1 1) rotate(-6 1088.88 2292.12)"/>
                        <path fill="#282828" d="M18.105 77.948L50.008 19.25 50.057 18.885 45.709 17.96 12.961 77.948z" transform="scale(-1 1) rotate(-6 1088.88 2292.12)"/>
                        <path fill="#2D2D2D" d="M12.961 77.948L45.708 17.96 39.637 14.493 4.99 77.948z" transform="scale(-1 1) rotate(-6 1088.88 2292.12)"/>
                        <path fill="#353535" d="M52.555 0l-15.93 11.096c3.05 4.37 7.85 7.424 13.385 8.149L52.555 0z" transform="scale(-1 1) rotate(-6 1088.88 2292.12)"/>
                        <path fill="#FFBC1D" d="M50.997 11.785L52.555 0 42.8 6.794c1.867 2.676 4.806 4.546 8.196 4.99" transform="scale(-1 1) rotate(-6 1088.88 2292.12)"/>
                    </g>
                    <path fill="#FFBC1D" d="M6.047 37.654l1.054-4.598 1.054 4.598c.083.357.361.636.719.718l4.596 1.053-4.596 1.055c-.358.082-.636.36-.719.718l-1.054 4.597-1.054-4.597c-.081-.358-.36-.636-.717-.718L.732 39.425l4.598-1.053c.357-.082.636-.36.717-.718M173.331 78.4l1.054-4.597 1.054 4.598c.082.357.361.636.718.718l4.597 1.053-4.597 1.054c-.357.083-.636.361-.718.719l-1.054 4.597-1.054-4.597c-.082-.358-.36-.636-.718-.719l-4.597-1.054 4.597-1.053c.358-.082.636-.361.718-.718M249.063 4.597L250.117 0l1.055 4.597c.082.358.36.636.718.719l4.597 1.053-4.597 1.055c-.358.082-.636.36-.718.717l-1.055 4.598-1.054-4.598c-.081-.357-.36-.635-.717-.717l-4.598-1.055 4.598-1.053c.357-.083.636-.361.717-.719M162.761 55.678l.663-2.893.663 2.893c.051.225.227.4.452.452l2.892.663-2.892.663c-.225.051-.401.227-.452.452l-.663 2.892-.663-2.892c-.052-.225-.228-.4-.452-.452l-2.892-.663 2.892-.663c.224-.051.4-.227.452-.452"/>
                    <path fill="#8DA9FA" d="M35.823 69.239c0 2.52-2.044 4.564-4.565 4.564-2.52 0-4.564-2.044-4.564-4.564s2.043-4.564 4.564-4.564 4.565 2.044 4.565 4.564"/>
                    <path fill="#CED1D8" d="M40.841 72.808L135.166 72.808 135.166 65.67 40.841 65.67z"/>
                    <path fill="#0080FF" d="M19.605 56.8c0 .395-.32.716-.714.716-.395 0-.715-.32-.715-.715 0-.395.32-.715.715-.715.394 0 .714.32.714.715M22.465 56.8c0 .395-.32.716-.715.716-.395 0-.715-.32-.715-.715 0-.395.32-.715.715-.715.395 0 .715.32.715.715M25.325 56.8c0 .395-.32.716-.715.716-.394 0-.714-.32-.714-.715 0-.395.32-.715.714-.715.395 0 .715.32.715.715"/>
                    <path fill="#333" d="M95.876 115.033c.252 0 .456-.13.613-.387.155-.258.234-.654.232-1.188 0-.35-.036-.64-.108-.868-.07-.227-.169-.397-.294-.51-.127-.111-.275-.167-.443-.167-.251 0-.454.126-.608.38-.155.252-.233.64-.235 1.165-.001.354.033.649.104.882.07.233.17.407.296.521.128.114.276.172.443.172m0 .958c-.423 0-.788-.1-1.093-.301-.306-.202-.542-.491-.707-.869-.166-.378-.248-.832-.247-1.363.002-.532.085-.983.25-1.355.165-.372.4-.655.705-.85.305-.194.67-.292 1.092-.292.422 0 .787.098 1.094.293.306.194.543.477.709.85.165.372.247.823.246 1.354 0 .532-.083.988-.25 1.367-.164.379-.4.668-.705.867-.305.2-.67.299-1.094.299M100.837 111.028L100.837 115.873 99.669 115.873 99.669 112.121 99.64 112.121 98.556 112.784 98.556 111.77 99.751 111.028zM95.876 132.532c.252 0 .456-.13.613-.387.155-.258.234-.654.232-1.188 0-.35-.036-.64-.108-.868-.07-.227-.169-.397-.294-.51-.127-.111-.275-.167-.443-.167-.251 0-.454.126-.608.38-.155.252-.233.64-.235 1.165-.001.354.033.649.104.882.07.233.17.407.296.522.128.114.276.171.443.171m0 .958c-.423 0-.788-.1-1.093-.301-.306-.201-.542-.491-.707-.87-.166-.377-.248-.83-.247-1.362.002-.532.085-.983.25-1.355.165-.371.4-.655.705-.849.305-.195.67-.292 1.092-.292.422 0 .787.097 1.094.292.306.194.543.478.709.85.165.372.247.824.246 1.354 0 .533-.083.988-.25 1.367-.164.379-.4.668-.705.867-.305.2-.67.3-1.094.3M98.596 133.372v-.842l1.768-1.548c.132-.12.244-.23.338-.33.093-.1.164-.2.213-.302.049-.102.073-.213.073-.333 0-.134-.03-.249-.088-.344-.058-.095-.138-.17-.241-.221-.102-.052-.22-.078-.353-.078-.134 0-.251.027-.351.081-.102.055-.18.133-.236.236-.056.102-.084.227-.084.373h-1.11c0-.329.074-.614.223-.854.148-.24.356-.424.625-.554.27-.13.582-.196.938-.196.368 0 .688.062.958.185.272.123.481.295.63.514.15.22.225.476.225.766 0 .184-.038.367-.112.55-.074.18-.206.38-.398.6-.192.219-.464.482-.815.787l-.58.535v.03h1.963v.945h-3.586zM95.876 150.031c.252 0 .456-.13.613-.387.155-.258.234-.654.232-1.189 0-.35-.036-.639-.108-.867-.07-.227-.169-.397-.294-.51-.127-.111-.275-.167-.443-.167-.251 0-.454.126-.608.38-.155.252-.233.64-.235 1.164-.001.355.033.65.104.883.07.233.17.407.296.521.128.115.276.172.443.172m0 .958c-.423 0-.788-.1-1.093-.301-.306-.201-.542-.49-.707-.869-.166-.377-.248-.832-.247-1.364.002-.53.085-.983.25-1.354.165-.371.4-.655.705-.849.305-.195.67-.292 1.092-.292.422 0 .787.097 1.094.292.306.194.543.478.709.85.165.372.247.824.246 1.353 0 .534-.083.99-.25 1.368-.164.379-.4.667-.705.867-.305.2-.67.3-1.094.3M100.44 150.937c-.37 0-.697-.063-.982-.19-.284-.127-.509-.303-.673-.527-.164-.224-.247-.481-.25-.773h1.178c.004.106.039.199.102.28.063.081.149.145.258.19.108.046.232.07.371.07.138 0 .261-.026.368-.075.105-.05.19-.119.249-.206.06-.088.09-.188.088-.302.001-.113-.031-.214-.097-.303-.066-.088-.16-.156-.28-.206-.12-.048-.263-.073-.428-.073h-.47v-.832h.47c.144 0 .27-.024.38-.072.11-.047.195-.114.256-.2.063-.085.092-.184.09-.296.002-.11-.023-.205-.076-.287-.052-.084-.126-.148-.22-.193-.094-.047-.202-.069-.325-.069-.13 0-.247.022-.351.069-.105.045-.19.11-.25.193-.062.084-.094.18-.097.291h-1.12c.004-.289.084-.542.242-.763.158-.219.372-.392.645-.516.272-.125.582-.188.93-.188.348 0 .653.061.916.183.264.12.469.287.616.496.146.208.219.445.219.708.002.273-.086.498-.266.674-.18.177-.409.286-.69.326v.038c.376.045.659.166.852.365.19.199.286.447.284.745 0 .28-.082.53-.247.746-.165.217-.394.387-.686.511-.293.125-.628.186-1.007.186"/>
                </g>
            </g>
        </g>
    </g>
</svg>
