<svg width="426" height="467" viewBox="0 0 426 467" fill="none" xmlns="http://www.w3.org/2000/svg">
<path fill-rule="evenodd" clip-rule="evenodd" d="M131.906 451.568C125.279 449.157 117.974 452.724 115.802 459.433L115.189 461.324C113.252 467.308 105.291 468.467 101.728 463.284L100.447 461.422C96.492 455.67 88.5833 454.293 82.9168 458.368L80.4083 460.172C75.3022 463.844 68.2029 460.061 68.4025 453.775L68.5027 450.622C68.7265 443.574 63.0582 437.746 56.0065 437.775L53.01 437.787C46.7207 437.813 43.1362 430.611 46.9481 425.609L48.918 423.024C53.1246 417.503 52.0058 409.609 46.4309 405.475L44.2882 403.886C39.2498 400.15 40.6683 392.26 46.6926 390.513L48.8994 389.873C55.6496 387.915 59.4428 380.762 57.2764 374.076L56.276 370.988C54.3426 365.021 60.0778 359.421 65.9973 361.495L69.5599 362.744C76.1325 365.047 83.3166 361.512 85.5015 354.899L86.3849 352.226C88.3612 346.244 96.3469 345.141 99.8703 350.363L100.824 351.777C104.776 357.634 112.805 359.033 118.505 354.857L120.543 353.363C125.625 349.64 132.767 353.378 132.605 359.676L132.502 363.659C132.322 370.622 137.887 376.378 144.852 376.432L148.453 376.461C154.726 376.51 158.229 383.72 154.392 388.682L153.058 390.407C148.758 395.967 149.909 403.981 155.6 408.106L157.012 409.13C162.091 412.811 160.758 420.715 154.753 422.528L151.677 423.456C145.032 425.462 141.31 432.513 143.402 439.13L144.701 443.239C146.597 449.236 140.788 454.801 134.878 452.65L131.906 451.568Z" fill="#76FFA5"/>
<path fill-rule="evenodd" clip-rule="evenodd" d="M83.4199 208.897L78.2623 198.837L49.9634 213.795C42.2155 217.89 33.1371 211.316 34.6109 202.677L39.7126 172.771L9.75879 168.931C1.08898 167.819 -2.55833 157.261 3.57669 151.035L26.1904 128.086L3.18195 105.538C-3.0605 99.4201 0.401295 88.8004 9.04984 87.5369L38.9344 83.171L33.3137 53.3565C31.6903 44.7453 40.6517 38.0144 48.4695 41.9731L77.0265 56.4334L91.171 27.6191C95.0391 19.7393 106.272 19.7393 110.14 27.6191L123.453 54.7391L149.839 40.1962C157.514 35.9656 166.707 42.3813 165.383 51.0451L160.517 82.8993L192.261 87.5369C200.91 88.8004 204.372 99.42 198.129 105.538L176.466 126.768L182.296 132.285C176.097 138.937 170.476 145.525 165.651 151.848L141.39 149.95C136.64 149.579 132 151.512 128.927 155.142L83.4199 208.897Z" fill="#00FFF9"/>
<path fill-rule="evenodd" clip-rule="evenodd" d="M308.933 184.376C301.195 202.945 292.339 220.338 283.391 234.136L293.651 256.527C295.628 260.842 295.393 265.844 293.02 269.962L255.341 335.339C257.617 335.833 260.108 335.578 262.474 334.327L300.784 314.078L339.094 334.327C346.841 338.422 355.92 331.848 354.446 323.209L347.115 280.235L378.222 249.75C384.465 243.632 381.003 233.012 372.354 231.749L329.418 225.476L310.268 186.466C309.889 185.694 309.44 184.997 308.933 184.376Z" fill="url(#paint0_linear_560_1573)"/>
<path fill-rule="evenodd" clip-rule="evenodd" d="M283.39 234.136C318.174 180.497 351.554 72.5305 323.377 52.4238C294.779 32.9931 204.464 100.979 165.65 151.848L141.389 149.95C136.64 149.579 131.999 151.512 128.926 155.142L63.4144 232.528C61.2415 235.095 63.3673 238.978 66.7083 238.544L111.575 232.727C108.752 238.648 107.388 243.13 107.489 246.289C107.615 250.228 111.513 256.293 117.086 262.909C109.568 272.604 105.814 287.64 105.648 292.276C105.393 299.413 119.296 314.853 133.146 324.223C146.996 333.593 166.063 341.686 172.711 339.003C177.08 337.24 190.236 328.394 196.735 317.88C204.276 320.491 210.734 321.809 214.273 320.65C217.279 319.667 221.027 316.873 225.626 312.238L235.622 356.723C236.357 359.996 240.75 360.655 242.428 357.743L293.019 269.962C295.392 265.844 295.627 260.842 293.65 256.527L283.39 234.136Z" fill="white" fill-opacity="0.1"/>
<mask id="mask0_560_1573" style="mask-type:alpha" maskUnits="userSpaceOnUse" x="62" y="49" width="272" height="311">
<path fill-rule="evenodd" clip-rule="evenodd" d="M283.39 234.136C318.174 180.497 351.554 72.5305 323.377 52.4238C294.779 32.9931 204.464 100.979 165.65 151.848L141.389 149.95C136.64 149.579 131.999 151.512 128.926 155.142L63.4144 232.528C61.2415 235.095 63.3673 238.978 66.7083 238.544L111.575 232.727C108.752 238.648 107.388 243.13 107.489 246.289C107.615 250.228 111.513 256.293 117.086 262.909C109.568 272.604 105.814 287.64 105.648 292.276C105.393 299.413 119.296 314.853 133.146 324.223C146.996 333.593 166.063 341.686 172.711 339.003C177.08 337.24 190.236 328.394 196.735 317.88C204.276 320.491 210.734 321.809 214.273 320.65C217.279 319.667 221.027 316.873 225.626 312.238L235.622 356.723C236.357 359.996 240.75 360.655 242.428 357.743L293.019 269.962C295.392 265.844 295.627 260.842 293.65 256.527L283.39 234.136Z" fill="white"/>
</mask>
<g mask="url(#mask0_560_1573)">
<g filter="url(#filter0_f_560_1573)">
<path fill-rule="evenodd" clip-rule="evenodd" d="M93.8181 245.309L114.926 201.493L157.509 223.893C165.26 227.97 174.322 221.389 172.842 212.757L166.851 177.805L215.278 168.645C223.726 167.047 226.83 156.565 220.614 150.625L184.74 116.339C178.803 122.995 173.343 129.566 168.481 135.937L133.093 133.169C128.343 132.798 123.703 134.731 120.63 138.361L41.4126 231.937L50.6842 250.901L93.8181 245.309Z" fill="#5CDEDB"/>
</g>
<g filter="url(#filter1_f_560_1573)">
<path fill-rule="evenodd" clip-rule="evenodd" d="M349.468 133.048C336.171 164.944 320.958 194.821 305.585 218.526L325.493 261.972C327.47 266.287 327.235 271.289 324.862 275.407L252.453 401.044C245.383 402.795 238.243 396.716 239.563 388.981L254.875 299.222L189.959 235.603C183.716 229.486 187.178 218.866 195.827 217.603L285.486 204.504L325.531 122.927C329.399 115.047 340.632 115.047 344.5 122.927L349.468 133.048Z" fill="white"/>
</g>
<path opacity="0.1966" fill-rule="evenodd" clip-rule="evenodd" d="M366.507 -11.6895L487.302 73.3474L227.516 446.357L106.722 361.321L366.507 -11.6895Z" fill="white"/>
<g opacity="0.600153" filter="url(#filter2_f_560_1573)">
<path d="M312.922 52.4053C309.504 52.4053 249.724 64.6186 223.391 101.444C197.058 138.27 181.488 155.971 145.627 155.971C109.766 155.971 66.4223 233.218 66.4223 233.218C66.4223 233.218 116.06 234.103 116.06 249.216C116.06 264.328 113.821 300.681 113.821 305.783" stroke="white" stroke-width="21.1313" stroke-linecap="round"/>
</g>
</g>
<g filter="url(#filter3_b_560_1573)">
<path fill-rule="evenodd" clip-rule="evenodd" d="M48.9556 440.056C49.383 439.831 49.8111 439.62 50.2397 439.423C54.9597 437.255 59.9944 435.896 65.2156 435.381C68.8751 435.029 72.5346 435.076 76.1242 435.545C84.7951 436.693 93.7457 435.826 101.974 433.061C110.283 430.26 117.952 425.48 124.175 419.223C129.676 413.692 133.919 407.248 136.797 400.042C139.559 393.093 140.958 385.735 140.923 378.201C140.876 370.655 139.431 363.296 136.587 356.336C133.651 349.119 129.362 342.651 123.826 337.085C123.654 336.912 123.481 336.741 123.308 336.57L48.9556 440.056Z" fill="white" fill-opacity="0.7"/>
</g>
<g filter="url(#filter4_b_560_1573)">
<path fill-rule="evenodd" clip-rule="evenodd" d="M123.14 336.706C117.722 331.388 111.467 327.251 104.522 324.378C97.5991 321.519 90.2801 320.043 82.7746 320.02C75.2691 319.973 67.9501 321.379 61.0507 324.168C53.8832 327.062 47.4733 331.327 41.9724 336.857C36.285 342.575 31.9263 349.301 29.036 356.87C26.2039 364.287 24.9336 372.103 25.2716 380.082L25.5513 386.62C25.6096 387.569 26.6002 388.167 27.451 387.757L33.3132 384.91C36.9843 383.117 41.5062 382.062 46.7041 381.781C47.0421 381.769 47.2752 381.91 47.415 382.027C47.5549 382.144 47.7297 382.367 47.7414 382.707C47.7647 383.011 47.6365 383.304 47.415 383.503C39.9678 390.124 34.1523 400.189 30.1315 413.464C26.775 424.479 26.472 435.399 29.1758 445.944L31.1571 453.631C31.4135 454.639 32.7071 454.955 33.4064 454.182L38.7441 448.3C41.9868 444.727 45.3675 441.997 48.7882 440.192L123.14 336.706Z" fill="#2581FF" fill-opacity="0.8"/>
</g>
<defs>
<filter id="filter0_f_560_1573" x="-1.66807" y="73.258" width="268.638" height="220.724" filterUnits="userSpaceOnUse" color-interpolation-filters="sRGB">
<feFlood flood-opacity="0" result="BackgroundImageFix"/>
<feBlend mode="normal" in="SourceGraphic" in2="BackgroundImageFix" result="shape"/>
<feGaussianBlur stdDeviation="21.5403" result="effect1_foregroundBlur_560_1573"/>
</filter>
<filter id="filter1_f_560_1573" x="133.694" y="63.9343" width="268.858" height="390.496" filterUnits="userSpaceOnUse" color-interpolation-filters="sRGB">
<feFlood flood-opacity="0" result="BackgroundImageFix"/>
<feBlend mode="normal" in="SourceGraphic" in2="BackgroundImageFix" result="shape"/>
<feGaussianBlur stdDeviation="26.5415" result="effect1_foregroundBlur_560_1573"/>
</filter>
<filter id="filter2_f_560_1573" x="-31.448" y="-38.165" width="434.94" height="434.519" filterUnits="userSpaceOnUse" color-interpolation-filters="sRGB">
<feFlood flood-opacity="0" result="BackgroundImageFix"/>
<feBlend mode="normal" in="SourceGraphic" in2="BackgroundImageFix" result="shape"/>
<feGaussianBlur stdDeviation="40.0023" result="effect1_foregroundBlur_560_1573"/>
</filter>
<filter id="filter3_b_560_1573" x="36.9549" y="324.57" width="115.969" height="127.487" filterUnits="userSpaceOnUse" color-interpolation-filters="sRGB">
<feFlood flood-opacity="0" result="BackgroundImageFix"/>
<feGaussianBlur in="BackgroundImage" stdDeviation="6.00035"/>
<feComposite in2="SourceAlpha" operator="in" result="effect1_backgroundBlur_560_1573"/>
<feBlend mode="normal" in="SourceGraphic" in2="effect1_backgroundBlur_560_1573" result="shape"/>
</filter>
<filter id="filter4_b_560_1573" x="9.21734" y="304.018" width="129.924" height="166.596" filterUnits="userSpaceOnUse" color-interpolation-filters="sRGB">
<feFlood flood-opacity="0" result="BackgroundImageFix"/>
<feGaussianBlur in="BackgroundImage" stdDeviation="8.00046"/>
<feComposite in2="SourceAlpha" operator="in" result="effect1_backgroundBlur_560_1573"/>
<feBlend mode="normal" in="SourceGraphic" in2="effect1_backgroundBlur_560_1573" result="shape"/>
</filter>
<linearGradient id="paint0_linear_560_1573" x1="255.341" y1="184.376" x2="255.341" y2="335.575" gradientUnits="userSpaceOnUse">
<stop stop-color="white"/>
<stop offset="1" stop-color="white"/>
</linearGradient>
</defs>
</svg>
