<svg width="196" height="192" viewBox="0 0 196 192" fill="none" xmlns="http://www.w3.org/2000/svg">
<rect x="51.1643" y="7.60184" width="121.472" height="82.7108" rx="13.0979" transform="rotate(-3.38907 51.1643 7.60184)" fill="url(#paint0_linear_828_1156)"/>
<g filter="url(#filter0_bi_828_1156)">
<path d="M127.265 43.6373C129.66 44.8372 129.858 48.1799 127.621 49.654L109.178 61.8099C106.941 63.2841 103.947 61.7842 103.789 59.1101L102.483 37.0601C102.325 34.386 105.121 32.5433 107.516 33.7432L127.265 43.6373Z" fill="white" fill-opacity="0.6"/>
</g>
<g filter="url(#filter1_bd_828_1156)">
<path d="M182.819 148.545C183.197 151.038 181.159 153.145 178.637 153.145H104.173C101.651 153.145 99.6132 151.038 99.9905 148.545C103.038 128.41 120.419 112.977 141.405 112.977C162.391 112.977 179.772 128.41 182.819 148.545Z" fill="white" fill-opacity="0.49" shape-rendering="crispEdges"/>
<path d="M182.819 148.545C183.197 151.038 181.159 153.145 178.637 153.145H104.173C101.651 153.145 99.6132 151.038 99.9905 148.545C103.038 128.41 120.419 112.977 141.405 112.977C162.391 112.977 179.772 128.41 182.819 148.545Z" fill="url(#paint1_linear_828_1156)" fill-opacity="0.8" shape-rendering="crispEdges"/>
</g>
<g filter="url(#filter2_bd_828_1156)">
<circle cx="141.405" cy="87.2721" r="20.7207" fill="white" fill-opacity="0.49" shape-rendering="crispEdges"/>
<circle cx="141.405" cy="87.2721" r="20.7207" fill="url(#paint2_linear_828_1156)" fill-opacity="0.8" shape-rendering="crispEdges"/>
</g>
<mask id="mask0_828_1156" style="mask-type:alpha" maskUnits="userSpaceOnUse" x="94" y="66" width="48" height="88">
<rect x="94.4624" y="66.0153" width="46.9427" height="87.1299" fill="#006CFF"/>
</mask>
<g mask="url(#mask0_828_1156)">
<g filter="url(#filter3_b_828_1156)">
<path d="M182.819 148.545C183.197 151.038 181.159 153.145 178.637 153.145H104.173C101.651 153.145 99.6132 151.038 99.9905 148.545C103.038 128.409 120.419 112.977 141.405 112.977C162.391 112.977 179.772 128.409 182.819 148.545Z" fill="#006CFF" fill-opacity="0.24"/>
<path d="M182.819 148.545C183.197 151.038 181.159 153.145 178.637 153.145H104.173C101.651 153.145 99.6132 151.038 99.9905 148.545C103.038 128.409 120.419 112.977 141.405 112.977C162.391 112.977 179.772 128.409 182.819 148.545Z" fill="url(#paint3_linear_828_1156)"/>
</g>
<g filter="url(#filter4_b_828_1156)">
<circle cx="141.405" cy="87.272" r="20.7207" fill="#006CFF" fill-opacity="0.12"/>
<circle cx="141.405" cy="87.272" r="20.7207" fill="url(#paint4_linear_828_1156)"/>
</g>
</g>
<g filter="url(#filter5_bd_828_1156)">
<circle cx="67.9173" cy="81.5779" r="30.096" fill="white" fill-opacity="0.6" shape-rendering="crispEdges"/>
<circle cx="67.9173" cy="81.5779" r="30.096" fill="url(#paint5_linear_828_1156)" shape-rendering="crispEdges"/>
<circle cx="67.9173" cy="81.5779" r="30.096" fill="url(#paint6_linear_828_1156)" shape-rendering="crispEdges"/>
</g>
<g filter="url(#filter6_bd_828_1156)">
<path d="M128.347 172.646C128.639 175.151 126.608 177.256 124.086 177.256H11.7482C9.22657 177.256 7.19573 175.151 7.48721 172.646C11.0077 142.394 36.7204 118.914 67.9174 118.914C99.1142 118.914 124.827 142.394 128.347 172.646Z" fill="#5CA7FF" fill-opacity="0.49" shape-rendering="crispEdges"/>
<path d="M128.347 172.646C128.639 175.151 126.608 177.256 124.086 177.256H11.7482C9.22657 177.256 7.19573 175.151 7.48721 172.646C11.0077 142.394 36.7204 118.914 67.9174 118.914C99.1142 118.914 124.827 142.394 128.347 172.646Z" fill="url(#paint7_linear_828_1156)" fill-opacity="0.8" shape-rendering="crispEdges"/>
<path d="M128.347 172.646C128.639 175.151 126.608 177.256 124.086 177.256H11.7482C9.22657 177.256 7.19573 175.151 7.48721 172.646C11.0077 142.394 36.7204 118.914 67.9174 118.914C99.1142 118.914 124.827 142.394 128.347 172.646Z" fill="url(#paint8_linear_828_1156)" shape-rendering="crispEdges"/>
</g>
<mask id="mask1_828_1156" style="mask-type:alpha" maskUnits="userSpaceOnUse" x="7" y="51" width="61" height="127">
<rect x="7.12671" y="51.4819" width="60.3715" height="125.774" fill="#006CFF"/>
</mask>
<g mask="url(#mask1_828_1156)">
<g filter="url(#filter7_b_828_1156)">
<path d="M127.831 172.625C128.123 175.13 126.092 177.235 123.571 177.235H11.4252C8.90357 177.235 6.87271 175.13 7.16449 172.625C10.6827 142.425 36.353 118.986 67.498 118.986C98.6428 118.986 124.313 142.425 127.831 172.625Z" fill="#006CFF" fill-opacity="0.08"/>
<path d="M127.831 172.625C128.123 175.13 126.092 177.235 123.571 177.235H11.4252C8.90357 177.235 6.87271 175.13 7.16449 172.625C10.6827 142.425 36.353 118.986 67.498 118.986C98.6428 118.986 124.313 142.425 127.831 172.625Z" fill="url(#paint9_linear_828_1156)"/>
</g>
<g filter="url(#filter8_b_828_1156)">
<circle cx="67.498" cy="81.7091" r="30.0483" fill="#006CFF" fill-opacity="0.08"/>
<circle cx="67.498" cy="81.7091" r="30.0483" fill="url(#paint10_linear_828_1156)"/>
</g>
</g>
<defs>
<filter id="filter0_bi_828_1156" x="93.8537" y="24.746" width="43.9553" height="46.2661" filterUnits="userSpaceOnUse" color-interpolation-filters="sRGB">
<feFlood flood-opacity="0" result="BackgroundImageFix"/>
<feGaussianBlur in="BackgroundImage" stdDeviation="4.31157"/>
<feComposite in2="SourceAlpha" operator="in" result="effect1_backgroundBlur_828_1156"/>
<feBlend mode="normal" in="SourceGraphic" in2="effect1_backgroundBlur_828_1156" result="shape"/>
<feColorMatrix in="SourceAlpha" type="matrix" values="0 0 0 0 0 0 0 0 0 0 0 0 0 0 0 0 0 0 127 0" result="hardAlpha"/>
<feOffset dx="3.61654" dy="4.82206"/>
<feGaussianBlur stdDeviation="3.91792"/>
<feComposite in2="hardAlpha" operator="arithmetic" k2="-1" k3="1"/>
<feColorMatrix type="matrix" values="0 0 0 0 1 0 0 0 0 1 0 0 0 0 1 0 0 0 0.148 0"/>
<feBlend mode="normal" in2="shape" result="effect2_innerShadow_828_1156"/>
</filter>
<filter id="filter1_bd_828_1156" x="76.6427" y="89.6745" width="129.524" height="86.7732" filterUnits="userSpaceOnUse" color-interpolation-filters="sRGB">
<feFlood flood-opacity="0" result="BackgroundImageFix"/>
<feGaussianBlur in="BackgroundImage" stdDeviation="11.6513"/>
<feComposite in2="SourceAlpha" operator="in" result="effect1_backgroundBlur_828_1156"/>
<feColorMatrix in="SourceAlpha" type="matrix" values="0 0 0 0 0 0 0 0 0 0 0 0 0 0 0 0 0 0 127 0" result="hardAlpha"/>
<feOffset dx="3" dy="4"/>
<feGaussianBlur stdDeviation="5"/>
<feComposite in2="hardAlpha" operator="out"/>
<feColorMatrix type="matrix" values="0 0 0 0 0.224315 0 0 0 0 0.48925 0 0 0 0 0.80026 0 0 0 0.08 0"/>
<feBlend mode="normal" in2="effect1_backgroundBlur_828_1156" result="effect2_dropShadow_828_1156"/>
<feBlend mode="normal" in="SourceGraphic" in2="effect2_dropShadow_828_1156" result="shape"/>
</filter>
<filter id="filter2_bd_828_1156" x="97.3817" y="43.2489" width="88.0466" height="88.0465" filterUnits="userSpaceOnUse" color-interpolation-filters="sRGB">
<feFlood flood-opacity="0" result="BackgroundImageFix"/>
<feGaussianBlur in="BackgroundImage" stdDeviation="11.6513"/>
<feComposite in2="SourceAlpha" operator="in" result="effect1_backgroundBlur_828_1156"/>
<feColorMatrix in="SourceAlpha" type="matrix" values="0 0 0 0 0 0 0 0 0 0 0 0 0 0 0 0 0 0 127 0" result="hardAlpha"/>
<feOffset dx="3" dy="4"/>
<feGaussianBlur stdDeviation="5"/>
<feComposite in2="hardAlpha" operator="out"/>
<feColorMatrix type="matrix" values="0 0 0 0 0.224315 0 0 0 0 0.48925 0 0 0 0 0.80026 0 0 0 0.08 0"/>
<feBlend mode="normal" in2="effect1_backgroundBlur_828_1156" result="effect2_dropShadow_828_1156"/>
<feBlend mode="normal" in="SourceGraphic" in2="effect2_dropShadow_828_1156" result="shape"/>
</filter>
<filter id="filter3_b_828_1156" x="76.6427" y="89.6745" width="129.524" height="86.7732" filterUnits="userSpaceOnUse" color-interpolation-filters="sRGB">
<feFlood flood-opacity="0" result="BackgroundImageFix"/>
<feGaussianBlur in="BackgroundImage" stdDeviation="11.6513"/>
<feComposite in2="SourceAlpha" operator="in" result="effect1_backgroundBlur_828_1156"/>
<feBlend mode="normal" in="SourceGraphic" in2="effect1_backgroundBlur_828_1156" result="shape"/>
</filter>
<filter id="filter4_b_828_1156" x="97.3817" y="43.2487" width="88.0466" height="88.0465" filterUnits="userSpaceOnUse" color-interpolation-filters="sRGB">
<feFlood flood-opacity="0" result="BackgroundImageFix"/>
<feGaussianBlur in="BackgroundImage" stdDeviation="11.6513"/>
<feComposite in2="SourceAlpha" operator="in" result="effect1_backgroundBlur_828_1156"/>
<feBlend mode="normal" in="SourceGraphic" in2="effect1_backgroundBlur_828_1156" result="shape"/>
</filter>
<filter id="filter5_bd_828_1156" x="14.5187" y="28.1793" width="106.797" height="106.797" filterUnits="userSpaceOnUse" color-interpolation-filters="sRGB">
<feFlood flood-opacity="0" result="BackgroundImageFix"/>
<feGaussianBlur in="BackgroundImage" stdDeviation="11.6513"/>
<feComposite in2="SourceAlpha" operator="in" result="effect1_backgroundBlur_828_1156"/>
<feColorMatrix in="SourceAlpha" type="matrix" values="0 0 0 0 0 0 0 0 0 0 0 0 0 0 0 0 0 0 127 0" result="hardAlpha"/>
<feOffset dx="3" dy="4"/>
<feGaussianBlur stdDeviation="5"/>
<feComposite in2="hardAlpha" operator="out"/>
<feColorMatrix type="matrix" values="0 0 0 0 0.224315 0 0 0 0 0.48925 0 0 0 0 0.80026 0 0 0 0.08 0"/>
<feBlend mode="normal" in2="effect1_backgroundBlur_828_1156" result="effect2_dropShadow_828_1156"/>
<feBlend mode="normal" in="SourceGraphic" in2="effect2_dropShadow_828_1156" result="shape"/>
</filter>
<filter id="filter6_bd_828_1156" x="-15.8434" y="95.611" width="167.521" height="104.948" filterUnits="userSpaceOnUse" color-interpolation-filters="sRGB">
<feFlood flood-opacity="0" result="BackgroundImageFix"/>
<feGaussianBlur in="BackgroundImage" stdDeviation="11.6513"/>
<feComposite in2="SourceAlpha" operator="in" result="effect1_backgroundBlur_828_1156"/>
<feColorMatrix in="SourceAlpha" type="matrix" values="0 0 0 0 0 0 0 0 0 0 0 0 0 0 0 0 0 0 127 0" result="hardAlpha"/>
<feOffset dx="3" dy="4"/>
<feGaussianBlur stdDeviation="5"/>
<feComposite in2="hardAlpha" operator="out"/>
<feColorMatrix type="matrix" values="0 0 0 0 0.224315 0 0 0 0 0.48925 0 0 0 0 0.80026 0 0 0 0.08 0"/>
<feBlend mode="normal" in2="effect1_backgroundBlur_828_1156" result="effect2_dropShadow_828_1156"/>
<feBlend mode="normal" in="SourceGraphic" in2="effect2_dropShadow_828_1156" result="shape"/>
</filter>
<filter id="filter7_b_828_1156" x="-16.1661" y="95.6829" width="167.328" height="104.855" filterUnits="userSpaceOnUse" color-interpolation-filters="sRGB">
<feFlood flood-opacity="0" result="BackgroundImageFix"/>
<feGaussianBlur in="BackgroundImage" stdDeviation="11.6513"/>
<feComposite in2="SourceAlpha" operator="in" result="effect1_backgroundBlur_828_1156"/>
<feBlend mode="normal" in="SourceGraphic" in2="effect1_backgroundBlur_828_1156" result="shape"/>
</filter>
<filter id="filter8_b_828_1156" x="14.1471" y="28.3582" width="106.702" height="106.702" filterUnits="userSpaceOnUse" color-interpolation-filters="sRGB">
<feFlood flood-opacity="0" result="BackgroundImageFix"/>
<feGaussianBlur in="BackgroundImage" stdDeviation="11.6513"/>
<feComposite in2="SourceAlpha" operator="in" result="effect1_backgroundBlur_828_1156"/>
<feBlend mode="normal" in="SourceGraphic" in2="effect1_backgroundBlur_828_1156" result="shape"/>
</filter>
<linearGradient id="paint0_linear_828_1156" x1="111.9" y1="7.60184" x2="145.973" y2="130.133" gradientUnits="userSpaceOnUse">
<stop stop-color="#00FFF9"/>
<stop offset="1" stop-color="#00FFF9" stop-opacity="0"/>
</linearGradient>
<linearGradient id="paint1_linear_828_1156" x1="190.133" y1="144.322" x2="141.405" y2="153.145" gradientUnits="userSpaceOnUse">
<stop stop-color="white"/>
<stop offset="1" stop-color="white" stop-opacity="0"/>
</linearGradient>
<linearGradient id="paint2_linear_828_1156" x1="165.529" y1="98.8903" x2="140.801" y2="101.039" gradientUnits="userSpaceOnUse">
<stop stop-color="white"/>
<stop offset="1" stop-color="white" stop-opacity="0"/>
</linearGradient>
<linearGradient id="paint3_linear_828_1156" x1="145.058" y1="155.265" x2="116.293" y2="123.023" gradientUnits="userSpaceOnUse">
<stop stop-color="white"/>
<stop offset="1" stop-color="white" stop-opacity="0"/>
</linearGradient>
<linearGradient id="paint4_linear_828_1156" x1="147.078" y1="123.743" x2="121.615" y2="103.948" gradientUnits="userSpaceOnUse">
<stop stop-color="white"/>
<stop offset="1" stop-color="white" stop-opacity="0"/>
</linearGradient>
<linearGradient id="paint5_linear_828_1156" x1="55.9039" y1="38.3343" x2="87.7366" y2="94.78" gradientUnits="userSpaceOnUse">
<stop stop-color="#006CFF"/>
<stop offset="1" stop-color="white" stop-opacity="0"/>
</linearGradient>
<linearGradient id="paint6_linear_828_1156" x1="91.7101" y1="46.8888" x2="65.4809" y2="100.949" gradientUnits="userSpaceOnUse">
<stop stop-color="#01FFFA"/>
<stop offset="1" stop-color="white" stop-opacity="0"/>
</linearGradient>
<linearGradient id="paint7_linear_828_1156" x1="138.693" y1="164.441" x2="67.9173" y2="177.256" gradientUnits="userSpaceOnUse">
<stop stop-color="white"/>
<stop offset="1" stop-color="white" stop-opacity="0"/>
</linearGradient>
<linearGradient id="paint8_linear_828_1156" x1="134.174" y1="139.228" x2="75.1151" y2="167.246" gradientUnits="userSpaceOnUse">
<stop stop-color="#006CFF"/>
<stop offset="1" stop-color="#006CFF" stop-opacity="0"/>
</linearGradient>
<linearGradient id="paint9_linear_828_1156" x1="74.0163" y1="212.296" x2="41.6028" y2="134.558" gradientUnits="userSpaceOnUse">
<stop stop-color="white"/>
<stop offset="1" stop-color="white" stop-opacity="0"/>
</linearGradient>
<linearGradient id="paint10_linear_828_1156" x1="67.498" y1="115.661" x2="52.6778" y2="101.329" gradientUnits="userSpaceOnUse">
<stop stop-color="white"/>
<stop offset="1" stop-color="white" stop-opacity="0"/>
</linearGradient>
</defs>
</svg>
