<svg width="281" height="262" viewBox="0 0 281 262" fill="none" xmlns="http://www.w3.org/2000/svg">
<g filter="url(#filter0_bd_920_2631)">
<path fill-rule="evenodd" clip-rule="evenodd" d="M61.4721 165.759C59.3799 168.814 57.9526 172.221 57.2369 175.876L56.6517 178.872C56.5748 179.309 56.959 179.688 57.3895 179.595L60.3583 178.942C62.2186 178.528 64.3843 178.543 66.7724 178.981C66.9269 179.013 67.0173 179.102 67.068 179.17C67.1187 179.239 67.1737 179.359 67.142 179.514C67.1194 179.655 67.0294 179.774 66.9072 179.84C62.8087 182.031 59.0749 185.963 55.8056 191.546C53.0838 196.176 51.7571 201.096 51.8349 206.173L51.8964 209.875C51.9029 210.36 52.4552 210.644 52.8566 210.37L55.918 208.283C58.0102 206.858 60.0655 205.935 62.0077 205.552C64.3845 205.083 66.816 205.015 69.2402 205.35C70.9382 205.589 72.5928 206.009 74.1698 206.612C77.9773 208.077 82.1312 208.659 86.1641 208.301C90.2379 207.936 94.2365 206.603 97.7405 204.443C100.838 202.533 103.464 200.073 105.554 197.118C107.563 194.267 108.999 191.082 109.804 187.661C110.604 184.234 110.75 180.739 110.218 177.273C109.673 173.679 108.432 170.279 106.527 167.152C104.622 164.025 102.174 161.368 99.2464 159.243C96.4181 157.193 93.2594 155.726 89.8579 154.898C86.459 154.059 82.9864 153.9 79.5535 154.414C75.9876 154.946 72.6159 156.182 69.5188 158.091C66.3166 160.065 63.6073 162.641 61.4721 165.759Z" fill="#2581FF" fill-opacity="0.8"/>
</g>
<path fill-rule="evenodd" clip-rule="evenodd" d="M102.252 104.57L101.009 99.4455L86.5452 103.148C82.5852 104.161 79.1838 100.191 80.793 96.4332L86.3636 83.4255L73.1967 78.4216C69.3856 76.9732 68.8812 71.7875 72.3418 69.6319L85.0972 61.6863L77.1176 48.9539C74.9526 45.4995 77.6792 41.0601 81.7393 41.4289L95.7686 42.7034L96.4663 28.5692C96.6678 24.4868 101.465 22.41 104.58 25.0568L115.957 34.7251L125.51 23.1971C128.122 20.0445 133.217 21.2678 134.113 25.2629L137.198 39.0128L150.748 35.2905C154.69 34.2077 158.161 38.1185 156.617 41.9038L150.941 55.821L164.833 61.3814C168.618 62.8963 169.032 68.0898 165.534 70.1846L153.397 77.4542L155.44 80.5914C151.904 82.933 148.638 85.3088 145.761 87.6512L134.964 84.1483C132.85 83.4626 130.535 83.834 128.746 85.1458L102.252 104.57Z" fill="#00FFF9"/>
<path fill-rule="evenodd" clip-rule="evenodd" d="M190.199 137.795C211.817 117.256 238.714 71.9234 228.124 59.7356C217.27 47.8084 168.904 68.8072 145.761 87.6513L134.964 84.1483C132.85 83.4626 130.535 83.834 128.746 85.1457L90.6058 113.109C89.3408 114.036 89.8821 116.029 91.4446 116.196L112.428 118.444C110.503 120.822 109.395 122.706 109.097 124.15C108.725 125.95 109.833 129.126 111.64 132.733C107.174 136.311 103.834 142.722 103.254 144.806C102.361 148.016 106.985 156.532 112.246 162.29C117.507 168.048 125.273 173.795 128.581 173.303C130.754 172.979 137.684 170.399 141.777 166.339C144.913 168.344 147.699 169.645 149.43 169.505C150.9 169.386 152.904 168.528 155.495 166.927L155.184 188.191C155.161 189.755 157.081 190.532 158.159 189.395L190.664 155.092C192.189 153.483 192.841 151.239 192.414 149.067L190.199 137.795Z" fill="url(#paint0_linear_920_2631)"/>
<path fill-rule="evenodd" clip-rule="evenodd" d="M190.199 137.794C211.816 117.255 238.713 71.9231 228.123 59.7353C217.269 47.8082 168.904 68.807 145.76 87.6512L134.963 84.1483C132.85 83.4626 130.535 83.834 128.746 85.1458L90.6058 113.109C89.3408 114.036 89.8821 116.029 91.4445 116.196L112.427 118.444C110.502 120.822 109.395 122.706 109.096 124.15C108.725 125.95 109.832 129.126 111.639 132.733C107.174 136.312 103.834 142.722 103.254 144.806C102.361 148.016 106.985 156.532 112.246 162.29C117.507 168.048 125.273 173.795 128.581 173.303C130.754 172.979 137.684 170.399 141.777 166.339C144.913 168.344 147.698 169.645 149.429 169.505C150.9 169.386 152.904 168.527 155.495 166.926L155.183 188.19C155.161 189.755 157.081 190.532 158.159 189.394L190.664 155.092C192.189 153.483 192.84 151.239 192.413 149.067L190.199 137.794Z" fill="white" fill-opacity="0.1"/>
<mask id="mask0_920_2631" style="mask-type:alpha" maskUnits="userSpaceOnUse" x="89" y="56" width="142" height="134">
<path fill-rule="evenodd" clip-rule="evenodd" d="M190.199 137.794C211.816 117.255 238.713 71.9231 228.123 59.7353C217.269 47.8082 168.904 68.807 145.76 87.6512L134.963 84.1483C132.85 83.4626 130.535 83.834 128.746 85.1458L90.6058 113.109C89.3408 114.036 89.8821 116.029 91.4445 116.196L112.427 118.444C110.502 120.822 109.395 122.706 109.096 124.15C108.725 125.95 109.832 129.126 111.639 132.733C107.174 136.312 103.834 142.722 103.254 144.806C102.361 148.016 106.985 156.532 112.246 162.29C117.507 168.048 125.273 173.795 128.581 173.303C130.754 172.979 137.684 170.399 141.777 166.339C144.913 168.344 147.698 169.645 149.429 169.505C150.9 169.386 152.904 168.527 155.495 166.926L155.183 188.19C155.161 189.755 157.081 190.532 158.159 189.394L190.664 155.092C192.189 153.483 192.84 151.239 192.413 149.067L190.199 137.794Z" fill="white"/>
</mask>
<g mask="url(#mask0_920_2631)">
<g filter="url(#filter1_f_920_2631)">
<path fill-rule="evenodd" clip-rule="evenodd" d="M103.003 122.217L117.348 104.643L134.222 119.44C137.293 122.133 142.119 120.135 142.388 116.059L143.478 99.5543L166.439 100.674C170.444 100.869 172.994 96.4534 170.821 93.0822L158.285 73.6252C154.868 75.9977 151.676 78.3831 148.777 80.7434L133.028 75.6339C130.914 74.9482 128.599 75.3196 126.81 76.6314L80.6912 110.445L82.8309 120.056L103.003 122.217Z" fill="#00FFF9"/>
</g>
<g filter="url(#filter2_f_920_2631)">
<path fill-rule="evenodd" clip-rule="evenodd" d="M231.176 99.143C221.672 112.161 211.518 124.055 201.965 133.132L206.262 155.004C206.689 157.177 206.037 159.42 204.513 161.029L157.99 210.125C154.593 210.149 152.017 206.614 153.458 203.25L170.178 164.208L147.664 128.285C145.499 124.83 148.225 120.391 152.285 120.76L194.376 124.583L221.422 91.946C224.035 88.7935 229.129 90.0168 230.025 94.0118L231.176 99.143Z" fill="#006CFF"/>
</g>
<path opacity="0.1966" fill-rule="evenodd" clip-rule="evenodd" d="M254.667 35.3544L300.191 87.0771L141.745 227.961L96.221 176.238L254.667 35.3544Z" fill="#0074FC"/>
<g opacity="0.600153" filter="url(#filter3_f_920_2631)">
<path fill-rule="evenodd" clip-rule="evenodd" d="M223.384 58.5883C221.833 58.216 193.39 57.2449 177.437 71.079C161.484 84.9131 152.494 91.246 136.23 87.3406C119.965 83.4351 91.8947 113.749 91.8947 113.749C91.8947 113.749 114.311 119.557 112.665 126.411C111.019 133.265 106.045 149.509 105.489 151.823" fill="#2581FF"/>
<path d="M223.384 58.5883C221.833 58.216 193.39 57.2449 177.437 71.079C161.484 84.9131 152.494 91.246 136.23 87.3406C119.965 83.4351 91.8947 113.749 91.8947 113.749C91.8947 113.749 114.311 119.557 112.665 126.411C111.019 133.265 106.045 149.509 105.489 151.823" stroke="white" stroke-width="9.85634" stroke-linecap="round"/>
</g>
</g>
<g filter="url(#filter4_b_920_2631)">
<path fill-rule="evenodd" clip-rule="evenodd" d="M61.4477 205.657C61.6661 205.601 61.8832 205.552 62.0988 205.509C64.4756 205.04 66.9071 204.972 69.3313 205.307C71.0293 205.546 72.6839 205.966 74.2609 206.569C78.0684 208.034 82.2223 208.616 86.2552 208.258C90.329 207.893 94.3276 206.56 97.8316 204.399C100.929 202.49 103.555 200.029 105.645 197.075C107.654 194.224 109.09 191.039 109.895 187.618C110.695 184.191 110.841 180.696 110.31 177.23C109.764 173.636 108.523 170.236 106.618 167.109C106.559 167.012 106.499 166.915 106.439 166.819L61.4477 205.657Z" fill="white" fill-opacity="0.7"/>
</g>
<mask id="mask1_920_2631" style="mask-type:alpha" maskUnits="userSpaceOnUse" x="49" y="152" width="75" height="73">
<path d="M49.4134 216.009L123.545 152.018C122.048 175.565 119.273 222.95 120.144 224.118C121.014 225.287 73.3529 219.199 49.4134 216.009Z" fill="white"/>
</mask>
<g mask="url(#mask1_920_2631)">
<path fill-rule="evenodd" clip-rule="evenodd" d="M61.4719 165.759C59.3797 168.814 57.9525 172.221 57.2368 175.877L56.6516 178.872C56.5747 179.309 56.9589 179.688 57.3894 179.595L60.3582 178.942C62.2185 178.528 64.3842 178.543 66.7723 178.981C66.9268 179.013 67.0172 179.102 67.0679 179.17C67.1186 179.239 67.1736 179.359 67.1419 179.514C67.1193 179.655 67.0292 179.774 66.9071 179.84C62.8085 182.031 59.0748 185.963 55.8054 191.546C53.0837 196.176 51.7569 201.096 51.8348 206.173L51.8963 209.875C51.9028 210.36 52.4551 210.644 52.8565 210.37L55.9179 208.283C58.01 206.858 60.0653 205.935 62.0076 205.552C64.3844 205.083 66.8159 205.015 69.2401 205.35C70.9381 205.589 72.5927 206.009 74.1697 206.612C77.9772 208.077 82.1311 208.659 86.164 208.301C90.2377 207.936 94.2364 206.603 97.7404 204.443C100.838 202.533 103.463 200.073 105.554 197.118C107.563 194.267 108.999 191.082 109.804 187.661C110.604 184.234 110.75 180.739 110.218 177.273C109.672 173.679 108.432 170.279 106.527 167.152C104.622 164.025 102.174 161.368 99.2463 159.243C96.4179 157.193 93.2593 155.726 89.8578 154.898C86.4589 154.059 82.9863 153.9 79.5534 154.414C75.9875 154.946 72.6158 156.182 69.5186 158.091C66.3165 160.065 63.6071 162.641 61.4719 165.759Z" fill="url(#paint1_radial_920_2631)"/>
</g>
<defs>
<filter id="filter0_bd_920_2631" x="27.1909" y="139.336" width="98.1263" height="95.7821" filterUnits="userSpaceOnUse" color-interpolation-filters="sRGB">
<feFlood flood-opacity="0" result="BackgroundImageFix"/>
<feGaussianBlur in="BackgroundImage" stdDeviation="3.73168"/>
<feComposite in2="SourceAlpha" operator="in" result="effect1_backgroundBlur_920_2631"/>
<feColorMatrix in="SourceAlpha" type="matrix" values="0 0 0 0 0 0 0 0 0 0 0 0 0 0 0 0 0 0 127 0" result="hardAlpha"/>
<feOffset dx="-4.92817" dy="4.92817"/>
<feGaussianBlur stdDeviation="9.85634"/>
<feColorMatrix type="matrix" values="0 0 0 0 0.72526 0 0 0 0 0.72526 0 0 0 0 0.72526 0 0 0 0.630555 0"/>
<feBlend mode="normal" in2="effect1_backgroundBlur_920_2631" result="effect2_dropShadow_920_2631"/>
<feBlend mode="normal" in="SourceGraphic" in2="effect2_dropShadow_920_2631" result="shape"/>
</filter>
<filter id="filter1_f_920_2631" x="60.5969" y="53.531" width="131.114" height="88.7799" filterUnits="userSpaceOnUse" color-interpolation-filters="sRGB">
<feFlood flood-opacity="0" result="BackgroundImageFix"/>
<feBlend mode="normal" in="SourceGraphic" in2="BackgroundImageFix" result="shape"/>
<feGaussianBlur stdDeviation="10.0471" result="effect1_foregroundBlur_920_2631"/>
</filter>
<filter id="filter2_f_920_2631" x="122.141" y="65.3994" width="133.795" height="169.485" filterUnits="userSpaceOnUse" color-interpolation-filters="sRGB">
<feFlood flood-opacity="0" result="BackgroundImageFix"/>
<feBlend mode="normal" in="SourceGraphic" in2="BackgroundImageFix" result="shape"/>
<feGaussianBlur stdDeviation="12.3798" result="effect1_foregroundBlur_920_2631"/>
</filter>
<filter id="filter3_f_920_2631" x="45.359" y="16.1714" width="220.271" height="177.897" filterUnits="userSpaceOnUse" color-interpolation-filters="sRGB">
<feFlood flood-opacity="0" result="BackgroundImageFix"/>
<feBlend mode="normal" in="SourceGraphic" in2="BackgroundImageFix" result="shape"/>
<feGaussianBlur stdDeviation="18.6584" result="effect1_foregroundBlur_920_2631"/>
</filter>
<filter id="filter4_b_920_2631" x="55.8502" y="161.221" width="60.3711" height="52.7366" filterUnits="userSpaceOnUse" color-interpolation-filters="sRGB">
<feFlood flood-opacity="0" result="BackgroundImageFix"/>
<feGaussianBlur in="BackgroundImage" stdDeviation="2.79876"/>
<feComposite in2="SourceAlpha" operator="in" result="effect1_backgroundBlur_920_2631"/>
<feBlend mode="normal" in="SourceGraphic" in2="effect1_backgroundBlur_920_2631" result="shape"/>
</filter>
<linearGradient id="paint0_linear_920_2631" x1="110.19" y1="29.7866" x2="76.3677" y2="170.643" gradientUnits="userSpaceOnUse">
<stop stop-color="#006CFF"/>
<stop offset="1" stop-color="white"/>
</linearGradient>
<radialGradient id="paint1_radial_920_2631" cx="0" cy="0" r="1" gradientUnits="userSpaceOnUse" gradientTransform="translate(49.4817 206.098) rotate(-38.5078) scale(60.1949 47.7847)">
<stop stop-color="white"/>
<stop offset="1" stop-color="white" stop-opacity="0"/>
</radialGradient>
</defs>
</svg>
