<svg width="91" height="71" fill="none" xmlns="http://www.w3.org/2000/svg">
  <path fill-rule="evenodd" clip-rule="evenodd" d="M11.565 60.355c-.76-.698.53-3.454 2.9-6.185 2.371-2.73 4.93-4.408 5.743-3.77l.498.424c.793.674-.499 3.45-2.886 6.199-2.386 2.748-4.964 4.43-5.758 3.756l-.008-.008-.464-.394-.01-.008-.008-.008-.007-.005Z" fill="#FFD600"/>
  <ellipse rx="6.593" ry="1.727" transform="matrix(-.6556 .7551 -.76186 -.64774 15.834 55.332)" fill="#FFED8C"/>
  <ellipse rx="6.593" ry="1.727" transform="matrix(-.6556 .7551 -.76186 -.64774 15.834 55.332)" fill="url(#paint0_linear_941_2868)" fill-opacity=".2"/>
  <path fill-rule="evenodd" clip-rule="evenodd" d="M1.508 21.489c.666-1.538 5.096-.587 9.944 2.143 4.847 2.73 8.288 6.212 7.728 7.81h.001l-.388.993c-.618 1.582-5.076.637-9.956-2.112S.5 24.063 1.12 22.481a.972.972 0 0 1 .007-.019l.361-.924a1.163 1.163 0 0 1 .014-.035l.006-.014Z" fill="#FFD600"/>
  <path fill-rule="evenodd" clip-rule="evenodd" d="M1.508 21.489c.666-1.538 5.096-.587 9.944 2.143 4.847 2.73 8.288 6.212 7.728 7.81h.001l-.388.993c-.618 1.582-5.076.637-9.956-2.112S.5 24.063 1.12 22.481a.972.972 0 0 1 .007-.019l.361-.924a1.163 1.163 0 0 1 .014-.035l.006-.014Z" fill="url(#paint1_linear_941_2868)" fill-opacity=".2"/>
  <path fill-rule="evenodd" clip-rule="evenodd" d="M28.46 8.588c-.353-1.247 2.34-3.657 6.045-5.403 3.706-1.747 7.033-2.175 7.466-.966l.25.777c.396 1.24-2.307 3.67-6.039 5.429-3.73 1.758-7.077 2.18-7.474.94a.509.509 0 0 1-.003-.012l-.233-.727-.005-.013a.628.628 0 0 1-.004-.013l-.003-.012Z" fill="#FFD600"/>
  <path opacity=".2" fill-rule="evenodd" clip-rule="evenodd" d="M73.14 19.34c-1 .539-3.69-1.073-6.035-3.622s-3.463-5.075-2.515-5.67l.616-.359c.983-.572 3.694 1.045 6.055 3.611 2.362 2.566 3.479 5.11 2.496 5.682l-.01.006-.576.335-.01.006-.011.006-.01.005Z" fill="#FFD600"/>
  <path opacity=".5" fill-rule="evenodd" clip-rule="evenodd" d="M87.302 44.99c.91 1.417-1.387 5.139-5.162 8.348-3.776 3.21-7.61 4.7-8.602 3.353l-.603-.875c-.96-1.395 1.342-5.145 5.143-8.376 3.801-3.232 7.662-4.72 8.622-3.325l.009.012.565.822a.545.545 0 0 1 .017.025l.011.016Z" fill="#FFD600"/>
  <ellipse rx="10.136" ry="2.87" transform="matrix(-.87131 -.49073 .364 -.9314 10.424 26.241)" fill="#FFED8C"/>
  <ellipse rx="10.136" ry="2.87" transform="matrix(-.87131 -.49073 .364 -.9314 10.424 26.241)" fill="url(#paint2_linear_941_2868)" fill-opacity=".2"/>
  <ellipse rx="7.47" ry="2.158" transform="matrix(-.90455 .42637 -.3048 -.95241 35.19 5.32)" fill="#FFED8C"/>
  <ellipse rx="7.47" ry="2.158" transform="matrix(-.90455 .42637 -.3048 -.95241 35.19 5.32)" fill="url(#paint3_linear_941_2868)" fill-opacity=".2"/>
  <g opacity=".2" transform="matrix(.67713 .73587 -.86436 .50287 68.799 14.732)">
    <ellipse rx="6.315" ry="1.886" fill="#FFED8C"/>
    <ellipse rx="6.315" ry="1.886" fill="url(#paint4_linear_941_2868)" fill-opacity=".2"/>
  </g>
  <g opacity=".5" transform="matrix(.76191 -.64768 .5671 .82365 80.564 51.021)">
    <ellipse rx="9.017" ry="2.799" fill="#FFED8C"/>
    <ellipse rx="9.017" ry="2.799" fill="url(#paint5_linear_941_2868)" fill-opacity=".2"/>
  </g>
  <path fill-rule="evenodd" clip-rule="evenodd" d="M89.647 56.945c.115-.073.23-.168.35-.225a.449.449 0 0 0 .047-.026c.655-.415-.365-2.194-2.279-3.975-1.914-1.78-3.997-2.888-4.652-2.474-.115.073-.229.168-.35.226a.467.467 0 0 0-.047.026c-.655.414.365 2.194 2.279 3.974 1.914 1.78 3.997 2.888 4.652 2.474Z" fill="#FFD600"/>
  <ellipse rx="4.734" ry="1.285" transform="matrix(.73215 .68114 -.84513 .53456 86.105 53.782)" fill="#FFED8C"/>
  <ellipse rx="4.734" ry="1.285" transform="matrix(.73215 .68114 -.84513 .53456 86.105 53.782)" fill="url(#paint6_linear_941_2868)" fill-opacity=".2"/>
  <g filter="url(#filter0_bd_941_2868)">
    <rect x="25.387" y="20.364" width="40.255" height="39.994" rx="19.997" fill="url(#paint7_linear_941_2868)" shape-rendering="crispEdges"/>
  </g>
  <g opacity=".4">
    <mask id="mask0_941_2868" maskUnits="userSpaceOnUse" x="25" y="20" width="41" height="41">
      <rect x="25.387" y="20.364" width="40.255" height="39.994" rx="19.997" fill="#FFA800"/>
    </mask>
    <g mask="url(#mask0_941_2868)">
      <path fill="#fff" fill-opacity=".7" d="M15.57 11.339h29.944v58.858H15.57z"/>
    </g>
  </g>
  <g filter="url(#filter1_i_941_2868)">
    <circle cx="45.514" cy="40.361" r="14.741" fill="url(#paint8_linear_941_2868)"/>
  </g>
  <path d="M39.5 47.819a1.95 1.95 0 0 0 3.801-.023l1.145-5.09h2.13l1.15 5.092a1.952 1.952 0 0 0 3.803.02l1.214-5.112h1.189a1.189 1.189 0 1 0 0-2.378h-.623l1.12-4.726a1.417 1.417 0 1 0-2.766-.615l-1.11 5.341h-2.166l-1.185-5.127a1.732 1.732 0 0 0-3.375 0l-1.185 5.127h-2.16l-1.115-5.342a1.417 1.417 0 1 0-2.767.617l1.12 4.725h-.623a1.189 1.189 0 1 0 0 2.378h1.19L39.5 47.82Zm1.474-5.113h1.117l-.514 2.235h-.135l-.468-2.235Zm4.008-2.378.468-2.076h.121l.468 2.076h-1.057Zm3.948 2.378h1.125l-.468 2.25h-.136l-.52-2.25Z" fill="#fff"/>
  <defs>
    <linearGradient id="paint0_linear_941_2868" x1="10.58" y1="1.507" x2="-5.107" y2="-6.143" gradientUnits="userSpaceOnUse">
      <stop stop-color="#FFE600" stop-opacity=".789"/>
      <stop offset="1" stop-color="#fff" stop-opacity="0"/>
    </linearGradient>
    <linearGradient id="paint1_linear_941_2868" x1="4.729" y1="24.383" x2="15.056" y2="32.208" gradientUnits="userSpaceOnUse">
      <stop stop-color="#FFB800"/>
      <stop offset="1" stop-color="#fff" stop-opacity="0"/>
    </linearGradient>
    <linearGradient id="paint2_linear_941_2868" x1="16.265" y1="2.504" x2="-8.538" y2="-8.685" gradientUnits="userSpaceOnUse">
      <stop stop-color="#FFE600" stop-opacity=".789"/>
      <stop offset="1" stop-color="#fff" stop-opacity="0"/>
    </linearGradient>
    <linearGradient id="paint3_linear_941_2868" x1="11.988" y1="1.883" x2="-6.415" y2="-6.254" gradientUnits="userSpaceOnUse">
      <stop stop-color="#FFE600" stop-opacity=".789"/>
      <stop offset="1" stop-color="#fff" stop-opacity="0"/>
    </linearGradient>
    <linearGradient id="paint4_linear_941_2868" x1="10.134" y1="1.646" x2="-5.588" y2="-5.079" gradientUnits="userSpaceOnUse">
      <stop stop-color="#FFE600" stop-opacity=".789"/>
      <stop offset="1" stop-color="#fff" stop-opacity="0"/>
    </linearGradient>
    <linearGradient id="paint5_linear_941_2868" x1="14.47" y1="2.442" x2="-8.241" y2="-6.903" gradientUnits="userSpaceOnUse">
      <stop stop-color="#FFE600" stop-opacity=".789"/>
      <stop offset="1" stop-color="#fff" stop-opacity="0"/>
    </linearGradient>
    <linearGradient id="paint6_linear_941_2868" x1="7.597" y1="1.122" x2="-3.819" y2="-4.248" gradientUnits="userSpaceOnUse">
      <stop stop-color="#FFE600" stop-opacity=".789"/>
      <stop offset="1" stop-color="#fff" stop-opacity="0"/>
    </linearGradient>
    <linearGradient id="paint7_linear_941_2868" x1="45.514" y1="33.843" x2="45.514" y2="66.101" gradientUnits="userSpaceOnUse">
      <stop stop-color="#FFD600"/>
      <stop offset="1" stop-color="#fff" stop-opacity="0"/>
    </linearGradient>
    <linearGradient id="paint8_linear_941_2868" x1="58.339" y1="68.253" x2="45.514" y2="20.819" gradientUnits="userSpaceOnUse">
      <stop stop-color="#FFE86D"/>
      <stop offset="1" stop-color="#fff" stop-opacity="0"/>
    </linearGradient>
    <filter id="filter0_bd_941_2868" x="20.995" y="16.49" width="54.204" height="53.943" filterUnits="userSpaceOnUse" color-interpolation-filters="sRGB">
      <feFlood flood-opacity="0" result="BackgroundImageFix"/>
      <feGaussianBlur in="BackgroundImage" stdDeviation="1.458"/>
      <feComposite in2="SourceAlpha" operator="in" result="effect1_backgroundBlur_941_2868"/>
      <feColorMatrix in="SourceAlpha" values="0 0 0 0 0 0 0 0 0 0 0 0 0 0 0 0 0 0 127 0" result="hardAlpha"/>
      <feOffset dx="2.583" dy="3.1"/>
      <feGaussianBlur stdDeviation="3.487"/>
      <feComposite in2="hardAlpha" operator="out"/>
      <feColorMatrix values="0 0 0 0 0 0 0 0 0 0 0 0 0 0 0 0 0 0 0.04 0"/>
      <feBlend in2="effect1_backgroundBlur_941_2868" result="effect2_dropShadow_941_2868"/>
      <feBlend in="SourceGraphic" in2="effect2_dropShadow_941_2868" result="shape"/>
    </filter>
    <filter id="filter1_i_941_2868" x="30.774" y="25.621" width="30.305" height="30.58" filterUnits="userSpaceOnUse" color-interpolation-filters="sRGB">
      <feFlood flood-opacity="0" result="BackgroundImageFix"/>
      <feBlend in="SourceGraphic" in2="BackgroundImageFix" result="shape"/>
      <feColorMatrix in="SourceAlpha" values="0 0 0 0 0 0 0 0 0 0 0 0 0 0 0 0 0 0 127 0" result="hardAlpha"/>
      <feOffset dx=".824" dy="1.099"/>
      <feGaussianBlur stdDeviation=".55"/>
      <feComposite in2="hardAlpha" operator="arithmetic" k2="-1" k3="1"/>
      <feColorMatrix values="0 0 0 0 1 0 0 0 0 0.66 0 0 0 0 0 0 0 0 0.25 0"/>
      <feBlend in2="shape" result="effect1_innerShadow_941_2868"/>
    </filter>
  </defs>
</svg>