<svg width="212" height="198" viewBox="0 0 212 198" fill="none" xmlns="http://www.w3.org/2000/svg">
<path d="M169.28 166.805C168.508 169.288 165.411 170.118 163.501 168.354L155.143 160.631C153.959 159.537 152.185 159.382 150.829 160.254L141.257 166.408C139.069 167.814 136.163 166.459 135.834 163.879L134.396 152.591C134.192 150.992 132.933 149.733 131.334 149.529L120.045 148.09C117.466 147.761 116.111 144.855 117.517 142.668L123.671 133.096C124.543 131.74 124.387 129.966 123.293 128.782L115.571 120.424C113.806 118.514 114.636 115.417 117.119 114.645L127.986 111.268C129.526 110.789 130.547 109.331 130.47 107.721L129.927 96.354C129.803 93.7566 132.429 91.9174 134.827 92.9224L145.323 97.3206C146.81 97.9437 148.53 97.4828 149.506 96.1999L156.396 87.1432C157.97 85.0737 161.165 85.3532 162.356 87.6647L167.569 97.7802C168.307 99.2131 169.921 99.9656 171.493 99.6102L182.593 97.1014C185.129 96.528 187.396 98.7954 186.823 101.332L184.314 112.431C183.959 114.004 184.711 115.618 186.144 116.356L196.26 121.569C198.571 122.76 198.851 125.954 196.781 127.529L187.725 134.419C186.442 135.395 185.981 137.115 186.604 138.602L191.002 149.097C192.007 151.495 190.168 154.122 187.571 153.998L176.204 153.454C174.594 153.378 173.135 154.399 172.657 155.938L169.28 166.805Z" fill="url(#paint0_linear_828_1149)"/>
<g filter="url(#filter0_bd_828_1149)">
<rect x="16.4648" y="15.0576" width="146.515" height="145.564" rx="72.7822" fill="url(#paint1_linear_828_1149)" shape-rendering="crispEdges"/>
</g>
<g opacity="0.4">
<mask id="mask0_828_1149" style="mask-type:alpha" maskUnits="userSpaceOnUse" x="16" y="15" width="147" height="146">
<rect x="16.4648" y="15.0576" width="146.515" height="145.564" rx="72.7822" fill="#5FDE83"/>
</mask>
<g mask="url(#mask0_828_1149)">
<rect x="-19.2642" y="-17.7905" width="108.987" height="214.224" fill="white"/>
</g>
</g>
<g filter="url(#filter1_bi_828_1149)">
<path d="M66.3887 81.5897L83.2337 110.377L113.056 72.3781" stroke="white" stroke-width="14.456" stroke-linecap="round" stroke-linejoin="round"/>
</g>
<defs>
<filter id="filter0_bd_828_1149" x="0.481999" y="0.955047" width="197.284" height="196.333" filterUnits="userSpaceOnUse" color-interpolation-filters="sRGB">
<feFlood flood-opacity="0" result="BackgroundImageFix"/>
<feGaussianBlur in="BackgroundImage" stdDeviation="5.30634"/>
<feComposite in2="SourceAlpha" operator="in" result="effect1_backgroundBlur_828_1149"/>
<feColorMatrix in="SourceAlpha" type="matrix" values="0 0 0 0 0 0 0 0 0 0 0 0 0 0 0 0 0 0 127 0" result="hardAlpha"/>
<feOffset dx="9.40167" dy="11.282"/>
<feGaussianBlur stdDeviation="12.6923"/>
<feComposite in2="hardAlpha" operator="out"/>
<feColorMatrix type="matrix" values="0 0 0 0 0 0 0 0 0 0 0 0 0 0 0 0 0 0 0.04 0"/>
<feBlend mode="normal" in2="effect1_backgroundBlur_828_1149" result="effect2_dropShadow_828_1149"/>
<feBlend mode="normal" in="SourceGraphic" in2="effect2_dropShadow_828_1149" result="shape"/>
</filter>
<filter id="filter1_bi_828_1149" x="52.0843" y="58.0746" width="75.2756" height="66.6055" filterUnits="userSpaceOnUse" color-interpolation-filters="sRGB">
<feFlood flood-opacity="0" result="BackgroundImageFix"/>
<feGaussianBlur in="BackgroundImage" stdDeviation="3.53756"/>
<feComposite in2="SourceAlpha" operator="in" result="effect1_backgroundBlur_828_1149"/>
<feBlend mode="normal" in="SourceGraphic" in2="effect1_backgroundBlur_828_1149" result="shape"/>
<feColorMatrix in="SourceAlpha" type="matrix" values="0 0 0 0 0 0 0 0 0 0 0 0 0 0 0 0 0 0 127 0" result="hardAlpha"/>
<feOffset dy="7.07512"/>
<feGaussianBlur stdDeviation="3.53756"/>
<feComposite in2="hardAlpha" operator="arithmetic" k2="-1" k3="1"/>
<feColorMatrix type="matrix" values="0 0 0 0 1 0 0 0 0 1 0 0 0 0 1 0 0 0 0.8 0"/>
<feBlend mode="normal" in2="shape" result="effect2_innerShadow_828_1149"/>
</filter>
<linearGradient id="paint0_linear_828_1149" x1="167.617" y1="172.157" x2="144.012" y2="84.0637" gradientUnits="userSpaceOnUse">
<stop stop-color="#00FFF9"/>
<stop offset="1" stop-color="#00FFF9" stop-opacity="0"/>
</linearGradient>
<linearGradient id="paint1_linear_828_1149" x1="89.7225" y1="64.1139" x2="89.7225" y2="181.523" gradientUnits="userSpaceOnUse">
<stop stop-color="#5FDE87"/>
<stop offset="1" stop-color="white" stop-opacity="0"/>
</linearGradient><svg width="212" height="198" viewBox="0 0 212 198" fill="none" xmlns="http://www.w3.org/2000/svg">
  <path d="M169.28 166.805C168.508 169.288 165.411 170.118 163.501 168.354L155.143 160.631C153.959 159.537 152.185 159.382 150.829 160.254L141.257 166.408C139.069 167.814 136.163 166.459 135.834 163.879L134.396 152.591C134.192 150.992 132.933 149.733 131.334 149.529L120.045 148.09C117.466 147.761 116.111 144.855 117.517 142.668L123.671 133.096C124.543 131.74 124.387 129.966 123.293 128.782L115.571 120.424C113.806 118.514 114.636 115.417 117.119 114.645L127.986 111.268C129.526 110.789 130.547 109.331 130.47 107.721L129.927 96.354C129.803 93.7566 132.429 91.9174 134.827 92.9224L145.323 97.3206C146.81 97.9437 148.53 97.4828 149.506 96.1999L156.396 87.1432C157.97 85.0737 161.165 85.3532 162.356 87.6647L167.569 97.7802C168.307 99.2131 169.921 99.9656 171.493 99.6102L182.593 97.1014C185.129 96.528 187.396 98.7954 186.823 101.332L184.314 112.431C183.959 114.004 184.711 115.618 186.144 116.356L196.26 121.569C198.571 122.76 198.851 125.954 196.781 127.529L187.725 134.419C186.442 135.395 185.981 137.115 186.604 138.602L191.002 149.097C192.007 151.495 190.168 154.122 187.571 153.998L176.204 153.454C174.594 153.378 173.135 154.399 172.657 155.938L169.28 166.805Z" fill="url(#paint0_linear_828_1149)"/>
  <g filter="url(#filter0_bd_828_1149)">
    <rect x="16.4648" y="15.0576" width="146.515" height="145.564" rx="72.7822" fill="url(#paint1_linear_828_1149)" shape-rendering="crispEdges"/>
  </g>
  <g opacity="0.4">
    <mask id="mask0_828_1149" maskUnits="userSpaceOnUse" x="16" y="15" width="147" height="146">
      <rect x="16.4648" y="15.0576" width="146.515" height="145.564" rx="72.7822" fill="#5FDE83"/>
    </mask>
    <g mask="url(#mask0_828_1149)">
      <rect x="-19.2642" y="-17.7905" width="108.987" height="214.224" fill="white"/>
    </g>
  </g>
  <g filter="url(#filter1_bi_828_1149)">
    <path d="M66.3887 81.5897L83.2337 110.377L113.056 72.3781" stroke="white" stroke-width="14.456" stroke-linecap="round" stroke-linejoin="round"/>
  </g>
  <defs>
    <filter id="filter0_bd_828_1149" x="0.481999" y="0.955047" width="197.284" height="196.333" filterUnits="userSpaceOnUse" color-interpolation-filters="sRGB">
      <feFlood flood-opacity="0" result="BackgroundImageFix"/>
      <feGaussianBlur in="BackgroundImage" stdDeviation="5.30634"/>
      <feComposite in2="SourceAlpha" operator="in" result="effect1_backgroundBlur_828_1149"/>
      <feColorMatrix in="SourceAlpha" type="matrix" values="0 0 0 0 0 0 0 0 0 0 0 0 0 0 0 0 0 0 127 0" result="hardAlpha"/>
      <feOffset dx="9.40167" dy="11.282"/>
      <feGaussianBlur stdDeviation="12.6923"/>
      <feComposite in2="hardAlpha" operator="out"/>
      <feColorMatrix type="matrix" values="0 0 0 0 0 0 0 0 0 0 0 0 0 0 0 0 0 0 0.04 0"/>
      <feBlend mode="normal" in2="effect1_backgroundBlur_828_1149" result="effect2_dropShadow_828_1149"/>
      <feBlend mode="normal" in="SourceGraphic" in2="effect2_dropShadow_828_1149" result="shape"/>
    </filter>
    <filter id="filter1_bi_828_1149" x="52.0843" y="58.0746" width="75.2756" height="66.6055" filterUnits="userSpaceOnUse" color-interpolation-filters="sRGB">
      <feFlood flood-opacity="0" result="BackgroundImageFix"/>
      <feGaussianBlur in="BackgroundImage" stdDeviation="3.53756"/>
      <feComposite in2="SourceAlpha" operator="in" result="effect1_backgroundBlur_828_1149"/>
      <feBlend mode="normal" in="SourceGraphic" in2="effect1_backgroundBlur_828_1149" result="shape"/>
      <feColorMatrix in="SourceAlpha" type="matrix" values="0 0 0 0 0 0 0 0 0 0 0 0 0 0 0 0 0 0 127 0" result="hardAlpha"/>
      <feOffset dy="7.07512"/>
      <feGaussianBlur stdDeviation="3.53756"/>
      <feComposite in2="hardAlpha" operator="arithmetic" k2="-1" k3="1"/>
      <feColorMatrix type="matrix" values="0 0 0 0 1 0 0 0 0 1 0 0 0 0 1 0 0 0 0.8 0"/>
      <feBlend mode="normal" in2="shape" result="effect2_innerShadow_828_1149"/>
    </filter>
    <linearGradient id="paint0_linear_828_1149" x1="167.617" y1="172.157" x2="144.012" y2="84.0637" gradientUnits="userSpaceOnUse">
      <stop stop-color="#00FFF9"/>
      <stop offset="1" stop-color="#00FFF9" stop-opacity="0"/>
    </linearGradient>
    <linearGradient id="paint1_linear_828_1149" x1="89.7225" y1="64.1139" x2="89.7225" y2="181.523" gradientUnits="userSpaceOnUse">
      <stop stop-color="#5FDE87"/>
      <stop offset="1" stop-color="white" stop-opacity="0"/>
    </linearGradient>
  </defs>
</svg>

</defs>
</svg>
