<svg xmlns="http://www.w3.org/2000/svg" xmlns:xlink="http://www.w3.org/1999/xlink" width="48" height="48" viewBox="0 0 48 48">
    <defs>
        <path id="4arq5ngkha" d="M10.751 25.263c-.297-.28-.33-.715-.1-1.03l.1-.112L20.431 15l-9.68-9.121c-.297-.28-.33-.716-.1-1.03l.1-.112c.298-.28.76-.312 1.094-.094l.118.094 10.286 9.692c.297.28.33.715.1 1.03l-.1.112-10.286 9.692c-.335.316-.877.316-1.212 0z"/>
    </defs>
    <g fill="none" fill-rule="evenodd">
        <g>
            <g>
                <g transform="translate(-406 -516) translate(380 198) translate(26 318)">
                    <circle cx="24" cy="24" r="23.5" fill="#FEFEFE" stroke="#D6DAE3"/>
                    <g transform="rotate(-180 19.5 19.5)">
                        <mask id="7uez55su7b" fill="#fff">
                            <use xlink:href="#4arq5ngkha"/>
                        </mask>
                        <use fill="#979797" fill-rule="nonzero" xlink:href="#4arq5ngkha"/>
                        <g mask="url(#7uez55su7b)">
                            <path fill="#656565" d="M0 0H30V30H0z"/>
                            <path fill="#3A3A3A" d="M0 0H30V30H0z"/>
                        </g>
                    </g>
                </g>
            </g>
        </g>
    </g>
</svg>
