<svg xmlns="http://www.w3.org/2000/svg" xmlns:xlink="http://www.w3.org/1999/xlink" width="24" height="24" viewBox="0 0 24 24">
    <defs>
        <path id="bql9x1nana" d="M12 1.5c5.799 0 10.5 4.701 10.5 10.5S17.799 22.5 12 22.5 1.5 17.799 1.5 12 6.201 1.5 12 1.5zm5.883 9.38c-.431-.523-1.25-.523-1.774-.15-.86.592-.975 1.999-.216 2.716.546.517 1.459.502 2.001-.013-.021.288-.021.62-.244.835-.2.19-.497.177-.753.188.001.335.003.669.001 1.004.484.021 1.011-.012 1.412-.316.461-.34.656-.934.66-1.488.003-1.025 0-2.05 0-3.076-.363-.003-.726-.003-1.089 0 0 .075 0 .224.002.3zm-3.526.092c-.525-.501-1.33-.605-2.009-.414-.957.23-1.477 1.36-1.1 2.253.444 1.14 2.065 1.365 2.98.672.778-.573.83-1.856.13-2.511zM4.895 9.106c-.038 1.55-.004 3.104-.02 4.655.365.015.732.011 1.098.008-.002-.082-.004-.246-.007-.329.456.574 1.369.547 1.896.09.77-.644.795-1.963.076-2.655-.521-.526-1.452-.549-1.979-.019.02-.58.001-1.16.014-1.739-.36-.004-.718 0-1.078-.01zM8.802 9c-.002.358-.006.715 0 1.073.328.094.5.419.497.744.042.983.005 1.969.021 2.953.36.002.72.002 1.08-.001.004-.983-.003-1.968.002-2.952.012-.569-.188-1.183-.662-1.53-.267-.204-.605-.277-.938-.287zm3.964 2.49c.441-.169.973.216.914.695.06.527-.596.882-1.033.619-.527-.26-.45-1.155.119-1.314zm-6.411.02c.45-.212 1.015.171.968.67.042.514-.568.874-1.01.64-.531-.233-.505-1.117.042-1.31zm10.604-.03c.456-.215 1.02.203.961.7.024.525-.61.843-1.044.597-.505-.253-.455-1.112.083-1.298z"/>
    </defs>
    <g fill="none" fill-rule="evenodd">
        <g>
            <g>
                <g transform="translate(-1479 -898) translate(1180 586) translate(299 312)">
                    <use fill="#5B606B" xlink:href="#bql9x1nana"/>
                </g>
            </g>
        </g>
    </g>
</svg>
