<svg width="20" height="20" viewBox="0 0 20 20" fill="none" xmlns="http://www.w3.org/2000/svg">
<path fill-rule="evenodd" clip-rule="evenodd" d="M16.364 3.63608C14.6066 1.87872 11.7574 1.87872 10 3.63608L8.23226 5.40385C8.037 5.59911 8.037 5.91569 8.23226 6.11096C8.42752 6.30622 8.7441 6.30622 8.93937 6.11096L10.7071 4.34319C12.074 2.97635 14.29 2.97635 15.6569 4.34319C17.0237 5.71002 17.0237 7.9261 15.6569 9.29294L13.8891 11.0607C13.6939 11.256 13.6939 11.5725 13.8891 11.7678C14.0844 11.9631 14.401 11.9631 14.5962 11.7678L16.364 10C18.1213 8.24268 18.1213 5.39344 16.364 3.63608ZM6.11094 8.93938C6.3062 8.74412 6.3062 8.42754 6.11094 8.23228C5.91568 8.03701 5.59909 8.03701 5.40383 8.23228L3.63607 10C1.87871 11.7574 1.87871 14.6066 3.63607 16.364C5.39342 18.1214 8.24267 18.1214 10 16.364L11.7678 14.5962C11.9631 14.401 11.9631 14.0844 11.7678 13.8891C11.5725 13.6939 11.2559 13.6939 11.0607 13.8891L9.29292 15.6569C7.92608 17.0237 5.71001 17.0237 4.34317 15.6569C2.97634 14.2901 2.97634 12.074 4.34317 10.7071L6.11094 8.93938ZM12.8285 7.17162C12.6332 6.97635 12.3166 6.97635 12.1213 7.17162L7.1716 12.1214C6.97634 12.3166 6.97634 12.6332 7.1716 12.8285C7.36686 13.0237 7.68344 13.0237 7.87871 12.8285L12.8285 7.87872C13.0237 7.68346 13.0237 7.36688 12.8285 7.17162Z" fill="#595959"/>
</svg>
