<svg xmlns="http://www.w3.org/2000/svg" xmlns:xlink="http://www.w3.org/1999/xlink" width="24" height="24" viewBox="0 0 24 24">
    <defs>
        <path id="zxb8xhe0ca" d="M12 1.5c5.799 0 10.5 4.701 10.5 10.5S17.799 22.5 12 22.5 1.5 17.799 1.5 12 6.201 1.5 12 1.5zm2.267 6.124c-1.083.417-1.768 1.492-1.69 2.67l.026.453-.434-.055c-1.578-.213-2.957-.936-4.127-2.15l-.572-.603-.148.445c-.312.992-.112 2.039.538 2.743.347.39.269.445-.33.214-.208-.075-.39-.13-.407-.102-.06.064.147.908.312 1.242.225.463.685.917 1.188 1.186l.425.213-.503.01c-.486 0-.503.009-.451.203.173.603.858 1.242 1.621 1.52l.538.195-.468.296c-.694.427-1.509.668-2.324.686-.39.01-.711.047-.711.075 0 .092 1.058.611 1.673.815 1.847.603 4.041.343 5.688-.686 1.17-.732 2.341-2.187 2.888-3.596.295-.75.59-2.122.59-2.78 0-.427.025-.482.51-.992.287-.297.556-.621.608-.714.087-.176.078-.176-.364-.018-.737.278-.841.24-.477-.176.269-.297.59-.835.59-.992 0-.028-.13.018-.278.102-.156.092-.503.231-.763.315l-.468.157-.425-.305c-.234-.167-.564-.353-.737-.408-.442-.13-1.119-.111-1.518.037z"/>
    </defs>
    <g fill="none" fill-rule="evenodd">
        <g>
            <g>
                <g transform="translate(-1451 -898) translate(1180 586) translate(271 312)">
                    <use fill="#5B606B" xlink:href="#zxb8xhe0ca"/>
                </g>
            </g>
        </g>
    </g>
</svg>
