<svg width="20" height="20" viewBox="0 0 20 20" fill="none" xmlns="http://www.w3.org/2000/svg">
<path fill-rule="evenodd" clip-rule="evenodd" d="M9.64644 2.14645C9.84171 1.95118 10.1583 1.95118 10.3536 2.14645L13.182 4.97487C13.3772 5.17014 13.3772 5.48672 13.182 5.68198C12.9867 5.87724 12.6701 5.87724 12.4749 5.68198L10.5 3.70711V12.5C10.5 12.7761 10.2761 13 10 13C9.72386 13 9.5 12.7761 9.5 12.5V3.7071L7.52512 5.68198C7.32986 5.87724 7.01328 5.87724 6.81802 5.68198C6.62275 5.48672 6.62275 5.17014 6.81802 4.97487L9.64644 2.14645ZM4 10.5C4 10.2239 4.22386 10 4.5 10H7C7.27614 10 7.5 9.77614 7.5 9.5C7.5 9.22386 7.27614 9 7 9H4.5C3.67157 9 3 9.67157 3 10.5V15.5C3 16.3284 3.67157 17 4.5 17H15.5C16.3284 17 17 16.3284 17 15.5V10.5C17 9.67157 16.3284 9 15.5 9H13C12.7239 9 12.5 9.22386 12.5 9.5C12.5 9.77614 12.7239 10 13 10H15.5C15.7761 10 16 10.2239 16 10.5V15.5C16 15.7761 15.7761 16 15.5 16H4.5C4.22386 16 4 15.7761 4 15.5V10.5Z" fill="#595959"/>
</svg>
