<svg xmlns="http://www.w3.org/2000/svg" width="74" height="74" viewBox="0 0 74 74">
    <defs>
        <filter id="nh59frt0qa">
            <feColorMatrix in="SourceGraphic" values="0 0 0 0 0.996078 0 0 0 0 0.996078 0 0 0 0 0.996078 0 0 0 1.000000 0"/>
        </filter>
    </defs>
    <g fill="none" fill-rule="evenodd">
        <g>
            <g transform="translate(-986 -1455) translate(986 1455)">
                <rect width="73" height="73" x=".5" y=".5" fill="#E8ECF2" stroke="#E8ECF2" rx="5"/>
                <g filter="url(#nh59frt0qa)">
                    <g>
                        <g fill="#2581FF">
                            <path d="M42.53 25.975c-.49.144-1.03.31-1.62.498-.588.186-1.251.358-1.984.517-.734.158-1.553.287-2.459.388-.907.1-1.934.15-3.086.15-3.394 0-5.724-.976-6.991-2.933-1.265-1.956-1.48-4.632-.646-8.026l2.934-12.254h6.43L32.26 16.311c-.173.746-.31 1.473-.411 2.179-.1.704-.093 1.323.023 1.855.115.53.38.964.798 1.294.417.331 1.057.496 1.919.496.836 0 1.684-.086 2.545-.258L41.32 4.315h6.43l-5.22 21.66zM5.31 1.594c.491-.144 1.03-.31 1.62-.498C7.52.91 8.181.738 8.914.58c.735-.158 1.554-.287 2.46-.388.907-.1 1.934-.15 3.085-.15 3.394 0 5.724.976 6.991 2.933 1.266 1.956 1.481 4.632.647 8.026l-2.934 12.254h-6.43l2.848-11.996c.173-.746.309-1.473.41-2.179.101-.704.093-1.323-.022-1.855-.116-.53-.38-.964-.798-1.294-.417-.331-1.058-.496-1.92-.496-.835 0-1.683.086-2.545.258L6.52 23.254H.09l5.22-21.66z" transform="translate(13 23) translate(.038 .174)"/>
                        </g>
                    </g>
                </g>
            </g>
        </g>
    </g>
</svg>
