<svg xmlns="http://www.w3.org/2000/svg" xmlns:xlink="http://www.w3.org/1999/xlink" width="24" height="24" viewBox="0 0 24 24">
    <defs>
        <path id="gpqdgq7w1a" d="M12 1.5c5.799 0 10.5 4.701 10.5 10.5S17.799 22.5 12 22.5 1.5 17.799 1.5 12 6.201 1.5 12 1.5zm.857 4.501h-1.53c-1.032.002-1.261.011-1.8.035-.64.03-1.074.13-1.457.279-.394.153-.73.358-1.063.692-.333.333-.54.668-.692 1.063-.149.383-.25.817-.279 1.457l-.016.363-.006.17c-.008.29-.012.622-.013 1.267v1.346c.001.645.005.977.014 1.266l.006.17.015.364c.03.638.13 1.074.279 1.457.153.394.358.73.692 1.063.333.333.668.54 1.063.692.383.148.818.25 1.457.279.505.024.738.032 1.616.035h.611L12 18h.673c1.032-.003 1.262-.012 1.801-.036.638-.03 1.073-.131 1.457-.279.394-.153.729-.359 1.063-.692.332-.333.539-.667.691-1.063.148-.383.25-.819.279-1.457l.016-.363.006-.17c.008-.261.012-.556.013-1.083l.001-.611v-.919c-.002-.645-.006-.977-.015-1.266l-.005-.17-.016-.364c-.03-.639-.131-1.075-.279-1.457-.152-.394-.358-.73-.691-1.063-.334-.333-.668-.54-1.063-.692-.383-.149-.819-.25-1.457-.279-.506-.024-.739-.032-1.617-.035zm-.88.741l.024.016H12.673c1.105.003 1.337.013 1.91.038.623.03.961.132 1.186.22.299.117.51.255.735.478.223.224.362.437.478.736.087.225.191.563.22 1.187.027.607.035.831.036 2.115v.937c-.001 1.284-.01 1.509-.039 2.115-.032.623-.136.962-.224 1.187-.12.299-.255.511-.478.736-.223.224-.44.362-.735.478-.224.087-.567.191-1.19.22-.543.024-.78.033-1.727.036h-1.534c-1.106-.002-1.337-.012-1.913-.039-.624-.032-.967-.136-1.19-.224-.304-.12-.512-.255-.735-.479-.224-.223-.367-.439-.479-.735-.088-.224-.191-.567-.224-1.19-.021-.605-.03-.834-.031-2.114v-.935c.001-1.281.01-1.51.031-2.122.033-.624.136-.967.224-1.19.112-.304.255-.512.48-.736.222-.224.43-.367.733-.479.224-.088.56-.192 1.183-.224.577-.02.808-.03 1.913-.031h.429l.245-.001zM12 8.919c-1.702 0-3.081 1.38-3.081 3.081 0 1.703 1.38 3.081 3.081 3.081 1.703 0 3.081-1.38 3.081-3.081 0-1.703-1.38-3.081-3.081-3.081zm0 .831c1.243 0 2.25 1.007 2.25 2.25s-1.007 2.25-2.25 2.25S9.75 13.243 9.75 12 10.757 9.75 12 9.75zm3.204-1.672c-.398 0-.721.322-.721.72 0 .396.323.72.72.72.397 0 .72-.323.72-.72 0-.398-.323-.72-.72-.72z"/>
    </defs>
    <g fill="none" fill-rule="evenodd">
        <g>
            <g>
                <g transform="translate(-1507 -898) translate(1180 586) translate(327 312)">
                    <mask id="732rroihmb" fill="#fff">
                        <use xlink:href="#gpqdgq7w1a"/>
                    </mask>
                    <use fill="#5B606B" xlink:href="#gpqdgq7w1a"/>
                </g>
            </g>
        </g>
    </g>
</svg>
