<svg xmlns="http://www.w3.org/2000/svg" xmlns:xlink="http://www.w3.org/1999/xlink" width="48" height="48">
  <defs>
    <path id="fd36jh93xa" d="M24 3c11.598 0 21 9.402 21 21s-9.402 21-21 21S3 35.598 3 24 12.402 3 24 3zM12.336 19.363H10v5.826c0 .975.199 1.833.597 2.573.398.74.958 1.311 1.68 1.713.724.402 1.56.603 2.51.603.95 0 1.786-.2 2.509-.603a4.176 4.176 0 001.68-1.713c.399-.74.598-1.598.598-2.573v-5.826h-2.336v5.826c0 .838-.22 1.512-.66 2.021-.442.51-1.038.764-1.791.764-.753 0-1.35-.255-1.79-.764-.441-.509-.661-1.183-.661-2.021v-5.826zm13.167 0h-4.21v10.459h2.336v-3.299h1.86l2.028 3.299h2.708l-2.425-3.76c.616-.291 1.089-.704 1.418-1.239.33-.535.494-1.161.494-1.88 0-.719-.167-1.347-.5-1.887-.334-.539-.818-.956-1.45-1.25-.634-.296-1.387-.444-2.26-.444zm8.136 0h-2.336v10.459h7.56v-2.066h-5.224v-8.393zM25.4 21.428c.625 0 1.11.13 1.457.391.346.261.52.635.52 1.123s-.174.862-.52 1.123c-.347.26-.832.391-1.457.391h-1.771V21.43z"/>
  </defs>
    <use fill="#5B606B" xlink:href="#fd36jh93xa"/>
</svg>