<svg width="24" height="23" viewBox="0 0 24 23" fill="none" xmlns="http://www.w3.org/2000/svg">
<path fill-rule="evenodd" clip-rule="evenodd" d="M12.4994 4.705L12.5 15.5012C12.5 15.7774 12.2761 16.0012 12 16.0012C11.7239 16.0012 11.5 15.7774 11.5 15.5012L11.4994 4.705L8.11091 8.09619L8.04166 8.15405C7.8468 8.28905 7.57737 8.26976 7.40381 8.09619C7.20854 7.90093 7.20854 7.58435 7.40381 7.38909L11.6779 3.11759L11.733 3.07719L11.8279 3.03041L11.8946 3.01113C11.9286 3.00384 11.9638 3 12 3L12.0742 3.00547L12.1277 3.01651L12.1943 3.03917L12.2707 3.07951C12.3001 3.09844 12.3279 3.12075 12.3536 3.14645L16.5962 7.38909L16.654 7.45833C16.789 7.6532 16.7698 7.92263 16.5962 8.09619L16.5269 8.15405C16.3321 8.28905 16.0627 8.26976 15.8891 8.09619L12.4994 4.705ZM8.51725 11.5C8.51725 11.2239 8.29339 11 8.01725 11H5.5L5.35554 11.0069C4.59489 11.0796 4 11.7203 4 12.5V18.5L4.00687 18.6445C4.07955 19.4051 4.7203 20 5.5 20H18.5L18.6445 19.9931C19.4051 19.9204 20 19.2797 20 18.5V12.5L19.9931 12.3555C19.9204 11.5949 19.2797 11 18.5 11H15.0367L14.9468 11.0081C14.7136 11.0504 14.5367 11.2545 14.5367 11.5C14.5367 11.7761 14.7606 12 15.0367 12H18.5L18.5899 12.0081C18.8231 12.0504 19 12.2545 19 12.5V18.5L18.9919 18.5899C18.9496 18.8231 18.7455 19 18.5 19H5.5L5.41012 18.9919C5.17688 18.9496 5 18.7455 5 18.5V12.5L5.00806 12.4101C5.05039 12.1769 5.25454 12 5.5 12H8.01725L8.10712 11.9919C8.34037 11.9496 8.51725 11.7455 8.51725 11.5Z" fill="#595959"/>
</svg>
