<svg xmlns="http://www.w3.org/2000/svg" xmlns:xlink="http://www.w3.org/1999/xlink" width="48" height="48">
  <defs>
    <path id="126vegyf6a" d="M24 3c11.598 0 21 9.402 21 21s-9.402 21-21 21S3 35.598 3 24 12.402 3 24 3zm0 9.625c-7.732 0-14 4.942-14 11.038 0 3.942 2.62 7.4 6.562 9.353-.214.74-1.378 4.758-1.424 5.074 0 0-.028.237.126.327.153.09.334.02.334.02.227-.031 1.575-.917 2.94-1.846l.48-.328a228.547 228.547 0 002.495-1.735 17.63 17.63 0 002.487.174c7.732 0 14-4.942 14-11.039 0-6.096-6.268-11.038-14-11.038zm-5.673 7.74c.438 0 .793.355.793.791a.793.793 0 01-.793.791h-1.26v4.798c0 .426-.362.772-.807.772-.446 0-.808-.346-.808-.772v-4.798h-1.26a.792.792 0 01-.793-.79c0-.437.356-.792.793-.792h4.135zm2.71 0c.528.012.942.411 1.078.799l1.931 5.082c.246.764.032 1.047-.19 1.149a1.25 1.25 0 01-.514.111c-.337 0-.595-.136-.672-.356l-.4-1.047h-2.463l-.4 1.047c-.078.22-.335.356-.672.356-.177 0-.352-.038-.513-.111-.223-.103-.437-.385-.192-1.147l1.932-5.085c.136-.387.55-.785 1.076-.797zm8.796 0c.446 0 .808.363.808.808v1.736l2.253-2.253a.629.629 0 01.448-.18c.202 0 .405.087.556.238a.8.8 0 01.238.513.632.632 0 01-.178.491l-1.841 1.84 1.988 2.634a.815.815 0 01.138.284.816.816 0 01-.296.848.803.803 0 01-1.131-.159l-1.894-2.51-.28.281v1.762c0 .215-.086.42-.238.571a.808.808 0 01-1.378-.57v-5.526c0-.445.362-.808.807-.808zm-4.436 0c.454 0 .824.363.824.808v4.745h1.716c.427 0 .774.332.774.74 0 .409-.347.741-.774.741h-2.59c-.428 0-.775-.332-.775-.74v-5.486c0-.445.37-.808.825-.808zm-4.359 2.015l-.806 2.292h1.613l-.807-2.292z"/>
  </defs>
    <use fill="#FAC42D" xlink:href="#126vegyf6a"/>
</svg>