<svg xmlns="http://www.w3.org/2000/svg" xmlns:xlink="http://www.w3.org/1999/xlink" width="20" height="20"
     viewBox="0 0 20 20">
    <defs>
        <path id="refgjmceva"
              d="M10 2c4.418 0 8 3.582 8 8s-3.582 8-8 8-8-3.582-8-8 3.582-8 8-8zm0 1c-3.866 0-7 3.134-7 7s3.134 7 7 7 7-3.134 7-7-3.134-7-7-7zm3.767 4.08c.21.132.287.39.194.608l-.042.079-3.633 5.505c-.154.234-.468.294-.699.152l-.073-.056-3.35-3.019c-.207-.186-.22-.5-.03-.702.17-.18.443-.21.646-.084l.073.055 2.905 2.618 3.306-5.008c.153-.231.467-.297.703-.148z"/>
    </defs>
    <g fill="none" fill-rule="evenodd">
        <g transform="translate(-998 -2495) translate(448 2084) translate(550 411)">
            <mask id="8fuzkl8pxb" fill="#fff">
                <use xlink:href="#refgjmceva"/>
            </mask>
            <use fill="#2581FF" fill-rule="nonzero" xlink:href="#refgjmceva"/>
        </g>
    </g>
</svg>
