<svg xmlns="http://www.w3.org/2000/svg" xmlns:xlink="http://www.w3.org/1999/xlink" width="24" height="24" viewBox="0 0 24 24">
    <defs>
        <path id="cl41uxy5wa" d="M12 2c1.016 0 1.951.465 2.565 1.274.418.552 1.104.837 1.791.742 1.006-.138 1.996.194 2.715.913.719.718 1.051 1.708.913 2.714-.095.687.19 1.373.742 1.792C21.536 10.049 22 10.984 22 12s-.464 1.951-1.274 2.565c-.552.419-.837 1.105-.742 1.791.138 1.007-.194 1.996-.913 2.715-.719.718-1.708 1.05-2.715.913-.686-.095-1.373.19-1.791.742C13.95 21.536 13.015 22 12 22c-1.016 0-1.951-.465-2.565-1.274-.418-.552-1.104-.838-1.791-.742-1.008.137-1.997-.194-2.715-.913-.719-.719-1.051-1.708-.913-2.715.095-.686-.19-1.372-.742-1.791C2.464 13.95 2 13.016 2 12s.464-1.95 1.274-2.565c.552-.419.837-1.105.742-1.792-.138-1.006.194-1.996.913-2.714.718-.718 1.708-1.051 2.715-.913.687.096 1.373-.19 1.791-.742C10.05 2.464 10.985 2 12 2zm2.846 7.713h-1.69l-.772 3.222c-.22.893-.163 1.597.17 2.111.333.515.945.772 1.838.772.303 0 .573-.013.812-.04.238-.027.453-.06.646-.102.193-.042.367-.087.522-.136.155-.05.297-.093.426-.13l1.373-5.697H16.48l-1.101 4.619c-.227.045-.45.067-.67.067-.226 0-.394-.043-.504-.13-.11-.087-.18-.2-.21-.34s-.032-.303-.006-.488c.027-.186.063-.377.108-.573l.749-3.155zM9.651 8.5c-.303 0-.573.013-.812.04-.238.026-.454.06-.647.102-.192.042-.367.087-.522.136-.155.05-.296.093-.425.13l-1.373 5.697h1.69l1.101-4.619c.227-.045.45-.068.67-.068.227 0 .395.044.505.13.11.088.18.202.21.341.03.14.032.303.005.488-.026.186-.062.377-.108.573l-.749 3.155h1.691l.772-3.223c.22-.892.163-1.596-.17-2.11-.333-.515-.946-.772-1.838-.772z"/>
    </defs>
    <g fill="none" fill-rule="evenodd">
        <g>
            <g>
                <g transform="translate(-428 -338) translate(184 276) translate(244 62)">
                    <mask id="4m2nyolc4b" fill="#fff">
                        <use xlink:href="#cl41uxy5wa"/>
                    </mask>
                    <use fill="#2581FF" xlink:href="#cl41uxy5wa"/>
                    <g fill="#2581FF" mask="url(#4m2nyolc4b)">
                        <path d="M0 0H24V24H0z"/>
                        <path d="M0 0H24V24H0z"/>
                    </g>
                </g>
            </g>
        </g>
    </g>
</svg>
