<svg xmlns="http://www.w3.org/2000/svg" xmlns:xlink="http://www.w3.org/1999/xlink" width="24" height="24" viewBox="0 0 24 24">
    <defs>
        <path id="9cpd0up9ga" d="M14.154 4.155c.194-.207.507-.207.7 0 .173.183.192.468.058.674l-.057.073L8.196 12l6.659 7.098c.172.183.191.468.057.674l-.057.073c-.172.184-.44.204-.632.061l-.069-.06-7.009-7.472c-.172-.184-.191-.469-.057-.674l.057-.074 7.009-7.471z"/>
    </defs>
    <g fill="none" fill-rule="evenodd">
        <g>
            <g>
                <g>
                    <g transform="translate(-1178 -2172) translate(340 273) translate(378 1895) rotate(-180 242 14)">
                        <mask id="ppm7vo3x2b" fill="#fff">
                            <use xlink:href="#9cpd0up9ga"/>
                        </mask>
                        <use fill="#464646" fill-rule="nonzero" xlink:href="#9cpd0up9ga"/>
                        <g mask="url(#ppm7vo3x2b)">
                            <path fill="#656565" d="M0 0H24V24H0z"/>
                            <path fill="#464646" d="M0 0H24V24H0z"/>
                        </g>
                    </g>
                </g>
            </g>
        </g>
    </g>
</svg>
