<svg xmlns="http://www.w3.org/2000/svg" xmlns:xlink="http://www.w3.org/1999/xlink" width="34" height="34" viewBox="0 0 34 34">
    <defs>
        <path id="1iph26rx6a" d="M20.485 3.515c.196.195.196.512 0 .707L12.707 12l7.778 7.778c.196.195.196.512 0 .707-.195.196-.512.196-.707 0L12 12.707l-7.778 7.778c-.195.196-.512.196-.707 0-.196-.195-.196-.512 0-.707L11.293 12 3.515 4.222c-.196-.195-.196-.512 0-.707.195-.196.512-.196.707 0L12 11.293l7.778-7.778c.195-.196.512-.196.707 0z"/>
    </defs>
    <g fill="none" fill-rule="evenodd">
        <g>
            <g transform="translate(-1203 -2210) rotate(45 -2057.742 2577.685)">
                <mask id="3ug5ws2prb" fill="#fff">
                    <use xlink:href="#1iph26rx6a"/>
                </mask>
                <use fill="#656565" xlink:href="#1iph26rx6a"/>
                <g mask="url(#3ug5ws2prb)">
                    <path fill="#656565" d="M0 0H24V24H0z"/>
                    <path fill="#D1D1D1" d="M0 0H24V24H0z"/>
                </g>
            </g>
        </g>
    </g>
</svg>
