<svg xmlns="http://www.w3.org/2000/svg" xmlns:xlink="http://www.w3.org/1999/xlink" width="20" height="20" viewBox="0 0 20 20">
    <defs>
        <path id="5ivhai66oa" d="M16.12 3.881c1.17 1.172 1.17 3.071 0 4.243L8.34 15.902l-3.854.792c-.541.112-1.07-.237-1.181-.778-.028-.133-.028-.27 0-.403l.792-3.854 7.779-7.778c1.171-1.171 3.07-1.171 4.242 0zM5.895 11.277l-.878.878-.364 1.763c.426-.156.944-.047 1.31.319.295.295.423.69.379 1.055l1.504-.309.876-.876c.023-.66-.256-1.398-.844-1.986-.587-.587-1.323-.867-1.983-.844zM11.55 5.62l-4.758 4.76c.64.161 1.268.508 1.794 1.034s.873 1.155 1.034 1.796l4.76-4.758c.024-.661-.256-1.399-.844-1.988-.588-.587-1.325-.867-1.986-.844zm1.143-1.133l-.11.101-.137.135c.642.16 1.27.508 1.797 1.034.526.527.873 1.156 1.034 1.797l.135-.137c.746-.746.78-1.933.102-2.72l-.102-.109c-.745-.745-1.933-.779-2.719-.101z"/>
    </defs>
    <g fill="none" fill-rule="evenodd">
        <g>
            <g>
                <g>
                    <g transform="translate(-272 -1325) translate(0 561) translate(20 756) translate(252 8)">
                        <mask id="tb9ftkj2ob" fill="#fff">
                            <use xlink:href="#5ivhai66oa"/>
                        </mask>
                        <use fill="#464646" fill-rule="nonzero" xlink:href="#5ivhai66oa"/>
                    </g>
                </g>
            </g>
        </g>
    </g>
</svg>
