<svg xmlns="http://www.w3.org/2000/svg" width="28" height="28" viewBox="0 0 28 28">
    <g fill="none" fill-rule="evenodd">
        <circle cx="14" cy="14" r="14" fill="#F5F5F5"/>
        <path fill="#D1D1D1" fill-rule="nonzero" d="M12.043 13.609c-.93-.65-1.543-1.749-1.543-2.996C10.5 8.618 12.067 7 14 7s3.5 1.618 3.5 3.613c0 1.247-.612 2.346-1.543 2.996 2.914.874 5.043 3.65 5.043 6.94 0 .249-.196.451-.438.451-.241 0-.437-.202-.437-.452 0-3.491-2.742-6.322-6.125-6.322s-6.125 2.83-6.125 6.322c0 .25-.196.452-.438.452-.241 0-.437-.202-.437-.452 0-3.29 2.13-6.065 5.043-6.94zM14 13.323c1.45 0 2.625-1.214 2.625-2.71 0-1.497-1.175-2.71-2.625-2.71s-2.625 1.213-2.625 2.71c0 1.496 1.175 2.71 2.625 2.71z"/>
    </g>
</svg>
