<svg xmlns="http://www.w3.org/2000/svg" width="24" height="20" viewBox="0 0 24 20">
    <g fill="#767676" fill-rule="evenodd" transform="translate(-6 -8)">
        <path fill-rule="nonzero" d="M18 24c5.397 0 11-3.73 11-6s-5.603-6-11-6-11 3.73-11 6 5.603 6 11 6zm0 1c-6.627 0-12-4.567-12-7s5.373-7 12-7 12 4.567 12 7-5.373 7-12 7z"/>
        <path fill-rule="nonzero" d="M18 24a6 6 0 1 0 0-12 6 6 0 0 0 0 12zm0 1a7 7 0 1 1 0-14 7 7 0 0 1 0 14z"/>
        <path fill-rule="nonzero" d="M18 21a3 3 0 1 0 0-6 3 3 0 0 0 0 6zm0 1a4 4 0 1 1 0-8 4 4 0 0 1 0 8z"/>
        <rect width="1" height="26" x="17.5" y="5" rx=".5" transform="rotate(45 18 18)"/>
    </g>
</svg>
