<svg xmlns="http://www.w3.org/2000/svg" xmlns:xlink="http://www.w3.org/1999/xlink" width="24" height="24" viewBox="0 0 24 24">
    <defs>
        <path id="9c57i8aj0a" d="M7.096 7.404c.174.173.193.443.058.638l-.058.069-3.391 3.388L21.5 11.5c.276 0 .5.224.5.5s-.224.5-.5.5H3.705l3.391 3.39c.174.173.193.442.058.637l-.058.07c-.173.173-.443.192-.638.057l-.069-.058-4.243-4.242-.014-.015-.03-.037.044.052c-.025-.026-.048-.054-.066-.083-.01-.015-.018-.03-.026-.045l-.015-.032-.016-.044-.012-.045-.006-.03c-.003-.022-.004-.043-.005-.064v-.023c0-.02.002-.041.005-.062L2 12c0-.036.004-.071.011-.105l.013-.047.014-.039c.005-.013.012-.027.019-.04.006-.013.013-.025.02-.036l.012-.017.013-.018c.01-.014.02-.027.033-.04l.011-.012L6.39 7.404c.195-.195.512-.195.707 0z"/>
    </defs>
    <g fill="none" fill-rule="evenodd">
        <g>
            <mask id="f2qfcbakeb" fill="#fff">
                <use xlink:href="#9c57i8aj0a"/>
            </mask>
            <use fill="#656565" fill-rule="nonzero" xlink:href="#9c57i8aj0a"/>
            <g fill="#464646" mask="url(#f2qfcbakeb)">
                <g>
                    <path d="M1 0H50V49H1z" transform="translate(-1)"/>
                    <path d="M0 0H49V49H0z" transform="translate(-1)"/>
                </g>
            </g>
        </g>
    </g>
</svg>
