<?xml version="1.0" encoding="UTF-8"?>
<svg width="16px" height="16px" viewBox="0 0 16 16" version="1.1" xmlns="http://www.w3.org/2000/svg" xmlns:xlink="http://www.w3.org/1999/xlink">
    <!-- Generator: Sketch 53 (72520) - https://sketchapp.com -->
    <title>Combined Shape</title>
    <desc>Created with Sketch.</desc>
    <g id="v1.0" stroke="none" stroke-width="1" fill="none" fill-rule="evenodd">
        <g id="v1.1/startup/mypage/Company/companyInfo_100" transform="translate(-1030.000000, -1477.000000)" fill="#D1D1D1" fill-rule="nonzero">
            <g id="팀-정보" transform="translate(800.000000, 1287.000000)">
                <g id="Group" transform="translate(216.000000, 175.000000)">
                    <path d="M19.7634949,22.3168175 C18.6995257,21.5979827 18,20.3806829 18,19 C18,16.790861 19.790861,15 22,15 C24.209139,15 26,16.790861 26,19 C26,20.3806829 25.3004743,21.5979827 24.2365051,22.3168175 C27.5663232,23.284439 30,26.3580117 30,30 C30,30.2761424 29.7761424,30.5 29.5,30.5 C29.2238576,30.5 29,30.2761424 29,30 C29,26.1340068 25.8659932,23 22,23 C18.1340068,23 15,26.1340068 15,30 C15,30.2761424 14.7761424,30.5 14.5,30.5 C14.2238576,30.5 14,30.2761424 14,30 C14,26.3580117 16.4336768,23.284439 19.7634949,22.3168175 Z M22,22 C23.6568542,22 25,20.6568542 25,19 C25,17.3431458 23.6568542,16 22,16 C20.3431458,16 19,17.3431458 19,19 C19,20.6568542 20.3431458,22 22,22 Z" id="Combined-Shape"></path>
                </g>
            </g>
        </g>
    </g>
</svg>
