<svg xmlns="http://www.w3.org/2000/svg" width="20" height="20" viewBox="0 0 20 20">
    <g fill="none" fill-rule="evenodd">
        <circle cx="10" cy="10" r="10" fill="#D1D1D1"/>
        <g fill="#FEFEFE" fill-rule="nonzero" stroke="#FEFEFE" stroke-width=".2">
            <path d="M7 7.429c3.148 0 6.417-2.132 6.417-3.429C13.417 2.703 10.148.571 7 .571 3.852.571.583 2.703.583 4 .583 5.297 3.852 7.429 7 7.429zM7 8C3.134 8 0 5.39 0 4c0-1.39 3.134-4 7-4s7 2.61 7 4c0 1.39-3.134 4-7 4z" transform="translate(3 6)"/>
            <path d="M7 7.429c1.933 0 3.5-1.535 3.5-3.429S8.933.571 7 .571 3.5 2.106 3.5 4 5.067 7.429 7 7.429zM7 8C4.745 8 2.917 6.21 2.917 4S4.745 0 7 0s4.083 1.79 4.083 4S9.255 8 7 8z" transform="translate(3 6)"/>
            <path d="M7 5.714c.966 0 1.75-.767 1.75-1.714S7.966 2.286 7 2.286 5.25 3.053 5.25 4 6.034 5.714 7 5.714zm0 .572C5.711 6.286 4.667 5.262 4.667 4S5.71 1.714 7 1.714c1.289 0 2.333 1.024 2.333 2.286S8.29 6.286 7 6.286z" transform="translate(3 6)"/>
        </g>
    </g>
</svg>
