<svg xmlns="http://www.w3.org/2000/svg" xmlns:xlink="http://www.w3.org/1999/xlink" width="24" height="24" viewBox="0 0 24 24">
    <defs>
        <path id="oq9uupr13a" d="M21.5 19c.276 0 .5.224.5.5s-.224.5-.5.5h-19c-.276 0-.5-.224-.5-.5s.224-.5.5-.5h19zm0-7.5c.276 0 .5.224.5.5s-.224.5-.5.5h-19c-.276 0-.5-.224-.5-.5s.224-.5.5-.5h19zm0-7.5c.276 0 .5.224.5.5s-.224.5-.5.5h-19c-.276 0-.5-.224-.5-.5s.224-.5.5-.5h19z"/>
    </defs>
    <g fill="none" fill-rule="evenodd">
        <g>
            <mask id="7ip8c2509b" fill="#fff">
                <use xlink:href="#oq9uupr13a"/>
            </mask>
            <use fill="#555" xlink:href="#oq9uupr13a"/>
            <g mask="url(#7ip8c2509b)">
                <path fill="#656565" d="M0 0H24V24H0z"/>
                <path fill="#464646" d="M0 0H24V24H0z"/>
            </g>
        </g>
    </g>
</svg>
