<svg xmlns="http://www.w3.org/2000/svg" width="16" height="16" viewBox="0 0 16 16">
    <g fill="none" fill-rule="evenodd">
        <g fill="#2581FF">
            <g>
                <g>
                    <path d="M8 10c4.418 0 8 3.582 8 8s-3.582 8-8 8-8-3.582-8-8 3.582-8 8-8zm-2.808 5.051h-.675c-.078 0-.123.01-.135.031-.008.014-.01.033-.008.056l.008.039.504 2.214h-.882c-.03 0-.057.01-.081.032-.016.014-.027.03-.032.048l-.004.028v.621c0 .03.012.055.036.076l.038.024.043.008h1.062l.72 3.204c.012.042.024.068.036.077.008.006.025.01.052.011l.047.002h.711c.066 0 .104-.005.113-.013.005-.006.012-.02.02-.04l.011-.037.729-3.204h.666l.729 3.204c.012.042.022.068.031.077.007.006.025.01.057.011l.056.002h.711c.054 0 .087-.005.099-.013.008-.006.016-.02.024-.04l.012-.037.72-3.204h1.053c.03 0 .057-.01.081-.032.016-.014.027-.03.032-.048l.004-.028v-.621c0-.054-.022-.088-.066-.101l-.051-.007h-.873l.504-2.214c.012-.042.012-.073 0-.095-.009-.015-.037-.025-.083-.029l-.052-.002h-.675c-.042 0-.072.005-.09.014-.012.005-.023.019-.032.04l-.013.036-.495 2.25h-.999l-.513-2.25c-.012-.042-.026-.068-.04-.076-.01-.006-.027-.01-.048-.012l-.038-.002H7.46c-.042 0-.07.005-.085.014-.01.005-.02.019-.029.04l-.012.036-.513 2.25h-.999l-.495-2.25c-.012-.042-.027-.068-.045-.076-.012-.006-.03-.01-.052-.012l-.038-.002zm4.482 3.177l-.306 1.395-.315-1.395h.621zm-3.051 0l-.315 1.395-.306-1.395h.621z" transform="translate(-472 -666) translate(448 453) translate(24 203)"/>
                </g>
            </g>
        </g>
    </g>
</svg>
