<svg xmlns="http://www.w3.org/2000/svg" xmlns:xlink="http://www.w3.org/1999/xlink" width="42" height="42" viewBox="0 0 42 42">
    <defs>
        <filter id="ehx4wcldla" width="200%" height="200%" x="-50%" y="-50%" filterUnits="objectBoundingBox">
            <feOffset dy="2" in="SourceAlpha" result="shadowOffsetOuter1"/>
            <feGaussianBlur in="shadowOffsetOuter1" result="shadowBlurOuter1" stdDeviation="2"/>
            <feColorMatrix in="shadowBlurOuter1" result="shadowMatrixOuter1" values="0 0 0 0 0 0 0 0 0 0 0 0 0 0 0 0 0 0 0.2 0"/>
            <feMerge>
                <feMergeNode in="shadowMatrixOuter1"/>
                <feMergeNode in="SourceGraphic"/>
            </feMerge>
        </filter>
        <path id="zu5wegozlb" d="M8 0c.297 0 .538.24.538.538v6.924h6.924c.297 0 .538.241.538.538 0 .297-.24.538-.538.538H8.538v6.924c0 .297-.241.538-.538.538-.297 0-.538-.24-.538-.538V8.537H.538C.24 8.538 0 8.298 0 8c0-.297.24-.538.538-.538h6.924V.537C7.462.24 7.703 0 8 0z"/>
    </defs>
    <g fill="none" fill-rule="evenodd">
        <g>
            <g>
                <g filter="url(#ehx4wcldla)" transform="translate(-677 -1122) translate(472 1013) translate(214 118)">
                    <circle cx="12" cy="12" r="12" fill="#FEFEFE"/>
                    <g transform="rotate(45 5.172 14.828)">
                        <mask id="n9j4w2tkkc" fill="#fff">
                            <use xlink:href="#zu5wegozlb"/>
                        </mask>
                        <use fill="#464646" xlink:href="#zu5wegozlb"/>
                        <g mask="url(#n9j4w2tkkc)">
                            <g>
                                <path fill="#464646" d="M0 0H20V20H0z" transform="translate(-2 -2)"/>
                                <path fill="#3A3A3A" d="M0 0H20V20H0z" transform="translate(-2 -2)"/>
                            </g>
                        </g>
                    </g>
                </g>
            </g>
        </g>
    </g>
</svg>
