<svg xmlns="http://www.w3.org/2000/svg" xmlns:xlink="http://www.w3.org/1999/xlink" width="95" height="95" viewBox="0 0 95 95">
    <defs>
        <path id="eipnx2l6ja" d="M61.871 36.065l-3.744 15.773c-.228.982-.407 1.937-.54 2.865-.133.925-.123 1.74.029 2.44.152.698.5 1.266 1.05 1.701.548.435 1.39.653 2.523.653 1.099 0 2.214-.114 3.347-.34l5.504-23.092h8.454l-6.864 28.48c-.644.19-1.353.408-2.128.655-.775.245-1.646.47-2.61.68-.965.208-2.043.377-3.233.51-1.193.133-2.544.198-4.058.198-4.463 0-7.527-1.284-9.192-3.858-1.664-2.571-1.947-6.09-.85-10.553l3.858-16.112h8.454zM35.894 30c4.462 0 7.526 1.285 9.192 3.858 1.664 2.572 1.947 6.09.85 10.553l-3.858 16.113h-8.455l3.745-15.774c.227-.981.407-1.937.54-2.865.132-.925.122-1.739-.03-2.44-.151-.697-.5-1.266-1.049-1.701-.548-.435-1.39-.652-2.523-.652-1.1 0-2.215.114-3.348.339l-5.504 23.093H17l6.864-28.481c.645-.19 1.353-.407 2.129-.655.774-.245 1.646-.47 2.61-.68.965-.207 2.042-.377 3.233-.51 1.193-.132 2.543-.198 4.058-.198z"/>
    </defs>
    <g fill="none" fill-rule="evenodd">
        <g>
            <g transform="translate(-320 -122) translate(320 122)">
                <path fill="#E8ECF2" d="M0 0H95V95H0z"/>
                <use fill="#FEFEFE" xlink:href="#eipnx2l6ja"/>
            </g>
        </g>
    </g>
</svg>
