<svg xmlns="http://www.w3.org/2000/svg" width="18" height="18" viewBox="0 0 18 18">
    <g fill="none" fill-rule="evenodd">
        <g>
            <g>
                <g transform="translate(-1074 -659) translate(788 597) translate(286 62)">
                    <circle cx="9" cy="9" r="9" fill="#124397"/>
                    <path fill="#F4F9FF" d="M9.5 8.5h4c.276 0 .5.224.5.5s-.224.5-.5.5h-4v4c0 .276-.224.5-.5.5s-.5-.224-.5-.5v-4h-4c-.276 0-.5-.224-.5-.5s.224-.5.5-.5h4v-4c0-.276.224-.5.5-.5s.5.224.5.5v4z" transform="rotate(-45 9 9)"/>
                </g>
            </g>
        </g>
    </g>
</svg>
