<svg xmlns="http://www.w3.org/2000/svg" xmlns:xlink="http://www.w3.org/1999/xlink" width="18" height="18" viewBox="0 0 18 18">
    <defs>
        <path id="iuk7db0a0a" d="M9 1.8c3.976 0 7.2 3.224 7.2 7.2s-3.224 7.2-7.2 7.2S1.8 12.976 1.8 9 5.024 1.8 9 1.8zm0 .9C5.52 2.7 2.7 5.52 2.7 9s2.82 6.3 6.3 6.3 6.3-2.82 6.3-6.3S12.48 2.7 9 2.7zm3.39 3.672c.19.119.258.35.175.547l-.038.071-3.27 4.955c-.138.21-.42.265-.628.136l-.066-.05-3.015-2.717c-.186-.167-.198-.45-.027-.632.152-.162.398-.189.581-.075l.066.05 2.614 2.356 2.976-4.508c.137-.208.42-.267.632-.133z"/>
    </defs>
    <g fill="none" fill-rule="evenodd">
        <g>
            <g>
                <g>
                    <g transform="translate(-72 -541) translate(52 525) translate(20 14) translate(0 2)">
                        <mask id="l5dxgwqz4b" fill="#fff">
                            <use xlink:href="#iuk7db0a0a"/>
                        </mask>
                        <use fill="#656565" fill-rule="nonzero" xlink:href="#iuk7db0a0a"/>
                        <g fill="#FEFEFE" mask="url(#l5dxgwqz4b)">
                            <path d="M0 0H18V18H0z"/>
                            <path d="M0 0H18V18H0z"/>
                        </g>
                    </g>
                </g>
            </g>
        </g>
    </g>
</svg>
