<svg xmlns="http://www.w3.org/2000/svg" xmlns:xlink="http://www.w3.org/1999/xlink" width="24" height="24" viewBox="0 0 24 24">
    <defs>
        <path id="eygfirhwaa" d="M21.192 2.808c.425.424.425 1.113 0 1.537L13.538 12l7.654 7.655c.425.424.425 1.113 0 1.537-.424.425-1.113.425-1.537 0L12 13.538l-7.655 7.654c-.424.425-1.113.425-1.537 0-.425-.424-.425-1.113 0-1.537L10.462 12 2.808 4.345c-.425-.424-.425-1.113 0-1.537.424-.425 1.113-.425 1.537 0L12 10.462l7.655-7.654c.424-.425 1.113-.425 1.537 0z"/>
    </defs>
    <g fill="none" fill-rule="evenodd">
        <g>
            <g transform="translate(-920 -506) translate(920 506)">
                <mask id="9wlupvfjfb" fill="#fff">
                    <use xlink:href="#eygfirhwaa"/>
                </mask>
                <use fill="#676465" fill-rule="nonzero" xlink:href="#eygfirhwaa"/>
                <g mask="url(#9wlupvfjfb)">
                    <path fill="#656565" d="M0 0H24V24H0z"/>
                    <path fill="#FEFEFE" d="M0 0H24V24H0z"/>
                </g>
            </g>
        </g>
    </g>
</svg>
