<svg xmlns="http://www.w3.org/2000/svg" width="20" height="20" viewBox="0 0 20 20">
    <g fill="none" fill-rule="evenodd">
        <circle cx="10" cy="10" r="10" fill="#D1D1D1"/>
        <path fill="#FEFEFE" fill-rule="nonzero" d="M14.94 9.63l.02-.016.011-.007c.019-.012.039-.022.06-.031.122-.055.256-.048.369.007.103.051.189.142.23.26l1.334 3.206c.097.234-.008.506-.236.606-.227.1-.49-.008-.588-.242l-.719-1.726C14.713 14.18 12.477 16 9.828 16 6.609 16 4 13.314 4 10s2.61-6 5.828-6c.247 0 .448.207.448.462 0 .254-.2.461-.448.461-2.724 0-4.931 2.273-4.931 5.077s2.207 5.077 4.93 5.077c2.406 0 4.409-1.773 4.844-4.119l-1.956 1.431c-.202.148-.481.099-.625-.109-.143-.208-.096-.496.106-.643l2.743-2.008z"/>
    </g>
</svg>
