<svg xmlns="http://www.w3.org/2000/svg" xmlns:xlink="http://www.w3.org/1999/xlink" width="20" height="20" viewBox="0 0 20 20">
    <defs>
        <path id="r7acgbumfa" d="M3.157 3.157c.21-.21.55-.21.76 0L10 9.24l6.082-6.083c.21-.21.55-.21.76 0 .21.21.21.55 0 .76L10.76 10l6.083 6.082c.21.21.21.55 0 .76-.21.21-.55.21-.76 0L9.998 10.76l-6.081 6.083c-.21.21-.55.21-.76 0-.21-.21-.21-.55 0-.76l6.081-6.084-6.082-6.081c-.21-.21-.21-.55 0-.76z"/>
    </defs>
    <g fill="none" fill-rule="evenodd">
        <g>
            <mask id="0i9iu9596b" fill="#fff">
                <use xlink:href="#r7acgbumfa"/>
            </mask>
            <use fill="#FEFEFE" xlink:href="#r7acgbumfa"/>
        </g>
    </g>
</svg>
