<svg xmlns="http://www.w3.org/2000/svg" xmlns:xlink="http://www.w3.org/1999/xlink" width="40" height="40" viewBox="0 0 40 40">
    <defs>
        <path id="n8xsptqc8a" d="M17 4c7.18 0 13 5.82 13 13 0 3.41-1.313 6.513-3.46 8.832l8.97 8.971c.196.196.196.512 0 .707-.195.196-.511.196-.707 0l-8.971-8.97C23.513 28.686 20.41 30 17 30 9.82 30 4 24.18 4 17S9.82 4 17 4zm0 1C10.373 5 5 10.373 5 17s5.373 12 12 12 12-5.373 12-12S23.627 5 17 5z"/>
    </defs>
    <g fill="none" fill-rule="evenodd">
        <g>
            <g transform="translate(-1540 -118) translate(1540 118)">
                <mask id="dp5ed9v4qb" fill="#fff">
                    <use xlink:href="#n8xsptqc8a"/>
                </mask>
                <use fill="#979797" xlink:href="#n8xsptqc8a"/>
                <g mask="url(#dp5ed9v4qb)">
                    <path fill="#656565" d="M0 0H40V40H0z"/>
                    <path fill="#464646" d="M0 0H40V40H0z"/>
                </g>
            </g>
        </g>
    </g>
</svg>
