<svg xmlns="http://www.w3.org/2000/svg" xmlns:xlink="http://www.w3.org/1999/xlink" width="40" height="40" viewBox="0 0 40 40">
    <defs>
        <path id="ph2jsi1dua" d="M8.846 4.155c-.194-.207-.507-.207-.7 0-.173.183-.192.468-.058.674l.057.073L14.804 12l-6.659 7.098c-.172.183-.191.468-.057.674l.057.073c.172.184.44.204.632.061l.069-.06 7.009-7.472c.172-.184.191-.469.057-.674l-.057-.074-7.009-7.471z"/>
    </defs>
    <g fill="none" fill-rule="evenodd">
        <g>
            <g>
                <g transform="translate(-1560 -150) translate(340 122) translate(1220 28)">
                    <circle cx="20" cy="20" r="19.5" fill="#FEFEFE" stroke="#E8ECF2"/>
                    <g transform="translate(8 8)">
                        <mask id="18c0yldflb" fill="#fff">
                            <use xlink:href="#ph2jsi1dua"/>
                        </mask>
                        <use fill="#464646" fill-rule="nonzero" xlink:href="#ph2jsi1dua"/>
                        <g mask="url(#18c0yldflb)">
                            <path fill="#656565" d="M0 0H24V24H0z"/>
                            <path fill="#3A3A3A" d="M0 0H24V24H0z"/>
                        </g>
                    </g>
                </g>
            </g>
        </g>
    </g>
</svg>
