<svg xmlns="http://www.w3.org/2000/svg" xmlns:xlink="http://www.w3.org/1999/xlink" width="20" height="20" viewBox="0 0 20 20">
    <defs>
        <path id="i4g156jv3a" d="M7.167 16.842c-.198-.187-.22-.477-.066-.687l.066-.074L13.621 10 7.167 3.92c-.198-.188-.22-.478-.066-.688l.066-.074c.199-.187.507-.208.73-.063l.078.063 6.858 6.461c.198.187.22.477.066.687l-.066.075-6.858 6.461c-.223.21-.584.21-.808 0z"/>
    </defs>
    <g fill="none" fill-rule="evenodd">
        <g>
            <g>
                <g>
                    <g transform="translate(-529.000000, -327.000000) translate(167.000000, 145.000000) translate(28.000000, 160.000000) translate(334.000000, 22.000000)">
                        <mask id="rdjrl5smcb" fill="#fff">
                            <use xlink:href="#i4g156jv3a"/>
                        </mask>
                        <use fill="#979797" xlink:href="#i4g156jv3a"/>
                        <g mask="url(#rdjrl5smcb)">
                            <path fill="#656565" d="M0 0H20V20H0z"/>
                            <path fill="#2581FF" d="M0 0H20V20H0z"/>
                        </g>
                    </g>
                </g>
            </g>
        </g>
    </g>
</svg>
