<svg xmlns="http://www.w3.org/2000/svg" width="48" height="47" viewBox="0 0 48 47">
    <g fill="none" fill-rule="evenodd">
        <g>
            <g>
                <g>
                    <path stroke="#000" d="M14.61 13.965c-5.732 5.732-8.958 11.8-7.207 13.55.226.226.522.367.88.431 2.424.451 7.674-2.638 12.672-7.638 4.998-4.995 8.087-10.246 7.636-12.67-.066-.358-.205-.654-.431-.878-1.751-1.753-7.818 1.473-13.55 7.205z" transform="translate(-939 -1870) translate(940 1870) rotate(-4 44.375 .635)"/>
                    <path stroke="#000" stroke-linecap="round" stroke-linejoin="round" d="M20.954 20.308c-4.997 4.998-10.248 8.09-12.672 7.638l29.234 14.349s2.504.973 4.45-.972c1.948-1.95.972-4.45.972-4.45L28.592 7.636c.45 2.426-2.64 7.677-7.638 12.672z" transform="translate(-939 -1870) translate(940 1870) rotate(-4 44.375 .635)"/>
                    <path stroke="#000" stroke-linejoin="round" d="M29.959 38.624s2.462-.157 5.807-3.502c3.345-3.345 3.502-5.807 3.502-5.807" transform="translate(-939 -1870) translate(940 1870) rotate(-4 44.375 .635)"/>
                    <path stroke="#000" stroke-linecap="round" stroke-linejoin="round" d="M20.855 34.118s3.11-.807 8.106-5.803c4.995-4.993 5.8-8.105 5.8-8.105" transform="translate(-939 -1870) translate(940 1870) rotate(-4 44.375 .635)"/>
                    <path stroke="#000" d="M14.61 13.965c-5.732 5.732-8.958 11.8-7.207 13.55.226.226.522.367.88.431 2.424.451 7.674-2.638 12.672-7.638 4.998-4.995 8.087-10.246 7.636-12.67-.066-.358-.205-.654-.431-.878-1.751-1.753-7.818 1.473-13.55 7.205z" transform="translate(-939 -1870) translate(940 1870) rotate(-4 44.375 .635)"/>
                    <path stroke="#000" stroke-linecap="round" stroke-linejoin="round" d="M20.954 20.308c-4.997 4.998-10.248 8.09-12.672 7.638l29.234 14.349s2.504.973 4.45-.972c1.948-1.95.972-4.45.972-4.45L28.592 7.636c.45 2.426-2.64 7.677-7.638 12.672z" transform="translate(-939 -1870) translate(940 1870) rotate(-4 44.375 .635)"/>
                    <path stroke="#000" stroke-linejoin="round" d="M29.959 38.624s2.462-.157 5.807-3.502c3.345-3.345 3.502-5.807 3.502-5.807" transform="translate(-939 -1870) translate(940 1870) rotate(-4 44.375 .635)"/>
                    <path stroke="#000" stroke-linecap="round" stroke-linejoin="round" d="M20.855 34.118s3.11-.807 8.106-5.803c4.995-4.993 5.8-8.105 5.8-8.105" transform="translate(-939 -1870) translate(940 1870) rotate(-4 44.375 .635)"/>
                    <path stroke="#333" d="M14.61 13.965c-5.732 5.732-8.958 11.8-7.207 13.55.226.226.522.367.88.431 2.424.451 7.674-2.638 12.672-7.638 4.998-4.995 8.087-10.246 7.636-12.67-.066-.358-.205-.654-.431-.878-1.751-1.753-7.818 1.473-13.55 7.205z" transform="translate(-939 -1870) translate(940 1870) rotate(-4 44.375 .635)"/>
                    <path stroke="#333" stroke-linecap="round" stroke-linejoin="round" d="M20.954 20.308c-4.997 4.998-10.248 8.09-12.672 7.638l29.234 14.349s2.504.973 4.45-.972c1.948-1.95.972-4.45.972-4.45L28.592 7.636c.45 2.426-2.64 7.677-7.638 12.672z" transform="translate(-939 -1870) translate(940 1870) rotate(-4 44.375 .635)"/>
                    <path stroke="#333" stroke-linejoin="round" d="M29.959 38.624s2.462-.157 5.807-3.502c3.345-3.345 3.502-5.807 3.502-5.807" transform="translate(-939 -1870) translate(940 1870) rotate(-4 44.375 .635)"/>
                    <path stroke="#333" stroke-linecap="round" stroke-linejoin="round" d="M20.855 34.118s3.11-.807 8.106-5.803c4.995-4.993 5.8-8.105 5.8-8.105" transform="translate(-939 -1870) translate(940 1870) rotate(-4 44.375 .635)"/>
                    <path stroke="#333" stroke-linecap="round" stroke-width="2.5" d="M17.612 22.424s-6.504-11.177-15.476-7.46M22.637 17.512s-3.541-7.038 0-13.165" transform="translate(-939 -1870) translate(940 1870) rotate(-4 44.375 .635)"/>
                    <path fill="#333" d="M13.469 3.18l.713-3.108.712 3.108c.057.241.244.43.485.487l3.113.712-3.113.713c-.241.055-.428.244-.485.486l-.712 3.11-.713-3.11c-.055-.242-.244-.43-.486-.486l-3.11-.713 3.11-.712c.242-.057.431-.246.486-.487M3.632 22.833l.296-1.292.296 1.292c.023.1.103.178.203.203l1.295.297-1.295.296c-.1.02-.18.103-.203.2l-.296 1.296-.296-1.295c-.023-.098-.103-.18-.203-.2l-1.293-.297 1.293-.297c.1-.025.18-.102.203-.203M34.2 5.66l.414-1.813.415 1.813c.032.141.144.248.283.283l1.812.415-1.812.415c-.14.034-.251.143-.283.282l-.415 1.813-.415-1.813c-.032-.139-.141-.248-.285-.282l-1.81-.415 1.81-.415c.144-.035.253-.142.285-.283" transform="translate(-939 -1870) translate(940 1870) rotate(-4 44.375 .635)"/>
                    <path stroke="#333" stroke-linecap="round" stroke-linejoin="round" d="M.152 3.29c1.235.37-.069 4.74 1.17 5.108 1.242.372 2.546-3.997 3.789-3.627 1.245.371-.06 4.742 1.185 5.116 1.25.371 2.554-3.997 3.801-3.625 1.25.374-.055 4.742 1.192 5.114" transform="translate(-939 -1870) translate(940 1870) rotate(-4 44.375 .635)"/>
                </g>
            </g>
        </g>
    </g>
</svg>
