<svg xmlns="http://www.w3.org/2000/svg" width="18" height="18" viewBox="0 0 18 18">
    <g fill="none" fill-rule="evenodd">
        <circle cx="9" cy="9" r="9" fill="#61BB56"/>
        <path fill="#FEFEFE" fill-rule="nonzero" d="M13.167 5.821A2.736 2.736 0 0 0 11.232 5C10.377 5 9.573 5.414 9 6.129 8.427 5.414 7.623 5 6.768 5c-.716 0-1.404.292-1.935.821-.357.356-.939 1.137-.816 2.367.125 1.257 1.056 3.275 4.785 5.752a.36.36 0 0 0 .396 0c3.729-2.477 4.66-4.495 4.785-5.752.123-1.23-.458-2.01-.816-2.367zm-.18 2.424C12.888 9.255 12.11 10.893 9 13c-3.109-2.107-3.888-3.745-3.988-4.755-.087-.875.244-1.471.495-1.72.37-.37.687-.525 1.41-.525.723 0 1.377.417 1.794 1.144.118.206.46.206.578 0C9.706 6.417 10.361 6 11.084 6c.723 0 1.023.156 1.393.525.25.249.598.845.51 1.72z"/>
    </g>
</svg>
