<svg xmlns="http://www.w3.org/2000/svg" width="38" height="38" viewBox="0 0 38 38">
    <g fill="none" fill-rule="evenodd">
        <circle cx="19" cy="19" r="19" fill="#FFB224"/>
        <path fill="#FEFEFE" fill-rule="nonzero" d="M25.75 14.277C24.954 13.454 23.924 13 22.849 13c-1.282 0-2.488.644-3.348 1.756C18.64 13.644 17.434 13 16.152 13c-1.075 0-2.105.454-2.903 1.277-.535.554-1.407 1.769-1.224 3.682.187 1.956 1.584 5.095 7.178 8.948a.527.527 0 0 0 .594 0c5.594-3.853 6.99-6.992 7.178-8.948.183-1.913-.688-3.127-1.224-3.682zm.159 3.573c-.161 1.685-1.413 4.416-6.409 7.929-4.996-3.513-6.248-6.244-6.41-7.929-.139-1.46.515-2.374.917-2.79.595-.614 1.356-.953 2.145-.953 1.162 0 2.213.695 2.883 1.907.19.345.74.345.93 0 .67-1.212 1.721-1.907 2.883-1.907.79 0 1.551.339 2.145.953.402.416 1.056 1.33.916 2.79z"/>
    </g>
</svg>
