<svg xmlns="http://www.w3.org/2000/svg" width="48" height="48" viewBox="0 0 48 48">
    <g fill="none" fill-rule="evenodd">
        <circle cx="24" cy="24" r="24" fill="#F5F5F5"/>
        <path fill="#D1D1D1" fill-rule="nonzero" d="M30.178 18.451v2.68l.746-.47c.556-.351 1.262-.37 1.836-.048l2.572 1.44c.558.313.903.898.903 1.533v8.233l2.173.007c.328 0 .593.264.592.589-.001.324-.268.586-.595.585l-27.813-.085c-.328 0-.593-.264-.592-.589.001-.324.268-.586.595-.585l1.779.006v-8.089c0-.634.345-1.22.903-1.533l2.572-1.44c.574-.321 1.28-.303 1.835.048l1.02.644v-6.31c0-.62.33-1.193.866-1.511l3.893-2.306c.557-.33 1.25-.334 1.81-.01l4.02 2.314c.548.316.885.895.885 1.522v2.02l1.483.844c.284.162.382.52.219.802-.164.28-.526.378-.81.216l-.892-.507zm-1.187-.675l-2.67-1.519c-.283-.161-.381-.52-.218-.801s.526-.378.81-.216l2.078 1.182v-1.346c0-.209-.112-.402-.294-.507l-3.662-2.109v19.325l3.956.012V17.776zm2.535 14.029V21.673l-1.348.852V31.8l1.348.004zm1.187.004l2.335.007v-8.23c0-.212-.115-.407-.301-.511l-2.034-1.14v9.874zm-15.357-.047l1.348.004V22.77l-1.348-.851v9.843zm-1.186-.004v-9.903l-2.308 1.292c-.186.104-.301.3-.301.511v8.092l2.609.008zm7.678.024V12.39l-3.668 2.172c-.179.106-.289.297-.289.504v16.702l3.957.013z"/>
    </g>
</svg>
