<svg xmlns="http://www.w3.org/2000/svg" width="38" height="38" viewBox="0 0 38 38">
    <g fill="none" fill-rule="evenodd">
        <circle cx="19" cy="19" r="19" fill="#61BB56"/>
        <path fill="#FEFEFE" fill-rule="nonzero" d="M25.75 14.277C24.954 13.454 23.924 13 22.849 13c-1.282 0-2.488.644-3.348 1.756C18.64 13.644 17.434 13 16.152 13c-1.075 0-2.105.454-2.903 1.277-.535.554-1.407 1.769-1.224 3.682.187 1.956 1.584 5.095 7.178 8.948a.527.527 0 0 0 .594 0c5.594-3.853 6.99-6.992 7.178-8.948.183-1.913-.688-3.127-1.224-3.682z"/>
    </g>
</svg>
