<svg xmlns="http://www.w3.org/2000/svg" xmlns:xlink="http://www.w3.org/1999/xlink" width="20" height="20" viewBox="0 0 20 20">
    <defs>
        <path id="04kfp7shna" d="M10 2c2.689 0 4.882 2.122 4.995 4.783L15 7c1.105 0 2 .895 2 2v6c0 1.105-.895 2-2 2H5c-1.105 0-2-.895-2-2V9c0-1.105.895-2 2-2 0-2.761 2.239-5 5-5zm5 6H5c-.513 0-.936.386-.993.883L4 9v6c0 .513.386.936.883.993L5 16h10c.513 0 .936-.386.993-.883L16 15V9c0-.513-.386-.936-.883-.993L15 8zm-5 1c1.105 0 2 .895 2 2 0 .932-.637 1.714-1.499 1.937L10.5 14.5c0 .276-.224.5-.5.5s-.5-.224-.5-.5v-1.563C8.637 12.715 8 11.932 8 11c0-1.105.895-2 2-2zm0 1c-.552 0-1 .448-1 1s.448 1 1 1 1-.448 1-1-.448-1-1-1zm0-7C7.858 3 6.109 4.684 6.005 6.8L6 7h8c0-2.142-1.684-3.891-3.8-3.995L10 3z"/>
    </defs>
    <g fill="none" fill-rule="evenodd">
        <g>
            <g>
                <g transform="translate(-630 -3090) translate(472 3087) translate(158 3)">
                    <mask id="1ecesgrvob" fill="#fff">
                        <use xlink:href="#04kfp7shna"/>
                    </mask>
                    <use fill="#3A3A3A" xlink:href="#04kfp7shna"/>
                </g>
            </g>
        </g>
    </g>
</svg>
