<svg xmlns="http://www.w3.org/2000/svg" xmlns:xlink="http://www.w3.org/1999/xlink" width="20" height="20" viewBox="0 0 20 20">
    <defs>
        <path id="615bhbaqja" d="M7.167 16.842c-.198-.187-.22-.477-.066-.687l.066-.074L13.621 10 7.167 3.92c-.198-.188-.22-.478-.066-.688l.066-.074c.199-.187.507-.208.73-.063l.078.063 6.858 6.461c.198.187.22.477.066.687l-.066.075-6.858 6.461c-.223.21-.584.21-.808 0z"/>
    </defs>
    <g fill="none" fill-rule="evenodd">
        <g>
            <g>
                <g transform="translate(-1216 -3528) translate(1147 3524) translate(69 4)">
                    <mask id="e09812ffmb" fill="#fff">
                        <use xlink:href="#615bhbaqja"/>
                    </mask>
                    <use fill="#979797" fill-rule="nonzero" xlink:href="#615bhbaqja"/>
                    <g mask="url(#e09812ffmb)">
                        <path fill="#F4F5F7" d="M0 0H20V20H0z"/>
                        <path fill="#5B606B" d="M0 0H20V20H0z"/>
                    </g>
                </g>
            </g>
        </g>
    </g>
</svg>
