<svg xmlns="http://www.w3.org/2000/svg" xmlns:xlink="http://www.w3.org/1999/xlink" width="24" height="24" viewBox="0 0 24 24">
    <defs>
        <path id="rzuodyigoa" d="M14.154 4.155c.194-.207.507-.207.7 0 .173.183.192.468.058.674l-.057.073L8.196 12l6.659 7.098c.172.183.191.468.057.674l-.057.073c-.172.184-.44.204-.632.061l-.069-.06-7.009-7.472c-.172-.184-.191-.469-.057-.674l.057-.074 7.009-7.471z"/>
    </defs>
    <g fill="none" fill-rule="evenodd">
        <g>
            <g>
                <g transform="translate(-24 -18) translate(24 18)">
                    <mask id="7mkbn75i2b" fill="#fff">
                        <use xlink:href="#rzuodyigoa"/>
                    </mask>
                    <use fill="#464646" fill-rule="nonzero" xlink:href="#rzuodyigoa"/>
                    <g mask="url(#7mkbn75i2b)">
                        <path fill="#656565" d="M0 0H24V24H0z"/>
                        <path fill="#464646" d="M0 0H24V24H0z"/>
                    </g>
                </g>
            </g>
        </g>
    </g>
</svg>
