<svg xmlns="http://www.w3.org/2000/svg" xmlns:xlink="http://www.w3.org/1999/xlink" width="24" height="24" viewBox="0 0 24 24">
    <defs>
        <path id="0a927jgwfa" d="M20.485 3.515c.196.195.196.512 0 .707L12.707 12l7.778 7.778c.196.195.196.512 0 .707-.195.196-.512.196-.707 0L12 12.707l-7.778 7.778c-.195.196-.512.196-.707 0-.196-.195-.196-.512 0-.707L11.293 12 3.515 4.222c-.196-.195-.196-.512 0-.707.195-.196.512-.196.707 0L12 11.293l7.778-7.778c.195-.196.512-.196.707 0z"/>
    </defs>
    <g fill="none" fill-rule="evenodd">
        <g>
            <g>
                <g transform="translate(-1208 -2369) translate(472 2325) rotate(90 358 402)">
                    <mask id="rz4oj7nftb" fill="#fff">
                        <use xlink:href="#0a927jgwfa"/>
                    </mask>
                    <use fill="#656565" xlink:href="#0a927jgwfa"/>
                    <g fill="#FF5859" mask="url(#rz4oj7nftb)">
                        <path d="M0 0H24V24H0z"/>
                        <path d="M0 0H24V24H0z"/>
                    </g>
                </g>
            </g>
        </g>
    </g>
</svg>
