<svg xmlns="http://www.w3.org/2000/svg" xmlns:xlink="http://www.w3.org/1999/xlink" width="24" height="24" viewBox="0 0 24 24">
    <defs>
        <path id="sw6czw6bxa" d="M16 17c.934 0 1.719.64 1.939 1.506L18 18.5h2.5c.276 0 .5.224.5.5s-.224.5-.5.5H18l-.062-.005C17.718 20.36 16.934 21 16 21c-.934 0-1.718-.64-1.938-1.505L14 19.5H3.5c-.276 0-.5-.224-.5-.5s.224-.5.5-.5H14l.061.006C14.281 17.64 15.066 17 16 17zm0 1c-.552 0-1 .448-1 1s.448 1 1 1 1-.448 1-1-.448-1-1-1zm-8-8c.934 0 1.719.64 1.939 1.506L10 11.5h10.5c.276 0 .5.224.5.5s-.224.5-.5.5H10l-.062-.005C9.718 13.36 8.934 14 8 14c-.934 0-1.718-.64-1.938-1.505L6 12.5H3.5c-.276 0-.5-.224-.5-.5s.224-.5.5-.5H6l.061.006C6.281 10.64 7.066 10 8 10zm0 1c-.552 0-1 .448-1 1s.448 1 1 1 1-.448 1-1-.448-1-1-1zm8-8c.934 0 1.719.64 1.939 1.506L18 4.5h2.5c.276 0 .5.224.5.5s-.224.5-.5.5H18l-.062-.005C17.718 6.36 16.934 7 16 7c-.934 0-1.718-.64-1.938-1.505L14 5.5H3.5c-.276 0-.5-.224-.5-.5s.224-.5.5-.5H14l.061.006C14.281 3.64 15.066 3 16 3zm0 1c-.552 0-1 .448-1 1s.448 1 1 1 1-.448 1-1-.448-1-1-1z"/>
    </defs>
    <g fill="none" fill-rule="evenodd">
        <g>
            <mask id="jk1a0t4vbb" fill="#fff">
                <use xlink:href="#sw6czw6bxa"/>
            </mask>
            <use fill="#2581FF" fill-rule="nonzero" xlink:href="#sw6czw6bxa"/>
        </g>
    </g>
</svg>
