<svg xmlns="http://www.w3.org/2000/svg" width="12" height="12" viewBox="0 0 12 12">
    <g fill="none" fill-rule="evenodd">
        <g>
            <g>
                <g transform="translate(-551 -2657) translate(60 2361) translate(488 293)">
                    <rect width="18" height="18" fill="#FEFEFE" fill-opacity="0" rx="3"/>
                    <path fill="#656565" d="M9.731 9l5.118 5.118c.201.201.201.529 0 .73-.202.202-.53.202-.731 0L9 9.732 3.882 14.85c-.201.201-.529.201-.73 0-.202-.202-.202-.53 0-.731L8.268 9 3.15 3.882c-.201-.201-.201-.529 0-.73.202-.202.53-.202.731 0L9 8.268l5.118-5.118c.201-.201.529-.201.73 0 .202.202.202.53 0 .731L9.732 9z"/>
                </g>
            </g>
        </g>
    </g>
</svg>
