<svg xmlns="http://www.w3.org/2000/svg" width="70" height="70" viewBox="0 0 70 70">
    <g fill="none" fill-rule="evenodd">
        <circle cx="35" cy="35" r="34.5" stroke="#656565"/>
        <path fill="#656565" d="M34.646 0.854H35.646V69.854H34.646z" transform="rotate(45 35.146 35.354)"/>
        <path fill="#656565" fill-rule="nonzero" d="M16.007 36.764L21.772 31v-9.481c0-1.155.928-2.093 2.075-2.093h9.42v.964h-9.42c-.614 0-1.113.504-1.113 1.129v15.245h.972c.949 0 1.777.64 2.017 1.56l.245.939c.274 1.048 1.22 1.78 2.301 1.78h13.698c1.04 0 1.935-.734 2.141-1.754l.173-.853c.197-.973 1.051-1.672 2.043-1.672h.942V21.519c0-.625-.5-1.13-1.113-1.13h-9.956v-.963h9.956c1.147 0 2.075.938 2.075 2.093v9.48l5.767 5.763.005.002v10.68c0 2.607-2.012 4.731-4.507 4.731H20.507c-2.495 0-4.507-2.124-4.507-4.731v-10.68h.007zm1.358 0h4.407V32.36l-4.407 4.403zm35.27 0l-4.407-4.403v4.403h4.407zm-28.929.963h-6.744v9.717c0 2.086 1.593 3.768 3.545 3.768h28.986c1.952 0 3.545-1.682 3.545-3.768v-9.717h-6.714c-.534 0-.994.377-1.1.9l-.173.853c-.297 1.47-1.587 2.525-3.084 2.525H28.269c-1.52 0-2.847-1.027-3.231-2.499l-.246-.94c-.129-.494-.575-.839-1.086-.839zm10.577-5.995l-4.219-4.915c-.172-.201-.473-.223-.672-.048-.199.174-.22.478-.048.679l5.013 5.84c.1.117.242.172.381.166h.021c.205 0 .38-.13.447-.314l4.966-5.69c.174-.199.155-.503-.042-.679-.197-.176-.498-.157-.673.043l-4.221 4.836V17.982c0-.266-.214-.482-.477-.482s-.476.216-.476.482v13.75z"/>
    </g>
</svg>
