<svg xmlns="http://www.w3.org/2000/svg" xmlns:xlink="http://www.w3.org/1999/xlink" width="24" height="23" viewBox="0 0 24 23">
    <defs>
        <path id="prefix__a" d="M0 0H24V23H0z"/>
    </defs>
    <g fill="none" fill-rule="evenodd">
        <mask id="prefix__b" fill="#fff">
            <use xlink:href="#prefix__a"/>
        </mask>
        <path fill="#FEFEFE" fill-rule="nonzero" d="M12 0c6.627 0 12 4.33 12 9.672 0 5.341-5.373 9.672-12 9.672-.727 0-1.44-.052-2.131-.153-.693.5-4.693 3.372-5.07 3.426 0 0-.156.061-.287-.018-.132-.08-.108-.287-.108-.287.04-.277 1.037-3.797 1.22-4.445C2.247 16.155 0 13.125 0 9.672 0 4.33 5.373 0 12 0zM5.365 13.048c.382 0 .693-.303.693-.676V8.168h1.08c.374 0 .68-.311.68-.693 0-.382-.305-.693-.68-.693H3.593c-.375 0-.68.311-.68.693 0 .382.305.693.68.693h1.08v4.204c0 .373.31.676.692.676zm6.07-.01c.153.001.303-.032.441-.097.19-.09.374-.337.164-1.006l-1.656-4.454c-.117-.34-.47-.688-.923-.699-.451.01-.805.36-.922.699l-1.656 4.455c-.21.668-.027.915.164 1.005.138.065.288.098.44.098.289 0 .51-.12.576-.312l.343-.918h2.111l.343.917c.066.193.287.313.576.313zm-1.282-2.483H8.77l.691-2.008.692 2.008zm3 2.39h2.222c.366 0 .663-.291.663-.649 0-.357-.297-.649-.663-.649h-1.471V7.49c0-.39-.317-.708-.707-.708-.39 0-.707.317-.707.708v4.806c0 .358.298.649.664.649zm3.847.094c.184 0 .36-.075.49-.208.13-.132.202-.312.203-.5v-1.544l.24-.246 1.623 2.2c.065.087.148.158.244.207.096.049.202.074.31.074.15 0 .296-.05.416-.143.073-.056.134-.126.18-.206.046-.08.076-.169.088-.261.013-.092.008-.186-.015-.276-.022-.09-.062-.174-.117-.248L18.957 9.58l1.578-1.613c.109-.11.163-.264.153-.43-.01-.166-.082-.325-.204-.45-.13-.132-.303-.208-.476-.208-.148 0-.285.056-.384.157l-1.932 1.975V7.49c0-.39-.31-.708-.692-.708-.382 0-.692.317-.692.708v4.841c0 .39.31.708.692.708z" mask="url(#prefix__b)"/>
    </g>
</svg>
