<svg xmlns="http://www.w3.org/2000/svg" xmlns:xlink="http://www.w3.org/1999/xlink" width="24" height="24" viewBox="0 0 24 24">
    <defs>
        <path id="6pey8pkfoa" d="M12.533 18.636c1.418-1.654 2.389-4.659 2.475-8.136h3.987c-.213 3.868-2.874 7.09-6.462 8.136zM1.046 10.5h3.987c.086 3.477 1.057 6.482 2.475 8.136C3.92 17.59 1.26 14.368 1.046 10.5zm6.463-9.136c-1.42 1.654-2.39 4.66-2.476 8.136H1.046C1.26 5.631 3.92 2.41 7.509 1.364zm2.99 8.136V1.086c1.692.535 3.392 3.818 3.51 8.414h-3.51zm0 9.414V10.5h3.51c-.118 4.595-1.818 7.878-3.51 8.414zm-1-8.414v8.4c-1.675-.576-3.35-3.842-3.466-8.4H9.5zm0-9.4v8.4H6.034C6.15 4.941 7.823 1.676 9.5 1.1zm9.496 8.4h-3.987c-.086-3.477-1.057-6.482-2.475-8.136C16.12 2.41 18.782 5.631 18.995 9.5zm1.005.905c.006-.136.02-.269.02-.405 0-.137-.014-.27-.02-.405V9.5h-.005C19.74 4.371 15.632.268 10.5.024V0h-1v.026C4.387.29.3 4.386.046 9.5H0v1h.046c.254 5.115 4.34 9.21 9.454 9.473V20h1v-.025c5.132-.243 9.24-4.346 9.495-9.475H20v-.095z"/>
    </defs>
    <g fill="none" fill-rule="evenodd">
        <g>
            <g>
                <g>
                    <g>
                        <g transform="translate(-46 -1804) translate(20 619) translate(16 1145) translate(10 40) translate(2 2)">
                            <mask id="c98sfvdnjb" fill="#fff">
                                <use xlink:href="#6pey8pkfoa"/>
                            </mask>
                            <use fill="#000" xlink:href="#6pey8pkfoa"/>
                            <g mask="url(#c98sfvdnjb)">
                                <g>
                                    <path fill="#F4F5F7" d="M0 0H24V24H0z" transform="translate(-2 -2)"/>
                                    <path fill="#5B606B" d="M0 0H24V24H0z" transform="translate(-2 -2)"/>
                                </g>
                            </g>
                        </g>
                    </g>
                </g>
            </g>
        </g>
    </g>
</svg>
