<svg xmlns="http://www.w3.org/2000/svg" width="12" height="13" viewBox="0 0 12 13">
    <g fill="none" fill-rule="evenodd">
        <path fill="#656565" fill-rule="nonzero" d="M1.9 4.563v-.711C1.9 1.716 3.743 0 6 0c2.257 0 4.1 1.716 4.1 3.852v.71h.3a1.6 1.6 0 0 1 1.6 1.6v4.926a1.6 1.6 0 0 1-1.6 1.6H1.6a1.6 1.6 0 0 1-1.6-1.6V6.163a1.6 1.6 0 0 1 1.6-1.6h.3zm1 0h6.2v-.711C9.1 2.285 7.72 1 6 1 4.28 1 2.9 2.285 2.9 3.852v.71zm-1.3 1a.6.6 0 0 0-.6.6v4.925a.6.6 0 0 0 .6.6h8.8a.6.6 0 0 0 .6-.6V6.163a.6.6 0 0 0-.6-.6H1.6z"/>
        <ellipse cx="6" cy="8.125" stroke="#656565" rx="1" ry="1"/>
        <path fill="#656565" fill-rule="nonzero" d="M5.5 9.046a.5.5 0 0 1 1 0v1.61a.5.5 0 1 1-1 0v-1.61z"/>
    </g>
</svg>
