<svg xmlns="http://www.w3.org/2000/svg" width="20" height="20" viewBox="0 0 20 20">
    <g fill="none" fill-rule="evenodd">
        <g>
            <g>
                <g>
                    <g>
                        <path stroke="#000" stroke-width=".5" d="M5.254 5.023C3.193 7.084 2.033 9.266 2.662 9.896c.082.081.188.132.317.155.872.162 2.76-.949 4.557-2.747 1.798-1.797 2.909-3.685 2.747-4.557-.024-.129-.074-.235-.155-.316-.63-.63-2.812.53-4.874 2.592z" transform="translate(-531 -2352) translate(340 2148) translate(191 204) translate(2 2)"/>
                        <path stroke="#000" stroke-linecap="round" stroke-linejoin="round" stroke-width=".5" d="M7.536 7.304C5.74 9.1 3.85 10.214 2.98 10.05l10.514 5.16s.9.35 1.6-.35c.7-.7.35-1.6.35-1.6l-5.16-10.515c.162.873-.95 2.761-2.747 4.558z" transform="translate(-531 -2352) translate(340 2148) translate(191 204) translate(2 2)"/>
                        <path stroke="#000" stroke-linejoin="round" stroke-width=".5" d="M10.775 13.891s.885-.056 2.088-1.26c1.203-1.202 1.26-2.088 1.26-2.088" transform="translate(-531 -2352) translate(340 2148) translate(191 204) translate(2 2)"/>
                        <path stroke="#000" stroke-linecap="round" stroke-linejoin="round" stroke-width=".5" d="M7.5 12.27s1.119-.29 2.916-2.086c1.796-1.796 2.086-2.916 2.086-2.916" transform="translate(-531 -2352) translate(340 2148) translate(191 204) translate(2 2)"/>
                        <path stroke="#000" stroke-width=".5" d="M5.254 5.023C3.193 7.084 2.033 9.266 2.662 9.896c.082.081.188.132.317.155.872.162 2.76-.949 4.557-2.747 1.798-1.797 2.909-3.685 2.747-4.557-.024-.129-.074-.235-.155-.316-.63-.63-2.812.53-4.874 2.592z" transform="translate(-531 -2352) translate(340 2148) translate(191 204) translate(2 2)"/>
                        <path stroke="#7D7D7D" stroke-linecap="round" stroke-linejoin="round" stroke-width=".5" d="M7.536 7.304C5.74 9.1 3.85 10.214 2.98 10.05l10.514 5.16s.9.35 1.6-.35c.7-.7.35-1.6.35-1.6l-5.16-10.515c.162.873-.95 2.761-2.747 4.558z" transform="translate(-531 -2352) translate(340 2148) translate(191 204) translate(2 2)"/>
                        <path stroke="#000" stroke-linejoin="round" stroke-width=".5" d="M10.775 13.891s.885-.056 2.088-1.26c1.203-1.202 1.26-2.088 1.26-2.088" transform="translate(-531 -2352) translate(340 2148) translate(191 204) translate(2 2)"/>
                        <path stroke="#000" stroke-linecap="round" stroke-linejoin="round" stroke-width=".5" d="M7.5 12.27s1.119-.29 2.916-2.086c1.796-1.796 2.086-2.916 2.086-2.916" transform="translate(-531 -2352) translate(340 2148) translate(191 204) translate(2 2)"/>
                        <path stroke="#7D7D7D" stroke-width=".5" d="M5.254 5.023C3.193 7.084 2.033 9.266 2.662 9.896c.082.081.188.132.317.155.872.162 2.76-.949 4.557-2.747 1.798-1.797 2.909-3.685 2.747-4.557-.024-.129-.074-.235-.155-.316-.63-.63-2.812.53-4.874 2.592z" transform="translate(-531 -2352) translate(340 2148) translate(191 204) translate(2 2)"/>
                        <path d="M7.536 7.304C5.74 9.1 3.85 10.214 2.98 10.05l10.514 5.16s.9.35 1.6-.35c.7-.7.35-1.6.35-1.6l-5.16-10.515c.162.873-.95 2.761-2.747 4.558z" transform="translate(-531 -2352) translate(340 2148) translate(191 204) translate(2 2)"/>
                        <path stroke="#7D7D7D" stroke-linejoin="round" stroke-width=".5" d="M10.775 13.891s.885-.056 2.088-1.26c1.203-1.202 1.26-2.088 1.26-2.088" transform="translate(-531 -2352) translate(340 2148) translate(191 204) translate(2 2)"/>
                        <path stroke="#7D7D7D" stroke-linecap="round" stroke-linejoin="round" stroke-width=".5" d="M7.5 12.27s1.119-.29 2.916-2.086c1.796-1.796 2.086-2.916 2.086-2.916" transform="translate(-531 -2352) translate(340 2148) translate(191 204) translate(2 2)"/>
                        <path stroke="#7D7D7D" stroke-linecap="round" stroke-width=".82" d="M6.334 8.065S3.994 4.045.768 5.382M8.141 6.298s-1.273-2.531 0-4.734" transform="translate(-531 -2352) translate(340 2148) translate(191 204) translate(2 2)"/>
                        <path fill="#7D7D7D" d="M4.844 1.144L5.101.026l.256 1.118c.02.086.087.154.174.175l1.12.256-1.12.256c-.087.02-.154.088-.174.175L5.1 3.125l-.257-1.119c-.02-.087-.088-.155-.175-.175l-1.118-.256 1.118-.256c.087-.02.155-.089.175-.175M1.306 8.212l.107-.465.106.465c.009.036.037.064.073.073l.466.107-.466.106c-.036.008-.064.037-.073.072l-.106.466-.107-.466c-.008-.035-.037-.064-.073-.072l-.465-.106.465-.107c.036-.009.065-.037.073-.073M12.3 2.036l.149-.652.15.652c.01.05.05.089.1.101l.653.15-.652.149c-.05.012-.09.051-.102.101l-.15.652-.148-.652c-.012-.05-.051-.089-.103-.101l-.65-.15.65-.149c.052-.012.091-.05.103-.101" transform="translate(-531 -2352) translate(340 2148) translate(191 204) translate(2 2)"/>
                        <path stroke="#7D7D7D" stroke-linecap="round" stroke-linejoin="round" stroke-width=".5" d="M.055 1.184c.444.132-.025 1.704.42 1.836.447.134.916-1.437 1.363-1.304.448.133-.021 1.705.426 1.84.45.133.919-1.438 1.367-1.304.45.134-.02 1.706.43 1.84" transform="translate(-531 -2352) translate(340 2148) translate(191 204) translate(2 2)"/>
                    </g>
                </g>
            </g>
        </g>
    </g>
</svg>
