<svg width="16" height="16" viewBox="0 0 16 16" fill="none" xmlns="http://www.w3.org/2000/svg">
<g clip-path="url(#clip0_948_38986)">
<path fill-rule="evenodd" clip-rule="evenodd" d="M7.99993 7.29289L4.41389 3.70685C4.24652 3.53948 3.95255 3.5621 3.75729 3.75736C3.56203 3.95262 3.53941 4.24659 3.70678 4.41396L7.29282 8L3.70678 11.586C3.53941 11.7534 3.56203 12.0474 3.75729 12.2426C3.95255 12.4379 4.24652 12.4605 4.41389 12.2931L7.99993 8.70711L11.586 12.2931C11.7533 12.4605 12.0473 12.4379 12.2426 12.2426C12.4378 12.0474 12.4604 11.7534 12.2931 11.586L8.70704 8L12.2931 4.41396C12.4604 4.24659 12.4378 3.95262 12.2426 3.75736C12.0473 3.5621 11.7533 3.53948 11.586 3.70685L7.99993 7.29289Z" fill="#595959"/>
</g>
<defs>
<clipPath id="clip0_948_38986">
<rect width="16" height="16" fill="white"/>
</clipPath>
</defs>
</svg>
