<svg xmlns="http://www.w3.org/2000/svg" xmlns:xlink="http://www.w3.org/1999/xlink" width="20" height="20" viewBox="0 0 20 20">
    <defs>
        <path id="nolasmku2a" d="M12 3c.552 0 1 .448 1 1v1h3.5c.276 0 .5.224.5.5s-.224.5-.5.5h-.583l-.84 10.083c-.044.518-.477.917-.997.917H5.92c-.52 0-.953-.399-.996-.917L4.083 6H3.5c-.276 0-.5-.224-.5-.5s.224-.5.5-.5H7V4c0-.552.448-1 1-1h4zm2.913 3H5.086l.834 10h8.16l.833-10zM10 8c.276 0 .5.224.5.5v5c0 .276-.224.5-.5.5s-.5-.224-.5-.5v-5c0-.276.224-.5.5-.5zm2.5 0c.254 0 .46.206.46.46l-.422 5.082c-.021.259-.238.458-.498.458H12c-.254 0-.46-.206-.46-.46l.422-5.082C11.983 8.2 12.2 8 12.46 8h.04zM7.54 8c.26 0 .477.2.498.458l.42 5.044c.022.253-.167.475-.42.496L7.96 14c-.26 0-.477-.2-.498-.458l-.42-5.044c-.022-.253.167-.475.42-.496L7.54 8zM12 4H8v1h4V4z"/>
    </defs>
    <g fill="none" fill-rule="evenodd">
        <g>
            <g>
                <g>
                    <g>
                        <g transform="translate(-304 -1325) translate(0 561) translate(20 756) translate(252 8) translate(32)">
                            <mask id="glgmw7cnzb" fill="#fff">
                                <use xlink:href="#nolasmku2a"/>
                            </mask>
                            <use fill="#979797" xlink:href="#nolasmku2a"/>
                            <g mask="url(#glgmw7cnzb)">
                                <path fill="#464646" d="M0 0H20V20H0z"/>
                                <path fill="#3A3A3A" d="M0 0H20V20H0z"/>
                            </g>
                        </g>
                    </g>
                </g>
            </g>
        </g>
    </g>
</svg>
